<svg width="774" height="646" viewBox="0 0 774 646" fill="none" xmlns="http://www.w3.org/2000/svg">
<path d="M269.144 144.431C283.019 154.775 278.099 176.663 261.132 180.074L115.686 209.313C113.919 209.668 112.209 210.26 110.601 211.073L-22.3775 278.327C-38.872 286.669 -56.8857 270.089 -49.9365 252.961L18.444 84.4205L73.8192 -100.056C79.5511 -119.152 106.636 -119.022 112.185 -99.8725L157.362 56.0448C158.576 60.232 161.124 63.9082 164.619 66.5136L269.144 144.431Z" fill="url(#paint0_linear)" fill-opacity="0.1"/>
<path d="M604.934 472.501C613.118 457.252 635.493 458.89 641.369 475.168L665.429 541.824C666.041 543.519 666.879 545.123 667.92 546.594L707.164 602C717.847 617.084 704.105 637.346 686.139 632.999L599.795 612.106L511.109 599.283C491.377 596.43 487.511 569.623 505.632 561.31L568.029 532.689C571.992 530.872 575.252 527.809 577.314 523.968L604.934 472.501Z" fill="url(#paint1_linear)" fill-opacity="0.1"/>
<defs>
<linearGradient id="paint0_linear" x1="307.741" y1="163.678" x2="14.2973" y2="61.1484" gradientUnits="userSpaceOnUse">
<stop stop-color="#EE4266"/>
<stop offset="1" stop-color="#21B7B7"/>
</linearGradient>
<linearGradient id="paint1_linear" x1="621.388" y1="432.08" x2="586.251" y2="616.66" gradientUnits="userSpaceOnUse">
<stop stop-color="#EE4266"/>
<stop offset="1" stop-color="#21B7B7"/>
</linearGradient>
</defs>
</svg>
