<?xml version="1.0" encoding="utf-8"?>
<!-- Generator: Adobe Illustrator 23.0.3, SVG Export Plug-In . SVG Version: 6.00 Build 0)  -->
<svg version="1.1" id="Layer_1" xmlns="http://www.w3.org/2000/svg" xmlns:xlink="http://www.w3.org/1999/xlink" x="0px" y="0px"
	 viewBox="0 0 960 540" style="enable-background:new 0 0 960 540;" xml:space="preserve">
<style type="text/css">
	.st0{clip-path:url(#SVGID_2_);}
	.st1{fill-rule:evenodd;clip-rule:evenodd;fill:#FFFFFF;}
	.st2{fill-rule:evenodd;clip-rule:evenodd;fill-opacity:0;}
	.st3{fill:#434343;}
	.st4{fill:none;stroke:#595959;stroke-linejoin:round;stroke-miterlimit:10;}
	.st5{fill-rule:evenodd;clip-rule:evenodd;fill:#595959;stroke:#595959;stroke-miterlimit:10;}
</style>
<g>
	<defs>
		<rect id="SVGID_1_" width="960" height="540"/>
	</defs>
	<clipPath id="SVGID_2_">
		<use xlink:href="#SVGID_1_"  style="overflow:visible;"/>
	</clipPath>
	<g class="st0">
		<path class="st1" d="M0,0h960v540H0V0z"/>
		<path class="st2" d="M32.7,31.3h894.6v60.1H32.7L32.7,31.3z"/>
		<path d="M62.1,76.1l-3.3-8.5H48.1l-3.3,8.5h-3.1l10.5-26.8h2.6l10.5,26.8H62.1z M57.8,64.8l-3.1-8.3c-0.4-1.1-0.8-2.3-1.2-3.8
			c-0.3,1.2-0.7,2.4-1.2,3.8l-3.1,8.3H57.8z M71.6,76.1h-3V47.7h3V76.1z M86.4,76.5c-2.9,0-5.3-0.9-7-2.7c-1.7-1.8-2.6-4.3-2.6-7.5
			c0-3.2,0.8-5.8,2.4-7.7c1.6-1.9,3.7-2.8,6.4-2.8c2.5,0,4.5,0.8,5.9,2.5c1.5,1.6,2.2,3.8,2.2,6.5v1.9H80c0.1,2.3,0.7,4.1,1.8,5.3
			c1.1,1.2,2.7,1.8,4.8,1.8c2.2,0,4.3-0.4,6.4-1.3v2.7c-1.1,0.5-2.1,0.8-3,1C88.9,76.4,87.8,76.5,86.4,76.5z M85.6,58.3
			c-1.6,0-2.9,0.5-3.8,1.6c-0.9,1-1.5,2.5-1.7,4.3h10.5c0-1.9-0.4-3.4-1.3-4.4C88.4,58.8,87.2,58.3,85.6,58.3z M108.1,55.7
			c0.9,0,1.7,0.1,2.4,0.2l-0.4,2.8c-0.8-0.2-1.6-0.3-2.2-0.3c-1.6,0-3,0.7-4.2,2c-1.1,1.3-1.7,2.9-1.7,4.9v10.7h-3v-20h2.5l0.3,3.7
			h0.2c0.7-1.3,1.6-2.3,2.7-3C105.6,56.1,106.8,55.7,108.1,55.7z M120.6,74c0.5,0,1.1,0,1.5-0.1c0.5-0.1,0.9-0.2,1.2-0.3v2.3
			c-0.3,0.2-0.8,0.3-1.5,0.4c-0.6,0.1-1.2,0.2-1.7,0.2c-3.9,0-5.8-2-5.8-6.1V58.5h-2.9V57l2.9-1.3l1.3-4.3h1.8v4.6h5.8v2.3h-5.8
			v11.8c0,1.2,0.3,2.1,0.9,2.8C118.9,73.6,119.6,74,120.6,74z M152.5,69c0,2.3-0.9,4.2-2.6,5.5c-1.7,1.3-4,2-6.9,2
			c-3.2,0-5.6-0.4-7.3-1.2v-3c1.1,0.5,2.3,0.8,3.6,1.1c1.3,0.3,2.6,0.4,3.8,0.4c2.1,0,3.6-0.4,4.7-1.2c1-0.8,1.6-1.9,1.6-3.3
			c0-0.9-0.2-1.7-0.6-2.3c-0.4-0.6-1-1.1-1.9-1.6c-0.9-0.5-2.2-1.1-4-1.7c-2.5-0.9-4.3-1.9-5.3-3.2s-1.6-2.8-1.6-4.8
			c0-2.1,0.8-3.7,2.3-4.9c1.5-1.2,3.6-1.8,6.1-1.8c2.6,0,5.1,0.5,7.3,1.5l-1,2.7c-2.2-0.9-4.3-1.4-6.4-1.4c-1.6,0-2.9,0.4-3.8,1.1
			c-0.9,0.7-1.4,1.7-1.4,2.9c0,0.9,0.2,1.7,0.5,2.3c0.3,0.6,0.9,1.1,1.7,1.6c0.8,0.5,2.1,1,3.7,1.6c2.8,1,4.7,2.1,5.8,3.2
			C152,65.7,152.5,67.2,152.5,69z M164,74c0.5,0,1.1,0,1.5-0.1c0.5-0.1,0.9-0.2,1.2-0.3v2.3c-0.3,0.2-0.8,0.3-1.5,0.4
			c-0.6,0.1-1.2,0.2-1.7,0.2c-3.9,0-5.8-2-5.8-6.1V58.5h-2.9V57l2.9-1.3l1.3-4.3h1.8v4.6h5.8v2.3h-5.8v11.8c0,1.2,0.3,2.1,0.9,2.8
			C162.2,73.6,163,74,164,74z M179.8,55.7c0.9,0,1.7,0.1,2.4,0.2l-0.4,2.8c-0.8-0.2-1.6-0.3-2.2-0.3c-1.6,0-3,0.7-4.2,2
			c-1.1,1.3-1.7,2.9-1.7,4.9v10.7h-3v-20h2.5l0.3,3.7h0.2c0.7-1.3,1.6-2.3,2.7-3C177.4,56.1,178.6,55.7,179.8,55.7z M194.4,76.5
			c-2.9,0-5.3-0.9-7-2.7c-1.7-1.8-2.6-4.3-2.6-7.5c0-3.2,0.8-5.8,2.4-7.7c1.6-1.9,3.7-2.8,6.4-2.8c2.5,0,4.5,0.8,5.9,2.5
			c1.5,1.6,2.2,3.8,2.2,6.5v1.9H188c0.1,2.3,0.7,4.1,1.8,5.3c1.1,1.2,2.7,1.8,4.8,1.8c2.2,0,4.3-0.4,6.4-1.3v2.7
			c-1.1,0.5-2.1,0.8-3,1C196.9,76.4,195.7,76.5,194.4,76.5z M193.6,58.3c-1.6,0-2.9,0.5-3.8,1.6c-0.9,1-1.5,2.5-1.7,4.3h10.5
			c0-1.9-0.4-3.4-1.3-4.4C196.4,58.8,195.2,58.3,193.6,58.3z M219.2,76.1l-0.6-2.8h-0.1c-1,1.3-2,2.1-3,2.5c-1,0.4-2.2,0.7-3.7,0.7
			c-2,0-3.5-0.5-4.7-1.5c-1.1-1-1.7-2.5-1.7-4.3c0-4,3.2-6.2,9.7-6.3l3.4-0.1v-1.3c0-1.6-0.3-2.7-1-3.5c-0.7-0.8-1.7-1.1-3.2-1.1
			c-1.7,0-3.5,0.5-5.6,1.5l-0.9-2.3c1-0.5,2.1-0.9,3.2-1.3c1.2-0.3,2.4-0.5,3.5-0.5c2.4,0,4.2,0.5,5.3,1.6s1.7,2.7,1.7,5.1v13.6
			H219.2z M212.3,74c1.9,0,3.4-0.5,4.4-1.5c1.1-1,1.6-2.5,1.6-4.3v-1.8l-3,0.1c-2.4,0.1-4.1,0.5-5.2,1.1c-1.1,0.7-1.6,1.7-1.6,3.1
			c0,1.1,0.3,1.9,1,2.5C210.2,73.7,211.2,74,212.3,74z M253.1,76.1v-13c0-1.6-0.3-2.8-1-3.6c-0.7-0.8-1.7-1.2-3.2-1.2
			c-1.9,0-3.3,0.5-4.2,1.6c-0.9,1.1-1.3,2.7-1.3,5v11.2h-3v-13c0-1.6-0.3-2.8-1-3.6c-0.7-0.8-1.7-1.2-3.2-1.2
			c-1.9,0-3.3,0.6-4.2,1.7c-0.9,1.1-1.3,3-1.3,5.6v10.5h-3v-20h2.5l0.5,2.7h0.2c0.6-1,1.4-1.7,2.4-2.3c1-0.6,2.2-0.8,3.5-0.8
			c3.1,0,5.2,1.1,6.1,3.4h0.1c0.6-1,1.5-1.9,2.6-2.5c1.1-0.6,2.4-0.9,3.9-0.9c2.3,0,4,0.6,5.1,1.8c1.1,1.2,1.7,3,1.7,5.6v13H253.1z
			 M289.4,57.2c0,2.7-0.9,4.8-2.8,6.2c-1.8,1.4-4.5,2.2-7.9,2.2h-3.1v10.5h-3.1V49.5h6.9C286.1,49.5,289.4,52,289.4,57.2z M275.6,63
			h2.8c2.8,0,4.7-0.4,6-1.3s1.8-2.3,1.8-4.3c0-1.8-0.6-3.1-1.7-3.9s-3-1.3-5.4-1.3h-3.5V63z M303.7,55.7c0.9,0,1.7,0.1,2.4,0.2
			l-0.4,2.8c-0.8-0.2-1.6-0.3-2.2-0.3c-1.6,0-3,0.7-4.2,2c-1.1,1.3-1.7,2.9-1.7,4.9v10.7h-3v-20h2.5l0.3,3.7h0.2
			c0.7-1.3,1.6-2.3,2.7-3C301.3,56.1,302.4,55.7,303.7,55.7z M327,66.1c0,3.3-0.8,5.8-2.5,7.6c-1.6,1.8-3.9,2.7-6.8,2.7
			c-1.8,0-3.4-0.4-4.8-1.3c-1.4-0.8-2.5-2-3.2-3.6c-0.8-1.6-1.1-3.4-1.1-5.5c0-3.3,0.8-5.8,2.4-7.6c1.6-1.8,3.9-2.7,6.8-2.7
			c2.8,0,5,0.9,6.7,2.8C326.2,60.4,327,62.9,327,66.1z M311.8,66.1c0,2.6,0.5,4.5,1.5,5.8c1,1.3,2.5,2,4.5,2c2,0,3.5-0.7,4.5-2
			c1-1.3,1.5-3.3,1.5-5.8c0-2.5-0.5-4.5-1.5-5.8c-1-1.3-2.5-2-4.5-2c-2,0-3.5,0.7-4.5,2C312.3,61.6,311.8,63.5,311.8,66.1z
			 M338.8,74c0.5,0,1.1,0,1.5-0.1c0.5-0.1,0.9-0.2,1.2-0.3v2.3c-0.3,0.2-0.8,0.3-1.5,0.4c-0.6,0.1-1.2,0.2-1.7,0.2
			c-3.9,0-5.8-2-5.8-6.1V58.5h-2.9V57l2.9-1.3l1.3-4.3h1.8v4.6h5.8v2.3h-5.8v11.8c0,1.2,0.3,2.1,0.9,2.8C337,73.6,337.8,74,338.8,74
			z M362.8,66.1c0,3.3-0.8,5.8-2.5,7.6c-1.6,1.8-3.9,2.7-6.8,2.7c-1.8,0-3.4-0.4-4.8-1.3c-1.4-0.8-2.5-2-3.2-3.6
			c-0.8-1.6-1.1-3.4-1.1-5.5c0-3.3,0.8-5.8,2.4-7.6c1.6-1.8,3.9-2.7,6.8-2.7c2.8,0,5,0.9,6.7,2.8C361.9,60.4,362.8,62.9,362.8,66.1z
			 M347.5,66.1c0,2.6,0.5,4.5,1.5,5.8c1,1.3,2.5,2,4.5,2c2,0,3.5-0.7,4.5-2c1-1.3,1.5-3.3,1.5-5.8c0-2.5-0.5-4.5-1.5-5.8
			c-1-1.3-2.5-2-4.5-2c-2,0-3.5,0.7-4.5,2C348,61.6,347.5,63.5,347.5,66.1z M374.5,74c0.5,0,1.1,0,1.5-0.1c0.5-0.1,0.9-0.2,1.2-0.3
			v2.3c-0.3,0.2-0.8,0.3-1.5,0.4c-0.6,0.1-1.2,0.2-1.7,0.2c-3.9,0-5.8-2-5.8-6.1V58.5h-2.9V57l2.9-1.3l1.3-4.3h1.8v4.6h5.8v2.3h-5.8
			v11.8c0,1.2,0.3,2.1,0.9,2.8C372.7,73.6,373.5,74,374.5,74z M378.1,56.1h3.3l4.4,11.4c1,2.6,1.6,4.5,1.8,5.6h0.2
			c0.2-0.6,0.5-1.7,1-3.2c0.5-1.5,2.2-6.1,5-13.8h3.2l-8.6,22.7c-0.9,2.3-1.8,3.8-3,4.8c-1.1,0.9-2.5,1.4-4.2,1.4
			c-0.9,0-1.8-0.1-2.7-0.3v-2.4c0.7,0.1,1.4,0.2,2.2,0.2c2.1,0,3.6-1.2,4.5-3.5l1.1-2.8L378.1,56.1z M409.3,76.5
			c-1.3,0-2.5-0.2-3.6-0.7c-1.1-0.5-2-1.2-2.7-2.2h-0.2c0.1,1.2,0.2,2.3,0.2,3.3v8.2h-3V56.1h2.5l0.4,2.7h0.1
			c0.8-1.1,1.7-1.9,2.7-2.4s2.2-0.7,3.5-0.7c2.7,0,4.7,0.9,6.1,2.7s2.2,4.4,2.2,7.6c0,3.3-0.7,5.8-2.2,7.6
			C414,75.5,411.9,76.5,409.3,76.5z M408.9,58.3c-2,0-3.5,0.6-4.4,1.7c-0.9,1.1-1.4,2.9-1.4,5.4v0.7c0,2.8,0.5,4.8,1.4,6
			s2.4,1.8,4.5,1.8c1.7,0,3.1-0.7,4-2.1c1-1.4,1.5-3.3,1.5-5.8c0-2.5-0.5-4.4-1.5-5.7C412.1,59,410.7,58.3,408.9,58.3z M431.3,76.5
			c-2.9,0-5.3-0.9-7-2.7c-1.7-1.8-2.6-4.3-2.6-7.5c0-3.2,0.8-5.8,2.4-7.7c1.6-1.9,3.7-2.8,6.4-2.8c2.5,0,4.5,0.8,5.9,2.5
			c1.5,1.6,2.2,3.8,2.2,6.5v1.9h-13.8c0.1,2.3,0.7,4.1,1.8,5.3c1.1,1.2,2.7,1.8,4.8,1.8c2.2,0,4.3-0.4,6.4-1.3v2.7
			c-1.1,0.5-2.1,0.8-3,1C433.9,76.4,432.7,76.5,431.3,76.5z M430.5,58.3c-1.6,0-2.9,0.5-3.8,1.6c-0.9,1-1.5,2.5-1.7,4.3h10.5
			c0-1.9-0.4-3.4-1.3-4.4C433.3,58.8,432.1,58.3,430.5,58.3z M456.7,70.6c0,1.9-0.7,3.3-2.1,4.3c-1.4,1-3.3,1.5-5.8,1.5
			c-2.7,0-4.7-0.4-6.2-1.3v-2.8c1,0.5,2,0.9,3.1,1.2c1.1,0.3,2.2,0.4,3.2,0.4c1.6,0,2.8-0.3,3.6-0.8c0.9-0.5,1.3-1.3,1.3-2.3
			c0-0.8-0.3-1.4-1-2c-0.7-0.6-2-1.2-3.9-2c-1.9-0.7-3.2-1.3-4-1.8c-0.8-0.5-1.4-1.1-1.8-1.8c-0.4-0.7-0.6-1.4-0.6-2.4
			c0-1.6,0.7-2.9,2-3.8c1.3-0.9,3.1-1.4,5.5-1.4c2.1,0,4.2,0.4,6.3,1.3l-1.1,2.5c-2-0.8-3.8-1.3-5.4-1.3c-1.4,0-2.5,0.2-3.3,0.7
			c-0.7,0.4-1.1,1.1-1.1,1.8c0,0.5,0.1,1,0.4,1.4c0.3,0.4,0.7,0.7,1.3,1.1c0.6,0.3,1.8,0.8,3.5,1.5c2.4,0.9,4,1.7,4.8,2.6
			C456.3,68.2,456.7,69.3,456.7,70.6z"/>
		<path class="st2" d="M137.2,106.8H374v198.5H137.2V106.8z"/>
		<path class="st3" d="M148.6,138.9v-17.1h2v15.3h7.6v1.8H148.6z M171.8,132.5c0,2.1-0.5,3.7-1.6,4.9c-1.1,1.2-2.5,1.8-4.4,1.8
			c-1.2,0-2.2-0.3-3.1-0.8c-0.9-0.5-1.6-1.3-2.1-2.3c-0.5-1-0.7-2.2-0.7-3.5c0-2.1,0.5-3.7,1.6-4.9c1.1-1.2,2.5-1.7,4.4-1.8
			c1.8,0,3.2,0.6,4.3,1.8C171.3,128.8,171.8,130.4,171.8,132.5z M162,132.5c0,1.6,0.3,2.9,1,3.8c0.7,0.9,1.6,1.3,2.9,1.3
			c1.3,0,2.2-0.4,2.9-1.3c0.7-0.9,1-2.1,1-3.8c0-1.6-0.3-2.9-1-3.7c-0.7-0.8-1.6-1.3-2.9-1.3c-1.3,0-2.2,0.4-2.9,1.3
			C162.4,129.5,162,130.8,162,132.5z M185.7,138.9l-2.3-7.5c-0.2-0.5-0.4-1.5-0.8-3.1h-0.1c-0.3,1.4-0.6,2.4-0.8,3.2l-2.4,7.5H177
			l-3.5-12.8h2c0.8,3.2,1.5,5.7,1.9,7.4s0.7,2.8,0.8,3.4h0.1c0.1-0.4,0.2-1,0.4-1.7c0.2-0.7,0.4-1.3,0.5-1.7l2.4-7.4h2.1l2.3,7.4
			c0.4,1.3,0.7,2.5,0.9,3.4h0.1c0-0.3,0.1-0.7,0.3-1.3c0.1-0.6,0.9-3.7,2.4-9.5h2l-3.5,12.8H185.7z M200.4,138.9v-17.1h2v17.1H200.4
			z M215.6,138.9v-8.3c0-1-0.2-1.8-0.7-2.3c-0.5-0.5-1.2-0.8-2.2-0.8c-1.3,0-2.3,0.4-3,1.1c-0.6,0.7-0.9,1.9-0.9,3.6v6.7h-2V126h1.6
			l0.3,1.8h0.1c0.4-0.6,1-1.1,1.7-1.5c0.7-0.4,1.5-0.5,2.4-0.5c1.5,0,2.7,0.4,3.5,1.1c0.8,0.7,1.2,1.9,1.2,3.6v8.4H215.6z
			 M225.7,137.5c0.3,0,0.7,0,1-0.1c0.3-0.1,0.6-0.1,0.8-0.2v1.5c-0.2,0.1-0.5,0.2-0.9,0.3c-0.4,0.1-0.8,0.1-1.1,0.1
			c-2.5,0-3.7-1.3-3.7-3.9v-7.6h-1.8v-0.9l1.8-0.8l0.8-2.8h1.1v3h3.7v1.5h-3.7v7.5c0,0.8,0.2,1.4,0.5,1.8
			C224.6,137.3,225.1,137.5,225.7,137.5z M235.5,139.1c-1.9,0-3.4-0.6-4.5-1.7c-1.1-1.2-1.6-2.8-1.6-4.8c0-2.1,0.5-3.7,1.5-4.9
			c1-1.2,2.4-1.8,4.1-1.8c1.6,0,2.9,0.5,3.8,1.6c0.9,1.1,1.4,2.4,1.4,4.2v1.2h-8.9c0,1.5,0.4,2.7,1.1,3.4c0.7,0.8,1.8,1.2,3.1,1.2
			c1.4,0,2.8-0.3,4.1-0.9v1.7c-0.7,0.3-1.3,0.5-2,0.6C237.1,139.1,236.3,139.1,235.5,139.1z M234.9,127.4c-1,0-1.9,0.3-2.5,1
			c-0.6,0.7-1,1.6-1.1,2.8h6.7c0-1.2-0.3-2.2-0.8-2.8C236.7,127.8,236,127.4,234.9,127.4z M252.3,138.9v-8.3c0-1-0.2-1.8-0.7-2.3
			c-0.5-0.5-1.2-0.8-2.2-0.8c-1.3,0-2.3,0.4-3,1.1c-0.6,0.7-0.9,1.9-0.9,3.6v6.7h-2V126h1.6l0.3,1.8h0.1c0.4-0.6,1-1.1,1.7-1.5
			c0.7-0.4,1.5-0.5,2.4-0.5c1.5,0,2.7,0.4,3.5,1.1c0.8,0.7,1.2,1.9,1.2,3.6v8.4H252.3z M266.5,135.4c0,1.2-0.4,2.1-1.3,2.8
			c-0.9,0.6-2.1,1-3.7,1c-1.7,0-3-0.3-4-0.8v-1.8c0.6,0.3,1.3,0.6,2,0.7c0.7,0.2,1.4,0.3,2,0.3c1,0,1.8-0.2,2.3-0.5
			c0.6-0.3,0.8-0.8,0.8-1.5c0-0.5-0.2-0.9-0.7-1.3c-0.4-0.4-1.3-0.8-2.5-1.3c-1.2-0.4-2-0.8-2.5-1.2c-0.5-0.3-0.9-0.7-1.1-1.1
			c-0.2-0.4-0.4-0.9-0.4-1.5c0-1.1,0.4-1.9,1.3-2.5c0.9-0.6,2-0.9,3.5-0.9c1.4,0,2.7,0.3,4,0.8l-0.7,1.6c-1.3-0.5-2.5-0.8-3.5-0.8
			c-0.9,0-1.6,0.1-2.1,0.4c-0.5,0.3-0.7,0.7-0.7,1.2c0,0.3,0.1,0.6,0.3,0.9c0.2,0.2,0.5,0.5,0.8,0.7c0.4,0.2,1.1,0.5,2.3,1
			c1.5,0.6,2.6,1.1,3.1,1.7S266.5,134.5,266.5,135.4z M271.6,138.9h-2V126h2V138.9z M269.5,122.6c0-0.4,0.1-0.8,0.3-1
			c0.2-0.2,0.5-0.3,0.8-0.3c0.3,0,0.6,0.1,0.8,0.3c0.2,0.2,0.3,0.5,0.3,1c0,0.4-0.1,0.8-0.3,1c-0.2,0.2-0.5,0.3-0.8,0.3
			c-0.3,0-0.6-0.1-0.8-0.3C269.6,123.3,269.5,123,269.5,122.6z M279.9,137.5c0.3,0,0.7,0,1-0.1c0.3-0.1,0.6-0.1,0.8-0.2v1.5
			c-0.2,0.1-0.5,0.2-0.9,0.3c-0.4,0.1-0.8,0.1-1.1,0.1c-2.5,0-3.7-1.3-3.7-3.9v-7.6H274v-0.9l1.8-0.8l0.8-2.8h1.1v3h3.7v1.5h-3.7
			v7.5c0,0.8,0.2,1.4,0.5,1.8C278.8,137.3,279.3,137.5,279.9,137.5z M282.2,126h2.1l2.8,7.3c0.6,1.7,1,2.9,1.2,3.6h0.1
			c0.1-0.4,0.3-1.1,0.6-2c0.3-1,1.4-3.9,3.2-8.9h2.1l-5.5,14.6c-0.5,1.4-1.2,2.5-1.9,3.1c-0.7,0.6-1.6,0.9-2.7,0.9
			c-0.6,0-1.2-0.1-1.8-0.2v-1.5c0.4,0.1,0.9,0.1,1.4,0.1c1.3,0,2.3-0.8,2.9-2.3l0.7-1.8L282.2,126z"/>
		<path class="st3" d="M153.6,176.6c-1.1,0-1.9,0.4-2.5,1.2c-0.6,0.8-0.9,1.9-0.9,3.3c0,3,1.1,4.5,3.3,4.5c0.9,0,2.1-0.2,3.4-0.7
			v2.4c-1.1,0.5-2.3,0.7-3.7,0.7c-1.9,0-3.4-0.6-4.5-1.8c-1-1.2-1.5-2.9-1.5-5.1c0-1.4,0.3-2.6,0.8-3.6c0.5-1,1.2-1.8,2.2-2.4
			c0.9-0.6,2.1-0.8,3.3-0.8c1.3,0,2.6,0.3,3.9,0.9l-0.9,2.3c-0.5-0.2-1-0.4-1.5-0.6C154.5,176.7,154,176.6,153.6,176.6z
			 M161.8,182.7c0,1,0.2,1.8,0.5,2.3c0.3,0.5,0.9,0.8,1.6,0.8s1.3-0.3,1.6-0.8c0.3-0.5,0.5-1.3,0.5-2.3s-0.2-1.8-0.5-2.3
			c-0.3-0.5-0.9-0.8-1.6-0.8c-0.7,0-1.3,0.3-1.6,0.8C161.9,180.9,161.8,181.6,161.8,182.7z M168.8,182.7c0,1.7-0.4,3-1.3,3.9
			s-2.1,1.4-3.7,1.4c-1,0-1.8-0.2-2.6-0.6c-0.7-0.4-1.3-1.1-1.7-1.8c-0.4-0.8-0.6-1.7-0.6-2.8c0-1.7,0.4-3,1.3-3.9
			c0.9-0.9,2.1-1.4,3.7-1.4c1,0,1.8,0.2,2.6,0.6s1.3,1,1.7,1.8C168.6,180.7,168.8,181.6,168.8,182.7z M173.9,187.8h-2.8v-14.2h2.8
			V187.8z M179,182.7c0,1,0.2,1.8,0.5,2.3c0.3,0.5,0.9,0.8,1.6,0.8c0.7,0,1.3-0.3,1.6-0.8c0.3-0.5,0.5-1.3,0.5-2.3s-0.2-1.8-0.5-2.3
			c-0.3-0.5-0.9-0.8-1.6-0.8c-0.7,0-1.3,0.3-1.6,0.8C179.2,180.9,179,181.6,179,182.7z M186.1,182.7c0,1.7-0.4,3-1.3,3.9
			s-2.1,1.4-3.7,1.4c-1,0-1.8-0.2-2.6-0.6c-0.7-0.4-1.3-1.1-1.7-1.8c-0.4-0.8-0.6-1.7-0.6-2.8c0-1.7,0.4-3,1.3-3.9
			c0.9-0.9,2.1-1.4,3.7-1.4c1,0,1.8,0.2,2.6,0.6s1.3,1,1.7,1.8C185.9,180.7,186.1,181.6,186.1,182.7z M194,177.4
			c0.4,0,0.7,0,0.9,0.1l-0.2,2.6c-0.2-0.1-0.5-0.1-0.8-0.1c-0.9,0-1.6,0.2-2.1,0.7c-0.5,0.5-0.7,1.1-0.7,1.9v5.2h-2.8v-10.2h2.1
			l0.4,1.7h0.1c0.3-0.6,0.7-1,1.3-1.4C192.8,177.6,193.4,177.4,194,177.4z M203.3,187.8l-0.5-1.4h-0.1c-0.5,0.6-1,1-1.5,1.2
			c-0.5,0.2-1.1,0.3-1.9,0.3c-1,0-1.8-0.3-2.3-0.8s-0.8-1.4-0.8-2.4c0-1.1,0.4-1.9,1.1-2.4c0.8-0.5,1.9-0.8,3.4-0.8l1.8-0.1V181
			c0-1-0.5-1.5-1.6-1.5c-0.8,0-1.8,0.2-2.9,0.7l-0.9-1.9c1.2-0.6,2.5-0.9,3.9-0.9c1.4,0,2.4,0.3,3.1,0.9c0.7,0.6,1.1,1.5,1.1,2.7
			v6.8H203.3z M202.5,183l-1.1,0c-0.8,0-1.4,0.2-1.8,0.5c-0.4,0.3-0.6,0.7-0.6,1.2c0,0.8,0.4,1.2,1.3,1.2c0.6,0,1.2-0.2,1.5-0.5
			c0.4-0.4,0.6-0.9,0.6-1.5V183z M212.4,185.7c0.5,0,1.1-0.1,1.8-0.3v2.1c-0.7,0.3-1.5,0.5-2.5,0.5c-1.1,0-1.9-0.3-2.4-0.8
			c-0.5-0.6-0.8-1.4-0.8-2.5v-4.9h-1.3v-1.2l1.5-0.9l0.8-2.2h1.8v2.2h2.9v2.1h-2.9v4.9c0,0.4,0.1,0.7,0.3,0.9
			C211.7,185.6,212,185.7,212.4,185.7z M216.1,175c0-0.9,0.5-1.4,1.5-1.4c1,0,1.5,0.5,1.5,1.4c0,0.4-0.1,0.8-0.4,1s-0.6,0.4-1.1,0.4
			C216.6,176.3,216.1,175.9,216.1,175z M219,187.8h-2.8v-10.2h2.8V187.8z M224.1,182.7c0,1,0.2,1.8,0.5,2.3c0.3,0.5,0.9,0.8,1.6,0.8
			c0.7,0,1.3-0.3,1.6-0.8c0.3-0.5,0.5-1.3,0.5-2.3c0-1-0.2-1.8-0.5-2.3c-0.3-0.5-0.9-0.8-1.6-0.8c-0.7,0-1.3,0.3-1.6,0.8
			C224.3,180.9,224.1,181.6,224.1,182.7z M231.2,182.7c0,1.7-0.4,3-1.3,3.9c-0.9,0.9-2.1,1.4-3.7,1.4c-1,0-1.8-0.2-2.6-0.6
			c-0.7-0.4-1.3-1.1-1.7-1.8c-0.4-0.8-0.6-1.7-0.6-2.8c0-1.7,0.4-3,1.3-3.9c0.9-0.9,2.1-1.4,3.7-1.4c1,0,1.8,0.2,2.6,0.6
			c0.8,0.4,1.3,1,1.7,1.8C231,180.7,231.2,181.6,231.2,182.7z M242.8,187.8h-2.8v-6c0-0.7-0.1-1.3-0.4-1.6c-0.3-0.4-0.7-0.6-1.3-0.6
			c-0.8,0-1.3,0.3-1.7,0.8c-0.3,0.5-0.5,1.4-0.5,2.6v4.8h-2.8v-10.2h2.1l0.4,1.3h0.2c0.3-0.5,0.7-0.9,1.3-1.1
			c0.5-0.3,1.2-0.4,1.8-0.4c1.2,0,2.1,0.3,2.7,1c0.6,0.6,0.9,1.6,0.9,2.8V187.8z"/>
		<path class="st3" d="M253.9,186.7c0.3,0,0.5,0,0.8-0.1c0.3,0,0.4-0.1,0.6-0.1v1.2c-0.2,0.1-0.4,0.2-0.7,0.2s-0.6,0.1-0.9,0.1
			c-1.9,0-2.9-1-2.9-3.1V179h-1.4v-0.7l1.4-0.6l0.6-2.1h0.9v2.3h2.9v1.2h-2.9v5.9c0,0.6,0.1,1.1,0.4,1.4
			C253,186.5,253.4,186.7,253.9,186.7z M263.4,187.8l-0.3-1.4h-0.1c-0.5,0.6-1,1.1-1.5,1.3c-0.5,0.2-1.1,0.3-1.8,0.3
			c-1,0-1.8-0.3-2.3-0.8s-0.8-1.2-0.8-2.2c0-2,1.6-3.1,4.8-3.2l1.7,0v-0.6c0-0.8-0.2-1.4-0.5-1.7c-0.3-0.4-0.9-0.6-1.6-0.6
			c-0.8,0-1.8,0.3-2.8,0.8l-0.5-1.2c0.5-0.3,1-0.5,1.6-0.6c0.6-0.2,1.2-0.2,1.8-0.2c1.2,0,2.1,0.3,2.6,0.8c0.6,0.5,0.9,1.4,0.9,2.5
			v6.8H263.4z M260,186.7c0.9,0,1.7-0.3,2.2-0.8c0.5-0.5,0.8-1.3,0.8-2.2v-0.9l-1.5,0.1c-1.2,0-2.1,0.2-2.6,0.6
			c-0.5,0.3-0.8,0.8-0.8,1.5c0,0.5,0.2,1,0.5,1.3C259,186.6,259.4,186.7,260,186.7z M272.2,177.6c0.4,0,0.8,0,1.2,0.1l-0.2,1.4
			c-0.4-0.1-0.8-0.1-1.1-0.1c-0.8,0-1.5,0.3-2.1,1c-0.6,0.7-0.9,1.5-0.9,2.5v5.4h-1.5v-10h1.2l0.2,1.8h0.1c0.4-0.6,0.8-1.1,1.3-1.5
			C271,177.8,271.6,177.6,272.2,177.6z M283.5,177.8v1l-1.9,0.2c0.2,0.2,0.3,0.5,0.5,0.8c0.1,0.3,0.2,0.7,0.2,1.2c0,1-0.3,1.8-1,2.3
			c-0.7,0.6-1.6,0.9-2.8,0.9c-0.3,0-0.6,0-0.8-0.1c-0.6,0.3-1,0.8-1,1.3c0,0.3,0.1,0.5,0.3,0.6c0.2,0.1,0.6,0.2,1.2,0.2h1.8
			c1.1,0,1.9,0.2,2.5,0.7c0.6,0.4,0.9,1.1,0.9,2c0,1.1-0.4,1.9-1.3,2.5c-0.9,0.6-2.2,0.9-3.9,0.9c-1.3,0-2.3-0.2-3-0.7
			c-0.7-0.5-1.1-1.2-1.1-2.1c0-0.6,0.2-1.1,0.6-1.6c0.4-0.4,0.9-0.7,1.6-0.9c-0.3-0.1-0.5-0.3-0.6-0.5c-0.2-0.3-0.3-0.5-0.3-0.9
			c0-0.4,0.1-0.7,0.3-1c0.2-0.3,0.5-0.5,0.9-0.8c-0.5-0.2-0.9-0.6-1.3-1.1c-0.3-0.5-0.5-1.1-0.5-1.8c0-1.1,0.3-1.9,1-2.5
			s1.6-0.9,2.8-0.9c0.5,0,1,0.1,1.4,0.2H283.5z M275.5,189.4c0,0.5,0.2,1,0.7,1.2c0.5,0.3,1.1,0.4,2,0.4c1.3,0,2.2-0.2,2.8-0.6
			c0.6-0.4,0.9-0.9,0.9-1.5c0-0.5-0.2-0.9-0.5-1.1c-0.3-0.2-1-0.3-1.9-0.3h-1.8c-0.7,0-1.2,0.2-1.6,0.5
			C275.7,188.4,275.5,188.8,275.5,189.4z M276.3,181c0,0.7,0.2,1.2,0.6,1.6c0.4,0.4,0.9,0.5,1.7,0.5c1.5,0,2.2-0.7,2.2-2.1
			c0-1.5-0.8-2.3-2.3-2.3c-0.7,0-1.3,0.2-1.6,0.6C276.5,179.7,276.3,180.2,276.3,181z M289.7,188c-1.5,0-2.6-0.4-3.5-1.3
			c-0.9-0.9-1.3-2.2-1.3-3.8c0-1.6,0.4-2.9,1.2-3.8s1.9-1.4,3.2-1.4c1.3,0,2.3,0.4,3,1.2c0.7,0.8,1.1,1.9,1.1,3.3v1h-6.9
			c0,1.2,0.3,2.1,0.9,2.7s1.4,0.9,2.4,0.9c1.1,0,2.1-0.2,3.2-0.7v1.3c-0.5,0.2-1,0.4-1.5,0.5S290.4,188,289.7,188z M289.3,178.9
			c-0.8,0-1.4,0.3-1.9,0.8c-0.5,0.5-0.7,1.2-0.8,2.2h5.2c0-0.9-0.2-1.7-0.6-2.2S290.1,178.9,289.3,178.9z M299.2,186.7
			c0.3,0,0.5,0,0.8-0.1c0.3,0,0.4-0.1,0.6-0.1v1.2c-0.2,0.1-0.4,0.2-0.7,0.2s-0.6,0.1-0.9,0.1c-1.9,0-2.9-1-2.9-3.1V179h-1.4v-0.7
			l1.4-0.6l0.6-2.1h0.9v2.3h2.9v1.2h-2.9v5.9c0,0.6,0.1,1.1,0.4,1.4C298.3,186.5,298.7,186.7,299.2,186.7z M309,185
			c0,0.9-0.3,1.6-1,2.2c-0.7,0.5-1.7,0.8-2.9,0.8c-1.3,0-2.4-0.2-3.1-0.6v-1.4c0.5,0.2,1,0.4,1.5,0.6c0.6,0.1,1.1,0.2,1.6,0.2
			c0.8,0,1.4-0.1,1.8-0.4c0.4-0.3,0.6-0.6,0.6-1.2c0-0.4-0.2-0.7-0.5-1c-0.3-0.3-1-0.6-2-1c-0.9-0.3-1.6-0.6-2-0.9
			c-0.4-0.3-0.7-0.6-0.9-0.9c-0.2-0.3-0.3-0.7-0.3-1.2c0-0.8,0.3-1.5,1-1.9c0.7-0.5,1.6-0.7,2.7-0.7c1.1,0,2.1,0.2,3.1,0.7l-0.5,1.2
			c-1-0.4-1.9-0.6-2.7-0.6c-0.7,0-1.3,0.1-1.6,0.3s-0.5,0.5-0.5,0.9c0,0.3,0.1,0.5,0.2,0.7s0.4,0.4,0.7,0.5c0.3,0.2,0.9,0.4,1.8,0.7
			c1.2,0.4,2,0.9,2.4,1.3S309,184.4,309,185z M319.5,186.7c0.3,0,0.5,0,0.8-0.1c0.3,0,0.4-0.1,0.6-0.1v1.2c-0.2,0.1-0.4,0.2-0.7,0.2
			s-0.6,0.1-0.9,0.1c-1.9,0-2.9-1-2.9-3.1V179H315v-0.7l1.4-0.6l0.6-2.1h0.9v2.3h2.9v1.2h-2.9v5.9c0,0.6,0.1,1.1,0.4,1.4
			C318.6,186.5,319,186.7,319.5,186.7z M329.7,187.8v-6.5c0-0.8-0.2-1.4-0.6-1.8c-0.4-0.4-0.9-0.6-1.7-0.6c-1.1,0-1.8,0.3-2.3,0.9
			c-0.5,0.6-0.7,1.5-0.7,2.8v5.2h-1.5v-14.2h1.5v4.3c0,0.5,0,1-0.1,1.3h0.1c0.3-0.5,0.7-0.9,1.3-1.1c0.6-0.3,1.2-0.4,1.9-0.4
			c1.2,0,2.1,0.3,2.8,0.9c0.6,0.6,0.9,1.5,0.9,2.8v6.5H329.7z M338.6,188c-1.5,0-2.6-0.4-3.5-1.3c-0.9-0.9-1.3-2.2-1.3-3.8
			c0-1.6,0.4-2.9,1.2-3.8s1.9-1.4,3.2-1.4c1.3,0,2.3,0.4,3,1.2c0.7,0.8,1.1,1.9,1.1,3.3v1h-6.9c0,1.2,0.3,2.1,0.9,2.7
			s1.4,0.9,2.4,0.9c1.1,0,2.1-0.2,3.2-0.7v1.3c-0.5,0.2-1,0.4-1.5,0.5S339.2,188,338.6,188z M338.1,178.9c-0.8,0-1.4,0.3-1.9,0.8
			c-0.5,0.5-0.7,1.2-0.8,2.2h5.2c0-0.9-0.2-1.7-0.6-2.2S338.9,178.9,338.1,178.9z"/>
		<path class="st3" d="M160.6,213.8v-6.5c0-0.8-0.2-1.4-0.5-1.8c-0.3-0.4-0.9-0.6-1.6-0.6c-0.9,0-1.6,0.3-2.1,0.8
			c-0.4,0.5-0.7,1.4-0.7,2.5v5.6h-1.5v-6.5c0-0.8-0.2-1.4-0.5-1.8s-0.9-0.6-1.6-0.6c-0.9,0-1.6,0.3-2.1,0.9
			c-0.4,0.6-0.7,1.5-0.7,2.8v5.2h-1.5v-10h1.2l0.3,1.4h0.1c0.3-0.5,0.7-0.9,1.2-1.1c0.5-0.3,1.1-0.4,1.8-0.4c1.6,0,2.6,0.6,3.1,1.7
			h0.1c0.3-0.5,0.7-0.9,1.3-1.2c0.6-0.3,1.2-0.5,1.9-0.5c1.1,0,2,0.3,2.5,0.9s0.8,1.5,0.8,2.8v6.5H160.6z M173.8,208.8
			c0,1.6-0.4,2.9-1.2,3.8c-0.8,0.9-1.9,1.4-3.4,1.4c-0.9,0-1.7-0.2-2.4-0.6c-0.7-0.4-1.2-1-1.6-1.8s-0.6-1.7-0.6-2.8
			c0-1.6,0.4-2.9,1.2-3.8c0.8-0.9,1.9-1.4,3.4-1.4c1.4,0,2.5,0.5,3.3,1.4C173.4,205.9,173.8,207.2,173.8,208.8z M166.2,208.8
			c0,1.3,0.3,2.2,0.8,2.9c0.5,0.7,1.3,1,2.3,1s1.7-0.3,2.3-1c0.5-0.7,0.8-1.6,0.8-2.9c0-1.3-0.3-2.2-0.8-2.9c-0.5-0.7-1.3-1-2.3-1
			c-1,0-1.7,0.3-2.3,1C166.4,206.5,166.2,207.5,166.2,208.8z M182.9,211c0,0.9-0.3,1.6-1,2.2c-0.7,0.5-1.7,0.8-2.9,0.8
			c-1.3,0-2.4-0.2-3.1-0.6v-1.4c0.5,0.2,1,0.4,1.5,0.6c0.6,0.1,1.1,0.2,1.6,0.2c0.8,0,1.4-0.1,1.8-0.4c0.4-0.3,0.6-0.6,0.6-1.2
			c0-0.4-0.2-0.7-0.5-1c-0.3-0.3-1-0.6-2-1c-0.9-0.3-1.6-0.6-2-0.9c-0.4-0.3-0.7-0.6-0.9-0.9c-0.2-0.3-0.3-0.7-0.3-1.2
			c0-0.8,0.3-1.5,1-1.9c0.7-0.5,1.6-0.7,2.7-0.7c1.1,0,2.1,0.2,3.1,0.7l-0.5,1.2c-1-0.4-1.9-0.6-2.7-0.6c-0.7,0-1.3,0.1-1.6,0.3
			c-0.4,0.2-0.5,0.5-0.5,0.9c0,0.3,0.1,0.5,0.2,0.7c0.1,0.2,0.4,0.4,0.7,0.5c0.3,0.2,0.9,0.4,1.8,0.7c1.2,0.4,2,0.9,2.4,1.3
			C182.7,209.8,182.9,210.4,182.9,211z M188.6,212.7c0.3,0,0.5,0,0.8-0.1c0.2,0,0.4-0.1,0.6-0.1v1.2c-0.2,0.1-0.4,0.2-0.7,0.2
			c-0.3,0.1-0.6,0.1-0.9,0.1c-1.9,0-2.9-1-2.9-3.1V205H184v-0.7l1.4-0.6l0.6-2.1h0.9v2.3h2.9v1.2H187v5.9c0,0.6,0.1,1.1,0.4,1.4
			C187.7,212.5,188.1,212.7,188.6,212.7z M198.3,213.8h-1.5v-10h1.5V213.8z M196.6,201.1c0-0.3,0.1-0.6,0.3-0.8
			c0.2-0.2,0.4-0.3,0.7-0.3c0.2,0,0.4,0.1,0.6,0.3c0.2,0.2,0.3,0.4,0.3,0.8s-0.1,0.6-0.3,0.8c-0.2,0.2-0.4,0.3-0.6,0.3
			c-0.3,0-0.5-0.1-0.7-0.3C196.7,201.7,196.6,201.4,196.6,201.1z M214.2,213.8v-6.5c0-0.8-0.2-1.4-0.5-1.8c-0.3-0.4-0.9-0.6-1.6-0.6
			c-0.9,0-1.6,0.3-2.1,0.8c-0.4,0.5-0.7,1.4-0.7,2.5v5.6h-1.5v-6.5c0-0.8-0.2-1.4-0.5-1.8s-0.9-0.6-1.6-0.6c-0.9,0-1.6,0.3-2.1,0.9
			c-0.4,0.6-0.7,1.5-0.7,2.8v5.2h-1.5v-10h1.2l0.3,1.4h0.1c0.3-0.5,0.7-0.9,1.2-1.1c0.5-0.3,1.1-0.4,1.8-0.4c1.6,0,2.6,0.6,3.1,1.7
			h0.1c0.3-0.5,0.7-0.9,1.3-1.2c0.6-0.3,1.2-0.5,1.9-0.5c1.1,0,2,0.3,2.5,0.9s0.8,1.5,0.8,2.8v6.5H214.2z M223.5,214
			c-0.6,0-1.2-0.1-1.8-0.4s-1-0.6-1.4-1.1h-0.1c0.1,0.6,0.1,1.1,0.1,1.7v4.1h-1.5v-14.5h1.2l0.2,1.4h0.1c0.4-0.5,0.8-0.9,1.4-1.2
			c0.5-0.3,1.1-0.4,1.8-0.4c1.3,0,2.3,0.5,3.1,1.4s1.1,2.2,1.1,3.8s-0.4,2.9-1.1,3.8C225.8,213.5,224.8,214,223.5,214z M223.3,204.9
			c-1,0-1.8,0.3-2.2,0.8c-0.4,0.6-0.7,1.5-0.7,2.7v0.3c0,1.4,0.2,2.4,0.7,3s1.2,0.9,2.3,0.9c0.9,0,1.5-0.3,2-1s0.7-1.7,0.7-2.9
			c0-1.3-0.2-2.2-0.7-2.9C224.9,205.2,224.2,204.9,223.3,204.9z M238.9,208.8c0,1.6-0.4,2.9-1.2,3.8c-0.8,0.9-1.9,1.4-3.4,1.4
			c-0.9,0-1.7-0.2-2.4-0.6c-0.7-0.4-1.2-1-1.6-1.8s-0.6-1.7-0.6-2.8c0-1.6,0.4-2.9,1.2-3.8c0.8-0.9,1.9-1.4,3.4-1.4
			c1.4,0,2.5,0.5,3.3,1.4C238.5,205.9,238.9,207.2,238.9,208.8z M231.3,208.8c0,1.3,0.3,2.2,0.8,2.9c0.5,0.7,1.3,1,2.3,1
			c1,0,1.7-0.3,2.3-1c0.5-0.7,0.8-1.6,0.8-2.9c0-1.3-0.3-2.2-0.8-2.9c-0.5-0.7-1.3-1-2.3-1c-1,0-1.7,0.3-2.3,1
			C231.5,206.5,231.3,207.5,231.3,208.8z M246.1,203.6c0.4,0,0.8,0,1.2,0.1l-0.2,1.4c-0.4-0.1-0.8-0.1-1.1-0.1c-0.8,0-1.5,0.3-2.1,1
			c-0.6,0.7-0.9,1.5-0.9,2.5v5.4h-1.5v-10h1.2l0.2,1.8h0.1c0.4-0.6,0.8-1.1,1.3-1.5S245.5,203.6,246.1,203.6z M252.4,212.7
			c0.3,0,0.5,0,0.8-0.1c0.3,0,0.4-0.1,0.6-0.1v1.2c-0.2,0.1-0.4,0.2-0.7,0.2s-0.6,0.1-0.9,0.1c-1.9,0-2.9-1-2.9-3.1V205h-1.4v-0.7
			l1.4-0.6l0.6-2.1h0.9v2.3h2.9v1.2h-2.9v5.9c0,0.6,0.1,1.1,0.4,1.4C251.5,212.5,251.9,212.7,252.4,212.7z M261.9,213.8l-0.3-1.4
			h-0.1c-0.5,0.6-1,1.1-1.5,1.3c-0.5,0.2-1.1,0.3-1.8,0.3c-1,0-1.8-0.3-2.3-0.8c-0.6-0.5-0.8-1.2-0.8-2.2c0-2,1.6-3.1,4.8-3.2l1.7,0
			v-0.6c0-0.8-0.2-1.4-0.5-1.7c-0.3-0.4-0.9-0.6-1.6-0.6c-0.8,0-1.8,0.3-2.8,0.8l-0.5-1.2c0.5-0.3,1-0.5,1.6-0.6
			c0.6-0.2,1.2-0.2,1.8-0.2c1.2,0,2.1,0.3,2.6,0.8c0.6,0.5,0.9,1.4,0.9,2.5v6.8H261.9z M258.5,212.7c0.9,0,1.7-0.3,2.2-0.8
			c0.5-0.5,0.8-1.3,0.8-2.2v-0.9l-1.5,0.1c-1.2,0-2.1,0.2-2.6,0.6c-0.5,0.3-0.8,0.8-0.8,1.5c0,0.5,0.2,1,0.5,1.3
			C257.4,212.6,257.9,212.7,258.5,212.7z M273,213.8v-6.5c0-0.8-0.2-1.4-0.6-1.8c-0.4-0.4-0.9-0.6-1.7-0.6c-1,0-1.8,0.3-2.3,0.8
			c-0.5,0.6-0.7,1.5-0.7,2.8v5.2h-1.5v-10h1.2l0.3,1.4h0.1c0.3-0.5,0.7-0.9,1.3-1.1s1.2-0.4,1.9-0.4c1.2,0,2.1,0.3,2.7,0.9
			c0.6,0.6,0.9,1.5,0.9,2.8v6.5H273z M280.8,212.7c0.3,0,0.5,0,0.8-0.1c0.3,0,0.4-0.1,0.6-0.1v1.2c-0.2,0.1-0.4,0.2-0.7,0.2
			c-0.3,0.1-0.6,0.1-0.9,0.1c-1.9,0-2.9-1-2.9-3.1V205h-1.4v-0.7l1.4-0.6l0.6-2.1h0.9v2.3h2.9v1.2h-2.9v5.9c0,0.6,0.1,1.1,0.4,1.4
			C279.9,212.5,280.3,212.7,280.8,212.7z M295.8,212.4L295.8,212.4c-0.8,1-1.8,1.5-3.2,1.5c-1.3,0-2.3-0.4-3.1-1.3
			c-0.7-0.9-1.1-2.2-1.1-3.8s0.4-2.9,1.1-3.8c0.7-0.9,1.7-1.4,3-1.4c1.4,0,2.4,0.5,3.1,1.5h0.1l-0.1-0.7l0-0.7v-4.1h1.5v14.2H296
			L295.8,212.4z M292.8,212.7c1,0,1.8-0.3,2.2-0.8c0.5-0.6,0.7-1.5,0.7-2.7v-0.3c0-1.4-0.2-2.4-0.7-3s-1.2-0.9-2.3-0.9
			c-0.9,0-1.6,0.3-2,1c-0.5,0.7-0.7,1.7-0.7,2.9c0,1.3,0.2,2.3,0.7,2.9C291.2,212.4,291.9,212.7,292.8,212.7z M304.7,214
			c-1.5,0-2.6-0.4-3.5-1.3c-0.9-0.9-1.3-2.2-1.3-3.8c0-1.6,0.4-2.9,1.2-3.8s1.9-1.4,3.2-1.4c1.3,0,2.3,0.4,3,1.2
			c0.7,0.8,1.1,1.9,1.1,3.3v1h-6.9c0,1.2,0.3,2.1,0.9,2.7s1.4,0.9,2.4,0.9c1.1,0,2.1-0.2,3.2-0.7v1.3c-0.5,0.2-1,0.4-1.5,0.5
			S305.3,214,304.7,214z M304.3,204.9c-0.8,0-1.4,0.3-1.9,0.8c-0.5,0.5-0.7,1.2-0.8,2.2h5.2c0-0.9-0.2-1.7-0.6-2.2
			S305,204.9,304.3,204.9z M314.1,212.7c0.3,0,0.5,0,0.8-0.1c0.3,0,0.4-0.1,0.6-0.1v1.2c-0.2,0.1-0.4,0.2-0.7,0.2
			c-0.3,0.1-0.6,0.1-0.9,0.1c-1.9,0-2.9-1-2.9-3.1V205h-1.4v-0.7l1.4-0.6l0.6-2.1h0.9v2.3h2.9v1.2h-2.9v5.9c0,0.6,0.1,1.1,0.4,1.4
			C313.2,212.5,313.6,212.7,314.1,212.7z M323.6,213.8l-0.3-1.4h-0.1c-0.5,0.6-1,1.1-1.5,1.3c-0.5,0.2-1.1,0.3-1.8,0.3
			c-1,0-1.8-0.3-2.3-0.8s-0.8-1.2-0.8-2.2c0-2,1.6-3.1,4.8-3.2l1.7,0v-0.6c0-0.8-0.2-1.4-0.5-1.7c-0.3-0.4-0.9-0.6-1.6-0.6
			c-0.8,0-1.8,0.3-2.8,0.8l-0.5-1.2c0.5-0.3,1-0.5,1.6-0.6c0.6-0.2,1.2-0.2,1.8-0.2c1.2,0,2.1,0.3,2.6,0.8c0.6,0.5,0.9,1.4,0.9,2.5
			v6.8H323.6z M320.2,212.7c0.9,0,1.7-0.3,2.2-0.8c0.5-0.5,0.8-1.3,0.8-2.2v-0.9l-1.5,0.1c-1.2,0-2.1,0.2-2.6,0.6
			c-0.5,0.3-0.8,0.8-0.8,1.5c0,0.5,0.2,1,0.5,1.3C319.2,212.6,319.6,212.7,320.2,212.7z M329.4,213.8h-1.5v-10h1.5V213.8z
			 M327.7,201.1c0-0.3,0.1-0.6,0.3-0.8c0.2-0.2,0.4-0.3,0.7-0.3c0.2,0,0.4,0.1,0.6,0.3c0.2,0.2,0.3,0.4,0.3,0.8s-0.1,0.6-0.3,0.8
			s-0.4,0.3-0.6,0.3c-0.3,0-0.5-0.1-0.7-0.3C327.8,201.7,327.7,201.4,327.7,201.1z M334.1,213.8h-1.5v-14.2h1.5V213.8z M343.8,211
			c0,0.9-0.3,1.6-1,2.2c-0.7,0.5-1.7,0.8-2.9,0.8c-1.3,0-2.4-0.2-3.1-0.6v-1.4c0.5,0.2,1,0.4,1.5,0.6c0.6,0.1,1.1,0.2,1.6,0.2
			c0.8,0,1.4-0.1,1.8-0.4c0.4-0.3,0.6-0.6,0.6-1.2c0-0.4-0.2-0.7-0.5-1c-0.3-0.3-1-0.6-2-1c-0.9-0.3-1.6-0.6-2-0.9
			c-0.4-0.3-0.7-0.6-0.9-0.9c-0.2-0.3-0.3-0.7-0.3-1.2c0-0.8,0.3-1.5,1-1.9c0.7-0.5,1.6-0.7,2.7-0.7c1.1,0,2.1,0.2,3.1,0.7l-0.5,1.2
			c-1-0.4-1.9-0.6-2.7-0.6c-0.7,0-1.3,0.1-1.6,0.3s-0.5,0.5-0.5,0.9c0,0.3,0.1,0.5,0.2,0.7s0.4,0.4,0.7,0.5c0.3,0.2,0.9,0.4,1.8,0.7
			c1.2,0.4,2,0.9,2.4,1.3S343.8,210.4,343.8,211z"/>
		<path class="st3" d="M149.3,239.8h-1.5v-10h1.5V239.8z M147.7,227.1c0-0.3,0.1-0.6,0.3-0.8c0.2-0.2,0.4-0.3,0.7-0.3
			c0.2,0,0.4,0.1,0.6,0.3c0.2,0.2,0.3,0.4,0.3,0.8s-0.1,0.6-0.3,0.8c-0.2,0.2-0.4,0.3-0.6,0.3c-0.3,0-0.5-0.1-0.7-0.3
			C147.8,227.7,147.7,227.4,147.7,227.1z M159.4,239.8v-6.5c0-0.8-0.2-1.4-0.6-1.8c-0.4-0.4-0.9-0.6-1.7-0.6c-1,0-1.8,0.3-2.3,0.8
			c-0.5,0.6-0.7,1.5-0.7,2.8v5.2h-1.5v-10h1.2l0.3,1.4h0.1c0.3-0.5,0.7-0.9,1.3-1.1s1.2-0.4,1.9-0.4c1.2,0,2.1,0.3,2.7,0.9
			c0.6,0.6,0.9,1.5,0.9,2.8v6.5H159.4z M172.1,238.7c0.3,0,0.5,0,0.8-0.1c0.3,0,0.4-0.1,0.6-0.1v1.2c-0.2,0.1-0.4,0.2-0.7,0.2
			c-0.3,0.1-0.6,0.1-0.9,0.1c-1.9,0-2.9-1-2.9-3.1V231h-1.4v-0.7l1.4-0.6l0.6-2.1h0.9v2.3h2.9v1.2h-2.9v5.9c0,0.6,0.1,1.1,0.4,1.4
			C171.2,238.5,171.6,238.7,172.1,238.7z M182.3,239.8v-6.5c0-0.8-0.2-1.4-0.6-1.8c-0.4-0.4-0.9-0.6-1.7-0.6c-1.1,0-1.8,0.3-2.3,0.9
			c-0.5,0.6-0.7,1.5-0.7,2.8v5.2h-1.5v-14.2h1.5v4.3c0,0.5,0,1-0.1,1.3h0.1c0.3-0.5,0.7-0.9,1.3-1.1c0.6-0.3,1.2-0.4,1.9-0.4
			c1.2,0,2.1,0.3,2.8,0.9c0.6,0.6,0.9,1.5,0.9,2.8v6.5H182.3z M191.1,240c-1.5,0-2.6-0.4-3.5-1.3c-0.9-0.9-1.3-2.2-1.3-3.8
			c0-1.6,0.4-2.9,1.2-3.8c0.8-0.9,1.9-1.4,3.2-1.4c1.3,0,2.2,0.4,3,1.2c0.7,0.8,1.1,1.9,1.1,3.3v1h-6.9c0,1.2,0.3,2.1,0.9,2.7
			c0.6,0.6,1.4,0.9,2.4,0.9c1.1,0,2.1-0.2,3.2-0.7v1.3c-0.5,0.2-1,0.4-1.5,0.5C192.3,239.9,191.8,240,191.1,240z M190.7,230.9
			c-0.8,0-1.4,0.3-1.9,0.8c-0.5,0.5-0.7,1.2-0.8,2.2h5.2c0-0.9-0.2-1.7-0.6-2.2C192.1,231.1,191.5,230.9,190.7,230.9z M208.3,239.8
			l-0.3-1.4H208c-0.5,0.6-1,1.1-1.5,1.3c-0.5,0.2-1.1,0.3-1.8,0.3c-1,0-1.8-0.3-2.3-0.8s-0.8-1.2-0.8-2.2c0-2,1.6-3.1,4.8-3.2l1.7,0
			v-0.6c0-0.8-0.2-1.4-0.5-1.7c-0.3-0.4-0.9-0.6-1.6-0.6c-0.8,0-1.8,0.3-2.8,0.8l-0.5-1.2c0.5-0.3,1-0.5,1.6-0.6
			c0.6-0.2,1.2-0.2,1.8-0.2c1.2,0,2.1,0.3,2.6,0.8c0.6,0.5,0.9,1.4,0.9,2.5v6.8H208.3z M204.9,238.7c0.9,0,1.7-0.3,2.2-0.8
			c0.5-0.5,0.8-1.3,0.8-2.2v-0.9l-1.5,0.1c-1.2,0-2.1,0.2-2.6,0.6c-0.5,0.3-0.8,0.8-0.8,1.5c0,0.5,0.2,1,0.5,1.3
			C203.9,238.6,204.3,238.7,204.9,238.7z M214.1,239.8h-1.5v-14.2h1.5V239.8z M221.5,240c-1.5,0-2.6-0.4-3.5-1.3
			c-0.9-0.9-1.3-2.2-1.3-3.8c0-1.6,0.4-2.9,1.2-3.8s1.9-1.4,3.2-1.4c1.3,0,2.3,0.4,3,1.2c0.7,0.8,1.1,1.9,1.1,3.3v1h-6.9
			c0,1.2,0.3,2.1,0.9,2.7s1.4,0.9,2.4,0.9c1.1,0,2.1-0.2,3.2-0.7v1.3c-0.5,0.2-1,0.4-1.5,0.5S222.2,240,221.5,240z M221.1,230.9
			c-0.8,0-1.4,0.3-1.9,0.8c-0.5,0.5-0.7,1.2-0.8,2.2h5.2c0-0.9-0.2-1.7-0.6-2.2S221.9,230.9,221.1,230.9z M232.3,229.6
			c0.4,0,0.8,0,1.2,0.1l-0.2,1.4c-0.4-0.1-0.8-0.1-1.1-0.1c-0.8,0-1.5,0.3-2.1,1c-0.6,0.7-0.9,1.5-0.9,2.5v5.4h-1.5v-10h1.2l0.2,1.8
			h0.1c0.4-0.6,0.8-1.1,1.3-1.5C231.1,229.8,231.7,229.6,232.3,229.6z M238.6,238.7c0.3,0,0.5,0,0.8-0.1c0.3,0,0.4-0.1,0.6-0.1v1.2
			c-0.2,0.1-0.4,0.2-0.7,0.2c-0.3,0.1-0.6,0.1-0.9,0.1c-1.9,0-2.9-1-2.9-3.1V231H234v-0.7l1.4-0.6l0.6-2.1h0.9v2.3h2.9v1.2H237v5.9
			c0,0.6,0.1,1.1,0.4,1.4C237.7,238.5,238.1,238.7,238.6,238.7z M241.7,238.8c0-0.4,0.1-0.7,0.3-0.9c0.2-0.2,0.5-0.3,0.8-0.3
			c0.4,0,0.6,0.1,0.8,0.3s0.3,0.5,0.3,0.9c0,0.4-0.1,0.7-0.3,0.9c-0.2,0.2-0.5,0.3-0.8,0.3c-0.3,0-0.6-0.1-0.8-0.3
			C241.8,239.6,241.7,239.2,241.7,238.8z"/>
		<g>
			<g transform="matrix(1.0 0.0 0.0 1.0 2.0 0.0)">
				<g id="g5ee48bce74_0_0.2">
					<path class="st2" d="M115.8,262.1h161.6v198.5H115.8L115.8,262.1z"/>
					<g transform="matrix(0.3387789372447907 0.0 0.0 0.3387692913385827 111.44049967544862 262.078762992126)">
						<g>
							<defs>
								<rect id="SVGID_3_" x="170.7" y="193.7" width="161.6" height="198.5"/>
							</defs>
							<clipPath id="SVGID_4_">
								<use xlink:href="#SVGID_3_"  style="overflow:visible;"/>
							</clipPath>
							<g style="clip-path:url(#SVGID_4_);enable-background:new    ;">
								
									<image style="overflow:visible;" width="484" height="586" xlink:href="D639FB56.gif"  transform="matrix(1 0 0 1 5.9036 0)">
								</image>
							</g>
						</g>
					</g>
				</g>
			</g>
		</g>
		<g>
			<path class="st2" d="M113.8,262.1h161.6v198.5H113.8L113.8,262.1z"/>
			<g transform="matrix(0.3387789372447907 0.0 0.0 0.3387692913385827 111.44049967544862 262.078762992126)">
				<g>
					<defs>
						<rect id="SVGID_5_" x="164.8" y="193.7" width="161.6" height="198.5"/>
					</defs>
					<clipPath id="SVGID_6_">
						<use xlink:href="#SVGID_5_"  style="overflow:visible;"/>
					</clipPath>
					
						<image style="overflow:visible;clip-path:url(#SVGID_6_);enable-background:new    ;" width="484" height="586" xlink:href="D639FB5A.gif" >
					</image>
				</g>
			</g>
		</g>
		<g>
			<g transform="matrix(1.0 0.0 0.0 1.0 2.0 0.0)">
				<g id="g5ee48bce74_0_0.4">
					<path class="st2" d="M295,264.8h185.8v195.8H295V264.8z"/>
					<g transform="matrix(0.16704671916010497 0.0 0.0 0.16704645669291343 292.96408320209974 264.81910787401574)">
						<g>
							<defs>
								<rect id="SVGID_7_" x="475.1" y="488.1" width="185.8" height="195.8"/>
							</defs>
							<clipPath id="SVGID_8_">
								<use xlink:href="#SVGID_7_"  style="overflow:visible;"/>
							</clipPath>
							<g style="clip-path:url(#SVGID_8_);enable-background:new    ;">
								
									<image style="overflow:visible;" width="1112" height="1172" xlink:href="D639FB5A.gif"  transform="matrix(1 0 0 1 11.9727 0)">
								</image>
							</g>
						</g>
					</g>
				</g>
			</g>
		</g>
		<g>
			<path class="st2" d="M293,264.8h185.8v195.8H293V264.8z"/>
			<g transform="matrix(0.16704671916010497 0.0 0.0 0.16704645669291343 292.96408320209974 264.81910787401574)">
				<g>
					<defs>
						<rect id="SVGID_9_" x="463.1" y="488.1" width="185.8" height="195.8"/>
					</defs>
					<clipPath id="SVGID_10_">
						<use xlink:href="#SVGID_9_"  style="overflow:visible;"/>
					</clipPath>
					
						<image style="overflow:visible;clip-path:url(#SVGID_10_);enable-background:new    ;" width="1112" height="1172" xlink:href="D639FB5E.gif" >
					</image>
				</g>
			</g>
		</g>
		<path class="st2" d="M371.9,106.9h260.7v195.8H371.9V106.9z"/>
		<path class="st3" d="M390.8,138.9l-5.8-15.2h-0.1c0.1,1.2,0.2,2.6,0.2,4.3v10.9h-1.8v-17.1h3l5.4,14.1h0.1l5.5-14.1h3v17.1h-2v-11
			c0-1.3,0.1-2.6,0.2-4.1h-0.1l-5.9,15.2H390.8z M406.6,138.9h-2V126h2V138.9z M404.5,122.6c0-0.4,0.1-0.8,0.3-1
			c0.2-0.2,0.5-0.3,0.8-0.3c0.3,0,0.6,0.1,0.8,0.3c0.2,0.2,0.3,0.5,0.3,1c0,0.4-0.1,0.8-0.3,1c-0.2,0.2-0.5,0.3-0.8,0.3
			c-0.3,0-0.6-0.1-0.8-0.3C404.6,123.3,404.5,123,404.5,122.6z M419.5,137.2h-0.1c-0.9,1.3-2.2,2-4,2c-1.7,0-3-0.6-3.9-1.7
			c-0.9-1.2-1.4-2.8-1.4-4.9c0-2.1,0.5-3.8,1.4-4.9c0.9-1.2,2.2-1.8,3.9-1.8c1.7,0,3.1,0.6,4,1.9h0.2l-0.1-0.9l0-0.9v-5.2h1.9v18.2
			h-1.6L419.5,137.2z M415.6,137.5c1.3,0,2.3-0.4,2.9-1.1c0.6-0.7,0.9-1.9,0.9-3.5v-0.4c0-1.8-0.3-3.1-0.9-3.9
			c-0.6-0.8-1.6-1.2-2.9-1.2c-1.1,0-2,0.4-2.6,1.3c-0.6,0.9-0.9,2.1-0.9,3.8c0,1.6,0.3,2.9,0.9,3.7
			C413.5,137.1,414.4,137.5,415.6,137.5z M424.3,133.3v-1.8h5.8v1.8H424.3z M433.4,138.9v-17.1h2v17.1H433.4z M448.6,138.9v-8.3
			c0-1-0.2-1.8-0.7-2.3c-0.5-0.5-1.2-0.8-2.2-0.8c-1.3,0-2.3,0.4-3,1.1c-0.6,0.7-0.9,1.9-0.9,3.6v6.7h-2V126h1.6l0.3,1.8h0.1
			c0.4-0.6,1-1.1,1.7-1.5c0.7-0.4,1.5-0.5,2.4-0.5c1.5,0,2.7,0.4,3.5,1.1c0.8,0.7,1.2,1.9,1.2,3.6v8.4H448.6z M458.7,137.5
			c0.3,0,0.7,0,1-0.1c0.3-0.1,0.6-0.1,0.8-0.2v1.5c-0.2,0.1-0.5,0.2-0.9,0.3c-0.4,0.1-0.8,0.1-1.1,0.1c-2.5,0-3.7-1.3-3.7-3.9v-7.6
			h-1.8v-0.9l1.8-0.8l0.8-2.8h1.1v3h3.7v1.5h-3.7v7.5c0,0.8,0.2,1.4,0.5,1.8C457.6,137.3,458.1,137.5,458.7,137.5z M468.5,139.1
			c-1.9,0-3.4-0.6-4.5-1.7c-1.1-1.2-1.6-2.8-1.6-4.8c0-2.1,0.5-3.7,1.5-4.9c1-1.2,2.4-1.8,4.1-1.8c1.6,0,2.9,0.5,3.8,1.6
			c0.9,1.1,1.4,2.4,1.4,4.2v1.2h-8.9c0,1.5,0.4,2.7,1.1,3.4c0.7,0.8,1.8,1.2,3.1,1.2c1.4,0,2.8-0.3,4.1-0.9v1.7
			c-0.7,0.3-1.3,0.5-2,0.6C470.1,139.1,469.3,139.1,468.5,139.1z M467.9,127.4c-1,0-1.9,0.3-2.5,1c-0.6,0.7-1,1.6-1.1,2.8h6.7
			c0-1.2-0.3-2.2-0.8-2.8C469.7,127.8,469,127.4,467.9,127.4z M485.3,138.9v-8.3c0-1-0.2-1.8-0.7-2.3c-0.5-0.5-1.2-0.8-2.2-0.8
			c-1.3,0-2.3,0.4-3,1.1c-0.6,0.7-0.9,1.9-0.9,3.6v6.7h-2V126h1.6l0.3,1.8h0.1c0.4-0.6,1-1.1,1.7-1.5c0.7-0.4,1.5-0.5,2.4-0.5
			c1.5,0,2.7,0.4,3.5,1.1c0.8,0.7,1.2,1.9,1.2,3.6v8.4H485.3z M499.5,135.4c0,1.2-0.4,2.1-1.3,2.8c-0.9,0.6-2.1,1-3.7,1
			c-1.7,0-3-0.3-4-0.8v-1.8c0.6,0.3,1.3,0.6,2,0.7c0.7,0.2,1.4,0.3,2,0.3c1,0,1.8-0.2,2.3-0.5c0.6-0.3,0.8-0.8,0.8-1.5
			c0-0.5-0.2-0.9-0.7-1.3c-0.4-0.4-1.3-0.8-2.5-1.3c-1.2-0.4-2-0.8-2.5-1.2c-0.5-0.3-0.9-0.7-1.1-1.1c-0.2-0.4-0.4-0.9-0.4-1.5
			c0-1.1,0.4-1.9,1.3-2.5c0.9-0.6,2-0.9,3.5-0.9c1.4,0,2.7,0.3,4,0.8l-0.7,1.6c-1.3-0.5-2.5-0.8-3.5-0.8c-0.9,0-1.6,0.1-2.1,0.4
			c-0.5,0.3-0.7,0.7-0.7,1.2c0,0.3,0.1,0.6,0.3,0.9c0.2,0.2,0.5,0.5,0.8,0.7c0.4,0.2,1.1,0.5,2.3,1c1.5,0.6,2.6,1.1,3.1,1.7
			S499.5,134.5,499.5,135.4z M504.6,138.9h-2V126h2V138.9z M502.5,122.6c0-0.4,0.1-0.8,0.3-1c0.2-0.2,0.5-0.3,0.8-0.3
			c0.3,0,0.6,0.1,0.8,0.3c0.2,0.2,0.3,0.5,0.3,1c0,0.4-0.1,0.8-0.3,1c-0.2,0.2-0.5,0.3-0.8,0.3c-0.3,0-0.6-0.1-0.8-0.3
			C502.6,123.3,502.5,123,502.5,122.6z M512.9,137.5c0.3,0,0.7,0,1-0.1c0.3-0.1,0.6-0.1,0.8-0.2v1.5c-0.2,0.1-0.5,0.2-0.9,0.3
			c-0.4,0.1-0.8,0.1-1.1,0.1c-2.5,0-3.7-1.3-3.7-3.9v-7.6H507v-0.9l1.8-0.8l0.8-2.8h1.1v3h3.7v1.5h-3.7v7.5c0,0.8,0.2,1.4,0.5,1.8
			C511.8,137.3,512.3,137.5,512.9,137.5z M515.2,126h2.1l2.8,7.3c0.6,1.7,1,2.9,1.2,3.6h0.1c0.1-0.4,0.3-1.1,0.6-2
			c0.3-1,1.4-3.9,3.2-8.9h2.1l-5.5,14.6c-0.5,1.4-1.2,2.5-1.9,3.1c-0.7,0.6-1.6,0.9-2.7,0.9c-0.6,0-1.2-0.1-1.8-0.2v-1.5
			c0.4,0.1,0.9,0.1,1.4,0.1c1.3,0,2.3-0.8,2.9-2.3l0.7-1.8L515.2,126z"/>
		<path class="st3" d="M388.2,187.8l-3.2-10.5h-0.1c0.1,2.1,0.2,3.5,0.2,4.3v6.2h-2.5v-13.3h3.8l3.2,10.2h0.1l3.3-10.2h3.9v13.3
			h-2.6v-6.3c0-0.3,0-0.6,0-1c0-0.4,0.1-1.4,0.1-3.1h-0.1l-3.4,10.4H388.2z M402.2,182.7c0,1,0.2,1.8,0.5,2.3
			c0.3,0.5,0.9,0.8,1.6,0.8c0.7,0,1.3-0.3,1.6-0.8c0.3-0.5,0.5-1.3,0.5-2.3s-0.2-1.8-0.5-2.3c-0.3-0.5-0.9-0.8-1.6-0.8
			c-0.7,0-1.3,0.3-1.6,0.8C402.3,180.9,402.2,181.7,402.2,182.7z M409.2,182.7c0,1.7-0.4,3-1.3,3.9s-2.1,1.4-3.7,1.4
			c-1,0-1.8-0.2-2.6-0.6c-0.7-0.4-1.3-1.1-1.7-1.8c-0.4-0.8-0.6-1.7-0.6-2.8c0-1.7,0.4-3,1.3-3.9c0.9-0.9,2.1-1.4,3.7-1.4
			c1,0,1.8,0.2,2.6,0.6s1.3,1,1.7,1.8C409,180.7,409.2,181.6,409.2,182.7z M413.9,187.8l-3.9-10.2h2.9l2,5.8
			c0.2,0.7,0.4,1.4,0.4,2.1h0.1c0-0.6,0.2-1.3,0.4-2.1l2-5.8h2.9l-3.9,10.2H413.9z M426.3,179.4c-0.6,0-1,0.2-1.4,0.6
			c-0.3,0.4-0.5,0.9-0.6,1.6h3.9c0-0.7-0.2-1.2-0.5-1.6C427.4,179.6,426.9,179.4,426.3,179.4z M426.7,188c-1.6,0-2.9-0.5-3.8-1.4
			c-0.9-0.9-1.4-2.2-1.4-3.8c0-1.7,0.4-3,1.3-4c0.9-0.9,2-1.4,3.5-1.4c1.4,0,2.6,0.4,3.4,1.2c0.8,0.8,1.2,1.9,1.2,3.4v1.3h-6.6
			c0,0.8,0.3,1.4,0.7,1.9c0.4,0.4,1,0.7,1.8,0.7c0.6,0,1.2-0.1,1.7-0.2c0.6-0.1,1.1-0.3,1.7-0.6v2.2c-0.5,0.2-1,0.4-1.5,0.5
			C428.2,187.9,427.5,188,426.7,188z M442.3,187.8h-2.8v-6c0-0.7-0.1-1.3-0.4-1.6c-0.2-0.4-0.6-0.6-1.2-0.6c-0.7,0-1.2,0.3-1.5,0.8
			c-0.3,0.5-0.5,1.4-0.5,2.6v4.8h-2.8v-10.2h2.1l0.4,1.3h0.2c0.3-0.5,0.7-0.8,1.2-1.1c0.5-0.3,1.1-0.4,1.8-0.4
			c1.5,0,2.6,0.5,3.1,1.5h0.2c0.3-0.5,0.7-0.8,1.2-1.1s1.1-0.4,1.8-0.4c1.2,0,2,0.3,2.6,0.9c0.6,0.6,0.9,1.5,0.9,2.8v6.6h-2.8v-6
			c0-0.7-0.1-1.3-0.4-1.6c-0.2-0.4-0.6-0.6-1.2-0.6c-0.7,0-1.2,0.2-1.5,0.7c-0.3,0.5-0.5,1.3-0.5,2.3V187.8z M455.7,179.4
			c-0.6,0-1,0.2-1.4,0.6c-0.3,0.4-0.5,0.9-0.6,1.6h3.9c0-0.7-0.2-1.2-0.5-1.6C456.7,179.6,456.3,179.4,455.7,179.4z M456.1,188
			c-1.6,0-2.9-0.5-3.8-1.4c-0.9-0.9-1.4-2.2-1.4-3.8c0-1.7,0.4-3,1.3-4c0.9-0.9,2-1.4,3.5-1.4c1.4,0,2.6,0.4,3.4,1.2
			c0.8,0.8,1.2,1.9,1.2,3.4v1.3h-6.6c0,0.8,0.3,1.4,0.7,1.9c0.4,0.4,1,0.7,1.8,0.7c0.6,0,1.2-0.1,1.7-0.2c0.6-0.1,1.1-0.3,1.7-0.6
			v2.2c-0.5,0.2-1,0.4-1.5,0.5C457.5,187.9,456.9,188,456.1,188z M471.9,187.8h-2.8v-6c0-0.7-0.1-1.3-0.4-1.6
			c-0.3-0.4-0.7-0.6-1.3-0.6c-0.8,0-1.3,0.3-1.7,0.8c-0.3,0.5-0.5,1.4-0.5,2.6v4.8h-2.8v-10.2h2.1l0.4,1.3h0.2
			c0.3-0.5,0.7-0.9,1.3-1.1c0.5-0.3,1.2-0.4,1.8-0.4c1.2,0,2.1,0.3,2.7,1c0.6,0.6,0.9,1.6,0.9,2.8V187.8z M479,185.7
			c0.5,0,1.1-0.1,1.8-0.3v2.1c-0.7,0.3-1.5,0.5-2.5,0.5c-1.1,0-1.9-0.3-2.4-0.8c-0.5-0.6-0.8-1.4-0.8-2.5v-4.9h-1.3v-1.2l1.5-0.9
			l0.8-2.2h1.8v2.2h2.9v2.1h-2.9v4.9c0,0.4,0.1,0.7,0.3,0.9C478.4,185.6,478.7,185.7,479,185.7z"/>
		<path class="st3" d="M491.8,188c-1.4,0-2.6-0.4-3.4-1.3c-0.8-0.9-1.2-2.2-1.2-3.8c0-1.7,0.4-3,1.2-3.9c0.8-0.9,2-1.4,3.4-1.4
			c0.5,0,1,0.1,1.4,0.2c0.5,0.1,0.9,0.2,1.1,0.4l-0.5,1.3c-0.3-0.1-0.7-0.2-1.1-0.3c-0.4-0.1-0.7-0.1-1-0.1c-2,0-3,1.3-3,3.9
			c0,1.2,0.2,2.2,0.7,2.8c0.5,0.7,1.2,1,2.2,1c0.8,0,1.7-0.2,2.5-0.5v1.3C493.7,187.8,492.8,188,491.8,188z M502.9,187.8l-0.3-1.4
			h-0.1c-0.5,0.6-1,1.1-1.5,1.3c-0.5,0.2-1.1,0.3-1.8,0.3c-1,0-1.8-0.3-2.3-0.8c-0.6-0.5-0.8-1.2-0.8-2.2c0-2,1.6-3.1,4.8-3.2l1.7,0
			v-0.6c0-0.8-0.2-1.4-0.5-1.7c-0.3-0.4-0.9-0.6-1.6-0.6c-0.8,0-1.8,0.3-2.8,0.8l-0.5-1.2c0.5-0.3,1-0.5,1.6-0.6
			c0.6-0.2,1.2-0.2,1.8-0.2c1.2,0,2.1,0.3,2.6,0.8c0.6,0.5,0.9,1.4,0.9,2.5v6.8H502.9z M499.4,186.7c0.9,0,1.7-0.3,2.2-0.8
			c0.5-0.5,0.8-1.3,0.8-2.2v-0.9l-1.5,0.1c-1.2,0-2.1,0.2-2.6,0.6c-0.5,0.3-0.8,0.8-0.8,1.5c0,0.5,0.2,1,0.5,1.3
			C498.4,186.6,498.9,186.7,499.4,186.7z M513.9,187.8v-6.5c0-0.8-0.2-1.4-0.6-1.8c-0.4-0.4-0.9-0.6-1.7-0.6c-1,0-1.8,0.3-2.3,0.8
			c-0.5,0.6-0.7,1.5-0.7,2.8v5.2h-1.5v-10h1.2l0.3,1.4h0.1c0.3-0.5,0.7-0.9,1.3-1.1c0.6-0.3,1.2-0.4,1.9-0.4c1.2,0,2.1,0.3,2.7,0.9
			c0.6,0.6,0.9,1.5,0.9,2.8v6.5H513.9z M528,177.6c1.3,0,2.3,0.4,3,1.3c0.7,0.9,1.1,2.2,1.1,3.8s-0.4,2.9-1.1,3.8
			c-0.7,0.9-1.7,1.4-3,1.4c-0.6,0-1.2-0.1-1.8-0.4c-0.5-0.2-1-0.6-1.4-1.1h-0.1l-0.3,1.3h-1.1v-14.2h1.5v3.4c0,0.8,0,1.5-0.1,2.1
			h0.1C525.6,178.1,526.7,177.6,528,177.6z M527.8,178.9c-1,0-1.8,0.3-2.2,0.9c-0.5,0.6-0.7,1.6-0.7,3s0.2,2.4,0.7,3
			s1.2,0.9,2.3,0.9c0.9,0,1.6-0.3,2.1-1c0.5-0.7,0.7-1.7,0.7-2.9c0-1.3-0.2-2.3-0.7-2.9C529.5,179.2,528.8,178.9,527.8,178.9z
			 M539,188c-1.5,0-2.6-0.4-3.5-1.3c-0.9-0.9-1.3-2.2-1.3-3.8c0-1.6,0.4-2.9,1.2-3.8s1.9-1.4,3.2-1.4c1.3,0,2.3,0.4,3,1.2
			c0.7,0.8,1.1,1.9,1.1,3.3v1h-6.9c0,1.2,0.3,2.1,0.9,2.7s1.4,0.9,2.4,0.9c1.1,0,2.1-0.2,3.2-0.7v1.3c-0.5,0.2-1,0.4-1.5,0.5
			S539.7,188,539,188z M538.6,178.9c-0.8,0-1.4,0.3-1.9,0.8c-0.5,0.5-0.7,1.2-0.8,2.2h5.2c0-0.9-0.2-1.7-0.6-2.2
			S539.4,178.9,538.6,178.9z M552.3,187.8l-3.8-10h1.6l2.1,5.9c0.5,1.4,0.8,2.3,0.9,2.7h0.1c0.1-0.3,0.3-1,0.6-2
			c0.4-1,1.2-3.2,2.4-6.6h1.6l-3.8,10H552.3z M561,187.8h-1.5v-10h1.5V187.8z M559.3,175.1c0-0.3,0.1-0.6,0.3-0.8
			c0.2-0.2,0.4-0.3,0.7-0.3c0.2,0,0.4,0.1,0.6,0.3c0.2,0.2,0.3,0.4,0.3,0.8s-0.1,0.6-0.3,0.8s-0.4,0.3-0.6,0.3
			c-0.3,0-0.5-0.1-0.7-0.3C559.4,175.7,559.3,175.4,559.3,175.1z M570.6,185.1c0,0.9-0.3,1.6-1,2.2c-0.7,0.5-1.7,0.8-2.9,0.8
			c-1.3,0-2.4-0.2-3.1-0.6v-1.4c0.5,0.2,1,0.4,1.5,0.6c0.6,0.1,1.1,0.2,1.6,0.2c0.8,0,1.4-0.1,1.8-0.4c0.4-0.3,0.6-0.6,0.6-1.2
			c0-0.4-0.2-0.7-0.5-1c-0.3-0.3-1-0.6-2-1c-0.9-0.3-1.6-0.6-2-0.9c-0.4-0.3-0.7-0.6-0.9-0.9c-0.2-0.3-0.3-0.7-0.3-1.2
			c0-0.8,0.3-1.5,1-1.9c0.7-0.5,1.6-0.7,2.7-0.7c1.1,0,2.1,0.2,3.1,0.7l-0.5,1.2c-1-0.4-1.9-0.6-2.7-0.6c-0.7,0-1.3,0.1-1.6,0.3
			c-0.4,0.2-0.5,0.5-0.5,0.9c0,0.3,0.1,0.5,0.2,0.7c0.1,0.2,0.4,0.4,0.7,0.5c0.3,0.2,0.9,0.4,1.8,0.7c1.2,0.4,2,0.9,2.4,1.3
			C570.4,183.8,570.6,184.4,570.6,185.1z M574.5,177.8v6.5c0,0.8,0.2,1.4,0.5,1.8c0.4,0.4,1,0.6,1.7,0.6c1.1,0,1.8-0.3,2.3-0.9
			s0.7-1.5,0.7-2.8v-5.3h1.5v10h-1.3l-0.2-1.3h-0.1c-0.3,0.5-0.7,0.9-1.3,1.1c-0.5,0.3-1.2,0.4-1.9,0.4c-1.2,0-2.1-0.3-2.7-0.9
			c-0.6-0.6-0.9-1.5-0.9-2.8v-6.5H574.5z M590.7,187.8l-0.3-1.4h-0.1c-0.5,0.6-1,1.1-1.5,1.3c-0.5,0.2-1.1,0.3-1.8,0.3
			c-1,0-1.8-0.3-2.3-0.8s-0.8-1.2-0.8-2.2c0-2,1.6-3.1,4.8-3.2l1.7,0v-0.6c0-0.8-0.2-1.4-0.5-1.7c-0.3-0.4-0.9-0.6-1.6-0.6
			c-0.8,0-1.8,0.3-2.8,0.8l-0.5-1.2c0.5-0.3,1-0.5,1.6-0.6c0.6-0.2,1.2-0.2,1.8-0.2c1.2,0,2.1,0.3,2.6,0.8c0.6,0.5,0.9,1.4,0.9,2.5
			v6.8H590.7z M587.3,186.7c0.9,0,1.7-0.3,2.2-0.8c0.5-0.5,0.8-1.3,0.8-2.2v-0.9l-1.5,0.1c-1.2,0-2.1,0.2-2.6,0.6
			c-0.5,0.3-0.8,0.8-0.8,1.5c0,0.5,0.2,1,0.5,1.3C586.2,186.6,586.7,186.7,587.3,186.7z M596.4,187.8h-1.5v-14.2h1.5V187.8z"/>
		<path class="st3" d="M384,213.8h-1.5v-14.2h1.5V213.8z M393.4,213.8l-0.3-1.4H393c-0.5,0.6-1,1.1-1.5,1.3
			c-0.5,0.2-1.1,0.3-1.8,0.3c-1,0-1.8-0.3-2.3-0.8s-0.8-1.2-0.8-2.2c0-2,1.6-3.1,4.8-3.2l1.7,0v-0.6c0-0.8-0.2-1.4-0.5-1.7
			c-0.3-0.4-0.9-0.6-1.6-0.6c-0.8,0-1.8,0.3-2.8,0.8l-0.5-1.2c0.5-0.3,1-0.5,1.6-0.6c0.6-0.2,1.2-0.2,1.8-0.2c1.2,0,2.1,0.3,2.6,0.8
			c0.6,0.5,0.9,1.4,0.9,2.5v6.8H393.4z M390,212.7c0.9,0,1.7-0.3,2.2-0.8c0.5-0.5,0.8-1.3,0.8-2.2v-0.9l-1.5,0.1
			c-1.2,0-2.1,0.2-2.6,0.6c-0.5,0.3-0.8,0.8-0.8,1.5c0,0.5,0.2,1,0.5,1.3C388.9,212.6,389.4,212.7,390,212.7z M404.4,213.8v-6.5
			c0-0.8-0.2-1.4-0.6-1.8c-0.4-0.4-0.9-0.6-1.7-0.6c-1,0-1.8,0.3-2.3,0.8c-0.5,0.6-0.7,1.5-0.7,2.8v5.2h-1.5v-10h1.2l0.3,1.4h0.1
			c0.3-0.5,0.7-0.9,1.3-1.1c0.6-0.3,1.2-0.4,1.9-0.4c1.2,0,2.1,0.3,2.7,0.9c0.6,0.6,0.9,1.5,0.9,2.8v6.5H404.4z M417.2,203.8v1
			l-1.9,0.2c0.2,0.2,0.3,0.5,0.5,0.8c0.1,0.3,0.2,0.7,0.2,1.2c0,1-0.3,1.8-1,2.3c-0.7,0.6-1.6,0.9-2.8,0.9c-0.3,0-0.6,0-0.8-0.1
			c-0.6,0.3-1,0.8-1,1.3c0,0.3,0.1,0.5,0.3,0.6c0.2,0.1,0.6,0.2,1.2,0.2h1.8c1.1,0,1.9,0.2,2.5,0.7c0.6,0.4,0.9,1.1,0.9,2
			c0,1.1-0.4,1.9-1.3,2.5c-0.9,0.6-2.2,0.9-3.9,0.9c-1.3,0-2.3-0.2-3-0.7c-0.7-0.5-1.1-1.2-1.1-2.1c0-0.6,0.2-1.1,0.6-1.6
			c0.4-0.4,0.9-0.7,1.6-0.9c-0.3-0.1-0.5-0.3-0.6-0.5c-0.2-0.3-0.3-0.5-0.3-0.9c0-0.4,0.1-0.7,0.3-1c0.2-0.3,0.5-0.5,0.9-0.8
			c-0.5-0.2-0.9-0.6-1.3-1.1c-0.3-0.5-0.5-1.1-0.5-1.8c0-1.1,0.3-1.9,1-2.5s1.6-0.9,2.8-0.9c0.5,0,1,0.1,1.4,0.2H417.2z
			 M409.3,215.4c0,0.5,0.2,1,0.7,1.2c0.5,0.3,1.1,0.4,2,0.4c1.3,0,2.2-0.2,2.8-0.6c0.6-0.4,0.9-0.9,0.9-1.5c0-0.5-0.2-0.9-0.5-1.1
			c-0.3-0.2-1-0.3-1.9-0.3h-1.8c-0.7,0-1.2,0.2-1.6,0.5C409.5,214.4,409.3,214.8,409.3,215.4z M410.1,207c0,0.7,0.2,1.2,0.6,1.6
			c0.4,0.4,0.9,0.5,1.7,0.5c1.5,0,2.2-0.7,2.2-2.1c0-1.5-0.8-2.3-2.3-2.3c-0.7,0-1.3,0.2-1.6,0.6C410.3,205.7,410.1,206.2,410.1,207
			z M420.7,203.8v6.5c0,0.8,0.2,1.4,0.5,1.8c0.4,0.4,1,0.6,1.7,0.6c1.1,0,1.8-0.3,2.3-0.9c0.5-0.6,0.7-1.5,0.7-2.8v-5.3h1.5v10h-1.3
			l-0.2-1.3H426c-0.3,0.5-0.7,0.9-1.3,1.1c-0.5,0.3-1.2,0.4-1.9,0.4c-1.2,0-2.1-0.3-2.7-0.9c-0.6-0.6-0.9-1.5-0.9-2.8v-6.5H420.7z
			 M436.9,213.8l-0.3-1.4h-0.1c-0.5,0.6-1,1.1-1.5,1.3c-0.5,0.2-1.1,0.3-1.8,0.3c-1,0-1.8-0.3-2.3-0.8S430,212,430,211
			c0-2,1.6-3.1,4.8-3.2l1.7,0v-0.6c0-0.8-0.2-1.4-0.5-1.7c-0.3-0.4-0.9-0.6-1.6-0.6c-0.8,0-1.8,0.3-2.8,0.8l-0.5-1.2
			c0.5-0.3,1-0.5,1.6-0.6c0.6-0.2,1.2-0.2,1.8-0.2c1.2,0,2.1,0.3,2.6,0.8c0.6,0.5,0.9,1.4,0.9,2.5v6.8H436.9z M433.5,212.7
			c0.9,0,1.7-0.3,2.2-0.8c0.5-0.5,0.8-1.3,0.8-2.2v-0.9l-1.5,0.1c-1.2,0-2.1,0.2-2.6,0.6c-0.5,0.3-0.8,0.8-0.8,1.5
			c0,0.5,0.2,1,0.5,1.3C432.4,212.6,432.9,212.7,433.5,212.7z M449.3,203.8v1l-1.9,0.2c0.2,0.2,0.3,0.5,0.5,0.8
			c0.1,0.3,0.2,0.7,0.2,1.2c0,1-0.3,1.8-1,2.3s-1.6,0.9-2.8,0.9c-0.3,0-0.6,0-0.8-0.1c-0.6,0.3-1,0.8-1,1.3c0,0.3,0.1,0.5,0.3,0.6
			c0.2,0.1,0.6,0.2,1.2,0.2h1.8c1.1,0,1.9,0.2,2.5,0.7c0.6,0.4,0.9,1.1,0.9,2c0,1.1-0.4,1.9-1.3,2.5s-2.2,0.9-3.9,0.9
			c-1.3,0-2.3-0.2-3-0.7c-0.7-0.5-1.1-1.2-1.1-2.1c0-0.6,0.2-1.1,0.6-1.6c0.4-0.4,0.9-0.7,1.6-0.9c-0.3-0.1-0.5-0.3-0.6-0.5
			c-0.2-0.3-0.3-0.5-0.3-0.9c0-0.4,0.1-0.7,0.3-1s0.5-0.5,0.9-0.8c-0.5-0.2-0.9-0.6-1.3-1.1s-0.5-1.1-0.5-1.8c0-1.1,0.3-1.9,1-2.5
			s1.6-0.9,2.8-0.9c0.5,0,1,0.1,1.4,0.2H449.3z M441.3,215.4c0,0.5,0.2,1,0.7,1.2c0.5,0.3,1.1,0.4,2,0.4c1.3,0,2.2-0.2,2.8-0.6
			c0.6-0.4,0.9-0.9,0.9-1.5c0-0.5-0.2-0.9-0.5-1.1c-0.3-0.2-1-0.3-1.9-0.3h-1.8c-0.7,0-1.2,0.2-1.6,0.5
			C441.5,214.4,441.3,214.8,441.3,215.4z M442.1,207c0,0.7,0.2,1.2,0.6,1.6s0.9,0.5,1.7,0.5c1.5,0,2.2-0.7,2.2-2.1
			c0-1.5-0.8-2.3-2.3-2.3c-0.7,0-1.3,0.2-1.6,0.6C442.3,205.7,442.1,206.2,442.1,207z M455.6,214c-1.5,0-2.6-0.4-3.5-1.3
			c-0.9-0.9-1.3-2.2-1.3-3.8c0-1.6,0.4-2.9,1.2-3.8c0.8-0.9,1.9-1.4,3.2-1.4c1.3,0,2.3,0.4,3,1.2c0.7,0.8,1.1,1.9,1.1,3.3v1h-6.9
			c0,1.2,0.3,2.1,0.9,2.7s1.4,0.9,2.4,0.9c1.1,0,2.1-0.2,3.2-0.7v1.3c-0.5,0.2-1,0.4-1.5,0.5C456.8,213.9,456.2,214,455.6,214z
			 M455.1,204.9c-0.8,0-1.4,0.3-1.9,0.8c-0.5,0.5-0.7,1.2-0.8,2.2h5.2c0-0.9-0.2-1.7-0.6-2.2C456.5,205.1,455.9,204.9,455.1,204.9z
			 M471.1,205h-2.5v8.8h-1.5V205h-1.8v-0.7l1.8-0.5v-0.6c0-2.5,1.1-3.7,3.2-3.7c0.5,0,1.2,0.1,1.9,0.3l-0.4,1.2
			c-0.6-0.2-1.1-0.3-1.5-0.3c-0.6,0-1,0.2-1.3,0.6c-0.3,0.4-0.4,1-0.4,1.8v0.6h2.5V205z M481.6,208.8c0,1.6-0.4,2.9-1.2,3.8
			c-0.8,0.9-1.9,1.4-3.4,1.4c-0.9,0-1.7-0.2-2.4-0.6c-0.7-0.4-1.2-1-1.6-1.8c-0.4-0.8-0.6-1.7-0.6-2.8c0-1.6,0.4-2.9,1.2-3.8
			c0.8-0.9,1.9-1.4,3.4-1.4c1.4,0,2.5,0.5,3.3,1.4C481.2,205.9,481.6,207.2,481.6,208.8z M474,208.8c0,1.3,0.3,2.2,0.8,2.9
			c0.5,0.7,1.3,1,2.3,1c1,0,1.7-0.3,2.3-1c0.5-0.7,0.8-1.6,0.8-2.9c0-1.3-0.3-2.2-0.8-2.9c-0.5-0.7-1.3-1-2.3-1c-1,0-1.7,0.3-2.3,1
			C474.2,206.5,474,207.5,474,208.8z M488.8,203.6c0.4,0,0.8,0,1.2,0.1l-0.2,1.4c-0.4-0.1-0.8-0.1-1.1-0.1c-0.8,0-1.5,0.3-2.1,1
			c-0.6,0.7-0.9,1.5-0.9,2.5v5.4h-1.5v-10h1.2l0.2,1.8h0.1c0.4-0.6,0.8-1.1,1.3-1.5C487.6,203.8,488.2,203.6,488.8,203.6z
			 M499.9,212.7c0.3,0,0.5,0,0.8-0.1c0.3,0,0.4-0.1,0.6-0.1v1.2c-0.2,0.1-0.4,0.2-0.7,0.2c-0.3,0.1-0.6,0.1-0.9,0.1
			c-1.9,0-2.9-1-2.9-3.1V205h-1.4v-0.7l1.4-0.6l0.6-2.1h0.9v2.3h2.9v1.2h-2.9v5.9c0,0.6,0.1,1.1,0.4,1.4
			C499,212.5,499.4,212.7,499.9,212.7z M510.1,213.8v-6.5c0-0.8-0.2-1.4-0.6-1.8c-0.4-0.4-0.9-0.6-1.7-0.6c-1.1,0-1.8,0.3-2.3,0.9
			c-0.5,0.6-0.7,1.5-0.7,2.8v5.2h-1.5v-14.2h1.5v4.3c0,0.5,0,1-0.1,1.3h0.1c0.3-0.5,0.7-0.9,1.3-1.1c0.6-0.3,1.2-0.4,1.9-0.4
			c1.2,0,2.1,0.3,2.8,0.9c0.6,0.6,0.9,1.5,0.9,2.8v6.5H510.1z M519,214c-1.5,0-2.6-0.4-3.5-1.3c-0.9-0.9-1.3-2.2-1.3-3.8
			c0-1.6,0.4-2.9,1.2-3.8s1.9-1.4,3.2-1.4c1.3,0,2.3,0.4,3,1.2c0.7,0.8,1.1,1.9,1.1,3.3v1h-6.9c0,1.2,0.3,2.1,0.9,2.7
			s1.4,0.9,2.4,0.9c1.1,0,2.1-0.2,3.2-0.7v1.3c-0.5,0.2-1,0.4-1.5,0.5S519.6,214,519,214z M518.5,204.9c-0.8,0-1.4,0.3-1.9,0.8
			c-0.5,0.5-0.7,1.2-0.8,2.2h5.2c0-0.9-0.2-1.7-0.6-2.2S519.3,204.9,518.5,204.9z M533.3,212.7c0.3,0,0.5,0,0.8-0.1
			c0.3,0,0.4-0.1,0.6-0.1v1.2c-0.2,0.1-0.4,0.2-0.7,0.2s-0.6,0.1-0.9,0.1c-1.9,0-2.9-1-2.9-3.1V205h-1.4v-0.7l1.4-0.6l0.6-2.1h0.9
			v2.3h2.9v1.2h-2.9v5.9c0,0.6,0.1,1.1,0.4,1.4C532.4,212.5,532.8,212.7,533.3,212.7z M541.2,203.6c0.4,0,0.8,0,1.2,0.1l-0.2,1.4
			c-0.4-0.1-0.8-0.1-1.1-0.1c-0.8,0-1.5,0.3-2.1,1c-0.6,0.7-0.9,1.5-0.9,2.5v5.4h-1.5v-10h1.2l0.2,1.8h0.1c0.4-0.6,0.8-1.1,1.3-1.5
			C540,203.8,540.6,203.6,541.2,203.6z M550.4,213.8l-0.3-1.4H550c-0.5,0.6-1,1.1-1.5,1.3c-0.5,0.2-1.1,0.3-1.8,0.3
			c-1,0-1.8-0.3-2.3-0.8s-0.8-1.2-0.8-2.2c0-2,1.6-3.1,4.8-3.2l1.7,0v-0.6c0-0.8-0.2-1.4-0.5-1.7c-0.3-0.4-0.9-0.6-1.6-0.6
			c-0.8,0-1.8,0.3-2.8,0.8l-0.5-1.2c0.5-0.3,1-0.5,1.6-0.6c0.6-0.2,1.2-0.2,1.8-0.2c1.2,0,2.1,0.3,2.6,0.8c0.6,0.5,0.9,1.4,0.9,2.5
			v6.8H550.4z M547,212.7c0.9,0,1.7-0.3,2.2-0.8c0.5-0.5,0.8-1.3,0.8-2.2v-0.9l-1.5,0.1c-1.2,0-2.1,0.2-2.6,0.6
			c-0.5,0.3-0.8,0.8-0.8,1.5c0,0.5,0.2,1,0.5,1.3C545.9,212.6,546.4,212.7,547,212.7z M561.4,212.4L561.4,212.4
			c-0.8,1-1.8,1.5-3.2,1.5c-1.3,0-2.3-0.4-3.1-1.3c-0.7-0.9-1.1-2.2-1.1-3.8s0.4-2.9,1.1-3.8c0.7-0.9,1.7-1.4,3-1.4
			c1.4,0,2.4,0.5,3.1,1.5h0.1l-0.1-0.7l0-0.7v-4.1h1.5v14.2h-1.2L561.4,212.4z M558.4,212.7c1,0,1.8-0.3,2.2-0.8
			c0.5-0.6,0.7-1.5,0.7-2.7v-0.3c0-1.4-0.2-2.4-0.7-3s-1.2-0.9-2.3-0.9c-0.9,0-1.6,0.3-2,1c-0.5,0.7-0.7,1.7-0.7,2.9
			c0,1.3,0.2,2.3,0.7,2.9C556.8,212.4,557.5,212.7,558.4,212.7z M570.3,214c-1.5,0-2.6-0.4-3.5-1.3c-0.9-0.9-1.3-2.2-1.3-3.8
			c0-1.6,0.4-2.9,1.2-3.8c0.8-0.9,1.9-1.4,3.2-1.4c1.3,0,2.3,0.4,3,1.2c0.7,0.8,1.1,1.9,1.1,3.3v1h-6.9c0,1.2,0.3,2.1,0.9,2.7
			s1.4,0.9,2.4,0.9c1.1,0,2.1-0.2,3.2-0.7v1.3c-0.5,0.2-1,0.4-1.5,0.5C571.5,213.9,570.9,214,570.3,214z M569.9,204.9
			c-0.8,0-1.4,0.3-1.9,0.8c-0.5,0.5-0.7,1.2-0.8,2.2h5.2c0-0.9-0.2-1.7-0.6-2.2C571.3,205.1,570.6,204.9,569.9,204.9z M581.1,203.6
			c0.4,0,0.8,0,1.2,0.1l-0.2,1.4c-0.4-0.1-0.8-0.1-1.1-0.1c-0.8,0-1.5,0.3-2.1,1c-0.6,0.7-0.9,1.5-0.9,2.5v5.4h-1.5v-10h1.2l0.2,1.8
			h0.1c0.4-0.6,0.8-1.1,1.3-1.5C579.9,203.8,580.4,203.6,581.1,203.6z M583.9,212.8c0-0.4,0.1-0.7,0.3-0.9c0.2-0.2,0.5-0.3,0.8-0.3
			c0.4,0,0.6,0.1,0.8,0.3s0.3,0.5,0.3,0.9c0,0.4-0.1,0.7-0.3,0.9c-0.2,0.2-0.5,0.3-0.8,0.3c-0.3,0-0.6-0.1-0.8-0.3
			C584,213.6,583.9,213.2,583.9,212.8z"/>
		<g>
			<g transform="matrix(1.0 0.0 0.0 1.0 2.0 0.0)">
				<g id="g5ee48bce74_0_0.6">
					<path class="st2" d="M498.3,264.8H684v195.8H498.3V264.8z"/>
					<g transform="matrix(0.1670459317585302 0.0 0.0 0.1670475065616798 496.273962992126 264.8186834645669)">
						<g>
							<defs>
								<rect id="SVGID_11_" x="475.1" y="488.1" width="185.8" height="195.8"/>
							</defs>
							<clipPath id="SVGID_12_">
								<use xlink:href="#SVGID_11_"  style="overflow:visible;"/>
							</clipPath>
							<g style="clip-path:url(#SVGID_12_);enable-background:new    ;">
								
									<image style="overflow:visible;" width="1112" height="1172" xlink:href="D639FB5E.gif"  transform="matrix(1 0 0 1 11.9728 0)">
								</image>
							</g>
						</g>
					</g>
				</g>
			</g>
		</g>
		<g>
			<path class="st2" d="M496.3,264.8H682v195.8H496.3V264.8z"/>
			<g transform="matrix(0.1670459317585302 0.0 0.0 0.1670475065616798 496.273962992126 264.8186834645669)">
				<g>
					<defs>
						<rect id="SVGID_13_" x="463.1" y="488.1" width="185.8" height="195.8"/>
					</defs>
					<clipPath id="SVGID_14_">
						<use xlink:href="#SVGID_13_"  style="overflow:visible;"/>
					</clipPath>
					
						<image style="overflow:visible;clip-path:url(#SVGID_14_);enable-background:new    ;" width="1112" height="1172" xlink:href="D639FB5A.gif" >
					</image>
				</g>
			</g>
		</g>
		<path class="st2" d="M618,106.8h251.6V159H618V106.8z"/>
		<path class="st3" d="M642.4,138.9h-2v-8.1h-9v8.1h-2v-17.1h2v7.3h9v-7.3h2V138.9z M648.7,138.9h-2V126h2V138.9z M646.6,122.6
			c0-0.4,0.1-0.8,0.3-1c0.2-0.2,0.5-0.3,0.8-0.3c0.3,0,0.6,0.1,0.8,0.3c0.2,0.2,0.3,0.5,0.3,1s-0.1,0.8-0.3,1
			c-0.2,0.2-0.5,0.3-0.8,0.3c-0.3,0-0.6-0.1-0.8-0.3C646.7,123.3,646.6,123,646.6,122.6z M663.4,126v1.2l-2.4,0.3
			c0.2,0.3,0.4,0.6,0.6,1.1c0.2,0.4,0.3,0.9,0.3,1.5c0,1.3-0.4,2.3-1.3,3c-0.9,0.8-2,1.1-3.5,1.1c-0.4,0-0.7,0-1.1-0.1
			c-0.8,0.4-1.3,1-1.3,1.6c0,0.4,0.1,0.6,0.4,0.8c0.3,0.2,0.8,0.3,1.5,0.3h2.3c1.4,0,2.4,0.3,3.2,0.9c0.8,0.6,1.1,1.4,1.1,2.5
			c0,1.4-0.6,2.5-1.7,3.3c-1.1,0.8-2.8,1.1-5,1.1c-1.7,0-3-0.3-3.9-0.9c-0.9-0.6-1.4-1.5-1.4-2.6c0-0.8,0.3-1.5,0.8-2
			c0.5-0.6,1.2-1,2.1-1.2c-0.3-0.1-0.6-0.4-0.8-0.7c-0.2-0.3-0.3-0.7-0.3-1.1c0-0.5,0.1-0.9,0.4-1.2c0.3-0.4,0.6-0.7,1.2-1
			c-0.7-0.3-1.2-0.7-1.6-1.4s-0.6-1.4-0.6-2.3c0-1.4,0.4-2.5,1.3-3.3c0.8-0.8,2-1.1,3.6-1.1c0.7,0,1.3,0.1,1.8,0.2H663.4z
			 M653.1,141c0,0.7,0.3,1.2,0.9,1.6c0.6,0.4,1.4,0.5,2.5,0.5c1.6,0,2.8-0.2,3.6-0.7c0.8-0.5,1.2-1.2,1.2-2c0-0.7-0.2-1.2-0.6-1.5
			c-0.4-0.3-1.2-0.4-2.4-0.4h-2.3c-0.9,0-1.6,0.2-2.1,0.6C653.4,139.6,653.1,140.2,653.1,141z M654.2,130.1c0,0.9,0.3,1.6,0.8,2
			c0.5,0.5,1.2,0.7,2.1,0.7c1.9,0,2.9-0.9,2.9-2.8c0-1.9-1-2.9-2.9-2.9c-0.9,0-1.6,0.2-2.1,0.7C654.4,128.4,654.2,129.2,654.2,130.1
			z M674.8,138.9v-8.3c0-1-0.2-1.8-0.7-2.3c-0.5-0.5-1.2-0.8-2.2-0.8c-1.4,0-2.3,0.4-3,1.1c-0.6,0.7-0.9,1.9-0.9,3.6v6.7h-2v-18.2h2
			v5.5c0,0.7,0,1.2-0.1,1.7h0.1c0.4-0.6,0.9-1.1,1.6-1.5c0.7-0.4,1.5-0.5,2.4-0.5c1.6,0,2.7,0.4,3.5,1.1c0.8,0.8,1.2,1.9,1.2,3.6
			v8.4H674.8z M679.7,133.3v-1.8h5.8v1.8H679.7z M688.8,138.9v-17.1h2v17.1H688.8z M704,138.9v-8.3c0-1-0.2-1.8-0.7-2.3
			c-0.5-0.5-1.2-0.8-2.2-0.8c-1.3,0-2.3,0.4-3,1.1c-0.6,0.7-0.9,1.9-0.9,3.6v6.7h-2V126h1.6l0.3,1.8h0.1c0.4-0.6,1-1.1,1.7-1.5
			c0.7-0.4,1.5-0.5,2.4-0.5c1.5,0,2.7,0.4,3.5,1.1c0.8,0.7,1.2,1.9,1.2,3.6v8.4H704z M714,137.5c0.3,0,0.7,0,1-0.1
			c0.3-0.1,0.6-0.1,0.8-0.2v1.5c-0.2,0.1-0.5,0.2-0.9,0.3c-0.4,0.1-0.8,0.1-1.1,0.1c-2.5,0-3.7-1.3-3.7-3.9v-7.6h-1.8v-0.9l1.8-0.8
			l0.8-2.8h1.1v3h3.7v1.5H712v7.5c0,0.8,0.2,1.4,0.5,1.8C712.9,137.3,713.4,137.5,714,137.5z M723.8,139.1c-1.9,0-3.4-0.6-4.5-1.7
			c-1.1-1.2-1.6-2.8-1.6-4.8c0-2.1,0.5-3.7,1.5-4.9c1-1.2,2.4-1.8,4.1-1.8c1.6,0,2.9,0.5,3.8,1.6c0.9,1.1,1.4,2.4,1.4,4.2v1.2h-8.9
			c0,1.5,0.4,2.7,1.1,3.4c0.7,0.8,1.7,1.2,3.1,1.2c1.4,0,2.7-0.3,4.1-0.9v1.7c-0.7,0.3-1.3,0.5-2,0.6
			C725.4,139,724.7,139.1,723.8,139.1z M723.3,127.4c-1,0-1.9,0.3-2.5,1c-0.6,0.7-1,1.6-1.1,2.8h6.7c0-1.2-0.3-2.2-0.8-2.8
			C725.1,127.8,724.3,127.4,723.3,127.4z M740.6,138.9v-8.3c0-1-0.2-1.8-0.7-2.3c-0.5-0.5-1.2-0.8-2.2-0.8c-1.3,0-2.3,0.4-3,1.1
			c-0.6,0.7-0.9,1.9-0.9,3.6v6.7h-2V126h1.6l0.3,1.8h0.1c0.4-0.6,1-1.1,1.7-1.5c0.7-0.4,1.5-0.5,2.4-0.5c1.5,0,2.7,0.4,3.5,1.1
			c0.8,0.7,1.2,1.9,1.2,3.6v8.4H740.6z M754.8,135.4c0,1.2-0.4,2.1-1.3,2.8c-0.9,0.6-2.1,1-3.7,1c-1.7,0-3-0.3-4-0.8v-1.8
			c0.6,0.3,1.3,0.6,2,0.7c0.7,0.2,1.4,0.3,2,0.3c1,0,1.8-0.2,2.3-0.5c0.6-0.3,0.8-0.8,0.8-1.5c0-0.5-0.2-0.9-0.7-1.3
			c-0.4-0.4-1.3-0.8-2.5-1.3c-1.2-0.4-2-0.8-2.5-1.2c-0.5-0.3-0.9-0.7-1.1-1.1c-0.2-0.4-0.4-0.9-0.4-1.5c0-1.1,0.4-1.9,1.3-2.5
			c0.9-0.6,2-0.9,3.5-0.9c1.4,0,2.7,0.3,4,0.8l-0.7,1.6c-1.3-0.5-2.5-0.8-3.5-0.8c-0.9,0-1.6,0.1-2.1,0.4c-0.5,0.3-0.7,0.7-0.7,1.2
			c0,0.3,0.1,0.6,0.3,0.9c0.2,0.2,0.5,0.5,0.8,0.7c0.4,0.2,1.1,0.5,2.3,1c1.5,0.6,2.6,1.1,3.1,1.7
			C754.6,133.8,754.8,134.5,754.8,135.4z M760,138.9h-2V126h2V138.9z M757.9,122.6c0-0.4,0.1-0.8,0.3-1c0.2-0.2,0.5-0.3,0.8-0.3
			c0.3,0,0.6,0.1,0.8,0.3c0.2,0.2,0.3,0.5,0.3,1c0,0.4-0.1,0.8-0.3,1c-0.2,0.2-0.5,0.3-0.8,0.3c-0.3,0-0.6-0.1-0.8-0.3
			C758,123.3,757.9,123,757.9,122.6z M768.2,137.5c0.3,0,0.7,0,1-0.1c0.3-0.1,0.6-0.1,0.8-0.2v1.5c-0.2,0.1-0.5,0.2-0.9,0.3
			c-0.4,0.1-0.8,0.1-1.1,0.1c-2.5,0-3.7-1.3-3.7-3.9v-7.6h-1.8v-0.9l1.8-0.8l0.8-2.8h1.1v3h3.7v1.5h-3.7v7.5c0,0.8,0.2,1.4,0.5,1.8
			C767.1,137.3,767.6,137.5,768.2,137.5z M770.5,126h2.1l2.8,7.3c0.6,1.7,1,2.9,1.2,3.6h0.1c0.1-0.4,0.3-1.1,0.6-2
			c0.3-1,1.4-3.9,3.2-8.9h2.1l-5.5,14.6c-0.5,1.4-1.2,2.5-1.9,3.1c-0.7,0.6-1.6,0.9-2.7,0.9c-0.6,0-1.2-0.1-1.8-0.2v-1.5
			c0.4,0.1,0.9,0.1,1.4,0.1c1.3,0,2.3-0.8,2.9-2.3l0.7-1.8L770.5,126z"/>
		<path class="st3" d="M634.3,187.8l-3.2-10.5h-0.1c0.1,2.1,0.2,3.5,0.2,4.3v6.2h-2.5v-13.3h3.8l3.2,10.2h0.1l3.3-10.2h3.9v13.3
			h-2.6v-6.3c0-0.3,0-0.6,0-1c0-0.4,0.1-1.4,0.1-3.1h-0.1l-3.4,10.4H634.3z M648.3,182.6c0,1,0.2,1.8,0.5,2.3
			c0.3,0.5,0.9,0.8,1.6,0.8s1.3-0.3,1.6-0.8c0.3-0.5,0.5-1.3,0.5-2.3s-0.2-1.8-0.5-2.3c-0.3-0.5-0.9-0.8-1.6-0.8
			c-0.7,0-1.3,0.3-1.6,0.8C648.5,180.9,648.3,181.6,648.3,182.6z M655.3,182.6c0,1.7-0.4,3-1.3,3.9s-2.1,1.4-3.7,1.4
			c-1,0-1.8-0.2-2.6-0.6c-0.7-0.4-1.3-1.1-1.7-1.8c-0.4-0.8-0.6-1.7-0.6-2.8c0-1.7,0.4-3,1.3-3.9c0.9-0.9,2.1-1.4,3.7-1.4
			c1,0,1.8,0.2,2.6,0.6s1.3,1,1.7,1.8C655.1,180.6,655.3,181.6,655.3,182.6z M660,187.8l-3.9-10.2h2.9l2,5.8
			c0.2,0.7,0.4,1.4,0.4,2.1h0.1c0-0.6,0.2-1.3,0.4-2.1l2-5.8h2.9l-3.9,10.2H660z M672.5,179.4c-0.6,0-1,0.2-1.4,0.6
			c-0.3,0.4-0.5,0.9-0.6,1.6h3.9c0-0.7-0.2-1.2-0.5-1.6S673,179.4,672.5,179.4z M672.8,187.9c-1.6,0-2.9-0.5-3.8-1.4
			c-0.9-0.9-1.4-2.2-1.4-3.8c0-1.7,0.4-3,1.3-4c0.9-0.9,2-1.4,3.5-1.4c1.4,0,2.6,0.4,3.4,1.2c0.8,0.8,1.2,1.9,1.2,3.4v1.3h-6.6
			c0,0.8,0.3,1.4,0.7,1.9c0.4,0.4,1,0.7,1.8,0.7c0.6,0,1.2-0.1,1.7-0.2c0.6-0.1,1.1-0.3,1.7-0.6v2.2c-0.5,0.2-1,0.4-1.5,0.5
			C674.3,187.9,673.6,187.9,672.8,187.9z M688.4,187.8h-2.8v-6c0-0.7-0.1-1.3-0.4-1.6c-0.2-0.4-0.6-0.6-1.2-0.6
			c-0.7,0-1.2,0.3-1.5,0.8c-0.3,0.5-0.5,1.4-0.5,2.6v4.8h-2.8v-10.2h2.1l0.4,1.3h0.2c0.3-0.5,0.7-0.8,1.2-1.1
			c0.5-0.3,1.1-0.4,1.8-0.4c1.5,0,2.6,0.5,3.1,1.5h0.2c0.3-0.5,0.7-0.8,1.2-1.1c0.5-0.3,1.1-0.4,1.8-0.4c1.2,0,2,0.3,2.6,0.9
			c0.6,0.6,0.9,1.5,0.9,2.8v6.6h-2.8v-6c0-0.7-0.1-1.3-0.4-1.6c-0.2-0.4-0.6-0.6-1.2-0.6c-0.7,0-1.2,0.2-1.5,0.7
			c-0.3,0.5-0.5,1.3-0.5,2.3V187.8z M701.8,179.4c-0.6,0-1,0.2-1.4,0.6c-0.3,0.4-0.5,0.9-0.6,1.6h3.9c0-0.7-0.2-1.2-0.5-1.6
			S702.4,179.4,701.8,179.4z M702.2,187.9c-1.6,0-2.9-0.5-3.8-1.4c-0.9-0.9-1.4-2.2-1.4-3.8c0-1.7,0.4-3,1.3-4
			c0.9-0.9,2-1.4,3.5-1.4c1.4,0,2.6,0.4,3.4,1.2c0.8,0.8,1.2,1.9,1.2,3.4v1.3h-6.6c0,0.8,0.3,1.4,0.7,1.9c0.4,0.4,1,0.7,1.8,0.7
			c0.6,0,1.2-0.1,1.7-0.2c0.6-0.1,1.1-0.3,1.7-0.6v2.2c-0.5,0.2-1,0.4-1.5,0.5C703.7,187.9,703,187.9,702.2,187.9z M718,187.8h-2.8
			v-6c0-0.7-0.1-1.3-0.4-1.6c-0.3-0.4-0.7-0.6-1.3-0.6c-0.8,0-1.3,0.3-1.7,0.8c-0.3,0.5-0.5,1.4-0.5,2.6v4.8h-2.8v-10.2h2.1l0.4,1.3
			h0.2c0.3-0.5,0.7-0.9,1.3-1.1s1.2-0.4,1.8-0.4c1.2,0,2.1,0.3,2.7,1c0.6,0.6,0.9,1.6,0.9,2.8V187.8z M725.2,185.7
			c0.5,0,1.1-0.1,1.8-0.3v2.1c-0.7,0.3-1.5,0.5-2.5,0.5c-1.1,0-1.9-0.3-2.4-0.8c-0.5-0.6-0.8-1.4-0.8-2.5v-4.9h-1.3v-1.2l1.5-0.9
			l0.8-2.2h1.8v2.2h2.9v2.1h-2.9v4.9c0,0.4,0.1,0.7,0.3,0.9C724.5,185.6,724.8,185.7,725.2,185.7z M740.3,187.8l-0.5-1.4h-0.1
			c-0.5,0.6-1,1-1.5,1.2c-0.5,0.2-1.1,0.3-1.9,0.3c-1,0-1.8-0.3-2.3-0.8s-0.8-1.4-0.8-2.4c0-1.1,0.4-1.9,1.1-2.4
			c0.8-0.5,1.9-0.8,3.4-0.8l1.8-0.1V181c0-1-0.5-1.5-1.6-1.5c-0.8,0-1.8,0.2-2.9,0.7l-0.9-1.9c1.2-0.6,2.5-0.9,3.9-0.9
			c1.4,0,2.4,0.3,3.1,0.9c0.7,0.6,1.1,1.5,1.1,2.7v6.8H740.3z M739.5,183l-1.1,0c-0.8,0-1.4,0.2-1.8,0.5c-0.4,0.3-0.6,0.7-0.6,1.2
			c0,0.8,0.4,1.2,1.3,1.2c0.6,0,1.2-0.2,1.5-0.5c0.4-0.4,0.6-0.9,0.6-1.5V183z M754.5,187.8h-2.8v-6c0-0.7-0.1-1.3-0.4-1.6
			c-0.3-0.4-0.7-0.6-1.3-0.6c-0.8,0-1.3,0.3-1.7,0.8c-0.3,0.5-0.5,1.4-0.5,2.6v4.8h-2.8v-10.2h2.1l0.4,1.3h0.2
			c0.3-0.5,0.7-0.9,1.3-1.1c0.5-0.3,1.2-0.4,1.8-0.4c1.2,0,2.1,0.3,2.7,1c0.6,0.6,0.9,1.6,0.9,2.8V187.8z M760.6,187.9
			c-1.2,0-2.1-0.5-2.8-1.4c-0.7-0.9-1-2.2-1-3.9c0-1.7,0.3-3,1-3.9c0.7-0.9,1.7-1.4,2.9-1.4c1.3,0,2.3,0.5,2.9,1.5h0.1
			c-0.1-0.8-0.2-1.4-0.2-2v-3.3h2.8v14.2h-2.1l-0.5-1.3h-0.1C762.8,187.4,761.9,187.9,760.6,187.9z M761.5,185.7
			c0.7,0,1.2-0.2,1.6-0.6c0.3-0.4,0.5-1.1,0.5-2.1v-0.3c0-1.1-0.2-1.9-0.5-2.3c-0.3-0.5-0.9-0.7-1.6-0.7c-0.6,0-1.1,0.3-1.4,0.8
			s-0.5,1.3-0.5,2.3c0,1,0.2,1.8,0.5,2.3S760.9,185.7,761.5,185.7z M778.1,187.9c-3.2,0-4.8-1.7-4.8-5.2c0-1.7,0.4-3.1,1.3-4
			c0.9-0.9,2.1-1.4,3.7-1.4c1.2,0,2.2,0.2,3.2,0.7l-0.8,2.2c-0.4-0.2-0.8-0.3-1.2-0.4s-0.8-0.2-1.1-0.2c-1.4,0-2.2,1-2.2,3.1
			c0,2,0.7,3,2.2,3c0.5,0,1-0.1,1.5-0.2c0.5-0.1,0.9-0.4,1.4-0.7v2.4c-0.4,0.3-0.9,0.5-1.4,0.6C779.4,187.9,778.8,187.9,778.1,187.9
			z M785.8,182.6c0,1,0.2,1.8,0.5,2.3c0.3,0.5,0.9,0.8,1.6,0.8c0.7,0,1.3-0.3,1.6-0.8c0.3-0.5,0.5-1.3,0.5-2.3s-0.2-1.8-0.5-2.3
			c-0.3-0.5-0.9-0.8-1.6-0.8c-0.7,0-1.3,0.3-1.6,0.8C786,180.9,785.8,181.6,785.8,182.6z M792.8,182.6c0,1.7-0.4,3-1.3,3.9
			s-2.1,1.4-3.7,1.4c-1,0-1.8-0.2-2.6-0.6c-0.7-0.4-1.3-1.1-1.7-1.8c-0.4-0.8-0.6-1.7-0.6-2.8c0-1.7,0.4-3,1.3-3.9
			c0.9-0.9,2.1-1.4,3.7-1.4c1,0,1.8,0.2,2.6,0.6s1.3,1,1.7,1.8C792.6,180.6,792.8,181.6,792.8,182.6z M797.9,187.8h-2.8v-14.2h2.8
			V187.8z M803,182.6c0,1,0.2,1.8,0.5,2.3c0.3,0.5,0.9,0.8,1.6,0.8c0.7,0,1.3-0.3,1.6-0.8c0.3-0.5,0.5-1.3,0.5-2.3s-0.2-1.8-0.5-2.3
			c-0.3-0.5-0.9-0.8-1.6-0.8c-0.7,0-1.3,0.3-1.6,0.8C803.2,180.9,803,181.6,803,182.6z M810.1,182.6c0,1.7-0.4,3-1.3,3.9
			s-2.1,1.4-3.7,1.4c-1,0-1.8-0.2-2.6-0.6c-0.7-0.4-1.3-1.1-1.7-1.8c-0.4-0.8-0.6-1.7-0.6-2.8c0-1.7,0.4-3,1.3-3.9
			c0.9-0.9,2.1-1.4,3.7-1.4c1,0,1.8,0.2,2.6,0.6s1.3,1,1.7,1.8C809.9,180.6,810.1,181.6,810.1,182.6z M818.1,177.4
			c0.4,0,0.7,0,0.9,0.1l-0.2,2.6c-0.2-0.1-0.5-0.1-0.8-0.1c-0.9,0-1.6,0.2-2.1,0.7c-0.5,0.5-0.7,1.1-0.7,1.9v5.2h-2.8v-10.2h2.1
			l0.4,1.7h0.1c0.3-0.6,0.7-1,1.3-1.4C816.8,177.6,817.4,177.4,818.1,177.4z"/>
		<path class="st3" d="M635.4,212.4L635.4,212.4c-0.8,1-1.8,1.5-3.2,1.5c-1.3,0-2.3-0.4-3.1-1.3c-0.7-0.9-1.1-2.2-1.1-3.8
			s0.4-2.9,1.1-3.8c0.7-0.9,1.7-1.4,3-1.4c1.4,0,2.4,0.5,3.1,1.5h0.1l-0.1-0.7l0-0.7v-4.1h1.5v14.2h-1.2L635.4,212.4z M632.4,212.7
			c1,0,1.8-0.3,2.2-0.8c0.5-0.6,0.7-1.5,0.7-2.7v-0.3c0-1.4-0.2-2.4-0.7-3s-1.2-0.9-2.3-0.9c-0.9,0-1.6,0.3-2,1
			c-0.5,0.7-0.7,1.7-0.7,2.9c0,1.3,0.2,2.3,0.7,2.9C630.8,212.4,631.5,212.7,632.4,212.7z M644.6,203.6c0.4,0,0.8,0,1.2,0.1
			l-0.2,1.4c-0.4-0.1-0.8-0.1-1.1-0.1c-0.8,0-1.5,0.3-2.1,1c-0.6,0.7-0.9,1.5-0.9,2.5v5.4h-1.5v-10h1.2l0.2,1.8h0.1
			c0.4-0.6,0.8-1.1,1.3-1.5C643.4,203.8,644,203.6,644.6,203.6z M653.8,213.8l-0.3-1.4h-0.1c-0.5,0.6-1,1.1-1.5,1.3
			c-0.5,0.2-1.1,0.3-1.8,0.3c-1,0-1.8-0.3-2.3-0.8s-0.8-1.2-0.8-2.2c0-2,1.6-3.1,4.8-3.2l1.7,0v-0.6c0-0.8-0.2-1.4-0.5-1.7
			c-0.3-0.4-0.9-0.6-1.6-0.6c-0.8,0-1.8,0.3-2.8,0.8l-0.5-1.2c0.5-0.3,1-0.5,1.6-0.6c0.6-0.2,1.2-0.2,1.8-0.2c1.2,0,2.1,0.3,2.6,0.8
			c0.6,0.5,0.9,1.4,0.9,2.5v6.8H653.8z M650.4,212.7c0.9,0,1.7-0.3,2.2-0.8c0.5-0.5,0.8-1.3,0.8-2.2v-0.9l-1.5,0.1
			c-1.2,0-2.1,0.2-2.6,0.6c-0.5,0.3-0.8,0.8-0.8,1.5c0,0.5,0.2,1,0.5,1.3C649.3,212.6,649.8,212.7,650.4,212.7z M666.2,213.8
			l-1.8-5.9c-0.1-0.4-0.3-1.2-0.6-2.4h-0.1c-0.2,1.1-0.5,1.9-0.6,2.5l-1.9,5.8h-1.8l-2.7-10h1.6c0.6,2.5,1.1,4.4,1.5,5.7
			s0.5,2.2,0.6,2.6h0.1c0.1-0.3,0.2-0.8,0.3-1.3c0.2-0.6,0.3-1,0.4-1.3l1.8-5.7h1.6l1.8,5.7c0.3,1,0.6,1.9,0.7,2.6h0.1
			c0-0.2,0.1-0.6,0.2-1c0.1-0.5,0.7-2.9,1.9-7.4h1.6l-2.8,10H666.2z M683.6,213.8l-0.3-1.4h-0.1c-0.5,0.6-1,1.1-1.5,1.3
			c-0.5,0.2-1.1,0.3-1.8,0.3c-1,0-1.8-0.3-2.3-0.8s-0.8-1.2-0.8-2.2c0-2,1.6-3.1,4.8-3.2l1.7,0v-0.6c0-0.8-0.2-1.4-0.5-1.7
			c-0.3-0.4-0.9-0.6-1.6-0.6c-0.8,0-1.8,0.3-2.8,0.8l-0.5-1.2c0.5-0.3,1-0.5,1.6-0.6c0.6-0.2,1.2-0.2,1.8-0.2c1.2,0,2.1,0.3,2.6,0.8
			c0.6,0.5,0.9,1.4,0.9,2.5v6.8H683.6z M680.1,212.7c0.9,0,1.7-0.3,2.2-0.8c0.5-0.5,0.8-1.3,0.8-2.2v-0.9l-1.5,0.1
			c-1.2,0-2.1,0.2-2.6,0.6c-0.5,0.3-0.8,0.8-0.8,1.5c0,0.5,0.2,1,0.5,1.3C679.1,212.6,679.5,212.7,680.1,212.7z M691,212.7
			c0.3,0,0.5,0,0.8-0.1c0.3,0,0.4-0.1,0.6-0.1v1.2c-0.2,0.1-0.4,0.2-0.7,0.2s-0.6,0.1-0.9,0.1c-1.9,0-2.9-1-2.9-3.1v-5.9h-1.4v-0.7
			l1.4-0.6l0.6-2.1h0.9v2.3h2.9v1.2h-2.9v5.9c0,0.6,0.1,1.1,0.4,1.4C690.1,212.5,690.5,212.7,691,212.7z M697.6,212.7
			c0.3,0,0.5,0,0.8-0.1c0.3,0,0.4-0.1,0.6-0.1v1.2c-0.2,0.1-0.4,0.2-0.7,0.2c-0.3,0.1-0.6,0.1-0.9,0.1c-1.9,0-2.9-1-2.9-3.1v-5.9
			h-1.4v-0.7l1.4-0.6l0.6-2.1h0.9v2.3h2.9v1.2H696v5.9c0,0.6,0.1,1.1,0.4,1.4C696.7,212.5,697.1,212.7,697.6,212.7z M705.2,213.9
			c-1.5,0-2.6-0.4-3.5-1.3c-0.9-0.9-1.3-2.2-1.3-3.8c0-1.6,0.4-2.9,1.2-3.8c0.8-0.9,1.9-1.4,3.2-1.4c1.3,0,2.3,0.4,3,1.2
			c0.7,0.8,1.1,1.9,1.1,3.3v1H702c0,1.2,0.3,2.1,0.9,2.7s1.4,0.9,2.4,0.9c1.1,0,2.1-0.2,3.2-0.7v1.3c-0.5,0.2-1,0.4-1.5,0.5
			C706.4,213.9,705.9,213.9,705.2,213.9z M704.8,204.9c-0.8,0-1.4,0.3-1.9,0.8c-0.5,0.5-0.7,1.2-0.8,2.2h5.2c0-0.9-0.2-1.7-0.6-2.2
			C706.2,205.1,705.6,204.9,704.8,204.9z M718.3,213.8v-6.5c0-0.8-0.2-1.4-0.6-1.8c-0.4-0.4-0.9-0.6-1.7-0.6c-1,0-1.8,0.3-2.3,0.8
			c-0.5,0.6-0.7,1.5-0.7,2.8v5.2h-1.5v-10h1.2l0.3,1.4h0.1c0.3-0.5,0.7-0.9,1.3-1.1s1.2-0.4,1.9-0.4c1.2,0,2.1,0.3,2.7,0.9
			c0.6,0.6,0.9,1.5,0.9,2.8v6.5H718.3z M726.1,212.7c0.3,0,0.5,0,0.8-0.1c0.3,0,0.4-0.1,0.6-0.1v1.2c-0.2,0.1-0.4,0.2-0.7,0.2
			c-0.3,0.1-0.6,0.1-0.9,0.1c-1.9,0-2.9-1-2.9-3.1v-5.9h-1.4v-0.7l1.4-0.6l0.6-2.1h0.9v2.3h2.9v1.2h-2.9v5.9c0,0.6,0.1,1.1,0.4,1.4
			C725.2,212.5,725.6,212.7,726.1,212.7z M731,213.8h-1.5v-10h1.5V213.8z M729.3,201.1c0-0.3,0.1-0.6,0.3-0.8
			c0.2-0.2,0.4-0.3,0.7-0.3c0.2,0,0.4,0.1,0.6,0.3c0.2,0.2,0.3,0.4,0.3,0.8c0,0.3-0.1,0.6-0.3,0.8c-0.2,0.2-0.4,0.3-0.6,0.3
			c-0.3,0-0.5-0.1-0.7-0.3C729.4,201.7,729.3,201.4,729.3,201.1z M742.8,208.8c0,1.6-0.4,2.9-1.2,3.8c-0.8,0.9-1.9,1.4-3.4,1.4
			c-0.9,0-1.7-0.2-2.4-0.6c-0.7-0.4-1.2-1-1.6-1.8c-0.4-0.8-0.6-1.7-0.6-2.8c0-1.6,0.4-2.9,1.2-3.8c0.8-0.9,1.9-1.4,3.4-1.4
			c1.4,0,2.5,0.5,3.3,1.4C742.4,205.9,742.8,207.2,742.8,208.8z M735.2,208.8c0,1.3,0.3,2.2,0.8,2.9c0.5,0.7,1.3,1,2.3,1
			c1,0,1.7-0.3,2.3-1c0.5-0.7,0.8-1.6,0.8-2.9c0-1.3-0.3-2.2-0.8-2.9c-0.5-0.7-1.3-1-2.3-1c-1,0-1.7,0.3-2.3,1
			C735.4,206.5,735.2,207.5,735.2,208.8z M752.3,213.8v-6.5c0-0.8-0.2-1.4-0.6-1.8c-0.4-0.4-0.9-0.6-1.7-0.6c-1,0-1.8,0.3-2.3,0.8
			s-0.7,1.5-0.7,2.8v5.2h-1.5v-10h1.2l0.3,1.4h0.1c0.3-0.5,0.7-0.9,1.3-1.1s1.2-0.4,1.9-0.4c1.2,0,2.1,0.3,2.7,0.9
			c0.6,0.6,0.9,1.5,0.9,2.8v6.5H752.3z M765,212.7c0.3,0,0.5,0,0.8-0.1c0.3,0,0.4-0.1,0.6-0.1v1.2c-0.2,0.1-0.4,0.2-0.7,0.2
			s-0.6,0.1-0.9,0.1c-1.9,0-2.9-1-2.9-3.1v-5.9h-1.4v-0.7l1.4-0.6l0.6-2.1h0.9v2.3h2.9v1.2h-2.9v5.9c0,0.6,0.1,1.1,0.4,1.4
			C764.1,212.5,764.5,212.7,765,212.7z M776.9,208.8c0,1.6-0.4,2.9-1.2,3.8c-0.8,0.9-1.9,1.4-3.4,1.4c-0.9,0-1.7-0.2-2.4-0.6
			c-0.7-0.4-1.2-1-1.6-1.8s-0.6-1.7-0.6-2.8c0-1.6,0.4-2.9,1.2-3.8c0.8-0.9,1.9-1.4,3.4-1.4c1.4,0,2.5,0.5,3.3,1.4
			C776.5,205.9,776.9,207.2,776.9,208.8z M769.3,208.8c0,1.3,0.3,2.2,0.8,2.9c0.5,0.7,1.3,1,2.3,1s1.7-0.3,2.3-1
			c0.5-0.7,0.8-1.6,0.8-2.9c0-1.3-0.3-2.2-0.8-2.9c-0.5-0.7-1.3-1-2.3-1c-1,0-1.7,0.3-2.3,1C769.6,206.5,769.3,207.5,769.3,208.8z
			 M787.7,212.7c0.3,0,0.5,0,0.8-0.1c0.3,0,0.4-0.1,0.6-0.1v1.2c-0.2,0.1-0.4,0.2-0.7,0.2c-0.3,0.1-0.6,0.1-0.9,0.1
			c-1.9,0-2.9-1-2.9-3.1v-5.9h-1.4v-0.7l1.4-0.6l0.6-2.1h0.9v2.3h2.9v1.2h-2.9v5.9c0,0.6,0.1,1.1,0.4,1.4
			C786.8,212.5,787.2,212.7,787.7,212.7z M797.9,213.8v-6.5c0-0.8-0.2-1.4-0.6-1.8c-0.4-0.4-0.9-0.6-1.7-0.6c-1.1,0-1.8,0.3-2.3,0.9
			c-0.5,0.6-0.7,1.5-0.7,2.8v5.2H791v-14.2h1.5v4.3c0,0.5,0,1-0.1,1.3h0.1c0.3-0.5,0.7-0.9,1.3-1.1c0.6-0.3,1.2-0.4,1.9-0.4
			c1.2,0,2.1,0.3,2.8,0.9c0.6,0.6,0.9,1.5,0.9,2.8v6.5H797.9z M806.7,213.9c-1.5,0-2.6-0.4-3.5-1.3c-0.9-0.9-1.3-2.2-1.3-3.8
			c0-1.6,0.4-2.9,1.2-3.8c0.8-0.9,1.9-1.4,3.2-1.4c1.3,0,2.3,0.4,3,1.2c0.7,0.8,1.1,1.9,1.1,3.3v1h-6.9c0,1.2,0.3,2.1,0.9,2.7
			c0.6,0.6,1.4,0.9,2.4,0.9c1.1,0,2.1-0.2,3.2-0.7v1.3c-0.5,0.2-1,0.4-1.5,0.5C807.9,213.9,807.4,213.9,806.7,213.9z M806.3,204.9
			c-0.8,0-1.4,0.3-1.9,0.8c-0.5,0.5-0.7,1.2-0.8,2.2h5.2c0-0.9-0.2-1.7-0.6-2.2C807.7,205.1,807.1,204.9,806.3,204.9z"/>
		<path class="st3" d="M633.3,239.9c-0.6,0-1.2-0.1-1.8-0.4s-1-0.6-1.4-1.1H630c0.1,0.6,0.1,1.1,0.1,1.7v4.1h-1.5v-14.5h1.2l0.2,1.4
			h0.1c0.4-0.5,0.8-0.9,1.4-1.2c0.5-0.3,1.1-0.4,1.8-0.4c1.3,0,2.3,0.5,3.1,1.4s1.1,2.2,1.1,3.8s-0.4,2.9-1.1,3.8
			C635.6,239.5,634.6,239.9,633.3,239.9z M633.1,230.9c-1,0-1.8,0.3-2.2,0.8c-0.4,0.6-0.7,1.5-0.7,2.7v0.3c0,1.4,0.2,2.4,0.7,3
			s1.2,0.9,2.3,0.9c0.9,0,1.5-0.3,2-1s0.7-1.7,0.7-2.9c0-1.3-0.2-2.2-0.7-2.9C634.6,231.2,633.9,230.9,633.1,230.9z M644.3,239.9
			c-1.5,0-2.6-0.4-3.5-1.3c-0.9-0.9-1.3-2.2-1.3-3.8c0-1.6,0.4-2.9,1.2-3.8c0.8-0.9,1.9-1.4,3.2-1.4c1.3,0,2.3,0.4,3,1.2
			c0.7,0.8,1.1,1.9,1.1,3.3v1h-6.9c0,1.2,0.3,2.1,0.9,2.7s1.4,0.9,2.4,0.9c1.1,0,2.1-0.2,3.2-0.7v1.3c-0.5,0.2-1,0.4-1.5,0.5
			C645.5,239.9,645,239.9,644.3,239.9z M643.9,230.9c-0.8,0-1.4,0.3-1.9,0.8c-0.5,0.5-0.7,1.2-0.8,2.2h5.2c0-0.9-0.2-1.7-0.6-2.2
			C645.3,231.1,644.7,230.9,643.9,230.9z M655.1,229.6c0.4,0,0.8,0,1.2,0.1l-0.2,1.4c-0.4-0.1-0.8-0.1-1.1-0.1c-0.8,0-1.5,0.3-2.1,1
			c-0.6,0.7-0.9,1.5-0.9,2.5v5.4h-1.5v-10h1.2l0.2,1.8h0.1c0.4-0.6,0.8-1.1,1.3-1.5C653.9,229.8,654.5,229.6,655.1,229.6z
			 M659.7,239.8h-1.5v-10h1.5V239.8z M658,227.1c0-0.3,0.1-0.6,0.3-0.8c0.2-0.2,0.4-0.3,0.7-0.3c0.2,0,0.4,0.1,0.6,0.3
			c0.2,0.2,0.3,0.4,0.3,0.8s-0.1,0.6-0.3,0.8s-0.4,0.3-0.6,0.3c-0.3,0-0.5-0.1-0.7-0.3C658.1,227.7,658,227.4,658,227.1z
			 M667.5,239.9c-0.6,0-1.2-0.1-1.8-0.4s-1-0.6-1.4-1.1h-0.1c0.1,0.6,0.1,1.1,0.1,1.7v4.1h-1.5v-14.5h1.2l0.2,1.4h0.1
			c0.4-0.5,0.8-0.9,1.4-1.2c0.5-0.3,1.1-0.4,1.8-0.4c1.3,0,2.3,0.5,3.1,1.4s1.1,2.2,1.1,3.8s-0.4,2.9-1.1,3.8
			C669.8,239.5,668.8,239.9,667.5,239.9z M667.3,230.9c-1,0-1.8,0.3-2.2,0.8c-0.4,0.6-0.7,1.5-0.7,2.7v0.3c0,1.4,0.2,2.4,0.7,3
			s1.2,0.9,2.3,0.9c0.9,0,1.5-0.3,2-1s0.7-1.7,0.7-2.9c0-1.3-0.2-2.2-0.7-2.9C668.9,231.2,668.2,230.9,667.3,230.9z M681.1,239.8
			v-6.5c0-0.8-0.2-1.4-0.6-1.8c-0.4-0.4-0.9-0.6-1.7-0.6c-1.1,0-1.8,0.3-2.3,0.9c-0.5,0.6-0.7,1.5-0.7,2.8v5.2h-1.5v-14.2h1.5v4.3
			c0,0.5,0,1-0.1,1.3h0.1c0.3-0.5,0.7-0.9,1.3-1.1c0.6-0.3,1.2-0.4,1.9-0.4c1.2,0,2.1,0.3,2.8,0.9c0.6,0.6,0.9,1.5,0.9,2.8v6.5
			H681.1z M690,239.9c-1.5,0-2.6-0.4-3.5-1.3c-0.9-0.9-1.3-2.2-1.3-3.8c0-1.6,0.4-2.9,1.2-3.8s1.9-1.4,3.2-1.4c1.3,0,2.3,0.4,3,1.2
			c0.7,0.8,1.1,1.9,1.1,3.3v1h-6.9c0,1.2,0.3,2.1,0.9,2.7s1.4,0.9,2.4,0.9c1.1,0,2.1-0.2,3.2-0.7v1.3c-0.5,0.2-1,0.4-1.5,0.5
			S690.6,239.9,690,239.9z M689.5,230.9c-0.8,0-1.4,0.3-1.9,0.8c-0.5,0.5-0.7,1.2-0.8,2.2h5.2c0-0.9-0.2-1.7-0.6-2.2
			S690.3,230.9,689.5,230.9z M700.8,229.6c0.4,0,0.8,0,1.2,0.1l-0.2,1.4c-0.4-0.1-0.8-0.1-1.1-0.1c-0.8,0-1.5,0.3-2.1,1
			c-0.6,0.7-0.9,1.5-0.9,2.5v5.4h-1.5v-10h1.2l0.2,1.8h0.1c0.4-0.6,0.8-1.1,1.3-1.5S700.1,229.6,700.8,229.6z M702.2,229.8h1.6
			l2.2,5.7c0.5,1.3,0.8,2.2,0.9,2.8h0.1c0.1-0.3,0.2-0.8,0.5-1.6c0.3-0.8,1.1-3.1,2.5-6.9h1.6l-4.3,11.4c-0.4,1.1-0.9,1.9-1.5,2.4
			c-0.6,0.5-1.3,0.7-2.1,0.7c-0.5,0-0.9-0.1-1.4-0.2v-1.2c0.3,0.1,0.7,0.1,1.1,0.1c1,0,1.8-0.6,2.2-1.8l0.6-1.4L702.2,229.8z
			 M713,238.8c0-0.4,0.1-0.7,0.3-0.9c0.2-0.2,0.5-0.3,0.8-0.3c0.4,0,0.6,0.1,0.8,0.3c0.2,0.2,0.3,0.5,0.3,0.9c0,0.4-0.1,0.7-0.3,0.9
			c-0.2,0.2-0.5,0.3-0.8,0.3c-0.3,0-0.6-0.1-0.8-0.3C713.1,239.5,713,239.2,713,238.8z"/>
		<g>
			<g transform="matrix(1.0 0.0 0.0 1.0 2.0 0.0)">
				<g id="g5ee48bce74_0_0.8">
					<path class="st2" d="M701.6,264.8h146.6v195.8H701.6V264.8z"/>
					<g transform="matrix(0.31136553115137605 0.0 0.0 0.3113732262859194 676.5572694998654 215.13048002045397)">
						<g>
							<defs>
								<rect id="SVGID_15_" x="242.5" y="376.1" width="146.6" height="195.8"/>
							</defs>
							<clipPath id="SVGID_16_">
								<use xlink:href="#SVGID_15_"  style="overflow:visible;"/>
							</clipPath>
							<g style="clip-path:url(#SVGID_16_);enable-background:new    ;">
								
									<image style="overflow:visible;" width="669" height="888" xlink:href="D639FB5A.gif"  transform="matrix(1 0 0 1 6.4233 0)">
								</image>
							</g>
						</g>
					</g>
				</g>
			</g>
		</g>
		<g>
			<path class="st2" d="M699.6,264.8h146.6v195.8H699.6V264.8z"/>
			<g transform="matrix(0.31136553115137605 0.0 0.0 0.3113732262859194 676.5572694998654 215.13048002045397)">
				<g>
					<defs>
						<rect id="SVGID_17_" x="236" y="376.1" width="146.6" height="195.8"/>
					</defs>
					<clipPath id="SVGID_18_">
						<use xlink:href="#SVGID_17_"  style="overflow:visible;"/>
					</clipPath>
					
						<image style="overflow:visible;clip-path:url(#SVGID_18_);enable-background:new    ;" width="669" height="888" xlink:href="D639FB56.gif" >
					</image>
				</g>
			</g>
		</g>
		<path class="st2" d="M44.1,480.2h136.3V514H44.1V480.2z"/>
		<path d="M54.9,507.1v-13.3h1.5v11.9h5.9v1.4H54.9z M73,502.1c0,1.6-0.4,2.9-1.2,3.8c-0.8,0.9-1.9,1.4-3.4,1.4
			c-0.9,0-1.7-0.2-2.4-0.6c-0.7-0.4-1.2-1-1.6-1.8s-0.6-1.7-0.6-2.8c0-1.6,0.4-2.9,1.2-3.8c0.8-0.9,1.9-1.4,3.4-1.4
			c1.4,0,2.5,0.5,3.3,1.4C72.5,499.3,73,500.5,73,502.1z M65.4,502.1c0,1.3,0.3,2.2,0.8,2.9c0.5,0.7,1.3,1,2.3,1s1.7-0.3,2.3-1
			c0.5-0.7,0.8-1.6,0.8-2.9c0-1.3-0.3-2.2-0.8-2.9c-0.5-0.7-1.3-1-2.3-1c-1,0-1.7,0.3-2.3,1C65.6,499.8,65.4,500.8,65.4,502.1z
			 M83.8,507.1l-1.8-5.9c-0.1-0.4-0.3-1.2-0.6-2.4h-0.1c-0.2,1.1-0.5,1.9-0.6,2.5l-1.9,5.8h-1.8l-2.7-10h1.6
			c0.6,2.5,1.1,4.4,1.5,5.7s0.5,2.2,0.6,2.6h0.1c0.1-0.3,0.2-0.8,0.3-1.3c0.2-0.6,0.3-1,0.4-1.3l1.8-5.7h1.6l1.8,5.7
			c0.3,1,0.6,1.9,0.7,2.6h0.1c0-0.2,0.1-0.6,0.2-1c0.1-0.5,0.7-2.9,1.9-7.4h1.6l-2.8,10H83.8z M95.2,507.1v-13.3h1.5v13.3H95.2z
			 M107,507.1v-6.5c0-0.8-0.2-1.4-0.6-1.8c-0.4-0.4-0.9-0.6-1.7-0.6c-1,0-1.8,0.3-2.3,0.8c-0.5,0.6-0.7,1.5-0.7,2.8v5.2h-1.5v-10
			h1.2l0.3,1.4h0.1c0.3-0.5,0.7-0.9,1.3-1.1c0.6-0.3,1.2-0.4,1.9-0.4c1.2,0,2.1,0.3,2.7,0.9c0.6,0.6,0.9,1.5,0.9,2.8v6.5H107z
			 M114.8,506c0.3,0,0.5,0,0.8-0.1c0.3,0,0.4-0.1,0.6-0.1v1.2c-0.2,0.1-0.4,0.2-0.7,0.2c-0.3,0.1-0.6,0.1-0.9,0.1
			c-1.9,0-2.9-1-2.9-3.1v-5.9h-1.4v-0.7l1.4-0.6l0.6-2.1h0.9v2.3h2.9v1.2h-2.9v5.9c0,0.6,0.1,1.1,0.4,1.4
			C114,505.9,114.3,506,114.8,506z M122.4,507.3c-1.5,0-2.6-0.4-3.5-1.3c-0.9-0.9-1.3-2.2-1.3-3.8c0-1.6,0.4-2.9,1.2-3.8
			c0.8-0.9,1.9-1.4,3.2-1.4c1.3,0,2.3,0.4,3,1.2c0.7,0.8,1.1,1.9,1.1,3.3v1h-6.9c0,1.2,0.3,2.1,0.9,2.7c0.6,0.6,1.4,0.9,2.4,0.9
			c1.1,0,2.1-0.2,3.2-0.7v1.3c-0.5,0.2-1,0.4-1.5,0.5C123.7,507.2,123.1,507.3,122.4,507.3z M122,498.2c-0.8,0-1.4,0.3-1.9,0.8
			c-0.5,0.5-0.7,1.2-0.8,2.2h5.2c0-0.9-0.2-1.7-0.6-2.2C123.4,498.5,122.8,498.2,122,498.2z M135.5,507.1v-6.5
			c0-0.8-0.2-1.4-0.6-1.8c-0.4-0.4-0.9-0.6-1.7-0.6c-1,0-1.8,0.3-2.3,0.8s-0.7,1.5-0.7,2.8v5.2h-1.5v-10h1.2l0.3,1.4h0.1
			c0.3-0.5,0.7-0.9,1.3-1.1c0.6-0.3,1.2-0.4,1.9-0.4c1.2,0,2.1,0.3,2.7,0.9c0.6,0.6,0.9,1.5,0.9,2.8v6.5H135.5z M146.6,504.4
			c0,0.9-0.3,1.6-1,2.2c-0.7,0.5-1.7,0.8-2.9,0.8c-1.3,0-2.4-0.2-3.1-0.6v-1.4c0.5,0.2,1,0.4,1.5,0.6c0.6,0.1,1.1,0.2,1.6,0.2
			c0.8,0,1.4-0.1,1.8-0.4c0.4-0.3,0.6-0.6,0.6-1.2c0-0.4-0.2-0.7-0.5-1c-0.3-0.3-1-0.6-2-1c-0.9-0.3-1.6-0.6-2-0.9
			c-0.4-0.3-0.7-0.6-0.9-0.9c-0.2-0.3-0.3-0.7-0.3-1.2c0-0.8,0.3-1.5,1-1.9c0.7-0.5,1.6-0.7,2.7-0.7c1.1,0,2.1,0.2,3.1,0.7l-0.5,1.2
			c-1-0.4-1.9-0.6-2.7-0.6c-0.7,0-1.3,0.1-1.6,0.3c-0.4,0.2-0.5,0.5-0.5,0.9c0,0.3,0.1,0.5,0.2,0.7c0.1,0.2,0.4,0.4,0.7,0.5
			c0.3,0.2,0.9,0.4,1.8,0.7c1.2,0.4,2,0.9,2.4,1.3C146.4,503.2,146.6,503.7,146.6,504.4z M150.5,507.1H149v-10h1.5V507.1z
			 M148.9,494.4c0-0.3,0.1-0.6,0.3-0.8c0.2-0.2,0.4-0.3,0.7-0.3c0.2,0,0.4,0.1,0.6,0.3c0.2,0.2,0.3,0.4,0.3,0.8s-0.1,0.6-0.3,0.8
			c-0.2,0.2-0.4,0.3-0.6,0.3c-0.3,0-0.5-0.1-0.7-0.3C149,495,148.9,494.8,148.9,494.4z M157,506c0.3,0,0.5,0,0.8-0.1
			c0.3,0,0.4-0.1,0.6-0.1v1.2c-0.2,0.1-0.4,0.2-0.7,0.2c-0.3,0.1-0.6,0.1-0.9,0.1c-1.9,0-2.9-1-2.9-3.1v-5.9h-1.4v-0.7l1.4-0.6
			l0.6-2.1h0.9v2.3h2.9v1.2h-2.9v5.9c0,0.6,0.1,1.1,0.4,1.4C156.1,505.9,156.5,506,157,506z M158.7,497.1h1.6l2.2,5.7
			c0.5,1.3,0.8,2.2,0.9,2.8h0.1c0.1-0.3,0.2-0.8,0.5-1.6c0.3-0.8,1.1-3.1,2.5-6.9h1.6l-4.3,11.4c-0.4,1.1-0.9,1.9-1.5,2.4
			c-0.6,0.5-1.3,0.7-2.1,0.7c-0.5,0-0.9-0.1-1.4-0.2v-1.2c0.3,0.1,0.7,0.1,1.1,0.1c1,0,1.8-0.6,2.2-1.8l0.6-1.4L158.7,497.1z"/>
		<path class="st2" d="M780.7,480.2h146.6V514H780.7V480.2z"/>
		<path d="M801.6,507.1h-1.5v-6.3h-7v6.3h-1.5v-13.3h1.5v5.7h7v-5.7h1.5V507.1z M806.6,507.1h-1.5v-10h1.5V507.1z M804.9,494.4
			c0-0.3,0.1-0.6,0.3-0.8c0.2-0.2,0.4-0.2,0.7-0.3c0.2,0,0.4,0.1,0.6,0.3c0.2,0.2,0.3,0.4,0.3,0.8c0,0.3-0.1,0.6-0.3,0.8
			c-0.2,0.2-0.4,0.3-0.6,0.3c-0.3,0-0.5-0.1-0.7-0.3C805,495,804.9,494.8,804.9,494.4z M818,497.1v1l-1.9,0.2
			c0.2,0.2,0.3,0.5,0.5,0.8c0.1,0.3,0.2,0.7,0.2,1.2c0,1-0.3,1.8-1,2.3c-0.7,0.6-1.6,0.9-2.8,0.9c-0.3,0-0.6,0-0.8-0.1
			c-0.6,0.3-1,0.8-1,1.3c0,0.3,0.1,0.5,0.3,0.6c0.2,0.1,0.6,0.2,1.2,0.2h1.8c1.1,0,1.9,0.2,2.5,0.7c0.6,0.4,0.9,1.1,0.9,2
			c0,1.1-0.4,1.9-1.3,2.5c-0.9,0.6-2.2,0.9-3.9,0.9c-1.3,0-2.3-0.2-3-0.7c-0.7-0.5-1.1-1.2-1.1-2.1c0-0.6,0.2-1.1,0.6-1.6
			c0.4-0.4,0.9-0.7,1.6-0.9c-0.3-0.1-0.5-0.3-0.6-0.5c-0.2-0.2-0.3-0.5-0.3-0.9c0-0.4,0.1-0.7,0.3-1c0.2-0.3,0.5-0.5,0.9-0.8
			c-0.5-0.2-0.9-0.6-1.3-1.1c-0.3-0.5-0.5-1.1-0.5-1.8c0-1.1,0.3-1.9,1-2.5c0.7-0.6,1.6-0.9,2.8-0.9c0.5,0,1,0.1,1.4,0.2H818z
			 M810,508.8c0,0.5,0.2,1,0.7,1.2c0.5,0.3,1.1,0.4,2,0.4c1.3,0,2.2-0.2,2.8-0.6c0.6-0.4,0.9-0.9,0.9-1.5c0-0.5-0.2-0.9-0.5-1.1
			c-0.3-0.2-1-0.3-1.9-0.3h-1.8c-0.7,0-1.2,0.2-1.6,0.5C810.2,507.7,810,508.2,810,508.8z M810.8,500.3c0,0.7,0.2,1.2,0.6,1.6
			c0.4,0.4,0.9,0.5,1.7,0.5c1.5,0,2.2-0.7,2.2-2.1c0-1.5-0.8-2.2-2.3-2.3c-0.7,0-1.3,0.2-1.6,0.6C811,499,810.8,499.6,810.8,500.3z
			 M826.8,507.1v-6.5c0-0.8-0.2-1.4-0.6-1.8c-0.4-0.4-0.9-0.6-1.7-0.6c-1.1,0-1.8,0.3-2.3,0.9c-0.5,0.6-0.7,1.5-0.7,2.8v5.2H820
			v-14.2h1.5v4.3c0,0.5,0,1-0.1,1.3h0.1c0.3-0.5,0.7-0.9,1.3-1.1c0.6-0.3,1.2-0.4,1.9-0.4c1.2,0,2.1,0.3,2.8,0.9
			c0.6,0.6,0.9,1.5,0.9,2.8v6.5H826.8z M836.5,507.1v-13.3h1.5v13.3H836.5z M848.3,507.1v-6.5c0-0.8-0.2-1.4-0.6-1.8
			c-0.4-0.4-0.9-0.6-1.7-0.6c-1,0-1.8,0.3-2.3,0.8c-0.5,0.6-0.7,1.5-0.7,2.8v5.2h-1.5v-10h1.2l0.3,1.4h0.1c0.3-0.5,0.7-0.9,1.3-1.1
			c0.6-0.3,1.2-0.4,1.9-0.4c1.2,0,2.1,0.3,2.7,0.9c0.6,0.6,0.9,1.5,0.9,2.8v6.5H848.3z M856.2,506c0.3,0,0.5,0,0.8-0.1
			c0.3,0,0.4-0.1,0.6-0.1v1.2c-0.2,0.1-0.4,0.2-0.7,0.2c-0.3,0.1-0.6,0.1-0.9,0.1c-1.9,0-2.9-1-2.9-3.1v-5.9h-1.4v-0.7l1.4-0.6
			l0.6-2.1h0.9v2.3h2.9v1.2h-2.9v5.9c0,0.6,0.1,1.1,0.4,1.4C855.3,505.9,855.7,506,856.2,506z M863.8,507.3c-1.5,0-2.6-0.4-3.5-1.3
			c-0.9-0.9-1.3-2.2-1.3-3.8c0-1.6,0.4-2.9,1.2-3.8c0.8-0.9,1.9-1.4,3.2-1.4c1.3,0,2.3,0.4,3,1.2c0.7,0.8,1.1,1.9,1.1,3.3v1h-6.9
			c0,1.2,0.3,2.1,0.9,2.7c0.6,0.6,1.4,0.9,2.4,0.9c1.1,0,2.1-0.2,3.2-0.7v1.3c-0.5,0.2-1,0.4-1.5,0.5
			C865,507.2,864.4,507.3,863.8,507.3z M863.3,498.2c-0.8,0-1.4,0.3-1.9,0.8c-0.5,0.5-0.7,1.2-0.8,2.2h5.2c0-0.9-0.2-1.7-0.6-2.2
			C864.7,498.5,864.1,498.2,863.3,498.2z M876.8,507.1v-6.5c0-0.8-0.2-1.4-0.6-1.8c-0.4-0.4-0.9-0.6-1.7-0.6c-1,0-1.8,0.3-2.3,0.8
			c-0.5,0.6-0.7,1.5-0.7,2.8v5.2H870v-10h1.2l0.3,1.4h0.1c0.3-0.5,0.7-0.9,1.3-1.1c0.6-0.3,1.2-0.4,1.9-0.4c1.2,0,2.1,0.3,2.7,0.9
			c0.6,0.6,0.9,1.5,0.9,2.8v6.5H876.8z M887.9,504.4c0,0.9-0.3,1.6-1,2.2c-0.7,0.5-1.7,0.8-2.9,0.8c-1.3,0-2.4-0.2-3.1-0.6v-1.4
			c0.5,0.2,1,0.4,1.5,0.6c0.6,0.1,1.1,0.2,1.6,0.2c0.8,0,1.4-0.1,1.8-0.4c0.4-0.3,0.6-0.6,0.6-1.2c0-0.4-0.2-0.7-0.5-1
			c-0.3-0.3-1-0.6-2-1c-0.9-0.3-1.6-0.6-2-0.9c-0.4-0.3-0.7-0.6-0.9-0.9c-0.2-0.3-0.3-0.7-0.3-1.2c0-0.8,0.3-1.5,1-1.9
			c0.7-0.5,1.6-0.7,2.7-0.7c1.1,0,2.1,0.2,3.1,0.7l-0.5,1.2c-1-0.4-1.9-0.6-2.7-0.6c-0.7,0-1.3,0.1-1.6,0.3
			c-0.4,0.2-0.5,0.5-0.5,0.9c0,0.3,0.1,0.5,0.2,0.7c0.1,0.2,0.4,0.4,0.7,0.5c0.3,0.2,0.9,0.4,1.8,0.7c1.2,0.4,2,0.9,2.4,1.3
			C887.7,503.2,887.9,503.7,887.9,504.4z M891.9,507.1h-1.5v-10h1.5V507.1z M890.2,494.4c0-0.3,0.1-0.6,0.3-0.8
			c0.2-0.2,0.4-0.2,0.7-0.3c0.2,0,0.4,0.1,0.6,0.3c0.2,0.2,0.3,0.4,0.3,0.8c0,0.3-0.1,0.6-0.3,0.8c-0.2,0.2-0.4,0.3-0.6,0.3
			c-0.3,0-0.5-0.1-0.7-0.3C890.3,495,890.2,494.8,890.2,494.4z M898.3,506c0.3,0,0.5,0,0.8-0.1c0.3,0,0.4-0.1,0.6-0.1v1.2
			c-0.2,0.1-0.4,0.2-0.7,0.2c-0.3,0.1-0.6,0.1-0.9,0.1c-1.9,0-2.9-1-2.9-3.1v-5.9h-1.4v-0.7l1.4-0.6l0.6-2.1h0.9v2.3h2.9v1.2h-2.9
			v5.9c0,0.6,0.1,1.1,0.4,1.4C897.4,505.9,897.8,506,898.3,506z M900.1,497.1h1.6l2.2,5.7c0.5,1.3,0.8,2.2,0.9,2.8h0.1
			c0.1-0.3,0.2-0.8,0.5-1.6c0.3-0.7,1.1-3.1,2.5-6.9h1.6l-4.3,11.4c-0.4,1.1-0.9,1.9-1.5,2.4c-0.6,0.5-1.3,0.7-2.1,0.7
			c-0.5,0-0.9-0.1-1.4-0.2v-1.2c0.3,0.1,0.7,0.1,1.1,0.1c1,0,1.8-0.6,2.2-1.8l0.6-1.4L900.1,497.1z"/>
		<path class="st2" d="M180.4,502.4h600.3"/>
		<path class="st4" d="M183.8,502.4h590.9"/>
		<path class="st5" d="M183.8,502.4l1.1-1.1l-3.1,1.1l3.1,1.1L183.8,502.4z"/>
		<path class="st5" d="M774.7,504l4.5-1.7l-4.5-1.7V504z"/>
	</g>
</g>
</svg>
