<svg width="239" height="70" viewBox="0 0 239 70" fill="none" xmlns="http://www.w3.org/2000/svg">
<g filter="url(#filter0_d)">
<path fill-rule="evenodd" clip-rule="evenodd" d="M35 0C21.1929 0 10 11.1929 10 25C10 38.8071 21.1929 50 35 50H204C217.807 50 229 38.8071 229 25C229 11.1929 217.807 0 204 0H35Z" fill="white"/>
<path d="M11.5 25C11.5 12.0213 22.0213 1.5 35 1.5H204C216.979 1.5 227.5 12.0213 227.5 25C227.5 37.9787 216.979 48.5 204 48.5H35C22.0213 48.5 11.5 37.9787 11.5 25Z" stroke="url(#paint0_linear)" stroke-width="3"/>
</g>
<path d="M83.8545 31.1685V19.7466H86.2764V31.1685H83.8545ZM98.6279 25.3481C98.6279 27.2284 98.0915 28.6685 97.0185 29.6685C95.9508 30.6685 94.4066 31.1685 92.3857 31.1685H89.1514V19.7466H92.7373C94.6019 19.7466 96.0498 20.2388 97.081 21.2231C98.1123 22.2075 98.6279 23.5825 98.6279 25.3481ZM96.1123 25.4106C96.1123 22.9575 95.029 21.731 92.8623 21.731H91.5732V29.1685H92.6123C94.9456 29.1685 96.1123 27.9159 96.1123 25.4106ZM107.573 31.1685H100.995V19.7466H107.573V21.731H103.417V24.2388H107.284V26.2231H103.417V29.1685H107.573V31.1685ZM116.956 31.1685L116.128 28.4497H111.964L111.136 31.1685H108.526L112.558 19.6997H115.519L119.565 31.1685H116.956ZM115.55 26.4185C114.784 23.9549 114.352 22.5617 114.253 22.2388C114.159 21.9159 114.091 21.6606 114.05 21.4731C113.878 22.1398 113.386 23.7882 112.573 26.4185H115.55ZM125.417 31.1685H122.995V21.7622H119.894V19.7466H128.519V21.7622H125.417V31.1685ZM130.276 31.1685V19.7466H132.698V31.1685H130.276ZM145.94 25.4419C145.94 27.3325 145.472 28.7856 144.534 29.8013C143.597 30.8169 142.253 31.3247 140.503 31.3247C138.753 31.3247 137.409 30.8169 136.472 29.8013C135.534 28.7856 135.065 27.3273 135.065 25.4263C135.065 23.5252 135.534 22.0747 136.472 21.0747C137.414 20.0695 138.763 19.5669 140.519 19.5669C142.274 19.5669 143.615 20.0721 144.542 21.0825C145.474 22.0929 145.94 23.5461 145.94 25.4419ZM137.604 25.4419C137.604 26.7179 137.847 27.6789 138.331 28.3247C138.815 28.9705 139.539 29.2935 140.503 29.2935C142.435 29.2935 143.401 28.0096 143.401 25.4419C143.401 22.869 142.44 21.5825 140.519 21.5825C139.555 21.5825 138.828 21.908 138.339 22.5591C137.849 23.2049 137.604 24.1659 137.604 25.4419ZM158.44 31.1685H155.362L150.394 22.5278H150.323C150.422 24.0539 150.472 25.1424 150.472 25.7935V31.1685H148.308V19.7466H151.362L156.323 28.3013H156.378C156.3 26.8169 156.261 25.7674 156.261 25.1528V19.7466H158.44V31.1685Z" fill="url(#paint1_linear)"/>
<path d="M83.8545 31.1685V19.7466H86.2764V31.1685H83.8545ZM98.6279 25.3481C98.6279 27.2284 98.0915 28.6685 97.0185 29.6685C95.9508 30.6685 94.4066 31.1685 92.3857 31.1685H89.1514V19.7466H92.7373C94.6019 19.7466 96.0498 20.2388 97.081 21.2231C98.1123 22.2075 98.6279 23.5825 98.6279 25.3481ZM96.1123 25.4106C96.1123 22.9575 95.029 21.731 92.8623 21.731H91.5732V29.1685H92.6123C94.9456 29.1685 96.1123 27.9159 96.1123 25.4106ZM107.573 31.1685H100.995V19.7466H107.573V21.731H103.417V24.2388H107.284V26.2231H103.417V29.1685H107.573V31.1685ZM116.956 31.1685L116.128 28.4497H111.964L111.136 31.1685H108.526L112.558 19.6997H115.519L119.565 31.1685H116.956ZM115.55 26.4185C114.784 23.9549 114.352 22.5617 114.253 22.2388C114.159 21.9159 114.091 21.6606 114.05 21.4731C113.878 22.1398 113.386 23.7882 112.573 26.4185H115.55ZM125.417 31.1685H122.995V21.7622H119.894V19.7466H128.519V21.7622H125.417V31.1685ZM130.276 31.1685V19.7466H132.698V31.1685H130.276ZM145.94 25.4419C145.94 27.3325 145.472 28.7856 144.534 29.8013C143.597 30.8169 142.253 31.3247 140.503 31.3247C138.753 31.3247 137.409 30.8169 136.472 29.8013C135.534 28.7856 135.065 27.3273 135.065 25.4263C135.065 23.5252 135.534 22.0747 136.472 21.0747C137.414 20.0695 138.763 19.5669 140.519 19.5669C142.274 19.5669 143.615 20.0721 144.542 21.0825C145.474 22.0929 145.94 23.5461 145.94 25.4419ZM137.604 25.4419C137.604 26.7179 137.847 27.6789 138.331 28.3247C138.815 28.9705 139.539 29.2935 140.503 29.2935C142.435 29.2935 143.401 28.0096 143.401 25.4419C143.401 22.869 142.44 21.5825 140.519 21.5825C139.555 21.5825 138.828 21.908 138.339 22.5591C137.849 23.2049 137.604 24.1659 137.604 25.4419ZM158.44 31.1685H155.362L150.394 22.5278H150.323C150.422 24.0539 150.472 25.1424 150.472 25.7935V31.1685H148.308V19.7466H151.362L156.323 28.3013H156.378C156.3 26.8169 156.261 25.7674 156.261 25.1528V19.7466H158.44V31.1685Z" fill="#3420AD"/>
<defs>
<filter id="filter0_d" x="0" y="0" width="239" height="70" filterUnits="userSpaceOnUse" color-interpolation-filters="sRGB">
<feFlood flood-opacity="0" result="BackgroundImageFix"/>
<feColorMatrix in="SourceAlpha" type="matrix" values="0 0 0 0 0 0 0 0 0 0 0 0 0 0 0 0 0 0 127 0"/>
<feOffset dy="10"/>
<feGaussianBlur stdDeviation="5"/>
<feColorMatrix type="matrix" values="0 0 0 0 1 0 0 0 0 1 0 0 0 0 1 0 0 0 0.1 0"/>
<feBlend mode="normal" in2="BackgroundImageFix" result="effect1_dropShadow"/>
<feBlend mode="normal" in="SourceGraphic" in2="effect1_dropShadow" result="shape"/>
</filter>
<linearGradient id="paint0_linear" x1="10" y1="25.4386" x2="229.328" y2="35.2319" gradientUnits="userSpaceOnUse">
<stop stop-color="#3420AD"/>
<stop offset="1" stop-color="#21B7B7"/>
</linearGradient>
<linearGradient id="paint1_linear" x1="62.2161" y1="3.83085" x2="151.915" y2="55.061" gradientUnits="userSpaceOnUse">
<stop stop-color="#CACAEA"/>
<stop offset="1" stop-color="#EE4266"/>
</linearGradient>
</defs>
</svg>
