<svg width="285" height="70" viewBox="0 0 285 70" fill="none" xmlns="http://www.w3.org/2000/svg">
<g filter="url(#filter0_d)">
<path fill-rule="evenodd" clip-rule="evenodd" d="M35 0C21.1929 0 10 11.1929 10 25C10 38.8071 21.1929 50 35 50H250C263.807 50 275 38.8071 275 25C275 11.1929 263.807 0 250 0H35Z" fill="white"/>
<path d="M11.5 25C11.5 12.0213 22.0213 1.5 35 1.5H250C262.979 1.5 273.5 12.0213 273.5 25C273.5 37.9787 262.979 48.5 250 48.5H35C22.0213 48.5 11.5 37.9787 11.5 25Z" stroke="#9477D1" stroke-width="3"/>
</g>
<path d="M67.5427 28.8281C67.5427 29.8594 67.1703 30.6719 66.4255 31.2656C65.686 31.8594 64.6547 32.1562 63.3318 32.1562C62.113 32.1562 61.0349 31.9271 60.0974 31.4688V29.2188C60.8682 29.5625 61.5193 29.8047 62.0505 29.9453C62.587 30.0859 63.0766 30.1562 63.5193 30.1562C64.0505 30.1562 64.4568 30.0547 64.738 29.8516C65.0245 29.6484 65.1677 29.3464 65.1677 28.9453C65.1677 28.7214 65.1052 28.5234 64.9802 28.3516C64.8552 28.1745 64.6703 28.0052 64.4255 27.8438C64.186 27.6823 63.6938 27.4245 62.949 27.0703C62.2511 26.7422 61.7276 26.4271 61.3787 26.125C61.0297 25.8229 60.7511 25.4714 60.5427 25.0703C60.3344 24.6693 60.2302 24.2005 60.2302 23.6641C60.2302 22.6536 60.5714 21.8594 61.2537 21.2812C61.9412 20.7031 62.8891 20.4141 64.0974 20.4141C64.6912 20.4141 65.2563 20.4844 65.7927 20.625C66.3344 20.7656 66.8995 20.9635 67.488 21.2188L66.7068 23.1016C66.0974 22.8516 65.5922 22.6771 65.1912 22.5781C64.7953 22.4792 64.4047 22.4297 64.0193 22.4297C63.561 22.4297 63.2094 22.5365 62.9646 22.75C62.7198 22.9635 62.5974 23.2422 62.5974 23.5859C62.5974 23.7995 62.6469 23.987 62.7458 24.1484C62.8448 24.3047 63.0011 24.4583 63.2146 24.6094C63.4333 24.7552 63.9464 25.0208 64.7537 25.4062C65.8214 25.9167 66.5531 26.4297 66.949 26.9453C67.3448 27.4557 67.5427 28.0833 67.5427 28.8281ZM76.1912 32H69.613V20.5781H76.1912V22.5625H72.0349V25.0703H75.9021V27.0547H72.0349V30H76.1912V32ZM85.1599 32H78.5818V20.5781H85.1599V22.5625H81.0037V25.0703H84.8708V27.0547H81.0037V30H85.1599V32ZM102.074 26.2734C102.074 28.1641 101.605 29.6172 100.668 30.6328C99.7302 31.6484 98.3865 32.1562 96.6365 32.1562C94.8865 32.1562 93.5427 31.6484 92.6052 30.6328C91.6677 29.6172 91.199 28.1589 91.199 26.2578C91.199 24.3568 91.6677 22.9062 92.6052 21.9062C93.5479 20.901 94.8969 20.3984 96.6521 20.3984C98.4073 20.3984 99.7485 20.9036 100.676 21.9141C101.608 22.9245 102.074 24.3776 102.074 26.2734ZM93.738 26.2734C93.738 27.5495 93.9802 28.5104 94.4646 29.1562C94.949 29.8021 95.6729 30.125 96.6365 30.125C98.5688 30.125 99.5349 28.8411 99.5349 26.2734C99.5349 23.7005 98.574 22.4141 96.6521 22.4141C95.6886 22.4141 94.962 22.7396 94.4724 23.3906C93.9828 24.0365 93.738 24.9974 93.738 26.2734ZM113.738 20.5781V27.9688C113.738 28.8125 113.548 29.5521 113.168 30.1875C112.793 30.8229 112.248 31.3099 111.535 31.6484C110.821 31.987 109.978 32.1562 109.004 32.1562C107.535 32.1562 106.394 31.7812 105.582 31.0312C104.769 30.276 104.363 29.2448 104.363 27.9375V20.5781H106.777V27.5703C106.777 28.4505 106.954 29.0964 107.308 29.5078C107.663 29.9193 108.248 30.125 109.066 30.125C109.858 30.125 110.431 29.9193 110.785 29.5078C111.144 29.0911 111.324 28.4401 111.324 27.5547V20.5781H113.738ZM118.957 25.6484H119.738C120.504 25.6484 121.069 25.5208 121.433 25.2656C121.798 25.0104 121.98 24.6094 121.98 24.0625C121.98 23.5208 121.793 23.1354 121.418 22.9062C121.048 22.6771 120.472 22.5625 119.691 22.5625H118.957V25.6484ZM118.957 27.6172V32H116.535V20.5781H119.863C121.415 20.5781 122.564 20.862 123.308 21.4297C124.053 21.9922 124.426 22.849 124.426 24C124.426 24.6719 124.241 25.2708 123.871 25.7969C123.501 26.3177 122.978 26.7266 122.301 27.0234C124.019 29.5911 125.139 31.25 125.66 32H122.972L120.246 27.6172H118.957ZM135.59 25.5859H140.121V31.5078C139.386 31.7474 138.694 31.9141 138.043 32.0078C137.397 32.1068 136.735 32.1562 136.058 32.1562C134.334 32.1562 133.017 31.651 132.105 30.6406C131.199 29.625 130.746 28.1693 130.746 26.2734C130.746 24.4297 131.272 22.9922 132.324 21.9609C133.381 20.9297 134.845 20.4141 136.715 20.4141C137.886 20.4141 139.017 20.6484 140.105 21.1172L139.301 23.0547C138.467 22.638 137.6 22.4297 136.699 22.4297C135.652 22.4297 134.814 22.7812 134.183 23.4844C133.553 24.1875 133.238 25.1328 133.238 26.3203C133.238 27.5599 133.491 28.5078 133.996 29.1641C134.506 29.8151 135.246 30.1406 136.215 30.1406C136.72 30.1406 137.233 30.0885 137.754 29.9844V27.6016H135.59V25.5859ZM152.144 20.5781V27.9688C152.144 28.8125 151.954 29.5521 151.574 30.1875C151.199 30.8229 150.655 31.3099 149.941 31.6484C149.228 31.987 148.384 32.1562 147.41 32.1562C145.941 32.1562 144.801 31.7812 143.988 31.0312C143.176 30.276 142.769 29.2448 142.769 27.9375V20.5781H145.183V27.5703C145.183 28.4505 145.36 29.0964 145.715 29.5078C146.069 29.9193 146.655 30.125 147.472 30.125C148.264 30.125 148.837 29.9193 149.191 29.5078C149.551 29.0911 149.73 28.4401 149.73 27.5547V20.5781H152.144ZM154.941 32V20.5781H157.363V32H154.941ZM169.715 26.1797C169.715 28.0599 169.178 29.5 168.105 30.5C167.038 31.5 165.493 32 163.472 32H160.238V20.5781H163.824C165.689 20.5781 167.136 21.0703 168.168 22.0547C169.199 23.0391 169.715 24.4141 169.715 26.1797ZM167.199 26.2422C167.199 23.7891 166.116 22.5625 163.949 22.5625H162.66V30H163.699C166.032 30 167.199 28.7474 167.199 26.2422ZM178.66 32H172.082V20.5781H178.66V22.5625H174.504V25.0703H178.371V27.0547H174.504V30H178.66V32ZM181.051 32V20.5781H183.472V30H188.105V32H181.051ZM190.097 32V20.5781H192.519V32H190.097ZM205.527 32H202.449L197.48 23.3594H197.41C197.509 24.8854 197.558 25.974 197.558 26.625V32H195.394V20.5781H198.449L203.41 29.1328H203.465C203.386 27.6484 203.347 26.599 203.347 25.9844V20.5781H205.527V32ZM214.988 32H208.41V20.5781H214.988V22.5625H210.832V25.0703H214.699V27.0547H210.832V30H214.988V32ZM224.121 28.8281C224.121 29.8594 223.748 30.6719 223.004 31.2656C222.264 31.8594 221.233 32.1562 219.91 32.1562C218.691 32.1562 217.613 31.9271 216.676 31.4688V29.2188C217.446 29.5625 218.097 29.8047 218.629 29.9453C219.165 30.0859 219.655 30.1562 220.097 30.1562C220.629 30.1562 221.035 30.0547 221.316 29.8516C221.603 29.6484 221.746 29.3464 221.746 28.9453C221.746 28.7214 221.683 28.5234 221.558 28.3516C221.433 28.1745 221.248 28.0052 221.004 27.8438C220.764 27.6823 220.272 27.4245 219.527 27.0703C218.829 26.7422 218.306 26.4271 217.957 26.125C217.608 25.8229 217.329 25.4714 217.121 25.0703C216.913 24.6693 216.808 24.2005 216.808 23.6641C216.808 22.6536 217.149 21.8594 217.832 21.2812C218.519 20.7031 219.467 20.4141 220.676 20.4141C221.269 20.4141 221.834 20.4844 222.371 20.625C222.913 20.7656 223.478 20.9635 224.066 21.2188L223.285 23.1016C222.676 22.8516 222.17 22.6771 221.769 22.5781C221.373 22.4792 220.983 22.4297 220.597 22.4297C220.139 22.4297 219.788 22.5365 219.543 22.75C219.298 22.9635 219.176 23.2422 219.176 23.5859C219.176 23.7995 219.225 23.987 219.324 24.1484C219.423 24.3047 219.579 24.4583 219.793 24.6094C220.011 24.7552 220.524 25.0208 221.332 25.4062C222.399 25.9167 223.131 26.4297 223.527 26.9453C223.923 27.4557 224.121 28.0833 224.121 28.8281Z" fill="url(#paint0_linear)"/>
<path d="M67.5427 28.8281C67.5427 29.8594 67.1703 30.6719 66.4255 31.2656C65.686 31.8594 64.6547 32.1562 63.3318 32.1562C62.113 32.1562 61.0349 31.9271 60.0974 31.4688V29.2188C60.8682 29.5625 61.5193 29.8047 62.0505 29.9453C62.587 30.0859 63.0766 30.1562 63.5193 30.1562C64.0505 30.1562 64.4568 30.0547 64.738 29.8516C65.0245 29.6484 65.1677 29.3464 65.1677 28.9453C65.1677 28.7214 65.1052 28.5234 64.9802 28.3516C64.8552 28.1745 64.6703 28.0052 64.4255 27.8438C64.186 27.6823 63.6938 27.4245 62.949 27.0703C62.2511 26.7422 61.7276 26.4271 61.3787 26.125C61.0297 25.8229 60.7511 25.4714 60.5427 25.0703C60.3344 24.6693 60.2302 24.2005 60.2302 23.6641C60.2302 22.6536 60.5714 21.8594 61.2537 21.2812C61.9412 20.7031 62.8891 20.4141 64.0974 20.4141C64.6912 20.4141 65.2563 20.4844 65.7927 20.625C66.3344 20.7656 66.8995 20.9635 67.488 21.2188L66.7068 23.1016C66.0974 22.8516 65.5922 22.6771 65.1912 22.5781C64.7953 22.4792 64.4047 22.4297 64.0193 22.4297C63.561 22.4297 63.2094 22.5365 62.9646 22.75C62.7198 22.9635 62.5974 23.2422 62.5974 23.5859C62.5974 23.7995 62.6469 23.987 62.7458 24.1484C62.8448 24.3047 63.0011 24.4583 63.2146 24.6094C63.4333 24.7552 63.9464 25.0208 64.7537 25.4062C65.8214 25.9167 66.5531 26.4297 66.949 26.9453C67.3448 27.4557 67.5427 28.0833 67.5427 28.8281ZM76.1912 32H69.613V20.5781H76.1912V22.5625H72.0349V25.0703H75.9021V27.0547H72.0349V30H76.1912V32ZM85.1599 32H78.5818V20.5781H85.1599V22.5625H81.0037V25.0703H84.8708V27.0547H81.0037V30H85.1599V32ZM102.074 26.2734C102.074 28.1641 101.605 29.6172 100.668 30.6328C99.7302 31.6484 98.3865 32.1562 96.6365 32.1562C94.8865 32.1562 93.5427 31.6484 92.6052 30.6328C91.6677 29.6172 91.199 28.1589 91.199 26.2578C91.199 24.3568 91.6677 22.9062 92.6052 21.9062C93.5479 20.901 94.8969 20.3984 96.6521 20.3984C98.4073 20.3984 99.7485 20.9036 100.676 21.9141C101.608 22.9245 102.074 24.3776 102.074 26.2734ZM93.738 26.2734C93.738 27.5495 93.9802 28.5104 94.4646 29.1562C94.949 29.8021 95.6729 30.125 96.6365 30.125C98.5688 30.125 99.5349 28.8411 99.5349 26.2734C99.5349 23.7005 98.574 22.4141 96.6521 22.4141C95.6886 22.4141 94.962 22.7396 94.4724 23.3906C93.9828 24.0365 93.738 24.9974 93.738 26.2734ZM113.738 20.5781V27.9688C113.738 28.8125 113.548 29.5521 113.168 30.1875C112.793 30.8229 112.248 31.3099 111.535 31.6484C110.821 31.987 109.978 32.1562 109.004 32.1562C107.535 32.1562 106.394 31.7812 105.582 31.0312C104.769 30.276 104.363 29.2448 104.363 27.9375V20.5781H106.777V27.5703C106.777 28.4505 106.954 29.0964 107.308 29.5078C107.663 29.9193 108.248 30.125 109.066 30.125C109.858 30.125 110.431 29.9193 110.785 29.5078C111.144 29.0911 111.324 28.4401 111.324 27.5547V20.5781H113.738ZM118.957 25.6484H119.738C120.504 25.6484 121.069 25.5208 121.433 25.2656C121.798 25.0104 121.98 24.6094 121.98 24.0625C121.98 23.5208 121.793 23.1354 121.418 22.9062C121.048 22.6771 120.472 22.5625 119.691 22.5625H118.957V25.6484ZM118.957 27.6172V32H116.535V20.5781H119.863C121.415 20.5781 122.564 20.862 123.308 21.4297C124.053 21.9922 124.426 22.849 124.426 24C124.426 24.6719 124.241 25.2708 123.871 25.7969C123.501 26.3177 122.978 26.7266 122.301 27.0234C124.019 29.5911 125.139 31.25 125.66 32H122.972L120.246 27.6172H118.957ZM135.59 25.5859H140.121V31.5078C139.386 31.7474 138.694 31.9141 138.043 32.0078C137.397 32.1068 136.735 32.1562 136.058 32.1562C134.334 32.1562 133.017 31.651 132.105 30.6406C131.199 29.625 130.746 28.1693 130.746 26.2734C130.746 24.4297 131.272 22.9922 132.324 21.9609C133.381 20.9297 134.845 20.4141 136.715 20.4141C137.886 20.4141 139.017 20.6484 140.105 21.1172L139.301 23.0547C138.467 22.638 137.6 22.4297 136.699 22.4297C135.652 22.4297 134.814 22.7812 134.183 23.4844C133.553 24.1875 133.238 25.1328 133.238 26.3203C133.238 27.5599 133.491 28.5078 133.996 29.1641C134.506 29.8151 135.246 30.1406 136.215 30.1406C136.72 30.1406 137.233 30.0885 137.754 29.9844V27.6016H135.59V25.5859ZM152.144 20.5781V27.9688C152.144 28.8125 151.954 29.5521 151.574 30.1875C151.199 30.8229 150.655 31.3099 149.941 31.6484C149.228 31.987 148.384 32.1562 147.41 32.1562C145.941 32.1562 144.801 31.7812 143.988 31.0312C143.176 30.276 142.769 29.2448 142.769 27.9375V20.5781H145.183V27.5703C145.183 28.4505 145.36 29.0964 145.715 29.5078C146.069 29.9193 146.655 30.125 147.472 30.125C148.264 30.125 148.837 29.9193 149.191 29.5078C149.551 29.0911 149.73 28.4401 149.73 27.5547V20.5781H152.144ZM154.941 32V20.5781H157.363V32H154.941ZM169.715 26.1797C169.715 28.0599 169.178 29.5 168.105 30.5C167.038 31.5 165.493 32 163.472 32H160.238V20.5781H163.824C165.689 20.5781 167.136 21.0703 168.168 22.0547C169.199 23.0391 169.715 24.4141 169.715 26.1797ZM167.199 26.2422C167.199 23.7891 166.116 22.5625 163.949 22.5625H162.66V30H163.699C166.032 30 167.199 28.7474 167.199 26.2422ZM178.66 32H172.082V20.5781H178.66V22.5625H174.504V25.0703H178.371V27.0547H174.504V30H178.66V32ZM181.051 32V20.5781H183.472V30H188.105V32H181.051ZM190.097 32V20.5781H192.519V32H190.097ZM205.527 32H202.449L197.48 23.3594H197.41C197.509 24.8854 197.558 25.974 197.558 26.625V32H195.394V20.5781H198.449L203.41 29.1328H203.465C203.386 27.6484 203.347 26.599 203.347 25.9844V20.5781H205.527V32ZM214.988 32H208.41V20.5781H214.988V22.5625H210.832V25.0703H214.699V27.0547H210.832V30H214.988V32ZM224.121 28.8281C224.121 29.8594 223.748 30.6719 223.004 31.2656C222.264 31.8594 221.233 32.1562 219.91 32.1562C218.691 32.1562 217.613 31.9271 216.676 31.4688V29.2188C217.446 29.5625 218.097 29.8047 218.629 29.9453C219.165 30.0859 219.655 30.1562 220.097 30.1562C220.629 30.1562 221.035 30.0547 221.316 29.8516C221.603 29.6484 221.746 29.3464 221.746 28.9453C221.746 28.7214 221.683 28.5234 221.558 28.3516C221.433 28.1745 221.248 28.0052 221.004 27.8438C220.764 27.6823 220.272 27.4245 219.527 27.0703C218.829 26.7422 218.306 26.4271 217.957 26.125C217.608 25.8229 217.329 25.4714 217.121 25.0703C216.913 24.6693 216.808 24.2005 216.808 23.6641C216.808 22.6536 217.149 21.8594 217.832 21.2812C218.519 20.7031 219.467 20.4141 220.676 20.4141C221.269 20.4141 221.834 20.4844 222.371 20.625C222.913 20.7656 223.478 20.9635 224.066 21.2188L223.285 23.1016C222.676 22.8516 222.17 22.6771 221.769 22.5781C221.373 22.4792 220.983 22.4297 220.597 22.4297C220.139 22.4297 219.788 22.5365 219.543 22.75C219.298 22.9635 219.176 23.2422 219.176 23.5859C219.176 23.7995 219.225 23.987 219.324 24.1484C219.423 24.3047 219.579 24.4583 219.793 24.6094C220.011 24.7552 220.524 25.0208 221.332 25.4062C222.399 25.9167 223.131 26.4297 223.527 26.9453C223.923 27.4557 224.121 28.0833 224.121 28.8281Z" fill="#3420AD"/>
<path d="M67.5427 28.8281C67.5427 29.8594 67.1703 30.6719 66.4255 31.2656C65.686 31.8594 64.6547 32.1562 63.3318 32.1562C62.113 32.1562 61.0349 31.9271 60.0974 31.4688V29.2188C60.8682 29.5625 61.5193 29.8047 62.0505 29.9453C62.587 30.0859 63.0766 30.1562 63.5193 30.1562C64.0505 30.1562 64.4568 30.0547 64.738 29.8516C65.0245 29.6484 65.1677 29.3464 65.1677 28.9453C65.1677 28.7214 65.1052 28.5234 64.9802 28.3516C64.8552 28.1745 64.6703 28.0052 64.4255 27.8438C64.186 27.6823 63.6938 27.4245 62.949 27.0703C62.2511 26.7422 61.7276 26.4271 61.3787 26.125C61.0297 25.8229 60.7511 25.4714 60.5427 25.0703C60.3344 24.6693 60.2302 24.2005 60.2302 23.6641C60.2302 22.6536 60.5714 21.8594 61.2537 21.2812C61.9412 20.7031 62.8891 20.4141 64.0974 20.4141C64.6912 20.4141 65.2563 20.4844 65.7927 20.625C66.3344 20.7656 66.8995 20.9635 67.488 21.2188L66.7068 23.1016C66.0974 22.8516 65.5922 22.6771 65.1912 22.5781C64.7953 22.4792 64.4047 22.4297 64.0193 22.4297C63.561 22.4297 63.2094 22.5365 62.9646 22.75C62.7198 22.9635 62.5974 23.2422 62.5974 23.5859C62.5974 23.7995 62.6469 23.987 62.7458 24.1484C62.8448 24.3047 63.0011 24.4583 63.2146 24.6094C63.4333 24.7552 63.9464 25.0208 64.7537 25.4062C65.8214 25.9167 66.5531 26.4297 66.949 26.9453C67.3448 27.4557 67.5427 28.0833 67.5427 28.8281ZM76.1912 32H69.613V20.5781H76.1912V22.5625H72.0349V25.0703H75.9021V27.0547H72.0349V30H76.1912V32ZM85.1599 32H78.5818V20.5781H85.1599V22.5625H81.0037V25.0703H84.8708V27.0547H81.0037V30H85.1599V32ZM102.074 26.2734C102.074 28.1641 101.605 29.6172 100.668 30.6328C99.7302 31.6484 98.3865 32.1562 96.6365 32.1562C94.8865 32.1562 93.5427 31.6484 92.6052 30.6328C91.6677 29.6172 91.199 28.1589 91.199 26.2578C91.199 24.3568 91.6677 22.9062 92.6052 21.9062C93.5479 20.901 94.8969 20.3984 96.6521 20.3984C98.4073 20.3984 99.7485 20.9036 100.676 21.9141C101.608 22.9245 102.074 24.3776 102.074 26.2734ZM93.738 26.2734C93.738 27.5495 93.9802 28.5104 94.4646 29.1562C94.949 29.8021 95.6729 30.125 96.6365 30.125C98.5688 30.125 99.5349 28.8411 99.5349 26.2734C99.5349 23.7005 98.574 22.4141 96.6521 22.4141C95.6886 22.4141 94.962 22.7396 94.4724 23.3906C93.9828 24.0365 93.738 24.9974 93.738 26.2734ZM113.738 20.5781V27.9688C113.738 28.8125 113.548 29.5521 113.168 30.1875C112.793 30.8229 112.248 31.3099 111.535 31.6484C110.821 31.987 109.978 32.1562 109.004 32.1562C107.535 32.1562 106.394 31.7812 105.582 31.0312C104.769 30.276 104.363 29.2448 104.363 27.9375V20.5781H106.777V27.5703C106.777 28.4505 106.954 29.0964 107.308 29.5078C107.663 29.9193 108.248 30.125 109.066 30.125C109.858 30.125 110.431 29.9193 110.785 29.5078C111.144 29.0911 111.324 28.4401 111.324 27.5547V20.5781H113.738ZM118.957 25.6484H119.738C120.504 25.6484 121.069 25.5208 121.433 25.2656C121.798 25.0104 121.98 24.6094 121.98 24.0625C121.98 23.5208 121.793 23.1354 121.418 22.9062C121.048 22.6771 120.472 22.5625 119.691 22.5625H118.957V25.6484ZM118.957 27.6172V32H116.535V20.5781H119.863C121.415 20.5781 122.564 20.862 123.308 21.4297C124.053 21.9922 124.426 22.849 124.426 24C124.426 24.6719 124.241 25.2708 123.871 25.7969C123.501 26.3177 122.978 26.7266 122.301 27.0234C124.019 29.5911 125.139 31.25 125.66 32H122.972L120.246 27.6172H118.957ZM135.59 25.5859H140.121V31.5078C139.386 31.7474 138.694 31.9141 138.043 32.0078C137.397 32.1068 136.735 32.1562 136.058 32.1562C134.334 32.1562 133.017 31.651 132.105 30.6406C131.199 29.625 130.746 28.1693 130.746 26.2734C130.746 24.4297 131.272 22.9922 132.324 21.9609C133.381 20.9297 134.845 20.4141 136.715 20.4141C137.886 20.4141 139.017 20.6484 140.105 21.1172L139.301 23.0547C138.467 22.638 137.6 22.4297 136.699 22.4297C135.652 22.4297 134.814 22.7812 134.183 23.4844C133.553 24.1875 133.238 25.1328 133.238 26.3203C133.238 27.5599 133.491 28.5078 133.996 29.1641C134.506 29.8151 135.246 30.1406 136.215 30.1406C136.72 30.1406 137.233 30.0885 137.754 29.9844V27.6016H135.59V25.5859ZM152.144 20.5781V27.9688C152.144 28.8125 151.954 29.5521 151.574 30.1875C151.199 30.8229 150.655 31.3099 149.941 31.6484C149.228 31.987 148.384 32.1562 147.41 32.1562C145.941 32.1562 144.801 31.7812 143.988 31.0312C143.176 30.276 142.769 29.2448 142.769 27.9375V20.5781H145.183V27.5703C145.183 28.4505 145.36 29.0964 145.715 29.5078C146.069 29.9193 146.655 30.125 147.472 30.125C148.264 30.125 148.837 29.9193 149.191 29.5078C149.551 29.0911 149.73 28.4401 149.73 27.5547V20.5781H152.144ZM154.941 32V20.5781H157.363V32H154.941ZM169.715 26.1797C169.715 28.0599 169.178 29.5 168.105 30.5C167.038 31.5 165.493 32 163.472 32H160.238V20.5781H163.824C165.689 20.5781 167.136 21.0703 168.168 22.0547C169.199 23.0391 169.715 24.4141 169.715 26.1797ZM167.199 26.2422C167.199 23.7891 166.116 22.5625 163.949 22.5625H162.66V30H163.699C166.032 30 167.199 28.7474 167.199 26.2422ZM178.66 32H172.082V20.5781H178.66V22.5625H174.504V25.0703H178.371V27.0547H174.504V30H178.66V32ZM181.051 32V20.5781H183.472V30H188.105V32H181.051ZM190.097 32V20.5781H192.519V32H190.097ZM205.527 32H202.449L197.48 23.3594H197.41C197.509 24.8854 197.558 25.974 197.558 26.625V32H195.394V20.5781H198.449L203.41 29.1328H203.465C203.386 27.6484 203.347 26.599 203.347 25.9844V20.5781H205.527V32ZM214.988 32H208.41V20.5781H214.988V22.5625H210.832V25.0703H214.699V27.0547H210.832V30H214.988V32ZM224.121 28.8281C224.121 29.8594 223.748 30.6719 223.004 31.2656C222.264 31.8594 221.233 32.1562 219.91 32.1562C218.691 32.1562 217.613 31.9271 216.676 31.4688V29.2188C217.446 29.5625 218.097 29.8047 218.629 29.9453C219.165 30.0859 219.655 30.1562 220.097 30.1562C220.629 30.1562 221.035 30.0547 221.316 29.8516C221.603 29.6484 221.746 29.3464 221.746 28.9453C221.746 28.7214 221.683 28.5234 221.558 28.3516C221.433 28.1745 221.248 28.0052 221.004 27.8438C220.764 27.6823 220.272 27.4245 219.527 27.0703C218.829 26.7422 218.306 26.4271 217.957 26.125C217.608 25.8229 217.329 25.4714 217.121 25.0703C216.913 24.6693 216.808 24.2005 216.808 23.6641C216.808 22.6536 217.149 21.8594 217.832 21.2812C218.519 20.7031 219.467 20.4141 220.676 20.4141C221.269 20.4141 221.834 20.4844 222.371 20.625C222.913 20.7656 223.478 20.9635 224.066 21.2188L223.285 23.1016C222.676 22.8516 222.17 22.6771 221.769 22.5781C221.373 22.4792 220.983 22.4297 220.597 22.4297C220.139 22.4297 219.788 22.5365 219.543 22.75C219.298 22.9635 219.176 23.2422 219.176 23.5859C219.176 23.7995 219.225 23.987 219.324 24.1484C219.423 24.3047 219.579 24.4583 219.793 24.6094C220.011 24.7552 220.524 25.0208 221.332 25.4062C222.399 25.9167 223.131 26.4297 223.527 26.9453C223.923 27.4557 224.121 28.0833 224.121 28.8281Z" fill="#9477D1"/>
<defs>
<filter id="filter0_d" x="0" y="0" width="285" height="70" filterUnits="userSpaceOnUse" color-interpolation-filters="sRGB">
<feFlood flood-opacity="0" result="BackgroundImageFix"/>
<feColorMatrix in="SourceAlpha" type="matrix" values="0 0 0 0 0 0 0 0 0 0 0 0 0 0 0 0 0 0 127 0"/>
<feOffset dy="10"/>
<feGaussianBlur stdDeviation="5"/>
<feColorMatrix type="matrix" values="0 0 0 0 1 0 0 0 0 1 0 0 0 0 1 0 0 0 0.1 0"/>
<feBlend mode="normal" in2="BackgroundImageFix" result="effect1_dropShadow"/>
<feBlend mode="normal" in="SourceGraphic" in2="effect1_dropShadow" result="shape"/>
</filter>
<linearGradient id="paint0_linear" x1="55.9333" y1="3.2206" x2="160.936" y2="88.2387" gradientUnits="userSpaceOnUse">
<stop stop-color="#CACAEA"/>
<stop offset="1" stop-color="#EE4266"/>
</linearGradient>
</defs>
</svg>
