<svg width="239" height="70" viewBox="0 0 239 70" fill="none" xmlns="http://www.w3.org/2000/svg">
<g filter="url(#filter0_d)">
<path fill-rule="evenodd" clip-rule="evenodd" d="M35 0C21.1929 0 10 11.1929 10 25C10 38.8071 21.1929 50 35 50H204C217.807 50 229 38.8071 229 25C229 11.1929 217.807 0 204 0H35Z" fill="white"/>
<path d="M11.5 25C11.5 12.0213 22.0213 1.5 35 1.5H204C216.979 1.5 227.5 12.0213 227.5 25C227.5 37.9787 216.979 48.5 204 48.5H35C22.0213 48.5 11.5 37.9787 11.5 25Z" stroke="url(#paint0_linear)" stroke-width="3"/>
</g>
<path d="M70.5109 31.1685V19.7466H72.9328V29.1685H77.5656V31.1685H70.5109ZM86.1359 31.1685H79.5578V19.7466H86.1359V21.731H81.9797V24.2388H85.8468V26.2231H81.9797V29.1685H86.1359V31.1685ZM95.5187 31.1685L94.6906 28.4497H90.5265L89.6984 31.1685H87.089L91.1203 19.6997H94.0812L98.1281 31.1685H95.5187ZM94.1125 26.4185C93.3468 23.9549 92.9146 22.5617 92.8156 22.2388C92.7218 21.9159 92.6541 21.6606 92.6125 21.4731C92.4406 22.1398 91.9484 23.7882 91.1359 26.4185H94.1125ZM101.995 24.8169H102.777C103.542 24.8169 104.107 24.6893 104.472 24.4341C104.836 24.1789 105.019 23.7778 105.019 23.231C105.019 22.6893 104.831 22.3039 104.456 22.0747C104.086 21.8455 103.511 21.731 102.73 21.731H101.995V24.8169ZM101.995 26.7856V31.1685H99.5734V19.7466H102.902C104.454 19.7466 105.602 20.0304 106.347 20.5981C107.092 21.1606 107.464 22.0174 107.464 23.1685C107.464 23.8403 107.279 24.4393 106.909 24.9653C106.54 25.4862 106.016 25.895 105.339 26.1919C107.058 28.7596 108.178 30.4185 108.698 31.1685H106.011L103.284 26.7856H101.995ZM120.269 31.1685H117.191L112.222 22.5278H112.152C112.25 24.0539 112.3 25.1424 112.3 25.7935V31.1685H110.136V19.7466H113.191L118.152 28.3013H118.206C118.128 26.8169 118.089 25.7674 118.089 25.1528V19.7466H120.269V31.1685ZM132.144 31.1685L129.394 22.2075H129.323C129.422 24.0304 129.472 25.2466 129.472 25.856V31.1685H127.308V19.7466H130.605L133.308 28.481H133.355L136.222 19.7466H139.519V31.1685H137.261V25.7622C137.261 25.507 137.264 25.2127 137.269 24.8794C137.279 24.5461 137.316 23.6606 137.378 22.2231H137.308L134.362 31.1685H132.144ZM152.769 25.4419C152.769 27.3325 152.3 28.7856 151.362 29.8013C150.425 30.8169 149.081 31.3247 147.331 31.3247C145.581 31.3247 144.237 30.8169 143.3 29.8013C142.362 28.7856 141.894 27.3273 141.894 25.4263C141.894 23.5252 142.362 22.0747 143.3 21.0747C144.243 20.0695 145.592 19.5669 147.347 19.5669C149.102 19.5669 150.443 20.0721 151.37 21.0825C152.303 22.0929 152.769 23.5461 152.769 25.4419ZM144.433 25.4419C144.433 26.7179 144.675 27.6789 145.159 28.3247C145.644 28.9705 146.368 29.2935 147.331 29.2935C149.264 29.2935 150.23 28.0096 150.23 25.4419C150.23 22.869 149.269 21.5825 147.347 21.5825C146.383 21.5825 145.657 21.908 145.167 22.5591C144.678 23.2049 144.433 24.1659 144.433 25.4419ZM157.558 24.8169H158.339C159.105 24.8169 159.67 24.6893 160.034 24.4341C160.399 24.1789 160.581 23.7778 160.581 23.231C160.581 22.6893 160.394 22.3039 160.019 22.0747C159.649 21.8455 159.073 21.731 158.292 21.731H157.558V24.8169ZM157.558 26.7856V31.1685H155.136V19.7466H158.464C160.016 19.7466 161.165 20.0304 161.909 20.5981C162.654 21.1606 163.027 22.0174 163.027 23.1685C163.027 23.8403 162.842 24.4393 162.472 24.9653C162.102 25.4862 161.579 25.895 160.902 26.1919C162.62 28.7596 163.74 30.4185 164.261 31.1685H161.573L158.847 26.7856H157.558ZM172.277 31.1685H165.698V19.7466H172.277V21.731H168.12V24.2388H171.987V26.2231H168.12V29.1685H172.277V31.1685Z" fill="url(#paint1_linear)"/>
<path d="M70.5109 31.1685V19.7466H72.9328V29.1685H77.5656V31.1685H70.5109ZM86.1359 31.1685H79.5578V19.7466H86.1359V21.731H81.9797V24.2388H85.8468V26.2231H81.9797V29.1685H86.1359V31.1685ZM95.5187 31.1685L94.6906 28.4497H90.5265L89.6984 31.1685H87.089L91.1203 19.6997H94.0812L98.1281 31.1685H95.5187ZM94.1125 26.4185C93.3468 23.9549 92.9146 22.5617 92.8156 22.2388C92.7218 21.9159 92.6541 21.6606 92.6125 21.4731C92.4406 22.1398 91.9484 23.7882 91.1359 26.4185H94.1125ZM101.995 24.8169H102.777C103.542 24.8169 104.107 24.6893 104.472 24.4341C104.836 24.1789 105.019 23.7778 105.019 23.231C105.019 22.6893 104.831 22.3039 104.456 22.0747C104.086 21.8455 103.511 21.731 102.73 21.731H101.995V24.8169ZM101.995 26.7856V31.1685H99.5734V19.7466H102.902C104.454 19.7466 105.602 20.0304 106.347 20.5981C107.092 21.1606 107.464 22.0174 107.464 23.1685C107.464 23.8403 107.279 24.4393 106.909 24.9653C106.54 25.4862 106.016 25.895 105.339 26.1919C107.058 28.7596 108.178 30.4185 108.698 31.1685H106.011L103.284 26.7856H101.995ZM120.269 31.1685H117.191L112.222 22.5278H112.152C112.25 24.0539 112.3 25.1424 112.3 25.7935V31.1685H110.136V19.7466H113.191L118.152 28.3013H118.206C118.128 26.8169 118.089 25.7674 118.089 25.1528V19.7466H120.269V31.1685ZM132.144 31.1685L129.394 22.2075H129.323C129.422 24.0304 129.472 25.2466 129.472 25.856V31.1685H127.308V19.7466H130.605L133.308 28.481H133.355L136.222 19.7466H139.519V31.1685H137.261V25.7622C137.261 25.507 137.264 25.2127 137.269 24.8794C137.279 24.5461 137.316 23.6606 137.378 22.2231H137.308L134.362 31.1685H132.144ZM152.769 25.4419C152.769 27.3325 152.3 28.7856 151.362 29.8013C150.425 30.8169 149.081 31.3247 147.331 31.3247C145.581 31.3247 144.237 30.8169 143.3 29.8013C142.362 28.7856 141.894 27.3273 141.894 25.4263C141.894 23.5252 142.362 22.0747 143.3 21.0747C144.243 20.0695 145.592 19.5669 147.347 19.5669C149.102 19.5669 150.443 20.0721 151.37 21.0825C152.303 22.0929 152.769 23.5461 152.769 25.4419ZM144.433 25.4419C144.433 26.7179 144.675 27.6789 145.159 28.3247C145.644 28.9705 146.368 29.2935 147.331 29.2935C149.264 29.2935 150.23 28.0096 150.23 25.4419C150.23 22.869 149.269 21.5825 147.347 21.5825C146.383 21.5825 145.657 21.908 145.167 22.5591C144.678 23.2049 144.433 24.1659 144.433 25.4419ZM157.558 24.8169H158.339C159.105 24.8169 159.67 24.6893 160.034 24.4341C160.399 24.1789 160.581 23.7778 160.581 23.231C160.581 22.6893 160.394 22.3039 160.019 22.0747C159.649 21.8455 159.073 21.731 158.292 21.731H157.558V24.8169ZM157.558 26.7856V31.1685H155.136V19.7466H158.464C160.016 19.7466 161.165 20.0304 161.909 20.5981C162.654 21.1606 163.027 22.0174 163.027 23.1685C163.027 23.8403 162.842 24.4393 162.472 24.9653C162.102 25.4862 161.579 25.895 160.902 26.1919C162.62 28.7596 163.74 30.4185 164.261 31.1685H161.573L158.847 26.7856H157.558ZM172.277 31.1685H165.698V19.7466H172.277V21.731H168.12V24.2388H171.987V26.2231H168.12V29.1685H172.277V31.1685Z" fill="#9477D1"/>
<defs>
<filter id="filter0_d" x="0" y="0" width="239" height="70" filterUnits="userSpaceOnUse" color-interpolation-filters="sRGB">
<feFlood flood-opacity="0" result="BackgroundImageFix"/>
<feColorMatrix in="SourceAlpha" type="matrix" values="0 0 0 0 0 0 0 0 0 0 0 0 0 0 0 0 0 0 127 0"/>
<feOffset dy="10"/>
<feGaussianBlur stdDeviation="5"/>
<feColorMatrix type="matrix" values="0 0 0 0 1 0 0 0 0 1 0 0 0 0 1 0 0 0 0.1 0"/>
<feBlend mode="normal" in2="BackgroundImageFix" result="effect1_dropShadow"/>
<feBlend mode="normal" in="SourceGraphic" in2="effect1_dropShadow" result="shape"/>
</filter>
<linearGradient id="paint0_linear" x1="10" y1="25.4386" x2="229.328" y2="35.2319" gradientUnits="userSpaceOnUse">
<stop stop-color="#9477D1"/>
<stop offset="1" stop-color="#21B7B7"/>
</linearGradient>
<linearGradient id="paint1_linear" x1="62.2163" y1="3.83085" x2="151.915" y2="55.061" gradientUnits="userSpaceOnUse">
<stop stop-color="#CACAEA"/>
<stop offset="1" stop-color="#EE4266"/>
</linearGradient>
</defs>
</svg>
