<svg width="47" height="39" viewBox="0 0 47 39" fill="none" xmlns="http://www.w3.org/2000/svg">
<path d="M40.6395 0.5H40.592L40.5453 0.508953L25.4553 3.40365H25.4491C24.2857 3.40365 23.3359 4.35343 23.3359 5.5168V35.575C23.3359 36.6702 24.1542 37.5539 25.2396 37.6589L25.2636 37.6613H25.2878H25.3684H25.415L25.4607 37.6527L29.5649 36.8816H29.8046H42.6559C44.4645 36.8816 45.9251 35.421 45.9251 33.6123V6.91485C45.9251 5.12056 44.4876 3.6688 42.6989 3.6459V2.58625C42.6989 1.49101 41.8806 0.607368 40.7952 0.502325L40.7712 0.5H40.747H40.6395ZM31.1866 4.7452V13.233C31.1866 13.2426 31.1865 13.2525 31.1865 13.2626C31.1863 13.4545 31.186 13.7214 31.2581 13.9614C31.3472 14.2585 31.5447 14.5194 31.8984 14.6628C32.4857 14.9117 33.1265 14.7316 33.5457 14.3125L33.5511 14.3071L33.5563 14.3016L34.2015 13.616L34.8468 12.9304L34.8468 12.9305L34.8526 12.9241C34.9825 12.7812 35.113 12.6442 35.248 12.5024L35.2498 12.5006C35.2661 12.4834 35.2825 12.4662 35.299 12.4489C35.8617 13.0257 36.4111 13.619 36.9657 14.2179L36.9722 14.225L36.979 14.2318L36.9792 14.232L36.9793 14.2321L36.9795 14.2323L36.9796 14.2324L36.9798 14.2326L36.9799 14.2327L36.9801 14.2329L36.9803 14.2331L36.9804 14.2332L36.9806 14.2334L36.9807 14.2335L36.9809 14.2337L36.981 14.2338L36.9812 14.234L36.9814 14.2342L36.9815 14.2343L36.9817 14.2345L36.9818 14.2346L36.982 14.2348L36.9821 14.2349L36.9823 14.2351L36.9825 14.2353L36.9826 14.2354L36.9828 14.2356L36.9829 14.2357L36.9831 14.2359L36.9833 14.2361L36.9834 14.2362L36.9836 14.2364L36.9837 14.2365L36.9839 14.2367L36.984 14.2368L36.9842 14.237L36.9844 14.2372L36.9845 14.2373L36.9847 14.2375L36.9848 14.2376L36.985 14.2378L36.9851 14.2379L36.9853 14.2381L36.9855 14.2383L36.9856 14.2384L36.9858 14.2386L36.9859 14.2387L36.9861 14.2389L36.9862 14.239L36.9864 14.2392L36.9866 14.2394L36.9867 14.2395L36.9869 14.2397L36.987 14.2398L36.9872 14.24L36.9873 14.2401L36.9875 14.2403L36.9877 14.2405L36.9878 14.2406L36.988 14.2408L36.9881 14.2409L36.9883 14.2411L36.9884 14.2413L36.9886 14.2414L36.9888 14.2416L36.9889 14.2417L36.9891 14.2419L36.9892 14.242L36.9894 14.2422L36.9896 14.2424L36.9897 14.2425L36.9899 14.2427L36.99 14.2428L36.9902 14.243L36.9903 14.2431L36.9905 14.2433L36.9907 14.2435L36.9908 14.2436L36.991 14.2438L36.9911 14.2439L36.9913 14.2441L36.9914 14.2442L36.9916 14.2444L36.9918 14.2446L36.9919 14.2447L36.9921 14.2449L36.9922 14.245L36.9924 14.2452L36.9925 14.2453L36.9927 14.2455L36.9929 14.2457L36.993 14.2458L36.9932 14.246L36.9933 14.2461L36.9935 14.2463L36.9936 14.2464L36.9938 14.2466L36.994 14.2468L36.9941 14.2469L36.9943 14.2471L36.9944 14.2472L36.9946 14.2474L36.9948 14.2476L36.9949 14.2477L36.9951 14.2479L36.9952 14.248L36.9954 14.2482L36.9955 14.2483L36.9957 14.2485L36.9959 14.2487L36.996 14.2488L36.9962 14.249L36.9963 14.2491L36.9965 14.2493L36.9966 14.2494L36.9968 14.2496L36.997 14.2498L36.9971 14.2499L36.9973 14.2501L36.9974 14.2502L36.9976 14.2504L36.9977 14.2505L36.9979 14.2507L36.9981 14.2509L36.9982 14.251L36.9984 14.2512L36.9985 14.2513L36.9987 14.2515L36.9988 14.2516L36.999 14.2518L36.9992 14.252L36.9993 14.2521L36.9995 14.2523L36.9996 14.2524L36.9998 14.2526L36.9999 14.2527L37.0001 14.2529L37.0003 14.2531L37.0004 14.2532L37.0006 14.2534L37.0007 14.2535L37.0009 14.2537L37.0011 14.2539L37.0012 14.254L37.0014 14.2542L37.0015 14.2543L37.0017 14.2545L37.0018 14.2546L37.002 14.2548L37.0022 14.255L37.0023 14.2551L37.0025 14.2553L37.0026 14.2554L37.0028 14.2556L37.0029 14.2557L37.0031 14.2559L37.0033 14.2561L37.0034 14.2562L37.0036 14.2564L37.0037 14.2565L37.0039 14.2567L37.004 14.2568L37.0042 14.257L37.0044 14.2572L37.0045 14.2573L37.0047 14.2575L37.0048 14.2576L37.005 14.2578L37.0051 14.2579L37.0053 14.2581L37.0055 14.2583L37.0056 14.2584L37.0058 14.2586L37.0059 14.2587L37.0061 14.2589L37.0063 14.2591L37.0064 14.2592L37.0066 14.2594L37.0067 14.2595L37.0069 14.2597L37.007 14.2598L37.0072 14.26L37.0074 14.2602L37.0075 14.2603L37.0077 14.2605L37.0078 14.2606L37.008 14.2608L37.0081 14.2609L37.0083 14.2611L37.0085 14.2613L37.0086 14.2614L37.0088 14.2616L37.0089 14.2617L37.0091 14.2619L37.0092 14.262L37.0094 14.2622L37.0096 14.2624L37.0097 14.2625L37.0099 14.2627L37.01 14.2628L37.0102 14.263L37.0103 14.2631L37.0105 14.2633L37.0107 14.2635L37.0108 14.2636L37.011 14.2638L37.0111 14.2639L37.0113 14.2641L37.0114 14.2642L37.0116 14.2644L37.0118 14.2646L37.0119 14.2647L37.0121 14.2649L37.0122 14.265L37.0124 14.2652L37.0126 14.2654L37.0127 14.2655L37.0129 14.2657L37.013 14.2658L37.0132 14.266L37.0133 14.2661L37.0135 14.2663L37.0137 14.2665L37.0138 14.2666L37.014 14.2668L37.0141 14.2669L37.0143 14.2671L37.0144 14.2672L37.0146 14.2674L37.0148 14.2676L37.0149 14.2677L37.0151 14.2679L37.0152 14.268L37.0154 14.2682L37.0155 14.2683L37.0157 14.2685L37.0159 14.2687L37.016 14.2688L37.0162 14.269L37.0163 14.2691L37.0165 14.2693L37.0166 14.2694L37.0168 14.2696L37.017 14.2698L37.0171 14.2699L37.0173 14.2701L37.0174 14.2702L37.0176 14.2704L37.0178 14.2706L37.0179 14.2707L37.0181 14.2709L37.0182 14.271L37.0184 14.2712L37.0185 14.2713L37.0187 14.2715L37.0189 14.2717L37.019 14.2718L37.0192 14.272L37.0193 14.2721L37.0195 14.2723L37.0196 14.2724L37.0198 14.2726L37.02 14.2728L37.0201 14.2729L37.0203 14.2731L37.0204 14.2732L37.0206 14.2734L37.0207 14.2735L37.0209 14.2737L37.0211 14.2739L37.0212 14.274L37.0214 14.2742L37.0215 14.2743L37.0217 14.2745L37.0218 14.2746L37.022 14.2748L37.0222 14.275L37.0223 14.2751L37.0225 14.2753L37.0226 14.2754L37.0228 14.2756L37.0229 14.2758L37.0231 14.2759L37.0233 14.2761L37.0234 14.2762L37.0236 14.2764L37.0237 14.2765L37.0239 14.2767L37.0241 14.2769L37.0242 14.277L37.0244 14.2772L37.0245 14.2773L37.0247 14.2775L37.0248 14.2776L37.025 14.2778L37.0252 14.278L37.0253 14.2781L37.0255 14.2783L37.0256 14.2784L37.0258 14.2786L37.0259 14.2787L37.0261 14.2789L37.0263 14.2791L37.0264 14.2792L37.0266 14.2794L37.0267 14.2795L37.0269 14.2797L37.027 14.2798L37.0272 14.28L37.0274 14.2802L37.0275 14.2803L37.0277 14.2805L37.0278 14.2806L37.028 14.2808L37.0281 14.2809L37.0283 14.2811L37.0285 14.2813L37.0286 14.2814L37.0288 14.2816L37.0289 14.2817L37.0291 14.2819L37.0293 14.2821L37.0294 14.2822L37.0296 14.2824L37.0297 14.2825L37.0299 14.2827L37.03 14.2828L37.0302 14.283L37.0304 14.2832L37.0305 14.2833L37.0307 14.2835L37.0308 14.2836L37.031 14.2838L37.0311 14.2839L37.0313 14.2841L37.0315 14.2843L37.0316 14.2844L37.0318 14.2846L37.0319 14.2847L37.0321 14.2849L37.0322 14.285L37.0324 14.2852L37.0326 14.2854L37.0327 14.2855L37.0329 14.2857L37.033 14.2858L37.0332 14.286L37.0333 14.2861L37.0335 14.2863L37.0337 14.2865L37.0338 14.2866L37.034 14.2868L37.0341 14.2869L37.0343 14.2871L37.0344 14.2872L37.0346 14.2874L37.0348 14.2876L37.0349 14.2877L37.0351 14.2879L37.0352 14.288L37.0354 14.2882L37.0356 14.2884L37.0357 14.2885L37.0359 14.2887L37.036 14.2888L37.0362 14.289L37.0363 14.2891L37.0365 14.2893L37.0367 14.2895L37.0368 14.2896L37.037 14.2898L37.0371 14.2899L37.0373 14.2901L37.0374 14.2902L37.0376 14.2904L37.0378 14.2906L37.0379 14.2907L37.0381 14.2909L37.0382 14.291L37.0384 14.2912L37.0385 14.2913L37.0387 14.2915L37.0389 14.2917L37.039 14.2918L37.0392 14.292L37.0393 14.2921L37.0395 14.2923L37.0396 14.2924L37.0398 14.2926L37.04 14.2928L37.0401 14.2929L37.0403 14.2931L37.0404 14.2932L37.0406 14.2934L37.0408 14.2936L37.0409 14.2937L37.0411 14.2939L37.0412 14.294L37.0414 14.2942L37.0415 14.2943L37.0417 14.2945L37.0419 14.2947L37.042 14.2948L37.0422 14.295L37.0423 14.2951L37.0425 14.2953L37.0426 14.2954L37.0428 14.2956L37.043 14.2958L37.0431 14.2959L37.0433 14.2961L37.0434 14.2962L37.0436 14.2964L37.0437 14.2965L37.0439 14.2967L37.0441 14.2969L37.0442 14.297L37.0444 14.2972L37.0445 14.2973L37.0447 14.2975L37.0448 14.2976L37.045 14.2978L37.0452 14.298L37.0453 14.2981L37.0455 14.2983L37.0456 14.2984L37.0458 14.2986L37.0459 14.2987L37.0461 14.2989L37.0463 14.2991L37.0464 14.2992L37.0466 14.2994L37.0467 14.2995L37.0469 14.2997L37.0471 14.2999L37.0472 14.3L37.0474 14.3002L37.0475 14.3003L37.0477 14.3005L37.0478 14.3006L37.048 14.3008L37.0482 14.301L37.0483 14.3011L37.0485 14.3013L37.0486 14.3014L37.0488 14.3016L37.0489 14.3017L37.0491 14.3019L37.0493 14.3021L37.0494 14.3022L37.0496 14.3024L37.0497 14.3025L37.0499 14.3027L37.05 14.3028L37.0502 14.303L37.0504 14.3032L37.0505 14.3033L37.0507 14.3035L37.0508 14.3036L37.051 14.3038L37.0511 14.3039L37.0513 14.3041L37.0515 14.3043L37.0516 14.3044L37.0518 14.3046L37.0519 14.3047L37.0521 14.3049L37.0523 14.3051L37.0524 14.3052L37.0526 14.3054L37.0527 14.3055L37.0529 14.3057L37.053 14.3058L37.0532 14.306L37.0534 14.3062L37.0535 14.3063L37.0537 14.3065L37.0538 14.3066L37.054 14.3068L37.0541 14.3069L37.0543 14.3071L37.0545 14.3073L37.0546 14.3074L37.0548 14.3076L37.0549 14.3077L37.0551 14.3079L37.0552 14.308L37.0554 14.3082L37.0556 14.3084L37.0557 14.3085L37.0559 14.3087L37.056 14.3088L37.0562 14.309L37.0563 14.3091L37.0565 14.3093L37.0567 14.3095L37.0568 14.3096L37.057 14.3098L37.0571 14.3099L37.0573 14.3101L37.0575 14.3103L37.0576 14.3104L37.0578 14.3106L37.0579 14.3107L37.0581 14.3109L37.0582 14.311L37.0584 14.3112L37.0586 14.3114L37.0587 14.3115L37.0589 14.3117L37.059 14.3118L37.0592 14.312L37.0593 14.3121L37.0595 14.3123L37.0597 14.3125L37.0597 14.3125L37.1403 14.3931L37.1403 14.3931L37.1672 14.42L37.1949 14.4477L37.2267 14.4708C37.6504 14.779 38.2083 14.8691 38.7046 14.6637C39.0598 14.5205 39.258 14.2592 39.3473 13.9614C39.4193 13.7214 39.419 13.4545 39.4188 13.2626C39.4188 13.2525 39.4188 13.2426 39.4188 13.233V3.08941L40.3277 2.9356V32.4133H40.3229L40.2761 32.4223L25.6265 35.2426V5.76052L31.1866 4.7452Z" fill="#FFD28C" stroke="#FFD28C"/>
<path d="M21.3895 37.6344H21.4136L21.4376 37.632C22.5231 37.527 23.3413 36.6433 23.3413 35.5481V5.5168C23.3413 4.3703 22.4189 3.43125 21.2786 3.40425L6.13161 0.508892L6.08509 0.5H6.03773H5.93019H5.90605L5.88203 0.502325C4.79658 0.607368 3.97836 1.49101 3.97836 2.58625V3.66573C2.34249 3.84688 1.07471 5.22983 1.07471 6.91485V33.5854C1.07471 35.3941 2.53531 36.8547 4.34393 36.8547H17.1483L21.2157 37.6256L21.2618 37.6344H21.3088H21.3895ZM20.892 5.73899L20.9387 5.74794H20.9862H20.997V35.216L6.42764 32.4223L6.38098 32.4133H6.33347H6.32265V2.94522L20.892 5.73899Z" fill="#FFD28C" stroke="#FFD28C"/>
<path d="M39.6395 0H39.747C40.5805 0.0806571 41.1989 0.752799 41.1989 1.58625V3.14563H41.6559C43.1884 3.14563 44.4251 4.38237 44.4251 5.91485V32.6123C44.4251 34.1448 43.1884 35.3816 41.6559 35.3816H28.8046V35.3278L24.3684 36.1613H24.2878C23.4543 36.0806 22.8359 35.4085 22.8359 34.575V4.5168C22.8359 3.62957 23.5619 2.90365 24.4491 2.90365H24.5029L39.6395 0ZM39.8277 31.6445V1.61314C39.8277 1.5056 39.747 1.39806 39.6664 1.37117L37.9188 1.66691V12.233C37.9188 12.6632 37.9188 13.0396 37.5155 13.2009C37.1929 13.3353 36.8165 13.2815 36.5208 13.0664L36.4939 13.0396L36.4132 12.9589C36.3863 12.932 36.3594 12.9051 36.3326 12.8782C35.6604 12.1523 34.9883 11.4264 34.2892 10.7274C34.0204 11.0231 33.7515 11.292 33.4827 11.5877C33.0525 12.0448 32.6223 12.5018 32.1922 12.9589C31.8964 13.2546 31.4662 13.3622 31.0898 13.2009C30.6866 13.0396 30.6866 12.6632 30.6866 12.233V3.14563L24.5029 4.27482H24.3953C24.2609 4.27482 24.1265 4.38237 24.1265 4.54368V34.575C24.1265 34.6825 24.1802 34.7901 24.2878 34.817L39.3706 31.9133H39.5319C39.7201 31.9133 39.8277 31.8058 39.8277 31.6445Z" fill="#9477D1"/>
<path d="M21.8413 4.5168V34.5481C21.8413 35.3816 21.2229 36.0537 20.3895 36.1344H20.3088L16.1953 35.3547H3.34393C1.81145 35.3547 0.574707 34.1179 0.574707 32.5854V5.91485C0.574707 4.38237 1.81145 3.14563 3.34393 3.14563H3.47836V1.58625C3.47836 0.752799 4.09673 0.0806571 4.93019 0H5.03773L20.2281 2.90365C21.1154 2.90365 21.8413 3.62957 21.8413 4.5168ZM20.497 34.5481V4.5168C20.497 4.38237 20.3895 4.24794 20.2281 4.24794H19.9862L4.98396 1.37117C4.87642 1.39806 4.82265 1.5056 4.82265 1.61314V31.6445C4.82265 31.7789 4.93019 31.9133 5.0915 31.9133H5.33347L20.3357 34.7901C20.4163 34.7632 20.497 34.6556 20.497 34.5481Z" fill="#9477D1"/>
</svg>
