<svg width="743" height="670" viewBox="0 0 743 670" fill="none" xmlns="http://www.w3.org/2000/svg">
<path d="M55.7477 59.9782C73.6694 63.5571 83.4982 82.9836 75.7649 99.5425C67.0644 118.172 80.597 139.548 101.158 139.652L140.344 139.851C177.319 140.039 202.862 176.916 190.039 211.597L162.072 287.236C153.127 311.429 131.601 328.743 106.052 332.293L-14.0772 348.989C-56.6391 354.904 -94.4332 321.43 -93.703 278.465L-90.9222 114.858C-90.1799 71.1842 -50.0591 38.8493 -7.2244 47.4031L55.7477 59.9782Z" fill="url(#paint0_linear)" fill-opacity="0.1"/>
<path d="M651.953 632.074C641.896 637.467 630.606 627.319 634.899 616.745C638.245 608.506 631.927 599.573 623.043 599.982L596.286 601.217C572.002 602.338 556.968 575.131 570.842 555.167L594.618 520.953C602.13 510.143 613.608 502.739 626.554 500.351L631.371 499.463C669.357 492.458 704.391 521.621 704.391 560.249L704.391 587.386C704.391 597.589 698.78 606.965 689.788 611.786L651.953 632.074Z" fill="url(#paint1_linear)" fill-opacity="0.1"/>
<defs>
<linearGradient id="paint0_linear" x1="-38.6364" y1="94.264" x2="190" y2="270" gradientUnits="userSpaceOnUse">
<stop stop-color="#9477D1"/>
<stop offset="1" stop-color="#FFD28C"/>
</linearGradient>
<linearGradient id="paint1_linear" x1="706.781" y1="625.667" x2="584.167" y2="580.455" gradientUnits="userSpaceOnUse">
<stop stop-color="#9477D1"/>
<stop offset="1" stop-color="#FFD28C"/>
</linearGradient>
</defs>
</svg>
