<svg width="676" height="674" viewBox="0 0 676 674" fill="none" xmlns="http://www.w3.org/2000/svg">
<path d="M880.819 196.62C935.959 222.832 1040.31 310.852 949.57 438.944C860.921 564.092 662.756 499.763 593.556 564.57C505.079 647.429 384.94 536.165 341.102 469.85C293.447 397.761 112.982 467.569 83.6232 391.73C35.2199 266.697 138.801 269.23 199.251 209.534C259.701 149.837 199.237 85.6748 226.463 21.5692C260.388 -58.3092 363.54 -104.785 413.098 -65.1074C462.656 -25.4294 442.078 -14.7589 484.061 24.3521C526.044 63.4632 568.853 35.6861 603.651 12.1877C638.448 -11.3107 709.955 -37.5339 770.387 -4.54854C836.287 31.421 846.9 78.5535 840.372 105.565C827.089 160.522 825.679 170.409 880.819 196.62Z" fill="url(#paint0_linear)" fill-opacity="0.4"/>
<g clip-path="url(#clip0)">
<path d="M320.792 514.625L321.072 531.621C320.96 536.346 321.386 541.036 321.67 545.739C321.937 550.103 321.059 554.605 323.134 558.651C323.784 559.939 325.17 560.798 326.224 559.338C327.034 558.208 326.655 556.254 326.861 554.94C328.368 545.086 331.166 535.478 332.578 525.608C334.041 515.269 330.017 515.54 320.792 514.625Z" fill="#EAC5B0"/>
<path d="M321.761 555.747L320.663 558.582L326.052 563.315L330.989 563.517L332.586 560.918L325.949 555.158L321.761 555.747Z" fill="#292949"/>
<path d="M308.727 514.788L305.62 531.505C304.543 538.978 302.094 546.263 301.018 553.741C300.773 555.459 300.898 557.34 300.157 558.96C299.417 560.579 298.074 560.609 296.86 559.535C295.229 558.092 295.999 555.515 295.999 553.522C296.197 540.4 295.164 527.467 294.914 514.324C294.885 514.248 294.879 514.165 294.895 514.085C294.912 514.005 294.951 513.931 295.008 513.873C295.065 513.814 295.137 513.773 295.217 513.754C295.296 513.735 295.379 513.739 295.457 513.765C296.765 513.873 308.658 515.149 308.727 514.788Z" fill="#EAC5B0"/>
<path d="M295.986 556.443L294.282 558.96L298.461 564.784L303.222 566.094L305.365 563.921L300.2 556.812L295.986 556.443Z" fill="#292949"/>
<path d="M338.345 525.44L336.021 501.142L334.902 485.353L331.136 472.459L310.789 469.306L285.634 473.61L284.424 478.485L289.267 523.623L313.526 525.44L313.199 497.345L316.944 514.758L316.785 525.44H338.345Z" fill="#292949"/>
<path d="M290.976 424.979C290.941 425.8 290.92 426.62 290.907 427.436C290.61 444.106 291.531 460.986 291.639 477.793C300.268 476.444 308.981 475.702 317.715 475.573C319.734 475.538 328.906 476.956 330.198 475.753C331.919 474.117 330.025 474.426 330.154 472.317C330.318 469.564 328.992 467.309 329.492 464.049C330.081 460.213 331.252 456.416 331.928 452.585C333.281 444.892 334.092 437.114 334.356 429.309C334.592 422.389 334.356 415.212 331.342 408.958C323.991 393.521 300.316 393.796 293.787 409.895C291.863 414.662 291.191 419.825 290.976 424.979Z" fill="white"/>
<path d="M317.697 376.087C318.686 377.885 319.231 379.892 319.29 381.941C319.316 382.483 319.35 383.11 319.789 383.432C320.228 383.754 319.85 384.523 320.22 384.067C320.59 383.612 321.791 382.014 321.847 381.439C321.978 380.082 321.978 378.715 321.847 377.358C321.735 376.181 321.494 374.949 320.719 374.051C320.235 373.536 319.671 373.101 319.049 372.762C318.205 372.187 317.265 371.766 316.273 371.521C314.551 371.199 313.483 371.818 315.007 373.02C316.096 373.857 317.01 374.899 317.697 376.087Z" fill="#292949"/>
<path d="M306.898 399.221C306.898 400.054 306.739 400.939 307.475 401.566C307.849 401.854 308.296 402.031 308.766 402.077C309.978 402.268 311.218 402.179 312.39 401.82C312.878 401.693 313.33 401.456 313.712 401.128C313.884 400.954 314.015 400.743 314.096 400.512C314.177 400.282 314.206 400.036 314.181 399.792C314.207 399.161 314.332 398.504 314.413 397.885C314.585 396.488 314.685 395.083 314.715 393.676C316.789 393.319 319.226 392.654 319.932 390.489C320.12 389.789 320.2 389.065 320.168 388.341L320.233 379.343C320.304 378.308 320.187 377.269 319.889 376.276C319.264 374.584 317.676 373.579 316.118 372.947C312.149 371.328 307.509 371.392 303.85 373.695C302.826 374.283 301.977 375.134 301.393 376.16C300.532 377.809 300.635 379.841 300.768 381.744L301.143 387.01C301.285 389.028 301.573 391.352 303.157 392.417C303.992 392.984 305.073 393.087 305.792 393.818C307.044 395.106 306.446 397.009 306.816 398.542C306.868 398.765 306.895 398.992 306.898 399.221Z" fill="#EAC5B0"/>
<path d="M320.904 387.143C320.874 386.584 320.629 384.956 319.789 385.979C319.59 386.275 319.491 386.627 319.505 386.984C319.516 387.341 319.478 387.698 319.393 388.045C319.135 388.814 318.279 389.166 317.517 389.153C317.217 389.154 316.921 389.082 316.656 388.942C316.402 388.777 316.176 388.571 315.989 388.332C315.501 387.76 315.012 387.2 314.521 386.653C313.66 385.691 312.016 386.108 310.884 386.254C309.55 386.38 308.278 386.872 307.208 387.675L306.889 387.942C306.644 388.171 306.371 388.367 306.076 388.526C305.068 389.015 303.82 388.504 303.114 387.589C302.791 387.16 302.49 386.632 301.986 386.559C301.783 386.55 301.582 386.602 301.408 386.708C301.234 386.813 301.096 386.967 301.009 387.151C300.828 387.537 300.731 387.958 300.725 388.384C300.589 389.933 300.855 391.49 301.496 392.907C302.955 395.883 305.779 396.253 308.611 396.184L311.977 396.107C314.026 396.055 316.191 395.974 317.917 394.784C319.441 393.736 320.345 391.953 320.715 390.085C320.905 389.116 320.968 388.127 320.904 387.143ZM313.41 391.365C312.902 391.696 312.324 391.904 311.721 391.974C311.118 392.044 310.508 391.974 309.937 391.769C309.424 391.614 309.644 390.759 310.156 390.91C310.621 391.082 311.119 391.144 311.612 391.089C312.104 391.035 312.577 390.866 312.993 390.596C313.445 390.295 313.858 391.064 313.41 391.365Z" fill="#292949"/>
<path d="M321.335 370.89C321.532 370.162 321.676 369.422 321.765 368.673C321.068 368.919 320.32 368.982 319.592 368.858C319.592 368.429 319.592 367.999 319.592 367.57C319.592 367.213 314.728 366.96 314.332 366.93C310.63 366.625 307.247 366.337 303.902 368.317C301.044 370.009 299.215 372.539 298.776 375.829C298.345 378.969 299.387 383.075 301.207 385.682C301.207 384.845 300.717 382.873 300.91 382.079C301.041 381.282 301.304 380.512 301.69 379.802C302.471 378.385 303.607 377.194 304.987 376.345C307.193 375.04 309.649 374.215 312.197 373.922C314.504 373.6 317.315 373.304 319.592 373.922C320.689 374.214 320.883 374.489 321.533 373.385C321.909 372.587 322.228 371.763 322.488 370.92L321.335 370.89Z" fill="#292949"/>
<path d="M341.984 356.128C360.352 337.799 360.352 308.083 341.984 289.754C323.616 271.425 293.836 271.425 275.468 289.754C257.1 308.083 257.1 337.799 275.468 356.128C293.836 374.457 323.616 374.457 341.984 356.128Z" fill="white"/>
<g opacity="0.08">
<path opacity="0.08" d="M327.507 279.853C334.43 287.921 338.407 298.093 338.788 308.707C339.168 319.322 335.93 329.752 329.602 338.292C323.274 346.833 314.23 352.98 303.949 355.729C293.667 358.477 282.756 357.665 272.996 353.425C277.598 358.783 283.351 363.037 289.827 365.87C296.304 368.703 303.337 370.043 310.404 369.789C317.471 369.536 324.389 367.695 330.645 364.405C336.901 361.115 342.333 356.46 346.536 350.786C350.74 345.112 353.608 338.565 354.927 331.633C356.245 324.7 355.98 317.56 354.151 310.744C352.323 303.927 348.978 297.61 344.365 292.262C339.752 286.914 333.99 282.672 327.507 279.853Z" fill="black"/>
</g>
<g opacity="0.2">
<path opacity="0.2" d="M269.17 333.487C267.899 324.474 269.488 315.29 273.715 307.225C277.942 299.159 284.593 292.616 292.736 288.515C300.879 284.414 310.104 282.96 319.117 284.358C328.13 285.756 336.478 289.934 342.99 296.308C339.312 291.611 334.707 287.717 329.461 284.867C324.215 282.016 318.438 280.27 312.488 279.737C306.539 279.203 300.543 279.893 294.871 281.764C289.199 283.634 283.973 286.646 279.514 290.613C275.055 294.58 271.46 299.418 268.949 304.827C266.439 310.236 265.067 316.101 264.919 322.06C264.771 328.019 265.85 333.945 268.088 339.471C270.327 344.998 273.677 350.007 277.933 354.19C273.242 348.176 270.219 341.036 269.17 333.487Z" fill="white"/>
</g>
<path d="M290.27 335.227C291.498 340.011 294.45 344.177 298.562 346.926C302.675 349.675 307.658 350.814 312.56 350.127C317.461 349.439 321.937 346.973 325.131 343.2C328.324 339.426 330.012 334.61 329.87 329.673L290.27 335.227Z" fill="#292949"/>
<path d="M298.112 346.57C302.209 349.476 307.247 350.744 312.234 350.125C317.221 349.507 321.795 347.046 325.054 343.229L324.813 342.825C310.604 338.225 298.28 346.459 298.112 346.57Z" fill="#D67086"/>
<path d="M319.217 313.656C319.632 311.986 320.533 310.477 321.808 309.318C323.083 308.16 324.673 307.404 326.378 307.148C328.082 306.891 329.825 307.145 331.385 307.877C332.946 308.609 334.253 309.786 335.143 311.259C335.309 311.536 335.374 311.861 335.327 312.18C335.28 312.498 335.123 312.791 334.885 313.008C334.646 313.225 334.34 313.353 334.017 313.37C333.695 313.387 333.376 313.292 333.116 313.102C330.18 310.954 325.798 309.533 321.675 314.846C321.453 315.136 321.125 315.328 320.762 315.378C320.486 315.416 320.204 315.371 319.953 315.25C319.666 315.109 319.436 314.873 319.302 314.583C319.168 314.293 319.138 313.966 319.217 313.656Z" fill="#292949"/>
<path d="M279.225 319.266C279.641 317.597 280.544 316.088 281.819 314.931C283.095 313.774 284.685 313.021 286.39 312.765C288.094 312.51 289.837 312.765 291.396 313.498C292.955 314.231 294.262 315.408 295.151 316.882C295.314 317.158 295.376 317.483 295.328 317.8C295.28 318.117 295.124 318.408 294.887 318.624C294.649 318.841 294.345 318.969 294.024 318.988C293.703 319.007 293.385 318.916 293.124 318.729C290.188 316.581 285.806 315.159 281.683 320.473C281.487 320.728 281.208 320.908 280.894 320.983C280.581 321.057 280.251 321.021 279.961 320.88C279.671 320.74 279.438 320.504 279.302 320.212C279.167 319.92 279.136 319.59 279.216 319.278L279.225 319.266Z" fill="#292949"/>
<path d="M286.488 341.777C290.812 340.411 293.209 335.806 291.84 331.491C290.472 327.176 285.857 324.785 281.532 326.15C277.208 327.516 274.812 332.121 276.18 336.436C277.548 340.751 282.163 343.143 286.488 341.777Z" fill="#D67086"/>
<path d="M341.681 333.727C346.186 333.208 349.418 329.143 348.898 324.647C348.378 320.15 344.304 316.926 339.798 317.444C335.292 317.963 332.061 322.029 332.581 326.525C333.101 331.021 337.175 334.246 341.681 333.727Z" fill="#D67086"/>
<path d="M277.107 350.268C277.184 350.379 277.243 350.501 277.283 350.629C277.589 351.793 277.047 352.588 277.025 353.791C277.025 354.327 278.157 355.079 277.202 355.689C276.853 355.904 275.91 356.316 275.157 356.776C274.055 357.441 273.061 358.949 272.493 360.294C271.496 362.72 270.741 365.24 270.241 367.814C269.781 370.095 268.687 373.609 269.101 375.915C269.471 378.007 272.26 380.64 273.513 382.405C275.082 384.642 276.623 386.904 278.136 389.192C279.199 390.802 280.262 392.465 280.697 394.346C280.959 395.48 280.951 396.773 280.24 397.696C279.735 398.261 279.112 398.709 278.415 399.011C277.232 399.62 275.953 400.256 274.628 400.093C272.996 399.895 271.769 398.56 270.754 397.288C268.378 394.44 266.301 391.358 264.555 388.088C263.354 385.76 261.09 381.645 261.62 378.999C262.895 372.957 264.5 366.99 266.428 361.122C266.94 359.499 268.244 358.352 268.705 356.827C268.997 355.869 268.537 354.903 268.614 353.937C268.724 352.877 269.016 351.844 269.475 350.883C270.31 349.186 272.239 348.842 273.891 348.379C274.235 348.245 274.608 348.207 274.972 348.267C275.609 348.404 276.022 348.885 276.448 349.345C276.698 349.631 276.918 349.94 277.107 350.268Z" fill="#EAC5B0"/>
<path d="M343.36 348.155C343.287 348.267 343.229 348.389 343.188 348.516C342.882 349.684 343.421 350.475 343.446 351.677C343.446 352.214 342.31 352.987 343.266 353.576C343.619 353.795 344.557 354.207 345.314 354.662C346.416 355.328 347.411 356.836 347.975 358.18C348.972 360.607 349.726 363.126 350.226 365.701C350.686 367.986 351.78 371.495 351.371 373.802C350.996 375.894 348.211 378.527 346.959 380.292C345.383 382.534 343.841 384.796 342.331 387.078C341.273 388.689 340.209 390.351 339.77 392.233C339.508 393.371 339.516 394.664 340.231 395.587C340.738 396.142 341.359 396.581 342.052 396.876C343.24 397.49 344.514 398.121 345.84 397.958C347.471 397.761 348.698 396.429 349.714 395.153C352.087 392.306 354.163 389.223 355.908 385.953C357.113 383.629 359.377 379.51 358.843 376.864C357.563 370.83 355.953 364.869 354.022 359.009C353.506 357.386 352.206 356.239 351.741 354.714C351.448 353.756 351.909 352.79 351.831 351.823C351.718 350.764 351.427 349.732 350.97 348.769C350.11 347.051 348.207 346.733 346.554 346.265C346.209 346.132 345.834 346.093 345.469 346.154C344.832 346.291 344.423 346.772 343.997 347.236C343.756 347.521 343.543 347.829 343.36 348.155Z" fill="#EAC5B0"/>
<path d="M307.922 399.466L307.754 397.357C305.314 397.928 302.296 398.216 299.671 398.869C296.309 397.696 292.543 397.623 289.452 395.841C287.278 394.591 285.647 392.602 284.063 390.656C282.048 388.182 281.132 385.584 278.187 386.563C275.984 387.298 273.069 391.206 271.3 392.791L268.748 395.098C268.536 395.26 268.385 395.488 268.317 395.746C268.31 395.943 268.353 396.138 268.442 396.313C270.762 401.828 274.219 407.378 278.846 411.256C281.73 413.674 283.942 416.41 286.043 419.34C284.984 426.917 286.043 435.004 286.043 442.534C286.043 445.644 283.942 478.936 285.539 479.013C291.083 479.292 296.903 478.352 302.43 477.853C304.956 477.63 307.922 478.18 308.482 475.371C308.882 473.356 308.607 470.96 308.667 468.928C308.873 461.557 309.083 454.188 309.295 446.821C309.347 444.883 310.031 416.179 310.156 416.179L303.7 404.465L307.922 399.466Z" fill="#5D66D3"/>
<path d="M352.133 393.637C352.069 393.378 351.916 393.149 351.702 392.989L349.145 390.682C347.393 389.097 344.475 385.184 342.258 384.454C339.31 383.475 338.384 386.069 336.379 388.543C334.799 390.489 333.163 392.478 330.989 393.732C327.679 395.639 323.59 395.583 320.052 397.026C319.845 397.113 319.642 397.211 319.445 397.318C318.791 397.185 318.093 397.035 317.332 396.846C315.855 396.485 312.67 395.338 313.458 398.255C313.914 399.925 316.587 402.013 317.715 403.353L311.258 415.062L312.265 450.553L312.73 466.909C312.786 468.803 312.833 470.693 312.894 472.588C312.92 473.447 312.687 474.868 313.174 475.56C314.228 477.067 318.081 476.599 319.759 476.728C322.385 476.934 325.041 477.158 327.507 478.051C329.151 478.652 330.71 479.559 332.444 479.804C332.636 479.849 332.835 479.856 333.029 479.824C333.223 479.793 333.409 479.723 333.576 479.619C333.725 479.458 333.84 479.268 333.914 479.061C333.988 478.855 334.02 478.635 334.007 478.416C334.609 470.294 334.622 461.923 335.074 453.71C335.444 446.992 336.366 439.897 335.802 433.17C335.802 433.059 335.802 432.943 335.763 432.835C334.644 426.783 335.376 421.505 335.005 416.35C336.892 413.692 339.096 411.273 341.57 409.147C346.197 405.282 349.649 399.719 351.973 394.2C352.075 394.03 352.13 393.836 352.133 393.637Z" fill="#5D66D3"/>
<path d="M433.817 382.933C433.963 382.93 434.108 382.95 434.248 382.994C435.453 383.423 435.827 384.355 436.869 385.085C437.334 385.412 438.685 384.866 438.638 386.047C438.638 386.477 438.431 387.547 438.384 388.479C438.32 389.836 439.056 391.593 439.899 392.881C443.209 397.941 447.815 401.961 452.49 405.797C452.741 406.036 453.044 406.212 453.376 406.312C453.983 406.441 454.56 406.055 455.064 405.694C457.402 404.038 459.887 402.6 462.489 401.399C464.809 400.329 467.288 399.436 469.845 399.47C472.402 399.504 475.062 400.604 476.405 402.773C476.902 403.594 477.197 404.52 477.266 405.477C477.335 406.433 477.175 407.392 476.801 408.275C474.907 412.622 467.968 412.536 463.965 413.253C460.172 413.934 456.336 414.347 452.485 414.49C452.011 414.539 451.533 414.49 451.078 414.349C450.618 414.134 450.209 413.825 449.877 413.442C445.288 408.812 441.135 403.804 437.058 398.688C435.939 397.279 435.702 395.467 434.657 394.174C433.989 393.354 432.87 393.186 432.074 392.546C431.207 391.83 430.469 390.971 429.892 390.008C428.897 388.29 429.737 386.387 430.322 384.669C430.408 384.291 430.594 383.942 430.86 383.659C431.359 383.183 432.022 383.11 432.677 383.011C433.053 382.949 433.435 382.923 433.817 382.933Z" fill="#EAC5B0"/>
<path d="M465.829 416.239C461.77 416.878 457.652 417.06 453.553 416.784C452.569 416.762 451.602 416.531 450.716 416.105C450.026 415.672 449.411 415.129 448.895 414.499C445.71 411.008 442.526 407.518 439.344 404.027C438.888 403.529 438.401 402.885 438.616 402.249C438.791 401.882 439.079 401.581 439.439 401.39L444.049 398.224C444.307 398.004 444.63 397.871 444.97 397.846C445.285 397.891 445.575 398.043 445.792 398.276C447.294 399.565 448.082 401.596 449.705 402.747C451.185 403.804 453.148 403.959 454.943 403.576C462.407 401.974 469.113 395.926 475.604 392.151C479.048 390.149 482.603 388.105 486.554 387.718C494.995 386.894 500.234 396.738 494.048 402.949C488.801 408.219 482.043 412.034 474.95 414.22C471.964 415.117 468.915 415.791 465.829 416.239Z" fill="#3B3387"/>
<path d="M484.932 543.076L486.257 552.603L480.597 553.385L479.125 542.819L484.932 543.076Z" fill="#EDCEAF"/>
<path d="M480.92 551.83L486.051 552.839L487.717 554.235L487.936 558.006L474.739 560.699C474.433 560.353 474.21 559.941 474.089 559.495C473.968 559.049 473.952 558.582 474.042 558.128C474.131 557.675 474.324 557.249 474.605 556.882C474.887 556.515 475.249 556.218 475.664 556.013L476.258 555.726L480.92 551.83Z" fill="#292949"/>
<path d="M525.914 505.442C528.307 504.651 530.627 503.092 533.033 502.534C533.158 504.402 533.335 506.266 533.494 508.117C530.612 509.512 527.558 510.523 524.412 511.124C524.915 509.269 525.561 507.374 525.914 505.442Z" fill="#EDCEAF"/>
<path d="M533.657 508.019C533.48 507.786 533.367 507.51 533.33 507.22C532.977 505.845 532.039 502.066 533.356 500.876C533.567 500.687 533.666 500.876 533.855 500.966C536.849 502.378 539.552 504.334 541.827 506.735C542.903 507.826 543.945 509.187 544.018 510.772C544.004 511.402 543.824 512.016 543.497 512.555C543.119 513.338 542.667 514.083 542.146 514.779C541.956 515.037 541.801 515.325 541.435 515.299C540.699 515.248 540.346 514.41 540.204 513.719C540.062 513.027 540.006 512.189 539.546 511.61C539.331 511.376 539.074 511.185 538.788 511.047C536.937 510.003 534.979 509.9 533.657 508.019Z" fill="#292949"/>
<path d="M484.764 500.433C489.378 508.594 496.171 512.185 504.345 514.715C513.698 517.614 521.756 516.029 530.089 511.382C530.231 508.607 529.964 505.85 530.171 503.221C520.904 504.69 516.431 504.364 510.173 496.104C501.134 484.163 510.113 466.587 507.633 452.164C507.393 450.494 506.858 448.88 506.053 447.396C496.235 430.482 478.566 441.787 476.383 457.275C474.433 471.157 477.877 488.226 484.764 500.433Z" fill="#292949"/>
<path d="M501.878 450.862C501.332 446.18 500.219 441.58 498.564 437.165C490.571 437.732 481.669 439.725 473.999 442.302C466.5 444.819 461.912 447.082 462.898 455.415C464.705 470.74 460.315 484.532 459.583 499.578C459.153 508.319 462.704 515.647 466.574 523.202C471.004 531.86 474.966 540.75 478.441 549.832L486.43 548.789C487.583 536.65 484.966 524.516 483.679 512.395C482.788 503.968 482.573 495.257 484.686 486.985C487.007 477.892 492.34 480.735 497.333 475.006C502.192 469.448 502.963 459.758 501.878 450.862Z" fill="#292949"/>
<path d="M491.186 391.571C492.091 392.24 492.94 392.979 493.726 393.783L495.878 395.879C498.379 398.306 499.752 402.009 500.91 405.2C507.091 422.003 510.13 445.313 507.478 463.297C494.29 465.062 478.807 462.438 465.506 461.27C464.215 461.158 462.743 460.939 462.024 459.861C461.649 459.165 461.469 458.382 461.503 457.593C460.969 446.279 462.794 434.008 464.516 422.75C465.223 417.993 466.21 413.282 467.473 408.641C468.829 403.735 470.375 398.435 473.93 394.608C477.718 390.51 485.229 388.221 490.347 391.039C490.636 391.201 490.916 391.379 491.186 391.571Z" fill="#3B3387"/>
<path d="M489.852 394.015L490.355 389.364C490.662 389.2 490.958 389.018 491.242 388.818C496.597 385.038 504.969 365.71 490.05 362.188C476.5 358.975 478.058 377.294 481.011 384.823C481.492 386.117 482.204 387.313 483.111 388.354C483.748 389.059 483.877 388.913 483.83 389.767C483.783 390.622 483.008 391.563 482.861 392.439C482.765 392.905 482.764 393.385 482.858 393.852C482.952 394.318 483.139 394.761 483.408 395.153C483.777 395.606 484.249 395.962 484.786 396.193C485.616 396.617 486.565 396.749 487.48 396.567C488.569 396.296 489.736 395.123 489.852 394.015Z" fill="#FEE0D4"/>
<path d="M477.563 378.024C478.5 380.429 479.752 382.699 481.286 384.776C480.996 380.256 481.331 375.718 482.28 371.289C482.395 370.96 482.375 370.599 482.224 370.284C482.116 370.162 481.984 370.063 481.836 369.994C481.688 369.924 481.527 369.886 481.364 369.88C475.686 368.931 475.936 373.832 477.563 378.024Z" fill="#1A3151"/>
<path d="M492.676 384.132C493.64 385.356 495.603 384.922 496.98 384.158C502.576 381.022 505.589 373.952 504.043 367.75C502.752 362.557 495.925 358.936 494.892 365.495C494.526 367.819 496.085 370.941 495.882 373.514C495.577 377.187 494.036 380.756 492.676 384.132Z" fill="#1A3151"/>
<path d="M476.676 357.974C476.048 358.258 475.385 358.554 474.73 358.855C473.336 359.477 472.316 359.714 470.809 358.953C470.379 358.734 467.439 356.213 468.089 355.629C463.784 359.495 467.719 364.649 469.578 368.338C470.831 370.83 471.235 374.408 473.861 375.95C476.749 377.668 478.561 375.245 481.058 374.09C483.262 373.072 485.664 372.462 487.911 371.543C491.634 370.014 497.161 367.381 495.658 362.415C493.915 356.617 487.889 355.431 482.556 356.131C480.513 356.44 478.529 357.062 476.676 357.974Z" fill="#1A3151"/>
<path d="M474.821 399.251C474.961 399.215 475.106 399.199 475.251 399.204C476.542 399.32 477.119 400.136 478.307 400.591C478.837 400.797 480.029 399.938 480.261 401.094C480.352 401.523 480.425 402.601 480.61 403.512C480.881 404.843 482.026 406.368 483.158 407.408C485.311 409.383 493.278 412.283 492.662 415.998C491.216 424.687 479.68 410.917 478.393 409.955C477.533 409.319 476.422 409.431 475.484 409.01C474.468 408.526 473.542 407.874 472.746 407.081C471.36 405.642 471.704 403.611 471.833 401.807C471.824 401.417 471.921 401.033 472.113 400.694C472.475 400.11 473.099 399.874 473.715 399.62C474.07 399.46 474.44 399.336 474.821 399.251Z" fill="#EAC5B0"/>
<path d="M509.338 426.646C508.218 430.232 501.198 427.891 498.736 426.818C493.567 424.611 488.694 421.77 484.23 418.36C483.924 418.179 483.701 417.887 483.606 417.544C483.605 417.195 483.735 416.857 483.972 416.599L487.738 411.312C487.976 410.91 488.314 410.575 488.72 410.341C490.317 409.602 492.507 411.69 494.13 411.857C494.582 407.88 492.193 404.508 491.014 400.892C489.404 395.939 495.077 394.616 498.142 397.159C501.895 400.273 504.422 404.912 506.032 409.426C507.779 414.323 508.614 419.494 509.411 424.627C509.542 425.297 509.517 425.987 509.338 426.646Z" fill="#3B3387"/>
<path d="M367.245 382.5C366.535 381.774 365.846 381.027 365.171 380.404C365.059 379.433 364.943 378.462 364.831 377.492C364.8 377.347 364.815 377.197 364.874 377.062C364.952 376.955 365.058 376.87 365.179 376.817L366.733 375.958C366.833 375.896 366.944 375.855 367.06 375.838C367.314 375.838 367.517 376.044 367.676 376.242C368.227 376.933 370.185 379.248 370.258 377.376C370.276 377.232 370.337 377.098 370.434 376.991C370.531 376.884 370.66 376.81 370.801 376.779C371.086 376.726 371.379 376.733 371.662 376.8C371.868 376.834 372.092 376.899 372.178 377.096C372.2 377.188 372.2 377.284 372.178 377.376C372.028 378.368 371.83 379.205 372.032 380.21C372.23 381.319 372.428 382.431 372.622 383.539C372.622 383.595 371.167 384.342 371.033 384.424C370.258 384.901 370.577 385.111 369.703 384.574C368.807 383.979 367.982 383.283 367.245 382.5Z" fill="#EAC5B0"/>
<path d="M403.987 402.18L384.768 404.577L375.053 383.221L369.987 386.224L375.187 417.66L381.906 424.696L395.129 423.605L403.987 402.18Z" fill="#D67086"/>
<path d="M418.287 468.309L411.232 513.615L413.737 546.349L408.602 547.947L404.005 517.704L394.195 462.434L418.287 468.309Z" fill="#EAC5B0"/>
<path d="M408.615 548.871L408.047 552.259L409.334 558.707L413.573 558.35L414.374 548.802L413.75 547.273L408.615 548.871Z" fill="#292949"/>
<path d="M376.736 466.961L379.001 505.39L388.591 559.11L393.786 559.05L391.479 509.238L398.22 463.318L376.736 466.961Z" fill="#EAC5B0"/>
<path d="M388.677 558.195L382.035 562.542L382.862 565.794L395.026 563.204L394.036 558.509L388.677 558.195Z" fill="#292949"/>
<path d="M375.592 472.721L375.807 517.327L381.919 547.402L395.84 545.391L395.435 510.63L398.323 472.446L396.894 466.665L376.758 468.705L375.592 472.721Z" fill="#292949"/>
<path d="M400.294 511.287L404.603 542.922L416.711 541.238L413.935 511.124L418.425 472.613L415.786 462.185L395.448 465.243L400.294 511.287Z" fill="#292949"/>
<path d="M424.283 416.642C422.944 412.167 420.585 404.543 416.634 402.391L416.384 402.253C415.575 401.833 414.738 401.468 413.879 401.162C412.304 400.17 410.035 399.745 407.797 399.874C405.797 399.718 403.786 399.912 401.853 400.445C400.988 400.73 400.154 401.099 399.36 401.545C396.989 402.777 395.172 403.31 393.7 405.728C392.409 407.828 391.656 410.281 390.687 412.549C382.582 431.512 375.996 456.824 370.736 476.861C373.224 476.621 375.712 476.217 378.196 475.822C389.602 477.11 402.632 480.546 412.695 483.957C415.709 485.748 418.683 487.634 421.627 489.541C420.839 489.072 424.442 473.227 424.713 471.428C425.738 464.959 426.633 458.465 427.244 451.949C428.394 439.841 427.726 428.192 424.283 416.642Z" fill="#D67086"/>
<path d="M419.44 385.571C417.344 377.62 406.286 374.24 403.157 383.153C402.218 385.828 401.577 388.689 401.952 391.507C402.326 394.324 403.845 397.09 406.342 398.379L406.385 398.401C406.815 398.62 404.405 403.19 404.233 403.555C403.943 404.117 403.719 404.711 403.566 405.324C403.273 406.695 403.69 408.116 404.177 409.431C404.624 410.635 405.137 411.813 405.714 412.961C405.755 413.065 405.821 413.156 405.907 413.228C406.127 413.382 406.428 413.228 406.652 413.082C408.436 411.866 410.002 410.359 411.283 408.623C411.629 408.221 411.891 407.754 412.053 407.249C412.214 406.745 412.273 406.213 412.226 405.685C412.226 404.122 410.896 400.265 411.688 399.041C411.989 398.577 413.457 398.233 413.969 397.924C414.807 397.396 415.571 396.761 416.242 396.034C418.773 393.336 420.409 389.252 419.44 385.571Z" fill="#EAC5B0"/>
<path d="M403.282 385.605C402.029 387.624 402.102 390.094 402.421 392.366C402.739 394.638 402.485 396.76 403.002 398.963C402.765 399.307 402.236 399.079 401.909 398.826C399.972 397.345 398.056 395.836 396.162 394.299C395.918 394.153 395.728 393.933 395.619 393.67C395.511 393.408 395.49 393.118 395.56 392.843C395.99 386.666 398.426 382.152 401.896 377.277C403.579 374.91 408.077 372.294 410.629 375.129C411.164 375.824 411.492 376.654 411.576 377.526C411.695 378.034 411.711 378.562 411.624 379.076C411.159 381.099 409.261 380.988 407.775 381.654C405.919 382.499 404.356 383.874 403.282 385.605Z" fill="#292949"/>
<path d="M417.396 389.673C417.348 391.537 417.027 393.385 416.445 395.158C416.26 395.738 415.153 397.095 415.106 397.49C415.003 398.633 417.357 401.317 417.973 402.318L429.018 396.197C429.314 396.063 429.571 395.854 429.762 395.592C429.888 395.323 429.948 395.029 429.939 394.733C430.146 388.917 428.648 383.685 426.422 378.411C424.197 373.136 419.221 368.871 413.35 369.236C408.615 369.533 405.292 373.025 407.022 377.9C408.314 381.581 412.919 382.358 415.42 384.875C416.08 385.483 416.598 386.227 416.939 387.056C417.281 387.885 417.436 388.778 417.396 389.673Z" fill="#292949"/>
<path d="M192.681 364.314C192.606 364.416 192.546 364.527 192.5 364.645C192.151 365.727 192.616 366.496 192.577 367.63C192.577 368.137 191.445 368.802 192.31 369.408C192.629 369.627 193.494 370.065 194.179 370.533C195.181 371.216 196.038 372.681 196.499 373.97C198.319 379.051 198.707 384.48 198.918 389.862C198.955 390.169 198.916 390.48 198.806 390.768C198.573 391.266 197.984 391.468 197.458 391.627C195.016 392.391 192.65 393.379 190.391 394.578C188.376 395.643 186.405 396.923 185.049 398.753C183.693 400.583 183.047 403.048 183.87 405.196C184.187 405.99 184.689 406.697 185.333 407.261C185.977 407.824 186.745 408.228 187.576 408.439C191.695 409.435 195.371 404.47 198.044 401.996C200.571 399.672 202.931 397.175 205.107 394.522C205.398 394.211 205.622 393.844 205.766 393.444C205.861 393.002 205.861 392.546 205.766 392.104C204.878 386.372 203.68 380.693 202.176 375.091C201.78 373.54 200.614 372.393 200.256 370.954C200.033 370.039 200.515 369.155 200.493 368.24C200.448 367.24 200.233 366.255 199.856 365.328C199.159 363.687 197.364 363.266 195.831 362.75C195.515 362.606 195.165 362.552 194.82 362.592C194.252 362.743 193.747 363.071 193.378 363.528C193.122 363.768 192.888 364.031 192.681 364.314Z" fill="#EAC5B0"/>
<path d="M196.408 402.168C194.974 399.066 193.53 395.967 192.078 392.868C192.173 393.066 177.581 398.538 176.724 398.882C173.449 400.239 170.07 401.669 167.664 404.264C162.528 409.809 166.717 418.824 174.477 417.789C182.897 416.66 191.596 412.227 197.609 406.265C197.747 406.149 197.855 406.002 197.924 405.836C197.959 405.584 197.906 405.327 197.773 405.11L196.408 402.168Z" fill="#D67086"/>
<path d="M122.67 491.164C122.476 492.333 122.347 493.509 122.239 494.6C122.076 496.452 122.368 498.565 121.899 500.369C121.68 501.075 121.498 501.792 121.353 502.517C121.21 503.247 121.321 504.005 121.667 504.664C122.123 505.403 122.958 505.665 123.703 505.832C124.394 506.032 125.122 506.069 125.829 505.94C127.241 505.592 128.283 504.071 128.713 502.439C129.23 500.485 128.971 498.573 128.898 496.585C128.898 493.466 128.063 490.808 128.192 487.664C128.269 487.136 128.177 486.598 127.93 486.126C127.756 485.905 127.53 485.73 127.273 485.616C127.016 485.502 126.734 485.453 126.453 485.473C125.338 485.503 124.258 485.817 123.81 486.878C123.267 488.258 122.885 489.697 122.67 491.164Z" fill="#292949"/>
<path d="M125.588 488.69C125.006 489.198 124.513 489.799 124.129 490.469C123.845 490.898 123.556 491.469 123.845 491.903C123.959 492.059 124.106 492.188 124.275 492.281L126.402 493.57C126.538 493.672 126.705 493.726 126.875 493.724C127.012 493.694 127.136 493.623 127.232 493.522C127.918 492.946 128.57 492.329 129.182 491.676C131.976 488.729 128.072 486.758 125.588 488.69Z" fill="#EAC5B0"/>
<path d="M174.495 462.489C174.314 461.806 173.724 461.321 173.109 460.904C166.85 456.668 159.837 453.665 152.448 452.056C151.819 451.919 147.816 464.323 147.433 465.53C145.939 470.204 144.665 474.941 143.559 479.726C142.368 484.966 141.136 490.198 139.862 495.421C137.431 493.036 134.822 490.84 132.058 488.849C131.612 488.462 131.066 488.209 130.482 488.119C129.772 488.076 129.122 488.497 128.558 488.931C127.573 489.686 126.653 490.522 125.808 491.431C125.498 491.711 125.276 492.075 125.171 492.479C125.145 492.893 125.235 493.306 125.429 493.673C128.171 500.201 132.518 510.699 136.001 516.867C137.688 519.873 140.916 520.878 144.179 520.621C144.919 520.541 145.644 520.354 146.331 520.067C147.192 519.762 148.135 519.766 149.008 519.465C149.567 519.227 150.057 518.851 150.433 518.374C153.941 514.479 156.334 509.007 158.452 504.26C160.712 499.08 162.671 493.774 164.319 488.368C164.444 487.973 164.569 487.578 164.698 487.187C167.358 479.138 170.948 472.214 174.168 464.315C174.481 463.761 174.596 463.117 174.495 462.489Z" fill="#353A85"/>
<path d="M164.551 554.33C165.696 554.759 166.897 554.695 168.068 554.918C169.257 550.946 170.035 546.863 170.392 542.733C168.021 544.137 166.889 542.539 165.804 546.229C165.455 547.419 165.348 552.594 164.551 554.33Z" fill="#EAC5B0"/>
<path d="M169.269 553.711C169.269 555.979 171.06 558.436 172.05 560.463C172.184 560.695 172.266 560.953 172.291 561.219C172.251 561.616 172.087 561.99 171.822 562.289C171.541 562.766 171.129 563.153 170.633 563.401C170.113 563.558 169.557 563.558 169.037 563.401C168.15 563.208 167.276 562.972 166.411 562.701C166.191 562.645 165.984 562.549 165.8 562.418C165.605 562.234 165.451 562.011 165.348 561.765C164.736 560.536 164.22 559.664 164.25 558.299C164.28 556.933 164.465 555.425 164.207 554.029C164.078 553.35 163.91 552.483 164.491 552.109C164.943 551.821 165.782 552.216 166.256 552.298C167.117 552.44 167.922 552.384 168.718 552.839C168.89 552.921 169.038 553.045 169.148 553.2C169.236 553.356 169.278 553.533 169.269 553.711Z" fill="#292949"/>
<path d="M163.372 481.766C163.88 491.839 164.96 501.872 164.194 512.013C163.251 524.542 164.052 537.295 162.636 549.704C164.067 550.199 165.533 550.587 167.022 550.863C168.744 551.181 171.486 551.551 172.618 549.94C173.207 549.119 173.349 547.526 173.603 546.56C174.408 543.463 175.14 540.344 175.868 537.226C177.921 528.408 180.211 519.543 181.274 510.553C182.393 501.103 183.594 491.62 184.915 482.204C185.595 477.347 186.095 472.467 186.357 467.566C186.426 466.304 187.098 453.289 186.465 453.195C178.983 452.083 171.357 452.407 163.996 454.148C163.278 454.249 162.621 454.603 162.141 455.145C161.808 455.693 161.674 456.339 161.762 456.974C161.9 463.117 162.774 469.104 163.053 475.259C163.161 477.42 163.264 479.567 163.372 481.766Z" fill="#353A85"/>
<path d="M159.132 400.948C159.012 400.986 158.887 401.029 158.766 401.076C156.739 401.845 155.013 403.224 153.326 404.59C150.79 406.634 149.542 407.528 148.561 410.556C147.703 413.416 147.02 416.324 146.516 419.267C143.645 434.201 143.073 449.075 141.028 464.122C140.468 468.219 140.034 473.034 143.073 475.847C148.457 471.664 155.228 471.423 161.758 471.415C166.346 471.415 170.832 469.929 175.429 470.44C179.824 470.929 183.663 469.834 188.122 470.122C189.198 470.191 190.567 470.178 190.993 469.19C189.448 464.577 189.474 459.612 189.125 454.758C188.221 442.199 184.055 430.151 182.372 417.682C181.799 413.442 181.511 406.407 178.205 403.198C174.632 399.711 166.476 399.638 161.883 400.32C160.949 400.447 160.029 400.657 159.132 400.948Z" fill="#D67086"/>
<path d="M162.542 400.737C162.622 400.897 162.728 401.042 162.856 401.167C163.409 401.681 164.111 402.008 164.862 402.099C165.836 402.189 166.819 402.119 167.771 401.893C169.063 401.644 169.024 400.888 169.213 399.711C169.317 399.071 169.381 398.422 169.429 397.774C169.454 397.421 169.317 396.146 169.545 395.897C169.7 395.729 170.324 395.785 170.599 395.643C171.036 395.386 171.402 395.025 171.663 394.591C172.048 393.918 172.338 393.196 172.523 392.443L173.711 388.556C174.16 387.245 174.475 385.893 174.65 384.519C174.848 382.444 174.512 379.51 172.928 377.994C171.495 376.607 169.403 376.121 167.487 375.881C164.936 375.524 162.339 376.047 160.127 377.363C159.195 377.891 158.42 378.655 157.88 379.579C157.071 381.07 157.135 382.934 157.221 384.678L157.458 389.501C157.553 391.348 157.781 393.478 159.18 394.483C159.916 395.016 160.902 395.128 161.513 395.811C162.305 396.67 162.253 397.958 162.283 399.036C162.245 399.615 162.333 400.196 162.542 400.737Z" fill="#EAC5B0"/>
<path d="M170.578 379.948C170.663 380.099 170.735 380.257 170.793 380.421C171.09 381.28 170.892 382.233 171.18 383.088C171.636 384.445 173.22 385.257 173.462 386.67C173.655 387.821 172.868 388.921 172.799 390.085C172.725 391.374 173.543 392.572 173.418 393.83C173.208 395.096 172.709 396.297 171.959 397.34C172.162 397.065 173.995 397.164 174.473 396.871C175.2 396.442 175.287 396.15 175.502 395.39C175.717 394.629 175.549 393.895 175.885 393.122C176.315 392.177 177.146 391.481 177.439 390.472C177.843 389.097 177.112 387.641 177.168 386.206C177.254 384.059 179.135 381.993 178.459 379.931C178.059 378.72 176.879 377.947 176.216 376.856C175.713 376.027 175.528 375.052 175.179 374.15C174.83 373.248 174.232 372.346 173.302 372.071C172.771 371.98 172.235 371.917 171.697 371.882C170.784 371.71 170.022 371.083 169.14 370.782C167.879 370.353 165.653 371.641 164.913 372.698C164.173 373.755 164.551 374.657 165.3 375.597C166.54 377.156 169.549 378.174 170.578 379.948Z" fill="#292949"/>
<path d="M153.58 373.54C152.826 374.094 151.892 374.493 151.199 375.138C149.852 376.4 149.598 378.419 149.551 380.262C149.508 381.903 148.784 383.359 148.965 385.068C149.003 385.646 149.161 386.211 149.429 386.725C149.697 387.239 150.07 387.691 150.523 388.053C151.69 388.912 153.537 389.037 154.04 390.377C154.604 391.833 153.093 393.667 154.01 394.934C154.518 395.63 155.508 395.733 156.235 396.201C157.04 396.725 157.458 397.662 157.957 398.486C158.456 399.311 159.192 400.14 160.157 400.157C160.195 398.697 160.238 397.541 159.614 396.201C159.248 395.424 158.177 393.989 158.999 393.143C159.52 392.443 160.746 392.215 160.781 391.343C160.73 390.935 160.556 390.551 160.281 390.244C159.862 389.568 159.61 388.802 159.545 388.01C159.481 387.217 159.606 386.421 159.911 385.687C160.545 384.215 161.699 383.028 163.153 382.349C164.831 381.542 164.56 381.134 165.046 379.532C165.477 378.058 166.338 377.715 167.659 377.178C168.856 376.697 169.239 376.396 169.678 375.279C170.001 374.468 170.397 373.488 169.928 372.578C169.5 371.887 168.923 371.301 168.24 370.86C166.889 369.829 165.369 368.746 163.673 368.871C162.731 368.935 161.844 369.378 160.901 369.434C160.273 369.468 159.644 369.33 159.016 369.309C157.916 369.271 156.834 369.597 155.938 370.237C155.077 370.881 155.077 371.551 154.6 372.466C154.348 372.898 153.999 373.266 153.58 373.54Z" fill="#292949"/>
<path d="M157.38 367.527C157.544 366.509 157.44 365.181 156.463 364.838C155.93 364.649 155.331 364.859 154.776 364.743C153.592 364.503 153.192 363.077 152.572 362.042C152.489 361.88 152.36 361.746 152.202 361.655C151.95 361.596 151.688 361.603 151.44 361.677C150.261 361.818 149.365 360.659 148.259 360.242C147.562 360.011 146.802 360.065 146.144 360.39C145.486 360.716 144.984 361.288 144.747 361.981C144.579 362.561 144.605 363.18 144.445 363.76C143.8 366.113 140.352 367.11 140.262 369.55C140.206 371.195 141.82 372.771 141.191 374.296C140.791 375.271 139.534 375.937 139.676 376.98C139.754 377.311 139.946 377.604 140.218 377.808C140.49 378.012 140.826 378.114 141.165 378.097C141.849 378.044 142.492 377.752 142.982 377.272C143.791 376.564 144.402 375.657 145.177 374.906C145.952 374.154 146.985 373.548 148.053 373.682C149.12 373.815 150.028 374.618 151.066 374.446C151.888 374.309 152.503 373.587 153.308 373.368C154.113 373.149 154.853 373.471 155.637 373.518C156.42 373.566 157.359 373.158 157.393 372.38C157.365 372.194 157.365 372.004 157.393 371.818C157.561 371.315 158.418 371.341 158.581 370.838C158.176 370.211 157.6 370.434 157.29 369.618C157.087 368.987 157.277 368.167 157.38 367.527Z" fill="#292949"/>
<path d="M157.755 459.732C157.786 459.611 157.8 459.487 157.798 459.363C157.707 458.229 156.984 457.688 156.588 456.627C156.412 456.154 157.191 455.115 156.158 454.883C155.779 454.797 154.815 454.72 154.006 454.548C152.818 454.294 151.466 453.259 150.562 452.241C146.942 448.234 144.536 443.354 142.272 438.454C142.121 438.184 142.038 437.882 142.031 437.573C142.057 437.023 142.526 436.615 142.948 436.263C144.917 434.632 146.729 432.821 148.363 430.855C149.822 429.103 151.156 427.174 151.711 424.967C152.267 422.759 151.922 420.216 150.355 418.567C149.759 417.947 149.023 417.477 148.209 417.198C147.394 416.919 146.525 416.837 145.672 416.96C141.484 417.596 139.973 423.584 138.437 426.865C136.985 429.974 135.753 433.181 134.748 436.461C134.599 436.858 134.532 437.282 134.55 437.706C134.629 438.152 134.804 438.575 135.062 438.948C138.072 443.921 141.351 448.727 144.885 453.345C145.844 454.634 147.36 455.248 148.233 456.442C148.793 457.206 148.664 458.207 149.051 459.045C149.472 459.953 150.046 460.782 150.747 461.497C152.017 462.752 153.838 462.46 155.456 462.356C155.803 462.369 156.147 462.288 156.45 462.12C156.908 461.767 157.243 461.281 157.41 460.729C157.557 460.408 157.672 460.074 157.755 459.732Z" fill="#EAC5B0"/>
<path d="M139.896 426.13L147.442 433.093C147.282 432.943 158.693 422.355 159.352 421.698C161.866 419.202 164.448 416.595 165.684 413.283C168.322 406.209 161.013 399.453 154.234 403.357C146.873 407.592 140.511 414.989 137.223 422.785C137.136 422.948 137.095 423.132 137.102 423.317C137.169 423.566 137.321 423.783 137.533 423.931L139.896 426.13Z" fill="#D67086"/>
<path d="M202.049 366.911C217.393 351.6 217.393 326.776 202.049 311.465C186.705 296.154 161.828 296.154 146.484 311.465C131.14 326.776 131.14 351.6 146.484 366.911C161.828 382.222 186.705 382.222 202.049 366.911Z" fill="white"/>
<g opacity="0.08">
<path opacity="0.08" d="M203.158 312.548C205.732 321.042 205.343 330.155 202.055 338.4C198.766 346.645 192.773 353.533 185.053 357.938C177.334 362.343 168.345 364.005 159.556 362.653C150.767 361.3 142.698 357.013 136.668 350.492C138.378 356.134 141.342 361.32 145.338 365.662C149.334 370.004 154.259 373.391 159.748 375.571C165.238 377.751 171.149 378.668 177.042 378.253C182.935 377.839 188.659 376.104 193.787 373.177C198.916 370.251 203.317 366.208 206.663 361.349C210.009 356.491 212.215 350.942 213.115 345.116C214.016 339.29 213.588 333.336 211.864 327.697C210.14 322.058 207.164 316.88 203.158 312.548Z" fill="black"/>
</g>
<path opacity="0.2" d="M140.468 333.964C142.537 326.647 146.849 320.16 152.8 315.413C158.751 310.666 166.043 307.898 173.651 307.498C181.259 307.097 188.802 309.083 195.221 313.178C201.64 317.273 206.613 323.271 209.442 330.33C208.22 325.498 206.016 320.968 202.968 317.021C199.919 313.073 196.091 309.792 191.72 307.381C187.349 304.97 182.529 303.48 177.557 303.004C172.586 302.528 167.57 303.076 162.819 304.613C158.068 306.15 153.685 308.644 149.939 311.941C146.194 315.238 143.167 319.267 141.046 323.779C138.925 328.29 137.754 333.189 137.608 338.17C137.461 343.152 138.341 348.11 140.193 352.738C138.631 346.565 138.726 340.089 140.468 333.964Z" fill="white"/>
<path d="M165.709 326.894C164.978 329.471 163.127 331.228 161.599 330.794C160.071 330.36 159.408 327.912 160.14 325.322C160.871 322.732 162.722 320.988 164.25 321.422C165.778 321.856 166.45 324.304 165.709 326.894Z" fill="#292949"/>
<path d="M193.567 334.737C192.836 337.314 190.985 339.071 189.457 338.641C187.929 338.212 187.266 335.755 187.997 333.169C188.729 330.584 190.58 328.831 192.108 329.265C193.636 329.699 194.303 332.151 193.567 334.737Z" fill="#292949"/>
<path d="M147.85 335.6C146.799 342.029 148.156 348.618 151.662 354.112C155.168 359.606 160.577 363.62 166.859 365.388C173.141 367.157 179.856 366.556 185.722 363.701C191.589 360.846 196.197 355.936 198.668 349.908L147.85 335.6Z" fill="#292949"/>
<path d="M151.277 353.473C154.68 359.159 160.094 363.366 166.452 365.266C172.81 367.166 179.651 366.621 185.626 363.738L185.544 363.124C170.832 350.02 151.539 353.426 151.277 353.473Z" fill="#D67086"/>
<path d="M410.566 527.932C437.912 500.644 437.912 456.402 410.566 429.114C383.22 401.827 338.883 401.827 311.537 429.114C284.191 456.402 284.191 500.644 311.537 527.932C338.883 555.219 383.22 555.219 410.566 527.932Z" fill="white"/>
<g opacity="0.08">
<path opacity="0.08" d="M397.69 418.88C406.225 432.207 409.978 448.028 408.335 463.758C406.692 479.488 399.751 494.197 388.646 505.481C377.541 516.766 362.929 523.958 347.198 525.882C331.466 527.807 315.546 524.35 302.038 516.076C307.71 524.926 315.308 532.385 324.268 537.899C333.227 543.414 343.318 546.842 353.788 547.928C364.258 549.015 374.839 547.732 384.744 544.175C394.649 540.618 403.623 534.879 410.998 527.383C418.374 519.888 423.961 510.831 427.344 500.884C430.727 490.937 431.82 480.356 430.54 469.93C429.261 459.504 425.642 449.499 419.953 440.661C414.264 431.823 406.652 424.378 397.682 418.88H397.69Z" fill="black"/>
</g>
<g opacity="0.2">
<path opacity="0.2" d="M300.544 485.89C300.534 472.336 304.78 459.119 312.685 448.097C320.59 437.074 331.757 428.8 344.617 424.437C357.477 420.073 371.383 419.84 384.383 423.769C397.383 427.698 408.823 435.593 417.095 446.344C412.657 438.64 406.681 431.929 399.537 426.625C392.393 421.321 384.234 417.537 375.564 415.51C366.895 413.482 357.9 413.252 349.138 414.836C340.376 416.42 332.034 419.782 324.628 424.715C317.222 429.649 310.91 436.047 306.085 443.514C301.259 450.982 298.021 459.359 296.573 468.126C295.125 476.893 295.497 485.864 297.666 494.481C299.836 503.099 303.756 511.18 309.183 518.224C303.507 508.391 300.528 497.238 300.544 485.89Z" fill="white"/>
</g>
<path d="M332.35 485.722C331.971 485.348 331.475 485.115 330.945 485.065C330.414 485.014 329.883 485.148 329.44 485.444C328.998 485.74 328.671 486.18 328.517 486.688C328.362 487.197 328.389 487.744 328.592 488.235C331.176 494.678 335.621 500.209 341.36 504.127C347.1 508.045 353.877 510.174 360.831 510.243C367.785 510.312 374.603 508.318 380.42 504.515C386.236 500.711 390.79 495.269 393.502 488.879C394.475 486.59 391.561 484.584 389.77 486.337C379.517 496.25 357.767 510.36 332.35 485.722Z" fill="#292949"/>
<path d="M335.255 469.731C338.106 469.731 340.416 465.847 340.416 461.055C340.416 456.263 338.106 452.378 335.255 452.378C332.405 452.378 330.094 456.263 330.094 461.055C330.094 465.847 332.405 469.731 335.255 469.731Z" fill="#292949"/>
<path d="M386.847 469.731C389.698 469.731 392.008 465.847 392.008 461.055C392.008 456.263 389.698 452.378 386.847 452.378C383.997 452.378 381.687 456.263 381.687 461.055C381.687 465.847 383.997 469.731 386.847 469.731Z" fill="#292949"/>
<path d="M517.46 362.92C517.97 340.177 499.906 321.327 477.114 320.819C454.321 320.311 435.432 338.336 434.923 361.08C434.413 383.823 452.477 402.673 475.269 403.181C498.061 403.689 516.951 385.664 517.46 362.92Z" fill="white"/>
<g opacity="0.08">
<path opacity="0.08" d="M496.123 325.872C501.516 333.483 504.163 342.694 503.632 352C503.101 361.306 499.423 370.158 493.198 377.109C486.974 384.059 478.572 388.699 469.364 390.268C460.156 391.838 450.687 390.246 442.503 385.751C446.089 390.807 450.77 394.99 456.2 397.991C461.629 400.991 467.666 402.732 473.863 403.082C480.059 403.433 486.255 402.385 491.99 400.017C497.724 397.648 502.85 394.02 506.985 389.402C511.121 384.784 514.159 379.295 515.875 373.343C517.591 367.391 517.94 361.13 516.897 355.025C515.853 348.92 513.443 343.128 509.846 338.081C506.25 333.034 501.559 328.86 496.123 325.872Z" fill="black"/>
</g>
<path opacity="0.2" d="M440.782 368.02C440.394 360.037 442.524 352.134 446.872 345.422C451.22 338.709 457.566 333.525 465.02 330.599C472.473 327.673 480.658 327.151 488.424 329.108C496.189 331.064 503.145 335.4 508.313 341.506C505.463 337.147 501.75 333.414 497.403 330.537C493.056 327.66 488.166 325.699 483.033 324.775C477.899 323.85 472.631 323.982 467.55 325.161C462.469 326.341 457.684 328.543 453.486 331.633C449.288 334.723 445.767 338.636 443.139 343.132C440.511 347.628 438.83 352.613 438.2 357.78C437.571 362.947 438.005 368.188 439.477 373.182C440.949 378.175 443.427 382.817 446.761 386.821C443.147 381.187 441.085 374.702 440.782 368.02Z" fill="white"/>
<path d="M465.175 353.894C464.547 352.517 463.523 351.358 462.234 350.564C460.945 349.769 459.448 349.375 457.933 349.431C456.419 349.487 454.955 349.991 453.728 350.879C452.502 351.767 451.567 352.999 451.043 354.418C450.948 354.683 450.947 354.972 451.041 355.238C451.134 355.503 451.316 355.729 451.556 355.877C451.796 356.025 452.079 356.086 452.359 356.05C452.638 356.014 452.897 355.884 453.092 355.68C455.275 353.357 458.809 351.411 463.242 355.324C463.453 355.512 463.722 355.621 464.005 355.634C464.287 355.646 464.565 355.561 464.792 355.393C465.019 355.225 465.182 354.985 465.252 354.711C465.322 354.438 465.294 354.149 465.175 353.894Z" fill="#292949"/>
<path d="M500.582 352.227C499.954 350.851 498.93 349.692 497.64 348.898C496.35 348.104 494.853 347.71 493.339 347.766C491.824 347.822 490.361 348.326 489.134 349.213C487.907 350.101 486.971 351.332 486.447 352.751C486.352 353.016 486.351 353.305 486.444 353.571C486.537 353.837 486.719 354.062 486.959 354.21C487.199 354.358 487.482 354.419 487.762 354.383C488.042 354.348 488.301 354.217 488.496 354.014C490.678 351.694 494.212 349.749 498.646 353.657C498.856 353.845 499.126 353.955 499.408 353.967C499.69 353.98 499.968 353.894 500.195 353.726C500.422 353.558 500.585 353.318 500.655 353.045C500.726 352.772 500.7 352.483 500.582 352.227Z" fill="#292949"/>
<path d="M458.137 370.628V370.572C457.943 366.47 454.788 362.841 450.316 363.06C446.76 363.227 444.819 365.873 444.225 368.291C443.412 365.938 441.212 363.485 437.674 363.652C433.197 363.863 430.399 367.763 430.593 371.869C430.593 371.891 430.593 371.912 430.593 371.934C430.615 372.827 431.062 381.916 445.181 388.685C458.61 380.61 458.201 371.517 458.137 370.628Z" fill="#D67086"/>
<path d="M477.287 384.888C475.99 384.948 474.703 384.637 473.578 383.991C472.452 383.346 471.535 382.393 470.935 381.245C470.334 380.096 470.075 378.801 470.187 377.51C470.3 376.22 470.78 374.988 471.571 373.961C470.943 373.283 470.459 372.484 470.151 371.614C469.843 370.743 469.715 369.819 469.777 368.897C469.839 367.976 470.088 367.077 470.51 366.255C470.932 365.433 471.517 364.706 472.23 364.117C472.943 363.529 473.769 363.092 474.658 362.832C475.546 362.573 476.478 362.498 477.396 362.61C478.315 362.723 479.201 363.021 480 363.487C480.799 363.952 481.494 364.576 482.043 365.319C482.227 365.568 482.303 365.879 482.257 366.184C482.21 366.49 482.043 366.764 481.794 366.947C481.544 367.13 481.232 367.206 480.926 367.159C480.62 367.113 480.346 366.947 480.162 366.698C479.781 366.177 479.292 365.745 478.727 365.431C478.163 365.118 477.537 364.93 476.892 364.881C476.248 364.832 475.601 364.922 474.995 365.147C474.39 365.371 473.84 365.724 473.384 366.18C472.928 366.637 472.576 367.187 472.353 367.792C472.131 368.397 472.042 369.043 472.093 369.686C472.145 370.329 472.335 370.953 472.652 371.515C472.968 372.077 473.402 372.564 473.925 372.943C474.066 373.045 474.183 373.178 474.265 373.331C474.348 373.485 474.395 373.655 474.404 373.829C474.412 374.002 474.381 374.176 474.313 374.336C474.245 374.497 474.142 374.64 474.011 374.755C473.528 375.181 473.143 375.705 472.882 376.292C472.62 376.88 472.489 377.517 472.497 378.16C472.506 378.802 472.653 379.436 472.929 380.016C473.205 380.597 473.604 381.111 474.098 381.524C474.592 381.937 475.169 382.238 475.791 382.408C476.412 382.577 477.063 382.611 477.698 382.506C478.334 382.401 478.939 382.16 479.473 381.801C480.007 381.441 480.456 380.97 480.791 380.421C480.866 380.282 480.969 380.16 481.093 380.062C481.217 379.964 481.36 379.892 481.513 379.851C481.666 379.81 481.826 379.8 481.982 379.822C482.139 379.845 482.289 379.899 482.425 379.981C482.56 380.063 482.677 380.172 482.768 380.301C482.86 380.43 482.924 380.576 482.957 380.731C482.991 380.885 482.992 381.045 482.961 381.2C482.931 381.355 482.869 381.502 482.78 381.632C482.201 382.582 481.398 383.376 480.44 383.944C479.483 384.511 478.4 384.835 477.287 384.888Z" fill="#292949"/>
<path d="M412.037 468.554C411.82 469.184 411.531 469.786 411.176 470.35C411.006 470.646 410.785 470.909 410.522 471.127C410.322 471.262 410.108 471.376 409.885 471.466L408.357 472.154C408.189 472.248 407.997 472.29 407.806 472.274C407.671 472.234 407.547 472.167 407.44 472.076C406.85 471.647 406.282 471.17 405.718 470.685C405.621 470.613 405.542 470.519 405.49 470.41C405.466 470.29 405.474 470.167 405.511 470.051C405.549 469.935 405.616 469.831 405.705 469.748C406.471 468.79 406.196 468.46 406.441 467.403C406.609 466.707 407.104 466.364 407.633 465.9C408.494 465.118 409.394 464.345 410.276 463.567C410.375 463.482 412.429 464.92 412.665 465.075C412.342 465.848 412.489 466.815 412.299 467.652C412.229 467.958 412.142 468.259 412.037 468.554Z" fill="#EAC5B0"/>
<path d="M413.208 408.245C412.814 408.625 412.476 409.059 412.205 409.534C410.965 411.634 410.784 414.237 411.206 416.647C411.873 420.457 413.746 424.082 414.839 427.793C416.093 432.036 417.344 436.279 418.593 440.52L408.486 464.319L413.376 467.064L431.071 440.653C429.138 435.099 427.223 429.683 425.652 424.047C424.24 419.001 423.758 413.271 420.189 409.182C418.171 406.871 415.244 406.355 413.208 408.245Z" fill="#D67086"/>
<path d="M220.961 529.976C220.061 534.855 219.325 540.417 222.497 544.3C225.558 548.037 231.037 548.716 235.94 549.102C244.118 549.755 252.968 550.258 259.924 546.014C262.311 544.55 264.343 542.573 265.87 540.229C267.398 537.884 268.384 535.23 268.757 532.458C268.82 532.114 268.813 531.76 268.735 531.419C268.548 530.95 268.241 530.538 267.844 530.225L258.994 521.845C257.771 520.445 256.097 519.515 254.259 519.216C246.468 517.344 236.314 514.869 228.256 516.098C221.253 517.163 222.024 524.216 220.961 529.976Z" fill="#292949"/>
<path d="M225.807 493.681C226.343 492.636 226.538 491.449 226.366 490.287C226.194 489.125 225.663 488.046 224.847 487.2L215.675 477.647C213.953 475.86 211.345 473.971 210.346 471.763C208.585 467.854 208.047 462.79 207.182 458.611C206.752 456.489 205.697 453.676 205.973 451.515C206.024 451.111 207.608 447.649 207.518 447.581L206.778 446.975L206.175 447.714L205.504 447.778L206.593 445.18L203.545 444.115L200.627 446.443C201.13 448.732 202.236 450.935 202.185 453.315C202.185 454.32 201.978 455.312 201.871 456.321C201.686 458.04 201.733 459.758 201.707 461.476C201.681 463.194 201.337 464.805 201.337 466.441C201.337 470.096 201.363 473.743 201.376 477.407L216.286 494.802C216.904 495.517 217.688 496.07 218.57 496.413C219.453 496.755 220.405 496.876 221.345 496.765C222.285 496.655 223.183 496.316 223.961 495.778C224.739 495.24 225.373 494.52 225.807 493.681Z" fill="#B97262"/>
<path d="M212.653 474.946C212.757 474.469 212.86 473.992 212.967 473.52C214.973 473.434 216.992 473.696 219.015 473.545C221.503 473.365 223.948 472.802 226.432 472.562C227.546 472.454 228.67 472.407 229.793 472.364C234.743 472.175 231.364 479.606 230.706 482.204C229.741 486.083 228.512 489.892 227.03 493.604C226.254 495.556 225.366 497.462 224.37 499.312C223.858 500.253 222.85 503.264 221.787 503.543C220.926 503.766 220.225 502.882 219.751 502.134C217.384 498.423 214.258 495.253 210.579 492.831C210.309 492.693 210.091 492.471 209.959 492.199C209.907 491.991 209.907 491.772 209.959 491.564C210.759 486.01 211.504 480.405 212.653 474.946Z" fill="#474EBB"/>
<path d="M253.829 492.045C253.291 491 253.095 489.813 253.266 488.651C253.437 487.489 253.968 486.409 254.785 485.563L263.961 476.011C265.683 474.22 268.292 472.334 269.286 470.126C271.046 466.218 271.589 461.154 272.45 456.974C272.88 454.853 273.935 452.035 273.664 449.879C273.612 449.471 272.024 446.013 272.118 445.944L272.859 445.339L273.457 446.077L274.128 446.142L273.044 443.539L276.087 442.478L279.01 444.806C278.506 447.095 277.395 449.299 277.447 451.678C277.469 452.683 277.654 453.676 277.761 454.685C277.946 456.403 277.899 458.121 277.925 459.839C277.951 461.557 278.299 463.168 278.295 464.805C278.295 468.46 278.269 472.106 278.256 475.77L263.346 493.166C262.728 493.881 261.944 494.434 261.063 494.776C260.181 495.119 259.228 495.24 258.289 495.129C257.349 495.018 256.451 494.679 255.674 494.142C254.896 493.604 254.263 492.884 253.829 492.045Z" fill="#B97262"/>
<path d="M266.979 473.318C266.88 472.841 266.776 472.364 266.669 471.892C264.663 471.806 262.64 472.064 260.617 471.918C258.129 471.737 255.684 471.175 253.2 470.934C252.085 470.822 250.962 470.779 249.843 470.736C244.889 470.547 248.272 477.978 248.926 480.577C249.891 484.455 251.12 488.264 252.602 491.976C253.379 493.929 254.269 495.834 255.266 497.685C255.774 498.625 256.786 501.632 257.849 501.911C258.71 502.139 259.407 501.254 259.885 500.507C262.249 496.793 265.375 493.622 269.058 491.203C269.326 491.064 269.544 490.843 269.678 490.572C269.727 490.363 269.727 490.145 269.678 489.936C268.894 484.395 268.132 478.768 266.979 473.318Z" fill="#474EBB"/>
<path d="M235.552 470.247C231.532 471.007 228.058 472.57 225.738 476.548C224.081 479.4 223.388 482.737 222.686 485.924C220.857 494.257 220.039 502.753 219.127 511.219C218.266 519.324 215.924 527.871 218.511 535.865C218.856 536.934 219.841 538.218 220.823 537.664C221.336 535.9 221.846 534.132 222.351 532.36C222.518 531.584 222.846 530.853 223.315 530.212C223.787 529.71 224.355 529.306 224.985 529.027C228.401 527.297 232.125 526.256 235.944 525.964C240.175 525.646 244.415 526.265 248.509 527.304C252.602 528.344 256.442 530.143 260.509 530.895C263.172 531.387 265.808 532.01 268.416 532.763C268.501 532.797 268.594 532.806 268.683 532.789C268.843 532.738 268.894 532.536 268.916 532.36C269.135 530.566 268.989 528.747 268.485 527.012C267.986 525.264 268.02 523.348 267.844 521.527C267.496 517.603 266.931 513.702 266.152 509.84C264.409 501.468 261.357 493.415 259.855 484.966C259.214 481.32 258.818 475.272 255.37 472.48C251.621 469.448 243.158 469.293 238.398 469.83C237.438 469.937 236.482 470.071 235.552 470.247Z" fill="#474EBB"/>
<path d="M241.729 471.307C240.941 471.827 238.979 472.227 236.805 471.681C236.59 471.63 236.396 471.515 236.249 471.35C236.102 471.186 236.009 470.981 235.983 470.762C235.84 469.504 235.781 468.239 235.806 466.974C235.806 466.647 231.338 465.23 230.835 464.865C228.033 462.842 227.55 459.212 227.391 456.012C227.318 454.543 227.288 452.975 228.033 451.717C228.893 450.265 230.564 449.531 232.182 449.058C234.849 448.289 237.631 447.998 240.399 448.199C242.921 448.384 245.663 449.144 247.036 451.262C249.012 454.303 248.513 460.282 246.83 463.318C245.857 465.075 244.299 465.633 243.059 467.008C241.914 468.262 242.254 469.765 241.729 471.307Z" fill="#736052"/>
<path d="M249.27 447.658C249.662 446.958 250.045 446.279 249.791 445.562C249.623 445.068 249.18 444.703 248.93 444.274C248.336 443.144 249.055 441.696 248.638 440.498C248.091 438.909 245.792 438.256 245.625 436.581C245.018 436.044 244.299 437.079 243.623 437.526C242.082 438.531 240.24 436.177 238.419 436.452C237.029 436.658 236.116 438.346 234.713 438.282C233.667 438.234 232.643 437.186 231.7 437.676C231.291 437.895 231.076 438.355 230.714 438.647C229.565 439.583 227.305 438.647 226.668 439.983C226.294 440.764 226.453 441.456 225.644 441.98C224.938 442.439 223.539 441.684 223.104 442.689C223.027 442.918 223.004 443.162 223.039 443.402L223.543 450.703C223.527 451.373 223.698 452.033 224.038 452.611C224.314 452.988 224.74 453.263 224.925 453.697C225.153 454.23 224.955 454.853 225.093 455.415C225.312 456.33 228.287 461.021 229.178 459.461C229.496 458.903 229.384 458.211 229.277 457.576C229.122 456.648 229.005 455.63 229.483 454.818C230.236 453.53 232.001 453.405 233.491 453.311C234.884 453.289 236.257 452.973 237.519 452.383C238.38 451.932 239.508 451.305 240.158 452.013C240.33 452.198 240.421 452.443 240.619 452.606C240.972 452.877 241.479 452.726 241.875 452.499C242.224 452.218 242.636 452.028 243.076 451.945C243.507 451.923 243.998 452.422 243.752 452.804C243.907 453.255 244.549 452.666 245.044 452.696C245.435 452.722 245.612 453.19 245.693 453.577C245.939 454.728 246.188 455.883 246.434 457.039C246.914 457.069 247.392 456.948 247.799 456.692C248.206 456.436 248.522 456.058 248.702 455.613C249.709 453.341 248.151 451.159 248.672 448.99C248.808 448.52 249.009 448.072 249.27 447.658Z" fill="#1A1A1A"/>
<path d="M265.005 462.112C280.009 447.139 280.009 422.864 265.005 407.892C250 392.92 225.674 392.92 210.669 407.892C195.665 422.864 195.665 447.139 210.669 462.112C225.674 477.084 250 477.084 265.005 462.112Z" fill="white"/>
<g opacity="0.08">
<path opacity="0.08" d="M256.291 401.33C261.326 408.401 263.81 416.967 263.336 425.628C262.862 434.29 259.458 442.535 253.681 449.016C247.904 455.498 240.095 459.833 231.53 461.314C222.964 462.795 214.149 461.333 206.524 457.168C209.87 461.867 214.236 465.753 219.296 468.536C224.355 471.319 229.979 472.928 235.748 473.242C241.517 473.557 247.282 472.569 252.616 470.352C257.949 468.136 262.713 464.747 266.552 460.439C270.392 456.132 273.208 451.015 274.792 445.471C276.376 439.927 276.686 434.097 275.7 428.417C274.714 422.736 272.457 417.351 269.097 412.661C265.736 407.971 261.359 404.098 256.291 401.33Z" fill="black"/>
</g>
<path opacity="0.2" d="M204.879 440.678C204.511 433.254 206.482 425.9 210.515 419.65C214.548 413.4 220.441 408.567 227.367 405.829C234.293 403.09 241.904 402.585 249.132 404.382C256.361 406.18 262.844 410.191 267.672 415.852C265.032 411.746 261.576 408.226 257.516 405.509C253.456 402.792 248.88 400.937 244.072 400.058C239.264 399.179 234.326 399.296 229.565 400.4C224.804 401.505 220.321 403.574 216.395 406.48C212.469 409.385 209.182 413.065 206.74 417.29C204.299 421.516 202.753 426.197 202.199 431.043C201.646 435.89 202.096 440.798 203.523 445.463C204.95 450.129 207.322 454.452 210.492 458.164C207.115 452.928 205.179 446.898 204.879 440.678Z" fill="white"/>
<path d="M222.303 439.725C222.086 439.528 221.808 439.413 221.515 439.399C221.223 439.385 220.934 439.472 220.699 439.647C220.464 439.821 220.296 440.072 220.226 440.355C220.155 440.639 220.185 440.938 220.311 441.202C221.901 444.664 224.486 447.576 227.738 449.569C230.99 451.561 234.762 452.545 238.575 452.395C242.388 452.245 246.07 450.968 249.155 448.726C252.239 446.484 254.587 443.378 255.899 439.802C255.996 439.529 255.996 439.231 255.899 438.958C255.802 438.685 255.614 438.453 255.366 438.302C255.119 438.151 254.826 438.09 254.539 438.128C254.251 438.167 253.985 438.303 253.786 438.514C248.44 444.218 236.9 452.537 222.303 439.725Z" fill="#292949"/>
<path d="M247.243 424.408C247.702 423.078 248.547 421.913 249.671 421.063C250.794 420.212 252.145 419.714 253.553 419.63C254.961 419.547 256.361 419.883 257.578 420.595C258.794 421.307 259.771 422.364 260.384 423.631C260.498 423.868 260.526 424.137 260.464 424.393C260.402 424.648 260.253 424.874 260.043 425.033C259.834 425.192 259.575 425.274 259.312 425.265C259.049 425.256 258.796 425.157 258.598 424.984C256.368 423.029 252.921 421.548 249.163 425.559C248.959 425.779 248.679 425.911 248.379 425.929C248.192 425.936 248.007 425.898 247.838 425.817C247.669 425.737 247.522 425.616 247.411 425.467C247.299 425.317 247.225 425.142 247.196 424.958C247.167 424.774 247.183 424.585 247.243 424.408Z" fill="#292949"/>
<path d="M214.276 426.036C214.734 424.705 215.578 423.54 216.701 422.689C217.825 421.838 219.176 421.34 220.583 421.256C221.991 421.173 223.392 421.509 224.608 422.222C225.824 422.934 226.8 423.991 227.413 425.259C227.524 425.495 227.551 425.763 227.489 426.017C227.426 426.271 227.278 426.496 227.07 426.654C226.861 426.812 226.605 426.894 226.343 426.887C226.081 426.879 225.83 426.782 225.631 426.612C223.401 424.657 219.953 423.175 216.196 427.187C215.992 427.407 215.711 427.539 215.412 427.557C215.225 427.564 215.039 427.525 214.871 427.445C214.702 427.364 214.555 427.244 214.443 427.094C214.331 426.945 214.258 426.77 214.229 426.586C214.199 426.401 214.216 426.213 214.276 426.036Z" fill="#292949"/>
<path d="M213.444 446.742C216.555 444.746 217.456 440.611 215.456 437.507C213.456 434.402 209.312 433.503 206.201 435.499C203.09 437.495 202.189 441.629 204.189 444.734C206.189 447.839 210.333 448.737 213.444 446.742Z" fill="#D67086"/>
<path d="M273.013 438.608C273.078 439.93 272.749 441.241 272.067 442.376C271.385 443.511 270.381 444.418 269.183 444.984C267.984 445.55 266.644 445.748 265.332 445.555C264.021 445.361 262.796 444.783 261.813 443.895C260.83 443.006 260.134 441.847 259.811 440.564C259.488 439.281 259.554 437.93 260 436.684C260.446 435.438 261.252 434.352 262.316 433.563C263.381 432.774 264.656 432.317 265.98 432.251C267.758 432.164 269.497 432.784 270.816 433.976C272.135 435.168 272.925 436.835 273.013 438.608Z" fill="#D67086"/>
<path d="M234.588 555.189C233.482 555.429 232.402 555.189 231.295 555.227C230.776 551.433 230.647 547.597 230.908 543.776C232.871 545.391 234.132 544.094 234.597 547.612C234.748 548.755 234.111 553.492 234.588 555.189Z" fill="#B97262"/>
<path d="M230.77 553.363C229.427 553.097 229.595 556.172 229.69 556.885C229.786 557.308 229.829 557.741 229.819 558.174C229.733 558.645 229.55 559.092 229.281 559.488L227.783 562.065C227.535 562.442 227.352 562.857 227.241 563.294C227.171 563.846 227.296 564.405 227.594 564.876C227.893 565.346 228.346 565.698 228.876 565.871C232.548 567.086 235.044 562.435 235.376 559.591C235.428 559.162 235.445 558.732 235.462 558.268C235.501 557.358 235.892 555.322 235.402 554.51C234.842 553.561 233.701 554.476 232.819 554.218C232.018 553.999 231.313 553.471 230.77 553.363Z" fill="#292949"/>
<path d="M239.874 500.455C240.198 500.819 240.5 501.202 240.778 501.602C242.973 504.78 243.752 508.762 243.666 512.623C243.58 516.485 242.689 520.273 241.807 524.031C240.739 528.563 239.362 533.09 239.138 537.703C239.017 540.16 238.604 542.621 238.333 545.061C238.088 547.238 237.825 549.416 237.662 551.602C237.606 552.371 237.481 552.414 236.659 552.543C235.652 552.697 234.634 552.766 233.615 552.749C231.613 552.715 229.631 552.345 227.753 551.654C226.414 551.16 226.814 548.6 226.703 547.444C226.367 544.081 226.104 540.714 225.842 537.346C225.338 530.612 224.718 523.885 224.52 517.133C224.348 511.296 223.414 505.536 227.533 500.769C229.079 498.973 231.214 497.521 233.559 497.418C235.905 497.315 238.243 498.634 239.874 500.455Z" fill="#292949"/>
<path d="M250.385 553.35C251.53 553.539 252.624 553.243 253.751 553.23C254.099 549.322 254.044 545.388 253.588 541.491C251.659 543.244 250.308 541.977 250.002 545.602C249.895 546.774 250.781 551.589 250.385 553.35Z" fill="#B97262"/>
<path d="M254.195 551.297C255.551 550.958 255.534 554.111 255.486 554.849C255.411 555.286 255.39 555.73 255.422 556.172C255.529 556.65 255.737 557.1 256.033 557.491L257.694 560.068C257.965 560.441 258.173 560.856 258.31 561.296C258.41 561.859 258.31 562.438 258.027 562.935C257.744 563.431 257.296 563.814 256.76 564.015C253.063 565.437 250.304 560.82 249.804 557.907C249.731 557.478 249.693 557.014 249.65 556.563C249.568 555.631 249.073 553.556 249.529 552.697C250.058 551.701 251.251 552.581 252.146 552.268C252.968 552.006 253.644 551.435 254.195 551.297Z" fill="#292949"/>
<path d="M243.378 500.523C243.081 500.892 242.807 501.278 242.556 501.679C240.571 504.866 240.003 508.766 240.266 512.507C240.528 516.248 241.557 519.89 242.603 523.498C243.851 527.849 245.401 532.179 245.836 536.646C245.948 537.819 248.207 550.928 247.962 550.936C249.55 550.863 251.13 551.297 252.736 551.121C254.457 550.932 256.179 550.82 257.922 550.563C257.879 549.631 258.202 549.003 258.305 548.123C258.409 547.242 258.305 546.405 258.361 545.546C258.529 542.269 258.624 538.983 258.71 535.701C258.887 529.142 259.171 522.584 259.05 516.02C258.942 510.347 259.584 504.72 255.374 500.274C253.79 498.603 251.651 497.293 249.348 497.306C247.045 497.319 244.88 498.681 243.378 500.523Z" fill="#292949"/>
</g>
<defs>
<linearGradient id="paint0_linear" x1="236.67" y1="348.755" x2="834.332" y2="-45.532" gradientUnits="userSpaceOnUse">
<stop stop-color="#21B7B7"/>
<stop offset="1" stop-color="#9477D1"/>
</linearGradient>
<clipPath id="clip0">
<rect width="422.709" height="290.094" fill="white" transform="translate(121.31 276)"/>
</clipPath>
</defs>
</svg>
