<svg width="715" height="692" viewBox="0 0 715 692" fill="none" xmlns="http://www.w3.org/2000/svg">
<path d="M428.581 486.769C417.397 469.769 402.495 425.585 448.802 400.017C494.045 375.038 539.105 426.794 569.063 417.577C607.366 405.794 622.907 459.768 624.387 487.504C625.996 517.656 687.955 524.641 683.824 553.043C677.014 599.869 648.394 582.539 621.722 591.554C595.05 600.57 601.541 630.287 583.462 645.986C560.935 665.547 524.448 663.611 517.024 643.291C509.6 622.971 517.107 622.92 511.713 603.986C506.32 585.053 489.794 586.904 476.211 588.696C462.628 590.488 438.312 587.271 426.749 567.307C414.14 545.538 418.846 529.105 425.078 521.701C437.758 506.636 439.764 503.77 428.581 486.769Z" fill="url(#paint0_linear)" fill-opacity="0.1"/>
<path d="M-442.679 106.985C-490.026 79.3465 -578.899 -9.44701 -497.751 -126.601C-418.469 -241.062 -247.746 -170.106 -186.478 -228.221C-108.145 -302.523 -6.0086 -190.865 30.774 -125.697C70.7595 -54.8543 228.66 -112.186 252.7 -38.6915C292.334 82.477 202.509 74.9197 148.931 128.615C95.3536 182.311 146.602 246.261 121.768 305.797C90.8228 379.981 0.443659 418.996 -41.8053 378.844C-84.0543 338.692 -65.9982 329.58 -101.686 290.343C-137.374 251.106 -175.042 275.361 -205.678 295.95C-236.315 316.539 -298.854 337.891 -350.664 303.555C-407.163 266.112 -415.481 220.816 -409.305 195.484C-396.742 143.945 -395.332 134.624 -442.679 106.985Z" fill="url(#paint1_linear)" fill-opacity="0.1"/>
<defs>
<linearGradient id="paint0_linear" x1="651.829" y1="523.959" x2="401.358" y2="554.286" gradientUnits="userSpaceOnUse">
<stop stop-color="#9477D1"/>
<stop offset="1" stop-color="#21B7B7"/>
</linearGradient>
<linearGradient id="paint1_linear" x1="140.656" y1="-70.5741" x2="-427.535" y2="302.531" gradientUnits="userSpaceOnUse">
<stop stop-color="#21B7B7"/>
<stop offset="1" stop-color="#9477D1"/>
</linearGradient>
</defs>
</svg>
