<svg width="24" height="24" viewBox="0 0 24 24" fill="none" xmlns="http://www.w3.org/2000/svg">
<path d="M1 24C0.871 24 0.741 23.976 0.617 23.924C0.244 23.77 0 23.404 0 23V16C0 15.447 0.448 15 1 15C1.552 15 2 15.447 2 16V20.586L9.293 13.293C9.684 12.902 10.316 12.902 10.707 13.293C11.098 13.684 11.098 14.316 10.707 14.707L1.707 23.707C1.516 23.898 1.26 24 1 24ZM8 24H1C0.448 24 0 23.553 0 23C0 22.447 0.448 22 1 22H8C8.552 22 9 22.447 9 23C9 23.553 8.552 24 8 24ZM14 11C13.744 11 13.488 10.902 13.293 10.707C12.902 10.316 12.902 9.684 13.293 9.293L22.293 0.293C22.579 0.00600001 23.008 -0.078 23.383 0.076C23.757 0.231 24 0.596 24 1V8C24 8.552 23.553 9 23 9C22.447 9 22 8.552 22 8V3.414L14.707 10.707C14.512 10.902 14.256 11 14 11ZM23 2H16C15.447 2 15 1.552 15 1C15 0.448 15.447 0 16 0H23C23.553 0 24 0.448 24 1C24 1.552 23.553 2 23 2Z" fill="#D0D0D0"/>
</svg>
