<svg width="29" height="28" viewBox="0 0 29 28" fill="none" xmlns="http://www.w3.org/2000/svg">
<circle cx="14.6166" cy="13.9872" r="13.6551" fill="#4846A4"/>
<path d="M18.155 14.6692L22.2189 10.6043C22.3628 10.4603 22.3628 10.227 22.2189 10.083L19.1882 7.05116L19.1529 7.08651L19.1882 7.05116C19.1191 6.98204 19.0253 6.94316 18.9275 6.94316C18.8298 6.94316 18.736 6.98205 18.6669 7.05116L14.6022 11.1165L11.9788 8.49318L11.9787 8.49317L11.9787 8.49317L11.9787 8.49316L11.9787 8.49316L11.9787 8.49315L11.9787 8.49315L11.9787 8.49314L11.9787 8.49314L11.9787 8.49313L11.9787 8.49312L11.9787 8.49312L11.9787 8.49311L11.9787 8.49311L11.9787 8.4931L11.9787 8.4931L11.9787 8.49309L11.9787 8.49308L11.9787 8.49308L11.9786 8.49307L11.9786 8.49307L11.9786 8.49306L11.9786 8.49306L11.9786 8.49305L11.9786 8.49304L11.9786 8.49304L11.9786 8.49303L11.9786 8.49303L11.9786 8.49302L11.9786 8.49302L11.9786 8.49301L11.9786 8.49301L11.9786 8.493L11.9786 8.49299L11.9786 8.49299L11.9786 8.49298L11.9785 8.49298L11.9785 8.49297L11.9785 8.49297L11.9785 8.49296L11.9785 8.49296L11.9785 8.49295L11.9785 8.49294L11.9785 8.49294L11.9785 8.49293L11.9785 8.49293L11.9785 8.49292L11.9785 8.49292L11.9785 8.49291L11.9785 8.49291L11.9785 8.4929L11.9785 8.49289L11.9785 8.49289L11.9785 8.49288L11.9785 8.49288L11.9784 8.49287L11.9784 8.49287L11.9784 8.49286C11.9378 8.45226 11.8899 8.42315 11.8389 8.40559C11.8388 8.40553 11.8386 8.40547 11.8384 8.40541L9.18031 7.42609C9.00255 7.36028 8.84917 7.33425 8.71791 7.33425C8.43892 7.33425 8.26571 7.45179 8.17329 7.5444M18.155 14.6692L8.20868 7.57972M18.155 14.6692L21.06 17.5742L21.06 17.5742C21.1117 17.6261 21.145 17.6914 21.1589 17.7612L18.155 14.6692ZM8.17329 7.5444L8.20868 7.57972M8.17329 7.5444C8.1733 7.54439 8.17331 7.54438 8.17332 7.54437L8.20868 7.57972M8.17329 7.5444C8.10544 7.61227 8.02347 7.72426 7.98514 7.8908C7.94677 8.05748 7.95303 8.27488 8.05538 8.55192M8.20868 7.57972C8.08348 7.70493 7.90318 7.99566 8.10228 8.53459M8.05538 8.55192L8.05536 8.55187L8.10228 8.53459M8.05538 8.55192L9.03728 11.2175M8.05538 8.55192L8.10228 8.53459M8.10228 8.53459L9.03728 11.2175M9.03728 11.2175L9.08426 11.2004L9.03734 11.2177L9.03728 11.2175C9.03728 11.2175 9.03728 11.2175 9.03728 11.2175ZM15.2974 17.4564L15.3328 17.4918L15.2974 17.5272M15.2974 17.4564L18.387 20.5283C18.3192 20.5153 18.2536 20.4845 18.2019 20.4327L15.2974 17.5272M15.2974 17.4564L15.2621 17.4918L15.2974 17.4564ZM15.2974 17.5272L11.2321 21.593L15.2974 17.5272ZM10.7107 21.5931L10.7107 21.5931C10.8496 21.732 11.093 21.7325 11.232 21.5931L10.7107 21.5931ZM10.7107 21.5931L7.6805 18.5612M10.7107 21.5931L7.6805 18.5612M12.408 16.4444L12.408 16.4444C12.5519 16.3004 12.5519 16.0669 12.408 15.923C12.408 15.923 12.408 15.923 12.408 15.923L11.6237 15.1384L12.2663 14.4954L14.7763 17.0059L10.9716 20.8112L8.46239 18.3006L9.54778 17.2149L10.3316 17.9988L10.3316 17.9989L10.367 17.9635C10.4912 18.0879 10.693 18.0879 10.8174 17.9635C10.9418 17.8391 10.9418 17.6374 10.8174 17.513L12.408 16.4444ZM12.408 16.4444C12.2641 16.5881 12.0308 16.5883 11.8867 16.4444L11.8867 16.4444L11.1025 15.6598L10.0689 16.6937L12.408 16.4444ZM8.75007 8.30518L8.74697 8.29679C8.71462 8.20919 8.7039 8.14622 8.70174 8.1053C8.70102 8.09162 8.70126 8.08055 8.70192 8.07195C8.71036 8.07152 8.72105 8.07148 8.73409 8.07229C8.77488 8.07482 8.8379 8.08559 8.92521 8.11777L8.9425 8.07085L8.92521 8.11777L11.0503 8.90082L10.1843 9.76714C10.0404 9.91108 10.0404 10.1444 10.1843 10.2884C10.3281 10.4323 10.5617 10.4323 10.7055 10.2883M8.75007 8.30518L10.6701 10.253M8.75007 8.30518V8.30552L9.70096 10.887L12.5192 13.7057C12.5203 13.7066 12.5231 13.7087 12.526 13.7114L8.75007 8.30518ZM10.7055 10.2883L10.6701 10.253M10.7055 10.2883L10.7054 10.2884L10.6701 10.253M10.7055 10.2883L11.7182 9.27534M10.6701 10.253L11.6828 9.23998L11.7182 9.27534M11.7182 9.27534L14.3293 11.8863C14.3295 11.8866 14.33 11.8873 14.331 11.8886C14.3327 11.8908 14.336 11.8951 14.3405 11.8996C14.3451 11.9042 14.3497 11.9077 14.3519 11.9093C14.353 11.9101 14.3536 11.9106 14.354 11.9109L20.2779 17.8348M11.7182 9.27534L11.7535 9.23997M11.7535 9.23997L14.3659 11.8523C14.3694 11.8561 14.372 11.8604 14.3758 11.8642C14.3779 11.8663 14.3802 11.868 14.3825 11.8697C14.3843 11.8711 14.3862 11.8725 14.3879 11.8741L11.7535 9.23997ZM11.7535 9.23997L20.2779 17.8348M20.2779 17.8348L18.4625 19.6506L15.5721 16.7594C15.5721 16.7594 15.572 16.7593 15.5719 16.7592L15.5698 16.7564L15.5696 16.7562C15.5678 16.7538 15.5643 16.7491 15.5596 16.7444M20.2779 17.8348L12.535 13.7216L15.5435 16.7308C15.5436 16.7309 15.5437 16.7309 15.5438 16.731L15.547 16.7334C15.5497 16.7355 15.5546 16.7392 15.5596 16.7444M15.5596 16.7444C15.5595 16.7442 15.5594 16.7441 15.5593 16.744L15.5239 16.7794L15.5599 16.7447C15.5598 16.7446 15.5597 16.7445 15.5596 16.7444ZM7.6805 18.5612C7.6805 18.5612 7.6805 18.5612 7.68049 18.5612M7.6805 18.5612L7.68049 18.5612M7.68049 18.5612C7.53658 18.4173 7.53658 18.1839 7.6805 18.04M7.68049 18.5612L7.6805 18.04M7.6805 18.04C7.6805 18.04 7.6805 18.04 7.6805 18.04L7.6805 18.04ZM11.7451 13.974L11.7804 13.9387L11.8158 13.974L11.7805 14.0094L11.7451 13.974ZM19.9152 21.3095C19.3755 21.3095 18.8681 21.0991 18.4866 20.7174L21.3085 17.8953L21.3438 17.86C21.3438 17.86 21.3439 17.86 21.3439 17.86C22.1316 18.6479 22.1315 19.9295 21.3438 20.7174C20.9624 21.0992 20.4549 21.3095 19.9152 21.3095ZM20.8226 20.196L20.8226 20.196C21.3229 19.6956 21.3229 18.8815 20.8226 18.381C20.8144 18.3728 20.8068 18.3643 20.7999 18.3555L18.9825 20.1733C18.9912 20.1803 18.9998 20.1879 19.0081 20.1962L19.0081 20.1962C19.2504 20.4387 19.5725 20.5721 19.9154 20.5721C20.2581 20.5721 20.5802 20.4387 20.8226 20.196ZM21.4369 10.3438L18.9275 7.83332L17.8413 8.91947L18.6256 9.7039C18.7696 9.84783 18.7696 10.0811 18.6257 10.2251C18.4819 10.3691 18.2482 10.3691 18.1045 10.2251L17.3202 9.4407L16.2869 10.4743L17.0714 11.2589C17.2153 11.4028 17.2153 11.6361 17.0714 11.7801C16.9276 11.924 16.6939 11.924 16.5502 11.7801L15.7657 10.9955L15.1233 11.6378L17.6336 14.148L21.4369 10.3438Z" fill="white" stroke="white" stroke-width="0.1"/>
</svg>
