<svg width="410" height="60" viewBox="0 0 410 60" fill="none" xmlns="http://www.w3.org/2000/svg">
<path d="M27.4453 11.1484C22.888 11.1484 19.3594 12.8672 16.8594 16.3047C14.3594 19.7161 13.1094 24.4818 13.1094 30.6016C13.1094 43.3359 17.888 49.7031 27.4453 49.7031C31.4557 49.7031 36.3125 48.7005 42.0156 46.6953V56.8516C37.3281 58.8047 32.0938 59.7812 26.3125 59.7812C18.0052 59.7812 11.651 57.2682 7.25 52.2422C2.84896 47.1901 0.648438 39.9505 0.648438 30.5234C0.648438 24.5859 1.72917 19.3906 3.89062 14.9375C6.05208 10.4583 9.15104 7.03385 13.1875 4.66406C17.25 2.26823 22.0026 1.07031 27.4453 1.07031C32.9922 1.07031 38.5651 2.41146 44.1641 5.09375L40.2578 14.9375C38.1224 13.9219 35.974 13.0365 33.8125 12.2812C31.651 11.526 29.5286 11.1484 27.4453 11.1484ZM106.039 30.3672C106.039 39.8203 103.695 47.0859 99.0078 52.1641C94.3203 57.2422 87.6016 59.7812 78.8516 59.7812C70.1016 59.7812 63.3828 57.2422 58.6953 52.1641C54.0078 47.0859 51.6641 39.7943 51.6641 30.2891C51.6641 20.7839 54.0078 13.5312 58.6953 8.53125C63.4089 3.50521 70.1536 0.992188 78.9297 0.992188C87.7057 0.992188 94.4115 3.51823 99.0469 8.57031C103.708 13.6224 106.039 20.888 106.039 30.3672ZM64.3594 30.3672C64.3594 36.7474 65.5703 41.5521 67.9922 44.7812C70.4141 48.0104 74.0339 49.625 78.8516 49.625C88.513 49.625 93.3438 43.2057 93.3438 30.3672C93.3438 17.5026 88.5391 11.0703 78.9297 11.0703C74.112 11.0703 70.4792 12.6979 68.0312 15.9531C65.5833 19.1823 64.3594 23.987 64.3594 30.3672ZM168.539 59H153.148L128.305 15.7969H127.953C128.448 23.4271 128.695 28.8698 128.695 32.125V59H117.875V1.89062H133.148L157.953 44.6641H158.227C157.836 37.2422 157.641 31.9948 157.641 28.9219V1.89062H168.539V59ZM207.211 11.1484C202.654 11.1484 199.125 12.8672 196.625 16.3047C194.125 19.7161 192.875 24.4818 192.875 30.6016C192.875 43.3359 197.654 49.7031 207.211 49.7031C211.221 49.7031 216.078 48.7005 221.781 46.6953V56.8516C217.094 58.8047 211.859 59.7812 206.078 59.7812C197.771 59.7812 191.417 57.2682 187.016 52.2422C182.615 47.1901 180.414 39.9505 180.414 30.5234C180.414 24.5859 181.495 19.3906 183.656 14.9375C185.818 10.4583 188.917 7.03385 192.953 4.66406C197.016 2.26823 201.768 1.07031 207.211 1.07031C212.758 1.07031 218.331 2.41146 223.93 5.09375L220.023 14.9375C217.888 13.9219 215.74 13.0365 213.578 12.2812C211.417 11.526 209.294 11.1484 207.211 11.1484ZM266.859 59H233.969V1.89062H266.859V11.8125H246.078V24.3516H265.414V34.2734H246.078V49H266.859V59ZM290.922 28.7656H294.906C298.63 28.7656 301.417 28.0365 303.266 26.5781C305.115 25.0938 306.039 22.9453 306.039 20.1328C306.039 17.2943 305.258 15.1979 303.695 13.8438C302.159 12.4896 299.737 11.8125 296.43 11.8125H290.922V28.7656ZM318.266 19.7031C318.266 25.849 316.339 30.5495 312.484 33.8047C308.656 37.0599 303.201 38.6875 296.117 38.6875H290.922V59H278.812V1.89062H297.055C303.982 1.89062 309.242 3.38802 312.836 6.38281C316.456 9.35156 318.266 13.7917 318.266 19.7031ZM351.078 59H338.969V11.9688H323.461V1.89062H366.586V11.9688H351.078V59ZM409.086 43.1406C409.086 48.2969 407.224 52.3594 403.5 55.3281C399.802 58.2969 394.646 59.7812 388.031 59.7812C381.938 59.7812 376.547 58.6354 371.859 56.3438V45.0938C375.714 46.8125 378.969 48.0234 381.625 48.7266C384.307 49.4297 386.755 49.7812 388.969 49.7812C391.625 49.7812 393.656 49.2734 395.062 48.2578C396.495 47.2422 397.211 45.7318 397.211 43.7266C397.211 42.6068 396.898 41.6172 396.273 40.7578C395.648 39.8724 394.724 39.026 393.5 38.2188C392.302 37.4115 389.841 36.1224 386.117 34.3516C382.628 32.7109 380.01 31.1354 378.266 29.625C376.521 28.1146 375.128 26.3568 374.086 24.3516C373.044 22.3464 372.523 20.0026 372.523 17.3203C372.523 12.2682 374.229 8.29688 377.641 5.40625C381.078 2.51562 385.818 1.07031 391.859 1.07031C394.828 1.07031 397.654 1.42188 400.336 2.125C403.044 2.82812 405.87 3.81771 408.812 5.09375L404.906 14.5078C401.859 13.2578 399.333 12.3854 397.328 11.8906C395.349 11.3958 393.396 11.1484 391.469 11.1484C389.177 11.1484 387.419 11.6823 386.195 12.75C384.971 13.8177 384.359 15.2109 384.359 16.9297C384.359 17.9974 384.607 18.9349 385.102 19.7422C385.596 20.5234 386.378 21.2917 387.445 22.0469C388.539 22.776 391.104 24.1042 395.141 26.0312C400.479 28.5833 404.138 31.1484 406.117 33.7266C408.096 36.2786 409.086 39.4167 409.086 43.1406Z" fill="#21B7B7"/>
<path d="M27.4453 11.1484C22.888 11.1484 19.3594 12.8672 16.8594 16.3047C14.3594 19.7161 13.1094 24.4818 13.1094 30.6016C13.1094 43.3359 17.888 49.7031 27.4453 49.7031C31.4557 49.7031 36.3125 48.7005 42.0156 46.6953V56.8516C37.3281 58.8047 32.0938 59.7812 26.3125 59.7812C18.0052 59.7812 11.651 57.2682 7.25 52.2422C2.84896 47.1901 0.648438 39.9505 0.648438 30.5234C0.648438 24.5859 1.72917 19.3906 3.89062 14.9375C6.05208 10.4583 9.15104 7.03385 13.1875 4.66406C17.25 2.26823 22.0026 1.07031 27.4453 1.07031C32.9922 1.07031 38.5651 2.41146 44.1641 5.09375L40.2578 14.9375C38.1224 13.9219 35.974 13.0365 33.8125 12.2812C31.651 11.526 29.5286 11.1484 27.4453 11.1484ZM106.039 30.3672C106.039 39.8203 103.695 47.0859 99.0078 52.1641C94.3203 57.2422 87.6016 59.7812 78.8516 59.7812C70.1016 59.7812 63.3828 57.2422 58.6953 52.1641C54.0078 47.0859 51.6641 39.7943 51.6641 30.2891C51.6641 20.7839 54.0078 13.5312 58.6953 8.53125C63.4089 3.50521 70.1536 0.992188 78.9297 0.992188C87.7057 0.992188 94.4115 3.51823 99.0469 8.57031C103.708 13.6224 106.039 20.888 106.039 30.3672ZM64.3594 30.3672C64.3594 36.7474 65.5703 41.5521 67.9922 44.7812C70.4141 48.0104 74.0339 49.625 78.8516 49.625C88.513 49.625 93.3438 43.2057 93.3438 30.3672C93.3438 17.5026 88.5391 11.0703 78.9297 11.0703C74.112 11.0703 70.4792 12.6979 68.0312 15.9531C65.5833 19.1823 64.3594 23.987 64.3594 30.3672ZM168.539 59H153.148L128.305 15.7969H127.953C128.448 23.4271 128.695 28.8698 128.695 32.125V59H117.875V1.89062H133.148L157.953 44.6641H158.227C157.836 37.2422 157.641 31.9948 157.641 28.9219V1.89062H168.539V59ZM207.211 11.1484C202.654 11.1484 199.125 12.8672 196.625 16.3047C194.125 19.7161 192.875 24.4818 192.875 30.6016C192.875 43.3359 197.654 49.7031 207.211 49.7031C211.221 49.7031 216.078 48.7005 221.781 46.6953V56.8516C217.094 58.8047 211.859 59.7812 206.078 59.7812C197.771 59.7812 191.417 57.2682 187.016 52.2422C182.615 47.1901 180.414 39.9505 180.414 30.5234C180.414 24.5859 181.495 19.3906 183.656 14.9375C185.818 10.4583 188.917 7.03385 192.953 4.66406C197.016 2.26823 201.768 1.07031 207.211 1.07031C212.758 1.07031 218.331 2.41146 223.93 5.09375L220.023 14.9375C217.888 13.9219 215.74 13.0365 213.578 12.2812C211.417 11.526 209.294 11.1484 207.211 11.1484ZM266.859 59H233.969V1.89062H266.859V11.8125H246.078V24.3516H265.414V34.2734H246.078V49H266.859V59ZM290.922 28.7656H294.906C298.63 28.7656 301.417 28.0365 303.266 26.5781C305.115 25.0938 306.039 22.9453 306.039 20.1328C306.039 17.2943 305.258 15.1979 303.695 13.8438C302.159 12.4896 299.737 11.8125 296.43 11.8125H290.922V28.7656ZM318.266 19.7031C318.266 25.849 316.339 30.5495 312.484 33.8047C308.656 37.0599 303.201 38.6875 296.117 38.6875H290.922V59H278.812V1.89062H297.055C303.982 1.89062 309.242 3.38802 312.836 6.38281C316.456 9.35156 318.266 13.7917 318.266 19.7031ZM351.078 59H338.969V11.9688H323.461V1.89062H366.586V11.9688H351.078V59ZM409.086 43.1406C409.086 48.2969 407.224 52.3594 403.5 55.3281C399.802 58.2969 394.646 59.7812 388.031 59.7812C381.938 59.7812 376.547 58.6354 371.859 56.3438V45.0938C375.714 46.8125 378.969 48.0234 381.625 48.7266C384.307 49.4297 386.755 49.7812 388.969 49.7812C391.625 49.7812 393.656 49.2734 395.062 48.2578C396.495 47.2422 397.211 45.7318 397.211 43.7266C397.211 42.6068 396.898 41.6172 396.273 40.7578C395.648 39.8724 394.724 39.026 393.5 38.2188C392.302 37.4115 389.841 36.1224 386.117 34.3516C382.628 32.7109 380.01 31.1354 378.266 29.625C376.521 28.1146 375.128 26.3568 374.086 24.3516C373.044 22.3464 372.523 20.0026 372.523 17.3203C372.523 12.2682 374.229 8.29688 377.641 5.40625C381.078 2.51562 385.818 1.07031 391.859 1.07031C394.828 1.07031 397.654 1.42188 400.336 2.125C403.044 2.82812 405.87 3.81771 408.812 5.09375L404.906 14.5078C401.859 13.2578 399.333 12.3854 397.328 11.8906C395.349 11.3958 393.396 11.1484 391.469 11.1484C389.177 11.1484 387.419 11.6823 386.195 12.75C384.971 13.8177 384.359 15.2109 384.359 16.9297C384.359 17.9974 384.607 18.9349 385.102 19.7422C385.596 20.5234 386.378 21.2917 387.445 22.0469C388.539 22.776 391.104 24.1042 395.141 26.0312C400.479 28.5833 404.138 31.1484 406.117 33.7266C408.096 36.2786 409.086 39.4167 409.086 43.1406Z" fill="#3420AD"/>
<path d="M27.4453 11.1484C22.888 11.1484 19.3594 12.8672 16.8594 16.3047C14.3594 19.7161 13.1094 24.4818 13.1094 30.6016C13.1094 43.3359 17.888 49.7031 27.4453 49.7031C31.4557 49.7031 36.3125 48.7005 42.0156 46.6953V56.8516C37.3281 58.8047 32.0938 59.7812 26.3125 59.7812C18.0052 59.7812 11.651 57.2682 7.25 52.2422C2.84896 47.1901 0.648438 39.9505 0.648438 30.5234C0.648438 24.5859 1.72917 19.3906 3.89062 14.9375C6.05208 10.4583 9.15104 7.03385 13.1875 4.66406C17.25 2.26823 22.0026 1.07031 27.4453 1.07031C32.9922 1.07031 38.5651 2.41146 44.1641 5.09375L40.2578 14.9375C38.1224 13.9219 35.974 13.0365 33.8125 12.2812C31.651 11.526 29.5286 11.1484 27.4453 11.1484ZM106.039 30.3672C106.039 39.8203 103.695 47.0859 99.0078 52.1641C94.3203 57.2422 87.6016 59.7812 78.8516 59.7812C70.1016 59.7812 63.3828 57.2422 58.6953 52.1641C54.0078 47.0859 51.6641 39.7943 51.6641 30.2891C51.6641 20.7839 54.0078 13.5312 58.6953 8.53125C63.4089 3.50521 70.1536 0.992188 78.9297 0.992188C87.7057 0.992188 94.4115 3.51823 99.0469 8.57031C103.708 13.6224 106.039 20.888 106.039 30.3672ZM64.3594 30.3672C64.3594 36.7474 65.5703 41.5521 67.9922 44.7812C70.4141 48.0104 74.0339 49.625 78.8516 49.625C88.513 49.625 93.3438 43.2057 93.3438 30.3672C93.3438 17.5026 88.5391 11.0703 78.9297 11.0703C74.112 11.0703 70.4792 12.6979 68.0312 15.9531C65.5833 19.1823 64.3594 23.987 64.3594 30.3672ZM168.539 59H153.148L128.305 15.7969H127.953C128.448 23.4271 128.695 28.8698 128.695 32.125V59H117.875V1.89062H133.148L157.953 44.6641H158.227C157.836 37.2422 157.641 31.9948 157.641 28.9219V1.89062H168.539V59ZM207.211 11.1484C202.654 11.1484 199.125 12.8672 196.625 16.3047C194.125 19.7161 192.875 24.4818 192.875 30.6016C192.875 43.3359 197.654 49.7031 207.211 49.7031C211.221 49.7031 216.078 48.7005 221.781 46.6953V56.8516C217.094 58.8047 211.859 59.7812 206.078 59.7812C197.771 59.7812 191.417 57.2682 187.016 52.2422C182.615 47.1901 180.414 39.9505 180.414 30.5234C180.414 24.5859 181.495 19.3906 183.656 14.9375C185.818 10.4583 188.917 7.03385 192.953 4.66406C197.016 2.26823 201.768 1.07031 207.211 1.07031C212.758 1.07031 218.331 2.41146 223.93 5.09375L220.023 14.9375C217.888 13.9219 215.74 13.0365 213.578 12.2812C211.417 11.526 209.294 11.1484 207.211 11.1484ZM266.859 59H233.969V1.89062H266.859V11.8125H246.078V24.3516H265.414V34.2734H246.078V49H266.859V59ZM290.922 28.7656H294.906C298.63 28.7656 301.417 28.0365 303.266 26.5781C305.115 25.0938 306.039 22.9453 306.039 20.1328C306.039 17.2943 305.258 15.1979 303.695 13.8438C302.159 12.4896 299.737 11.8125 296.43 11.8125H290.922V28.7656ZM318.266 19.7031C318.266 25.849 316.339 30.5495 312.484 33.8047C308.656 37.0599 303.201 38.6875 296.117 38.6875H290.922V59H278.812V1.89062H297.055C303.982 1.89062 309.242 3.38802 312.836 6.38281C316.456 9.35156 318.266 13.7917 318.266 19.7031ZM351.078 59H338.969V11.9688H323.461V1.89062H366.586V11.9688H351.078V59ZM409.086 43.1406C409.086 48.2969 407.224 52.3594 403.5 55.3281C399.802 58.2969 394.646 59.7812 388.031 59.7812C381.938 59.7812 376.547 58.6354 371.859 56.3438V45.0938C375.714 46.8125 378.969 48.0234 381.625 48.7266C384.307 49.4297 386.755 49.7812 388.969 49.7812C391.625 49.7812 393.656 49.2734 395.062 48.2578C396.495 47.2422 397.211 45.7318 397.211 43.7266C397.211 42.6068 396.898 41.6172 396.273 40.7578C395.648 39.8724 394.724 39.026 393.5 38.2188C392.302 37.4115 389.841 36.1224 386.117 34.3516C382.628 32.7109 380.01 31.1354 378.266 29.625C376.521 28.1146 375.128 26.3568 374.086 24.3516C373.044 22.3464 372.523 20.0026 372.523 17.3203C372.523 12.2682 374.229 8.29688 377.641 5.40625C381.078 2.51562 385.818 1.07031 391.859 1.07031C394.828 1.07031 397.654 1.42188 400.336 2.125C403.044 2.82812 405.87 3.81771 408.812 5.09375L404.906 14.5078C401.859 13.2578 399.333 12.3854 397.328 11.8906C395.349 11.3958 393.396 11.1484 391.469 11.1484C389.177 11.1484 387.419 11.6823 386.195 12.75C384.971 13.8177 384.359 15.2109 384.359 16.9297C384.359 17.9974 384.607 18.9349 385.102 19.7422C385.596 20.5234 386.378 21.2917 387.445 22.0469C388.539 22.776 391.104 24.1042 395.141 26.0312C400.479 28.5833 404.138 31.1484 406.117 33.7266C408.096 36.2786 409.086 39.4167 409.086 43.1406Z" fill="url(#paint0_linear)"/>
<defs>
<linearGradient id="paint0_linear" x1="198.5" y1="-27" x2="200.5" y2="59" gradientUnits="userSpaceOnUse">
<stop stop-color="#3420AD"/>
<stop offset="1" stop-color="#21B7B7"/>
</linearGradient>
</defs>
</svg>
