<svg width="785" height="601" viewBox="0 0 785 601" fill="none" xmlns="http://www.w3.org/2000/svg">
<path d="M581.627 63.0405C598.034 50.8095 621.602 58.2344 628.036 77.6613L691.641 269.718C692.172 271.324 692.839 272.882 693.633 274.375L828.059 527.103C841.248 551.898 816.185 579.6 790.198 568.951L462.45 434.647L101.39 322.973C72.4812 314.031 73.4915 272.768 102.804 265.252L413.467 185.594C417.252 184.623 420.812 182.922 423.946 180.587L581.627 63.0405Z" fill="url(#paint0_linear)"/>
<path d="M260.611 377.433C260.503 377.34 260.384 377.26 260.257 377.196C259.068 376.711 258.142 377.138 256.862 376.973C256.295 376.9 255.654 375.571 254.879 376.488C254.592 376.827 254.011 377.754 253.424 378.486C252.546 379.548 250.795 380.363 249.282 380.75C247.225 381.318 245.13 381.734 243.012 381.997C238.487 382.44 233.93 382.466 229.4 382.074C229.51 378.44 228.627 374.845 226.844 371.676C225.061 368.507 222.447 365.885 219.284 364.093C218.644 363.684 217.912 363.441 217.155 363.385C216.512 363.408 215.883 363.584 215.322 363.899C209.299 366.983 212.48 372.56 214.837 377.162C216.315 380.054 218.006 382.832 219.895 385.474C222.543 389.15 226.374 389.882 230.782 389.746C235.457 389.605 240.19 389.382 244.748 388.248C246.959 387.695 248.914 386.769 251.014 385.939C253.113 385.11 253.341 386.095 255.344 385.847C256.464 385.707 257.628 385.774 258.705 385.43C260.645 384.809 261.299 382.826 262.051 381.148C262.246 380.804 262.345 380.414 262.337 380.018C262.222 379.36 261.901 378.756 261.42 378.292C261.179 377.98 260.908 377.692 260.611 377.433V377.433Z" fill="#E5D1BD"/>
<path d="M213.194 381.066C214.562 383.156 215.992 385.144 217.447 387.011C219.61 389.79 222.054 392.753 225.492 393.524C226.826 393.755 228.185 393.805 229.532 393.674C235.969 393.351 242.389 392.866 248.794 392.22C249.272 388.865 249.237 385.458 248.692 382.113C248.541 381.178 248.309 380.174 247.586 379.553C246.519 378.636 244.904 378.947 243.542 379.311L236.884 381.085C236.166 381.279 235.361 381.464 234.706 381.085C234.298 380.817 233.965 380.45 233.736 380.019C228.848 372.226 226.297 364.796 223.582 356.077C222.384 352.236 221.113 348.265 218.417 345.277C212.666 338.891 202.011 342.693 202.39 351.582C202.831 361.746 207.452 372.269 213.194 381.066Z" fill="#D67086"/>
<path d="M410.481 473.457L410.816 493.761C410.68 499.392 411.189 505.007 411.529 510.623C411.849 515.841 410.797 521.214 413.275 526.049C414.051 527.567 415.699 528.619 416.955 526.868C417.925 525.52 417.479 523.188 417.717 521.621C419.516 509.847 422.862 498.344 424.53 486.58C426.281 474.223 421.499 474.548 410.481 473.457Z" fill="#EACDB0"/>
<path d="M411.636 522.576L410.331 525.966L416.757 531.62L422.639 531.863L424.545 528.759L416.63 521.878L411.636 522.576Z" fill="#292949"/>
<path d="M396.098 473.65L392.397 493.62C391.112 502.552 388.193 511.252 386.908 520.185C386.612 522.236 386.762 524.481 385.904 526.421C385.046 528.361 383.421 528.39 381.971 527.105C380.031 525.383 380.924 522.304 380.958 519.952C381.195 504.274 379.988 488.824 379.668 473.121C379.651 473.02 379.657 472.915 379.685 472.816C379.714 472.717 379.764 472.626 379.833 472.549C379.976 472.457 380.15 472.424 380.318 472.457C381.835 472.559 396.02 474.081 396.098 473.65Z" fill="#EACDB0"/>
<path d="M380.914 523.41L378.877 526.417L383.857 533.376L389.536 534.937L392.092 532.343L385.933 523.856L380.914 523.41Z" fill="#292949"/>
<path d="M431.412 486.375L428.643 457.342L427.304 438.482L422.814 423.076L398.557 419.312L368.573 424.453L367.133 430.277L372.904 484.207L401.825 486.375L401.433 452.812L405.894 473.611L405.705 486.375H431.412Z" fill="#1A3151"/>
<path d="M374.94 366.362C374.896 367.332 374.872 368.302 374.853 369.296C374.503 389.208 375.599 409.376 375.725 429.429C386.012 427.818 396.399 426.932 406.81 426.776C409.235 426.737 420.17 428.43 421.698 426.989C423.764 425.05 421.489 425.409 421.64 422.863C421.838 419.575 420.258 416.878 420.854 412.984C421.557 408.402 422.949 403.867 423.764 399.29C425.382 390.1 426.354 380.809 426.673 371.483C426.95 363.215 426.673 354.641 423.099 347.173C414.332 328.745 386.064 329.085 378.31 348.318C375.982 354.035 375.197 360.213 374.94 366.362Z" fill="white"/>
<path d="M406.835 340.525L399.158 354.516C399.549 368.66 399.95 382.792 400.361 396.914L400.914 416.467C400.982 418.726 401.035 420.991 401.108 423.256C401.142 424.269 400.86 425.981 401.437 426.81C402.693 428.605 407.291 428.047 409.293 428.202C412.421 428.45 415.598 428.687 418.536 429.783C420.476 430.501 422.353 431.582 424.419 431.873C424.647 431.93 424.884 431.941 425.115 431.903C425.347 431.866 425.569 431.781 425.767 431.655C425.947 431.46 426.086 431.231 426.175 430.981C426.264 430.731 426.302 430.465 426.286 430.2C427.003 420.501 427.018 410.497 427.556 400.692C427.978 392.981 429.011 385.203 428.652 377.482C428.274 369.534 427.033 361.634 425.515 353.837C424.613 349.22 423.575 344.511 421.014 340.554C418.134 336.068 414.056 334.25 409.036 333.28C407.262 332.921 400.657 330.424 401.762 334.458C402.305 336.451 405.487 338.92 406.835 340.525Z" fill="#474EBB"/>
<path d="M390.134 341.839L397.806 355.849C397.646 355.849 396.836 390.144 396.763 392.457C396.517 401.261 396.268 410.064 396.016 418.867C395.948 421.292 396.273 424.202 395.798 426.587C395.129 429.943 391.594 429.284 388.582 429.555C381.992 430.147 375.057 431.272 368.447 430.937C366.542 430.84 369.049 391.07 369.049 387.361C369.049 374.01 366.28 359.2 373.059 347.111C375.033 343.585 378.51 337.94 382.351 336.199C385.93 334.58 391.051 334.303 394.959 333.396L395.163 335.913L390.134 341.839Z" fill="#474EBB"/>
<path d="M406.795 307.952C407.97 310.1 408.62 312.497 408.692 314.944C408.721 315.594 408.764 316.341 409.288 316.724C409.812 317.107 409.356 318.034 409.773 317.486C410.19 316.938 411.65 315.032 411.713 314.343C411.866 312.722 411.866 311.09 411.713 309.469C411.572 308.063 411.286 306.594 410.365 305.517C409.785 304.911 409.112 304.4 408.372 304.004C407.372 303.312 406.257 302.805 405.079 302.506C403.018 302.123 401.752 302.86 403.571 304.3C404.874 305.295 405.969 306.536 406.795 307.952V307.952Z" fill="#292949"/>
<path d="M393.926 335.589C393.926 336.559 393.732 337.621 394.614 338.392C395.062 338.738 395.598 338.95 396.161 339.003C397.606 339.231 399.084 339.125 400.482 338.693C401.064 338.544 401.602 338.26 402.053 337.864C402.262 337.657 402.42 337.407 402.518 337.13C402.615 336.854 402.649 336.559 402.616 336.268C402.645 335.516 402.795 334.755 402.892 333.994C403.098 332.325 403.22 330.646 403.256 328.965C405.724 328.543 408.629 327.743 409.473 325.158C409.698 324.321 409.793 323.454 409.754 322.588C409.777 319.003 409.803 315.419 409.832 311.837C409.916 310.6 409.776 309.358 409.42 308.171C408.673 306.153 406.782 304.951 404.929 304.194C400.191 302.254 394.673 302.342 390.303 305.086C389.091 305.797 388.088 306.814 387.394 308.035C386.361 310.004 386.492 312.433 386.652 314.703L387.098 321.007C387.268 323.432 387.626 326.196 389.522 327.471C390.492 328.145 391.802 328.271 392.655 329.144C394.154 330.672 393.441 332.956 393.882 334.804C393.925 335.063 393.939 335.326 393.926 335.589V335.589Z" fill="#EACDB0"/>
<path d="M410.617 321.161C410.578 320.491 410.287 318.547 409.288 319.769C409.051 320.122 408.93 320.541 408.944 320.967C408.962 321.393 408.918 321.819 408.813 322.232C408.507 323.154 407.489 323.576 406.577 323.556C406.213 323.564 405.852 323.479 405.53 323.309C405.225 323.111 404.957 322.863 404.734 322.577L402.989 320.574C401.985 319.424 400.001 319.919 398.624 320.089C397.041 320.239 395.53 320.825 394.26 321.781L393.881 322.101C393.59 322.375 393.264 322.61 392.912 322.8C391.709 323.386 390.22 322.775 389.381 321.684C388.993 321.199 388.634 320.535 388.033 320.453C387.791 320.442 387.551 320.503 387.343 320.629C387.136 320.755 386.971 320.94 386.869 321.161C386.653 321.615 386.537 322.112 386.53 322.615C386.373 324.467 386.697 326.328 387.471 328.018C389.211 331.577 392.572 332.013 395.952 331.936L399.963 331.839C402.387 331.781 404.987 331.684 407.043 330.263C408.861 329.007 409.952 326.868 410.379 324.647C410.609 323.5 410.689 322.328 410.617 321.161ZM401.684 326.204C401.079 326.599 400.39 326.848 399.673 326.932C398.955 327.016 398.228 326.933 397.548 326.689C396.937 326.505 397.194 325.481 397.805 325.666C398.36 325.877 398.957 325.953 399.547 325.888C400.137 325.823 400.703 325.619 401.199 325.292C401.723 324.928 402.213 325.845 401.684 326.204Z" fill="#292949"/>
<path d="M411.127 301.738C411.364 300.87 411.539 299.987 411.651 299.095C410.818 299.384 409.926 299.461 409.056 299.318V297.771C409.056 297.339 403.237 297.039 402.786 297.005C398.373 296.641 394.343 296.297 390.352 298.663C386.958 300.686 384.761 303.707 384.242 307.635C383.757 311.388 384.969 316.291 387.152 319.409C387.152 318.41 386.565 316.053 386.797 315.103C386.951 314.15 387.264 313.23 387.724 312.382C388.658 310.69 390.012 309.267 391.657 308.251C394.286 306.69 397.213 305.699 400.25 305.341C402.999 304.958 406.35 304.604 409.066 305.341C410.37 305.69 410.589 306.015 411.379 304.701C411.52 304.468 412.625 301.752 412.519 301.752L411.127 301.738Z" fill="#292949"/>
<path d="M428.769 353.909C427.492 353.815 426.266 353.363 425.234 352.604C420.991 349.797 419.143 344.661 416.811 340.35C415.424 337.78 414.061 333.963 411.903 331.97C411.5 331.597 406.86 329.395 406.898 329.25L407.136 327.979L408.397 328.222L409.144 327.712L405.749 325.967L407.965 322.233L412.994 322.106C414.449 324.905 415.23 328.144 417.358 330.544C418.256 331.563 419.298 332.426 420.268 333.362C421.946 334.972 423.396 336.795 424.909 338.551C426.849 340.801 429.812 342.634 430.951 345.456C431.587 347.028 432.629 350.572 431.921 352.153C431.388 353.312 430.04 353.938 428.769 353.909Z" fill="#EACDB0"/>
<path d="M432.464 348.153C432.777 348.171 433.076 348.284 433.323 348.478C433.542 348.752 433.657 349.096 433.647 349.448C433.972 353.443 433.356 357.449 432.678 361.401C431.761 366.901 430.592 372.73 426.737 376.755C424.511 379.073 420.918 380.634 418.081 379.102C415.608 377.773 414.686 374.703 414.313 371.92C413.182 363.631 414.561 355.195 418.27 347.697C418.482 347.181 418.815 346.724 419.24 346.363C420.341 345.568 423.789 346.819 425.088 347.023L432.464 348.153Z" fill="#474EBB"/>
<path d="M369.126 331.082C369.933 330.419 370.513 329.521 370.786 328.513C371.059 327.505 371.011 326.437 370.648 325.457C369.287 321.778 367.928 318.097 366.57 314.415C365.799 312.349 364.344 309.886 364.344 307.728C364.296 303.921 365.653 299.595 366.434 295.88C366.832 293.994 366.977 291.327 367.967 289.663C368.156 289.353 370.673 287.088 370.619 287.006L370.236 286.245L369.485 286.637L368.912 286.453L370.721 284.717L368.621 282.777L365.416 283.641C365.013 285.682 365.135 287.874 364.252 289.79C363.879 290.604 363.374 291.346 362.933 292.122C362.172 293.451 361.599 294.877 360.993 296.273C360.387 297.67 359.509 298.853 358.927 300.192C357.634 303.169 356.341 306.155 355.048 309.148L361.008 328.614C361.257 329.413 361.697 330.138 362.291 330.728C362.884 331.317 363.613 331.753 364.414 331.996C365.214 332.24 366.062 332.284 366.883 332.124C367.704 331.965 368.474 331.607 369.126 331.082V331.082Z" fill="#EACDB0"/>
<path d="M383.306 332.915C380.899 331.88 378.68 330.452 376.74 328.691C375.882 327.891 371.993 320.515 372.701 320.321L372.521 320.375L371.997 320.573H371.925C370.761 320.457 368.666 321.611 367.56 321.97C363.884 323.139 360.243 324.477 356.465 325.122C356.524 328.432 357.052 331.717 358.031 334.879C358.875 337.789 360.325 340.141 361.426 342.866C362.611 345.663 363.976 348.379 365.514 350.999C365.878 351.644 369.539 359.184 369.325 359.243C371.45 358.879 373.084 357.201 374.388 355.484C377.448 351.459 378.903 345.999 382.744 342.716C385.731 340.16 389.63 339.913 389.247 334.753C387.202 334.372 385.209 333.755 383.306 332.915Z" fill="#474EBB"/>
<path d="M319.992 319.614C319.953 320.245 319.788 320.861 319.507 321.428C318.77 323.326 318.532 325.381 318.814 327.397C320.774 327.392 322.722 327.708 324.58 328.333C324.987 326.878 325.39 325.424 325.797 323.94C325.845 323.706 325.941 323.485 326.078 323.29C326.294 323.063 326.565 322.896 326.864 322.805C328.437 322.177 329.895 321.291 331.175 320.181C331.47 319.959 331.708 319.67 331.868 319.338C331.974 319.026 332.017 318.696 331.994 318.368C331.994 315.72 331.994 313.072 331.994 310.424C332.026 310.275 332.026 310.121 331.995 309.972C331.964 309.822 331.902 309.681 331.814 309.557C331.725 309.432 331.612 309.328 331.481 309.249C331.351 309.171 331.205 309.12 331.054 309.101L329.696 308.616C329.567 308.547 329.428 308.498 329.284 308.47C328.965 308.316 328.615 308.235 328.26 308.235C327.906 308.235 327.556 308.316 327.237 308.47C327.058 308.528 325.084 308.955 325.07 308.805C325.333 311.644 324.548 314.482 322.863 316.782C322.826 316.879 322.762 316.962 322.679 317.023C322.595 317.084 322.496 317.118 322.392 317.123C322.289 317.128 322.187 317.102 322.098 317.049C322.01 316.996 321.938 316.919 321.893 316.826C321.273 316.157 320.764 315.395 320.385 314.566L318.169 315.114C318.076 315.71 318.119 316.319 318.297 316.895C318.474 317.472 318.78 318 319.192 318.44C319.284 318.533 319.367 318.605 319.439 318.668C319.608 318.762 319.748 318.899 319.846 319.065C319.943 319.232 319.994 319.421 319.992 319.614V319.614Z" fill="#EACDB0"/>
<path d="M327.352 323.605L318.226 322.111L308.915 347.59L286.923 343.842L291.714 373.156L319.69 356.401L327.352 323.605Z" fill="#353A85"/>
<path d="M255 519.165C253.613 519.258 252.342 518.773 250.994 518.622C251.051 513.911 251.588 509.219 252.599 504.617C254.689 506.94 256.45 505.587 256.382 509.952C256.358 511.368 254.748 517.017 255 519.165Z" fill="#E5D1BD"/>
<path d="M250.694 516.257C249.113 515.695 248.754 519.463 248.754 520.35C248.794 520.881 248.768 521.416 248.676 521.941C248.486 522.497 248.184 523.009 247.789 523.444L245.495 526.324C245.127 526.738 244.83 527.21 244.618 527.721C244.43 528.381 244.48 529.085 244.757 529.712C245.034 530.339 245.522 530.849 246.135 531.155C250.374 533.293 254.244 528.114 255.16 524.69C255.301 524.167 255.403 523.633 255.504 523.1C255.718 521.999 256.552 519.594 256.115 518.517C255.606 517.256 254.059 518.168 253.046 517.697C252.032 517.227 251.353 516.485 250.694 516.257Z" fill="#292949"/>
<path d="M280.788 440.868C276.841 451.619 272.282 462.138 269.683 473.393C266.473 487.301 261.294 500.846 258.627 514.793C256.91 514.851 255.192 514.778 253.486 514.574C251.546 514.346 248.428 513.818 247.72 511.665C247.361 510.569 247.72 508.794 247.798 507.664C247.972 504.032 248.234 500.39 248.501 496.777C249.257 486.521 249.772 476.138 251.658 466.022C253.646 455.383 255.537 444.685 257.293 434.074C258.195 428.575 259.305 423.11 260.688 417.712C261.042 416.321 264.708 401.976 265.43 402.088C273.902 403.404 282.044 406.325 289.42 410.695C290.143 411.127 290.841 411.636 291.093 412.402C291.269 413.11 291.196 413.857 290.885 414.517C288.659 421.126 285.691 427.329 283.32 433.914C282.49 436.227 281.652 438.516 280.788 440.868Z" fill="#5D66D3"/>
<path d="M281.537 518.395C282.832 518.88 284.19 518.808 285.518 519.065C286.868 514.549 287.75 509.906 288.152 505.21C285.465 506.805 284.185 504.992 282.958 509.182C282.555 510.544 282.434 516.427 281.537 518.395Z" fill="#E5D1BD"/>
<path d="M286.88 517.692C286.88 520.267 288.907 523.027 290.032 525.359C290.182 525.623 290.275 525.915 290.303 526.218C290.262 526.669 290.077 527.096 289.775 527.435C289.453 527.975 288.986 528.414 288.427 528.7C287.835 528.877 287.205 528.877 286.613 528.7C285.609 528.477 284.62 528.216 283.64 527.9C283.363 527.848 283.104 527.722 282.893 527.535C282.681 527.348 282.524 527.107 282.438 526.838C281.744 525.447 281.157 524.457 281.191 522.905C281.225 521.354 281.434 519.642 281.143 518.056C280.997 517.285 280.803 516.301 281.463 515.879C281.972 515.549 282.918 516 283.466 516.092C284.436 516.252 285.352 516.189 286.254 516.708C286.448 516.8 286.615 516.94 286.739 517.115C286.838 517.291 286.887 517.491 286.88 517.692V517.692Z" fill="#292949"/>
<path d="M280.197 435.97C280.769 447.41 281.991 458.806 281.128 470.328C280.057 484.556 280.968 499.042 279.358 513.139C280.98 513.701 282.642 514.142 284.329 514.458C286.269 514.822 289.387 515.239 290.696 513.41C291.365 512.474 291.525 510.666 291.812 509.57C292.723 506.049 293.552 502.509 294.377 498.969C296.709 488.95 299.299 478.883 300.507 468.665C301.777 457.919 303.135 447.158 304.633 436.484C305.404 430.966 305.972 425.423 306.272 419.856C306.35 418.425 307.111 403.639 306.389 403.533C297.913 402.269 289.273 402.636 280.934 404.614C280.115 404.808 279.295 405.099 278.83 405.744C278.451 406.367 278.298 407.102 278.398 407.824C278.558 414.803 279.547 421.601 279.853 428.599C279.964 431.014 280.071 433.468 280.197 435.97Z" fill="#5D66D3"/>
<path d="M275.387 344.162C275.246 344.206 275.11 344.259 274.97 344.308C272.671 345.181 270.717 346.733 268.801 348.299C265.926 350.622 264.514 351.64 263.404 355.088C262.427 358.336 261.653 361.642 261.086 364.986C257.832 381.959 257.206 398.844 254.864 415.934C254.229 420.589 253.739 426.059 257.177 429.25C263.283 424.493 270.959 424.226 278.364 424.226C283.563 424.226 288.645 422.539 293.858 423.116C298.838 423.673 303.193 422.427 308.246 422.757C309.463 422.834 311.02 422.82 311.5 421.7C309.75 416.453 309.779 410.813 309.386 405.299C308.358 391.037 303.634 377.352 301.729 363.182C301.079 358.371 300.735 350.375 297.005 346.733C292.951 342.771 283.708 342.688 278.5 343.464C277.443 343.602 276.401 343.836 275.387 344.162V344.162Z" fill="#353A85"/>
<path d="M279.257 343.919C279.345 344.1 279.463 344.263 279.606 344.404C280.235 344.987 281.033 345.356 281.885 345.457C282.99 345.563 284.104 345.485 285.183 345.224C286.638 344.943 286.604 344.084 286.817 342.751C286.934 342.018 287.006 341.296 287.06 340.549C287.089 340.142 286.934 338.697 287.191 338.415C287.365 338.226 288.078 338.289 288.388 338.124C288.884 337.835 289.297 337.424 289.591 336.931C290.037 336.166 290.373 335.341 290.59 334.482C291.039 333.011 291.487 331.54 291.933 330.069C292.444 328.582 292.801 327.047 293 325.487C293.223 323.125 292.84 319.798 291.06 318.072C289.436 316.501 287.069 315.948 284.897 315.672C282.011 315.271 279.075 315.865 276.57 317.354C275.515 317.953 274.635 318.82 274.02 319.866C273.108 321.564 273.176 323.678 273.278 325.656C273.365 327.483 273.456 329.31 273.549 331.136C273.651 333.241 273.913 335.661 275.489 336.8C276.323 337.402 277.429 337.533 278.132 338.309C279.029 339.278 278.971 340.733 279.005 341.97C278.944 342.63 279.03 343.296 279.257 343.919V343.919Z" fill="#EACDB0"/>
<path d="M288.364 320.308C288.461 320.48 288.542 320.66 288.606 320.846C288.946 321.816 288.718 322.907 289.043 323.877C289.561 325.415 291.361 326.341 291.632 327.941C291.85 329.255 290.958 330.497 290.88 331.821C290.798 333.275 291.729 334.643 291.584 336.074C291.346 337.51 290.78 338.873 289.93 340.055C290.158 339.749 292.238 339.856 292.777 339.531C293.606 339.022 293.698 338.707 293.945 337.844C294.193 336.98 293.999 336.146 294.382 335.269C294.867 334.192 295.807 333.406 296.142 332.257C296.603 330.696 295.769 329.042 295.832 327.408C295.934 324.944 298.062 322.621 297.287 320.279C296.831 318.902 295.497 318.024 294.745 316.787C294.173 315.847 293.965 314.736 293.572 313.713C293.179 312.69 292.495 311.662 291.438 311.351C290.838 311.248 290.232 311.177 289.624 311.138C288.587 310.944 287.724 310.226 286.715 309.887C285.284 309.402 282.758 310.857 281.924 312.064C281.09 313.272 281.516 314.29 282.36 315.352C283.786 317.137 287.2 318.296 288.364 320.308Z" fill="#292949"/>
<path d="M269.096 313.028C268.238 313.654 267.181 314.11 266.4 314.847C264.872 316.277 264.581 318.571 264.528 320.666C264.475 322.528 263.66 324.187 263.864 326.126C263.905 326.783 264.082 327.423 264.383 328.007C264.684 328.592 265.104 329.107 265.614 329.521C266.938 330.491 269.009 330.636 269.601 332.159C270.241 333.813 268.529 335.898 269.567 337.333C270.144 338.129 271.269 338.245 272.088 338.788C273.005 339.38 273.475 340.442 274.028 341.383C274.581 342.323 275.43 343.259 276.521 343.279C276.564 341.62 276.613 340.306 275.905 338.788C275.493 337.901 274.275 336.271 275.211 335.311C275.798 334.516 277.19 334.259 277.224 333.265C277.169 332.801 276.973 332.366 276.661 332.018C276.186 331.25 275.901 330.38 275.828 329.479C275.756 328.579 275.898 327.674 276.244 326.839C276.963 325.168 278.271 323.82 279.92 323.052C281.816 322.131 281.511 321.67 282.063 319.851C282.573 318.178 283.518 317.785 285.026 317.174C286.379 316.626 286.816 316.287 287.315 315.021C287.679 314.095 288.13 312.985 287.597 311.952C287.116 311.16 286.463 310.487 285.686 309.983C284.154 308.814 282.427 307.582 280.507 307.723C279.44 307.801 278.431 308.3 277.364 308.363C276.652 308.402 275.944 308.247 275.226 308.222C273.981 308.18 272.757 308.55 271.744 309.275C270.75 310.007 270.774 310.768 270.221 311.806C269.944 312.294 269.56 312.712 269.096 313.028V313.028Z" fill="#292949"/>
<path d="M273.404 306.2C273.593 305.041 273.472 303.533 272.366 303.145C271.76 302.932 271.081 303.145 270.456 303.038C269.113 302.762 268.657 301.142 267.954 299.969C267.861 299.784 267.716 299.63 267.536 299.527C267.252 299.452 266.953 299.452 266.668 299.527C265.335 299.692 264.321 298.373 263.065 297.898C262.275 297.635 261.412 297.695 260.666 298.066C259.92 298.436 259.351 299.087 259.084 299.876C258.89 300.531 258.924 301.234 258.745 301.894C258.012 304.566 254.099 305.701 254.002 308.47C253.934 310.341 255.767 312.131 255.054 313.862C254.598 314.973 253.173 315.724 253.337 316.912C253.426 317.288 253.644 317.62 253.952 317.852C254.26 318.084 254.64 318.201 255.025 318.183C255.8 318.122 256.529 317.789 257.081 317.242C258.003 316.437 258.696 315.409 259.574 314.556C260.452 313.702 261.62 313.013 262.833 313.164C264.045 313.314 265.068 314.226 266.227 314.032C267.163 313.877 267.857 313.062 268.773 312.805C269.69 312.548 270.524 312.926 271.406 312.98C272.289 313.033 273.375 312.572 273.399 311.685C273.368 311.473 273.368 311.257 273.399 311.045C273.589 310.472 274.563 310.506 274.748 309.934C274.263 309.221 273.637 309.478 273.293 308.547C273.074 307.839 273.288 306.927 273.404 306.2Z" fill="#292949"/>
<path d="M450.509 359.354H268.467V485.744H450.509V359.354Z" fill="#8CABEF"/>
<path opacity="0.2" d="M316.16 363.376H272.69V401.982C272.69 380.659 292.161 363.376 316.16 363.376Z" fill="#DDDAE8"/>
<g opacity="0.2">
<path opacity="0.2" d="M348.036 485.745H450.509V421.044C450.509 421.044 441.043 485.745 348.036 485.745Z" fill="#3B3387"/>
</g>
<path opacity="0.49" d="M431.823 271.304C431.823 271.255 431.823 271.212 431.823 271.163L431.906 271.236L431.823 271.304Z" fill="#808080"/>
<path d="M177.677 526.333L177.386 530.426L185.285 535.106L189.674 531.304L185.867 526.915L177.968 522.235L177.677 526.333Z" fill="#292949"/>
<path d="M173.608 401.792L172.726 414.231L185.475 469.31L177.342 524.981L185.349 527.188L209.014 460.567L209.814 440.393L205.076 398.8L173.608 401.792Z" fill="#292949"/>
<path d="M225.03 409.135L230.088 461.3L225.995 529.463L218.43 530.108L208.348 468.395L192.694 407.156L225.03 409.135Z" fill="#292949"/>
<path d="M218.397 529.204L218.747 533.292L227.282 536.687L231.02 532.245L226.583 528.506L218.397 529.204Z" fill="#292949"/>
<path d="M166.333 408.299C165.737 413.047 165.218 419.453 167.022 419.894C167.367 419.94 167.717 419.874 168.021 419.705C171.362 418.308 173.84 416.116 177.133 414.773C180.581 413.362 184.407 412.833 188.141 412.552C193.741 412.096 199.369 412.096 204.969 412.552C209.362 412.93 213.731 413.764 218.062 414.579C221.665 415.258 224.934 416.689 228.663 416.815C232.511 416.956 236.337 416.167 239.816 414.516C239.89 414.499 239.958 414.466 240.016 414.418C240.074 414.37 240.12 414.309 240.151 414.241C240.181 414.172 240.195 414.097 240.192 414.022C240.189 413.947 240.168 413.874 240.132 413.808C239.579 411.606 239.239 409.444 238.017 407.543C236.65 405.414 235.791 402.8 234.885 400.448C232.935 395.519 231.35 390.454 230.142 385.294C228.343 378.291 226.165 371.419 224.453 364.402C223.265 359.553 222.232 354.602 220.419 349.917C219.003 346.251 216.36 340.834 212.699 338.904C211.419 338.324 210.046 337.974 208.644 337.871L196.007 336.193C194.47 335.99 192.874 335.791 191.4 336.276C189.198 337.008 187.782 339.098 186.551 341.053C180.925 349.811 176.92 359.48 174.189 369.582C172.759 374.858 171.396 380.153 170.213 385.488C168.889 391.438 167.788 397.437 167.051 403.489C166.92 404.172 166.619 406.044 166.333 408.299Z" fill="#D67086"/>
<path d="M199.824 360.213C199.649 362.622 199.223 365.007 198.553 367.327C194.981 381.594 191.405 395.856 187.826 410.114L221.893 413.353C222.048 407.889 222.2 402.424 222.349 396.957C222.525 393.454 222.464 389.943 222.165 386.448C221.554 380.823 219.716 375.397 217.888 370.024C214.516 360.092 211.144 350.159 207.772 340.224C207.653 339.603 207.339 339.036 206.874 338.606C206.41 338.177 205.82 337.908 205.192 337.838C202.006 336.941 198.403 336.083 195.086 336.223C193.961 339.104 196.434 344.579 197.258 347.454C198.466 351.635 199.984 355.849 199.824 360.213Z" fill="#F7F7F7"/>
<path d="M204.056 339.802L197.039 338.765C197.107 336.878 197.326 335 197.694 333.149C197.65 333.372 194.091 330.996 193.814 330.516C192.99 329.119 193.106 326.932 192.844 325.346C192.359 321.952 191.923 318.193 193.96 315.463C196.074 312.631 200.065 312.001 203.586 312.272C208.008 312.617 212.8 314.411 214.672 318.431C216.364 322.058 213.26 326.83 212.145 330.365C211.597 332.111 210.831 334.085 209.1 334.667C208.178 334.977 207.116 334.822 206.272 335.302C204.798 336.151 204.881 338.304 204.056 339.802Z" fill="#EACDB0"/>
<path d="M222.305 312.616L223.847 305.391C224.105 304.508 224.166 303.579 224.026 302.67C223.692 301.186 222.329 300.143 220.908 299.595C219.487 299.048 217.95 298.873 216.505 298.393C214.963 297.884 213.503 297.02 211.879 296.938C208.795 296.754 206.152 299.363 203.067 299.528C198.795 299.765 195.139 297.438 192.088 302.117C191.526 302.98 191.288 304.013 190.779 304.906C190.124 306.055 189.057 306.908 188.194 307.912C184.378 312.32 184.703 319.643 188.311 324.09C190.061 326.248 190.672 328.095 193.301 329.002C192.331 326.369 194.988 316.568 198.475 315.797C199.401 315.594 201.971 316.966 202.946 317.213C205.101 317.675 207.19 318.405 209.163 319.386C212.112 321.016 215.301 322.17 218.61 322.805C218.813 322.869 219.026 322.893 219.239 322.875C219.451 322.857 219.657 322.797 219.846 322.698C220.144 322.424 220.331 322.049 220.37 321.646C221.013 318.633 221.658 315.623 222.305 312.616Z" fill="#292949"/>
<path d="M345.336 260.495C344.532 255.157 345.868 249.718 349.053 245.359C352.237 241.001 357.013 238.075 362.342 237.218C362.275 236.869 362.211 236.524 362.158 236.17C361.407 231.166 362.202 226.051 364.436 221.511C366.67 216.97 370.238 213.22 374.661 210.762C379.084 208.304 384.153 207.255 389.188 207.755C394.224 208.256 398.987 210.282 402.84 213.562C405.307 209.721 408.862 206.701 413.053 204.889C417.243 203.076 421.878 202.553 426.367 203.385C430.856 204.218 434.995 206.368 438.257 209.563C441.518 212.757 443.755 216.851 444.68 221.321C445.19 221.205 445.704 221.103 446.227 221.021C451.063 220.278 456.005 221.29 460.159 223.873C464.314 226.457 467.407 230.441 468.88 235.106C470.353 239.771 470.109 244.81 468.191 249.31C466.273 253.811 462.809 257.477 458.424 259.646C460.258 262.62 461.275 266.026 461.371 269.519C461.467 273.012 460.638 276.468 458.969 279.538C457.301 282.608 454.851 285.183 451.867 287.002C448.884 288.821 445.473 289.819 441.979 289.897L445.117 310.875C445.243 311.787 444.147 312.33 443.73 311.913L427.64 295.231C425.629 297.043 423.27 298.423 420.706 299.289C418.142 300.154 415.428 300.485 412.731 300.261C410.034 300.037 407.412 299.264 405.025 297.989C402.638 296.713 400.538 294.963 398.854 292.845C395.847 295.415 392.208 297.132 388.313 297.819C384.419 298.506 380.411 298.137 376.708 296.751C373.004 295.365 369.739 293.013 367.252 289.938C364.765 286.863 363.147 283.179 362.566 279.267C362.488 278.743 362.435 278.219 362.396 277.696C358.093 277.013 354.12 274.978 351.053 271.885C347.985 268.792 345.983 264.803 345.336 260.495V260.495Z" fill="#5D66D3"/>
<path d="M384.29 256.867C387.287 256.421 387.985 261.071 384.988 261.518C381.991 261.964 381.317 257.318 384.29 256.867Z" fill="white"/>
<path d="M405.225 253.74C408.217 253.289 408.921 257.939 405.919 258.39C402.917 258.841 402.228 254.186 405.225 253.74Z" fill="white"/>
<path d="M431.392 249.827C434.384 249.376 435.088 254.026 432.086 254.477C429.084 254.928 428.395 250.273 431.392 249.827Z" fill="white"/>
<path d="M435.296 384.756L427.629 390.88C428.928 392.869 430.204 394.881 431.436 396.918C432.051 397.941 430.393 398.746 429.777 397.733C428.613 395.793 427.415 393.892 426.184 392.03C423.698 394.018 421.208 396.005 418.716 397.99C417.789 398.732 416.582 397.33 417.513 396.588L425.17 390.473C423.673 388.21 422.13 385.986 420.539 383.8C419.841 382.83 421.232 381.623 421.936 382.593C423.552 384.804 425.11 387.048 426.61 389.324L434.093 383.354C435.019 382.612 436.227 384.014 435.296 384.756Z" fill="white"/>
<path d="M426.126 411.617C425.57 408.205 424.671 404.858 423.444 401.627C423.173 400.904 422.261 401.035 421.859 401.506C419.428 404.339 417.42 407.507 415.894 410.913C415.491 411.806 416.699 412.465 417.349 411.927C418.202 411.238 419.005 410.487 419.749 409.682C415.506 423.294 411.394 440.034 396.031 443.181C382.283 445.994 374.538 430.651 368.573 420.874C363.462 412.504 358.031 403.441 349.481 398.184C340.35 392.568 329.114 392.956 319.827 398.029C310.473 403.14 302.98 412.523 303.189 423.517C297.369 423.178 292.316 427.426 291.254 433.264C290.357 438.187 292.855 446.154 298.577 445.916C298.555 446.016 298.553 446.118 298.571 446.218C298.59 446.318 298.628 446.413 298.683 446.498C298.739 446.583 298.811 446.656 298.895 446.713C298.979 446.769 299.074 446.809 299.173 446.828C305.647 448.506 311.811 444.374 313.115 437.828C314.299 431.853 311.151 425.195 305.027 423.789C304.396 408.838 319.783 396.229 333.915 395.88C357.269 395.303 364.602 421.829 376.948 436.659C380.639 441.091 385.338 444.791 391.259 445.296C396.782 445.781 402.102 443.492 406.321 440.029C416.587 431.611 418.726 417.863 422.916 405.899C423.504 407.889 423.967 409.913 424.303 411.961C424.511 413.168 426.32 412.81 426.126 411.617ZM303.693 425.457C303.818 425.507 303.952 425.529 304.086 425.52C304.27 425.549 304.459 425.578 304.648 425.622C316.006 428.202 312.107 447.109 300.817 445.32C301.302 444.694 300.905 443.545 299.978 443.826C293.247 445.868 292.025 435.733 293.674 431.528C294.43 429.546 295.826 427.872 297.641 426.772C299.456 425.672 301.586 425.21 303.693 425.457V425.457Z" fill="white"/>
<path d="M294.222 438.652C294.12 438.079 294.067 437.498 294.062 436.916C293.927 430.19 297.394 425.709 304.314 427.334C307.874 428.173 309.944 432.668 309.93 436.014C309.93 438.264 309.236 440.743 307.335 441.935C304.236 443.875 296.919 444.098 294.848 440.437C294.545 439.879 294.334 439.277 294.222 438.652V438.652Z" fill="#D67086"/>
<path d="M346.91 353.032L298.341 284.181L293.471 287.616L342.04 356.467L346.91 353.032Z" fill="#D67086"/>
<path d="M356.644 346.161L308.075 277.31L303.205 280.745L351.774 349.596L356.644 346.161Z" fill="#D67086"/>
<path d="M351.779 349.598L303.21 280.747L298.34 284.183L346.909 353.034L351.779 349.598Z" fill="white"/>
<path d="M308.078 277.309L307.152 275.997L292.542 286.304L293.467 287.615L308.078 277.309Z" fill="#BABCBE"/>
<path d="M307.158 275.994L306.232 274.683L291.622 284.989L292.547 286.301L307.158 275.994Z" fill="#F7F7F7"/>
<path d="M306.223 274.686L305.298 273.374L290.688 283.68L291.613 284.992L306.223 274.686Z" fill="#BABCBE"/>
<path d="M298.451 263.665L304.372 272.058L289.761 282.364L283.841 273.971C282.713 272.373 282.267 270.392 282.6 268.464C282.932 266.537 284.018 264.82 285.616 263.692L288.172 261.889C289.771 260.762 291.752 260.315 293.679 260.648C295.607 260.981 297.323 262.066 298.451 263.665Z" fill="#E8E8E8"/>
<path d="M305.304 273.369L304.379 272.058L289.769 282.364L290.694 283.676L305.304 273.369Z" fill="#F7F7F7"/>
<path d="M356.668 346.16L342.062 356.465L362.065 369.316L356.668 346.16Z" fill="#EED5D5"/>
<path d="M360.804 363.902L357.39 366.308L362.064 369.314L360.804 363.902Z" fill="#292949"/>
<path opacity="0.25" d="M205.323 461.317C205.323 461.317 286.609 464.761 287.622 464.116C288.636 463.471 288.04 381.942 284.878 378.824C284.878 378.824 210.265 456.23 205.323 461.317Z" fill="#3B455A"/>
<path d="M284.785 461.319H201.375C203.608 446.657 204.66 431.84 204.522 417.01C204.396 403.756 204.454 392.307 202.524 379.616C230.336 379.616 256.998 377.89 284.809 377.89C285.987 389.528 286.778 402.253 286.904 415.885C287.029 431.057 286.322 446.224 284.785 461.319V461.319Z" fill="#474EBB"/>
<path d="M240.636 412.029C240.045 406.554 238.09 400.133 232.649 397.699C226.428 394.91 219.755 397.81 214.052 400.473C213.266 400.836 213.95 402 214.731 401.637C215.293 401.375 215.871 401.103 216.462 400.841C217.626 413.139 215.264 425.452 216.132 437.755C216.051 437.888 216.013 438.044 216.026 438.2C216.038 438.356 216.099 438.504 216.2 438.623C216.225 438.894 216.239 439.166 216.263 439.438C216.346 440.296 217.694 440.306 217.611 439.438C217.582 439.147 217.568 438.851 217.544 438.555C228.561 434.782 242.043 424.996 240.636 412.029ZM231.151 429.099C227.167 432.678 222.503 435.419 217.437 437.158C216.666 424.865 219.027 412.562 217.757 400.269C222.509 398.237 227.858 396.676 232.649 399.183C237.722 401.845 239.463 409.129 239.439 414.415C239.371 420.413 235.394 425.253 231.151 429.099Z" fill="white"/>
<path d="M250.867 419.972C248.879 419.182 246.188 420.147 244.529 421.223C242.078 422.886 240.386 425.453 239.825 428.362C238.686 433.72 240.136 440.606 246.614 441.111C252.841 441.596 257.55 435.995 258.209 430.209C258.752 425.365 255.828 420.127 250.867 419.972ZM256.687 431.247C255.717 435.665 252.162 439.801 247.347 439.796C241.382 439.796 240.131 433.492 241.149 428.72C241.558 426.548 242.667 424.569 244.306 423.085C245.528 422.029 247.015 421.325 248.607 421.049C248.668 421.195 248.779 421.316 248.92 421.388C249.062 421.46 249.224 421.479 249.379 421.441C249.76 421.363 250.148 421.316 250.538 421.301C250.69 421.369 250.835 421.453 250.969 421.553C251.032 421.605 251.106 421.642 251.185 421.663C251.265 421.683 251.347 421.685 251.428 421.669C251.508 421.653 251.584 421.62 251.649 421.571C251.715 421.523 251.769 421.46 251.808 421.388C255.814 422.149 257.53 427.314 256.687 431.247Z" fill="white"/>
<path d="M269.13 435.331C269.106 435.297 269.082 435.258 269.053 435.224C268.277 434.424 267.229 434.933 266.798 435.757C266.572 436 266.399 436.286 266.288 436.597C266.177 436.909 266.131 437.241 266.153 437.571C266.184 437.937 266.35 438.278 266.619 438.528C266.888 438.778 267.24 438.919 267.608 438.924C267.999 438.894 268.371 438.739 268.668 438.482C268.966 438.226 269.174 437.881 269.261 437.498C269.431 437.334 269.556 437.13 269.626 436.904C269.695 436.679 269.707 436.439 269.659 436.208C269.598 435.86 269.409 435.548 269.13 435.331V435.331Z" fill="white"/>
<path d="M272.206 404.925C271.58 403.809 269.844 403.824 268.719 403.761C268.541 403.763 268.371 403.835 268.245 403.961C268.119 404.087 268.048 404.257 268.045 404.435C267.819 412.359 267.759 420.279 267.866 428.197C267.867 428.296 267.89 428.393 267.934 428.482C267.978 428.571 268.04 428.649 268.118 428.71C268.196 428.771 268.286 428.815 268.382 428.837C268.479 428.859 268.579 428.859 268.676 428.837C268.694 429.005 268.774 429.161 268.902 429.272C269.029 429.384 269.194 429.444 269.363 429.439C269.532 429.435 269.694 429.367 269.815 429.249C269.937 429.131 270.009 428.972 270.019 428.803C270.161 422.925 270.672 417.062 271.546 411.248C271.74 409.958 271.959 408.673 272.187 407.393C272.337 406.622 272.642 405.676 272.206 404.925ZM269.374 405.148H269.548C269.501 405.233 269.472 405.327 269.461 405.424C269.437 405.662 269.4 405.898 269.35 406.132C269.369 405.797 269.374 405.482 269.384 405.148H269.374ZM269.267 409.648C269.364 409.72 269.481 409.761 269.602 409.764C269.456 410.492 269.301 411.171 269.233 411.704C269.253 411.015 269.262 410.332 269.296 409.648H269.267Z" fill="white"/>
<path d="M221.335 403.616C221.29 403.467 221.225 403.325 221.141 403.194C220.312 402.059 219.201 401.962 218.095 401.099C217.61 400.711 217.751 399.11 216.514 399.537C216.059 399.692 214.997 400.235 214.032 400.58C212.62 401.065 210.525 400.866 208.901 400.386C206.67 399.765 204.489 398.981 202.374 398.039C197.904 395.933 193.64 393.419 189.634 390.527C191.76 387.199 192.939 383.355 193.044 379.408C193.149 375.46 192.176 371.559 190.231 368.123C189.856 367.387 189.308 366.753 188.635 366.275C188.022 365.939 187.337 365.755 186.637 365.737C179.3 365.252 179.159 372.235 178.815 377.86C178.584 381.383 178.615 384.919 178.907 388.437C179.329 393.34 182.496 396.152 186.666 398.49C191.108 400.958 195.647 403.388 200.531 404.867C202.907 405.584 205.244 405.803 207.664 406.205C210.084 406.608 209.75 407.66 211.757 408.523C212.877 409.008 213.93 409.731 215.152 410.007C217.295 410.492 219.031 409.037 220.656 407.878C221.029 407.665 221.338 407.357 221.553 406.986C221.897 406.312 221.766 405.584 221.66 404.862C221.593 404.437 221.484 404.019 221.335 403.616V403.616Z" fill="#E5D1BD"/>
<path d="M175.077 380.581C175.188 383.292 175.411 385.945 175.731 388.495C176.216 392.292 176.832 396.414 179.611 399.053C180.727 400.023 181.968 400.838 183.301 401.477C189.479 404.762 195.738 407.89 202.078 410.861C204.391 407.995 206.256 404.795 207.611 401.371C207.99 400.401 208.329 399.348 208.004 398.369C207.519 396.914 205.836 396.308 204.362 395.886L197.161 393.839C196.385 393.616 195.531 393.354 195.119 392.642C194.888 392.163 194.783 391.634 194.814 391.104C194.591 381.11 196.351 372.759 198.693 363.109C199.712 358.861 200.74 354.443 199.891 350.156C198.077 340.995 186.022 338.61 181.425 347.106C176.158 356.819 174.606 369.185 175.077 380.581Z" fill="#D67086"/>
<path d="M436.469 386.018C436.787 385.586 437.218 385.25 437.715 385.048C438.399 384.737 439.218 384.631 440.038 384.078C440.63 383.69 440.479 382.259 441.852 382.802C442.337 383.001 443.243 383.641 444.213 384.01C445.629 384.548 447.642 384.495 449.344 384.126C456.026 382.671 462.748 381.314 469.595 380.625C469.983 380.625 470.364 380.523 470.701 380.329C471.292 379.912 471.37 379.238 471.52 378.579C472.147 375.505 473.068 372.499 474.27 369.602C475.4 367.018 476.743 364.559 478.925 362.731C481.108 360.902 483.988 359.986 486.684 360.844C488.692 361.484 490.36 362.886 490.777 364.981C491.81 370.175 487.038 374.059 484.182 377.696C481.476 381.144 479.163 384.063 476.331 387.22C476.016 387.626 475.615 387.957 475.157 388.19C474.65 388.382 474.107 388.46 473.567 388.418C466.71 388.331 460.027 388.064 453.311 389.456C451.463 389.839 449.78 389.456 448.044 390.038C446.934 390.416 446.357 391.517 445.338 392.041C444.302 392.637 443.159 393.025 441.973 393.18C439.723 393.33 438.336 391.677 436.803 390.314C435.577 389.228 434.65 388.913 433.055 389.344C432.867 389.433 432.661 389.475 432.454 389.465C432.31 389.429 432.178 389.358 432.066 389.261C431.955 389.163 431.869 389.04 431.814 388.903C431.759 388.765 431.738 388.617 431.751 388.469C431.764 388.322 431.812 388.18 431.891 388.054C432.211 387.511 432.778 387.346 433.346 387.147C433.955 386.928 434.591 386.792 435.237 386.745C435.513 386.772 435.789 386.702 436.018 386.546C436.226 386.372 436.289 386.221 436.469 386.018Z" fill="#E5D1BD"/>
<path d="M484.09 375.823C480.211 374.368 476.176 373.466 472.413 371.701C473.776 368.418 477.747 355.082 478.407 353.487C481.001 347.391 481.501 344.758 485.08 341.548C492.713 334.676 501.781 339.235 501.408 348.987C501.005 359.578 495.331 368.666 489.187 376.856C489.046 377.039 488.856 377.179 488.639 377.259C488.344 377.318 488.037 377.278 487.766 377.147C486.549 376.672 485.308 376.284 484.09 375.823Z" fill="#AAB4B5"/>
<path d="M486.516 521.504C485.163 521.547 483.863 521.242 482.534 521.121C481.851 507.964 483.092 494.173 483.635 480.948L493.775 481.491C491.422 488.564 489.741 495.843 488.756 503.231C488.601 504.4 486.705 521.494 486.516 521.504Z" fill="#E5D1BD"/>
<path d="M482.126 518.57C481.292 518.419 480.798 518.793 480.245 519.302C479.92 519.593 479.702 520.015 479.309 520.223C478.924 520.409 478.504 520.511 478.077 520.524C475.652 520.767 470.017 520.665 473.014 524.743C475.73 528.448 482.951 526.974 487.121 525.97C487.401 525.939 487.665 525.828 487.883 525.65C488.09 525.413 488.235 525.128 488.304 524.821C488.789 523.08 489.434 520.902 487.291 520.17C486.374 519.86 485.535 520.466 484.566 520.131C483.775 519.855 482.96 518.715 482.126 518.57Z" fill="#292949"/>
<path d="M476.056 488.886L496.734 488.484C502.311 461.938 507.22 435.267 511.461 408.469C511.791 406.388 512.111 404.23 511.515 402.213C510.38 398.401 506.297 396.224 502.388 395.497C496.312 394.357 485.144 395.938 482.021 402.257C478.728 408.934 479.281 420.859 478.481 428.24C476.301 448.377 475.491 468.639 476.056 488.886V488.886Z" fill="#292949"/>
<path d="M525.936 521.504C527.289 521.547 528.589 521.242 529.913 521.121C530.601 507.964 529.355 494.173 528.817 480.948L518.677 481.491C521.031 488.563 522.71 495.843 523.691 503.231C523.846 504.4 525.742 521.494 525.936 521.504Z" fill="#E5D1BD"/>
<path d="M530.324 518.57C531.158 518.419 531.648 518.793 532.205 519.302C532.53 519.593 532.749 520.015 533.137 520.223C533.523 520.409 533.944 520.512 534.373 520.524C536.798 520.767 542.428 520.665 539.436 524.743C536.72 528.448 529.499 526.974 525.329 525.97C525.049 525.937 524.783 525.826 524.563 525.65C524.359 525.41 524.215 525.126 524.141 524.821C523.656 523.08 523.016 520.902 525.159 520.17C526.071 519.86 526.915 520.466 527.885 520.131C528.675 519.855 529.49 518.715 530.324 518.57Z" fill="#292949"/>
<path d="M536.397 488.886L515.714 488.484C510.137 461.938 505.228 435.267 500.986 408.469C500.661 406.388 500.341 404.23 500.938 402.213C502.073 398.401 506.156 396.224 510.064 395.497C516.141 394.357 527.304 395.938 530.432 402.257C533.725 408.934 533.172 420.859 533.972 428.24C536.146 448.378 536.956 468.639 536.397 488.886V488.886Z" fill="#292949"/>
<path d="M518.721 343.317C524.188 348.63 528.35 355.139 530.878 362.331C535.296 374.727 535.378 387.961 535.422 400.928C535.422 405.244 535.435 409.56 535.461 413.876C535.461 418.124 535.097 419.036 530.485 418.478C521.931 417.44 513.027 415.675 505.268 411.878C501.583 410.069 498.135 407.785 494.27 406.359C488.644 404.289 482.879 405.224 477.297 403.876C479.722 396.578 481.443 390.356 482.68 382.835C483.955 375.076 485.104 366.643 486.986 359C488.111 354.412 490.196 350.13 492.32 345.907C493.746 343.074 495.259 340.175 497.684 338.123C505.026 331.96 513.221 338.075 518.721 343.317Z" fill="#474EBB"/>
<path d="M498.774 325.133C499.821 327.417 501.523 329.318 502.92 331.403C504.317 333.488 504.758 335.283 505.122 337.625C505.379 339.327 505.985 340.656 508.031 340.947C511.911 341.495 510.791 338.304 511.663 335.981C512.667 333.328 514.806 331.229 516.304 328.862C520.62 322.02 519.389 308.495 510.412 305.585C500.612 302.443 495.607 318.213 498.774 325.133Z" fill="#E5D1BD"/>
<path d="M514.424 318.508C515.539 318.557 516.761 318.644 517.59 319.391C518.42 320.138 518.327 321.772 517.236 321.951C516.266 322.111 514.967 321.078 514.361 321.83C514.007 322.271 514.317 322.916 514.588 323.43C515.614 325.388 515.916 327.644 515.442 329.802C515.849 330.176 516.485 329.802 516.843 329.395C518.612 327.447 519.993 325.179 520.912 322.713C521.275 323.319 521.79 323.82 522.406 324.167C522.037 323.246 522.27 322.228 522.498 321.292C523.337 317.829 523.909 313.775 521.489 310.943C520.194 309.43 518.23 308.562 516.252 308.193C514.269 307.904 512.26 307.843 510.263 308.009C509.409 308.048 508.357 308.227 508.153 309.018C510.025 309.77 511.96 311.229 512.896 313.004C513.182 313.538 514.307 318.508 514.424 318.508Z" fill="#292949"/>
<path d="M510.472 310.191L510.671 310.342C511.52 310.987 512.315 311.796 513.338 312.058C514.822 312.47 516.408 311.758 517.868 312.262C519.492 312.824 520.564 314.769 521.747 315.923C523.712 317.811 526.097 319.206 528.706 319.992C530.032 320.396 531.401 320.64 532.785 320.719C533.473 320.819 534.172 320.819 534.86 320.719C535.684 320.496 535.655 320.128 534.782 319.846C532.038 318.969 531.179 315.118 531.388 312.572C531.553 310.56 532.246 308.455 531.48 306.583C530.893 305.158 529.632 304.42 528.415 303.606C527.072 302.704 525.612 302.946 524.09 302.51C522.567 302.073 521.18 300.808 519.58 300.488C517.863 300.148 516.151 300.91 514.434 301.244C513.014 301.52 511.551 301.502 510.138 301.191C508.872 300.914 507.64 300.4 506.346 300.415C504.44 300.415 502.684 301.622 501.574 303.169C499.998 305.361 498.979 309.11 499.537 311.995C499.45 311.549 500.953 309.925 501.263 309.571C501.918 308.833 502.718 308.145 503.688 308.028C505.972 307.747 508.654 308.872 510.472 310.191Z" fill="#292949"/>
<path d="M464.241 443.536L463.717 449.268C463.547 451.135 464.76 452.765 466.423 452.92L479.88 454.142C481.543 454.292 483.032 452.905 483.202 451.043L483.721 445.306L464.241 443.536Z" fill="#B1B1B2"/>
<path d="M513.618 370.397C515.451 350.224 502.333 332.538 484.313 330.899C466.292 329.26 450.197 344.283 448.359 364.461C447.717 371.279 448.844 378.148 451.632 384.402V384.402C459.159 402.263 459.959 416.723 459.959 416.723L476.364 418.217L492.785 419.711C492.785 419.711 496.179 405.647 506.809 389.426C510.678 383.774 513.023 377.22 513.618 370.397V370.397Z" fill="#D67086"/>
<path d="M459.571 416.689L457.35 441.048C457.28 441.505 457.394 441.971 457.667 442.344C457.939 442.718 458.348 442.968 458.805 443.041L489.187 445.805C489.646 445.813 490.091 445.639 490.423 445.321C490.755 445.004 490.949 444.568 490.961 444.108L493.178 419.745L459.571 416.689Z" fill="#DDDDDD"/>
<path opacity="0.2" d="M513.663 363.491C503.722 380.881 485.076 407.441 459.941 416.621C459.941 416.679 459.941 416.723 459.941 416.723L476.366 418.217L492.786 419.71C492.786 419.71 496.181 405.647 506.811 389.426C510.675 383.768 513.014 377.209 513.6 370.382C513.812 368.091 513.833 365.786 513.663 363.491V363.491Z" fill="#3B3387"/>
<path opacity="0.5" d="M453.419 367.939C455.029 350.321 469.092 337.204 484.809 338.634C494.023 339.473 501.733 345.098 506.253 353.144C502.204 343.134 493.572 335.855 483.01 334.895C467.278 333.44 453.225 346.582 451.62 364.2C450.948 371.125 452.39 378.091 455.756 384.18C453.699 379.028 452.898 373.461 453.419 367.939V367.939Z" fill="white"/>
<path d="M470.023 417.639L470.323 370.513L475.367 376.143L480.948 368.059L485.065 376.754L490.928 372.346L482.713 418.794L484.396 418.944L493.363 368.263L485.701 374.029L481.23 364.592L475.221 373.296L468.67 365.974L468.335 417.484L470.023 417.639Z" fill="#F6F7F7"/>
<path d="M468.369 412.785L468.335 417.484L470.023 417.64L470.061 411.82C469.499 412.16 468.936 412.475 468.369 412.785Z" fill="#EDECED"/>
<path d="M486.093 399.667L482.698 418.793L484.381 418.943L488.144 397.664C487.48 398.343 486.791 399.007 486.093 399.667Z" fill="#EDECED"/>
<path d="M459.025 422.736L458.615 427.237L492.209 430.295L492.618 425.794L459.025 422.736Z" fill="#C4C4C4"/>
<path d="M458.15 432.349L457.74 436.85L491.334 439.907L491.743 435.406L458.15 432.349Z" fill="#C4C4C4"/>
<path d="M476.564 434.021L491.738 435.403L492.223 430.292L482.864 429.438C480.859 431.093 478.755 432.623 476.564 434.021V434.021Z" fill="#C2C2C4"/>
<path d="M492.612 425.791L493.164 419.744L492.636 419.695C491.865 420.82 490.008 422.843 487.413 425.321L492.612 425.791Z" fill="#C2C2C4"/>
<path d="M458.792 443.04L489.173 445.804C489.633 445.812 490.077 445.638 490.41 445.32C490.742 445.002 490.936 444.566 490.948 444.107L491.331 439.897L469.393 437.904C465.566 439.646 461.52 440.86 457.366 441.512C457.395 441.891 457.552 442.248 457.811 442.526C458.07 442.804 458.416 442.985 458.792 443.04V443.04Z" fill="#C2C2C4"/>
<path d="M482.844 429.438L492.203 430.292L492.61 425.792L487.412 425.307C485.879 426.825 484.352 428.197 482.844 429.438Z" fill="#B1B1B2"/>
<path d="M469.393 437.905L491.331 439.898L491.739 435.403L476.565 434.021C474.271 435.487 471.874 436.785 469.393 437.905V437.905Z" fill="#B1B1B2"/>
<path d="M483.408 448.793C479.247 452.532 471.876 453.109 469.451 453.191L479.882 454.161C481.546 454.312 483.034 452.925 483.204 451.063L483.408 448.793Z" fill="#9E9E9E"/>
<path d="M491.447 396.623C491.488 396.493 491.547 396.369 491.621 396.254C492.344 395.284 493.309 395.192 494.269 394.445C494.696 394.111 494.574 392.719 495.646 393.092C496.039 393.233 496.96 393.703 497.799 394.009C499.026 394.445 500.845 394.266 502.261 393.854C504.203 393.324 506.105 392.653 507.949 391.846C509.816 390.988 511.64 390.023 513.414 388.99C514.898 388.132 517.25 387.147 518.37 385.833C520.267 383.622 518.07 378.219 517.822 375.455C517.561 372.57 517.822 364.078 521.702 363.841C528.079 363.443 528.176 369.505 528.462 374.383C528.652 377.444 528.616 380.513 528.355 383.568C527.972 387.821 525.213 390.26 521.566 392.273C517.687 394.411 513.754 396.502 509.506 397.772C507.445 398.393 505.413 398.577 503.308 398.917C501.204 399.256 501.495 400.158 499.749 400.919C498.779 401.346 497.857 401.962 496.839 402.2C494.972 402.626 493.478 401.332 492.062 400.333C491.738 400.149 491.47 399.881 491.287 399.557C491.064 398.967 491.033 398.322 491.199 397.714C491.247 397.343 491.33 396.978 491.447 396.623V396.623Z" fill="#E5D1BD"/>
<path d="M528.352 376.027L517.538 378.127C517.765 378.078 513.367 361.964 513.134 360.994C512.261 357.299 511.384 353.463 512.13 349.738C513.731 341.79 517.562 339.831 522.392 348.187C526.95 356.072 534.093 365.513 532.677 374.485C532.665 374.683 532.6 374.874 532.488 375.038C532.293 375.229 532.038 375.346 531.766 375.367L528.352 376.027Z" fill="#474EBB"/>
<defs>
<linearGradient id="paint0_linear" x1="603.328" y1="-75.0104" x2="419.518" y2="441.039" gradientUnits="userSpaceOnUse">
<stop stop-color="#3420AD"/>
<stop offset="1" stop-color="#21B7B7"/>
</linearGradient>
</defs>
</svg>
