<svg width="393" height="59" viewBox="0 0 393 59" fill="none" xmlns="http://www.w3.org/2000/svg">
<path d="M12.2969 26.2422H16.2031C20.0312 26.2422 22.8568 25.6042 24.6797 24.3281C26.5026 23.0521 27.4141 21.0469 27.4141 18.3125C27.4141 15.6042 26.4766 13.6771 24.6016 12.5312C22.7526 11.3854 19.875 10.8125 15.9688 10.8125H12.2969V26.2422ZM12.2969 36.0859V58H0.1875V0.890625H16.8281C24.5885 0.890625 30.3307 2.3099 34.0547 5.14844C37.7786 7.96094 39.6406 12.2448 39.6406 18C39.6406 21.3594 38.7161 24.3542 36.8672 26.9844C35.0182 29.5885 32.401 31.6328 29.0156 33.1172C37.6094 45.9557 43.2083 54.25 45.8125 58H32.375L18.7422 36.0859H12.2969ZM85.8906 58H53V0.890625H85.8906V10.8125H65.1094V23.3516H84.4453V33.2734H65.1094V48H85.8906V58ZM131.555 42.1406C131.555 47.2969 129.693 51.3594 125.969 54.3281C122.271 57.2969 117.115 58.7812 110.5 58.7812C104.406 58.7812 99.0156 57.6354 94.3281 55.3438V44.0938C98.1823 45.8125 101.438 47.0234 104.094 47.7266C106.776 48.4297 109.224 48.7812 111.438 48.7812C114.094 48.7812 116.125 48.2734 117.531 47.2578C118.964 46.2422 119.68 44.7318 119.68 42.7266C119.68 41.6068 119.367 40.6172 118.742 39.7578C118.117 38.8724 117.193 38.026 115.969 37.2188C114.771 36.4115 112.31 35.1224 108.586 33.3516C105.096 31.7109 102.479 30.1354 100.734 28.625C98.9896 27.1146 97.5964 25.3568 96.5547 23.3516C95.513 21.3464 94.9922 19.0026 94.9922 16.3203C94.9922 11.2682 96.6979 7.29688 100.109 4.40625C103.547 1.51562 108.286 0.0703125 114.328 0.0703125C117.297 0.0703125 120.122 0.421875 122.805 1.125C125.513 1.82812 128.339 2.81771 131.281 4.09375L127.375 13.5078C124.328 12.2578 121.802 11.3854 119.797 10.8906C117.818 10.3958 115.865 10.1484 113.938 10.1484C111.646 10.1484 109.888 10.6823 108.664 11.75C107.44 12.8177 106.828 14.2109 106.828 15.9297C106.828 16.9974 107.076 17.9349 107.57 18.7422C108.065 19.5234 108.846 20.2917 109.914 21.0469C111.008 21.776 113.573 23.1042 117.609 25.0312C122.948 27.5833 126.607 30.1484 128.586 32.7266C130.565 35.2786 131.555 38.4167 131.555 42.1406ZM174.797 58H141.906V0.890625H174.797V10.8125H154.016V23.3516H173.352V33.2734H154.016V48H174.797V58ZM221.711 58L217.57 44.4062H196.75L192.609 58H179.562L199.719 0.65625H214.523L234.758 58H221.711ZM214.68 34.25C210.852 21.9323 208.69 14.9661 208.195 13.3516C207.727 11.737 207.388 10.4609 207.18 9.52344C206.32 12.8568 203.859 21.099 199.797 34.25H214.68ZM254.094 26.2422H258C261.828 26.2422 264.654 25.6042 266.477 24.3281C268.299 23.0521 269.211 21.0469 269.211 18.3125C269.211 15.6042 268.273 13.6771 266.398 12.5312C264.549 11.3854 261.672 10.8125 257.766 10.8125H254.094V26.2422ZM254.094 36.0859V58H241.984V0.890625H258.625C266.385 0.890625 272.128 2.3099 275.852 5.14844C279.576 7.96094 281.438 12.2448 281.438 18C281.438 21.3594 280.513 24.3542 278.664 26.9844C276.815 29.5885 274.198 31.6328 270.812 33.1172C279.406 45.9557 285.005 54.25 287.609 58H274.172L260.539 36.0859H254.094ZM319.055 10.1484C314.497 10.1484 310.969 11.8672 308.469 15.3047C305.969 18.7161 304.719 23.4818 304.719 29.6016C304.719 42.3359 309.497 48.7031 319.055 48.7031C323.065 48.7031 327.922 47.7005 333.625 45.6953V55.8516C328.938 57.8047 323.703 58.7812 317.922 58.7812C309.615 58.7812 303.26 56.2682 298.859 51.2422C294.458 46.1901 292.258 38.9505 292.258 29.5234C292.258 23.5859 293.339 18.3906 295.5 13.9375C297.661 9.45833 300.76 6.03385 304.797 3.66406C308.859 1.26823 313.612 0.0703125 319.055 0.0703125C324.602 0.0703125 330.174 1.41146 335.773 4.09375L331.867 13.9375C329.732 12.9219 327.583 12.0365 325.422 11.2812C323.26 10.526 321.138 10.1484 319.055 10.1484ZM392.609 58H380.539V33.3516H357.922V58H345.812V0.890625H357.922V23.2734H380.539V0.890625H392.609V58Z" fill="url(#paint0_linear)"/>
<defs>
<linearGradient id="paint0_linear" x1="190.5" y1="-22" x2="194.5" y2="98" gradientUnits="userSpaceOnUse">
<stop stop-color="#EE4266"/>
<stop offset="1" stop-color="#9477D1"/>
</linearGradient>
</defs>
</svg>
