<svg width="693" height="504" viewBox="0 0 693 504" fill="none" xmlns="http://www.w3.org/2000/svg">
<path d="M127.438 176.715C141.008 90.1479 269.089 2.34309 357.126 0.28921C418.198 0.365485 467.275 27.4654 489.128 40.8455C522.198 61.0945 573.478 102.259 605.229 101.578C636.98 100.896 654.294 103.803 715.688 57.7178C777.081 11.6328 852.862 0.908347 897.585 13.9472C942.307 26.986 965.288 115.01 965.217 171.991C965.146 228.972 913.844 283.725 860.432 295.198C807.019 306.672 760.873 278.485 704.582 283.463C648.291 288.442 551.327 398.654 495.855 431.786C440.384 464.917 320.169 440.39 280.346 425.491C195.238 393.648 110.708 283.443 127.438 176.715Z" fill="url(#paint0_linear)" fill-opacity="0.1"/>
<path d="M488.262 330.771L490.564 346.646L485.94 436.181L478.177 434.549L465.298 332.765L488.262 330.771Z" fill="#292949"/>
<path d="M450.127 327.791L448.63 387.147L463.697 438.385L472.479 435.116L465.085 389.421L471.872 327.283L450.127 327.791Z" fill="#292949"/>
<path d="M472.509 430.315L461.996 435.136L465.527 442.494L460.012 445.977C460.012 445.977 459.49 449.036 461.345 450.33C463.2 451.623 475.194 441.544 475.194 441.544L472.509 430.315Z" fill="#1C1C35"/>
<path d="M488.262 432.057L476.855 433.982L478.346 442.002L472.121 443.927C472.121 443.927 470.823 446.753 472.275 448.479C473.727 450.205 487.929 443.589 487.929 443.589L488.262 432.057Z" fill="#1C1C35"/>
<path d="M466.089 230.992C466.91 233.638 468.081 236.163 469.569 238.499C469.604 233.642 470.305 228.813 471.653 224.146C471.724 223.975 471.761 223.792 471.761 223.607C471.761 223.421 471.724 223.238 471.653 223.067C471.548 222.929 471.416 222.815 471.266 222.729C471.115 222.644 470.95 222.589 470.778 222.569C464.781 221.122 464.671 226.395 466.089 230.992Z" fill="#292949"/>
<path d="M469.38 238.594C470.007 240.584 471.041 242.842 473.11 244.066C475.546 245.499 478.152 244.768 479.967 243.668C485.974 240.031 496.377 219.987 480.728 215.067C466.516 210.594 466.784 230.31 469.38 238.594Z" fill="#EAC1A4"/>
<path d="M481.748 238.678C482.683 240.061 484.811 239.748 486.318 239.032C492.519 236.101 496.308 228.773 495.11 222.012C494.115 216.36 487.119 211.973 485.517 218.908C484.95 221.365 486.373 224.828 485.965 227.559C485.373 231.465 483.459 235.171 481.748 238.678Z" fill="#292949"/>
<path d="M466.442 207.843C459.316 211.788 456.129 220.474 449.609 225.36C452.553 226.691 455.734 227.418 458.963 227.499C462.192 227.579 465.405 227.011 468.411 225.828C474.279 223.479 488.193 222.056 486.373 213.922C484.543 205.644 472.708 204.39 466.442 207.843Z" fill="#292949"/>
<path d="M494.115 259.081C498.193 266.17 498.178 274.195 497.596 281.876C496.323 299.259 497.974 319.413 491.987 336.029C480.679 336.029 459.003 330.83 447.729 329.671C445.536 314.557 446.814 305.727 448.053 288.613C448.664 280.155 449.972 268.857 452.956 260.817C455.402 254.24 461.907 245.743 471.748 246.012C480.992 246.265 490.4 252.638 494.115 259.081Z" fill="#8CABEF"/>
<path d="M475.696 249.519C474.667 249.957 473.404 249.773 472.18 248.589C471.131 247.569 471.454 247.241 471.683 245.738C472.011 243.529 472.598 241.325 473.056 239.136L479.142 240.405C479.142 240.405 477.919 246.335 477.824 246.738C477.711 247.335 477.459 247.898 477.089 248.381C476.72 248.863 476.243 249.253 475.696 249.519V249.519Z" fill="#EAC1A4"/>
<path d="M414.83 265.25L410.071 260.568L402.577 260.747L401.722 264.548L413.05 269.444L414.83 265.25Z" fill="#EAC1A4"/>
<path d="M470.674 251.101L465.263 246.21L436.108 269.444L415.148 262.086L408.41 270.682L436.461 287.135L466.109 268.13L470.674 251.101Z" fill="#8CABEF"/>
<path d="M103.114 435.773L110.872 440.041L110.201 443.688L96.4111 441.793L97.1521 436.544L103.114 435.773Z" fill="#292949"/>
<path d="M68.0219 439.773L62.6265 439.708L61.3037 444.28L61.4429 444.32H61.4081L70.3988 449.494L74.6455 449.907L75.1229 445.051L73.9643 444.225L68.0219 439.773Z" fill="#292949"/>
<path d="M84.6657 353.636C85.536 353.546 87.898 384.62 87.898 384.62L71.1101 441.091L61.4232 439.181L67.3209 382.799C67.3209 382.799 46.8034 359.138 52.711 341.467C61.6321 345.795 84.6657 353.636 84.6657 353.636Z" fill="#8CABEF"/>
<path d="M108.872 353.899L110.832 381.615L105.421 436.748L95.476 436.251C95.476 436.251 93.0692 384.013 92.0846 382.953C91.1 381.894 82.6016 354.481 82.6016 354.481L108.872 353.899Z" fill="#8CABEF"/>
<path d="M95.7649 366.541C64.0936 365.963 61.7714 349.974 54.7946 348.233C47.8179 346.491 51.4579 338.178 51.4579 338.178C51.4579 338.178 52.7807 334.472 53.3426 332.531C57.4103 318.601 69.6233 300.691 69.6283 300.691C75.6503 292.468 81.6921 285.204 86.9135 280.821C102.438 267.782 119.067 267.17 119.067 267.17C143.016 274.662 134.562 285.931 134.841 288.891C126.959 296.114 121.255 306.94 117.043 318.562C114.016 328.142 113.105 338.265 114.373 348.233C114.895 352.372 115.502 355.959 116.103 359.083C116.208 363.163 112.284 366.804 95.7649 366.541Z" fill="#5D66D3"/>
<path d="M119.156 269.678C119.156 269.678 124.487 266.752 127.789 271.837C131.797 278.006 109.141 305.826 109.678 365.322C103.746 366.526 88.4446 369.397 72.6611 361.944C76.2465 344.268 91.7216 290.956 119.156 269.678Z" fill="white"/>
<path d="M130.877 250.887C133.557 252.986 135.89 257.439 134.965 260.941C134.517 262.628 133.299 263.762 132.896 265.588C132.085 269.185 125.835 271.832 128.465 276.006C129.813 278.15 132.443 279.055 134.85 279.816C135.137 279.931 135.448 279.974 135.755 279.941C135.998 279.867 136.214 279.724 136.377 279.53C136.54 279.336 136.644 279.098 136.675 278.846C136.729 278.349 136.711 277.846 136.621 277.354C136.069 272.09 139.634 266.817 140.952 261.842C142.27 256.867 142.22 251.185 138.739 247.061C135.805 247.33 134.617 246.768 132.732 249.051L130.877 250.887Z" fill="#292949"/>
<path d="M124.592 271.951C128.073 272.225 131.499 270.309 133.712 267.593C135.925 264.876 137.093 261.449 137.819 258.021C140.231 246.608 126.263 242.917 118.923 249.897C112.478 255.981 114.433 271.17 124.592 271.951Z" fill="#EACDB0"/>
<path d="M107.198 269.807C109.052 269.667 110.907 269.478 112.568 268.274C115.258 266.334 116.845 261.956 118.496 259.185C120.236 256.265 122.225 253.131 125.457 252.016C127.551 251.285 129.436 251.762 131.385 252.548C132.732 253.091 132.573 253.618 134.005 253.374C135.104 253.19 136.537 251.852 137.143 250.976C138.163 249.484 138.227 247.494 137.685 245.792C137.346 244.566 136.734 243.432 135.895 242.475C135.057 241.518 134.013 240.763 132.842 240.265C124.189 236.405 115.467 238.832 109.425 246.33C106.521 249.937 105.482 254.867 102.563 258.27C100.758 260.379 98.5201 261.349 96.7946 263.678C92.3191 269.722 84.9993 276.772 82.3736 283.851C82.3085 283.976 82.2693 284.112 82.2581 284.253C82.247 284.393 82.2643 284.534 82.309 284.667C82.5527 285.165 83.3036 285 83.8307 284.747L92.7517 280.294C93.9472 279.764 95.0635 279.071 96.0685 278.234C98.4604 276.035 99.2909 272.264 102.2 270.772C103.751 270.016 105.477 269.931 107.198 269.807Z" fill="#292949"/>
<path d="M95.0487 284.796L71.1497 279.189L64.7598 247.409L72.6962 248.101L78.8177 268.856L109.803 269.742L111.573 272.105L95.0487 284.796Z" fill="#5D66D3"/>
<path d="M74.9239 244.957L74.1432 236.629L68.2456 232.111L67.8975 234.544L69.9761 236.629C69.9761 236.629 70.4982 239.056 71.9652 240.27C71.7911 241.658 70.6623 244.613 70.6623 244.613L74.9239 244.957Z" fill="#EBCEB1"/>
<path d="M215.245 433.126L222.092 437.519L224.469 441.001C223.244 441.621 221.972 442.142 220.665 442.559C219.297 442.902 208.442 441.743 208.442 441.743L208.148 435.385L215.245 433.126Z" fill="#273140"/>
<path d="M181.008 437.922L184.389 441.718C184.389 441.718 187.144 446.867 185.761 446.787C184.379 446.708 176.88 447.111 176.373 446.25C175.866 445.389 171.897 442.39 171.365 441.807C170.833 441.225 171.365 436.39 171.365 436.39L181.008 437.922Z" fill="#273140"/>
<path d="M200.401 336.925L191.892 388.665L181.047 437.917L171.38 437.365L173.245 385.361C173.245 385.361 166.283 337.567 166.253 323.433L200.401 336.925Z" fill="#BDBFC1"/>
<path d="M221.709 339.472L217.82 434.947L207.87 435.405L202.584 386.898L194.881 344.088L215.438 317.602L221.709 339.472Z" fill="#BDBFC1"/>
<path d="M216.498 289.204C211.281 263.832 217.9 251.573 206.487 244.519C206.487 244.519 187.889 239.405 176.044 247.912L175.547 248.27L171.241 257.225L167.974 297.388C167.974 297.388 158.839 350.123 163.687 350.541C169.182 351.039 194.414 339.258 199.202 339.536C203.991 339.815 218.651 342.442 232.48 337.731C244.35 333.691 221.709 314.597 216.498 289.204Z" fill="#8CABEF"/>
<path d="M193.37 243.733L189.755 243.872L189.387 247.514L202.674 284.692L205.652 268.583L202.4 245.181L193.37 243.733Z" fill="white"/>
<path d="M204.295 298.98L199.173 339.462L209.969 340.989L217.438 340.407L207.994 305.289L204.295 298.98Z" fill="white"/>
<path d="M198.273 245.345L190.814 245.653C190.515 243.694 190.372 241.715 190.386 239.733C188.248 239.305 185.741 238.564 185.085 236.48C184.918 235.812 184.863 235.121 184.921 234.435C185.01 231.594 184.215 228.719 185.184 225.913C185.508 224.987 185.254 223.923 185.682 223.027C186.393 221.455 188.079 220.574 189.72 220.042C193.907 218.694 198.715 218.963 202.44 221.306C203.458 221.895 204.307 222.738 204.901 223.753C205.742 225.355 205.553 227.276 205.339 229.072L204.757 234.047C204.533 235.952 204.131 238.136 202.46 239.071C201.575 239.569 200.471 239.624 199.675 240.28C198.312 241.44 198.825 243.639 198.273 245.345Z" fill="#E7CAAD"/>
<path d="M208.929 208.44C208.347 208.404 207.771 208.297 207.214 208.122C205.359 207.495 203.976 206.037 202.012 205.47C198.034 204.316 193.24 204.938 189.58 206.848C186.099 208.674 181.216 209.674 178.143 211.992C176.885 212.999 175.893 214.299 175.254 215.778C174.12 218.324 173.721 221.137 174.102 223.898C174.484 226.658 175.63 229.257 177.412 231.4C178.237 232.333 179.14 233.194 180.112 233.972C182.101 235.604 184.508 237.634 186.985 237.992C186.741 235.852 183.857 229.41 185.244 227.43C187.089 224.813 191.117 224.534 194.026 224.559C197.507 224.589 200.222 223.246 203.663 223.126C205.414 223.067 207.418 223.251 208.661 222.012C210.098 220.579 213.022 216.176 213.633 214.296C213.883 213.467 213.893 212.585 213.664 211.751C213.434 210.916 212.974 210.164 212.336 209.58C211.207 208.58 210.093 208.55 208.929 208.44Z" fill="#292949"/>
<path d="M232.226 264.364L209.7 243.942L204.279 248.514L222.927 279.667L231.341 280.478C231.341 280.478 233.768 271.802 234.27 270.882L232.226 264.364Z" fill="#8CABEF"/>
<path d="M178.685 338.532C174.557 334.809 169.12 332.879 163.57 333.167C158.019 333.455 152.811 335.936 149.09 340.066C145.369 344.196 143.44 349.636 143.727 355.189C144.015 360.741 146.496 365.952 150.624 369.675C152.267 371.162 154.129 372.388 156.143 373.312C160.709 375.355 165.854 375.699 170.65 374.282C175.447 372.864 179.579 369.779 182.302 365.582C185.025 361.385 186.16 356.353 185.501 351.393C184.842 346.433 182.434 341.872 178.71 338.532H178.685Z" fill="#D67086"/>
<path d="M185.637 353.009C185.521 350.249 184.844 347.542 183.647 345.052C182.45 342.563 180.758 340.344 178.675 338.531C177.337 337.314 175.854 336.266 174.259 335.412C176.925 339.166 178.285 343.692 178.13 348.294C177.975 352.896 176.315 357.32 173.403 360.886C170.492 364.453 166.491 366.964 162.014 368.035C157.538 369.106 152.834 368.677 148.625 366.814C148.262 366.65 147.904 366.466 147.551 366.277C148.454 367.506 149.48 368.64 150.614 369.66C152.26 371.153 154.125 372.385 156.144 373.312C159.429 374.749 163.026 375.325 166.595 374.985C170.164 374.645 173.588 373.4 176.543 371.367C179.497 369.335 181.885 366.583 183.481 363.371C185.076 360.158 185.827 356.592 185.662 353.009H185.637Z" fill="#C95976"/>
<path d="M341.517 262.713C339.935 245.365 331.223 229.43 315.629 215.361C300.034 201.291 283.231 194.192 265.673 194.257C250.411 194.316 236.662 199.968 224.807 211.062C223.818 211.989 223.032 213.111 222.498 214.358C221.964 215.604 221.695 216.948 221.706 218.303C221.718 219.659 222.011 220.998 222.566 222.235C223.121 223.472 223.926 224.58 224.931 225.49L234.215 233.903C236.007 235.517 238.33 236.414 240.741 236.422C243.152 236.43 245.481 235.549 247.284 233.947C253.922 228.057 260.839 225.171 268.428 225.112C277.622 225.047 286.827 229.092 295.778 237.176C304.729 245.26 309.532 254.007 310.149 263.29C310.765 272.573 307.066 281.668 299.209 290.414C288.338 302.468 277.563 307.478 267.184 305.294C256.244 303 243.146 294.846 228.198 281.105L224.18 277.479C222.25 275.74 219.709 274.838 217.115 274.973C214.521 275.107 212.087 276.266 210.346 278.195L178.74 313.209C177 315.14 176.099 317.682 176.233 320.278C176.367 322.873 177.526 325.309 179.456 327.05L188.874 335.552C190.802 337.294 193.342 338.198 195.936 338.067C198.53 337.935 200.966 336.778 202.708 334.85L223.151 312.174C223.274 312.034 223.448 311.949 223.635 311.936C223.821 311.924 224.005 311.987 224.146 312.11C242.122 327.477 259.124 335.746 274.673 336.681C291.213 337.676 307.071 329.9 321.805 313.552C336.539 297.204 343.118 280.165 341.517 262.713Z" fill="#D67086"/>
<path d="M341.517 262.712C339.936 245.365 331.224 229.43 315.629 215.36C305.972 206.664 295.878 200.624 285.38 197.306C290.541 200.454 295.388 204.089 299.856 208.162C315.45 222.236 324.162 238.166 325.744 255.519C327.325 272.931 320.687 290.05 306.012 306.328C291.338 322.607 275.42 330.452 258.88 329.457C253.866 329.119 248.917 328.132 244.156 326.522C254.798 332.681 264.997 336.084 274.639 336.666C291.178 337.661 307.036 329.885 321.771 313.537C336.505 297.189 343.119 280.165 341.517 262.712Z" fill="#C95976"/>
<path d="M179.993 245.653L169.321 248.942L143.781 292.498L145.522 300.921L178.605 317.467L183.25 308.468L162.354 292.498L175.124 275.075L180.057 247.201L179.993 245.653Z" fill="#8CABEF"/>
<path d="M209.277 244.315L203.857 238.489L198.631 239.942L197.184 245.171L201.823 246.041L206.184 246.922L209.277 244.315Z" fill="#EAC1A4"/>
<path d="M182.792 309.358L188.004 310.433L187.168 313.503L191.683 318.786L185.492 321.04L179.431 315.871L182.792 309.358Z" fill="#E7CAAD"/>
<path d="M73.4619 274.359C71.9406 274.822 70.5255 275.58 69.2972 276.591C68.069 277.601 67.0517 278.844 66.3034 280.247C65.5551 281.651 65.0905 283.188 64.9361 284.772C64.7817 286.355 64.9406 287.953 65.4036 289.475C65.8665 290.997 66.6246 292.413 67.6345 293.642C68.6444 294.871 69.8864 295.888 71.2894 296.637C72.6925 297.386 74.2292 297.851 75.8118 298.005C77.3944 298.159 78.992 298.001 80.5132 297.537C81.7372 297.173 82.8978 296.623 83.9543 295.906C86.3261 294.254 88.0296 291.808 88.7571 289.01C89.4846 286.212 89.1883 283.246 87.9217 280.647C86.6551 278.048 84.5016 275.988 81.8499 274.839C79.1983 273.689 76.2232 273.526 73.4619 274.379V274.359Z" fill="#D67086"/>
<path d="M82.6961 275.229C81.2964 274.465 79.7559 273.994 78.1684 273.844C76.5809 273.695 74.9795 273.87 73.4618 274.359C72.4633 274.662 71.5049 275.085 70.6074 275.617C73.2573 275.416 75.9001 276.09 78.13 277.537C80.3599 278.983 82.0537 281.122 82.9515 283.624C83.8492 286.127 83.9013 288.855 83.0997 291.39C82.2981 293.924 80.6871 296.126 78.514 297.657C78.3251 297.786 78.1262 297.91 77.9273 298.03C78.8041 297.954 79.6707 297.787 80.5131 297.532C81.7371 297.168 82.8977 296.618 83.9542 295.9C85.644 294.703 87.0004 293.093 87.8952 291.225C88.7899 289.356 89.1934 287.29 89.0675 285.222C88.9415 283.154 88.2903 281.153 87.1754 279.407C86.0605 277.661 84.5188 276.228 82.6961 275.244V275.229Z" fill="#C95976"/>
<path d="M84.4117 171.172C75.3563 166.794 64.8838 166.366 53.2774 169.904C41.6711 173.441 33.1677 179.63 27.9762 188.361C23.4609 195.933 22.168 204.425 24.1273 213.599C24.2913 214.368 24.6133 215.093 25.0729 215.731C25.5324 216.368 26.1193 216.903 26.7965 217.301C27.4736 217.699 28.2262 217.952 29.0062 218.043C29.7863 218.135 30.5769 218.063 31.3278 217.833L38.2349 215.728C39.5692 215.322 40.7066 214.438 41.4288 213.244C42.1511 212.05 42.4074 210.632 42.1485 209.261C41.2086 204.221 41.8401 199.938 44.0679 196.162C46.7731 191.59 51.527 188.241 58.1706 186.212C64.8141 184.182 70.6024 184.411 75.3663 186.863C80.1301 189.316 83.5414 193.873 85.5305 200.38C88.2606 209.335 87.5196 216.176 83.3674 220.669C78.9765 225.395 71.0549 229.469 59.7967 232.773L56.813 233.683C55.3783 234.122 54.1762 235.112 53.4705 236.437C52.7647 237.761 52.613 239.311 53.0487 240.748L60.9802 266.802C61.1967 267.513 61.5511 268.174 62.0232 268.748C62.4954 269.322 63.0759 269.797 63.7317 270.146C64.3875 270.496 65.1057 270.712 65.8451 270.784C66.5846 270.855 67.331 270.78 68.0414 270.563L75.048 268.429C75.5941 268.263 76.1109 268.013 76.5796 267.687C77.5727 267.006 78.323 266.025 78.7218 264.888C79.1206 263.751 79.1471 262.517 78.7975 261.364L73.6457 244.494C73.6171 244.394 73.6279 244.286 73.676 244.194C73.7241 244.101 73.8058 244.03 73.9043 243.996C86.8334 239.668 96.0031 233.708 101.095 226.29C106.51 218.395 107.381 208.226 103.676 196.067C99.9713 183.908 93.4869 175.575 84.4117 171.172Z" fill="#D67086"/>
<path d="M84.4117 171.172C75.3564 166.794 64.8838 166.366 53.2774 169.904C46.0968 172.093 40.0997 175.306 35.3408 179.505C38.4344 177.883 41.6766 176.562 45.0227 175.56C56.6241 172.023 67.1016 172.451 76.157 176.829C85.2123 181.207 91.7315 189.61 95.4213 201.704C99.1111 213.798 98.2558 224.032 92.8405 231.927C91.1848 234.312 89.2294 236.474 87.0224 238.36C93.2383 234.922 97.9624 230.897 101.11 226.285C106.525 218.39 107.396 208.221 103.691 196.062C99.9863 183.903 93.4869 175.575 84.4117 171.172Z" fill="#C95976"/>
<path d="M392.074 286.787C390.13 286.473 388.142 286.551 386.228 287.015C384.314 287.479 382.511 288.321 380.926 289.49C379.34 290.659 378.004 292.132 376.994 293.824C375.985 295.516 375.322 297.393 375.046 299.344C374.77 301.295 374.885 303.281 375.385 305.187C375.885 307.093 376.76 308.88 377.958 310.444C379.156 312.008 380.654 313.317 382.364 314.295C384.074 315.273 385.962 315.9 387.917 316.139C389.464 316.369 391.037 316.359 392.581 316.109C396.066 315.502 399.218 313.669 401.471 310.941C403.724 308.214 404.929 304.771 404.869 301.233C404.809 297.695 403.488 294.295 401.144 291.645C398.8 288.996 395.587 287.271 392.084 286.782L392.074 286.787Z" fill="#D67086"/>
<path d="M401.87 292.533C400.713 290.959 399.248 289.638 397.564 288.651C395.879 287.663 394.012 287.028 392.074 286.787C390.809 286.604 389.527 286.578 388.255 286.707C390.922 287.664 393.242 289.397 394.919 291.682C396.443 293.715 397.422 296.106 397.761 298.625C398.101 301.144 397.79 303.708 396.858 306.073C395.926 308.438 394.405 310.524 392.438 312.134C390.472 313.744 388.126 314.823 385.625 315.268C385.346 315.313 385.068 315.348 384.784 315.378C385.8 315.74 386.849 315.998 387.917 316.149C389.464 316.378 391.037 316.368 392.581 316.119C395.076 315.662 397.412 314.577 399.371 312.966C401.329 311.355 402.845 309.27 403.774 306.91C404.704 304.55 405.017 301.992 404.684 299.477C404.351 296.962 403.383 294.574 401.87 292.538V292.533Z" fill="#C95976"/>
<path d="M457.62 177.928C449.838 168.376 438.43 162.476 423.726 160.392C409.022 158.307 396.376 160.79 386.087 167.774C377.161 173.844 371.328 182.6 368.758 193.799C368.544 194.735 368.526 195.705 368.706 196.648C368.886 197.591 369.26 198.486 369.803 199.277C370.347 200.068 371.048 200.738 371.864 201.244C372.679 201.75 373.591 202.081 374.541 202.216L383.298 203.455C384.986 203.695 386.704 203.303 388.121 202.355C389.539 201.407 390.557 199.969 390.981 198.316C392.547 192.237 395.456 187.809 399.892 184.769C405.277 181.122 412.239 179.839 420.693 181.033C429.146 182.227 435.412 185.471 439.44 190.669C443.468 195.868 444.91 202.664 443.726 210.913C442.115 222.286 437.759 229.479 430.827 232.305C423.507 235.29 412.607 235.693 398.405 233.534L394.616 232.997C392.798 232.748 390.955 233.227 389.489 234.33C388.022 235.433 387.05 237.071 386.784 238.887L382.104 271.911C381.849 273.731 382.325 275.578 383.429 277.047C384.533 278.516 386.174 279.487 387.992 279.747L396.878 281.005C398.698 281.262 400.544 280.786 402.013 279.682C403.481 278.577 404.452 276.935 404.71 275.115L407.739 253.723C407.757 253.595 407.825 253.479 407.927 253.401C408.029 253.322 408.158 253.285 408.286 253.3C424.9 255.2 438.122 253.33 447.63 247.728C457.725 241.758 463.95 230.932 466.133 215.52C468.317 200.107 465.447 187.525 457.62 177.928Z" fill="#D67086"/>
<path d="M457.62 177.929C449.838 168.377 438.43 162.476 423.726 160.392C414.621 159.103 406.297 159.566 398.862 161.76C403.136 161.564 407.419 161.777 411.652 162.397C426.361 164.481 437.764 170.357 445.546 179.929C453.329 189.5 456.228 202.182 454.055 217.535C451.882 232.887 445.626 243.808 435.531 249.743C432.456 251.526 429.163 252.904 425.735 253.842C434.412 253.25 441.737 251.21 447.615 247.738C457.71 241.768 463.935 230.942 466.118 215.53C468.301 200.117 465.447 187.525 457.62 177.929Z" fill="#C95976"/>
<path d="M405.168 436.887L410.061 435.504L417.928 447.425H410.061L405.322 445.007L405.168 436.887Z" fill="#292949"/>
<path d="M317.916 412.783C317.916 412.783 311.084 417.793 311.173 422.236C311.173 422.236 310.447 431.554 312.292 435.225L322.571 444.588L341.556 443.375L347.683 416.44L317.916 412.783Z" fill="#3B3387"/>
<path d="M338.752 418.768C338.752 418.768 330.552 416.843 327.747 422.435L322.163 432.753L332.004 445.867L406.56 445.628L406.411 436.723L382.288 429.912C384.444 428.396 386.16 426.336 387.261 423.942C389.171 419.828 387.679 416.783 386.142 412.917C385.645 411.733 383.422 405.166 381.493 405.679L338.752 418.768Z" fill="#474EBB"/>
<path d="M294.818 316.82L291.377 310.681L293.933 309.099L297.22 312.776L298.08 311.467L300.388 317.079L297.951 319.084L294.818 316.82Z" fill="#A0734B"/>
<path d="M344.805 331.024L321.159 337.377L300.244 314.915L295.614 319.149L314.874 356.292L343.755 350.432L344.805 331.024Z" fill="#EED5D5"/>
<path d="M321.502 397.779C326.648 383.451 327.643 368.257 329.493 353.213C330.04 348.775 330.617 344.258 332.601 340.233C334.878 335.631 338.479 333.268 342.616 332.069C347.887 330.522 354.053 330.825 359.468 330.671C364.615 330.671 368.534 350.168 373.477 359.715C376.505 365.566 379.653 370.759 381.617 377.098C383.502 383.182 385.302 389.371 386.311 395.669C387.803 405.176 392.279 411.928 387.719 414.997C387.306 415.122 386.908 415.241 386.53 415.365C379.12 417.788 371.474 419.414 363.72 420.216C356.836 420.913 349.896 420.818 343.034 419.932C333.65 418.699 324.575 417.072 316.439 411.888C318.124 407.185 319.811 402.482 321.502 397.779Z" fill="#EED5D5"/>
<path d="M362.452 316.353C359.811 307.398 347.002 303.915 343.665 314.094C342.67 317.154 342.014 320.417 342.521 323.596C343.028 326.775 344.863 329.875 347.767 331.263H347.817C347.678 332.079 347.534 332.895 347.395 333.711C347.355 333.8 347.339 333.898 347.349 333.996C347.359 334.093 347.395 334.186 347.453 334.265C347.51 334.344 347.587 334.407 347.677 334.447C347.766 334.486 347.864 334.502 347.961 334.492L350.88 335.029C351.359 335.151 351.858 335.165 352.342 335.069C353.372 334.775 353.834 333.576 353.919 332.492C353.919 332.233 353.919 331.994 353.949 331.716C359.806 329.945 364.177 322.203 362.452 316.353Z" fill="#A0734B"/>
<path d="M347.216 300.731C344.864 300.298 342.775 302.527 340.557 303.662C338.708 304.602 336.644 304.801 334.734 305.572C332.825 306.343 330.925 308.015 330.811 310.179C328.941 309.124 326.907 308.04 324.759 308.383C322.611 308.726 320.547 311.214 321.328 313.358C322.029 315.263 324.471 315.786 325.226 317.666C326.42 320.651 322.78 325.079 325.102 327.119C325.659 327.616 326.435 327.741 326.982 328.243C327.663 328.86 327.852 329.895 328.136 330.82C329.414 334.999 333.491 337.84 337.628 337.422C338.959 336.804 340.152 335.924 341.137 334.835C342.121 333.746 342.876 332.471 343.357 331.084C344.57 327.701 342.78 326.447 342.576 323.223C342.374 319.637 343.558 316.11 345.883 313.373C347.375 311.646 349.483 310.184 351.666 310.044C352.552 309.99 352.248 310.721 353.268 310.069C353.82 309.548 354.23 308.894 354.456 308.169C352.144 306.149 350.314 301.293 347.216 300.731Z" fill="#292949"/>
<path d="M372.631 306.115C373.844 306.493 375.167 306.488 376.311 307.035C378.031 307.856 377.867 309.662 378.3 311.254C378.797 313.015 379.508 315.378 380.612 316.771C381.408 317.766 382.552 318.373 383.536 319.159C384.521 319.945 385.411 321.084 385.346 322.443C385.282 323.801 384.382 324.86 384.213 326.139C383.994 328.049 384.292 329.044 383.641 330.985C383.303 331.98 382.925 333.044 382.149 333.706C381.119 334.582 379.697 334.517 378.454 334.268C377.211 334.019 375.933 333.631 374.685 334.005C371.985 334.815 372.392 337.537 371.607 339.781C370.413 343.198 366.35 345.079 363.332 343.761C360.771 342.631 359.354 339.572 359.583 336.601C359.692 335.109 360.329 333.746 360.418 332.258C360.508 330.771 359.762 328.806 361.099 327.706C361.457 327.491 361.803 327.255 362.134 327C362.365 326.734 362.526 326.414 362.601 326.069C362.759 325.493 362.79 324.889 362.691 324.3C362.592 323.711 362.367 323.15 362.029 322.657C361.532 321.985 360.841 321.482 360.562 320.667C360.234 319.751 360.562 318.701 360.642 317.706C360.866 315.299 359.647 312.886 357.658 311.891C356.355 311.234 355.172 310.831 354.043 309.856C353.874 309.712 351.318 307.294 351.233 307.796C351.441 306.936 351.862 306.143 352.457 305.488C353.282 304.331 354.332 303.353 355.545 302.612C359.498 300.503 359.523 305.712 362.651 305.1C363.407 304.961 363.993 304.289 364.68 303.901C365.982 303.169 367.544 303.498 368.827 304.12C370.11 304.742 371.273 305.687 372.631 306.115Z" fill="#292949"/>
<path d="M301.845 412.311C300.59 412.009 299.289 411.957 298.015 412.158C296.741 412.36 295.519 412.81 294.419 413.484C293.319 414.158 292.362 415.042 291.603 416.085C290.845 417.129 290.299 418.312 289.997 419.567C289.695 420.821 289.644 422.123 289.845 423.398C290.046 424.673 290.496 425.895 291.17 426.996C291.843 428.097 292.727 429.054 293.77 429.813C294.813 430.572 295.996 431.118 297.25 431.42C298.256 431.666 299.294 431.758 300.328 431.693C302.675 431.521 304.883 430.512 306.55 428.849C308.218 427.187 309.234 424.982 309.414 422.634C309.595 420.286 308.928 417.951 307.534 416.053C306.141 414.155 304.113 412.82 301.82 412.291L301.845 412.311Z" fill="#D67086"/>
<path d="M307.961 416.719C307.295 415.606 306.409 414.641 305.357 413.884C304.305 413.126 303.11 412.59 301.844 412.311C301.021 412.11 300.176 412.011 299.328 412.017C301.267 412.966 302.84 414.526 303.807 416.457C304.773 418.388 305.079 420.582 304.678 422.704C304.276 424.826 303.189 426.757 301.584 428.2C299.979 429.644 297.944 430.52 295.792 430.694H295.226C295.875 430.996 296.553 431.232 297.249 431.4C298.256 431.646 299.294 431.739 300.328 431.674C302.002 431.529 303.612 430.961 305.006 430.021C306.4 429.081 307.532 427.802 308.294 426.303C309.057 424.805 309.425 423.136 309.364 421.456C309.303 419.775 308.815 418.138 307.946 416.699L307.961 416.719Z" fill="#C95976"/>
<path d="M351.975 344.621C347.44 337.83 340.289 333.213 330.717 330.91C321.144 328.606 312.631 329.447 305.415 333.397C299.14 336.84 294.744 342.248 292.342 349.477C292.14 350.08 292.066 350.72 292.125 351.353C292.183 351.987 292.373 352.602 292.681 353.159C292.99 353.716 293.411 354.202 293.918 354.587C294.424 354.973 295.005 355.248 295.624 355.397L301.348 356.775C302.447 357.038 303.605 356.887 304.6 356.35C305.596 355.813 306.358 354.928 306.743 353.865C308.16 349.954 310.363 347.213 313.476 345.492C317.245 343.407 321.93 343.004 327.435 344.337C332.939 345.671 336.883 348.193 339.195 351.88C341.507 355.566 342.039 360.138 340.746 365.506C338.966 372.909 335.649 377.386 330.886 378.809C325.868 380.302 318.653 379.899 309.413 377.575L306.927 376.983C305.743 376.7 304.495 376.898 303.456 377.534C302.418 378.17 301.674 379.192 301.387 380.376L296.221 401.868C296.079 402.455 296.055 403.064 296.149 403.66C296.243 404.256 296.453 404.828 296.768 405.343C297.083 405.858 297.496 406.305 297.984 406.66C298.472 407.015 299.026 407.27 299.612 407.41L305.39 408.804C305.845 408.91 306.312 408.949 306.778 408.918C307.75 408.853 308.675 408.48 309.422 407.854C310.168 407.228 310.696 406.381 310.93 405.435L314.282 391.505C314.301 391.422 314.351 391.35 314.423 391.304C314.494 391.257 314.581 391.24 314.665 391.257C325.51 393.565 334.362 393.162 340.98 390.068C348.017 386.774 352.805 380.018 355.217 369.984C357.629 359.949 356.545 351.447 351.975 344.621Z" fill="#D67086"/>
<path d="M351.975 344.621C347.44 337.83 340.289 333.213 330.716 330.91C324.789 329.482 319.279 329.263 314.212 330.243C317.044 330.382 319.857 330.792 322.611 331.467C332.183 333.776 339.334 338.387 343.869 345.178C348.404 351.969 349.513 360.536 347.107 370.551C344.7 380.565 339.906 387.341 332.87 390.635C330.728 391.618 328.468 392.321 326.146 392.724C331.91 392.878 336.873 391.998 340.975 390.078C348.012 386.784 352.8 380.028 355.212 369.993C357.624 359.959 356.545 351.447 351.975 344.621Z" fill="#C95976"/>
<path d="M134.264 211.052C133.109 211.02 131.959 211.215 130.88 211.627C129.8 212.039 128.813 212.66 127.973 213.453C126.277 215.057 125.287 217.268 125.221 219.602C125.155 221.935 126.019 224.199 127.621 225.896C129.224 227.593 131.435 228.583 133.767 228.649C134.695 228.683 135.622 228.573 136.517 228.326C138.532 227.735 140.271 226.445 141.419 224.686C142.567 222.927 143.05 220.815 142.78 218.732C142.51 216.648 141.505 214.73 139.947 213.322C138.388 211.914 136.378 211.109 134.279 211.052H134.264Z" fill="#D67086"/>
<path d="M140.4 213.793C139.616 212.944 138.668 212.263 137.613 211.792C136.558 211.32 135.419 211.069 134.264 211.052C133.504 211.025 132.744 211.094 132.001 211.256C133.639 211.642 135.124 212.508 136.268 213.743C137.86 215.454 138.714 217.724 138.645 220.06C138.576 222.397 137.59 224.612 135.9 226.226C134.899 227.191 133.676 227.895 132.339 228.275C132.18 228.325 132.016 228.36 131.842 228.4C133.376 228.755 134.975 228.727 136.496 228.32C137.939 227.886 139.247 227.092 140.296 226.011C141.346 224.931 142.103 223.6 142.496 222.145C142.889 220.691 142.904 219.16 142.541 217.697C142.178 216.235 141.448 214.89 140.42 213.788L140.4 213.793Z" fill="#C95976"/>
<path d="M165.731 142.462C160.504 137.342 153.384 134.611 144.562 134.357C135.74 134.104 128.435 136.402 122.826 141.203C117.958 145.377 115.099 150.929 114.318 157.705C114.253 158.272 114.306 158.847 114.475 159.393C114.644 159.938 114.924 160.442 115.299 160.874C115.673 161.305 116.132 161.654 116.648 161.898C117.164 162.142 117.725 162.276 118.296 162.292L123.547 162.446C124.559 162.476 125.547 162.13 126.32 161.477C127.094 160.823 127.599 159.907 127.739 158.904C128.261 155.213 129.689 152.407 132.105 150.317C135.029 147.795 139.067 146.591 144.134 146.74C149.201 146.889 153.11 148.382 155.835 151.183C158.56 153.984 159.848 157.904 159.704 162.849C159.505 169.665 157.416 174.202 153.503 176.331C149.381 178.57 142.971 179.535 134.447 179.202L132.175 179.137C131.086 179.106 130.03 179.508 129.236 180.253C128.442 180.999 127.976 182.029 127.938 183.117L127.361 202.918C127.329 204.007 127.73 205.064 128.476 205.857C129.221 206.651 130.251 207.116 131.339 207.152L136.665 207.306C137.083 207.32 137.501 207.27 137.903 207.156C138.744 206.914 139.486 206.411 140.022 205.72C140.558 205.029 140.861 204.185 140.887 203.311L141.26 190.49C141.263 190.414 141.294 190.341 141.349 190.287C141.404 190.234 141.477 190.203 141.553 190.202C151.499 190.227 159.177 188.247 164.428 184.311C169.992 180.127 172.951 173.322 173.22 164.078C173.488 154.834 170.977 147.611 165.731 142.462Z" fill="#D67086"/>
<path d="M165.731 142.461C160.504 137.342 153.383 134.611 144.562 134.357C139.092 134.198 134.223 135.024 129.967 136.81C132.477 136.414 135.02 136.259 137.56 136.347C146.377 136.606 153.498 139.332 158.724 144.451C163.95 149.571 166.501 156.889 166.228 166.088C165.954 175.287 163.001 182.117 157.436 186.306C155.741 187.565 153.889 188.597 151.926 189.376C157.009 188.45 161.201 186.764 164.443 184.326C170.007 180.142 172.966 173.336 173.235 164.093C173.503 154.849 170.977 147.611 165.731 142.461Z" fill="#C95976"/>
<path d="M321.089 388.177L315.022 386.739L315.525 384.122L319.896 384.182L319.558 382.834L324.6 384.695L324.446 387.491L321.089 388.177Z" fill="#A0734B"/>
<path d="M361.254 363.148L351.084 382.879L323.103 383.491L323.083 389.053L356.281 395.655L367.987 377.023L361.254 363.148Z" fill="#EED5D5"/>
<path d="M138.003 311.512L135.258 281.229L128.182 280.921L123.323 304.264L117.436 314.089L126.441 322.776C126.441 322.776 134.094 318.034 135.084 317.696L138.003 311.512Z" fill="#5D66D3"/>
<path d="M134.671 281.205L134.627 273.245L129.803 270.772L125.193 273.638L128.023 277.424L130.634 281.025L134.671 281.205Z" fill="#EAC1A4"/>
<path d="M507.715 266.085L499.341 236.842L492.33 237.867L491.748 274.185L498.471 279.314C498.471 279.314 505.105 273.224 506.015 272.707L507.715 266.085Z" fill="#8CABEF"/>
<path d="M498.769 236.932L497.233 229.126L492.031 227.599L488.043 231.276L491.529 234.465L494.771 237.514L498.769 236.932Z" fill="#EAC1A4"/>
<defs>
<linearGradient id="paint0_linear" x1="248.511" y1="136" x2="819.511" y2="307.5" gradientUnits="userSpaceOnUse">
<stop stop-color="#EE4266"/>
<stop offset="1" stop-color="#9477D1"/>
</linearGradient>
</defs>
</svg>
