<svg id="Object" xmlns="http://www.w3.org/2000/svg" xmlns:xlink="http://www.w3.org/1999/xlink" viewBox="0 0 680.08 855.02"><defs><style>.cls-1,.cls-6,.cls-7{fill:none;}.cls-18,.cls-2{fill:#324c5b;}.cls-2{opacity:0.4;}.cls-3{fill:#647286;}.cls-4{fill:#c7cad1;}.cls-5{fill:#fff;}.cls-6{stroke:#333;stroke-width:8px;}.cls-6,.cls-7{stroke-miterlimit:10;}.cls-7{stroke:#00d398;stroke-width:12px;}.cls-8{fill:#999;}.cls-9{clip-path:url(#clip-path);}.cls-10{fill:#ecb98c;}.cls-11{clip-path:url(#clip-path-2);}.cls-12{fill:#f6e2ca;}.cls-13{fill:#a57842;}.cls-14{fill:#e05b4a;}.cls-15{clip-path:url(#clip-path-3);}.cls-16{fill:#e8a244;}.cls-17{fill:#eed8a2;}.cls-19{fill:#efc849;}.cls-20{fill:#d1933e;}</style><clipPath id="clip-path" transform="translate(-80.56 -60.09)"><rect class="cls-1" width="800" height="800"/></clipPath><clipPath id="clip-path-2" transform="translate(-80.56 -60.09)"><path class="cls-1" d="M582.47,847.51s5.14-28.78-20.56-78.4-17.13-58.56-24-93.3-16.28-85.35-16.28-85.35-7.71-30.77-26.56-59.56-7.87-48.62,21.66-49.59c22.52-.74,47.74,52.57,56.3,101.2s64.26,57.57,80.54,50.62-30.84-90.32-30-125c0,0-90.78-60.35-77.93-95.09S615,433.64,643.3,448.53c0,0,44.55,18.85,61.68,61.53s32.56,69.48,41.12,82.38,23.13,20.84-6,62.53-49.68,116.12-37.69,179.64Z"/></clipPath><clipPath id="clip-path-3" transform="translate(-80.56 -60.09)"><polygon class="cls-1" points="717.83 641.61 486.62 357.35 423.69 312.51 440.62 382.51 683.78 669.1 717.83 641.61"/></clipPath></defs><title>review</title><polygon class="cls-2" points="514.34 557.79 548.67 553.25 516.38 308.68 531.63 74.75 485.09 71.71 476.94 9.97 166.58 50.95 90.57 45.99 89.58 61.11 38.74 67.83 41.56 89.17 15.15 92.24 61.56 490.88 54.92 592.83 73.58 594.05 78.53 636.57 310.86 609.52 495.98 621.59 498.19 587.71 517.56 585.45 514.34 557.79"/><rect class="cls-3" x="138.12" y="86.66" width="442" height="548" transform="matrix(0.99, -0.13, 0.13, 0.99, -124.69, -9.98)"/><rect class="cls-4" x="84.69" y="162.91" width="548" height="442" transform="translate(-128.31 656.77) rotate(-86.27)"/><rect class="cls-5" x="110.77" y="114.97" width="442" height="548" transform="translate(-123.32 -19.11) rotate(-6.64)"/><rect class="cls-6" x="127.82" y="176.53" width="73.47" height="73.47" transform="translate(-104.12 -39.63) rotate(-6.64)"/><polyline class="cls-7" points="61.36 148.47 76.68 169.02 108.03 135.4"/><rect class="cls-8" x="227.24" y="164.24" width="258.44" height="7.76" transform="translate(-97.62 -17.74) rotate(-6.64)"/><rect class="cls-8" x="229.9" y="187.16" width="258.44" height="7.76" transform="translate(-100.25 -17.28) rotate(-6.64)"/><rect class="cls-8" x="232.89" y="216.36" width="135.38" height="7.76" transform="translate(-104.02 -23.85) rotate(-6.64)"/><rect class="cls-6" x="138.79" y="270.75" width="73.47" height="73.47" transform="translate(-114.95 -37.73) rotate(-6.64)"/><polyline class="cls-7" points="72.33 242.68 87.65 263.23 119 229.61"/><rect class="cls-8" x="238.2" y="258.46" width="258.44" height="7.76" transform="translate(-108.44 -15.84) rotate(-6.64)"/><rect class="cls-8" x="240.87" y="281.37" width="258.44" height="7.76" transform="translate(-111.07 -15.38) rotate(-6.64)"/><rect class="cls-8" x="243.86" y="310.57" width="135.38" height="7.76" transform="translate(-114.84 -21.95) rotate(-6.64)"/><rect class="cls-6" x="149.76" y="364.96" width="73.47" height="73.47" transform="translate(-125.77 -35.82) rotate(-6.64)"/><polyline class="cls-7" points="83.3 336.89 98.62 357.44 129.96 323.82"/><rect class="cls-8" x="249.17" y="352.67" width="258.44" height="7.76" transform="translate(-119.26 -13.94) rotate(-6.64)"/><rect class="cls-8" x="251.84" y="375.58" width="258.44" height="7.76" transform="translate(-121.89 -13.48) rotate(-6.64)"/><rect class="cls-8" x="254.83" y="404.78" width="135.38" height="7.76" transform="translate(-125.66 -20.05) rotate(-6.64)"/><rect class="cls-6" x="160.73" y="459.17" width="73.47" height="73.48" transform="translate(-136.58 -33.93) rotate(-6.64)"/><polyline class="cls-7" points="94.27 431.1 109.59 451.65 140.93 418.03"/><rect class="cls-8" x="260.14" y="446.88" width="258.44" height="7.76" transform="translate(-130.08 -12.04) rotate(-6.64)"/><rect class="cls-8" x="262.81" y="469.79" width="258.44" height="7.76" transform="translate(-132.72 -11.57) rotate(-6.64)"/><rect class="cls-8" x="265.79" y="498.99" width="135.38" height="7.76" transform="translate(-136.48 -18.15) rotate(-6.64)"/><rect class="cls-6" x="171.69" y="553.38" width="73.47" height="73.47" transform="translate(-147.42 -32.02) rotate(-6.64)"/><polyline class="cls-7" points="105.24 525.31 120.56 545.86 151.9 512.24"/><rect class="cls-8" x="271.11" y="541.09" width="258.44" height="7.76" transform="translate(-140.9 -10.13) rotate(-6.64)"/><rect class="cls-8" x="273.78" y="564" width="258.44" height="7.76" transform="translate(-143.53 -9.68) rotate(-6.64)"/><rect class="cls-8" x="276.76" y="593.2" width="135.38" height="7.76" transform="translate(-147.31 -16.24) rotate(-6.64)"/><g class="cls-9"><path class="cls-2" d="M738.06,730.63c1.72-2.8,3.48-5.5,5.27-8.06,29.13-41.69,14.57-49.63,6-62.53s-24-39.7-41.12-82.38-61.68-61.54-61.68-61.54c-28.28-14.88-84.79-70.27-97.64-35.53-2,5.5-1.47,11.64.92,18.08l-60-73.72-62.93-44.84,16.93,70,86.59,102.06A18.51,18.51,0,0,0,520,548.91c-29.53,1-40.5,20.81-21.66,49.59s26.56,59.55,26.56,59.55,9.43,50.62,16.28,85.36-1.71,43.67,24,93.3,20.56,78.4,20.56,78.4l119.94-12.9c-8.08-42.81-1.37-90.57,12.78-129.93a3.63,3.63,0,0,0,3.24-.38l27.13-21c2-1.52,1.3-5.5-1.47-8.89Zm-111.24-155c-.15,6,1.14,13.44,3.28,21.7L588,545.64A407.67,407.67,0,0,0,626.82,575.68Zm-50.55,74.43c-4.68-26.58-14.34-54.57-25.81-74.35L656.57,700.82C640,707.59,584.8,698.53,576.27,650.11Z" transform="translate(-80.56 -60.09)"/><path class="cls-10" d="M582.47,847.51s5.14-28.78-20.56-78.4-17.13-58.56-24-93.3-16.28-85.35-16.28-85.35-7.71-30.77-26.56-59.56-7.87-48.62,21.66-49.59c22.52-.74,47.74,52.57,56.3,101.2s64.26,57.57,80.54,50.62-30.84-90.32-30-125c0,0-90.78-60.35-77.93-95.09S615,433.64,643.3,448.53c0,0,44.55,18.85,61.68,61.53s32.56,69.48,41.12,82.38,23.13,20.84-6,62.53-49.68,116.12-37.69,179.64Z" transform="translate(-80.56 -60.09)"/><g class="cls-11"><path class="cls-12" d="M476.34,532.51s-20-33.19,2.13-34.37,75.86,50.93,20.36,59.55Z" transform="translate(-80.56 -60.09)"/><path class="cls-13" d="M627.63,426.79c-1.88,8.61,6.35,18.79,10.92,25.17,8.74,12.23,18.77,23.54,28.72,34.79,7.74,8.75,16.29,17.23,23,26.87,6.09,8.8,10.47,18.76,14,28.8,3.79,10.66,5.83,22.45,10.69,32.65.64,1.34,2.35.29,2.19-.93-1.41-10.39-5.41-21.25-8.94-31.12a138.4,138.4,0,0,0-14-28.71c-5.78-8.93-13.7-16.61-20.81-24.45-10.11-11.14-20.23-22.29-29.51-34.14a151.52,151.52,0,0,1-11.19-16.21c-2.08-3.52-4.72-8.15-4-12.42.11-.7-.93-1-1.09-.3Z" transform="translate(-80.56 -60.09)"/><path class="cls-12" d="M571.85,391.75s-27,16.06,0,33.62,31.52-.53,21.76-15.84S571.85,391.75,571.85,391.75Z" transform="translate(-80.56 -60.09)"/></g><path class="cls-14" d="M669.38,651.31c-2.76-3.39-3.42-7.37-1.46-8.89l27.13-21c2-1.52,5.79,0,8.56,3.39l40.48,49.6c2.77,3.39,3.43,7.37,1.47,8.89l-27.13,21c-2,1.52-5.79,0-8.56-3.4Z" transform="translate(-80.56 -60.09)"/><g class="cls-15"><polygon class="cls-16" points="637.26 587.01 438.67 341.18 343.12 257.92 397.3 366.2 603.22 614.5 637.26 587.01"/><path class="cls-17" d="M519.89,388.47c2,5.31-38.61-16.73-38.61-16.73l-22-8.15,3.34,23.33,2.93,29.79s-78.2-95.27-76.24-97,5.15-46.88,19.34-43.79,87.43,76.16,94.6,80.48S519.89,388.47,519.89,388.47Z" transform="translate(-80.56 -60.09)"/><path class="cls-18" d="M450,323.59l-25.14,18s-45.83-70.78-44.2-74.2S450,323.59,450,323.59Z" transform="translate(-80.56 -60.09)"/><path class="cls-19" d="M715.53,659.79l-234.25-288-4.83-21.64s83.94,58.29,91,64.66,70,67.48,76.34,74.28,52.51,105.77,57.54,110.13S734.48,653,734.48,653Z" transform="translate(-80.56 -60.09)"/><path class="cls-20" d="M695.08,668.58,462.62,386.92S442.2,370.37,442,371.74s3.36,55.46,8.4,61.38,55.78,84.77,76.76,102.8S600.94,627.3,619,643.28s92.33,62.54,92.33,62.54Z" transform="translate(-80.56 -60.09)"/></g></g></svg>