<svg xmlns="http://www.w3.org/2000/svg" xmlns:xlink="http://www.w3.org/1999/xlink" viewBox="0 0 900.82 748.27"><defs><style>.cls-1{fill:none;}.cls-2{isolation:isolate;}.cls-28,.cls-3{opacity:0.11;}.cls-4{fill:#eac5b0;}.cls-5{fill:#1a3151;}.cls-6{fill:#145566;}.cls-7{fill:#c69c6d;}.cls-8{clip-path:url(#clip-path);}.cls-9{fill:#ffd559;}.cls-10{fill:#ebb044;}.cls-11{fill:#d1e7f5;}.cls-12{fill:#3ababa;}.cls-13{fill:#c8d6a1;}.cls-14{opacity:0.59;}.cls-15{fill:#fff;}.cls-16{fill:#f5f6f5;}.cls-17{fill:#737270;}.cls-18{fill:#b0afad;}.cls-19{fill:#888482;}.cls-20{fill:#94908b;}.cls-21{fill:#5d5a5a;}.cls-22{fill:#edd3b8;}.cls-23{fill:#9ea6ad;}.cls-24{fill:#fdbe0f;}.cls-25{fill:#ffdf4d;}.cls-26{fill:#f6f7f7;}.cls-27{fill:#edeced;}.cls-28{mix-blend-mode:multiply;}</style><clipPath id="clip-path" transform="translate(-81.5 -25.72)"><path class="cls-1" d="M799.4,119.71C799.4,71.27,760.92,32,713.47,32s-85.93,39.27-85.93,87.71a88.67,88.67,0,0,0,13.26,46.82h0c23.91,40.9,29.43,75.15,29.43,75.15h86.48s5.52-34.25,29.43-75.15h0A88.67,88.67,0,0,0,799.4,119.71Z"/></clipPath></defs><title>unique</title><g class="cls-2"><g id="Shadow"><ellipse class="cls-3" cx="635.39" cy="735.97" rx="60.72" ry="12.29"/><ellipse class="cls-3" cx="447" cy="735.97" rx="60.72" ry="12.29"/><ellipse class="cls-3" cx="258.61" cy="735.97" rx="60.72" ry="12.29"/><ellipse class="cls-3" cx="70.22" cy="735.97" rx="60.72" ry="12.29"/><ellipse class="cls-3" cx="823.79" cy="735.97" rx="60.72" ry="12.29"/></g><g id="Object"><polygon class="cls-4" points="646.78 581.88 638.3 592.74 644.62 597.65 654.03 585.61 646.78 581.88"/><path class="cls-5" d="M726.47,622.54,722,616.71l-2.81-1.22-5,2.11,4.58,18.34h0a4.34,4.34,0,0,0,5.46-4.13v-.93Z" transform="translate(-81.5 -25.72)"/><polygon class="cls-4" points="619.78 581.9 628.27 592.74 621.96 597.66 612.54 585.63 619.78 581.9"/><path class="cls-5" d="M703,623.31l3.75-6.29,2.65-1.52,5.19,1.54-2.5,18.73h0a4.33,4.33,0,0,1-5.88-3.49l-.12-.92Z" transform="translate(-81.5 -25.72)"/><path class="cls-5" d="M774.09,500.3c-5.55-13.07-12.53-22.05-18.49-34.37-7-1.11-14-3.38-21-5l1.55-2.62c-9.39.85-19-.19-28.36.9a116.85,116.85,0,0,1-11.69.06c.46.74.93,1.46,1.39,2.19-6.8,2.11-13.47,5.06-20.33,6.67-5.15,13-10.75,23.06-15,37s-7,31.78-11.91,46.28c14,22.28,32.06,48,45.69,70.46,4.84-1.87,6.1-7.78,11-9.42-6.34-20.6-11.82-41.44-18.81-61.83,8-13.9,14.92-28.24,21.9-42.58a9.63,9.63,0,0,1,16.75-1c8,12.55,15.92,25.18,23.43,38.08-7.71,23.17-18,45-27.68,67.34,4.6,2.38,4.47,7.89,9.08,10.26,18.32-24.71,40.95-51.93,56.95-78.36C783.69,530.39,779.64,513.38,774.09,500.3Z" transform="translate(-81.5 -25.72)"/><path class="cls-6" d="M734.34,329.54a21.55,21.55,0,0,0-5.14-2.75c-3.32-1.24-7-1.27-10.49-1.16-8.12.26-16.85,1.47-22.78,7-11.2,10.44-10,33.82-12.08,48.27l-4.92,33.82-4.53,54.19,63.22,1,20.82-3.32-5.36-56.89c-1.17-12.45-3-24.87-4.56-37.27C746.88,359,746.64,338.47,734.34,329.54Z" transform="translate(-81.5 -25.72)"/><path class="cls-4" d="M726.43,282.91a16.93,16.93,0,0,0-12-4.93c-15.47.16-16.65,15.17-13.77,26.84,1.27,5.15,3.81,10.19,8.12,13.29a14.57,14.57,0,0,0,3.87,2c-.63,2.12-.21,4.87-.35,7.07-.08,1.33-.48,2.48.37,3.55,1.07,1.34,3.41,1.5,5,1.46a6.88,6.88,0,0,0,3.58-.89c1.7-1.14,1.3-2.68,1.22-4.38-.1-2.45.22-4.89,0-7.34a9.48,9.48,0,0,0,1.25-.76c4.14-3,5.48-8.48,6.26-13.52C730.9,298.72,731.51,288,726.43,282.91Z" transform="translate(-81.5 -25.72)"/><path class="cls-5" d="M727.5,297.28c.5.59,1.34.73,1.94,1.21,2,1.58.07,5.05,1.29,7.3,1.56,2.88,1.28,7.93-1.72,10.32-1,.81-2.39,1.38-2.82,2.61-.5,1.44.51,3.29-.52,4.41,1.63,1.67,4.43,1.32,6.59.42s4.27-2.23,6.61-2.15c.75,0,1.64.14,2.1-.44a2.38,2.38,0,0,0,.32-1.27c.54-5.36,6.87-4,7.72-8.33.23-1.16-1.2-4.05-1.18-5.57,0-2.44,1.44-4.61.61-7.1-.35-1-1-1.92-1.39-2.95-.72-2.09,0-4.35.46-6.52s.36-4.79-1.41-6.11c-1.39-1-3.41-.9-4.78-1.95-3-2.35-.81-8.46-4.22-10.21-1.75-.89-3.88.09-5.83-.2s-3.61-1.93-5.33-3.1-4.3-1.78-5.7-.25c-1.18,1.28-.86,3.43-2,4.8-.93,1.17-2.57,1.42-3.93,2.06-6.37,3,5.62,5,7.34,7.06a46.67,46.67,0,0,1,4,7.13C727,290.83,726.2,295.75,727.5,297.28Z" transform="translate(-81.5 -25.72)"/><path class="cls-5" d="M708.94,282.22c-7.79,1.65-3.07,7.44-5.55,12.18-1,1.86-3.66,2.56-4.19,4.59-.43,1.64.77,3.21,1.73,4.6s1.7,3.42.54,4.66c-.35.37-.84.62-1.09,1.07-.63,1.17.81,2.36,2,2.89s2.73,1.57,2.24,2.81c-1.43,3.63-2.35,2.1,0,5.18.56.74,1.53.61,2.07,1.37a3.55,3.55,0,0,1-4,.91c-3.63-1.4-2.63.36-5.46.8s-3.07-.44-5.68-2.1c-2.44-1.55-7.54-2.63-8.4-5.77-.48-1.76.88-3.56.48-5.33s-2.21-2.91-3.06-4.47c-1.72-3.16.88-6.61,1.42-10,.74-4.68-2-10.51,2.92-13.46,1.07-.64,2.37-1,3.46-1.63,3.2-1.81,3.84-5.11,5.09-7.95s4.5-5.88,8.44-5.23c3.57.59,5.47,4,9.1,4.34,1.27.12,2.67-.15,3.79.31a3.52,3.52,0,0,1,1.73,1.76c.86,1.6,3.38,7,1.48,8.44C715.56,284.12,712.24,281.52,708.94,282.22Z" transform="translate(-81.5 -25.72)"/><path class="cls-7" d="M738.48,300.51a4.38,4.38,0,0,0,.84-1.88,2.45,2.45,0,0,0-1.33-2.44,15.58,15.58,0,0,0-1.69-.72c-1.2-.5-2.17-1.07-1.62-2.8a9.27,9.27,0,0,1,.44-.82,4.7,4.7,0,0,0,.2-3.26,2.66,2.66,0,0,0-1.65-1.79,8,8,0,0,0-2,0c-2.56-.17-1.6-2.53-1.43-4a4.52,4.52,0,0,0-4-5.06c-.4-.05-.4.57,0,.62a4,4,0,0,1,3,2,5,5,0,0,1,.16,3.48,3.22,3.22,0,0,0,.64,3c1.36,1.18,3.35-.44,4.47,1.3s-.12,3.1-.61,4.64c-1.24,3.92,6.78,2.68,4.33,6.92-.63,1.09-1.83,2.16-1.63,3.56a1.83,1.83,0,0,0,2,1.68c.4,0,.4-.66,0-.62-1.7.18-1.33-1.93-.89-2.69C737.89,301.3,738.21,300.92,738.48,300.51Z" transform="translate(-81.5 -25.72)"/><path class="cls-7" d="M703.32,280.56c-2.18-.27-5.56-.21-5.87,2.64-.15,1.48.73,2.81,1,4.22.47,2.83-2.39,3.43-4.38,4.28s-4,3.36-1.72,5.21l.8.59-.48,1.89c-.2.25-.76.45-1,.66a1.83,1.83,0,0,0-.71,1.1,1.21,1.21,0,0,0,1.16,1.45c.4,0,.4-.6,0-.62l.18-1.63.51-.31c.16-.14.37-.23.53-.37a2.47,2.47,0,0,0,.65-.75,1.5,1.5,0,0,0-.4-1.86c-.52-.52-1.07-.7-1.42-1.43-.6-1.24.25-2.34,1.37-3s2.57-.89,3.73-1.6c1.86-1.14,2.12-2.84,1.51-4.81-.47-1.49-1.33-3.46.31-4.56,1.21-.8,2.89-.65,4.26-.48C703.71,281.23,703.71,280.61,703.32,280.56Z" transform="translate(-81.5 -25.72)"/><path class="cls-7" d="M688.79,291.73a.31.31,0,0,0-.17-.6c-1.7.51-3.9,1.36-3.84,3.48a2,2,0,0,0,.72,1.54c.7.59,1.55.55,2.15,1.32a1.8,1.8,0,0,1-2.09,2.77.31.31,0,0,0-.17.6,2.5,2.5,0,0,0,3.36-2.6,2.7,2.7,0,0,0-1.64-2c-1.22-.69-2.3-1.73-1.14-3.08A5.69,5.69,0,0,1,688.79,291.73Z" transform="translate(-81.5 -25.72)"/><g class="cls-8"><rect class="cls-9" x="524.06" y="95.24" width="230.9" height="31.75"/><rect class="cls-10" x="524.06" y="126.99" width="230.9" height="31.75"/><rect class="cls-11" x="524.06" y="158.74" width="230.9" height="31.75"/><rect class="cls-12" x="524.06" y="190.49" width="230.9" height="31.75"/><rect class="cls-9" x="524.06" width="230.9" height="31.75"/><rect class="cls-11" x="524.06" y="31.75" width="230.9" height="31.75"/><rect class="cls-13" x="524.06" y="63.5" width="230.9" height="31.75"/></g><g class="cls-14"><path class="cls-15" d="M641.92,127.36c0-42.3,33.59-76.58,75-76.58a74.38,74.38,0,0,1,59.46,29.9c-12.95-23-37.23-38.42-65-38.42-41.43,0-75,34.29-75,76.58a77.26,77.26,0,0,0,15.55,46.68A77.43,77.43,0,0,1,641.92,127.36Z" transform="translate(-81.5 -25.72)"/></g><polygon class="cls-16" points="615.6 216.39 605.19 104.11 619.69 116.42 632.35 95.95 645.17 115.77 659.43 104 649.01 216.39 653.45 216.39 664.82 93.76 646.18 109.14 632.26 87.64 618.64 109.67 599.78 93.65 611.16 216.39 615.6 216.39"/><path class="cls-17" d="M687.82,305V318.8a8,8,0,0,0,7.93,8.1h35.44a8,8,0,0,0,7.93-8.1V305Z" transform="translate(-81.5 -25.72)"/><path class="cls-18" d="M669.24,242.11v58.5a4.33,4.33,0,0,0,4.23,4.42h80a4.33,4.33,0,0,0,4.23-4.42v-58.5Z" transform="translate(-81.5 -25.72)"/><rect class="cls-19" x="587.74" y="230.91" width="88.47" height="10.8"/><rect class="cls-19" x="587.74" y="253.98" width="88.47" height="10.8"/><path class="cls-20" d="M717.74,279.7h40V267.44H733.05A163.32,163.32,0,0,1,717.74,279.7Z" transform="translate(-81.5 -25.72)"/><path class="cls-20" d="M757.7,256.64V242.11h-1.39c-4.06,5.28-8.18,10.11-12.3,14.53Z" transform="translate(-81.5 -25.72)"/><path class="cls-20" d="M673.47,305h80a4.33,4.33,0,0,0,4.23-4.42v-10.1H699.94a128.72,128.72,0,0,1-30.56,11.2A4.27,4.27,0,0,0,673.47,305Z" transform="translate(-81.5 -25.72)"/><path class="cls-17" d="M733.05,267.44H757.7v-10.8H744Q738.54,262.51,733.05,267.44Z" transform="translate(-81.5 -25.72)"/><path class="cls-17" d="M699.94,290.51H757.7V279.7h-40A148.47,148.47,0,0,1,699.94,290.51Z" transform="translate(-81.5 -25.72)"/><path class="cls-21" d="M739.12,313.39c-10,9.81-29.09,12.78-35.41,13.51h27.48a8,8,0,0,0,7.93-8.1Z" transform="translate(-81.5 -25.72)"/><path class="cls-4" d="M767.35,270a13.76,13.76,0,0,0-4-6.45c-1.39-1.21-5.94-4.48-7.62-2a1,1,0,0,0-.13.51c-.07,1.49-.12,4.12.76,5.4s2.11.76,3.24,1.79a1.72,1.72,0,0,1,.05,2.6,4.61,4.61,0,0,1-1.62.36c-.55.1-1.15.54-1,1.09a1.34,1.34,0,0,0,.54.69l3.25,2.56c1.57,1.25,3.31,2.91,2.95,4.88a19.19,19.19,0,0,0,5.29-.32C768.65,277.38,768.4,273.46,767.35,270Z" transform="translate(-81.5 -25.72)"/><path class="cls-6" d="M732.19,354.17c-.71-2.1-1.36-4.25-2-6.49-.36-1.3-4.48-21.06-1.19-20.37a73.44,73.44,0,0,0,22,1.14c1.08-.1,12.19-.87,12.18-1.91q-.11-16.59-1.18-33.16c-.35-5.5-1.33-11.16-1.34-16.65,0-2.35,0-1.92,1.93-2.87,1.6-.78,4.22-1.3,5.65,0s1.69,3,2.05,4.75c2.9,13.86,7.91,27.13,12,40.65,2.71,8.92,7.65,21.09,1.88,29.89-1.87,2.85-4.91,4.68-7.88,6.37a286.43,286.43,0,0,1-30.55,15,6.86,6.86,0,0,1-3.93.77c-1.94-.4-3.11-2.32-4-4.06A82.61,82.61,0,0,1,732.19,354.17Z" transform="translate(-81.5 -25.72)"/><path class="cls-4" d="M661.62,273.73a13.66,13.66,0,0,1,4-6.45c1.4-1.21,5.95-4.48,7.63-2a1,1,0,0,1,.12.52c.08,1.48.12,4.12-.76,5.4s-2.1.76-3.23,1.79a1.72,1.72,0,0,0-.06,2.6,4.67,4.67,0,0,0,1.63.36c.55.1,1.15.54,1,1.09a1.26,1.26,0,0,1-.55.68l-3.24,2.57c-1.57,1.25-3.32,2.91-2.95,4.88a19.16,19.16,0,0,1-5.29-.32C660.32,281.07,660.57,277.16,661.62,273.73Z" transform="translate(-81.5 -25.72)"/><path class="cls-6" d="M699.66,358.42c1-6,1.77-11.45,1.76-12.49,0-2.9.38-13.12-2.42-14.66-2.2-1.21-11.3,2.12-14.52,1.78a14.5,14.5,0,0,1-9.54-5.8A34.23,34.23,0,0,1,669.89,317c-2-5.77-4.48-12.23-3.94-18.37s2.28-12,2.28-18.23c0-2.35,0-1.92-1.92-2.87-1.6-.78-4.22-1.3-5.65,0-3.7,3.36-4.2,10.94-5.33,15.45l-5.43,21.67c-1.12,4.5-2.26,9.14-1.63,13.74s3,8.91,5.68,12.82A100.83,100.83,0,0,0,694.53,376C696,376.69,698.17,367,699.66,358.42Z" transform="translate(-81.5 -25.72)"/><polygon class="cls-22" points="243.92 711.61 243.89 725.34 251.89 725.36 251.92 710.13 243.92 711.61"/><polygon class="cls-22" points="280.26 709.59 281.84 724.42 290.48 723.51 288.73 707.06 280.26 709.59"/><path class="cls-5" d="M371.85,748.74l-7.76,1.73-2.47,2.22-.15,5.85,20.21,3.74h0a4.69,4.69,0,0,0-1.63-7.23l-.92-.43Z" transform="translate(-81.5 -25.72)"/><path class="cls-5" d="M325.61,750.14h8l2.81,3.67-.32,6.49-20.52,1.26-.83-2a4.27,4.27,0,0,1,3.36-6l.46-.06Z" transform="translate(-81.5 -25.72)"/><polygon class="cls-6" points="220.31 585.94 227.89 653.65 230.9 720.04 256.61 720.13 266.9 538.65 225.46 539.3 220.31 585.94"/><polygon class="cls-6" points="297.02 576.93 302.59 642.98 295.53 719.92 270.57 719.18 266.97 644.68 262.74 584.44 258.42 539.53 288.31 538.67 297.02 576.93"/><polygon class="cls-11" points="275.45 436.17 246.46 437.22 231.1 450.96 221.6 501.66 216.34 545.09 284.1 545.39 301 541.13 295.68 495.61 293.13 445.39 275.45 436.17"/><path class="cls-4" d="M352.88,416.87a17.88,17.88,0,0,0-12.58-5.46c-16.29-.17-17.86,15.6-15.09,28,1.22,5.44,3.79,10.81,8.25,14.17a15.22,15.22,0,0,0,4,2.15h0c-.27.83-.43,11-1.15,10.9a22.26,22.26,0,0,0,11.26-1.18c0-3,.43-6.77.2-10.06a11.9,11.9,0,0,0,1.34-.77c4.42-3.07,6-8.81,6.89-14.1C357.23,433.61,358.11,422.36,352.88,416.87Z" transform="translate(-81.5 -25.72)"/><path class="cls-5" d="M350.27,424.21c3.08,3.66,3.31,8.87,3.16,13.65-.21,6.36-.86,12.88-3.77,18.54l11.87-9a13.57,13.57,0,0,0,3.93-3.95,13,13,0,0,0,1.21-5.47c.67-10,.2-20.92-6.07-28.77a23.45,23.45,0,0,0-16.4-8.62c-5.18-.37-26.85,6.23-18.32,14.27,2.46,2.31,8.53,2.68,11.68,3.52C342.05,419.55,347.1,420.47,350.27,424.21Z" transform="translate(-81.5 -25.72)"/><path class="cls-5" d="M331.39,422a4.11,4.11,0,0,0-1.84.38,4,4,0,0,0-1.44,1.68,33.48,33.48,0,0,0-.62,31c-8.27-2.64-14.43-10.35-16.07-18.85s.95-17.52,6.09-24.5c4.8-6.52,12.56-11.6,20.62-10.66a17,17,0,0,1,12,7.34C360.24,423.5,341.15,421.4,331.39,422Z" transform="translate(-81.5 -25.72)"/><path class="cls-4" d="M297.55,395.18a2.55,2.55,0,0,1,.37-.69c1.59-2,4.53-3.64,6.68-5,1.66-1,3.61.58,4.88,1.49a1.72,1.72,0,0,1,.84,1,1.35,1.35,0,0,1-.15.76c-.63,1.36-2.15,1.79-3.13,2.81a2.18,2.18,0,0,0-.82,1.76c.29,1.57,1.73.2,2.52-.16,1.58,1.55,0,2.51-1.28,3.46a42.47,42.47,0,0,1-4.92,3.17c-1.33.73-1.88,1.23-3.16.32a31.93,31.93,0,0,1-3.32-2.31c.36-1.53.72-3.05,1.07-4.57A17.81,17.81,0,0,1,297.55,395.18Z" transform="translate(-81.5 -25.72)"/><path class="cls-11" d="M343.06,479.74a8.86,8.86,0,0,0,.07-1.37c-.18-13.17-19.4-15.78-28.69-18-7.41-1.76-13.68-4.53-19.29-9.49a250.49,250.49,0,0,1,8.33-47.4c-2.93-1.9-5.85-3.8-8.83-5.62-.1-.06-10.65,25.59-11.53,28-3.52,9.61-7.74,19.22-10.8,29-1.34,4.3,3.43,7.78,6.18,11q5,5.9,10.21,11.61,10.4,11.44,21.56,22.18l.44.43a10.43,10.43,0,0,0,3.72,2.62c2.72.88,5.61-.57,8-2.07a106.69,106.69,0,0,0,12.6-9.14C338.77,488.34,342.5,484.43,343.06,479.74Z" transform="translate(-81.5 -25.72)"/><path class="cls-4" d="M378,402.38a8.48,8.48,0,0,0-1.16-1c-.91-.61-2.11-.85-3.05-1.42s-2.09-1.27-1.86-2.6,2.06-.58,3-.37a2.59,2.59,0,0,0,2.69-.59,2.66,2.66,0,0,0,0-3.25,21.61,21.61,0,0,0-2.48-2.31c2.54,0,4.76.06,6.8,1.73a8.82,8.82,0,0,1,2.07,3c1.9,3.61,4,7,6.14,10.54a23.91,23.91,0,0,0-4.88,1.31c-1.54.62-2,.69-3.23-.51s-2.34-2.72-3.55-4Z" transform="translate(-81.5 -25.72)"/><path class="cls-11" d="M371,500.79c-4.31-10.91-8.09-22.26-12.32-32.88,8.28-6.78,21.39-3.81,25-17s1.81-30.44-4.18-44.18a116.31,116.31,0,0,1,11.39-4c9.64,17,16.1,34.2,13.87,54.25S382.8,486.41,371,500.79Z" transform="translate(-81.5 -25.72)"/><path class="cls-5" d="M316.89,442.34v11.3a6.57,6.57,0,0,0,6.5,6.64h29a6.57,6.57,0,0,0,6.5-6.64v-11.3Z" transform="translate(-81.5 -25.72)"/><path class="cls-9" d="M408.31,290.67c0-39.74-31.52-72-70.4-72s-70.41,32.21-70.41,72a72.78,72.78,0,0,0,10.86,38.41h0c19.59,33.55,24.12,61.65,24.12,61.65h70.86s4.52-28.1,24.12-61.65h0A72.78,72.78,0,0,0,408.31,290.67Z" transform="translate(-81.5 -25.72)"/><path class="cls-23" d="M301.66,390.73v48a3.55,3.55,0,0,0,3.47,3.63h65.55a3.55,3.55,0,0,0,3.47-3.63v-48Z" transform="translate(-81.5 -25.72)"/><path class="cls-24" d="M407.06,277.2c-17.88,35.73-52.61,90.93-104.62,113.33,0,.12,0,.2,0,.2h70.86s4.52-28.1,24.12-61.65h0a72.78,72.78,0,0,0,10.86-38.41A73.84,73.84,0,0,0,407.06,277.2Z" transform="translate(-81.5 -25.72)"/><path class="cls-25" d="M279,296.59c0-34.69,27.52-62.82,61.47-62.82A60.92,60.92,0,0,1,389.2,258.3a61.22,61.22,0,0,0-53.3-31.51c-33.95,0-61.47,28.12-61.47,62.82a63.42,63.42,0,0,0,12.74,38.29A63.66,63.66,0,0,1,279,296.59Z" transform="translate(-81.5 -25.72)"/><polygon class="cls-26" points="242.72 365 234.19 272.9 246.07 283 256.44 266.21 266.95 282.46 278.64 272.81 270.1 365 273.74 365 283.05 264.41 267.78 277.02 256.37 259.39 245.21 277.46 229.76 264.32 239.08 365 242.72 365"/><path class="cls-27" d="M319.73,381.54l.85,9.19h3.63l-1-11.35C322,380.12,320.88,380.84,319.73,381.54Z" transform="translate(-81.5 -25.72)"/><path class="cls-27" d="M355.11,352.77l-3.51,38h3.63l3.91-42.24Q357.16,350.65,355.11,352.77Z" transform="translate(-81.5 -25.72)"/><rect class="cls-5" x="220.16" y="376.92" width="72.49" height="8.86"/><rect class="cls-5" x="220.16" y="395.84" width="72.49" height="8.86"/><path class="cls-28" d="M373,390.73q-5,6.5-10.08,11.91-4.49,4.82-9,8.86a133,133,0,0,1-12.55,10.07,122.4,122.4,0,0,1-14.58,8.86,105.25,105.25,0,0,1-25,9.19,3.5,3.5,0,0,0,3.35,2.72h65.55a3.55,3.55,0,0,0,3.47-3.63v-48Z" transform="translate(-81.5 -25.72)"/><polygon class="cls-5" points="425.77 733.2 424.6 739.23 411.92 743.28 407.35 736.26 414.27 731.22 426.95 727.17 425.77 733.2"/><polygon class="cls-5" points="461.08 726.42 461.62 732.67 473.93 737.89 479.27 731.12 472.85 725.39 461.08 726.42"/><polygon class="cls-6" points="407.35 549.11 401.98 568.55 404.77 577.43 404.5 577.4 407.83 628.64 414.88 731.79 426.75 731.36 448.07 610.79 449.63 616.37 461.14 727.8 472.02 726.85 488.89 581.43 488.89 551.94 407.35 549.11"/><path class="cls-15" d="M537.19,440.27l-13.91-1.15C492.21,436.53,490,479.72,486,501.2c-5.84,31.12-8.41,63-5.43,94.59,9.78-5.32,23.32-4.21,34.43-4.6,20.46-.7,41.64-1.26,61.37,1.88,3.68.58,2.07-25.87,1.33-30.79q-2.28-15-4.57-30-4.11-27.15-8.24-54.3l-.24-1.59a16.12,16.12,0,0,0-1.93-5.54L549.81,448.3A16.05,16.05,0,0,0,537.19,440.27Z" transform="translate(-81.5 -25.72)"/><path class="cls-4" d="M550,400.58c-9.26,2.93-19.82-2.78-28.65,1.36-4.77,2.24-9.16,7.6-8.76,13,.43,5.69,2.14,12.17,5.59,16.8,3.05,4.1,4.08,5.69,2.59,10.59l5.89,4.5a4.07,4.07,0,0,0,1.46.82,4.13,4.13,0,0,0,2.33-.38l4.33-1.63c1.52-.58,1.26-5.79,1.48-7.2a4.93,4.93,0,0,1,.54-1.81,5,5,0,0,1,1.71-1.44c7.59-4.72,13.71-13.86,13.61-23A45.53,45.53,0,0,0,550,400.58Z" transform="translate(-81.5 -25.72)"/><path class="cls-5" d="M527.35,401.84l1.08-.09a36.54,36.54,0,0,1,15.35,2.37c3.34,1.27,6.87,3.55,7.13,7.48a16.6,16.6,0,0,1-.81,5.26l-1.74,6.47a2.38,2.38,0,0,0-.11,1.18c.3,1.18,2.1,1.15,3,.39,3.47-2.78,8.09-7.41,10-11.4,1.56-3.24,1.35-7.56,3.61-10.43,1.49-1.89,2.74-4.89,4.89-5.93,3-1.43,6-3,8.05-5.5s2.93-6.35,1.15-9.1-5.12-3.47-8.23-3.62-6.36.18-9.27-.95a23.1,23.1,0,0,0-3.75-1.5c-4.35-.86-11.09.45-15,2.47-3.7,1.87-7.24,4.32-11.33,5-3.29.52-6.66-.16-10,.12a18.73,18.73,0,0,0-13.75,8.34c-3.43,5.18-4.79,12.43-1.7,18A64,64,0,0,1,509.7,419c.38,1,3.07,5.14,3.67,1.69.47-2.67.06-5.44.55-8.11C515.1,406.08,521.16,402.49,527.35,401.84Z" transform="translate(-81.5 -25.72)"/><polygon class="cls-4" points="412.81 365.23 405.97 362.26 409.58 350.42 417.26 349.11 421.69 354.13 417.05 357.79 418.34 358.34 420.18 357.6 420.9 359.46 412.81 365.23"/><path class="cls-15" d="M501.23,484a64.19,64.19,0,0,0,5.64-40.34,42.37,42.37,0,0,1-21.18-8.78,3.38,3.38,0,0,1-1-1,3.63,3.63,0,0,1,.13-2.81c4.39-13.56,9.4-27.06,13-40.82l-10.25-5q-4.79,8.6-9.56,17.21l-11.32,20.39-4.17,7.51c-.5.9-1.05,1.78-1.56,2.68-2.6,4.64.68,12.45,2.3,16.95a179.24,179.24,0,0,0,8.53,19l10.35,20.81c1.42,2.87,3.3,6.08,6.47,6.57,5.72.9,9.67-6.83,11.86-10.92C500.74,484.9,501,484.43,501.23,484Z" transform="translate(-81.5 -25.72)"/><polygon class="cls-4" points="486.33 370.77 493.51 368.74 491.53 356.52 484.09 354.2 479.03 358.58 483.13 362.83 481.78 363.21 480.05 362.22 479.09 363.97 486.33 370.77"/><path class="cls-15" d="M548.47,487.72c-4.47-13.07-10.18-30.41-5.8-43.53,7.74.13,21.14.88,27.81-3.06a3.51,3.51,0,0,0,1.08-.87,3.64,3.64,0,0,0,.25-2.8c-2.53-14-5.68-28.07-7.38-42.18l10.83-3.59q3.57,9.18,7.16,18.34,4.23,10.86,8.48,21.72l3.12,8c.38,1,.8,1.91,1.18,2.86,2,4.94-2.35,12.25-4.56,16.5a178.64,178.64,0,0,1-11,17.65l-13,19.25c-1.79,2.64-4.09,5.58-7.29,5.64-5.8.12-8.67-8.06-10.29-12.41C548.82,488.74,548.64,488.23,548.47,487.72Z" transform="translate(-81.5 -25.72)"/><path class="cls-5" d="M509.89,442.34v11.3a6.57,6.57,0,0,0,6.5,6.64h29a6.57,6.57,0,0,0,6.5-6.64v-11.3Z" transform="translate(-81.5 -25.72)"/><path class="cls-9" d="M601.31,290.67c0-39.74-31.52-72-70.4-72s-70.41,32.21-70.41,72a72.78,72.78,0,0,0,10.86,38.41h0c19.59,33.55,24.12,61.65,24.12,61.65h70.86s4.52-28.1,24.12-61.65h0A72.78,72.78,0,0,0,601.31,290.67Z" transform="translate(-81.5 -25.72)"/><path class="cls-23" d="M494.66,390.73v48a3.55,3.55,0,0,0,3.47,3.63h65.55a3.55,3.55,0,0,0,3.47-3.63v-48Z" transform="translate(-81.5 -25.72)"/><path class="cls-24" d="M600.06,277.2c-17.88,35.73-52.61,90.93-104.62,113.33,0,.12,0,.2,0,.2h70.86s4.52-28.1,24.12-61.65h0a72.78,72.78,0,0,0,10.86-38.41A73.84,73.84,0,0,0,600.06,277.2Z" transform="translate(-81.5 -25.72)"/><path class="cls-25" d="M472,296.59c0-34.69,27.52-62.82,61.47-62.82A60.92,60.92,0,0,1,582.2,258.3a61.22,61.22,0,0,0-53.3-31.51c-33.95,0-61.47,28.12-61.47,62.82a63.42,63.42,0,0,0,12.74,38.29A63.66,63.66,0,0,1,472,296.59Z" transform="translate(-81.5 -25.72)"/><polygon class="cls-26" points="435.72 365 427.19 272.9 439.07 283 449.44 266.21 459.95 282.46 471.64 272.81 463.1 365 466.74 365 476.05 264.41 460.78 277.02 449.37 259.39 438.21 277.46 422.76 264.32 432.08 365 435.72 365"/><path class="cls-27" d="M512.73,381.54l.85,9.19h3.63l-1.05-11.35C515,380.12,513.88,380.84,512.73,381.54Z" transform="translate(-81.5 -25.72)"/><path class="cls-27" d="M548.11,352.77l-3.51,38h3.63l3.91-42.24Q550.16,350.65,548.11,352.77Z" transform="translate(-81.5 -25.72)"/><rect class="cls-5" x="413.16" y="376.92" width="72.49" height="8.86"/><rect class="cls-5" x="413.16" y="395.84" width="72.49" height="8.86"/><path class="cls-28" d="M566,390.73q-5,6.5-10.08,11.91-4.48,4.82-9,8.86a133,133,0,0,1-12.55,10.07,122.4,122.4,0,0,1-14.58,8.86,105.25,105.25,0,0,1-25,9.19,3.5,3.5,0,0,0,3.35,2.72h65.55a3.55,3.55,0,0,0,3.47-3.63v-48Z" transform="translate(-81.5 -25.72)"/><polygon class="cls-5" points="840.32 727.33 840.32 732.89 854.61 740.01 861.76 732.89 854.61 725.76 853.69 725.76 853.46 727.33 840.32 727.33"/><polygon class="cls-5" points="805.11 725.76 804.12 725.76 796.97 732.89 804.12 740.01 818.42 732.89 818.42 727.33 805.27 727.33 805.11 725.76"/><path class="cls-11" d="M902.2,422c-7.61-.26-17.41,4-22.21,10-3.55,4.41-5.66,9.8-7.72,15.1-5.79,14.91-8.42,28.73-11.31,44.41-1.84,10-3.54,20-4.88,29.88a310.72,310.72,0,0,0-2.83,32.85c0,1.21-.28,4.58-.41,8.6-.28,8.43-.1,19.71,3.4,20.13a3.46,3.46,0,0,0,1.87-.5c4.5-2.22,8-5.11,12-7.65a41.58,41.58,0,0,1,4.41-2.48,55.57,55.57,0,0,1,9.9-3.58c-5.77.31-6.49-.78-6.49-.78s5.2-21.17,8.86-39.59c1.88-9.49,3.35-18.25,3.48-23,.41-14.29,2.21-61.49,2.21-61.49l8.75-18.05h1.62l-.35,0C902.9,425.88,902.34,422.34,902.2,422Z" transform="translate(-81.5 -25.72)"/><path class="cls-11" d="M967.28,573.6c-.89-9.36-1.82-18.72-3-28.05-2.27-18.61-5.35-37.18-10.57-55.2-2-6.88-4.29-13.67-6.59-20.45q-4.2-12.4-8.39-24.79c-3.48-10.27-9.35-17.5-19.63-21.1a38.28,38.28,0,0,0-5.76-1.49,6.25,6.25,0,0,0-.12.65,5.38,5.38,0,0,1-1,2.79L919,426s19,67.44,19.74,79.06c.26,4.42,1.15,14.06,2.13,24.23,1.56,16.08,3.37,33.45,3.37,33.45s-8.36.2-20.45,1.11l2.68,0c8.41-.08,17.13,3.55,25.18,5.89l1.73.49c3.28.88,6,3.3,8.67,5.2C966.07,578.22,967.83,579.33,967.28,573.6Z" transform="translate(-81.5 -25.72)"/><path class="cls-6" d="M951.64,569.72c-8-2.34-16.77-6-25.18-5.89l-2.68,0-2.29.18c-5.63.45-12,1.06-18.57,1.86l-1,.11a114.23,114.23,0,0,1-17.51,2.74,55.47,55.47,0,0,0-9.89,3.58,41.58,41.58,0,0,0-4.41,2.48l0,9.16L886.2,753.26h13.22v1.59h.08L914,636.79l.06-.59,8,118.65h.07v-1.59H935.4L952.25,622.7Z" transform="translate(-81.5 -25.72)"/><path class="cls-15" d="M940.86,529.32c-1-10.16-1.87-19.81-2.13-24.23-.86-14.16-6.16-28.84-9.76-42.47q-3.21-12.18-6.56-24.32c-.76-2.73-1-7.59-2.47-9.82-2.36-3.63-7.61-2.05-11.14-1.93-4.73.16-10-2.66-14.09,1.13-2.71,2.5-2.14,7.13-2.28,10.45q-.46,11.19-.78,22.4c-.45,15-.8,29.92-1.36,44.87-.13,4.75-1.6,13.51-3.48,23s-3.93,18.68-6.09,28c-.71,3-1.43,6.07-2.16,9.1-.34,1.42-4.92,6.25-3.71,7.24.67.54,4.81-.8,5.69-1,2.07-.42,4.13-.89,6.19-1.36,8.08-1.86,16.16-4,24.45-4.56a127.74,127.74,0,0,1,14.38,0,73.6,73.6,0,0,1,11.58,1.11c4.52.91,9.09,2.65,13.6,1.7-.06-2.08-1.78-3.65-3.15-5.21-4-4.52-4.24-9.13-4.81-14.72Q941.81,539,940.86,529.32Z" transform="translate(-81.5 -25.72)"/><path class="cls-5" d="M924.48,382.87a24.49,24.49,0,0,1,2.36,11.07c0,1,0,2.19.78,2.82s0,2.05.7,1.23,3.08-3.67,3.24-4.75a40.22,40.22,0,0,0,.37-7.6,11,11,0,0,0-1.75-6.28,12.13,12.13,0,0,0-2.95-2.53,15.8,15.8,0,0,0-5-2.59c-3.14-.76-5.15.29-2.46,2.68A19.69,19.69,0,0,1,924.48,382.87Z" transform="translate(-81.5 -25.72)"/><path class="cls-4" d="M902.22,425a6.78,6.78,0,0,0,.94,3.45,7.28,7.28,0,0,0,2.77,2.32,10.14,10.14,0,0,0,4.28,1.42,4.85,4.85,0,0,0,4.06-1.64c2.75-3.48,2.75-11,3.08-15.18,3.84-.46,8.37-1.48,9.88-5.45a13.25,13.25,0,0,0,.63-4q.5-8.4,1-16.78a16.32,16.32,0,0,0-.35-5.76c-1-3.21-3.8-5.24-6.6-6.57-7.14-3.4-15.65-3.72-22.59.22a12.42,12.42,0,0,0-4.75,4.36c-1.75,3-1.74,6.8-1.68,10.36l.19,9.85c.07,3.78.41,8.15,3.19,10.28,1.48,1.14,3.45,1.44,4.7,2.87C903.33,417.53,902.06,421.54,902.22,425Z" transform="translate(-81.5 -25.72)"/><path class="cls-5" d="M929.32,403.8c0-1-.31-4.11-1.94-2.28a3.16,3.16,0,0,0-.62,1.85,7.11,7.11,0,0,1-.31,2,3.42,3.42,0,0,1-3.54,1.89,3.34,3.34,0,0,1-1.6-.47,5,5,0,0,1-1.16-1.21l-2.54-3.27c-1.45-1.88-4.55-1.26-6.64-1.09a13.23,13.23,0,0,0-6.88,2.29c-.21.15-.41.31-.61.47a7,7,0,0,1-1.55,1c-1.9.82-4.14-.25-5.35-2-.55-.81-1.06-1.85-2-2a1.88,1.88,0,0,0-1.85,1,5.42,5.42,0,0,0-.64,2.26,17,17,0,0,0,1,8.51c2.39,5.7,7.54,6.65,12.75,6.8l6.18.18c3.77.1,7.75.15,11-1.9,2.89-1.81,4.72-5.05,5.58-8.5A22.27,22.27,0,0,0,929.32,403.8ZM915.15,411a7.11,7.11,0,0,1-6.41.42c-.92-.33-.44-1.91.48-1.57a5.74,5.74,0,0,0,5.24-.31C915.32,409,916,410.44,915.15,411Z" transform="translate(-81.5 -25.72)"/><path class="cls-5" d="M931.64,373.52a29.79,29.79,0,0,0,1-4.09,7.86,7.86,0,0,1-4,.14c0-.8.07-1.61.11-2.41s-8.88-1.61-9.6-1.71c-6.76-.92-12.95-1.78-19.28,1.6a18.73,18.73,0,0,0-10.12,13.51,29,29,0,0,0,3.53,18.62c.06-1.56-.64-5.29-.2-6.76a13.49,13.49,0,0,1,1.64-4.16,17.42,17.42,0,0,1,6.39-6.14,33.17,33.17,0,0,1,13.46-3.83c4.26-.37,9.45-.66,13.58.7,2,.65,2.29,1.18,3.61-.81a35.35,35.35,0,0,0,2-4.52Z" transform="translate(-81.5 -25.72)"/><path class="cls-4" d="M958.15,391.8l.93-.46a14.48,14.48,0,0,0-.56-6c-1.12-4.61-2.7-9.08-6.65-12-1.92-1.41-7-2.19-7.77,1.27-.3,1.38,1.55,2,2.5,3,.3.33,2.44,3.66,2.39,3.67a3.89,3.89,0,0,1-2.64-1c-.57.72-1.14,1.43-1.72,2.14-.12.16-.25.35-.18.54a.58.58,0,0,0,.32.27c5,2.41,5.9,6.64,8.48,11Z" transform="translate(-81.5 -25.72)"/><path class="cls-11" d="M942.61,469.72,927,432.65l23.76,1.14a5.88,5.88,0,0,0,5.17-6.82l-6.2-36.29,10.5-2.47,13.47,27.87A39,39,0,0,1,972.09,453Z" transform="translate(-81.5 -25.72)"/><path class="cls-4" d="M862.84,392.57,862,392a14.41,14.41,0,0,1,1-6c1.45-4.51,3.36-8.86,7.52-11.47,2-1.27,7.17-1.67,7.65,1.84.19,1.39-1.7,1.89-2.71,2.83-.33.31-2.72,3.48-2.67,3.49a3.89,3.89,0,0,0,2.71-.8L877,384.2c.11.16.23.36.15.54a.6.6,0,0,1-.35.25c-5.17,2-6.37,6.19-9.27,10.4Z" transform="translate(-81.5 -25.72)"/><path class="cls-11" d="M865.46,480.91l25.11-55.22L876.8,434.4l-9.18,5.81c-3.17,2-5.67,3.17-8-1.13a12,12,0,0,1-1.27-3.9c-.65-5,13.55-42.94,13-43.11l-10.3-3.23-15.49,26.8c-4.18,7.25-5.9,16-6.18,24.32a49.32,49.32,0,0,0,1.15,13c.87,3.64,1.54,7.54,4.74,9.86a78,78,0,0,1,8.45,6.95C854.67,470.63,865.83,480.11,865.46,480.91Z" transform="translate(-81.5 -25.72)"/><path class="cls-5" d="M890.89,442.34v11.3a6.57,6.57,0,0,0,6.5,6.64h29a6.57,6.57,0,0,0,6.5-6.64v-11.3Z" transform="translate(-81.5 -25.72)"/><path class="cls-9" d="M982.31,290.67c0-39.74-31.52-72-70.4-72s-70.41,32.21-70.41,72a72.78,72.78,0,0,0,10.86,38.41h0c19.59,33.55,24.12,61.65,24.12,61.65h70.86s4.52-28.1,24.12-61.65h0A72.78,72.78,0,0,0,982.31,290.67Z" transform="translate(-81.5 -25.72)"/><path class="cls-23" d="M875.66,390.73v48a3.55,3.55,0,0,0,3.47,3.63h65.55a3.55,3.55,0,0,0,3.47-3.63v-48Z" transform="translate(-81.5 -25.72)"/><path class="cls-24" d="M981.06,277.2c-17.88,35.73-52.61,90.93-104.62,113.33,0,.12,0,.2,0,.2h70.86s4.52-28.1,24.12-61.65h0a72.78,72.78,0,0,0,10.86-38.41A73.84,73.84,0,0,0,981.06,277.2Z" transform="translate(-81.5 -25.72)"/><path class="cls-25" d="M853,296.59c0-34.69,27.52-62.82,61.47-62.82A60.92,60.92,0,0,1,963.2,258.3a61.22,61.22,0,0,0-53.3-31.51c-33.95,0-61.47,28.12-61.47,62.82a63.42,63.42,0,0,0,12.74,38.29A63.66,63.66,0,0,1,853,296.59Z" transform="translate(-81.5 -25.72)"/><polygon class="cls-26" points="816.72 365 808.19 272.9 820.07 283 830.44 266.21 840.95 282.46 852.64 272.81 844.1 365 847.74 365 857.05 264.41 841.78 277.02 830.37 259.39 819.21 277.46 803.76 264.32 813.08 365 816.72 365"/><path class="cls-27" d="M893.73,381.54l.85,9.19h3.63l-1.05-11.35C896,380.12,894.88,380.84,893.73,381.54Z" transform="translate(-81.5 -25.72)"/><path class="cls-27" d="M929.11,352.77l-3.51,38h3.63l3.91-42.24Q931.16,350.65,929.11,352.77Z" transform="translate(-81.5 -25.72)"/><rect class="cls-5" x="794.16" y="376.92" width="72.49" height="8.86"/><rect class="cls-5" x="794.16" y="395.84" width="72.49" height="8.86"/><path class="cls-28" d="M947,390.73q-5,6.5-10.08,11.91-4.48,4.82-9,8.86a133,133,0,0,1-12.55,10.07,122.4,122.4,0,0,1-14.58,8.86,105.25,105.25,0,0,1-25,9.19,3.5,3.5,0,0,0,3.35,2.72h65.55a3.55,3.55,0,0,0,3.47-3.63v-48Z" transform="translate(-81.5 -25.72)"/><path class="cls-5" d="M163.15,750.14l-1.94,2.38-.85,2.56,5.84,8.8,5.52,2.11,6.18-.53s2.65-1,1.06-3.08-5.83-3.17-5.83-3.17l.62-7.11Z" transform="translate(-81.5 -25.72)"/><polygon class="cls-5" points="58.6 724.68 57.81 729.09 53.48 736.57 55.42 738.95 62.66 738.33 67.08 732.08 67.08 719.75 58.78 720.55 58.6 724.68"/><polygon class="cls-6" points="48.89 552.03 44.57 575.63 56.75 726.38 69.51 723.71 90.67 557.08 48.89 552.03"/><polygon class="cls-6" points="115.59 548.93 118.06 646.11 93.3 729.99 78.86 724.64 91.02 649.83 79.86 548.11 115.59 548.93"/><path class="cls-15" d="M125.55,462.49c-2.28,5.44-2.67,11.47-3.4,18a335.85,335.85,0,0,0-1.92,34.3c-.09,13.31.51,26.62,1.55,39.89q.8,10,1.89,19.88c.37,3.43-1,12.22,2.46,14,1.9,1,4.2.81,6.35.58l56.79-6.1c3-.33,6.18-.69,8.8-2.26,4.69-2.8,3.84-8.37,4.56-13.05a108.08,108.08,0,0,0,1-18.77c-.32-12.89-2.22-25.67-3.15-38.52-1-13.81-3.16-32.34-8.06-45.5-4-10.77-14.72-24.68-30.88-24.24-11.15.31-22.28,5.74-30.24,13.39A24.41,24.41,0,0,0,125.55,462.49Z" transform="translate(-81.5 -25.72)"/><path class="cls-5" d="M130.68,430a51.42,51.42,0,0,0,11.13,7.76,86.89,86.89,0,0,1-8.93-22,2.27,2.27,0,0,0-.87-1.53,2.15,2.15,0,0,0-1.65,0C120.65,417.1,124.86,424.63,130.68,430Z" transform="translate(-81.5 -25.72)"/><path class="cls-4" d="M159.43,438.58a15,15,0,0,0,1.44-2.16c5.51-10.1,3.67-47-22.61-41.06-23.87,5.43-7.15,33.08,3.39,42.64a17.74,17.74,0,0,0,7.39,4.33c.78.19.86,7.62,1.59,8.71a5.57,5.57,0,0,0,6.93,1.57,9.24,9.24,0,0,0,4.11-5.9C161.92,445.2,158.9,439.24,159.43,438.58Z" transform="translate(-81.5 -25.72)"/><path class="cls-5" d="M159.27,427.9c2.47,1.19,5.23-1,6.78-3.27a26.54,26.54,0,0,0-1.64-31.32c-6.1-7.17-19.65-7.6-16.17,3.53,1.23,3.94,6.11,7.66,7.79,11.86C158.44,414.71,158.79,421.53,159.27,427.9Z" transform="translate(-81.5 -25.72)"/><path class="cls-5" d="M112,397c-6.85,11.46-4.17,26.37-9.37,38.66a39.73,39.73,0,0,0,27.06-14.87c6.38-8.17,24.94-21.67,15.62-31.67C135.86,378.9,118,386.9,112,397Z" transform="translate(-81.5 -25.72)"/><path class="cls-5" d="M130.89,442.34v11.3a6.57,6.57,0,0,0,6.5,6.64h29a6.57,6.57,0,0,0,6.5-6.64v-11.3Z" transform="translate(-81.5 -25.72)"/><path class="cls-9" d="M222.31,290.67c0-39.74-31.52-72-70.4-72s-70.41,32.21-70.41,72a72.78,72.78,0,0,0,10.86,38.41h0c19.59,33.55,24.12,61.65,24.12,61.65h70.86s4.52-28.1,24.12-61.65h0A72.78,72.78,0,0,0,222.31,290.67Z" transform="translate(-81.5 -25.72)"/><path class="cls-23" d="M115.66,390.73v48a3.55,3.55,0,0,0,3.47,3.63h65.55a3.55,3.55,0,0,0,3.47-3.63v-48Z" transform="translate(-81.5 -25.72)"/><path class="cls-24" d="M221.06,277.2c-17.88,35.73-52.61,90.93-104.62,113.33,0,.12,0,.2,0,.2h70.86s4.52-28.1,24.12-61.65h0a72.78,72.78,0,0,0,10.86-38.41A73.84,73.84,0,0,0,221.06,277.2Z" transform="translate(-81.5 -25.72)"/><path class="cls-25" d="M93,296.59c0-34.69,27.52-62.82,61.47-62.82A60.92,60.92,0,0,1,203.2,258.3a61.22,61.22,0,0,0-53.3-31.51c-33.95,0-61.47,28.12-61.47,62.82a63.42,63.42,0,0,0,12.74,38.29A63.66,63.66,0,0,1,93,296.59Z" transform="translate(-81.5 -25.72)"/><polygon class="cls-26" points="56.72 365 48.19 272.9 60.07 283 70.44 266.21 80.95 282.46 92.64 272.81 84.1 365 87.74 365 97.05 264.41 81.78 277.02 70.37 259.39 59.21 277.46 43.76 264.32 53.08 365 56.72 365"/><path class="cls-27" d="M133.73,381.54l.85,9.19h3.63l-1.05-11.35C136,380.12,134.88,380.84,133.73,381.54Z" transform="translate(-81.5 -25.72)"/><path class="cls-27" d="M169.11,352.77l-3.51,38h3.63l3.91-42.24Q171.16,350.65,169.11,352.77Z" transform="translate(-81.5 -25.72)"/><rect class="cls-5" x="34.16" y="376.92" width="72.49" height="8.86"/><rect class="cls-5" x="34.16" y="395.84" width="72.49" height="8.86"/><path class="cls-28" d="M187,390.73q-5,6.5-10.08,11.91-4.49,4.82-9,8.86a133,133,0,0,1-12.55,10.07,122.4,122.4,0,0,1-14.58,8.86,105.25,105.25,0,0,1-25,9.19,3.5,3.5,0,0,0,3.35,2.72h65.55a3.55,3.55,0,0,0,3.47-3.63v-48Z" transform="translate(-81.5 -25.72)"/><path class="cls-4" d="M109.22,409.07a50.6,50.6,0,0,1,1.3-6,4.61,4.61,0,0,1,.51-1.4,4.78,4.78,0,0,1,1.32-1.21L114.5,399a6.06,6.06,0,0,1,1.42-.81c1.34-.44,2.77.17,4,.78a1.72,1.72,0,0,1,.7.48,1.2,1.2,0,0,1-.08,1.35c-.86,1.25-1.37,1.48-1.79,3.15a16.69,16.69,0,0,0-.66,4.33,3.68,3.68,0,0,0,1.67-1,1.74,1.74,0,0,1,1.58-.5c.71.29.69,1.32.37,2-.64,1.4-1.9,2.4-2.89,3.58-1.45,1.77-2.65,5.64-5.15,5.47a24.94,24.94,0,0,1-4.7-1.31l0-5.12A19.65,19.65,0,0,1,109.22,409.07Z" transform="translate(-81.5 -25.72)"/><path class="cls-15" d="M131.86,508.81c2.17,0,4.78-22.4,5-24.78.52-6.31,1.22-13,.2-19.32-.32-2-2.47-11.06-4.73-11-1,0-1.69,1-2.26,1.83a38.21,38.21,0,0,1-11.66,11.16c-1.12.69-2.61,1.3-3.65.5a3.45,3.45,0,0,1-.91-2.78c-.09-5,4.18-48.94,4.21-48.94-2.38-.53-8.59-3.23-10.74-2.44-4.11,1.52-7.27,14.06-9,18.49a284.8,284.8,0,0,0-13.89,47.6c-1.52,7.57,5.76,11.91,11.55,15.27q7.82,4.55,16,8.44C118.25,505.88,124.88,508.64,131.86,508.81Z" transform="translate(-81.5 -25.72)"/><path class="cls-4" d="M202.47,396.47a51.2,51.2,0,0,0-1.84-5.85,4.36,4.36,0,0,0-.64-1.34,4.49,4.49,0,0,0-1.42-1.09l-2.28-1.32a5.43,5.43,0,0,0-1.49-.68c-1.37-.32-2.74.42-4,1.14a1.8,1.8,0,0,0-.65.54,1.21,1.21,0,0,0,.19,1.34c1,1.17,1.51,1.35,2.08,3a17.47,17.47,0,0,1,1,4.26,3.59,3.59,0,0,1-1.76-.82c-.49-.3-1.1-.61-1.61-.35-.69.35-.57,1.38-.19,2,.76,1.34,2.12,2.22,3.2,3.31,1.61,1.63,3.16,5.37,5.63,5a26.07,26.07,0,0,0,4.56-1.74c-.16-1.7-.33-3.4-.5-5.1A17.23,17.23,0,0,0,202.47,396.47Z" transform="translate(-81.5 -25.72)"/><path class="cls-15" d="M188.18,492.67a5.16,5.16,0,0,1-4.26-.82,7.38,7.38,0,0,1-1.77-2.39,63.14,63.14,0,0,1-7.27-25.64c-.27-4.15-.77-9.79.61-13.77,1.71-4.93,4.72-1.5,9-.59a157.21,157.21,0,0,0,16.45,2.6,2.22,2.22,0,0,0,1.55-.23,2.12,2.12,0,0,0,.65-1.41c3-16.83-5.46-30.74-8.84-46.78,2.88-1,7.31-4.2,10.45-3.34,4.23,1.15,8.51,13.34,10.63,17.59a289.31,289.31,0,0,1,13,30.39c1.76,4.89,2.93,10.19,5,14.91,1.37,3.09,3.36,5.95.24,9.06a12.47,12.47,0,0,1-3.86,2.31l-37.72,16.81A17.53,17.53,0,0,1,188.18,492.67Z" transform="translate(-81.5 -25.72)"/></g></g></svg>