<svg width="469" height="362" viewBox="0 0 469 362" fill="none" xmlns="http://www.w3.org/2000/svg">
<mask id="mask0" mask-type="alpha" maskUnits="userSpaceOnUse" x="381" y="165" width="80" height="80">
<path d="M420.807 229.878C406.829 229.878 395.497 218.547 395.497 204.57C395.497 190.592 406.829 179.261 420.807 179.261C434.783 179.261 446.114 190.592 446.114 204.57C446.114 218.547 434.783 229.878 420.807 229.878ZM453.743 196.038C452.943 192.936 451.714 190.01 450.127 187.319L453.808 181.782L443.595 171.567L438.058 175.248C435.366 173.664 432.44 172.434 429.339 171.632L428.029 165.12H413.583L412.273 171.632C409.174 172.434 406.246 173.664 403.555 175.248L398.019 171.567L387.804 181.782L391.486 187.319C389.898 190.01 388.671 192.936 387.869 196.038L381.357 197.349V211.792L387.869 213.105C388.671 216.203 389.898 219.13 391.486 221.822L387.804 227.357L398.019 237.572L403.555 233.891C406.246 235.478 409.174 236.706 412.273 237.507L413.583 244.019H428.029L429.339 237.507C432.44 236.706 435.366 235.478 438.058 233.891L443.595 237.572L453.808 227.357L450.127 221.822C451.714 219.13 452.943 216.203 453.743 213.105L460.255 211.792V197.349L453.743 196.038Z" fill="white"/>
</mask>
<g mask="url(#mask0)">
<path fill-rule="evenodd" clip-rule="evenodd" d="M420.807 229.878C406.829 229.878 395.497 218.547 395.497 204.57C395.497 190.592 406.829 179.261 420.807 179.261C434.783 179.261 446.114 190.592 446.114 204.57C446.114 218.547 434.783 229.878 420.807 229.878ZM453.743 196.038C452.943 192.936 451.714 190.01 450.127 187.319L453.808 181.782L443.595 171.567L438.058 175.248C435.366 173.664 432.44 172.434 429.339 171.632L428.029 165.12H413.583L412.273 171.632C409.174 172.434 406.246 173.664 403.555 175.248L398.019 171.567L387.804 181.782L391.486 187.319C389.898 190.01 388.671 192.936 387.869 196.038L381.357 197.349V211.792L387.869 213.105C388.671 216.203 389.898 219.13 391.486 221.822L387.804 227.357L398.019 237.572L403.555 233.891C406.246 235.478 409.174 236.706 412.273 237.507L413.583 244.019H428.029L429.339 237.507C432.44 236.706 435.366 235.478 438.058 233.891L443.595 237.572L453.808 227.357L450.127 221.822C451.714 219.13 452.943 216.203 453.743 213.105L460.255 211.792V197.349L453.743 196.038Z" fill="url(#paint0_linear)"/>
</g>
<mask id="mask1" mask-type="alpha" maskUnits="userSpaceOnUse" x="430" y="236" width="39" height="39">
<path d="M449.578 267.572C442.936 267.572 437.55 262.188 437.55 255.545C437.55 248.902 442.936 243.518 449.578 243.518C456.22 243.518 461.605 248.902 461.605 255.545C461.605 262.188 456.22 267.572 449.578 267.572ZM465.232 251.49C464.849 250.015 464.266 248.625 463.512 247.347L465.26 244.714L462.835 242.289L460.408 239.861L457.777 241.61C456.498 240.856 455.106 240.272 453.633 239.891L453.011 236.797H446.144L445.523 239.891C444.049 240.272 442.658 240.856 441.379 241.61L438.748 239.861L436.321 242.289L433.894 244.714L435.644 247.347C434.889 248.625 434.305 250.015 433.925 251.49L430.829 252.112V258.977L433.925 259.599C434.305 261.074 434.889 262.465 435.644 263.744L433.894 266.375L436.321 268.802L438.748 271.23L441.379 269.48C442.658 270.233 444.049 270.816 445.523 271.198L446.144 274.293H453.011L453.633 271.198C455.106 270.816 456.498 270.233 457.777 269.48L460.408 271.23L465.26 266.375L463.512 263.744C464.266 262.465 464.849 261.074 465.232 259.599L468.327 258.977V252.112L465.232 251.49Z" fill="white"/>
</mask>
<g mask="url(#mask1)">
<path fill-rule="evenodd" clip-rule="evenodd" d="M449.578 267.572C442.936 267.572 437.55 262.188 437.55 255.545C437.55 248.902 442.936 243.518 449.578 243.518C456.22 243.518 461.605 248.902 461.605 255.545C461.605 262.188 456.22 267.572 449.578 267.572ZM465.232 251.49C464.849 250.015 464.266 248.625 463.512 247.347L465.26 244.714L462.835 242.289L460.408 239.861L457.777 241.61C456.498 240.856 455.106 240.272 453.633 239.891L453.011 236.797H446.144L445.523 239.891C444.049 240.272 442.658 240.856 441.379 241.61L438.748 239.861L436.321 242.289L433.894 244.714L435.644 247.347C434.889 248.625 434.305 250.015 433.925 251.49L430.829 252.112V258.977L433.925 259.599C434.305 261.074 434.889 262.465 435.644 263.744L433.894 266.375L436.321 268.802L438.748 271.23L441.379 269.48C442.658 270.233 444.049 270.816 445.523 271.198L446.144 274.293H453.011L453.633 271.198C455.106 270.816 456.498 270.233 457.777 269.48L460.408 271.23L465.26 266.375L463.512 263.744C464.266 262.465 464.849 261.074 465.232 259.599L468.327 258.977V252.112L465.232 251.49Z" fill="url(#paint1_linear)"/>
</g>
<path fill-rule="evenodd" clip-rule="evenodd" d="M278.905 0.00122167C232.848 0.228417 195.669 32.0879 195.859 71.1612C195.914 81.4472 198.549 91.208 203.246 100.002C203.272 100.054 228.958 149.659 232.796 196.821C232.905 218.88 254.071 236.658 280.074 236.531C306.076 236.402 327.066 218.416 326.958 196.355C330.33 149.136 355.55 99.2495 355.55 99.2495C360.16 90.4092 362.698 80.6238 362.649 70.3378C362.455 31.2645 324.962 -0.225974 278.905 0.00122167Z" fill="#FFD28C"/>
<path fill-rule="evenodd" clip-rule="evenodd" d="M256.724 198.93L243.23 92.3148L246.297 91.927L259.792 198.541L256.724 198.93Z" fill="white"/>
<path fill-rule="evenodd" clip-rule="evenodd" d="M303.083 198.696L315.498 91.949L312.426 91.5916L300.013 198.337L303.083 198.696Z" fill="white"/>
<path fill-rule="evenodd" clip-rule="evenodd" d="M290.502 96.866L279.156 108.327L267.888 97.1742L256.928 108.247L244.71 96.1525L246.205 94.6418L256.912 105.24L267.872 94.1671L279.14 105.321L290.486 93.8589L302.141 105.398L312.835 94.5955L314.346 96.0903L302.156 108.405L290.502 96.866Z" fill="white"/>
<path fill-rule="evenodd" clip-rule="evenodd" d="M253.432 261.864C247.507 261.893 242.68 257.115 242.649 251.19L242.547 230.18L317.387 229.812L317.49 250.82C317.52 256.746 312.74 261.572 306.816 261.601L253.432 261.864Z" fill="#D46946"/>
<path fill-rule="evenodd" clip-rule="evenodd" d="M246.719 248.829C237.819 248.872 230.569 241.693 230.524 232.795L230.352 197.82L329.26 197.331L329.433 232.306C329.477 241.205 322.298 248.455 313.398 248.5L246.719 248.829Z" fill="#CACAEA"/>
<path fill-rule="evenodd" clip-rule="evenodd" d="M281.747 10.587C281.747 10.587 321.65 9.11817 338.788 38.0067C355.925 66.8924 340.744 103.872 340.744 103.872C340.744 103.872 339.277 22.0929 281.747 10.587Z" fill="#FFE2B4"/>
<path fill-rule="evenodd" clip-rule="evenodd" d="M399.077 143.531L385.184 142.615L358.657 166.136L399.077 143.531Z" fill="#D6D6D6"/>
<path fill-rule="evenodd" clip-rule="evenodd" d="M371.094 146.13L381.532 145.852L358.657 166.136L371.094 146.13Z" fill="#E8E8E8"/>
<path fill-rule="evenodd" clip-rule="evenodd" d="M390.591 153.823L358.657 166.136L389.781 148.729L390.591 153.823Z" fill="#C2C2C2"/>
<path fill-rule="evenodd" clip-rule="evenodd" d="M182.062 140.907C180.749 153.025 173.916 151.957 173.46 151.938C173.002 151.923 166.588 152.086 166.248 137.269C166.248 137.269 166.151 126.315 175.635 127.484C175.635 127.484 183.374 128.789 182.062 140.907Z" fill="#EEA987"/>
<path fill-rule="evenodd" clip-rule="evenodd" d="M179.202 154.738C179.672 155.824 173.015 159.222 168.86 155.31C168.86 155.31 169.701 149.858 169.44 147.932C169.178 146.007 179.028 148.628 179.028 148.628C179.028 148.628 178.73 153.653 179.202 154.738Z" fill="#EEA987"/>
<path fill-rule="evenodd" clip-rule="evenodd" d="M183.379 137.505C183.681 138.427 182.294 142.401 182.113 142.698C182.113 142.698 181.953 143.052 181.751 142.854C181.551 142.656 182.221 137.482 182.221 137.482C182.221 137.482 183.078 136.585 183.379 137.505Z" fill="#EEA987"/>
<path fill-rule="evenodd" clip-rule="evenodd" d="M165.177 137.132C164.838 138.041 166.076 142.119 166.231 142.371C166.231 142.371 166.497 142.789 166.707 142.6C166.917 142.41 166.338 137.155 166.338 137.155C166.338 137.155 165.517 136.223 165.177 137.132Z" fill="#EEA987"/>
<path fill-rule="evenodd" clip-rule="evenodd" d="M174.077 151.971C176.947 151.905 178.193 150.409 178.193 150.409C178.193 150.409 176.834 153.251 174.062 153.221C171.292 153.191 169.971 150.319 169.971 150.319C169.971 150.319 171.206 152.036 174.077 151.971Z" fill="#C78D71"/>
<path fill-rule="evenodd" clip-rule="evenodd" d="M148.25 309.472C147.359 310.416 143.942 312.102 143.924 314.901C143.904 317.937 149.682 317.095 151.942 316.984C154.203 316.874 154.374 315.251 155.326 313.532C156.277 311.813 157.236 312.104 157.414 310.717C157.592 309.331 156.685 306.226 156.685 306.226L150.201 306.151C150.201 306.151 149.142 308.53 148.25 309.472Z" fill="#1D2033"/>
<path fill-rule="evenodd" clip-rule="evenodd" d="M149.938 306.714C149.938 306.714 153.491 307.905 156.851 306.838L156.664 304.87L150.101 305.274L149.938 306.714Z" fill="#50558A"/>
<path fill-rule="evenodd" clip-rule="evenodd" d="M291.854 311.646L295.947 208.9H225.161L221.067 311.679L220.254 311.646L224.378 208.087H296.794L292.668 311.679L291.854 311.646Z" fill="#1A598C"/>
<path fill-rule="evenodd" clip-rule="evenodd" d="M295.204 208.9H224.417L228.51 311.646L227.696 311.679L223.571 208.087H295.987L300.111 311.646L299.298 311.679L295.204 208.9Z" fill="#1A598C"/>
<path fill-rule="evenodd" clip-rule="evenodd" d="M299.704 278.251L295.595 175.081H223.995L228.104 278.251H299.704Z" fill="#BFB9B7"/>
<path fill-rule="evenodd" clip-rule="evenodd" d="M218.642 278.251L222.75 175.081H294.351L290.242 278.251H218.642Z" fill="#F2EBE9"/>
<path fill-rule="evenodd" clip-rule="evenodd" d="M240.807 246.892L247.594 227.854L262.311 223.963L267.6 203.065L278.957 198.054L281.5 181.805L282.319 181.934L279.705 198.628L268.304 203.66L262.994 224.637L248.228 228.544L241.587 247.171L240.807 246.892Z" fill="#3D8ED1"/>
<path fill-rule="evenodd" clip-rule="evenodd" d="M264.049 226.011C263.106 226.782 261.715 226.642 260.942 225.697C260.171 224.753 260.31 223.361 261.255 222.588C262.2 221.817 263.591 221.957 264.362 222.902C265.135 223.846 264.996 225.237 264.049 226.011Z" fill="#F5EEEC"/>
<path fill-rule="evenodd" clip-rule="evenodd" d="M261.517 222.91C260.751 223.536 260.637 224.669 261.264 225.435C261.889 226.201 263.024 226.315 263.789 225.69C264.555 225.062 264.669 223.93 264.044 223.164C263.417 222.397 262.284 222.283 261.517 222.91ZM260.623 225.959C259.707 224.84 259.874 223.185 260.993 222.27C262.113 221.354 263.769 221.52 264.684 222.639C265.6 223.759 265.433 225.415 264.313 226.331C263.194 227.245 261.537 227.079 260.623 225.959Z" fill="#3D8ED1"/>
<path fill-rule="evenodd" clip-rule="evenodd" d="M269.409 205.2C268.464 205.972 267.074 205.833 266.301 204.888C265.529 203.944 265.67 202.553 266.613 201.779C267.558 201.008 268.949 201.148 269.721 202.092C270.495 203.037 270.354 204.427 269.409 205.2Z" fill="#F5EEEC"/>
<path fill-rule="evenodd" clip-rule="evenodd" d="M266.877 202.1C266.11 202.726 265.996 203.86 266.622 204.625C267.247 205.392 268.382 205.507 269.148 204.878C269.913 204.252 270.028 203.119 269.401 202.353C268.774 201.589 267.643 201.473 266.877 202.1ZM265.98 205.151C265.067 204.029 265.233 202.375 266.352 201.459C267.472 200.544 269.127 200.709 270.042 201.829C270.958 202.949 270.792 204.606 269.672 205.52C268.551 206.436 266.896 206.269 265.98 205.151Z" fill="#3D8ED1"/>
<path fill-rule="evenodd" clip-rule="evenodd" d="M280.591 200.044C279.648 200.815 278.255 200.678 277.484 199.731C276.711 198.788 276.852 197.397 277.795 196.624C278.74 195.853 280.132 195.992 280.904 196.937C281.675 197.88 281.535 199.273 280.591 200.044Z" fill="#F5EEEC"/>
<path fill-rule="evenodd" clip-rule="evenodd" d="M249.392 230.097C248.447 230.869 247.054 230.728 246.283 229.785C245.512 228.84 245.652 227.449 246.596 226.676C247.539 225.905 248.931 226.044 249.703 226.989C250.476 227.934 250.335 229.326 249.392 230.097Z" fill="#F5EEEC"/>
<path fill-rule="evenodd" clip-rule="evenodd" d="M246.859 226.997C246.091 227.623 245.978 228.755 246.604 229.521C247.23 230.288 248.364 230.402 249.13 229.776C249.895 229.149 250.008 228.016 249.383 227.25C248.756 226.485 247.625 226.372 246.859 226.997ZM245.962 230.046C245.049 228.926 245.214 227.27 246.334 226.356C247.454 225.44 249.108 225.606 250.024 226.726C250.94 227.846 250.774 229.502 249.654 230.417C248.533 231.331 246.878 231.165 245.962 230.046Z" fill="#3D8ED1"/>
<path fill-rule="evenodd" clip-rule="evenodd" d="M233.185 202.007C232.309 202.007 231.6 201.296 231.6 200.421V199.011C231.6 198.136 232.309 197.427 233.185 197.427H252.125C253 197.427 253.711 198.136 253.711 199.011V200.421C253.711 201.296 253 202.007 252.125 202.007H233.185Z" fill="#DED7D5"/>
<path fill-rule="evenodd" clip-rule="evenodd" d="M233.185 193.997C232.309 193.997 231.6 193.29 231.6 192.414V191.003C231.6 190.128 232.309 189.419 233.185 189.419H252.125C253 189.419 253.711 190.128 253.711 191.003V192.414C253.711 193.29 253 193.997 252.125 193.997H233.185Z" fill="#DED7D5"/>
<path fill-rule="evenodd" clip-rule="evenodd" d="M278.059 196.946C277.292 197.571 277.179 198.704 277.804 199.471C278.431 200.237 279.562 200.351 280.33 199.724C281.097 199.098 281.209 197.965 280.583 197.198C279.958 196.433 278.824 196.319 278.059 196.946ZM277.163 199.994C276.248 198.875 276.413 197.219 277.535 196.303C278.654 195.389 280.309 195.555 281.225 196.674C282.14 197.795 281.974 199.449 280.853 200.366C279.733 201.282 278.079 201.114 277.163 199.994Z" fill="#3D8ED1"/>
<path fill-rule="evenodd" clip-rule="evenodd" d="M235.084 265.2L243.808 253.048L255.073 253.293L263.113 239.515L272.218 238.275L277.354 227.239L277.91 227.498L272.632 238.838L263.492 240.081L255.421 253.914L244.118 253.669L235.582 265.557L235.084 265.2Z" fill="#3D8ED1"/>
<path fill-rule="evenodd" clip-rule="evenodd" d="M255.891 255.106C255.061 255.462 254.099 255.077 253.744 254.248C253.388 253.417 253.773 252.456 254.603 252.101C255.432 251.745 256.393 252.129 256.75 252.96C257.106 253.789 256.721 254.75 255.891 255.106Z" fill="#F5EEEC"/>
<path fill-rule="evenodd" clip-rule="evenodd" d="M254.724 252.383C254.05 252.671 253.737 253.454 254.026 254.126C254.314 254.799 255.097 255.113 255.77 254.825C256.443 254.535 256.756 253.753 256.468 253.082C256.178 252.407 255.397 252.095 254.724 252.383ZM253.462 254.368C253.041 253.386 253.498 252.242 254.482 251.82C255.466 251.397 256.61 251.856 257.031 252.84C257.453 253.823 256.995 254.966 256.012 255.387C255.028 255.81 253.885 255.352 253.462 254.368Z" fill="#3D8ED1"/>
<path fill-rule="evenodd" clip-rule="evenodd" d="M263.964 241.402C263.135 241.758 262.174 241.374 261.818 240.544C261.46 239.713 261.845 238.752 262.675 238.397C263.505 238.041 264.468 238.426 264.822 239.256C265.178 240.085 264.793 241.046 263.964 241.402Z" fill="#F5EEEC"/>
<path fill-rule="evenodd" clip-rule="evenodd" d="M262.796 238.679C262.123 238.968 261.81 239.751 262.098 240.424C262.386 241.095 263.169 241.41 263.842 241.122C264.517 240.832 264.829 240.051 264.54 239.378C264.252 238.703 263.469 238.391 262.796 238.679ZM261.535 240.666C261.113 239.682 261.572 238.538 262.554 238.116C263.538 237.694 264.682 238.152 265.104 239.136C265.525 240.12 265.068 241.263 264.084 241.684C263.1 242.107 261.956 241.648 261.535 240.666Z" fill="#3D8ED1"/>
<path fill-rule="evenodd" clip-rule="evenodd" d="M272.972 240.026C272.141 240.38 271.18 239.997 270.826 239.166C270.47 238.337 270.855 237.376 271.684 237.02C272.513 236.665 273.476 237.049 273.83 237.879C274.186 238.709 273.803 239.67 272.972 240.026Z" fill="#F5EEEC"/>
<path fill-rule="evenodd" clip-rule="evenodd" d="M244.627 255.012C243.797 255.368 242.836 254.983 242.48 254.152C242.125 253.323 242.51 252.362 243.339 252.006C244.169 251.65 245.13 252.035 245.486 252.864C245.84 253.694 245.457 254.655 244.627 255.012Z" fill="#F5EEEC"/>
<path fill-rule="evenodd" clip-rule="evenodd" d="M243.46 252.288C242.787 252.576 242.474 253.359 242.764 254.032C243.052 254.705 243.833 255.018 244.508 254.73C245.179 254.44 245.493 253.659 245.204 252.984C244.916 252.311 244.134 252 243.46 252.288ZM242.199 254.274C241.778 253.29 242.234 252.146 243.218 251.724C244.204 251.303 245.347 251.758 245.768 252.744C246.189 253.728 245.732 254.871 244.749 255.293C243.764 255.715 242.621 255.256 242.199 254.274Z" fill="#3D8ED1"/>
<path fill-rule="evenodd" clip-rule="evenodd" d="M271.806 237.302C271.131 237.59 270.819 238.373 271.107 239.046C271.396 239.719 272.179 240.032 272.852 239.744C273.525 239.456 273.838 238.673 273.55 238C273.262 237.327 272.479 237.013 271.806 237.302ZM270.545 239.288C270.123 238.304 270.58 237.161 271.564 236.739C272.548 236.318 273.692 236.774 274.114 237.758C274.535 238.741 274.077 239.884 273.092 240.307C272.11 240.728 270.966 240.272 270.545 239.288Z" fill="#3D8ED1"/>
<path fill-rule="evenodd" clip-rule="evenodd" d="M223.085 176.872C223.244 175.697 224.3 174.291 224.624 173.857C225.059 173.28 225.729 171.006 226.464 171.544C227.2 172.086 225.54 175.348 225.331 176.1C225.118 176.856 228.31 175.422 229.101 175.618C229.891 175.815 231.968 181.238 229.662 181.969C227.357 182.7 224.412 181.957 224.031 182.168C223.652 182.375 222.377 182.765 222.377 182.765L220.562 178.989C220.562 178.989 222.896 178.257 223.085 176.872Z" fill="#EEA886"/>
<path fill-rule="evenodd" clip-rule="evenodd" d="M236.307 174.177C236.885 174.46 236.958 174.858 236.291 175.051C235.624 175.243 229.378 176.961 229.378 176.961C229.378 176.961 238.258 176.301 238.783 176.43C239.09 176.505 239.277 177.263 238.93 177.401C238.582 177.536 229.818 178.693 229.818 178.693C229.818 178.693 238.112 178.093 238.519 178.332C238.875 178.541 238.87 179.281 238.258 179.368C237.646 179.455 229.981 180.446 229.981 180.446C229.981 180.446 236.045 180.388 236.27 180.793C236.407 181.041 236.6 181.691 235.035 181.654C233.469 181.623 229.769 181.931 229.769 181.931L228.523 175.661C228.523 175.661 235.727 173.893 236.307 174.177Z" fill="#EEA886"/>
<path fill-rule="evenodd" clip-rule="evenodd" d="M190.713 178.237C190.943 178.579 191.179 178.925 191.417 179.272C191.746 179.744 192.077 180.214 192.416 180.683C192.82 181.241 193.232 181.796 193.649 182.335C195.97 185.344 198.411 187.904 200.263 188.36C204.276 189.348 224.43 184.879 224.43 184.879L222.872 176.955C222.872 176.955 215.807 179.36 211.083 179.755C208.188 179.995 204.576 180.946 204.149 180.677C203.719 180.409 195.453 168.487 194.864 167.202C194.272 165.914 191.631 160.868 189.378 158.457C187.127 156.043 184.678 156.963 184.678 156.963C177.925 161.358 186.338 171.222 186.338 171.222C186.338 171.222 188.209 174.522 190.713 178.237Z" fill="#DBDFF0"/>
<path fill-rule="evenodd" clip-rule="evenodd" d="M201.728 309.407C204.893 310.093 207.105 310.968 207.129 312.845C207.153 314.723 198.023 315.962 194.403 314.068C188.998 311.242 188.448 312.094 187.849 310.682C187.25 309.269 188.568 305.491 188.53 305.042C188.481 304.488 195.446 305.449 195.446 305.449C195.446 305.449 198.565 308.722 201.728 309.407Z" fill="#202338"/>
<path fill-rule="evenodd" clip-rule="evenodd" d="M195.446 305.45C195.386 305.483 188.316 306.273 188.53 305.043C188.702 304.044 188.95 302.96 188.95 302.96L195.096 303.884C195.096 303.884 195.507 305.418 195.446 305.45Z" fill="#2F6B8C"/>
<path fill-rule="evenodd" clip-rule="evenodd" d="M192.577 243.616C194.141 253.016 194.671 260.782 195.106 265.647C195.655 271.767 196.382 303.08 196.766 304.871C197.149 306.659 187.231 305.729 187.231 305.729C187.231 305.729 182.034 264.904 180.401 258.39C178.88 252.32 174.45 226.11 173.062 227.766C171.675 229.424 165.743 259.33 164.715 264.116C163.687 268.901 157.939 307.283 157.939 307.283C157.939 307.283 151.786 308.399 148.055 306.516C148.055 306.516 150.948 272.946 151.602 263.974C151.852 260.554 152.461 222.988 158.244 207.858C161.3 199.861 187.965 211.796 187.965 211.796C187.965 211.796 191.239 235.577 192.577 243.616Z" fill="#292C47"/>
<path fill-rule="evenodd" clip-rule="evenodd" d="M188.052 157.462C189.167 158.432 191.135 167.92 191.253 170.564C191.371 173.207 190.208 184.247 189.094 188.358C187.976 192.471 188.382 212.695 189.086 218.393C189.086 218.393 176.251 224.142 154.582 218.924C154.582 218.924 158.354 200.171 157.668 194.539C156.787 187.319 155.059 169.608 155.059 169.608C155.059 169.608 155.006 158.773 156.532 157.481C158.059 156.189 169.299 154.762 169.299 154.762H178.36C178.36 154.762 187.024 156.552 188.052 157.462Z" fill="#DBDFF0"/>
<path fill-rule="evenodd" clip-rule="evenodd" d="M163.866 168.417C161.529 176.217 161.212 177.893 161.212 177.893L148.69 174.764C148.69 174.764 151.894 158.284 157.889 156.866C157.889 156.866 160.261 156.435 161.424 156.962C161.424 156.962 166.851 158.457 163.866 168.417Z" fill="#DBDFF0"/>
<path fill-rule="evenodd" clip-rule="evenodd" d="M191.417 179.272C191.746 179.744 192.077 180.214 192.416 180.683C192.671 176.045 191.452 169.608 191.452 169.608C191.687 171.764 190.713 178.237 190.713 178.237C190.943 178.579 191.179 178.925 191.417 179.272Z" fill="#A3A9C4"/>
<path fill-rule="evenodd" clip-rule="evenodd" d="M182.641 179.207H187.959V171.083H182.641V179.207Z" fill="#DBDFF0"/>
<path fill-rule="evenodd" clip-rule="evenodd" d="M169.145 153.221L168.835 155.415C168.835 155.415 174.853 157.7 179.553 156.655L178.986 153.5C178.986 153.5 173.631 155.075 169.145 153.221Z" fill="#DBDFF0"/>
<path fill-rule="evenodd" clip-rule="evenodd" d="M149.116 221.411C149.492 221.937 150.482 224.56 150.579 224.928C150.677 225.294 151.256 227.931 151.357 228.263C151.46 228.598 150.7 229.094 150.21 228.381C149.906 227.938 149.395 226.227 149.184 225.673C148.974 225.12 148.327 223.372 148.13 223.683C147.933 223.993 147.917 226.314 147.868 226.912C147.822 227.507 148.15 229.353 148.308 230.117C148.464 230.883 149.388 234.094 148.978 234.256C148.569 234.415 148.226 234.359 147.728 233.489C147.728 233.489 146.886 233.932 146.431 232.87C146.431 232.87 145.683 233.118 145.26 231.739C145.26 231.739 144.741 231.435 144.55 230.939C144.36 230.443 143.274 226.22 143.33 224.511C143.388 222.803 143.821 221.623 143.78 220.414C143.741 219.206 143.193 216.608 143.193 216.608L148.279 218.082C148.279 218.082 148.736 220.886 149.116 221.411Z" fill="#EEA886"/>
<path fill-rule="evenodd" clip-rule="evenodd" d="M142.477 221.153C142.477 221.153 144.906 193.526 144.783 191.965C144.666 190.522 150.36 164.855 153.486 160.963L158.244 175.977C157.881 175.861 153.066 191.287 153 192.876C152.91 195.007 149.758 221.041 149.758 221.041C149.758 221.041 146.77 221.513 142.477 221.153Z" fill="#DBDFF0"/>
<path fill-rule="evenodd" clip-rule="evenodd" d="M182.35 127.73C181.836 125.706 178.558 126.261 178.558 126.261C173.56 124.765 170.548 125.454 168.656 126.264C165.821 128.585 165.605 132.539 165.734 134.715C165.79 135.231 165.85 135.75 165.907 136.254C165.909 136.264 165.91 136.27 165.91 136.27C166.167 138.433 166.428 140.317 166.428 140.317L167.329 141.356C167.329 141.356 167.096 137.751 167.651 137.549C167.948 137.439 168.02 136.712 168.022 136.063C168.026 135.505 167.977 135.003 167.977 135.003C173.757 132.344 180.245 134.239 180.39 134.607C180.481 134.837 180.613 135.529 180.743 136.142C180.823 136.514 180.9 136.857 180.963 137.05C181.137 137.562 181.069 140.815 181.069 140.815L182.196 139.343C182.196 139.343 182.339 138.641 182.525 137.584C182.585 137.239 182.648 136.86 182.714 136.452C182.714 136.452 182.763 135.992 182.771 135.252C183.008 132.034 182.769 129.374 182.35 127.73Z" fill="#434343"/>
<path fill-rule="evenodd" clip-rule="evenodd" d="M54.7715 261.864H88.4934V259.863H54.7715V261.864Z" fill="#E2D2CA"/>
<path fill-rule="evenodd" clip-rule="evenodd" d="M59.2908 358.112H62.2458V267.075H59.2908V358.112Z" fill="#706865"/>
<path fill-rule="evenodd" clip-rule="evenodd" d="M83.2172 262.154H106.656V259.296H83.2172V262.154Z" fill="#CCBDB7"/>
<path fill-rule="evenodd" clip-rule="evenodd" d="M90.4978 261.864H99.3744V234.904H90.4978V261.864Z" fill="#CCBDB7"/>
<path fill-rule="evenodd" clip-rule="evenodd" d="M42.675 267.075H172.548V261.897H42.675V267.075Z" fill="#B59074"/>
<path fill-rule="evenodd" clip-rule="evenodd" d="M20.2205 252.872C22.6589 254.364 32.3805 259.402 32.0911 260.346C31.8031 261.291 26.6022 268.752 26.6022 268.752C26.6022 268.752 7.92876 256.455 7.32677 252.579C6.73924 248.794 8.24712 223.413 10.8128 222.244C12.7346 221.37 13.7505 222.093 16.1729 223.892C19.5736 226.416 17.7488 230.567 17.7488 230.567C17.7488 230.567 16.3292 250.488 20.2205 252.872Z" fill="#323657"/>
<path fill-rule="evenodd" clip-rule="evenodd" d="M53.429 235.647C53.429 235.647 51.3754 230.829 50.4796 230.946C49.4477 231.079 48.1597 231.421 48.1597 231.421L51.7821 236.256L53.429 235.647Z" fill="#EAD8CF"/>
<path fill-rule="evenodd" clip-rule="evenodd" d="M48.6595 230.621L41.6333 231.576L45.4294 239.048L52.1589 237.087C51.9476 236.93 48.6595 230.621 48.6595 230.621Z" fill="#DA9B5B"/>
<path fill-rule="evenodd" clip-rule="evenodd" d="M40.071 350.319C39.9987 350.924 33.6107 349.961 33.6107 349.961L33.094 345.162C33.094 345.162 39.9263 345.113 40.7237 345.682C40.7237 345.682 40.1434 349.712 40.071 350.319Z" fill="#424773"/>
<path fill-rule="evenodd" clip-rule="evenodd" d="M44.1193 353.293C46.0772 354.351 49.1523 354.771 50.3086 355.866C51.1436 356.658 53.3533 360.062 45.2234 359.994C37.0936 359.926 33.1748 360.474 32.3051 359.169C31.4325 357.863 33.5641 349.532 33.5641 349.532C33.5641 349.532 35.4902 350.224 40.1383 349.805C40.1383 349.805 42.1614 352.234 44.1193 353.293Z" fill="#292C47"/>
<path fill-rule="evenodd" clip-rule="evenodd" d="M80.9907 350.357C80.9198 350.962 74.5318 350.001 74.5318 350.001L74.0137 345.202C74.0137 345.202 80.8474 345.153 81.6449 345.72C81.6449 345.72 81.0645 349.752 80.9907 350.357Z" fill="#424773"/>
<path fill-rule="evenodd" clip-rule="evenodd" d="M85.0392 353.332C86.9971 354.389 94.1994 355.259 95.3571 356.356C96.192 357.146 97.5813 360.331 86.1448 360.033C78.0178 359.82 74.0962 360.514 73.225 359.207C72.3553 357.902 74.4855 349.571 74.4855 349.571C74.4855 349.571 76.2987 350.311 81.0582 349.844C81.0582 349.844 83.0827 352.274 85.0392 353.332Z" fill="#292C47"/>
<path fill-rule="evenodd" clip-rule="evenodd" d="M48.5879 280.812C53.8336 281.636 82.2693 288.712 85.8263 290.868C88.6568 292.584 84.3415 333.805 83.3344 349.532H72.1323L71.3205 302.355C57.8798 302.692 48.2883 299.212 38.5001 300.698C28.7119 302.184 20.5531 304.299 14.3334 295.956C14.3334 295.956 14.1033 277.88 20.1233 276.058C20.1233 276.058 43.3436 279.987 48.5879 280.812Z" fill="#292C47"/>
<path fill-rule="evenodd" clip-rule="evenodd" d="M32.0953 348.896L31.0317 302.355C25.2447 302.502 23.2622 302.134 18.5794 301.565L9.76648 281.082C17.4897 282.626 42.2352 288.867 45.5346 290.868C48.368 292.585 44.0195 333.843 43.0094 349.57L32.0953 348.896Z" fill="#292C47"/>
<path fill-rule="evenodd" clip-rule="evenodd" d="M42.572 193.274C45.8193 199.883 44.3462 212.41 40.0569 213.588C35.7663 214.768 29.5973 213.41 27.8159 209.298C26.0359 205.185 24.6149 199.34 25.0403 195.557C25.4672 191.77 28.551 189.924 30.8128 189.019C30.8128 189.019 39.3247 186.666 42.572 193.274Z" fill="#EEA886"/>
<path fill-rule="evenodd" clip-rule="evenodd" d="M38.2958 218.368C38.8486 219.44 26.4402 219.171 26.4402 219.171C26.4402 219.171 28.3968 213.135 27.2868 207.993C26.1884 202.904 37.8341 212.271 37.8341 212.271C37.8341 212.271 37.7401 217.297 38.2958 218.368Z" fill="#EEA886"/>
<path fill-rule="evenodd" clip-rule="evenodd" d="M30.4935 207.221C33.7046 207.004 37.9389 203.13 39.3035 202.783C40.6667 202.437 40.7477 201.66 40.7477 201.66L41.4698 202.943L42.8677 203.156C42.8677 203.156 41.917 199.272 43.9849 197.906C46.0542 196.539 43.0544 185.526 32.5817 188.183C32.5817 188.183 24.5908 189.646 24.4837 194.11C24.3751 198.572 25.0669 203.726 26.6182 206.091C26.6182 206.091 27.2809 207.44 30.4935 207.221Z" fill="#3A3F47"/>
<path fill-rule="evenodd" clip-rule="evenodd" d="M37.9846 215.995C37.0554 215.8 28.2303 214.586 27.0913 215.033L26.6022 217.736C26.6022 217.736 28.7976 219.085 38.947 218.237C38.947 218.237 38.9122 216.191 37.9846 215.995Z" fill="#E2D2CA"/>
<path fill-rule="evenodd" clip-rule="evenodd" d="M38.2613 199.754C37.1687 202.368 38.9994 206.174 40.2252 205.97C41.4495 205.766 41.8229 203.024 41.4987 200.746C41.2614 199.067 39.354 197.141 38.2613 199.754Z" fill="#EEA886"/>
<path fill-rule="evenodd" clip-rule="evenodd" d="M75.895 242.422C75.9571 242.451 75.9656 242.452 75.9091 242.424C75.9049 242.421 75.9007 242.421 75.895 242.422Z" fill="#323657"/>
<path fill-rule="evenodd" clip-rule="evenodd" d="M26.5181 205.932L28.3298 190.218C28.3298 190.218 17.9512 189.729 26.5181 205.932Z" fill="#3A3F47"/>
<path fill-rule="evenodd" clip-rule="evenodd" d="M5.97769 357.263L38.5998 347.155L37.034 342.757L5.20349 355.091L5.97769 357.263Z" fill="#918783"/>
<path fill-rule="evenodd" clip-rule="evenodd" d="M36.0098 345.608H39.7172V310.141H36.0098V345.608Z" fill="#918783"/>
<path fill-rule="evenodd" clip-rule="evenodd" d="M26.9292 310.346H48.7979V308.257H26.9292V310.346Z" fill="#5E5854"/>
<path fill-rule="evenodd" clip-rule="evenodd" d="M70.0369 357.263L37.4148 347.155L38.8489 342.481L70.8097 355.091L70.0369 357.263Z" fill="#918783"/>
<path fill-rule="evenodd" clip-rule="evenodd" d="M47.8253 359.558L37.4148 347.155L38.8489 342.481L47.8253 357.032V359.558Z" fill="#918783"/>
<path fill-rule="evenodd" clip-rule="evenodd" d="M70.8098 361.16C69.1252 361.16 67.7605 359.797 67.7605 358.112C67.7605 356.429 69.1252 355.063 70.8098 355.063C72.4929 355.063 73.8591 356.429 73.8591 358.112C73.8591 359.797 72.4929 361.16 70.8098 361.16Z" fill="#BFB2AC"/>
<path fill-rule="evenodd" clip-rule="evenodd" d="M45.0356 361.16C43.3525 361.16 41.9863 359.797 41.9863 358.112C41.9863 356.429 43.3525 355.063 45.0356 355.063C46.7202 355.063 48.0849 356.429 48.0849 358.112C48.0849 359.797 46.7202 361.16 45.0356 361.16Z" fill="#BFB2AC"/>
<path fill-rule="evenodd" clip-rule="evenodd" d="M5.20409 361.16C3.52098 361.16 2.15625 359.797 2.15625 358.112C2.15625 356.429 3.52098 355.063 5.20409 355.063C6.88866 355.063 8.25483 356.429 8.25483 358.112C8.25483 359.797 6.88866 361.16 5.20409 361.16Z" fill="#BFB2AC"/>
<path fill-rule="evenodd" clip-rule="evenodd" d="M16.0109 308.256C13.8518 308.256 12.1023 306.507 12.1023 304.348V304.248C12.1023 302.09 13.8518 300.341 16.0109 300.341H60.0044C62.162 300.341 63.913 302.09 63.913 304.248V304.348C63.913 306.507 62.162 308.256 60.0044 308.256H16.0109Z" fill="#E2D2CA"/>
<path fill-rule="evenodd" clip-rule="evenodd" d="M152.978 358.112H155.933V267.075H152.978V358.112Z" fill="#706865"/>
<path fill-rule="evenodd" clip-rule="evenodd" d="M60.5106 247.892C58.3587 247.892 56.6135 246.147 56.6135 243.992V197.72C56.6135 195.565 58.3587 193.821 60.5106 193.821H129.361C131.514 193.821 133.26 195.565 133.26 197.72V243.992C133.26 246.147 131.514 247.892 129.361 247.892H60.5106Z" fill="#F2E2D9"/>
<path fill-rule="evenodd" clip-rule="evenodd" d="M59.615 239.418H130.257V196.743H59.615V239.418Z" fill="#F5F7FF"/>
<path fill-rule="evenodd" clip-rule="evenodd" d="M94.9362 245.305C93.5715 245.305 92.4629 244.198 92.4629 242.832C92.4629 241.466 93.5715 240.36 94.9362 240.36C96.3024 240.36 97.4095 241.466 97.4095 242.832C97.4095 244.198 96.3024 245.305 94.9362 245.305Z" fill="#918681"/>
<path fill-rule="evenodd" clip-rule="evenodd" d="M110.804 261.004C110.804 261.004 109.45 255.019 99.8822 255.019C90.314 255.019 90.5079 261.966 90.5079 261.966H110.804V261.004Z" fill="#E2D2CA"/>
<path fill-rule="evenodd" clip-rule="evenodd" d="M93.2314 255.288C93.994 254.829 98.5495 251.763 99.6204 252.255C100.691 252.745 107.814 254.928 107.566 255.97C107.319 257.01 106.659 256.91 106.157 256.725C105.653 256.541 100.483 255.456 100.027 255.638C100.027 255.638 105.106 257.491 105.127 258.844C105.147 260.197 104.063 260.525 103.583 261.037C103.101 261.548 102.52 262.817 101.212 262.914C99.904 263.013 93.5165 260.79 92.2011 260.689C90.8856 260.587 88.4516 260.77 88.2852 260.557C88.1202 260.341 90.3922 255.909 90.3922 255.909C90.3922 255.909 92.4702 255.747 93.2314 255.288Z" fill="#EEA886"/>
<path fill-rule="evenodd" clip-rule="evenodd" d="M38.9458 218.236L26.602 217.736C26.602 217.736 15.274 220.227 10.8126 222.243C10.3886 222.434 10.3871 232.348 9.22656 234.949L12.9254 242.753C12.9254 242.753 15.0627 258.211 15.5056 265.085C15.7082 268.241 14.9296 295.587 14.9296 295.587C14.9296 295.587 16.0395 296.134 24.4631 297.062C32.8867 297.991 53.9349 296.726 54.068 295.73C54.2012 294.736 49.9915 258.683 49.8049 256.816C49.5183 253.949 50.6326 240.708 50.6326 240.708C52.2201 242.84 56.2662 252.469 60.4845 257.049C62.9648 259.744 75.2493 261.396 77.5647 261.473C82.6064 261.642 91.7999 262.645 92.0705 262.155C92.2832 261.861 92.8693 253.993 92.2933 253.802C91.7883 253.631 74.7153 252.65 70.3407 250.329C68.7402 249.479 63.9561 239.047 63.9561 239.047C63.9561 239.047 56.2054 222.717 52.5486 221.074C45.9208 219.911 38.9458 218.236 38.9458 218.236Z" fill="#323657"/>
<path fill-rule="evenodd" clip-rule="evenodd" d="M7.50325 294.796C3.35873 294.796 0 291.435 0 287.292V252.815C0 248.672 3.35873 245.312 7.50325 245.312H28.2258C32.3689 245.312 35.7276 248.672 35.7276 252.815V287.292C35.7276 291.435 32.3689 294.796 28.2258 294.796H7.50325Z" fill="#E2D2CA"/>
<path fill-rule="evenodd" clip-rule="evenodd" d="M16.6982 301.027C9.55524 293.143 10.8388 279.281 10.8967 278.695C11.0052 277.602 11.9806 276.804 13.0703 276.912C14.1628 277.022 14.9616 277.993 14.8531 279.086C14.8386 279.244 13.6998 291.807 19.6517 298.368C22.0597 301.021 25.2477 302.31 29.3965 302.31C30.4949 302.31 31.3848 303.2 31.3848 304.299C31.3848 305.396 30.4949 306.286 29.3965 306.286C24.1305 306.286 19.8572 304.517 16.6982 301.027Z" fill="#E2D2CA"/>
<path fill-rule="evenodd" clip-rule="evenodd" d="M65.1821 202.396C64.8739 202.396 64.6235 202.146 64.6235 201.838V200.7C64.6235 200.392 64.8739 200.143 65.1821 200.143H84.7571C85.0668 200.143 85.3172 200.392 85.3172 200.7V201.838C85.3172 202.146 85.0668 202.396 84.7571 202.396H65.1821Z" fill="#DFE1E8"/>
<path fill-rule="evenodd" clip-rule="evenodd" d="M65.1821 207.232C64.8739 207.232 64.6235 206.982 64.6235 206.674V205.536C64.6235 205.228 64.8739 204.976 65.1821 204.976H84.7571C85.0668 204.976 85.3172 205.228 85.3172 205.536V206.674C85.3172 206.982 85.0668 207.232 84.7571 207.232H65.1821Z" fill="#DFE1E8"/>
<path fill-rule="evenodd" clip-rule="evenodd" d="M66.5033 236.02C65.4643 236.02 64.6235 235.177 64.6235 234.14V212.403C64.6235 211.365 65.4643 210.523 66.5033 210.523H83.4374C84.4749 210.523 85.3172 211.365 85.3172 212.403V234.14C85.3172 235.177 84.4749 236.02 83.4374 236.02H66.5033Z" fill="#DFE1E8"/>
<path fill-rule="evenodd" clip-rule="evenodd" d="M92.4687 236.02C90.8247 236.02 89.4934 234.687 89.4934 233.045V203.117C89.4934 201.473 90.8247 200.143 92.4687 200.143H123.37C125.013 200.143 126.344 201.473 126.344 203.117V233.045C126.344 234.687 125.013 236.02 123.37 236.02H92.4687Z" fill="#DFE1E8"/>
<path fill-rule="evenodd" clip-rule="evenodd" d="M413.315 333.998C407.706 339.002 397.391 349.398 367.629 354.573C358.694 356.128 348.01 357.212 335.176 357.538C329.939 357.671 325.132 357.481 320.735 357.002C317.048 356.604 313.65 356.001 310.527 355.219C277.817 347.023 275.374 318.995 289.68 295.419C293.47 289.176 297.799 283.436 302.338 278.086C309.344 269.821 316.857 262.48 323.658 255.627C329.929 249.313 335.597 243.415 339.718 237.59C341.456 235.136 342.917 232.696 344.034 230.243C347.501 222.659 351.724 215.452 356.558 208.768C360.738 202.994 363.839 199.754 363.839 199.754C367.516 198.035 377.115 194.672 387.175 194.311C405.973 193.641 429.28 202.912 429.258 253.02C429.235 310.054 427.637 321.218 413.315 333.998Z" fill="#9477D1"/>
<path fill-rule="evenodd" clip-rule="evenodd" d="M354.253 344.392C354.874 346.078 358.247 349.971 356.823 353.712C355.276 357.765 348.533 353.857 345.783 352.621C343.032 351.382 343.657 349.137 343.365 346.389C343.071 343.64 341.73 343.565 342.225 341.631C342.72 339.698 345.728 335.996 345.728 335.996L353.165 338.883C353.165 338.883 353.632 342.705 354.253 344.392Z" fill="#213A70"/>
<path fill-rule="evenodd" clip-rule="evenodd" d="M345.347 336.478C345.395 336.545 352.744 341.018 353.255 339.568C353.662 338.414 353.832 336.744 353.832 336.744L347.028 333.998C347.028 333.998 345.301 336.413 345.347 336.478Z" fill="#EEA886"/>
<path fill-rule="evenodd" clip-rule="evenodd" d="M317.866 346.57C315.853 349.589 310.51 349.749 310.281 353.871C310.053 357.992 317.546 358.12 321.481 356.778C325.415 355.435 326.009 351.411 328.388 350.404C330.767 349.396 332.002 348.583 331.82 346.618C331.636 344.653 330.319 341.463 330.319 341.463C330.319 341.463 328.842 341.935 327.972 342.031C327.104 342.128 324.179 342.161 322.12 341.586C322.12 341.586 319.88 343.55 317.866 346.57Z" fill="#213A70"/>
<path fill-rule="evenodd" clip-rule="evenodd" d="M346.363 244.811C345.87 247.213 345.427 249.115 345.149 249.713C344.802 250.467 341.971 253.507 338.51 257.073C332.431 263.33 324.401 271.208 324.401 271.208L321.262 265.25C321.262 265.25 328.393 256.887 333.23 251.309C335.468 248.727 337.213 246.742 337.533 246.454C338.543 245.549 339.718 236.639 341.367 229.297C343.016 221.956 346.32 217.898 346.32 217.898L349.087 229.922C349.087 229.922 347.579 238.89 346.363 244.811Z" fill="#FFCA55"/>
<path fill-rule="evenodd" clip-rule="evenodd" d="M324.401 271.208L321.262 265.251C321.262 265.251 328.393 256.888 333.23 251.309C334.713 252.036 337.432 253.769 338.51 257.073C332.431 263.33 324.401 271.208 324.401 271.208Z" fill="#EEA886"/>
<path fill-rule="evenodd" clip-rule="evenodd" d="M322.12 341.587C322.12 341.587 326.022 342.964 330.32 341.464L330.408 339.022L322.473 338.84L322.12 341.587Z" fill="#EEA886"/>
<path fill-rule="evenodd" clip-rule="evenodd" d="M336.53 269.997C336.53 269.997 348.023 261.632 348.767 259.397C349.512 257.162 345.842 243.755 345.363 239.393C344.98 235.901 344.019 220.284 346.32 217.898C348.725 215.403 357.386 212.791 357.386 212.791L370.013 213.26C370.013 213.26 372.099 213.695 373.588 214.386C375.077 215.077 383.596 218.113 384.979 222.368C386.363 226.625 376.479 240.309 376.479 240.309C376.479 240.309 376.46 240.924 376.43 241.931C376.392 243.277 376.336 245.319 376.284 247.536C376.217 250.404 376.159 253.565 376.159 255.871C376.159 261.298 377.627 269.198 377.851 269.997C378.075 270.794 336.53 269.997 336.53 269.997Z" fill="#FFCA55"/>
<path fill-rule="evenodd" clip-rule="evenodd" d="M383.581 283.961C383.661 289.627 373.553 308.606 372.025 311.32C367.426 319.481 354.814 337.085 354.814 337.085C354.814 337.085 352.641 337.03 345.858 334.397C345.858 334.397 354.249 311.144 355.311 308.73C359.82 298.49 362.338 291.229 360.823 289.473C359.306 287.717 355.172 285.956 353.975 284.919C352.778 283.882 331.924 288.86 329.739 289.427C324.082 290.893 326.659 300.738 327.911 305.153C330.007 312.537 331.836 339.202 331.836 339.202C331.836 339.202 327.807 340.92 321.056 339.47C321.056 339.47 307.801 291.319 307.375 286.531C306.95 281.743 306.74 273.848 339.406 267.846L377.851 269.997C377.851 269.997 383.5 278.295 383.581 283.961Z" fill="#E8E8E8"/>
<path fill-rule="evenodd" clip-rule="evenodd" d="M352.393 196.678C354.898 210.471 357.534 211.555 364.147 208.703C370.76 205.846 370.168 197.01 370.501 192.675C370.832 188.341 364.348 185.506 360.852 185.357C360.852 185.357 349.891 182.884 352.393 196.678Z" fill="#EEA886"/>
<path fill-rule="evenodd" clip-rule="evenodd" d="M370.476 216.8C370.476 216.8 368.762 205.647 369.665 200.215C370.568 194.782 359.655 208.633 359.655 208.633C359.798 208.708 359.894 209.227 359.917 209.964C359.934 210.589 359.901 211.372 359.8 212.175C359.575 213.98 359.014 215.887 357.952 216.331C357.952 216.331 362.807 221.478 370.476 216.8Z" fill="#EEA886"/>
<path fill-rule="evenodd" clip-rule="evenodd" d="M368.096 195.271C366.509 195.136 366.264 196.886 366.264 196.886L364.662 197.19C364.662 197.19 365.167 193.38 363.584 192.714C361.998 192.05 353.312 194.811 352.04 193.694C350.768 192.575 351.366 184.847 353.668 183.791C355.969 182.733 362.325 180.364 366.98 183.515C366.98 183.515 370.61 183.101 371.148 186.031C371.686 188.959 370.953 197.576 369.967 199.754C369.967 199.754 369.685 195.407 368.096 195.271Z" fill="#3A3F47"/>
<path fill-rule="evenodd" clip-rule="evenodd" d="M368.321 204.893C365.715 209.372 359.917 209.964 359.917 209.964C359.934 210.589 359.901 211.372 359.8 212.175C367.716 209.734 368.312 204.968 368.321 204.893Z" fill="#A77860"/>
<path fill-rule="evenodd" clip-rule="evenodd" d="M358.558 225.24C349.192 224.495 356.962 212.898 357.386 212.791C357.855 212.672 366.99 210.396 373.718 214.446C373.718 214.446 367.922 225.984 358.558 225.24Z" fill="#EEA886"/>
<path fill-rule="evenodd" clip-rule="evenodd" d="M377.851 269.996L344.639 265.846C344.639 265.846 344.442 266.693 331.778 269.412C331.778 269.412 360.469 272.949 377.851 269.996Z" fill="#FFCA55"/>
<path fill-rule="evenodd" clip-rule="evenodd" d="M351.1 265.624C351.1 265.624 351.587 269.018 352.757 270.046L355.156 269.434C355.156 269.434 354.657 265.711 353.237 264.541L351.1 265.624Z" fill="#EEA886"/>
<path fill-rule="evenodd" clip-rule="evenodd" d="M373.997 262.805L373.996 262.806C365.291 266.16 355.471 269.331 355.471 269.331L353.237 264.541C353.237 264.541 363.52 258.952 370.469 255.034C373.75 253.183 376.288 251.704 376.647 251.362C377.764 250.3 378.053 248.593 377.232 245.617C376.411 242.642 374.518 228.965 374.305 227.368C374.093 225.772 374.838 221.516 378.828 221.304C382.819 221.09 384.849 222.216 384.849 222.216C384.849 222.216 385.85 222.633 386.596 232.317C387.341 241.998 387.447 256.417 386.437 257.588C386.01 258.083 380.367 260.352 373.997 262.805Z" fill="#FFCA55"/>
<path fill-rule="evenodd" clip-rule="evenodd" d="M376.284 247.536C372.39 237.99 374.639 230.37 374.678 230.242C374.257 232.832 376.4 241.806 376.43 241.931C376.392 243.277 376.336 245.319 376.284 247.536Z" fill="#C9A043"/>
<path fill-rule="evenodd" clip-rule="evenodd" d="M345.149 249.713C343.819 243.276 345.018 235.035 345.018 235.035C345.199 238.972 346.363 244.811 346.363 244.811C345.87 247.214 345.427 249.115 345.149 249.713Z" fill="#C9A043"/>
<path fill-rule="evenodd" clip-rule="evenodd" d="M373.996 262.806C365.291 266.16 355.156 269.434 355.156 269.434L353.237 264.541C353.237 264.541 363.52 258.952 370.469 255.033C370.469 255.033 372.996 256.265 373.997 262.804L373.996 262.806Z" fill="#EEA886"/>
<path fill-rule="evenodd" clip-rule="evenodd" d="M311.84 269.12L332.428 279.573L352.619 269.719L311.84 269.12Z" fill="#444C94"/>
<path fill-rule="evenodd" clip-rule="evenodd" d="M352.619 271.752V269.719L330.833 277.577L332.428 279.572L352.619 271.752Z" fill="#303669"/>
<path fill-rule="evenodd" clip-rule="evenodd" d="M347.255 264.891C345.89 264.573 342.503 265.011 341.642 265.884C340.778 266.759 338.032 272.852 337.514 273.224C336.996 273.594 337.781 274.455 338.694 274.023C338.694 274.023 339.529 276.688 341.594 275.691C343.659 274.693 345.063 272.513 346.144 272.131C347.225 271.746 353.524 269.81 353.524 269.81C353.524 269.81 353.184 265.048 351.561 265.696C351.561 265.696 349.015 265.301 347.255 264.891Z" fill="#EEA886"/>
<path fill-rule="evenodd" clip-rule="evenodd" d="M340.2 266.628C339.773 266.98 338.04 268.277 337.621 268.582C337.202 268.886 338.254 269.754 341.349 268.413C344.445 267.072 342.263 265.485 342.263 265.485C342.263 265.485 340.626 266.276 340.2 266.628Z" fill="#EEA886"/>
<path fill-rule="evenodd" clip-rule="evenodd" d="M320.3 246.454L281.196 247.093L292.755 277.613L332.428 279.572L320.3 246.454Z" fill="#303669"/>
<path fill-rule="evenodd" clip-rule="evenodd" d="M306.982 266.908C305.345 267.728 303.05 266.459 301.855 264.073C300.662 261.688 301.023 259.09 302.661 258.271C304.299 257.45 306.594 258.721 307.787 261.106C308.981 263.491 308.62 266.09 306.982 266.908Z" fill="#518AFA"/>
<path fill-rule="evenodd" clip-rule="evenodd" d="M369.041 195.206C369.236 197.031 367.948 200.233 367.035 199.918C366.123 199.604 366.099 196.722 366.299 195.045C366.442 193.827 368.847 193.382 369.041 195.206Z" fill="#EEA886"/>
<defs>
<linearGradient id="paint0_linear" x1="381.357" y1="204.57" x2="460.256" y2="204.57" gradientUnits="userSpaceOnUse">
<stop stop-color="#FF9B00"/>
<stop offset="1" stop-color="#FFD28C"/>
</linearGradient>
<linearGradient id="paint1_linear" x1="430.829" y1="255.546" x2="468.326" y2="255.546" gradientUnits="userSpaceOnUse">
<stop stop-color="#FF9B00"/>
<stop offset="1" stop-color="#FFD28C"/>
</linearGradient>
</defs>
</svg>
