<svg width="50" height="50" viewBox="0 0 50 50" fill="none" xmlns="http://www.w3.org/2000/svg">
<path fill-rule="evenodd" clip-rule="evenodd" d="M11.4416 19.4592C11.4416 9.08969 19.8788 0.654297 30.2483 0.654297C40.6177 0.654297 49.0531 9.08969 49.0531 19.4592C49.0531 29.8286 40.6177 38.2658 30.2465 38.2675C25.7722 38.2675 21.664 36.6908 18.4317 34.0717L13.9083 38.5741C14.2394 39.2696 14.4321 40.03 14.4321 40.8236C14.4321 42.2268 13.8838 43.5478 12.8922 44.5393L8.97147 48.4601C7.97989 49.4517 6.65896 50 5.25569 50C3.85067 50 2.52974 49.4517 1.53817 48.4601C0.548344 47.4703 0 46.1493 0 44.7443C0 43.341 0.548344 42.0201 1.54167 41.0268L5.46242 37.106C7.0146 35.5521 9.46725 35.235 11.4136 36.1127L15.9265 31.6156C13.1357 28.3343 11.4416 24.0947 11.4416 19.4592ZM6.49428 45.9829L10.415 42.0622C10.7461 41.7293 10.9283 41.2896 10.9283 40.8236C10.9283 40.3541 10.7461 39.9161 10.415 39.5867C10.0839 39.2539 9.64595 39.0717 9.17644 39.0717C8.70868 39.0717 8.26896 39.2556 7.93785 39.585L4.0171 43.5057C3.68599 43.8368 3.50379 44.2766 3.50379 44.7443C3.50379 45.2138 3.68599 45.6518 4.0171 45.9811C4.67932 46.6469 5.82681 46.6434 6.49428 45.9829ZM14.9472 19.4609C14.9472 27.8981 21.8111 34.762 30.2483 34.762C38.6854 34.762 45.5493 27.8963 45.5493 19.4592C45.5493 11.022 38.6872 4.15809 30.2483 4.15809C21.8094 4.15809 14.9472 11.0238 14.9472 19.4609ZM37.0927 13.5617C36.2894 12.6685 35.6937 12.0062 36.5376 11.6396C37.9553 11.0236 40.2784 12.8527 41.1401 14.836C42.0019 16.8194 41.9589 19.4052 40.5386 20.0223C39.6416 20.412 39.4628 19.3747 39.2358 18.0578C39.1034 17.2894 38.9545 16.4257 38.637 15.6948C38.2872 14.8898 37.6415 14.1719 37.0927 13.5617Z" fill="url(#paint0_linear)"/>
<defs>
<linearGradient id="paint0_linear" x1="-9.15658" y1="25.5079" x2="53.3044" y2="8.17582" gradientUnits="userSpaceOnUse">
<stop stop-color="#D0B2D3"/>
<stop offset="1" stop-color="#EC476A"/>
</linearGradient>
</defs>
</svg>
