<svg width="796" height="42" viewBox="0 0 796 42" fill="none" xmlns="http://www.w3.org/2000/svg">
<g filter="url(#filter0_d)">
<path fill-rule="evenodd" clip-rule="evenodd" d="M34.5 17C33.1193 17 32 18.1193 32 19.5C32 20.8807 33.1193 22 34.5 22H756.5C757.881 22 759 20.8807 759 19.5C759 18.1193 757.881 17 756.5 17H34.5Z" fill="#F1F1F1"/>
</g>
<g filter="url(#filter1_d)">
<rect x="6" y="6" width="122" height="25" rx="12.5" fill="white"/>
</g>
<g filter="url(#filter2_d)">
<rect x="326" y="6" width="122" height="25" rx="12.5" fill="white"/>
</g>
<g filter="url(#filter3_d)">
<rect x="667" y="6" width="123" height="25" rx="12.5" fill="white"/>
</g>
<path d="M33.9784 27.1787C33.4999 27.1787 33.0829 27.1286 32.7274 27.0283V25.2646C33.092 25.3558 33.4247 25.4014 33.7255 25.4014C34.1903 25.4014 34.523 25.2555 34.7235 24.9639C34.9241 24.6768 35.0243 24.2256 35.0243 23.6104V14.2451H37.1435V23.5967C37.1435 24.7633 36.8769 25.652 36.3437 26.2627C35.8105 26.8734 35.022 27.1787 33.9784 27.1787ZM45.7772 24.2393L45.0526 21.8604H41.4091L40.6845 24.2393H38.4013L41.9286 14.2041H44.5194L48.0605 24.2393H45.7772ZM44.5468 20.083C43.8769 17.9274 43.4986 16.7083 43.412 16.4258C43.33 16.1432 43.2707 15.9199 43.2343 15.7559C43.0839 16.3392 42.6532 17.7816 41.9423 20.083H44.5468ZM58.1913 24.2393H55.498L51.1503 16.6787H51.0888C51.1754 18.014 51.2187 18.9665 51.2187 19.5361V24.2393H49.3251V14.2451H51.998L56.3388 21.7305H56.3866C56.3183 20.4316 56.2841 19.5133 56.2841 18.9756V14.2451H58.1913V24.2393ZM63.5097 21.3408V19.6318H67.1806V21.3408H63.5097ZM78.6171 24.2393L77.8925 21.8604H74.2489L73.5243 24.2393H71.2411L74.7685 14.2041H77.3593L80.9003 24.2393H78.6171ZM77.3866 20.083C76.7167 17.9274 76.3384 16.7083 76.2519 16.4258C76.1698 16.1432 76.1106 15.9199 76.0741 15.7559C75.9237 16.3392 75.4931 17.7816 74.7821 20.083H77.3866ZM84.2841 18.9482H84.9814C85.633 18.9482 86.1207 18.8206 86.4442 18.5654C86.7678 18.3057 86.9296 17.9297 86.9296 17.4375C86.9296 16.9408 86.7929 16.5739 86.5194 16.3369C86.2506 16.0999 85.8267 15.9814 85.248 15.9814H84.2841V18.9482ZM89.0692 17.3623C89.0692 18.4378 88.732 19.2604 88.0575 19.8301C87.3876 20.3997 86.4329 20.6846 85.1933 20.6846H84.2841V24.2393H82.1649V14.2451H85.3573C86.5696 14.2451 87.4901 14.5072 88.119 15.0312C88.7525 15.5508 89.0692 16.3278 89.0692 17.3623ZM93.0751 18.6816H93.7587C94.4286 18.6816 94.9231 18.57 95.2421 18.3467C95.5611 18.1234 95.7206 17.7725 95.7206 17.2939C95.7206 16.82 95.5565 16.4827 95.2284 16.2822C94.9049 16.0817 94.4013 15.9814 93.7177 15.9814H93.0751V18.6816ZM93.0751 20.4043V24.2393H90.956V14.2451H93.8681C95.2261 14.2451 96.231 14.4935 96.8827 14.9902C97.5344 15.4824 97.8603 16.2321 97.8603 17.2393C97.8603 17.8271 97.6985 18.3512 97.3749 18.8115C97.0513 19.2673 96.5933 19.625 96.0009 19.8848C97.5048 22.1315 98.4846 23.583 98.9403 24.2393H96.5888L94.203 20.4043H93.0751ZM100.198 24.2393V14.2451H102.317V24.2393H100.198ZM104.833 24.2393V14.2451H106.952V22.4893H111.006V24.2393H104.833Z" fill="#565656"/>
<path d="M353.195 24.2393L352.47 21.8604H348.827L348.102 24.2393H345.819L349.346 14.2041H351.937L355.478 24.2393H353.195ZM351.964 20.083C351.294 17.9274 350.916 16.7083 350.83 16.4258C350.748 16.1432 350.688 15.9199 350.652 15.7559C350.501 16.3392 350.071 17.7816 349.36 20.083H351.964ZM358.862 18.9482H359.559C360.211 18.9482 360.698 18.8206 361.022 18.5654C361.346 18.3057 361.507 17.9297 361.507 17.4375C361.507 16.9408 361.371 16.5739 361.097 16.3369C360.828 16.0999 360.404 15.9814 359.826 15.9814H358.862V18.9482ZM363.647 17.3623C363.647 18.4378 363.31 19.2604 362.635 19.8301C361.965 20.3997 361.011 20.6846 359.771 20.6846H358.862V24.2393H356.743V14.2451H359.935C361.147 14.2451 362.068 14.5072 362.697 15.0312C363.33 15.5508 363.647 16.3278 363.647 17.3623ZM367.653 18.6816H368.336C369.006 18.6816 369.501 18.57 369.82 18.3467C370.139 18.1234 370.298 17.7725 370.298 17.2939C370.298 16.82 370.134 16.4827 369.806 16.2822C369.483 16.0817 368.979 15.9814 368.295 15.9814H367.653V18.6816ZM367.653 20.4043V24.2393H365.534V14.2451H368.446C369.804 14.2451 370.809 14.4935 371.46 14.9902C372.112 15.4824 372.438 16.2321 372.438 17.2393C372.438 17.8271 372.276 18.3512 371.953 18.8115C371.629 19.2673 371.171 19.625 370.579 19.8848C372.083 22.1315 373.062 23.583 373.518 24.2393H371.167L368.781 20.4043H367.653ZM374.776 24.2393V14.2451H376.895V24.2393H374.776ZM379.411 24.2393V14.2451H381.53V22.4893H385.584V24.2393H379.411ZM390.123 21.3408V19.6318H393.793V21.3408H390.123ZM403.343 24.2393L400.937 16.3984H400.876C400.962 17.9935 401.005 19.0576 401.005 19.5908V24.2393H399.112V14.2451H401.997L404.362 21.8877H404.403L406.912 14.2451H409.796V24.2393H407.821V19.5088C407.821 19.2855 407.823 19.028 407.828 18.7363C407.837 18.4447 407.869 17.6699 407.923 16.4121H407.862L405.285 24.2393H403.343ZM418.437 24.2393L417.712 21.8604H414.069L413.344 24.2393H411.061L414.588 14.2041H417.179L420.72 24.2393H418.437ZM417.207 20.083C416.537 17.9274 416.158 16.7083 416.072 16.4258C415.99 16.1432 415.931 15.9199 415.894 15.7559C415.744 16.3392 415.313 17.7816 414.602 20.083H417.207ZM425.095 18.3604L427.18 14.2451H429.463L426.148 20.3496V24.2393H424.043V20.418L420.727 14.2451H423.024L425.095 18.3604Z" fill="#565656"/>
<path d="M697.163 24.2393L694.757 16.3984H694.695C694.782 17.9935 694.825 19.0576 694.825 19.5908V24.2393H692.932V14.2451H695.816L698.182 21.8877H698.223L700.731 14.2451H703.616V24.2393H701.641V19.5088C701.641 19.2855 701.643 19.028 701.647 18.7363C701.656 18.4447 701.688 17.6699 701.743 16.4121H701.682L699.104 24.2393H697.163ZM712.257 24.2393L711.532 21.8604H707.889L707.164 24.2393H704.881L708.408 14.2041H710.999L714.54 24.2393H712.257ZM711.026 20.083C710.356 17.9274 709.978 16.7083 709.892 16.4258C709.809 16.1432 709.75 15.9199 709.714 15.7559C709.563 16.3392 709.133 17.7816 708.422 20.083H711.026ZM718.915 18.3604L721 14.2451H723.283L719.968 20.3496V24.2393H717.862V20.418L714.547 14.2451H716.844L718.915 18.3604ZM727.337 21.3408V19.6318H731.008V21.3408H727.337ZM742.444 24.2393L741.72 21.8604H738.076L737.351 24.2393H735.068L738.596 14.2041H741.186L744.727 24.2393H742.444ZM741.214 20.083C740.544 17.9274 740.166 16.7083 740.079 16.4258C739.997 16.1432 739.938 15.9199 739.901 15.7559C739.751 16.3392 739.32 17.7816 738.609 20.083H741.214ZM754.127 14.2451V20.7119C754.127 21.4502 753.961 22.0973 753.628 22.6533C753.3 23.2093 752.823 23.6354 752.199 23.9316C751.575 24.2279 750.836 24.376 749.984 24.376C748.699 24.376 747.701 24.0479 746.99 23.3916C746.279 22.7308 745.924 21.8285 745.924 20.6846V14.2451H748.036V20.3633C748.036 21.1335 748.191 21.6986 748.501 22.0586C748.811 22.4186 749.323 22.5986 750.039 22.5986C750.732 22.5986 751.233 22.4186 751.543 22.0586C751.857 21.694 752.015 21.1243 752.015 20.3496V14.2451H754.127ZM760.368 18.627H764.333V23.8086C763.69 24.0182 763.084 24.1641 762.515 24.2461C761.949 24.3327 761.371 24.376 760.778 24.376C759.27 24.376 758.117 23.9339 757.319 23.0498C756.526 22.1611 756.13 20.8874 756.13 19.2285C756.13 17.6152 756.59 16.3574 757.511 15.4551C758.436 14.5527 759.716 14.1016 761.352 14.1016C762.378 14.1016 763.367 14.3066 764.319 14.7168L763.615 16.4121C762.886 16.0475 762.127 15.8652 761.339 15.8652C760.423 15.8652 759.689 16.1729 759.138 16.7881C758.586 17.4033 758.31 18.2305 758.31 19.2695C758.31 20.3542 758.531 21.1836 758.974 21.7578C759.42 22.3275 760.067 22.6123 760.915 22.6123C761.357 22.6123 761.806 22.5667 762.262 22.4756V20.3906H760.368V18.627Z" fill="#565656"/>
<defs>
<filter id="filter0_d" x="22" y="17" width="747" height="25" filterUnits="userSpaceOnUse" color-interpolation-filters="sRGB">
<feFlood flood-opacity="0" result="BackgroundImageFix"/>
<feColorMatrix in="SourceAlpha" type="matrix" values="0 0 0 0 0 0 0 0 0 0 0 0 0 0 0 0 0 0 127 0"/>
<feOffset dy="10"/>
<feGaussianBlur stdDeviation="5"/>
<feColorMatrix type="matrix" values="0 0 0 0 1 0 0 0 0 1 0 0 0 0 1 0 0 0 0.1 0"/>
<feBlend mode="normal" in2="BackgroundImageFix" result="effect1_dropShadow"/>
<feBlend mode="normal" in="SourceGraphic" in2="effect1_dropShadow" result="shape"/>
</filter>
<filter id="filter1_d" x="0" y="0" width="134" height="37" filterUnits="userSpaceOnUse" color-interpolation-filters="sRGB">
<feFlood flood-opacity="0" result="BackgroundImageFix"/>
<feColorMatrix in="SourceAlpha" type="matrix" values="0 0 0 0 0 0 0 0 0 0 0 0 0 0 0 0 0 0 127 0"/>
<feOffset/>
<feGaussianBlur stdDeviation="3"/>
<feColorMatrix type="matrix" values="0 0 0 0 0 0 0 0 0 0 0 0 0 0 0 0 0 0 0.15 0"/>
<feBlend mode="normal" in2="BackgroundImageFix" result="effect1_dropShadow"/>
<feBlend mode="normal" in="SourceGraphic" in2="effect1_dropShadow" result="shape"/>
</filter>
<filter id="filter2_d" x="320" y="0" width="134" height="37" filterUnits="userSpaceOnUse" color-interpolation-filters="sRGB">
<feFlood flood-opacity="0" result="BackgroundImageFix"/>
<feColorMatrix in="SourceAlpha" type="matrix" values="0 0 0 0 0 0 0 0 0 0 0 0 0 0 0 0 0 0 127 0"/>
<feOffset/>
<feGaussianBlur stdDeviation="3"/>
<feColorMatrix type="matrix" values="0 0 0 0 0 0 0 0 0 0 0 0 0 0 0 0 0 0 0.15 0"/>
<feBlend mode="normal" in2="BackgroundImageFix" result="effect1_dropShadow"/>
<feBlend mode="normal" in="SourceGraphic" in2="effect1_dropShadow" result="shape"/>
</filter>
<filter id="filter3_d" x="661" y="0" width="135" height="37" filterUnits="userSpaceOnUse" color-interpolation-filters="sRGB">
<feFlood flood-opacity="0" result="BackgroundImageFix"/>
<feColorMatrix in="SourceAlpha" type="matrix" values="0 0 0 0 0 0 0 0 0 0 0 0 0 0 0 0 0 0 127 0"/>
<feOffset/>
<feGaussianBlur stdDeviation="3"/>
<feColorMatrix type="matrix" values="0 0 0 0 0 0 0 0 0 0 0 0 0 0 0 0 0 0 0.15 0"/>
<feBlend mode="normal" in2="BackgroundImageFix" result="effect1_dropShadow"/>
<feBlend mode="normal" in="SourceGraphic" in2="effect1_dropShadow" result="shape"/>
</filter>
</defs>
</svg>
