<svg width="1440" height="667" viewBox="0 0 1440 667" fill="none" xmlns="http://www.w3.org/2000/svg">
<rect width="1440" height="667" fill="url(#paint0_linear)"/>
<mask id="mask0" mask-type="alpha" maskUnits="userSpaceOnUse" x="0" y="0" width="1440" height="667">
<rect width="1440" height="667" fill="url(#paint1_linear)"/>
</mask>
<g mask="url(#mask0)">
<path d="M2115.84 1279.81C2182.28 1391.73 2264.47 1678.44 1961.06 1828.15C1664.61 1974.42 1391.96 1630.44 1197.83 1680.5C949.619 1744.5 866.233 1395.05 864.954 1217.39C863.564 1024.27 469.736 961.369 504.501 781.11C561.818 483.921 739.576 603.091 912.656 553.352C1085.74 503.612 1053.02 311.818 1173.17 216.84C1322.87 98.4945 1555.43 121.626 1596.87 253.649C1638.32 385.672 1590.34 383.785 1619.22 506.349C1648.1 628.914 1754.24 621.959 1841.55 614.514C1928.87 607.068 2083.29 634.794 2151.28 765.759C2225.43 908.572 2190.52 1012.18 2148.51 1057.65C2063.06 1150.17 2049.39 1167.89 2115.84 1279.81Z" fill="white" fill-opacity="0.1"/>
<path d="M-401.328 730.465C-451.049 774.01 -586.577 841.616 -689.441 704.001C-789.939 569.55 -643.468 401.547 -686.449 309.26C-741.402 191.267 -574.658 117.252 -486.079 100.151C-389.786 81.56 -394.879 -120.896 -301.659 -120.243C-147.97 -119.166 -190.996 -19.3734 -150.123 62.4309C-109.25 144.235 -16.5241 110.13 42.0287 161.312C114.988 225.086 124.99 343.341 62.9156 376.268C0.841103 409.195 -2.6632 385.066 -61.1797 410.842C-119.696 436.619 -106.389 488.966 -94.5799 531.87C-82.7711 574.775 -82.3036 654.442 -141.39 700.526C-205.821 750.78 -260.787 742.949 -287.382 726.192C-341.491 692.099 -351.606 686.919 -401.328 730.465Z" fill="white" fill-opacity="0.1"/>
</g>
<defs>
<linearGradient id="paint0_linear" x1="-568" y1="-831.527" x2="1242.26" y2="876.569" gradientUnits="userSpaceOnUse">
<stop stop-color="#EE4266"/>
<stop offset="1" stop-color="#1C1259"/>
</linearGradient>
<linearGradient id="paint1_linear" x1="-568" y1="-831.527" x2="1242.26" y2="876.569" gradientUnits="userSpaceOnUse">
<stop stop-color="#EE4266"/>
<stop offset="1" stop-color="#1C1259"/>
</linearGradient>
</defs>
</svg>
