<svg width="259" height="70" viewBox="0 0 259 70" fill="none" xmlns="http://www.w3.org/2000/svg">
<g filter="url(#filter0_d)">
<path fill-rule="evenodd" clip-rule="evenodd" d="M35 0C21.1929 0 10 11.1929 10 25C10 38.8071 21.1929 50 35 50H224C237.807 50 249 38.8071 249 25C249 11.1929 237.807 0 224 0H35Z" fill="white"/>
<path d="M11.5 25C11.5 12.0213 22.0213 1.5 35 1.5H224C236.979 1.5 247.5 12.0213 247.5 25C247.5 37.9787 236.979 48.5 224 48.5H35C22.0213 48.5 11.5 37.9787 11.5 25Z" stroke="url(#paint0_linear)" stroke-width="3"/>
</g>
<path d="M71.658 32L68.908 23.0391H68.8376C68.9366 24.862 68.9861 26.0781 68.9861 26.6875V32H66.822V20.5781H70.1189L72.822 29.3125H72.8689L75.7361 20.5781H79.033V32H76.7751V26.5938C76.7751 26.3385 76.7778 26.0443 76.783 25.7109C76.7934 25.3776 76.8298 24.4922 76.8923 23.0547H76.822L73.8767 32H71.658ZM92.283 26.2734C92.283 28.1641 91.8142 29.6172 90.8767 30.6328C89.9392 31.6484 88.5955 32.1562 86.8455 32.1562C85.0955 32.1562 83.7517 31.6484 82.8142 30.6328C81.8767 29.6172 81.408 28.1589 81.408 26.2578C81.408 24.3568 81.8767 22.9062 82.8142 21.9062C83.7569 20.901 85.1059 20.3984 86.8611 20.3984C88.6163 20.3984 89.9574 20.9036 90.8845 21.9141C91.8168 22.9245 92.283 24.3776 92.283 26.2734ZM83.947 26.2734C83.947 27.5495 84.1892 28.5104 84.6736 29.1562C85.158 29.8021 85.8819 30.125 86.8455 30.125C88.7778 30.125 89.7439 28.8411 89.7439 26.2734C89.7439 23.7005 88.783 22.4141 86.8611 22.4141C85.8975 22.4141 85.171 22.7396 84.6814 23.3906C84.1918 24.0365 83.947 24.9974 83.947 26.2734ZM97.072 25.6484H97.8533C98.6189 25.6484 99.184 25.5208 99.5486 25.2656C99.9132 25.0104 100.095 24.6094 100.095 24.0625C100.095 23.5208 99.908 23.1354 99.533 22.9062C99.1632 22.6771 98.5876 22.5625 97.8064 22.5625H97.072V25.6484ZM97.072 27.6172V32H94.6501V20.5781H97.9783C99.5304 20.5781 100.679 20.862 101.424 21.4297C102.168 21.9922 102.541 22.849 102.541 24C102.541 24.6719 102.356 25.2708 101.986 25.7969C101.616 26.3177 101.093 26.7266 100.416 27.0234C102.135 29.5911 103.254 31.25 103.775 32H101.088L98.3611 27.6172H97.072ZM111.791 32H105.213V20.5781H111.791V22.5625H107.635V25.0703H111.502V27.0547H107.635V30H111.791V32ZM125.33 32L124.502 29.2812H120.338L119.51 32H116.9L120.931 20.5312H123.892L127.939 32H125.33ZM123.924 27.25C123.158 24.7865 122.726 23.3932 122.627 23.0703C122.533 22.7474 122.465 22.4922 122.424 22.3047C122.252 22.9714 121.76 24.6198 120.947 27.25H123.924ZM129.385 20.5781H132.939C134.559 20.5781 135.733 20.8099 136.463 21.2734C137.197 21.7318 137.564 22.4635 137.564 23.4688C137.564 24.151 137.403 24.7109 137.08 25.1484C136.762 25.5859 136.338 25.849 135.806 25.9375V26.0156C136.53 26.1771 137.051 26.4792 137.369 26.9219C137.692 27.3646 137.853 27.9531 137.853 28.6875C137.853 29.7292 137.476 30.5417 136.72 31.125C135.97 31.7083 134.95 32 133.658 32H129.385V20.5781ZM131.806 25.1016H133.213C133.869 25.1016 134.343 25 134.635 24.7969C134.931 24.5938 135.08 24.2578 135.08 23.7891C135.08 23.3516 134.918 23.0391 134.595 22.8516C134.278 22.6589 133.773 22.5625 133.08 22.5625H131.806V25.1016ZM131.806 27.0234V30H133.385C134.051 30 134.543 29.8724 134.861 29.6172C135.179 29.362 135.338 28.9714 135.338 28.4453C135.338 27.4974 134.661 27.0234 133.306 27.0234H131.806ZM150.502 26.2734C150.502 28.1641 150.033 29.6172 149.095 30.6328C148.158 31.6484 146.814 32.1562 145.064 32.1562C143.314 32.1562 141.97 31.6484 141.033 30.6328C140.095 29.6172 139.627 28.1589 139.627 26.2578C139.627 24.3568 140.095 22.9062 141.033 21.9062C141.976 20.901 143.325 20.3984 145.08 20.3984C146.835 20.3984 148.176 20.9036 149.103 21.9141C150.036 22.9245 150.502 24.3776 150.502 26.2734ZM142.166 26.2734C142.166 27.5495 142.408 28.5104 142.892 29.1562C143.377 29.8021 144.101 30.125 145.064 30.125C146.997 30.125 147.963 28.8411 147.963 26.2734C147.963 23.7005 147.002 22.4141 145.08 22.4141C144.116 22.4141 143.39 22.7396 142.9 23.3906C142.411 24.0365 142.166 24.9974 142.166 26.2734ZM162.166 20.5781V27.9688C162.166 28.8125 161.976 29.5521 161.595 30.1875C161.22 30.8229 160.676 31.3099 159.963 31.6484C159.249 31.987 158.405 32.1562 157.431 32.1562C155.963 32.1562 154.822 31.7812 154.01 31.0312C153.197 30.276 152.791 29.2448 152.791 27.9375V20.5781H155.205V27.5703C155.205 28.4505 155.382 29.0964 155.736 29.5078C156.09 29.9193 156.676 30.125 157.494 30.125C158.286 30.125 158.858 29.9193 159.213 29.5078C159.572 29.0911 159.752 28.4401 159.752 27.5547V20.5781H162.166ZM169.369 32H166.947V22.5938H163.845V20.5781H172.47V22.5938H169.369V32ZM187.681 20.5781V27.9688C187.681 28.8125 187.491 29.5521 187.111 30.1875C186.736 30.8229 186.192 31.3099 185.478 31.6484C184.765 31.987 183.921 32.1562 182.947 32.1562C181.478 32.1562 180.338 31.7812 179.525 31.0312C178.713 30.276 178.306 29.2448 178.306 27.9375V20.5781H180.72V27.5703C180.72 28.4505 180.898 29.0964 181.252 29.5078C181.606 29.9193 182.192 30.125 183.01 30.125C183.801 30.125 184.374 29.9193 184.728 29.5078C185.088 29.0911 185.267 28.4401 185.267 27.5547V20.5781H187.681ZM197.22 28.8281C197.22 29.8594 196.848 30.6719 196.103 31.2656C195.364 31.8594 194.332 32.1562 193.01 32.1562C191.791 32.1562 190.713 31.9271 189.775 31.4688V29.2188C190.546 29.5625 191.197 29.8047 191.728 29.9453C192.265 30.0859 192.754 30.1562 193.197 30.1562C193.728 30.1562 194.135 30.0547 194.416 29.8516C194.702 29.6484 194.845 29.3464 194.845 28.9453C194.845 28.7214 194.783 28.5234 194.658 28.3516C194.533 28.1745 194.348 28.0052 194.103 27.8438C193.864 27.6823 193.372 27.4245 192.627 27.0703C191.929 26.7422 191.405 26.4271 191.056 26.125C190.707 25.8229 190.429 25.4714 190.22 25.0703C190.012 24.6693 189.908 24.2005 189.908 23.6641C189.908 22.6536 190.249 21.8594 190.931 21.2812C191.619 20.7031 192.567 20.4141 193.775 20.4141C194.369 20.4141 194.934 20.4844 195.47 20.625C196.012 20.7656 196.577 20.9635 197.166 21.2188L196.385 23.1016C195.775 22.8516 195.27 22.6771 194.869 22.5781C194.473 22.4792 194.082 22.4297 193.697 22.4297C193.239 22.4297 192.887 22.5365 192.642 22.75C192.398 22.9635 192.275 23.2422 192.275 23.5859C192.275 23.7995 192.325 23.987 192.424 24.1484C192.523 24.3047 192.679 24.4583 192.892 24.6094C193.111 24.7552 193.624 25.0208 194.431 25.4062C195.499 25.9167 196.231 26.4297 196.627 26.9453C197.023 27.4557 197.22 28.0833 197.22 28.8281Z" fill="url(#paint1_linear)"/>
<defs>
<filter id="filter0_d" x="0" y="0" width="259" height="70" filterUnits="userSpaceOnUse" color-interpolation-filters="sRGB">
<feFlood flood-opacity="0" result="BackgroundImageFix"/>
<feColorMatrix in="SourceAlpha" type="matrix" values="0 0 0 0 0 0 0 0 0 0 0 0 0 0 0 0 0 0 127 0"/>
<feOffset dy="10"/>
<feGaussianBlur stdDeviation="5"/>
<feColorMatrix type="matrix" values="0 0 0 0 1 0 0 0 0 1 0 0 0 0 1 0 0 0 0.1 0"/>
<feBlend mode="normal" in2="BackgroundImageFix" result="effect1_dropShadow"/>
<feBlend mode="normal" in="SourceGraphic" in2="effect1_dropShadow" result="shape"/>
</filter>
<linearGradient id="paint0_linear" x1="-15.2855" y1="-29.1284" x2="174.294" y2="126.374" gradientUnits="userSpaceOnUse">
<stop stop-color="#CACAEA"/>
<stop offset="1" stop-color="#EE4266"/>
</linearGradient>
<linearGradient id="paint1_linear" x1="46.4434" y1="6.24304" x2="138.844" y2="91.9631" gradientUnits="userSpaceOnUse">
<stop stop-color="#CACAEA"/>
<stop offset="1" stop-color="#EE4266"/>
</linearGradient>
</defs>
</svg>
