<svg width="875" height="734" viewBox="0 0 875 734" fill="none" xmlns="http://www.w3.org/2000/svg">
<path d="M227.936 285.683C161.432 265.889 25.5367 183.345 90.2023 14.9648C153.381 -149.544 384.576 -113.467 442.493 -203.291C516.542 -318.135 675.6 -211.452 740.363 -142.344C810.765 -67.2195 987.74 -185.046 1039.33 -101.881C1124.38 35.2318 1011.67 52.8635 961.881 134.948C912.095 217.033 994.281 280.308 981.589 360.959C965.774 461.453 866.336 536.518 802.35 499.809C738.364 463.101 757.835 446.484 702.191 408.935C646.548 371.385 607.5 412.5 576 447C544.5 481.5 474 526.5 400 499.809C319.305 470.704 295.5 417.5 295.5 384.5C295.5 317.36 294.44 305.476 227.936 285.683Z" fill="url(#paint0_linear)"/>
<g clip-path="url(#clip0)">
<path d="M431.677 468.902L432.014 489.408C431.879 495.108 432.393 500.767 432.736 506.442C433.058 511.707 431.999 517.138 434.502 522.019C435.286 523.574 436.958 524.61 438.231 522.848C439.207 521.486 438.75 519.128 438.999 517.542C440.817 505.654 444.193 494.061 445.896 482.153C447.662 469.679 442.806 470.006 431.677 468.902Z" fill="#EAC5B0"/>
<path d="M432.846 518.516L431.521 521.936L438.023 527.647L443.98 527.891L445.907 524.756L437.899 517.806L432.846 518.516Z" fill="#292949"/>
<path d="M417.121 469.098L413.371 489.267C412.073 498.284 409.118 507.073 407.82 516.096C407.524 518.169 407.674 520.438 406.781 522.392C405.888 524.346 404.267 524.382 402.803 523.086C400.835 521.345 401.764 518.236 401.764 515.831C402.003 500 400.757 484.396 400.456 468.539C400.421 468.447 400.413 468.347 400.433 468.25C400.453 468.154 400.5 468.065 400.568 467.994C400.637 467.924 400.724 467.874 400.82 467.851C400.916 467.828 401.017 467.833 401.11 467.865C402.689 467.995 417.038 469.534 417.121 469.098Z" fill="#EAC5B0"/>
<path d="M401.748 519.355L399.691 522.392L404.734 529.419L410.478 531L413.064 528.378L406.832 519.801L401.748 519.355Z" fill="#292949"/>
<path d="M452.855 481.951L450.051 452.635L448.7 433.585L444.156 418.028L419.608 414.225L389.258 419.417L387.799 425.299L393.641 479.759L422.911 481.951L422.516 448.054L427.034 469.063L426.842 481.951H452.855Z" fill="#292949"/>
<path d="M395.703 360.744C395.661 361.734 395.635 362.724 395.62 363.709C395.261 383.821 396.373 404.187 396.503 424.465C406.914 422.837 417.426 421.941 427.963 421.785C430.399 421.744 441.466 423.454 443.024 422.003C445.101 420.029 442.816 420.402 442.972 417.857C443.169 414.536 441.57 411.815 442.172 407.882C442.884 403.254 444.296 398.673 445.112 394.05C446.744 384.769 447.722 375.386 448.041 365.968C448.326 357.62 448.041 348.96 444.405 341.415C435.535 322.79 406.972 323.122 399.094 342.545C396.773 348.297 395.962 354.526 395.703 360.744Z" fill="white"/>
<path d="M427.943 301.755C429.135 303.925 429.794 306.346 429.865 308.819C429.896 309.472 429.937 310.228 430.467 310.617C430.997 311.006 430.54 311.933 430.986 311.384C431.433 310.835 432.882 308.907 432.949 308.212C433.108 306.575 433.108 304.926 432.949 303.289C432.814 301.869 432.524 300.382 431.589 299.299C431.004 298.677 430.324 298.152 429.574 297.744C428.556 297.05 427.421 296.542 426.224 296.247C424.147 295.858 422.859 296.604 424.697 298.055C426.011 299.065 427.114 300.322 427.943 301.755Z" fill="#292949"/>
<path d="M414.913 329.667C414.913 330.672 414.721 331.74 415.609 332.496C416.06 332.844 416.6 333.057 417.167 333.113C418.629 333.343 420.124 333.236 421.539 332.802C422.128 332.649 422.673 332.364 423.134 331.968C423.341 331.757 423.499 331.504 423.597 331.225C423.695 330.947 423.73 330.65 423.7 330.356C423.731 329.594 423.881 328.802 423.98 328.055C424.187 326.37 424.308 324.675 424.344 322.977C426.847 322.547 429.786 321.743 430.638 319.132C430.866 318.288 430.962 317.414 430.924 316.54L431.001 305.684C431.087 304.436 430.946 303.182 430.586 301.984C429.833 299.942 427.917 298.729 426.037 297.968C421.249 296.014 415.65 296.092 411.236 298.869C410 299.579 408.976 300.606 408.271 301.844C407.232 303.834 407.357 306.285 407.518 308.581L407.969 314.934C408.141 317.37 408.489 320.173 410.4 321.458C411.407 322.142 412.711 322.267 413.578 323.148C415.089 324.702 414.367 326.998 414.814 328.848C414.876 329.117 414.91 329.391 414.913 329.667V329.667Z" fill="#EAC5B0"/>
<path d="M431.812 315.094C431.775 314.42 431.479 312.456 430.467 313.69C430.226 314.047 430.106 314.472 430.124 314.902C430.137 315.333 430.092 315.764 429.989 316.182C429.677 317.11 428.644 317.535 427.725 317.519C427.363 317.521 427.006 317.433 426.686 317.265C426.379 317.065 426.108 316.817 425.881 316.53C425.292 315.839 424.702 315.163 424.11 314.503C423.071 313.342 421.088 313.845 419.722 314.021C418.113 314.174 416.578 314.767 415.287 315.737L414.902 316.058C414.607 316.334 414.277 316.571 413.921 316.763C412.706 317.353 411.2 316.737 410.348 315.633C409.958 315.115 409.595 314.477 408.987 314.389C408.742 314.379 408.499 314.442 408.29 314.569C408.08 314.696 407.913 314.883 407.808 315.104C407.59 315.57 407.473 316.077 407.466 316.592C407.302 318.46 407.622 320.339 408.395 322.049C410.156 325.64 413.563 326.085 416.98 326.003L421.041 325.909C423.513 325.847 426.125 325.749 428.208 324.313C430.046 323.049 431.137 320.898 431.583 318.644C431.812 317.475 431.889 316.282 431.812 315.094ZM422.77 320.188C422.157 320.587 421.459 320.839 420.732 320.923C420.005 321.008 419.268 320.923 418.579 320.675C417.961 320.489 418.226 319.457 418.844 319.639C419.405 319.847 420.006 319.921 420.6 319.855C421.195 319.79 421.765 319.586 422.266 319.261C422.812 318.898 423.31 319.825 422.77 320.188V320.188Z" fill="#292949"/>
<path d="M432.332 295.485C432.569 294.607 432.743 293.714 432.851 292.811C432.01 293.107 431.107 293.184 430.228 293.034C430.228 292.516 430.228 291.997 430.228 291.479C430.228 291.049 424.36 290.743 423.882 290.707C419.416 290.339 415.334 289.992 411.299 292.381C407.851 294.423 405.643 297.475 405.114 301.444C404.594 305.233 405.851 310.187 408.048 313.332C408.048 312.322 407.456 309.943 407.69 308.985C407.847 308.023 408.165 307.095 408.63 306.238C409.573 304.528 410.943 303.091 412.608 302.066C415.269 300.493 418.233 299.497 421.306 299.144C424.09 298.755 427.481 298.397 430.228 299.144C431.553 299.496 431.786 299.828 432.571 298.496C433.024 297.532 433.409 296.538 433.723 295.521L432.332 295.485Z" fill="#292949"/>
<path d="M457.245 277.675C479.406 255.561 479.406 219.708 457.245 197.594C435.084 175.481 399.153 175.481 376.992 197.594C354.831 219.708 354.831 255.562 376.992 277.675C399.153 299.789 435.084 299.789 457.245 277.675Z" fill="white"/>
<g opacity="0.08">
<path opacity="0.08" d="M439.778 185.648C448.131 195.382 452.929 207.655 453.388 220.462C453.847 233.268 449.94 245.852 442.306 256.156C434.671 266.46 423.76 273.877 411.355 277.193C398.951 280.509 385.785 279.53 374.011 274.414C379.563 280.879 386.504 286.011 394.317 289.429C402.131 292.847 410.617 294.463 419.143 294.157C427.669 293.851 436.017 291.631 443.564 287.661C451.112 283.692 457.665 278.075 462.737 271.23C467.809 264.384 471.27 256.485 472.86 248.121C474.451 239.757 474.131 231.142 471.925 222.918C469.719 214.694 465.683 207.073 460.117 200.62C454.551 194.167 447.599 189.05 439.778 185.648V185.648Z" fill="black"/>
</g>
<g opacity="0.2">
<path opacity="0.2" d="M369.394 250.358C367.86 239.484 369.778 228.404 374.877 218.673C379.977 208.941 388.002 201.048 397.826 196.1C407.651 191.152 418.781 189.398 429.655 191.084C440.53 192.77 450.602 197.812 458.458 205.501C454.021 199.835 448.465 195.136 442.135 191.697C435.805 188.259 428.836 186.152 421.658 185.508C414.48 184.864 407.245 185.696 400.402 187.954C393.559 190.211 387.253 193.845 381.874 198.631C376.495 203.417 372.156 209.254 369.128 215.78C366.099 222.305 364.444 229.382 364.265 236.572C364.087 243.761 365.388 250.911 368.089 257.578C370.789 264.246 374.832 270.29 379.967 275.337C374.307 268.081 370.66 259.466 369.394 250.358V250.358Z" fill="white"/>
</g>
<path d="M394.852 252.457C396.333 258.23 399.895 263.256 404.857 266.572C409.818 269.889 415.831 271.264 421.744 270.435C427.658 269.605 433.058 266.63 436.911 262.077C440.764 257.524 442.8 251.714 442.63 245.757L394.852 252.457Z" fill="#292949"/>
<path d="M404.313 266.143C409.256 269.648 415.334 271.179 421.351 270.432C427.368 269.686 432.886 266.717 436.818 262.112L436.527 261.625C419.384 256.074 404.516 266.009 404.313 266.143Z" fill="#D67086"/>
<path d="M429.776 226.432C430.276 224.418 431.364 222.596 432.902 221.199C434.44 219.801 436.359 218.89 438.415 218.58C440.472 218.271 442.575 218.577 444.457 219.46C446.34 220.343 447.918 221.763 448.991 223.541C449.191 223.874 449.269 224.267 449.213 224.651C449.156 225.036 448.967 225.389 448.679 225.651C448.391 225.912 448.021 226.067 447.632 226.087C447.244 226.108 446.859 225.994 446.545 225.764C443.003 223.173 437.717 221.458 432.741 227.868C432.474 228.218 432.078 228.449 431.64 228.511C431.307 228.556 430.967 228.502 430.664 228.355C430.317 228.185 430.04 227.901 429.878 227.551C429.716 227.201 429.68 226.806 429.776 226.432V226.432Z" fill="#292949"/>
<path d="M381.526 233.2C382.028 231.187 383.118 229.367 384.657 227.971C386.195 226.575 388.114 225.666 390.171 225.358C392.227 225.05 394.329 225.358 396.211 226.241C398.092 227.125 399.669 228.546 400.741 230.324C400.937 230.658 401.013 231.049 400.955 231.432C400.897 231.814 400.709 232.166 400.422 232.427C400.136 232.688 399.768 232.843 399.381 232.865C398.994 232.888 398.61 232.778 398.295 232.553C394.753 229.961 389.466 228.246 384.491 234.656C384.255 234.965 383.919 235.182 383.54 235.272C383.162 235.362 382.764 235.318 382.414 235.149C382.064 234.979 381.783 234.694 381.62 234.342C381.456 233.99 381.419 233.592 381.516 233.216L381.526 233.2Z" fill="#292949"/>
<path d="M390.288 260.36C395.506 258.713 398.397 253.157 396.746 247.95C395.095 242.744 389.527 239.859 384.309 241.507C379.092 243.154 376.201 248.71 377.852 253.917C379.503 259.123 385.071 262.008 390.288 260.36Z" fill="#D67086"/>
<path d="M456.879 250.648C462.315 250.022 466.214 245.117 465.587 239.692C464.96 234.267 460.045 230.377 454.608 231.003C449.172 231.628 445.273 236.533 445.9 241.958C446.527 247.383 451.443 251.273 456.879 250.648Z" fill="#D67086"/>
<path d="M378.97 270.605C379.063 270.739 379.134 270.886 379.183 271.041C379.552 272.445 378.897 273.404 378.871 274.855C378.871 275.503 380.237 276.41 379.084 277.145C378.664 277.405 377.526 277.902 376.617 278.457C375.288 279.26 374.088 281.079 373.403 282.701C372.2 285.629 371.29 288.668 370.687 291.775C370.131 294.526 368.812 298.766 369.311 301.548C369.757 304.072 373.122 307.249 374.634 309.379C376.527 312.077 378.387 314.806 380.211 317.567C381.494 319.51 382.777 321.515 383.301 323.785C383.618 325.153 383.608 326.713 382.751 327.827C382.14 328.509 381.389 329.05 380.549 329.413C379.121 330.149 377.578 330.916 375.979 330.719C374.01 330.481 372.53 328.869 371.305 327.335C368.439 323.899 365.933 320.18 363.826 316.235C362.378 313.426 359.646 308.461 360.285 305.269C361.823 297.98 363.76 290.78 366.086 283.701C366.704 281.742 368.277 280.358 368.833 278.519C369.186 277.363 368.63 276.197 368.724 275.031C368.856 273.753 369.208 272.507 369.762 271.347C370.77 269.3 373.096 268.885 375.091 268.325C375.505 268.164 375.955 268.118 376.394 268.191C377.163 268.356 377.661 268.937 378.175 269.491C378.476 269.836 378.742 270.209 378.97 270.605V270.605Z" fill="#EAC5B0"/>
<path d="M458.906 268.056C458.818 268.191 458.748 268.337 458.698 268.491C458.329 269.9 458.978 270.854 459.01 272.305C459.01 272.953 457.639 273.886 458.791 274.596C459.217 274.86 460.349 275.357 461.263 275.907C462.593 276.71 463.793 278.529 464.473 280.151C465.677 283.078 466.587 286.118 467.189 289.225C467.745 291.982 469.064 296.216 468.57 298.998C468.119 301.522 464.759 304.699 463.247 306.829C461.347 309.534 459.486 312.263 457.665 315.017C456.387 316.96 455.104 318.965 454.574 321.235C454.258 322.609 454.268 324.168 455.13 325.283C455.742 325.952 456.492 326.482 457.327 326.837C458.76 327.578 460.298 328.34 461.897 328.143C463.865 327.905 465.345 326.298 466.571 324.759C469.435 321.323 471.939 317.604 474.044 313.659C475.498 310.855 478.23 305.886 477.586 302.693C476.041 295.412 474.099 288.221 471.769 281.151C471.146 279.192 469.578 277.809 469.017 275.969C468.664 274.813 469.22 273.647 469.126 272.481C468.99 271.204 468.639 269.958 468.087 268.797C467.049 266.724 464.753 266.34 462.759 265.775C462.343 265.615 461.891 265.568 461.45 265.641C460.682 265.807 460.188 266.387 459.674 266.947C459.383 267.291 459.126 267.662 458.906 268.056V268.056Z" fill="#EAC5B0"/>
<path d="M416.149 329.962L415.946 327.417C413.001 328.107 409.361 328.454 406.193 329.242C402.137 327.827 397.593 327.739 393.864 325.588C391.242 324.08 389.273 321.681 387.362 319.333C384.932 316.348 383.826 313.213 380.273 314.395C377.615 315.281 374.099 319.997 371.964 321.909L368.885 324.692C368.629 324.888 368.446 325.163 368.365 325.474C368.356 325.711 368.408 325.947 368.516 326.158C371.315 332.812 375.485 339.507 381.068 344.187C384.548 347.105 387.217 350.406 389.751 353.94C388.474 363.081 389.751 372.839 389.751 381.924C389.751 385.676 387.217 425.843 389.144 425.936C395.833 426.273 402.854 425.138 409.522 424.537C412.57 424.267 416.149 424.931 416.824 421.542C417.307 419.111 416.974 416.219 417.047 413.768C417.296 404.876 417.549 395.985 417.805 387.096C417.868 384.758 418.693 350.126 418.844 350.126L411.054 335.994L416.149 329.962Z" fill="#5D66D3"/>
<path d="M469.489 322.93C469.412 322.617 469.228 322.341 468.97 322.147L465.885 319.365C463.771 317.452 460.25 312.731 457.576 311.85C454.018 310.669 452.902 313.799 450.482 316.784C448.576 319.131 446.602 321.531 443.98 323.044C439.986 325.345 435.053 325.278 430.784 327.019C430.534 327.124 430.289 327.241 430.051 327.371C429.262 327.21 428.421 327.029 427.502 326.801C425.72 326.366 421.877 324.982 422.828 328.501C423.378 330.517 426.603 333.035 427.964 334.652L420.174 348.779L421.389 391.599L421.95 411.333C422.017 413.618 422.075 415.898 422.147 418.184C422.178 419.22 421.898 420.936 422.485 421.77C423.757 423.589 428.405 423.024 430.431 423.179C433.598 423.428 436.803 423.698 439.778 424.776C441.762 425.501 443.642 426.595 445.735 426.89C445.966 426.945 446.206 426.953 446.44 426.915C446.675 426.877 446.899 426.792 447.101 426.667C447.281 426.472 447.42 426.244 447.509 425.994C447.598 425.745 447.636 425.48 447.62 425.216C448.347 415.417 448.363 405.316 448.908 395.408C449.355 387.303 450.466 378.742 449.786 370.627C449.786 370.492 449.786 370.352 449.739 370.223C448.389 362.921 449.272 356.552 448.825 350.333C451.101 347.126 453.761 344.208 456.745 341.643C462.328 336.979 466.493 330.268 469.297 323.609C469.42 323.403 469.486 323.169 469.489 322.93V322.93Z" fill="#5D66D3"/>
<path d="M568.042 310.016C568.218 310.012 568.393 310.036 568.561 310.089C570.015 310.607 570.467 311.731 571.724 312.612C572.285 313.006 573.915 312.348 573.858 313.773C573.858 314.291 573.609 315.582 573.552 316.706C573.474 318.344 574.362 320.463 575.38 322.018C579.373 328.123 584.93 332.973 590.57 337.601C590.873 337.889 591.239 338.102 591.64 338.223C592.372 338.378 593.068 337.912 593.676 337.476C596.496 335.479 599.495 333.744 602.634 332.294C605.433 331.004 608.425 329.926 611.509 329.967C614.594 330.009 617.804 331.336 619.424 333.953C620.024 334.943 620.38 336.06 620.463 337.214C620.546 338.368 620.354 339.526 619.902 340.591C617.617 345.835 609.245 345.732 604.415 346.597C599.839 347.418 595.211 347.916 590.565 348.09C589.993 348.148 589.415 348.09 588.867 347.919C588.312 347.659 587.819 347.287 587.418 346.825C581.882 341.239 576.87 335.196 571.952 329.024C570.602 327.324 570.316 325.138 569.054 323.578C568.249 322.588 566.899 322.386 565.938 321.614C564.893 320.75 564.002 319.714 563.305 318.551C562.106 316.478 563.119 314.182 563.825 312.11C563.929 311.653 564.153 311.233 564.474 310.892C565.076 310.317 565.876 310.228 566.666 310.109C567.12 310.034 567.581 310.003 568.042 310.016V310.016Z" fill="#EAC5B0"/>
<path d="M606.664 350.198C601.767 350.969 596.799 351.19 591.853 350.857C590.666 350.831 589.499 350.551 588.43 350.038C587.598 349.515 586.856 348.86 586.233 348.1C582.39 343.888 578.549 339.677 574.71 335.465C574.159 334.864 573.572 334.087 573.832 333.32C574.043 332.877 574.39 332.514 574.824 332.284L580.386 328.464C580.698 328.198 581.088 328.038 581.497 328.008C581.878 328.062 582.228 328.245 582.489 328.527C584.302 330.081 585.252 332.532 587.21 333.921C588.996 335.196 591.364 335.383 593.53 334.921C602.535 332.988 610.626 325.692 618.458 321.137C622.612 318.722 626.902 316.255 631.669 315.789C641.853 314.794 648.174 326.671 640.711 334.165C634.38 340.523 626.227 345.125 617.668 347.763C614.065 348.845 610.387 349.659 606.664 350.198V350.198Z" fill="#3B3387"/>
<path d="M629.712 503.228L631.311 514.722L624.482 515.666L622.706 502.917L629.712 503.228Z" fill="#EDCEAF"/>
<path d="M624.871 513.79L631.062 515.008L633.072 516.692L633.336 521.242L617.414 524.491C617.044 524.073 616.776 523.576 616.63 523.038C616.484 522.5 616.465 521.936 616.572 521.389C616.68 520.842 616.913 520.328 617.253 519.885C617.592 519.443 618.03 519.084 618.53 518.838L619.247 518.49L624.871 513.79Z" fill="#292949"/>
<path d="M679.157 457.822C682.045 456.869 684.844 454.988 687.747 454.314C687.897 456.568 688.11 458.817 688.303 461.051C684.825 462.733 681.141 463.953 677.345 464.678C677.952 462.44 678.731 460.154 679.157 457.822Z" fill="#EDCEAF"/>
<path d="M688.5 460.932C688.286 460.65 688.15 460.318 688.105 459.968C687.679 458.309 686.547 453.749 688.136 452.314C688.391 452.086 688.51 452.314 688.739 452.422C692.35 454.126 695.612 456.486 698.357 459.382C699.655 460.698 700.912 462.341 701 464.253C700.983 465.013 700.767 465.754 700.372 466.404C699.916 467.349 699.369 468.248 698.741 469.088C698.513 469.399 698.326 469.746 697.884 469.715C696.996 469.653 696.57 468.643 696.399 467.808C696.228 466.974 696.16 465.963 695.604 465.264C695.345 464.982 695.035 464.752 694.69 464.585C692.457 463.326 690.094 463.201 688.5 460.932Z" fill="#292949"/>
<path d="M629.51 451.78C635.077 461.626 643.272 465.958 653.134 469.011C664.419 472.509 674.141 470.597 684.195 464.989C684.366 461.642 684.044 458.315 684.294 455.143C673.113 456.916 667.717 456.522 660.166 446.556C649.26 432.15 660.093 410.944 657.102 393.543C656.812 391.528 656.167 389.58 655.196 387.79C643.35 367.383 622.032 381.022 619.399 399.709C617.046 416.458 621.201 437.052 629.51 451.78Z" fill="#292949"/>
<path d="M650.158 391.972C649.499 386.323 648.156 380.773 646.159 375.446C636.515 376.13 625.775 378.535 616.521 381.644C607.474 384.681 601.938 387.412 603.128 397.465C605.309 415.955 600.012 432.595 599.129 450.749C598.609 461.294 602.894 470.135 607.563 479.251C612.908 489.697 617.688 500.422 621.881 511.38L631.519 510.121C632.911 495.476 629.754 480.836 628.201 466.212C627.126 456.045 626.866 445.535 629.416 435.555C632.215 424.584 638.65 428.014 644.674 421.101C650.537 414.396 651.467 402.705 650.158 391.972Z" fill="#292949"/>
<path d="M637.258 320.437C638.349 321.243 639.374 322.136 640.322 323.106L642.919 325.635C645.936 328.563 647.592 333.03 648.989 336.88C656.447 357.153 660.113 385.277 656.914 406.974C641.002 409.104 622.322 405.938 606.275 404.528C604.717 404.394 602.941 404.129 602.073 402.829C601.621 401.99 601.404 401.044 601.445 400.093C600.801 386.443 603.003 371.637 605.08 358.055C605.933 352.315 607.124 346.631 608.648 341.031C610.284 335.113 612.148 328.718 616.438 324.101C621.008 319.157 630.07 316.395 636.245 319.794C636.594 319.99 636.932 320.204 637.258 320.437V320.437Z" fill="#3B3387"/>
<path d="M635.648 323.386L636.256 317.773C636.626 317.576 636.983 317.356 637.326 317.115C643.786 312.555 653.887 289.235 635.887 284.986C619.539 281.109 621.419 303.211 624.981 312.296C625.563 313.856 626.421 315.299 627.516 316.556C628.284 317.405 628.44 317.229 628.383 318.261C628.326 319.292 627.391 320.427 627.214 321.484C627.098 322.046 627.097 322.626 627.21 323.188C627.324 323.751 627.549 324.285 627.874 324.759C628.319 325.304 628.889 325.735 629.536 326.013C630.537 326.525 631.683 326.684 632.787 326.464C634.101 326.137 635.508 324.723 635.648 323.386Z" fill="#FEE0D4"/>
<path d="M620.821 304.092C621.951 306.994 623.462 309.733 625.313 312.239C624.963 306.786 625.367 301.31 626.513 295.967C626.651 295.569 626.627 295.134 626.445 294.754C626.314 294.607 626.155 294.488 625.976 294.404C625.798 294.32 625.604 294.274 625.407 294.267C618.557 293.122 618.858 299.035 620.821 304.092Z" fill="#1A3151"/>
<path d="M639.055 311.462C640.218 312.939 642.586 312.415 644.248 311.493C650.999 307.71 654.634 299.18 652.77 291.697C651.212 285.431 642.976 281.063 641.729 288.976C641.288 291.78 643.168 295.547 642.924 298.651C642.555 303.082 640.696 307.388 639.055 311.462Z" fill="#1A3151"/>
<path d="M619.752 279.902C618.993 280.244 618.194 280.602 617.404 280.965C615.722 281.716 614.491 282.001 612.673 281.084C612.154 280.819 608.607 277.778 609.391 277.073C604.198 281.737 608.944 287.955 611.188 292.407C612.699 295.413 613.187 299.729 616.355 301.59C619.84 303.663 622.026 300.74 625.038 299.346C627.697 298.118 630.595 297.382 633.306 296.273C637.798 294.428 644.466 291.251 642.654 285.261C640.551 278.265 633.28 276.834 626.846 277.679C624.38 278.052 621.988 278.802 619.752 279.902V279.902Z" fill="#1A3151"/>
<path d="M617.513 329.703C617.682 329.66 617.857 329.641 618.032 329.646C619.59 329.786 620.286 330.77 621.719 331.32C622.358 331.568 623.797 330.532 624.077 331.926C624.186 332.444 624.274 333.745 624.498 334.844C624.825 336.45 626.206 338.29 627.572 339.544C630.169 341.928 639.782 345.426 639.039 349.908C637.294 360.392 623.376 343.778 621.823 342.617C620.785 341.85 619.445 341.985 618.313 341.477C617.087 340.894 615.97 340.107 615.01 339.15C613.337 337.414 613.753 334.963 613.909 332.786C613.897 332.317 614.014 331.853 614.246 331.444C614.682 330.739 615.435 330.454 616.178 330.149C616.607 329.955 617.054 329.806 617.513 329.703V329.703Z" fill="#EAC5B0"/>
<path d="M659.158 362.755C657.807 367.082 649.337 364.258 646.367 362.962C640.131 360.3 634.251 356.872 628.865 352.758C628.496 352.54 628.226 352.187 628.112 351.774C628.111 351.352 628.268 350.945 628.554 350.634L633.098 344.254C633.385 343.769 633.793 343.366 634.282 343.083C636.209 342.192 638.852 344.71 640.81 344.913C641.355 340.114 638.473 336.046 637.05 331.682C635.108 325.707 641.952 324.111 645.65 327.179C650.179 330.936 653.227 336.533 655.169 341.979C657.278 347.887 658.285 354.126 659.246 360.319C659.404 361.127 659.374 361.96 659.158 362.755Z" fill="#3B3387"/>
<path d="M487.723 309.492C486.866 308.616 486.035 307.715 485.22 306.963C485.085 305.792 484.944 304.621 484.809 303.45C484.773 303.276 484.791 303.095 484.861 302.932C484.956 302.802 485.083 302.7 485.23 302.636L487.105 301.6C487.225 301.525 487.359 301.476 487.499 301.455C487.806 301.455 488.05 301.703 488.242 301.942C488.907 302.776 491.27 305.569 491.358 303.31C491.379 303.137 491.453 302.975 491.57 302.846C491.687 302.716 491.842 302.627 492.012 302.589C492.357 302.526 492.711 302.534 493.051 302.615C493.3 302.657 493.57 302.735 493.674 302.973C493.7 303.084 493.7 303.199 493.674 303.31C493.493 304.507 493.254 305.517 493.498 306.73C493.737 308.067 493.976 309.409 494.209 310.746C494.209 310.814 492.454 311.715 492.293 311.814C491.358 312.389 491.742 312.643 490.688 311.995C489.607 311.277 488.612 310.437 487.723 309.492V309.492Z" fill="#EAC5B0"/>
<path d="M532.052 333.237L508.864 336.129L497.143 310.363L491.03 313.985L497.304 351.914L505.41 360.402L521.364 359.086L532.052 333.237Z" fill="#D67086"/>
<path d="M549.305 413.022L540.793 467.684L543.816 507.178L537.62 509.105L532.074 472.618L520.238 405.933L549.305 413.022Z" fill="#EAC5B0"/>
<path d="M537.635 510.219L536.949 514.308L538.502 522.087L543.617 521.656L544.583 510.136L543.83 508.292L537.635 510.219Z" fill="#292949"/>
<path d="M499.174 411.395L501.905 457.76L513.476 522.574L519.744 522.501L516.961 462.403L525.093 407L499.174 411.395Z" fill="#EAC5B0"/>
<path d="M513.581 521.47L505.567 526.714L506.565 530.637L521.241 527.512L520.046 521.848L513.581 521.47Z" fill="#292949"/>
<path d="M497.793 418.344L498.053 472.162L505.427 508.447L522.222 506.022L521.734 464.083L525.219 418.013L523.494 411.038L499.2 413.499L497.793 418.344Z" fill="#292949"/>
<path d="M527.597 464.875L532.795 503.042L547.404 501.011L544.054 464.678L549.471 418.215L546.287 405.632L521.749 409.322L527.597 464.875Z" fill="#292949"/>
<path d="M556.539 350.686C554.924 345.286 552.078 336.087 547.31 333.491L547.009 333.325C546.033 332.818 545.023 332.378 543.987 332.009C542.086 330.812 539.349 330.299 536.649 330.454C534.236 330.267 531.809 330.5 529.477 331.144C528.434 331.488 527.427 331.932 526.47 332.47C523.608 333.957 521.417 334.6 519.641 337.518C518.083 340.052 517.174 343.011 516.005 345.747C506.226 368.626 498.281 399.165 491.935 423.34C494.936 423.05 497.938 422.563 500.935 422.086C514.697 423.64 530.417 427.786 542.559 431.901C546.194 434.062 549.782 436.337 553.335 438.638C552.384 438.073 556.731 418.956 557.058 416.784C558.294 408.98 559.374 401.145 560.112 393.283C561.498 378.675 560.694 364.62 556.539 350.686Z" fill="#D67086"/>
<path d="M550.696 313.198C548.167 303.606 534.825 299.527 531.05 310.28C529.918 313.509 529.144 316.96 529.596 320.36C530.048 323.759 531.881 327.096 534.893 328.651L534.945 328.677C535.464 328.941 532.556 334.455 532.348 334.896C531.999 335.574 531.729 336.291 531.543 337.031C531.19 338.684 531.694 340.399 532.281 341.985C532.82 343.437 533.439 344.86 534.135 346.245C534.184 346.37 534.265 346.48 534.368 346.566C534.633 346.752 534.997 346.566 535.267 346.39C537.42 344.923 539.309 343.105 540.855 341.011C541.272 340.525 541.587 339.962 541.783 339.353C541.978 338.744 542.049 338.103 541.992 337.466C541.992 335.58 540.387 330.926 541.343 329.449C541.707 328.889 543.477 328.475 544.095 328.102C545.106 327.465 546.028 326.698 546.837 325.822C549.891 322.567 551.865 317.639 550.696 313.198Z" fill="#EAC5B0"/>
<path d="M531.201 313.239C529.689 315.675 529.778 318.654 530.162 321.396C530.546 324.137 530.24 326.697 530.863 329.356C530.577 329.77 529.939 329.496 529.544 329.19C527.207 327.404 524.896 325.583 522.611 323.728C522.316 323.552 522.087 323.286 521.956 322.97C521.825 322.653 521.8 322.303 521.884 321.971C522.403 314.519 525.343 309.073 529.528 303.191C531.559 300.335 536.986 297.179 540.066 300.6C540.71 301.438 541.106 302.44 541.208 303.491C541.351 304.105 541.371 304.741 541.265 305.362C540.704 307.803 538.414 307.668 536.622 308.471C534.383 309.491 532.496 311.15 531.201 313.239V313.239Z" fill="#292949"/>
<path d="M548.23 318.147C548.171 320.396 547.785 322.626 547.082 324.764C546.859 325.464 545.524 327.101 545.467 327.578C545.342 328.957 548.183 332.195 548.926 333.403L562.251 326.018C562.609 325.857 562.919 325.605 563.15 325.288C563.301 324.963 563.374 324.608 563.363 324.251C563.612 317.234 561.805 310.923 559.12 304.559C556.435 298.195 550.432 293.049 543.348 293.49C537.635 293.847 533.626 298.06 535.714 303.942C537.272 308.383 542.829 309.321 545.846 312.358C546.641 313.092 547.267 313.99 547.679 314.989C548.09 315.989 548.278 317.067 548.23 318.147Z" fill="#292949"/>
<path d="M277.11 287.551C277.02 287.674 276.947 287.808 276.892 287.95C276.471 289.256 277.032 290.183 276.985 291.552C276.985 292.163 275.62 292.966 276.663 293.697C277.048 293.961 278.092 294.49 278.917 295.055C280.127 295.879 281.161 297.646 281.716 299.2C283.913 305.331 284.381 311.881 284.635 318.375C284.68 318.745 284.633 319.12 284.5 319.468C284.22 320.069 283.508 320.313 282.875 320.504C279.928 321.426 277.074 322.618 274.347 324.065C271.917 325.35 269.538 326.894 267.902 329.102C266.266 331.309 265.487 334.284 266.479 336.875C266.863 337.833 267.468 338.687 268.245 339.366C269.022 340.046 269.949 340.533 270.951 340.788C275.921 341.99 280.356 335.999 283.581 333.014C286.629 330.211 289.477 327.198 292.103 323.997C292.453 323.622 292.724 323.179 292.898 322.697C293.012 322.164 293.012 321.613 292.898 321.08C291.827 314.164 290.381 307.312 288.566 300.553C288.089 298.682 286.681 297.299 286.25 295.563C285.98 294.459 286.562 293.391 286.536 292.287C286.481 291.081 286.222 289.893 285.767 288.774C284.926 286.794 282.76 286.286 280.911 285.665C280.53 285.491 280.108 285.425 279.691 285.473C279.006 285.655 278.396 286.051 277.951 286.603C277.642 286.892 277.36 287.21 277.11 287.551V287.551Z" fill="#EAC5B0"/>
<path d="M281.607 333.222C279.876 329.48 278.135 325.741 276.383 322.002C276.497 322.241 258.892 328.843 257.859 329.258C253.907 330.895 249.83 332.621 246.927 335.751C240.731 342.441 245.784 353.318 255.148 352.069C265.306 350.707 275.801 345.359 283.056 338.166C283.223 338.026 283.353 337.848 283.436 337.647C283.478 337.343 283.414 337.034 283.254 336.772L281.607 333.222Z" fill="#D67086"/>
<path d="M192.641 440.597C192.407 442.006 192.251 443.426 192.122 444.742C191.924 446.976 192.277 449.526 191.711 451.702C191.447 452.554 191.227 453.419 191.052 454.293C190.88 455.175 191.013 456.089 191.431 456.884C191.981 457.776 192.989 458.092 193.887 458.294C194.721 458.535 195.599 458.58 196.453 458.423C198.156 458.004 199.413 456.169 199.932 454.2C200.555 451.842 200.244 449.536 200.156 447.137C200.156 443.374 199.148 440.167 199.304 436.373C199.397 435.737 199.286 435.088 198.987 434.518C198.777 434.251 198.505 434.04 198.195 433.903C197.884 433.766 197.545 433.706 197.206 433.73C195.861 433.767 194.557 434.145 194.017 435.425C193.362 437.091 192.9 438.826 192.641 440.597Z" fill="#292949"/>
<path d="M196.163 437.612C195.46 438.224 194.865 438.95 194.402 439.757C194.059 440.275 193.711 440.965 194.059 441.488C194.197 441.676 194.374 441.832 194.579 441.944L197.144 443.499C197.309 443.622 197.51 443.687 197.715 443.685C197.88 443.648 198.03 443.563 198.146 443.442C198.974 442.746 199.76 442.002 200.499 441.213C203.869 437.658 199.159 435.28 196.163 437.612Z" fill="#EAC5B0"/>
<path d="M255.168 406.001C254.95 405.177 254.238 404.591 253.496 404.088C245.944 398.978 237.483 395.354 228.568 393.413C227.81 393.247 222.98 408.213 222.518 409.67C220.716 415.308 219.179 421.024 217.844 426.797C216.407 433.119 214.92 439.431 213.383 445.732C210.45 442.856 207.302 440.205 203.968 437.804C203.43 437.337 202.771 437.031 202.067 436.923C201.21 436.871 200.426 437.379 199.745 437.902C198.557 438.814 197.447 439.822 196.427 440.918C196.053 441.256 195.786 441.696 195.658 442.183C195.628 442.682 195.736 443.181 195.97 443.623C199.278 451.5 204.523 464.165 208.725 471.607C210.76 475.235 214.655 476.447 218.592 476.136C219.485 476.04 220.36 475.814 221.188 475.468C222.227 475.1 223.364 475.105 224.419 474.742C225.093 474.454 225.684 474.002 226.138 473.426C230.37 468.726 233.258 462.124 235.813 456.397C238.539 450.147 240.903 443.745 242.891 437.223C243.042 436.746 243.192 436.27 243.348 435.798C246.558 426.087 250.889 417.733 254.773 408.203C255.151 407.535 255.29 406.758 255.168 406.001Z" fill="#353A85"/>
<path d="M243.172 516.806C244.553 517.324 246.002 517.246 247.415 517.516C248.849 512.723 249.788 507.797 250.219 502.814C247.358 504.509 245.992 502.581 244.683 507.032C244.262 508.468 244.133 514.712 243.172 516.806Z" fill="#EAC5B0"/>
<path d="M248.863 516.06C248.863 518.796 251.023 521.76 252.218 524.206C252.38 524.486 252.479 524.797 252.509 525.118C252.461 525.597 252.263 526.049 251.943 526.409C251.605 526.985 251.107 527.451 250.509 527.751C249.881 527.94 249.211 527.94 248.583 527.751C247.513 527.518 246.458 527.233 245.415 526.906C245.15 526.838 244.9 526.722 244.677 526.564C244.443 526.342 244.257 526.074 244.132 525.776C243.394 524.294 242.771 523.242 242.808 521.594C242.844 519.946 243.067 518.127 242.756 516.443C242.6 515.624 242.397 514.578 243.098 514.127C243.644 513.78 244.656 514.256 245.228 514.355C246.266 514.526 247.237 514.458 248.198 515.008C248.405 515.107 248.584 515.257 248.718 515.443C248.824 515.631 248.874 515.845 248.863 516.06V516.06Z" fill="#292949"/>
<path d="M241.749 429.258C242.361 441.41 243.665 453.516 242.74 465.751C241.603 480.868 242.569 496.254 240.861 511.225C242.587 511.823 244.356 512.291 246.152 512.624C248.23 513.008 251.538 513.453 252.904 511.51C253.615 510.52 253.787 508.598 254.093 507.432C255.064 503.695 255.947 499.933 256.825 496.171C259.302 485.532 262.065 474.836 263.347 463.989C264.698 452.588 266.147 441.146 267.741 429.787C268.561 423.926 269.164 418.039 269.481 412.126C269.564 410.602 270.374 394.9 269.61 394.786C260.583 393.446 251.382 393.836 242.502 395.937C241.636 396.059 240.842 396.485 240.263 397.139C239.861 397.801 239.7 398.58 239.806 399.347C239.972 406.757 241.027 413.981 241.364 421.407C241.494 424.014 241.619 426.605 241.749 429.258Z" fill="#353A85"/>
<path d="M236.633 331.75C236.488 331.796 236.337 331.848 236.192 331.905C233.746 332.833 231.663 334.496 229.628 336.144C226.569 338.611 225.063 339.689 223.879 343.342C222.844 346.792 222.02 350.302 221.412 353.852C217.948 371.87 217.257 389.816 214.791 407.969C214.115 412.913 213.591 418.723 217.257 422.117C223.754 417.069 231.923 416.779 239.801 416.769C245.337 416.769 250.749 414.976 256.295 415.593C261.597 416.183 266.23 414.862 271.61 415.209C272.908 415.292 274.56 415.276 275.074 414.084C273.21 408.519 273.241 402.528 272.82 396.672C271.73 381.52 266.702 366.984 264.672 351.94C263.981 346.825 263.633 338.336 259.645 334.465C255.334 330.257 245.493 330.169 239.952 330.993C238.825 331.146 237.715 331.4 236.633 331.75V331.75Z" fill="#D67086"/>
<path d="M240.746 331.496C240.843 331.688 240.971 331.863 241.125 332.014C241.793 332.635 242.64 333.028 243.545 333.139C244.721 333.247 245.907 333.163 247.056 332.89C248.614 332.589 248.567 331.677 248.796 330.257C248.92 329.485 248.998 328.703 249.055 327.92C249.087 327.495 248.92 325.956 249.196 325.656C249.383 325.453 250.136 325.521 250.468 325.35C250.995 325.04 251.436 324.603 251.751 324.08C252.216 323.269 252.566 322.397 252.789 321.489L254.223 316.799C254.764 315.218 255.144 313.586 255.355 311.928C255.594 309.425 255.189 305.885 253.278 304.056C251.548 302.382 249.024 301.797 246.713 301.507C243.635 301.076 240.502 301.706 237.833 303.294C236.709 303.931 235.773 304.854 235.122 305.968C234.146 307.767 234.223 310.016 234.327 312.12L234.613 317.939C234.727 320.168 235.002 322.738 236.69 323.951C237.578 324.593 238.768 324.728 239.505 325.552C240.461 326.588 240.398 328.143 240.435 329.444C240.388 330.142 240.495 330.842 240.746 331.496V331.496Z" fill="#EAC5B0"/>
<path d="M250.442 306.414C250.546 306.596 250.633 306.787 250.702 306.984C251.06 308.021 250.821 309.171 251.169 310.202C251.72 311.84 253.631 312.819 253.922 314.524C254.155 315.913 253.205 317.24 253.122 318.644C253.034 320.199 254.02 321.645 253.87 323.163C253.616 324.69 253.013 326.139 252.109 327.397C252.353 327.065 254.566 327.184 255.142 326.832C256.02 326.314 256.124 325.961 256.383 325.044C256.643 324.127 256.441 323.241 256.846 322.308C257.365 321.168 258.367 320.328 258.72 319.11C259.209 317.452 258.326 315.695 258.393 313.965C258.497 311.373 260.767 308.881 259.951 306.393C259.468 304.932 258.045 303.999 257.245 302.683C256.638 301.683 256.415 300.506 255.994 299.418C255.573 298.33 254.851 297.242 253.73 296.91C253.088 296.8 252.442 296.724 251.793 296.682C250.692 296.475 249.772 295.718 248.708 295.355C247.186 294.837 244.501 296.392 243.608 297.667C242.715 298.941 243.172 300.03 244.075 301.165C245.571 303.046 249.201 304.274 250.442 306.414Z" fill="#292949"/>
<path d="M229.934 298.682C229.025 299.351 227.898 299.833 227.062 300.61C225.437 302.134 225.13 304.569 225.073 306.793C225.021 308.772 224.149 310.529 224.367 312.591C224.412 313.289 224.603 313.97 224.927 314.59C225.25 315.21 225.7 315.756 226.247 316.193C227.654 317.23 229.882 317.38 230.49 318.997C231.17 320.753 229.347 322.966 230.453 324.495C231.066 325.334 232.261 325.459 233.138 326.024C234.11 326.656 234.613 327.786 235.216 328.781C235.818 329.776 236.706 330.776 237.869 330.797C237.916 329.035 237.968 327.641 237.215 326.024C236.774 325.086 235.481 323.355 236.472 322.334C237.101 321.489 238.581 321.215 238.622 320.163C238.562 319.67 238.352 319.207 238.02 318.836C237.514 318.021 237.21 317.097 237.132 316.141C237.054 315.185 237.206 314.224 237.573 313.338C238.338 311.563 239.73 310.13 241.484 309.311C243.509 308.337 243.182 307.845 243.769 305.912C244.288 304.134 245.327 303.72 246.921 303.072C248.365 302.491 248.827 302.129 249.357 300.781C249.746 299.802 250.224 298.62 249.658 297.522C249.142 296.689 248.446 295.981 247.622 295.449C245.992 294.205 244.159 292.899 242.112 293.049C240.975 293.127 239.905 293.661 238.768 293.728C238.01 293.77 237.251 293.604 236.493 293.578C235.166 293.532 233.86 293.926 232.78 294.697C231.741 295.475 231.741 296.283 231.165 297.387C230.861 297.908 230.44 298.352 229.934 298.682Z" fill="#292949"/>
<path d="M234.52 291.427C234.717 290.199 234.593 288.598 233.414 288.183C232.77 287.955 232.048 288.209 231.378 288.069C229.95 287.779 229.467 286.059 228.719 284.81C228.618 284.615 228.463 284.453 228.272 284.343C227.969 284.272 227.652 284.281 227.353 284.369C225.93 284.54 224.85 283.141 223.515 282.638C222.674 282.36 221.757 282.424 220.964 282.817C220.17 283.21 219.564 283.9 219.278 284.737C219.075 285.437 219.106 286.183 218.914 286.883C218.135 289.722 213.975 290.925 213.866 293.868C213.799 295.853 215.746 297.755 214.988 299.594C214.505 300.771 212.989 301.574 213.16 302.833C213.254 303.232 213.486 303.585 213.814 303.832C214.142 304.078 214.547 304.201 214.957 304.181C215.782 304.116 216.558 303.764 217.148 303.186C218.125 302.331 218.862 301.237 219.797 300.33C220.732 299.423 221.978 298.693 223.266 298.853C224.554 299.014 225.65 299.983 226.901 299.776C227.893 299.61 228.636 298.739 229.607 298.475C230.578 298.211 231.471 298.599 232.417 298.656C233.362 298.713 234.494 298.221 234.535 297.283C234.501 297.058 234.501 296.829 234.535 296.604C234.738 295.998 235.771 296.029 235.969 295.423C235.481 294.666 234.785 294.936 234.411 293.951C234.167 293.189 234.395 292.199 234.52 291.427Z" fill="#292949"/>
<path d="M234.971 402.674C235.009 402.528 235.026 402.378 235.023 402.228C234.914 400.86 234.041 400.207 233.564 398.927C233.351 398.357 234.291 397.103 233.044 396.823C232.587 396.719 231.424 396.626 230.448 396.419C229.014 396.113 227.384 394.864 226.293 393.636C221.926 388.801 219.023 382.914 216.291 377.001C216.109 376.676 216.009 376.311 216 375.939C216.031 375.275 216.597 374.783 217.106 374.358C219.482 372.39 221.669 370.206 223.639 367.834C225.4 365.719 227.01 363.393 227.68 360.729C228.35 358.065 227.934 354.997 226.044 353.007C225.324 352.259 224.436 351.693 223.454 351.356C222.471 351.019 221.422 350.921 220.394 351.069C215.34 351.836 213.518 359.06 211.664 363.019C209.913 366.771 208.425 370.639 207.213 374.596C207.034 375.076 206.952 375.587 206.974 376.099C207.07 376.637 207.28 377.148 207.592 377.597C211.224 383.598 215.18 389.396 219.443 394.968C220.601 396.522 222.429 397.263 223.484 398.704C224.159 399.626 224.003 400.834 224.47 401.844C224.978 402.94 225.67 403.941 226.516 404.803C228.048 406.317 230.245 405.964 232.198 405.84C232.616 405.855 233.031 405.757 233.397 405.555C233.949 405.129 234.354 404.542 234.556 403.876C234.732 403.489 234.871 403.087 234.971 402.674V402.674Z" fill="#EAC5B0"/>
<path d="M213.424 362.133L222.528 370.533C222.336 370.352 236.103 357.578 236.898 356.785C239.931 353.774 243.047 350.628 244.537 346.633C247.721 338.098 238.902 329.946 230.723 334.657C221.842 339.767 214.167 348.69 210.199 358.096C210.095 358.294 210.045 358.515 210.054 358.739C210.134 359.039 210.318 359.301 210.573 359.48L213.424 362.133Z" fill="#D67086"/>
<path d="M288.413 290.685C306.925 272.212 306.925 242.261 288.413 223.788C269.9 205.315 239.886 205.315 221.373 223.788C202.861 242.261 202.861 272.212 221.373 290.685C239.886 309.158 269.9 309.158 288.413 290.685Z" fill="white"/>
<g opacity="0.08">
<path opacity="0.08" d="M289.75 225.095C292.856 235.343 292.387 246.339 288.419 256.286C284.452 266.233 277.22 274.544 267.907 279.859C258.593 285.174 247.748 287.179 237.145 285.547C226.541 283.915 216.805 278.743 209.529 270.875C211.593 277.683 215.168 283.939 219.99 289.177C224.811 294.416 230.754 298.503 237.376 301.133C243.999 303.763 251.131 304.869 258.241 304.369C265.351 303.869 272.257 301.776 278.444 298.245C284.632 294.714 289.942 289.836 293.979 283.975C298.016 278.113 300.677 271.418 301.764 264.389C302.85 257.359 302.334 250.176 300.254 243.373C298.174 236.57 294.584 230.322 289.75 225.095V225.095Z" fill="black"/>
</g>
<path opacity="0.2" d="M214.115 250.934C216.61 242.106 221.813 234.279 228.993 228.552C236.174 222.825 244.971 219.486 254.15 219.002C263.329 218.519 272.43 220.915 280.174 225.856C287.919 230.797 293.919 238.033 297.332 246.55C295.857 240.72 293.198 235.254 289.521 230.492C285.843 225.729 281.224 221.77 275.95 218.862C270.677 215.953 264.861 214.155 258.863 213.581C252.865 213.006 246.813 213.667 241.081 215.522C235.349 217.376 230.06 220.386 225.542 224.363C221.023 228.341 217.371 233.202 214.812 238.645C212.252 244.089 210.841 249.999 210.664 256.009C210.487 262.019 211.548 268.001 213.783 273.585C211.898 266.137 212.012 258.324 214.115 250.934V250.934Z" fill="white"/>
<path d="M244.568 242.404C243.685 245.513 241.452 247.632 239.609 247.109C237.765 246.586 236.965 243.632 237.848 240.507C238.731 237.382 240.964 235.278 242.808 235.802C244.651 236.325 245.462 239.279 244.568 242.404Z" fill="#292949"/>
<path d="M278.18 251.866C277.297 254.976 275.064 257.095 273.22 256.577C271.376 256.059 270.577 253.094 271.46 249.975C272.342 246.855 274.575 244.741 276.419 245.264C278.263 245.788 279.068 248.747 278.18 251.866Z" fill="#292949"/>
<path d="M223.022 252.908C221.754 260.664 223.391 268.614 227.621 275.242C231.851 281.871 238.377 286.714 245.957 288.848C253.536 290.981 261.637 290.257 268.715 286.812C275.793 283.367 281.353 277.443 284.334 270.17L223.022 252.908Z" fill="#292949"/>
<path d="M227.155 274.471C231.262 281.331 237.794 286.407 245.465 288.7C253.135 290.992 261.388 290.335 268.598 286.857L268.499 286.116C250.748 270.305 227.472 274.414 227.155 274.471Z" fill="#D67086"/>
<path d="M539.989 484.957C572.982 452.034 572.982 398.656 539.989 365.733C506.996 332.811 453.504 332.811 420.511 365.733C387.518 398.656 387.518 452.034 420.511 484.957C453.504 517.88 506.996 517.88 539.989 484.957Z" fill="white"/>
<g opacity="0.08">
<path opacity="0.08" d="M524.455 353.386C534.752 369.464 539.279 388.552 537.297 407.531C535.315 426.51 526.941 444.256 513.543 457.871C500.145 471.485 482.515 480.162 463.535 482.484C444.555 484.806 425.347 480.635 409.05 470.654C415.893 481.33 425.061 490.33 435.87 496.983C446.68 503.636 458.854 507.772 471.486 509.083C484.119 510.394 496.885 508.846 508.835 504.555C520.785 500.263 531.612 493.338 540.511 484.296C549.409 475.253 556.15 464.324 560.232 452.323C564.314 440.322 565.632 427.557 564.088 414.978C562.544 402.398 558.178 390.328 551.315 379.664C544.451 369.001 535.267 360.019 524.444 353.386H524.455Z" fill="black"/>
</g>
<g opacity="0.2">
<path opacity="0.2" d="M407.248 434.233C407.235 417.88 412.358 401.934 421.895 388.635C431.432 375.336 444.905 365.354 460.421 360.089C475.936 354.825 492.715 354.543 508.399 359.284C524.084 364.024 537.886 373.549 547.866 386.52C542.512 377.226 535.302 369.128 526.683 362.729C518.063 356.33 508.219 351.765 497.759 349.319C487.299 346.872 476.447 346.596 465.876 348.506C455.305 350.417 445.24 354.474 436.304 360.426C427.369 366.377 419.754 374.097 413.932 383.107C408.109 392.116 404.203 402.223 402.456 412.8C400.709 423.378 401.158 434.201 403.775 444.598C406.392 454.996 411.122 464.746 417.67 473.244C410.822 461.38 407.227 447.925 407.248 434.233V434.233Z" fill="white"/>
</g>
<path d="M445.621 434.031C445.165 433.579 444.566 433.299 443.926 433.237C443.286 433.176 442.645 433.338 442.111 433.695C441.577 434.052 441.183 434.582 440.997 435.196C440.81 435.81 440.842 436.469 441.088 437.062C444.206 444.835 449.568 451.509 456.493 456.236C463.418 460.963 471.594 463.532 479.984 463.615C488.374 463.698 496.6 461.293 503.618 456.704C510.636 452.115 516.13 445.549 519.402 437.84C520.576 435.078 517.06 432.657 514.9 434.772C502.529 446.732 476.288 463.756 445.621 434.031Z" fill="#292949"/>
<path d="M449.126 414.737C452.565 414.737 455.353 410.051 455.353 404.269C455.353 398.488 452.565 393.801 449.126 393.801C445.687 393.801 442.899 398.488 442.899 404.269C442.899 410.051 445.687 414.737 449.126 414.737Z" fill="#292949"/>
<path d="M511.373 414.737C514.812 414.737 517.6 410.051 517.6 404.269C517.6 398.488 514.812 393.801 511.373 393.801C507.934 393.801 505.146 398.488 505.146 404.269C505.146 410.051 507.934 414.737 511.373 414.737Z" fill="#292949"/>
<path d="M668.957 285.869C669.572 258.429 647.778 235.688 620.279 235.074C592.78 234.461 569.99 256.209 569.375 283.649C568.761 311.089 590.555 333.831 618.054 334.444C645.553 335.057 668.343 313.31 668.957 285.869Z" fill="white"/>
<g opacity="0.08">
<path opacity="0.08" d="M643.214 241.17C649.721 250.353 652.914 261.466 652.273 272.694C651.632 283.922 647.195 294.602 639.685 302.988C632.176 311.374 622.039 316.971 610.929 318.865C599.82 320.759 588.395 318.838 578.521 313.415C582.847 319.514 588.496 324.562 595.046 328.182C601.597 331.802 608.881 333.902 616.357 334.325C623.833 334.749 631.308 333.484 638.227 330.627C645.146 327.769 651.33 323.391 656.319 317.82C661.309 312.248 664.975 305.625 667.045 298.444C669.116 291.263 669.537 283.709 668.277 276.344C667.018 268.978 664.11 261.99 659.771 255.901C655.432 249.811 649.773 244.776 643.214 241.17V241.17Z" fill="black"/>
</g>
<path opacity="0.2" d="M576.445 292.023C575.977 282.392 578.547 272.856 583.793 264.758C589.038 256.659 596.695 250.405 605.688 246.874C614.68 243.344 624.555 242.714 633.925 245.075C643.294 247.435 651.687 252.667 657.922 260.034C654.483 254.774 650.004 250.271 644.759 246.8C639.514 243.328 633.614 240.963 627.421 239.847C621.227 238.732 614.871 238.891 608.741 240.314C602.611 241.736 596.837 244.393 591.772 248.122C586.708 251.85 582.46 256.571 579.289 261.996C576.118 267.42 574.09 273.434 573.33 279.668C572.57 285.902 573.095 292.226 574.871 298.251C576.647 304.275 579.637 309.875 583.658 314.706C579.299 307.908 576.811 300.085 576.445 292.023V292.023Z" fill="white"/>
<path d="M605.875 274.979C605.117 273.319 603.882 271.92 602.327 270.961C600.771 270.003 598.965 269.527 597.138 269.595C595.31 269.662 593.545 270.271 592.065 271.342C590.585 272.413 589.457 273.899 588.825 275.611C588.71 275.931 588.709 276.28 588.822 276.601C588.934 276.921 589.154 277.193 589.443 277.372C589.733 277.55 590.075 277.624 590.412 277.581C590.75 277.538 591.062 277.38 591.297 277.135C593.93 274.331 598.194 271.984 603.543 276.705C603.797 276.931 604.122 277.063 604.463 277.078C604.804 277.094 605.139 276.991 605.412 276.788C605.687 276.586 605.883 276.296 605.968 275.966C606.052 275.636 606.019 275.287 605.875 274.979V274.979Z" fill="#292949"/>
<path d="M648.595 272.968C647.836 271.308 646.6 269.91 645.044 268.952C643.489 267.994 641.682 267.518 639.855 267.586C638.028 267.654 636.262 268.262 634.782 269.332C633.301 270.403 632.173 271.889 631.54 273.6C631.425 273.92 631.424 274.269 631.537 274.59C631.649 274.91 631.868 275.182 632.158 275.361C632.447 275.539 632.789 275.613 633.127 275.57C633.464 275.527 633.777 275.369 634.012 275.124C636.645 272.326 640.909 269.978 646.258 274.694C646.512 274.92 646.837 275.052 647.178 275.068C647.518 275.083 647.854 274.98 648.127 274.777C648.401 274.575 648.597 274.284 648.682 273.955C648.767 273.626 648.736 273.277 648.595 272.968V272.968Z" fill="#292949"/>
<path d="M597.384 295.169V295.101C597.15 290.152 593.343 285.773 587.948 286.038C583.658 286.24 581.316 289.432 580.599 292.35C579.618 289.51 576.964 286.551 572.695 286.753C567.294 287.007 563.918 291.712 564.152 296.666C564.152 296.692 564.152 296.718 564.152 296.744C564.178 297.822 564.718 308.788 581.752 316.955C597.955 307.212 597.462 296.241 597.384 295.169Z" fill="#D67086"/>
<path d="M620.488 312.374C618.924 312.446 617.371 312.071 616.013 311.292C614.655 310.513 613.549 309.364 612.824 307.978C612.099 306.593 611.786 305.029 611.922 303.472C612.058 301.915 612.638 300.43 613.592 299.19C612.834 298.372 612.251 297.409 611.879 296.358C611.507 295.308 611.353 294.193 611.427 293.081C611.502 291.969 611.803 290.885 612.312 289.893C612.821 288.901 613.527 288.024 614.387 287.314C615.248 286.604 616.244 286.076 617.316 285.764C618.387 285.451 619.512 285.36 620.62 285.496C621.728 285.631 622.797 285.991 623.761 286.553C624.725 287.115 625.564 287.867 626.227 288.764C626.448 289.064 626.54 289.44 626.484 289.808C626.427 290.176 626.227 290.507 625.926 290.728C625.625 290.948 625.248 291.041 624.879 290.984C624.51 290.928 624.178 290.727 623.957 290.427C623.498 289.799 622.907 289.278 622.226 288.9C621.545 288.521 620.789 288.294 620.012 288.235C619.235 288.176 618.454 288.285 617.723 288.556C616.992 288.827 616.329 289.252 615.779 289.803C615.228 290.354 614.804 291.017 614.536 291.748C614.267 292.478 614.16 293.257 614.222 294.033C614.284 294.808 614.514 295.561 614.895 296.239C615.277 296.918 615.801 297.505 616.432 297.962C616.603 298.086 616.743 298.246 616.843 298.431C616.942 298.616 617 298.821 617.009 299.031C617.019 299.241 616.982 299.45 616.9 299.643C616.818 299.837 616.694 300.01 616.536 300.149C615.953 300.662 615.488 301.294 615.173 302.003C614.858 302.712 614.7 303.481 614.709 304.256C614.719 305.032 614.897 305.796 615.23 306.496C615.564 307.197 616.045 307.818 616.64 308.315C617.236 308.813 617.933 309.177 618.683 309.381C619.432 309.586 620.218 309.626 620.984 309.5C621.751 309.373 622.482 309.083 623.126 308.649C623.77 308.215 624.312 307.647 624.716 306.984C624.807 306.817 624.931 306.669 625.08 306.551C625.23 306.433 625.403 306.346 625.587 306.297C625.771 306.247 625.964 306.235 626.153 306.262C626.342 306.289 626.524 306.355 626.687 306.454C626.85 306.553 626.991 306.684 627.101 306.84C627.212 306.995 627.289 307.172 627.33 307.358C627.37 307.544 627.371 307.737 627.334 307.924C627.297 308.111 627.223 308.288 627.115 308.446C626.417 309.592 625.448 310.549 624.293 311.234C623.137 311.919 621.831 312.311 620.488 312.374V312.374Z" fill="#292949"/>
<path d="M541.764 413.317C541.502 414.077 541.154 414.804 540.725 415.484C540.521 415.841 540.253 416.159 539.936 416.421C539.695 416.584 539.437 416.721 539.167 416.831L537.324 417.66C537.122 417.774 536.89 417.824 536.659 417.805C536.497 417.757 536.347 417.676 536.218 417.567C535.506 417.049 534.821 416.473 534.14 415.888C534.023 415.801 533.928 415.687 533.865 415.556C533.836 415.412 533.845 415.263 533.891 415.123C533.936 414.984 534.017 414.858 534.125 414.758C535.049 413.602 534.717 413.203 535.013 411.929C535.215 411.089 535.813 410.674 536.451 410.115C537.49 409.172 538.575 408.239 539.64 407.301C539.759 407.197 542.237 408.933 542.522 409.12C542.133 410.053 542.309 411.219 542.081 412.229C541.996 412.598 541.89 412.961 541.764 413.317V413.317Z" fill="#EAC5B0"/>
<path d="M543.177 340.555C542.702 341.013 542.294 341.537 541.966 342.109C540.471 344.643 540.253 347.784 540.762 350.691C541.567 355.288 543.826 359.661 545.145 364.139C546.658 369.259 548.167 374.377 549.673 379.494L537.479 408.208L543.379 411.52L564.729 379.654C562.397 372.954 560.086 366.419 558.19 359.62C556.487 353.531 555.905 346.618 551.6 341.684C549.164 338.896 545.633 338.274 543.177 340.555Z" fill="#D67086"/>
<path d="M311.23 487.423C310.144 493.31 309.256 500.021 313.084 504.706C316.776 509.214 323.387 510.033 329.302 510.5C339.169 511.287 349.847 511.894 358.239 506.774C361.12 505.007 363.57 502.622 365.413 499.794C367.256 496.965 368.446 493.763 368.896 490.419C368.972 490.003 368.964 489.576 368.87 489.164C368.645 488.598 368.274 488.101 367.795 487.724L357.117 477.613C355.642 475.924 353.621 474.802 351.405 474.442C342.005 472.182 329.754 469.197 320.032 470.68C311.583 471.965 312.512 480.474 311.23 487.423Z" fill="#292949"/>
<path d="M317.077 443.634C317.723 442.372 317.959 440.94 317.751 439.539C317.544 438.137 316.903 436.835 315.919 435.814L304.852 424.288C302.775 422.133 299.628 419.852 298.423 417.189C296.299 412.473 295.649 406.363 294.606 401.321C294.086 398.761 292.814 395.367 293.146 392.76C293.209 392.273 295.12 388.096 295.011 388.013L294.117 387.282L293.39 388.174L292.58 388.251L293.894 385.116L290.217 383.831L286.696 386.64C287.304 389.402 288.639 392.06 288.576 394.931C288.576 396.144 288.327 397.341 288.197 398.559C287.974 400.632 288.031 402.705 288 404.777C287.969 406.85 287.553 408.794 287.553 410.768C287.553 415.178 287.584 419.578 287.6 423.998L305.589 444.986C306.335 445.849 307.281 446.516 308.346 446.929C309.41 447.342 310.559 447.488 311.693 447.355C312.827 447.221 313.911 446.812 314.85 446.163C315.788 445.515 316.553 444.646 317.077 443.634V443.634Z" fill="#B97262"/>
<path d="M301.207 421.029C301.332 420.454 301.456 419.878 301.586 419.308C304.006 419.205 306.442 419.521 308.883 419.34C311.884 419.122 314.834 418.443 317.831 418.153C319.176 418.023 320.531 417.966 321.887 417.914C327.859 417.686 323.782 426.652 322.988 429.787C321.823 434.466 320.341 439.061 318.553 443.54C317.616 445.896 316.545 448.195 315.343 450.427C314.725 451.562 313.51 455.195 312.227 455.532C311.189 455.801 310.342 454.734 309.771 453.832C306.915 449.355 303.144 445.53 298.704 442.608C298.378 442.441 298.116 442.174 297.956 441.846C297.894 441.594 297.894 441.331 297.956 441.079C298.922 434.378 299.82 427.615 301.207 421.029Z" fill="#474EBB"/>
<path d="M350.886 441.659C350.237 440.398 350 438.967 350.206 437.565C350.413 436.163 351.054 434.86 352.039 433.839L363.111 422.314C365.188 420.153 368.335 417.878 369.535 415.214C371.659 410.498 372.313 404.389 373.352 399.346C373.871 396.786 375.143 393.387 374.816 390.785C374.754 390.293 372.838 386.121 372.952 386.038L373.845 385.308L374.567 386.199L375.377 386.277L374.068 383.136L377.74 381.856L381.266 384.665C380.659 387.427 379.319 390.086 379.381 392.957C379.407 394.169 379.63 395.366 379.76 396.584C379.984 398.657 379.926 400.73 379.958 402.803C379.989 404.876 380.409 406.819 380.404 408.793C380.404 413.204 380.373 417.603 380.357 422.024L362.368 443.011C361.623 443.874 360.677 444.542 359.613 444.955C358.549 445.368 357.4 445.514 356.267 445.38C355.133 445.247 354.05 444.838 353.111 444.189C352.173 443.54 351.409 442.671 350.886 441.659V441.659Z" fill="#B97262"/>
<path d="M366.75 419.065C366.631 418.489 366.506 417.914 366.376 417.344C363.956 417.24 361.515 417.551 359.074 417.375C356.073 417.158 353.123 416.479 350.126 416.188C348.781 416.054 347.426 416.002 346.076 415.95C340.098 415.722 344.18 424.687 344.969 427.822C346.134 432.502 347.616 437.097 349.405 441.576C350.343 443.931 351.416 446.231 352.619 448.463C353.232 449.598 354.452 453.226 355.735 453.562C356.774 453.837 357.615 452.769 358.192 451.868C361.043 447.387 364.815 443.561 369.258 440.643C369.583 440.475 369.845 440.208 370.006 439.881C370.066 439.629 370.066 439.367 370.006 439.114C369.061 432.429 368.142 425.641 366.75 419.065Z" fill="#474EBB"/>
<path d="M328.834 415.359C323.984 416.277 319.793 418.163 316.994 422.962C314.994 426.403 314.158 430.429 313.312 434.274C311.104 444.328 310.118 454.578 309.017 464.792C307.978 474.571 305.153 484.884 308.274 494.528C308.69 495.818 309.879 497.368 311.063 496.699C311.683 494.571 312.297 492.438 312.907 490.299C313.108 489.364 313.504 488.481 314.07 487.708C314.639 487.102 315.324 486.615 316.085 486.278C320.206 484.191 324.699 482.935 329.307 482.583C334.412 482.199 339.527 482.946 344.466 484.2C349.405 485.454 354.037 487.625 358.945 488.532C362.158 489.126 365.338 489.878 368.485 490.786C368.587 490.827 368.699 490.838 368.807 490.817C368.999 490.755 369.061 490.512 369.087 490.299C369.352 488.136 369.176 485.941 368.568 483.847C367.966 481.738 368.007 479.427 367.794 477.23C367.375 472.495 366.693 467.788 365.753 463.129C363.65 453.029 359.968 443.312 358.156 433.119C357.382 428.719 356.904 421.423 352.744 418.054C348.221 414.396 338.011 414.209 332.267 414.857C331.109 414.986 329.956 415.147 328.834 415.359Z" fill="#474EBB"/>
<path d="M336.287 416.639C335.337 417.266 332.968 417.748 330.346 417.09C330.087 417.029 329.853 416.889 329.675 416.691C329.498 416.493 329.386 416.245 329.354 415.981C329.182 414.464 329.111 412.937 329.141 411.41C329.141 411.017 323.75 409.306 323.143 408.866C319.762 406.425 319.18 402.046 318.988 398.185C318.9 396.413 318.864 394.522 319.762 393.003C320.801 391.252 322.816 390.366 324.768 389.796C327.985 388.867 331.342 388.516 334.682 388.759C337.725 388.982 341.034 389.899 342.69 392.454C345.074 396.123 344.472 403.337 342.441 407C341.267 409.12 339.387 409.794 337.892 411.452C336.51 412.965 336.921 414.779 336.287 416.639Z" fill="#736052"/>
<path d="M345.385 388.106C345.858 387.261 346.32 386.443 346.013 385.577C345.811 384.981 345.276 384.541 344.975 384.023C344.258 382.66 345.125 380.913 344.622 379.467C343.962 377.55 341.189 376.762 340.986 374.741C340.254 374.093 339.387 375.342 338.571 375.881C336.712 377.094 334.49 374.254 332.293 374.586C330.615 374.834 329.514 376.871 327.821 376.793C326.559 376.736 325.323 375.472 324.186 376.063C323.693 376.327 323.433 376.881 322.997 377.234C321.61 378.364 318.884 377.234 318.115 378.846C317.663 379.789 317.855 380.623 316.879 381.255C316.027 381.81 314.34 380.898 313.815 382.11C313.722 382.387 313.695 382.682 313.737 382.971L314.345 391.78C314.325 392.588 314.532 393.385 314.942 394.081C315.274 394.537 315.789 394.869 316.012 395.392C316.287 396.035 316.048 396.786 316.214 397.465C316.479 398.569 320.068 404.228 321.143 402.347C321.527 401.673 321.392 400.839 321.262 400.072C321.075 398.952 320.935 397.724 321.512 396.745C322.42 395.19 324.55 395.04 326.346 394.926C328.028 394.9 329.685 394.519 331.207 393.806C332.246 393.262 333.607 392.506 334.391 393.361C334.599 393.584 334.708 393.879 334.947 394.076C335.372 394.402 335.985 394.221 336.463 393.946C336.883 393.608 337.381 393.378 337.912 393.278C338.431 393.252 339.023 393.853 338.727 394.314C338.914 394.858 339.688 394.149 340.285 394.185C340.758 394.216 340.971 394.781 341.069 395.247C341.365 396.636 341.667 398.03 341.963 399.424C342.542 399.461 343.119 399.314 343.61 399.005C344.101 398.696 344.482 398.241 344.7 397.703C345.915 394.962 344.035 392.33 344.663 389.713C344.827 389.146 345.07 388.605 345.385 388.106V388.106Z" fill="#1A1A1A"/>
<path d="M364.369 405.545C382.472 387.48 382.472 358.193 364.369 340.128C346.266 322.064 316.916 322.064 298.813 340.128C280.71 358.193 280.71 387.48 298.813 405.545C316.916 423.609 346.266 423.609 364.369 405.545Z" fill="white"/>
<g opacity="0.08">
<path opacity="0.08" d="M353.856 332.211C359.931 340.742 362.927 351.077 362.355 361.527C361.784 371.977 357.677 381.925 350.707 389.745C343.737 397.565 334.315 402.795 323.981 404.582C313.647 406.368 303.011 404.605 293.812 399.579C297.849 405.249 303.116 409.938 309.221 413.296C315.325 416.653 322.11 418.594 329.07 418.973C336.03 419.353 342.987 418.161 349.421 415.487C355.856 412.812 361.604 408.724 366.236 403.527C370.868 398.329 374.267 392.156 376.178 385.467C378.088 378.778 378.463 371.745 377.273 364.891C376.084 358.037 373.36 351.54 369.306 345.882C365.251 340.224 359.971 335.551 353.856 332.211V332.211Z" fill="black"/>
</g>
<path opacity="0.2" d="M291.828 379.685C291.384 370.727 293.761 361.856 298.627 354.315C303.493 346.774 310.603 340.943 318.959 337.639C327.315 334.335 336.498 333.725 345.219 335.894C353.94 338.063 361.762 342.902 367.587 349.732C364.402 344.779 360.232 340.531 355.334 337.253C350.436 333.975 344.915 331.737 339.114 330.676C333.313 329.616 327.355 329.757 321.611 331.09C315.867 332.422 310.458 334.919 305.721 338.425C300.984 341.93 297.019 346.369 294.073 351.467C291.127 356.566 289.262 362.213 288.594 368.06C287.926 373.908 288.47 379.829 290.191 385.458C291.912 391.087 294.774 396.303 298.6 400.782C294.525 394.465 292.189 387.189 291.828 379.685Z" fill="white"/>
<path d="M312.85 378.535C312.588 378.298 312.252 378.159 311.899 378.142C311.546 378.125 311.198 378.23 310.914 378.44C310.63 378.651 310.429 378.953 310.343 379.295C310.258 379.637 310.294 379.999 310.446 380.317C312.365 384.494 315.484 388.007 319.407 390.411C323.33 392.815 327.881 394.002 332.482 393.821C337.082 393.64 341.525 392.1 345.247 389.394C348.968 386.689 351.8 382.942 353.384 378.628C353.501 378.298 353.501 377.939 353.384 377.609C353.267 377.28 353.04 377 352.741 376.818C352.442 376.636 352.089 376.562 351.742 376.608C351.395 376.655 351.074 376.819 350.834 377.073C344.384 383.955 330.46 393.993 312.85 378.535Z" fill="#292949"/>
<path d="M342.939 360.055C343.493 358.45 344.513 357.045 345.868 356.019C347.223 354.992 348.854 354.391 350.552 354.29C352.25 354.19 353.941 354.595 355.408 355.454C356.875 356.314 358.054 357.588 358.794 359.117C358.931 359.403 358.965 359.728 358.89 360.036C358.815 360.344 358.636 360.617 358.383 360.809C358.13 361.001 357.818 361.1 357.5 361.089C357.183 361.078 356.878 360.958 356.639 360.749C353.949 358.391 349.789 356.604 345.255 361.444C345.01 361.709 344.671 361.869 344.31 361.889C344.085 361.898 343.86 361.852 343.657 361.755C343.453 361.658 343.276 361.512 343.141 361.332C343.006 361.151 342.917 360.941 342.882 360.718C342.847 360.496 342.867 360.268 342.939 360.055V360.055Z" fill="#292949"/>
<path d="M303.164 362.019C303.717 360.413 304.735 359.008 306.09 357.981C307.445 356.955 309.076 356.353 310.774 356.252C312.472 356.152 314.162 356.557 315.629 357.417C317.096 358.277 318.274 359.552 319.014 361.081C319.148 361.367 319.18 361.689 319.105 361.996C319.03 362.302 318.852 362.574 318.6 362.765C318.348 362.956 318.039 363.055 317.723 363.045C317.407 363.036 317.103 362.919 316.864 362.713C314.174 360.356 310.014 358.568 305.48 363.408C305.235 363.673 304.896 363.833 304.535 363.853C304.309 363.862 304.085 363.816 303.881 363.719C303.678 363.622 303.501 363.476 303.366 363.296C303.231 363.115 303.142 362.905 303.107 362.682C303.072 362.46 303.091 362.232 303.164 362.019V362.019Z" fill="#292949"/>
<path d="M302.16 387.001C305.914 384.593 307 379.604 304.587 375.859C302.174 372.113 297.175 371.029 293.422 373.437C289.668 375.844 288.581 380.833 290.994 384.578C293.407 388.324 298.406 389.408 302.16 387.001Z" fill="#D67086"/>
<path d="M374.032 377.187C374.11 378.782 373.713 380.364 372.89 381.733C372.067 383.102 370.856 384.197 369.41 384.88C367.964 385.563 366.347 385.802 364.765 385.568C363.182 385.334 361.705 384.637 360.519 383.566C359.333 382.494 358.492 381.095 358.103 379.547C357.713 377.998 357.793 376.37 358.331 374.866C358.869 373.363 359.841 372.052 361.126 371.1C362.41 370.148 363.948 369.597 365.546 369.518C367.691 369.412 369.789 370.161 371.381 371.599C372.972 373.037 373.926 375.047 374.032 377.187Z" fill="#D67086"/>
<path d="M327.672 517.842C326.337 518.133 325.034 517.842 323.699 517.889C323.073 513.312 322.916 508.682 323.231 504.073C325.6 506.022 327.121 504.457 327.682 508.701C327.864 510.079 327.095 515.795 327.672 517.842Z" fill="#B97262"/>
<path d="M323.064 515.64C321.444 515.318 321.647 519.029 321.761 519.889C321.877 520.399 321.929 520.921 321.917 521.444C321.813 522.012 321.592 522.552 321.268 523.03L319.46 526.139C319.161 526.593 318.94 527.094 318.806 527.621C318.722 528.287 318.873 528.962 319.233 529.529C319.593 530.097 320.14 530.521 320.779 530.73C325.209 532.197 328.221 526.585 328.621 523.154C328.684 522.636 328.704 522.118 328.725 521.558C328.772 520.459 329.244 518.003 328.652 517.023C327.977 515.878 326.601 516.982 325.536 516.671C324.57 516.407 323.719 515.769 323.064 515.64Z" fill="#292949"/>
<path d="M334.048 451.806C334.439 452.245 334.804 452.707 335.139 453.19C337.787 457.024 338.727 461.828 338.623 466.487C338.519 471.146 337.444 475.717 336.38 480.251C335.092 485.718 333.43 491.18 333.16 496.746C333.015 499.71 332.516 502.679 332.189 505.623C331.893 508.25 331.576 510.878 331.379 513.515C331.311 514.443 331.161 514.495 330.169 514.65C328.954 514.837 327.726 514.92 326.497 514.899C324.082 514.858 321.69 514.412 319.424 513.578C317.809 512.982 318.292 509.893 318.157 508.499C317.752 504.441 317.435 500.379 317.118 496.316C316.51 488.19 315.763 480.075 315.524 471.928C315.316 464.886 314.189 457.936 319.159 452.184C321.023 450.018 323.599 448.266 326.43 448.142C329.26 448.018 332.08 449.609 334.048 451.806Z" fill="#292949"/>
<path d="M346.73 515.624C348.111 515.852 349.431 515.495 350.791 515.479C351.211 510.764 351.145 506.018 350.594 501.316C348.267 503.431 346.637 501.902 346.268 506.276C346.138 507.691 347.208 513.5 346.73 515.624Z" fill="#B97262"/>
<path d="M351.326 513.147C352.962 512.738 352.942 516.542 352.884 517.433C352.794 517.96 352.768 518.496 352.807 519.029C352.936 519.606 353.187 520.148 353.544 520.62L355.549 523.729C355.875 524.18 356.126 524.68 356.291 525.211C356.412 525.89 356.291 526.589 355.95 527.188C355.608 527.787 355.068 528.249 354.422 528.492C349.961 530.207 346.632 524.636 346.029 521.123C345.941 520.605 345.894 520.045 345.842 519.501C345.744 518.376 345.146 515.873 345.697 514.837C346.336 513.635 347.774 514.697 348.854 514.319C349.846 514.002 350.662 513.313 351.326 513.147Z" fill="#292949"/>
<path d="M338.275 451.888C337.918 452.333 337.586 452.799 337.284 453.282C334.889 457.128 334.204 461.833 334.521 466.347C334.838 470.86 336.079 475.255 337.341 479.608C338.847 484.858 340.716 490.081 341.241 495.471C341.376 496.885 344.102 512.701 343.806 512.712C345.723 512.624 347.629 513.147 349.566 512.935C351.643 512.707 353.72 512.572 355.824 512.261C355.772 511.136 356.161 510.38 356.286 509.317C356.41 508.255 356.286 507.245 356.353 506.208C356.556 502.254 356.67 498.29 356.774 494.331C356.987 486.417 357.33 478.504 357.184 470.586C357.054 463.74 357.828 456.951 352.749 451.588C350.838 449.572 348.257 447.991 345.479 448.007C342.7 448.022 340.088 449.665 338.275 451.888Z" fill="#292949"/>
</g>
<defs>
<linearGradient id="paint0_linear" x1="892" y1="-107.5" x2="305.171" y2="521.592" gradientUnits="userSpaceOnUse">
<stop stop-color="#FF9B00"/>
<stop offset="1" stop-color="#FFD28C"/>
</linearGradient>
<clipPath id="clip0">
<rect width="510" height="350" fill="white" transform="translate(191 181)"/>
</clipPath>
</defs>
</svg>
