<svg width="36" height="37" viewBox="0 0 36 37" fill="none" xmlns="http://www.w3.org/2000/svg">
<path d="M22.1988 4.98633C19.1761 4.98633 16.7178 7.44461 16.7178 10.4673C16.7178 11.1783 17.2925 11.753 18.0035 11.753C18.7145 11.753 19.2892 11.1783 19.2892 10.4673C19.2892 8.86276 20.5942 7.55776 22.1988 7.55776C23.8033 7.55776 25.1083 8.86276 25.1083 10.4673C25.1083 12.0706 23.8033 13.3756 22.1988 13.3756C21.4878 13.3756 20.9131 13.9503 20.9131 14.6613C20.9131 14.687 20.9259 14.7076 20.9272 14.732C20.9259 14.7578 20.9131 14.7783 20.9131 14.804V17.4796C20.9131 18.1906 21.4878 18.7653 22.1988 18.7653C22.9098 18.7653 23.4845 18.1906 23.4845 17.4796V15.7799C25.8849 15.1975 27.6798 13.0452 27.6798 10.4686C27.6785 7.44461 25.2202 4.98633 22.1988 4.98633Z" fill="white"/>
<path d="M22.1988 19.25C21.4878 19.25 20.9131 19.8247 20.9131 20.5357V21.3316C20.9131 22.0426 21.4878 22.6173 22.1988 22.6173C22.9098 22.6173 23.4845 22.0426 23.4845 21.3316V20.5357C23.4845 19.8247 22.9085 19.25 22.1988 19.25Z" fill="white"/>
<path d="M22.1991 0C14.589 0 8.397 6.19071 8.397 13.8009C8.397 17.2029 9.64028 20.3143 11.6884 22.7224L8.37643 26.0229C6.948 25.3787 5.148 25.6114 4.00886 26.7519L1.13143 29.6293C0.402429 30.3583 0 31.3277 0 32.3576C0 33.3887 0.402429 34.3581 1.12886 35.0846C1.85657 35.8123 2.826 36.2147 3.85714 36.2147C4.887 36.2147 5.85643 35.8123 6.58414 35.0846L9.46157 32.2071C10.1893 31.4794 10.5917 30.51 10.5917 29.4801C10.5917 28.8977 10.4503 28.3397 10.2073 27.8293L13.527 24.525C15.8991 26.4471 18.9141 27.6043 22.1979 27.6043C29.8093 27.603 36 21.411 36 13.8009C36 6.19071 29.8093 0 22.1991 0ZM7.64357 30.3891L4.76614 33.2666C4.27629 33.7513 3.43414 33.7539 2.94814 33.2653C2.70514 33.0236 2.57143 32.7021 2.57143 32.3576C2.57143 32.0143 2.70514 31.6916 2.94814 31.4486L5.82557 28.5711C6.06857 28.3294 6.39129 28.1944 6.73457 28.1944C7.07914 28.1944 7.40057 28.3281 7.64357 28.5724C7.88657 28.8141 8.02029 29.1356 8.02029 29.4801C8.02029 29.8221 7.88657 30.1449 7.64357 30.3891ZM22.1991 25.0316C16.0071 25.0316 10.9697 19.9941 10.9697 13.8021C10.9697 7.61014 16.0059 2.57143 22.1991 2.57143C28.3924 2.57143 33.4286 7.60886 33.4286 13.8009C33.4286 19.9929 28.3911 25.0316 22.1991 25.0316Z" fill="white"/>
</svg>
