<svg id="OBJECTS" xmlns="http://www.w3.org/2000/svg" viewBox="0 0 139.28 238.74"><defs><style>.cls-1{fill:#ffcbb6;}.cls-2{fill:#edebeb;}.cls-3{fill:#efaa9a;}.cls-4{fill:#722c20;}.cls-5{fill:#994734;}.cls-6{fill:#6a9e6a;}.cls-7{fill:#467c46;}.cls-8{fill:#fff;}.cls-9{fill:#8cb57d;}.cls-10{fill:#ffe2d7;}</style></defs><title>cautious</title><path class="cls-1" d="M197.63,291.87c0-.93-.1-1.86-.13-2.79-.29-8.29,1.69-18.16,6.94-24.84,4.49-5.74,14-14,21-16.25,17.21-5.74,38.17-3.46,54.14,3.78C291.27,257,301,268,301,287.7c0,12.47-3.24,16.72-5.49,25.2,6.74-.5,10.73,6,8.74,12.22a16.6,16.6,0,0,1-7.24,8.24c-3.49,2.25-7,1.75-10.23,2.74-2.75,1-4.49,5.49-7.74,7.74a79.4,79.4,0,0,1-9.23,5c-4.49,2-11.73,5-16.72,5v7.74c.25,1.49,0,4.49.75,5.73,1.25,1.75,1.25,1,3.49,1.5,3.75,1,7-2.24,4.25,4.74a42,42,0,0,1-7,11.48c-2,2.25-7.49,10-11,9.23-3-.5-7-9.23-8-12-2-4.5-7.31-14.34-2.74-14.65s8.48,4.17,9.47-.08c1-4-.22-13.33-.22-13.33a48.05,48.05,0,0,1-9-1.64,70,70,0,0,1-9.71-4.58c-3-1.75-5.26-4.65-8-6.9-4.25-4.24-4-2.74-9.49-2.74-14.22,0-19.46-23-3.74-21.71-1-.08-2.89-11.43-3.15-12.85A105.88,105.88,0,0,1,197.63,291.87Z" transform="translate(-180.36 -231.36)"/><polygon class="cls-2" points="63.57 137.3 58.44 141.31 66.45 154.89 75.36 142.84 70.5 138.16 66.9 139.1 63.57 137.3"/><path class="cls-3" d="M246.11,328.62l.19-.54a4,4,0,0,1,.29-.6,4.15,4.15,0,0,1,.48-.73,6.89,6.89,0,0,1,1.6-1.52,8.65,8.65,0,0,1,1.07-.64,10.12,10.12,0,0,1,1.18-.49,11.91,11.91,0,0,1,1.24-.32,9,9,0,0,1,1.22-.18,10.2,10.2,0,0,1,2.17,0,7.28,7.28,0,0,1,1.49.3l.55.18-.58,0c-.36,0-.87,0-1.48.07-.3,0-.63.06-1,.1s-.7.11-1.07.15a19.53,19.53,0,0,0-2.25.57,9.5,9.5,0,0,0-1.09.43,10.54,10.54,0,0,0-1,.5c-.31.19-.63.37-.9.57s-.53.39-.75.59a6.32,6.32,0,0,0-.58.57,3.56,3.56,0,0,0-.43.48Z" transform="translate(-180.36 -231.36)"/><path class="cls-3" d="M244.11,300.92c-.15.63-.29,1.26-.39,1.89s-.17,1.27-.24,1.9a30.45,30.45,0,0,0-.08,3.82c0,.63.1,1.26.19,1.89a16.22,16.22,0,0,0,.38,1.84,13.06,13.06,0,0,0,.61,1.76,8.82,8.82,0,0,0,.9,1.59,3,3,0,0,0,.57.7,7.58,7.58,0,0,0,.65.62l.74.49a6.58,6.58,0,0,0,.82.36c.14.05.27.12.42.16l.44.08c.28,0,.61.13.86.14a7.62,7.62,0,0,0,1.81-.12,3.86,3.86,0,0,0,2.74-1.85,4.42,4.42,0,0,0,.47-1.66,7.29,7.29,0,0,0-.1-1.8v0l-.45-1.18-.62-1.15c-.47-.75-.9-1.54-1.33-2.36v0h0l-.46-1.42-.32-1.45-.2-1.46-.1-1.46c0-1,0-1.95,0-2.92s.09-1.94.15-2.91c0,1,.09,1.94.11,2.91s.1,1.93.19,2.89l.17,1.43.26,1.4.37,1.38.49,1.33v0l.67,1.13.72,1.13.68,1.21.52,1.32h0v0a8.07,8.07,0,0,1,.14,2,5.29,5.29,0,0,1-.54,2,4.4,4.4,0,0,1-1.44,1.59,5.52,5.52,0,0,1-2,.78,9.3,9.3,0,0,1-2,.11,9.75,9.75,0,0,1-1-.18l-.51-.11a4.68,4.68,0,0,1-.48-.18c-.31-.15-.64-.25-.94-.43l-.85-.59a7.17,7.17,0,0,1-.74-.72,4.37,4.37,0,0,1-.63-.79,9.81,9.81,0,0,1-1-1.77,14.82,14.82,0,0,1-.56-1.91,14.24,14.24,0,0,1-.31-1.94c-.07-.65-.09-1.31-.11-2s0-1.3.08-1.94.15-1.29.24-1.93.22-1.28.39-1.9S243.9,301.53,244.11,300.92Z" transform="translate(-180.36 -231.36)"/><path d="M260.34,296.54a6.32,6.32,0,0,0-.86-5.75,1.83,1.83,0,0,0-2.21-.52c-1.44.57-1.2,2.87-1,4.06s.26,2.8,1.19,3.78c.78.83,1.61.47,2.22-.32A4.6,4.6,0,0,0,260.34,296.54Z" transform="translate(-180.36 -231.36)"/><path d="M236.81,299a6.32,6.32,0,0,1-.42-5.79,1.82,1.82,0,0,1,2-1c1.53.23,1.8,2.53,1.88,3.74s.37,2.78-.32,3.94c-.59,1-1.47.81-2.24.17A4.58,4.58,0,0,1,236.81,299Z" transform="translate(-180.36 -231.36)"/><path class="cls-4" d="M231.14,286c3,.75,6.48-.5,9.48-1.5-.75,3.5-7.5,4.55-9.48,1.5" transform="translate(-180.36 -231.36)"/><path class="cls-4" d="M251.35,272.48c3,0,6,2,7.73,4.24-.16-.21,0-1.11-.09-1.39a4.46,4.46,0,0,0-.4-1.3,5.35,5.35,0,0,0-2-2c-1.28-.78-3.57-1.36-4.89-.32C251.66,271.75,251.1,272.48,251.35,272.48Z" transform="translate(-180.36 -231.36)"/><path class="cls-4" d="M312,289.44c-.28-5.71-.59-13.95-5.52-17.85-5.58-4.43-11.61-.15-14.21,5.08a58.22,58.22,0,0,0-4.22,11c-1.5,7,2.24,10.23,7.23,14.47-3,3.49-5,10.23-4.49,15,.5,3.49,1.75,6,4,2.75,1.24-1.75,1-5,1.49-7,4-.75,4.49,3.24,7.74,1.5C311,310.9,312.48,294.68,312,289.44Z" transform="translate(-180.36 -231.36)"/><path class="cls-5" d="M196.2,263.94c3.5-9,10.48-15.72,17.72-22,10.73-9.48,24-12,37.93-10,13.47,2,25.45,9.73,37.42,15.47,8.74,4.24,23,7.48,28.7,15.47,7.48,10.41-12.27,12.48-18.13,10-6.4-2.72-13.44-3-19.91-5.47s-13.05-2.78-19.89-4.34a109.52,109.52,0,0,0-14.67-2.75c-6.32-.58-13.1-.45-19.22,1.26-4.53,1.26-7.92,3.6-12,5.79-2.81,1.51-10.75,6.37-10.75,6.37,2.18,5.67,1.62,4.81,2.94,6.83,4.45,6.88,5.28,17.93-3.17,22.24,2,3.74,8.48,13.72,4.74,18.22-4.49,5.24-3.37-6.81-11-4-3-4-5-8.48-8-12.47s-7.49-9-8.49-14.23c-1.24-7.73,7.24-16.71,14-18.46C194.46,271.92,195.21,265.93,196.2,263.94Z" transform="translate(-180.36 -231.36)"/><path class="cls-6" d="M238.62,370.54c-2.19-3.07-3.52-3.74-7.48-3.77-3,0-5.74.08-7,2.92a41.06,41.06,0,0,0-2.66,9.93,138,138,0,0,0-1.44,17.7c-.3,8.29-2.27,36.07-2.37,41.09-.1,5.38,10.61,4.74,11.23.67,2.25-14.57,1.85-25.24,3.59-44.79,0,14.23.15,23.66-.35,37.88-.49,12.73.25,25.45.25,37.93,12.48-.25,25.46-2.25,38.18-1,.5-12.23-4-63.08-6.49-74.81-.25,5.24,13.52,38.71,15.52,44.2.75,1.74,3,2,5.19,2,3,0,2.71-8.59,2.71-10.84-.25-6-5.05-15.29-6.45-21-2.93-11.85-6-18.72-8.41-30.32-1.18-5.64-7.81-13.32-13.8-9.83-5,3-9,12-11.72,17C244.86,383,238.62,370.54,238.62,370.54Z" transform="translate(-180.36 -231.36)"/><path class="cls-7" d="M236.7,371.4c1.09,1.68,2.12,3.39,3.18,5.09l3.08,5.13c.52.86,1,1.72,1.51,2.59l.75,1.29.79,1.26c1.05,1.7,2.17,3.33,3.24,5l-.89.21c.2-.91.38-1.83.6-2.74s.59-1.77.9-2.64l1.1-2.55c.41-.82.84-1.64,1.26-2.45.9-1.61,1.79-3.21,2.71-4.79l1.36-2.38,1.3-2.42c-.35.85-.7,1.7-1.07,2.53L255.34,377l-2.45,4.91c-.39.82-.75,1.65-1.15,2.47l-1,2.51c-.29.85-.55,1.72-.83,2.57s-.35,1.75-.54,2.63v.05a.47.47,0,0,1-.57.37.49.49,0,0,1-.31-.21c-1.1-1.67-2.18-3.38-3.21-5.08l-.78-1.29-.73-1.31c-.49-.88-1-1.75-1.44-2.63l-2.84-5.28C238.53,375,237.59,373.2,236.7,371.4Z" transform="translate(-180.36 -231.36)"/><path class="cls-7" d="M240.1,377.36a1.25,1.25,0,0,1,.11-.34c0-.09,0-.16,0-.22s0-.07.09-.13a.57.57,0,0,1,.41,0,1.67,1.67,0,0,1,.32.11.72.72,0,0,1,.05.33.53.53,0,0,1-.24.43.64.64,0,0,1-.54.06A1.17,1.17,0,0,1,240.1,377.36Z" transform="translate(-180.36 -231.36)"/><path class="cls-7" d="M242.05,380.88a1.2,1.2,0,0,1,.12-.35c.06-.08.05-.17.08-.22s0-.08.09-.14a.67.67,0,0,1,.45-.1,2,2,0,0,1,.35.08.89.89,0,0,1,0,.35.7.7,0,0,1-.26.48.93.93,0,0,1-.32.13.4.4,0,0,1-.29,0A1,1,0,0,1,242.05,380.88Z" transform="translate(-180.36 -231.36)"/><path class="cls-7" d="M244.11,384.4a1.39,1.39,0,0,1,0-.38.87.87,0,0,1,.28-.51.6.6,0,0,1,.43-.2,2.11,2.11,0,0,1,.38,0,.8.8,0,0,1,.07.36,1,1,0,0,1-.25.61.77.77,0,0,1-.54.18A1.33,1.33,0,0,1,244.11,384.4Z" transform="translate(-180.36 -231.36)"/><path class="cls-7" d="M246.9,385.61a2.4,2.4,0,0,1,.4.51,4.07,4.07,0,0,1,.46,1.21,4.38,4.38,0,0,1,0,1.29,2.59,2.59,0,0,1-.17.64,2.2,2.2,0,0,1-.39-.51,3.92,3.92,0,0,1-.5-2.51A2.91,2.91,0,0,1,246.9,385.61Z" transform="translate(-180.36 -231.36)"/><path class="cls-7" d="M248.73,382.82a1.72,1.72,0,0,1,.48.06,2,2,0,0,1,.78.44,1.85,1.85,0,0,1,.48.73,1.67,1.67,0,0,1,.08.47,1.77,1.77,0,0,1-.49-.06,2,2,0,0,1-.78-.44,1.83,1.83,0,0,1-.47-.73A1.36,1.36,0,0,1,248.73,382.82Z" transform="translate(-180.36 -231.36)"/><path class="cls-7" d="M250.18,380.15a1.62,1.62,0,0,1,.46-.07,1.71,1.71,0,0,1,.77.21,1.46,1.46,0,0,1,.56.54,1.41,1.41,0,0,1,.16.41,1.44,1.44,0,0,1-.46.08,1.63,1.63,0,0,1-.79-.18,1.57,1.57,0,0,1-.55-.57A1.32,1.32,0,0,1,250.18,380.15Z" transform="translate(-180.36 -231.36)"/><path class="cls-7" d="M252.13,377.23a1.44,1.44,0,0,1,.39-.12,1.11,1.11,0,0,1,1.17.58,1.64,1.64,0,0,1,.14.39,1.4,1.4,0,0,1-.4.13,1.26,1.26,0,0,1-.68-.1,1.22,1.22,0,0,1-.49-.49A1.29,1.29,0,0,1,252.13,377.23Z" transform="translate(-180.36 -231.36)"/><polygon class="cls-8" points="53.58 134.83 61.05 133.21 66.54 138.88 74.73 133.84 81.91 136.31 76.98 145.44 66.54 138.88 57 144.67 53.58 134.83"/><path class="cls-6" d="M273.51,448.42c-.93-.72-1.43-4.68-1.42-6.61,0-1.44-.4-2.9.13-4.26s1.74-3,2.59-1.53c1.29,2.13.85,5.94,1.06,8.38C275.87,446.14,276,449.67,273.51,448.42Z" transform="translate(-180.36 -231.36)"/><path class="cls-1" d="M283.85,437.16c5.74,1,7.24,7.73,8.24,12.72,1,5.24,3.24,12.48-2.25,15-1.5.74-2.24,0-4,1-1.25.75-2.25,3.25-3.74,3.5-3.25.5-6.49-4.74-8-7.24-1-1.25-2-2.24-2.24-4,3.49-1.5,6.23,2.74,8.48,5a37.33,37.33,0,0,1-3-19.46c-2.5.5-6.74,2-8.49.25a4.37,4.37,0,0,1-.77-4.25,5.16,5.16,0,0,1,1.06-2,2.5,2.5,0,0,1,2.34-.82c1.36,0,2.72-.06,4.08-.1A41.47,41.47,0,0,1,283.85,437.16Z" transform="translate(-180.36 -231.36)"/><path class="cls-3" d="M277.18,440.49a3.42,3.42,0,0,1,.36.75,6.86,6.86,0,0,1,.36,1.69,7.13,7.13,0,0,1-.19,1.76,3.36,3.36,0,0,1-.28.79,4,4,0,0,1-.29-.77,6,6,0,0,1-.23-1.68c0-.31,0-.63,0-.92a6.33,6.33,0,0,1,.08-.82A4.15,4.15,0,0,1,277.18,440.49Z" transform="translate(-180.36 -231.36)"/><path class="cls-3" d="M279.11,461.61a3,3,0,0,1,.63.43,6.08,6.08,0,0,1,1,1.17,5.47,5.47,0,0,1,.68,1.41,2.88,2.88,0,0,1,.15.74,3.55,3.55,0,0,1-.64-.44,5.66,5.66,0,0,1-1-1.16,5.82,5.82,0,0,1-.68-1.41A3.4,3.4,0,0,1,279.11,461.61Z" transform="translate(-180.36 -231.36)"/><path class="cls-3" d="M284.85,466.85a6,6,0,0,1-.11-1.1,12.65,12.65,0,0,1,.15-2.36,13.48,13.48,0,0,1,.7-2.28,6.89,6.89,0,0,1,.51-1,7.19,7.19,0,0,1,.06,1.1,13.23,13.23,0,0,1-.28,2.32,13,13,0,0,1-.58,2.3A7,7,0,0,1,284.85,466.85Z" transform="translate(-180.36 -231.36)"/><path class="cls-3" d="M288.59,465.36a3.4,3.4,0,0,1,0-.73,4.39,4.39,0,0,1,.09-.68c0-.25.14-.5.18-.75a5,5,0,0,1,.57-1.28,3.42,3.42,0,0,1,.45-.56,2.55,2.55,0,0,1,.11.7,5.65,5.65,0,0,1-.19,1.5,4,4,0,0,1-.68,1.29A2.83,2.83,0,0,1,288.59,465.36Z" transform="translate(-180.36 -231.36)"/><path class="cls-9" d="M247.67,433.42a237.92,237.92,0,0,0,26.7,2.24c-2.49,5.49-1.75,7-.25,12.73-11.23.75-23-2-33.93-3.75-5.74-.74-11.73-1-17.47-1.74-3.74-.5-5.74,0-5.74-4.49a7.9,7.9,0,0,1,2.43-5.49c3.54-3.6,8.54-3.63,13.21-2.88C237.7,430.86,242.57,432.69,247.67,433.42Z" transform="translate(-180.36 -231.36)"/><path class="cls-7" d="M264.64,435.41l-.2.55c-.06.17-.15.38-.24.62a4.17,4.17,0,0,0-.27.8c-.08.3-.16.62-.26.94s-.12.71-.2,1.07c0,.19-.06.37-.1.56s0,.39,0,.59c0,.4-.08.79-.06,1.2l0,1.2c0,.4.07.79.1,1.17s.06.75.13,1.09.12.68.16,1c.09.61.23,1.12.28,1.48s.1.58.1.58l-.28-.51a10.76,10.76,0,0,1-.65-1.4,12,12,0,0,1-.61-2.1,11.5,11.5,0,0,1-.2-1.22l-.06-1.29c0-.43.07-.87.1-1.29a5.47,5.47,0,0,1,.24-1.23,11.32,11.32,0,0,1,.35-1.12c.15-.35.31-.67.46-1,.07-.14.13-.28.21-.41l.24-.33.4-.53C264.51,435.58,264.64,435.41,264.64,435.41Z" transform="translate(-180.36 -231.36)"/><path class="cls-7" d="M264.68,444.51a4.81,4.81,0,0,1,.86-.37,9.36,9.36,0,0,1,1.94-.42,9.63,9.63,0,0,1,2,.08,4.36,4.36,0,0,1,.92.23,4.78,4.78,0,0,1-.87.34,8.43,8.43,0,0,1-1.93.35c-.36,0-.72,0-1,0a8.9,8.9,0,0,1-.94-.05A5.2,5.2,0,0,1,264.68,444.51Z" transform="translate(-180.36 -231.36)"/><path class="cls-7" d="M264.32,440.87a6,6,0,0,1,1.07-.19l1.07-.1c.38,0,.79,0,1.19-.05s.83,0,1.21,0,.75,0,1.07,0a7.54,7.54,0,0,1,1.07.16,6,6,0,0,1-1,.42,8.63,8.63,0,0,1-2.32.36,8.74,8.74,0,0,1-2.33-.28A5.58,5.58,0,0,1,264.32,440.87Z" transform="translate(-180.36 -231.36)"/><path class="cls-7" d="M266.26,437.47a4.68,4.68,0,0,1,.94-.16,3.29,3.29,0,0,1,.45,0c.16,0,.33,0,.49,0,.34,0,.69,0,1,0a9.9,9.9,0,0,1,2,.21,4.76,4.76,0,0,1,.91.27,4.26,4.26,0,0,1-.91.3,9.75,9.75,0,0,1-2,.22c-.38,0-.76-.05-1.11-.11a3.72,3.72,0,0,1-.92-.25A5.07,5.07,0,0,1,266.26,437.47Z" transform="translate(-180.36 -231.36)"/><path class="cls-6" d="M288.37,386.17c-.56,2.08-4.89,2.46-6.72,2.4-2.27-.08-4.85-.8-4.85-3.56,0-2.1,2.92-2.33,4.83-1.95C284.12,383.56,289.33,382.67,288.37,386.17Z" transform="translate(-180.36 -231.36)"/><path class="cls-10" d="M279,391.5c6.49,1.49,6-2,5.49-7a66.62,66.62,0,0,1,0-12.23c.25-5,.75-11-.75-15.72-1.49-5.74-7.23-11.48-10.72-16.22-3.5-5-6.74-11.47-13.73-9.48-2.49.75-15.47,8.49-8.73,10,3,.75,4.74-3.49,7.73-4,2.75-.5,5.74-1.05,8.49,3,1.09,1.61,4.42,5.89,4.17,8.14-.25,2-3.06,1.66-5.26,6.88a7.67,7.67,0,0,0-.91,2.69c0,.41-2.74-.25-3.49,1.25-1.5,2.24,1.49,6.24,3,8,3.25,4.5,5.74,9.74,11.73,10.73h0c1.5,2.75,3.24,6.49,3.24,9Z" transform="translate(-180.36 -231.36)"/><path class="cls-3" d="M280,354.57l-.18.21c-.12.14-.29.34-.53.58-.47.48-1.17,1.16-2,1.94a14.76,14.76,0,0,0-2.46,2.92,6.77,6.77,0,0,0-.74,1.92l-.09.49,0,.57a9.66,9.66,0,0,0,0,1.07,6,6,0,0,0,.53,2,3.51,3.51,0,0,0,1.23,1.49,1.38,1.38,0,0,0,1.51.1,2.12,2.12,0,0,0,.75-1.35,8.07,8.07,0,0,0-.06-2.7c-.12-.66-.2-1-.2-1s0,.09.1.26a7.33,7.33,0,0,1,.29.73,7.54,7.54,0,0,1,.44,2.82,2.6,2.6,0,0,1-.88,1.88,2.12,2.12,0,0,1-2.4.06,4.24,4.24,0,0,1-1.64-1.82,6.56,6.56,0,0,1-.66-2.37,10.06,10.06,0,0,1,0-1.23l.05-.57c0-.26.07-.42.11-.63a7.07,7.07,0,0,1,.94-2.17,12.57,12.57,0,0,1,2.83-2.89c.92-.71,1.73-1.24,2.25-1.66S280,354.57,280,354.57Z" transform="translate(-180.36 -231.36)"/><path class="cls-3" d="M278.05,367.93s0,.13,0,.36,0,.26-.07.42a4.17,4.17,0,0,0,0,.52c0,.18,0,.37,0,.58s0,.45,0,.68a5.82,5.82,0,0,0,0,.72V372c0,.5,0,1,.05,1.48,0,.23,0,.46,0,.68s0,.42,0,.61,0,.38,0,.53,0,.29,0,.41,0,.37,0,.37-.08-.11-.2-.31a4,4,0,0,1-.42-.88,6.2,6.2,0,0,1-.36-1.31,11,11,0,0,1-.18-1.55,11.12,11.12,0,0,1,.11-1.56c0-.25.1-.49.14-.72s.15-.44.22-.63a3.08,3.08,0,0,1,.23-.51l.23-.34C278,368,278.05,367.93,278.05,367.93Z" transform="translate(-180.36 -231.36)"/><path class="cls-3" d="M267.07,367.54l.21.12a4.59,4.59,0,0,0,.61.32,5.24,5.24,0,0,0,1,.32,4.66,4.66,0,0,0,1.31.06,3.45,3.45,0,0,0,1.42-.44,2.92,2.92,0,0,0,1.1-1.13,3.21,3.21,0,0,0,.36-1.67v-.28c0,.06,0,0,0,0l0-.13-.08-.5a4.22,4.22,0,0,0-.31-.81,5.87,5.87,0,0,0-1.05-1.53,10.9,10.9,0,0,0-1.42-1.22,12.92,12.92,0,0,0-1.5-.95c-.5-.28-1-.52-1.45-.72s-.88-.38-1.26-.54-.73-.26-1-.34l-.9-.27.25,0a4.07,4.07,0,0,1,.69.06,9.53,9.53,0,0,1,1.07.18,9.87,9.87,0,0,1,1.37.35A11.79,11.79,0,0,1,269,359a10.5,10.5,0,0,1,1.67.9,9.45,9.45,0,0,1,1.61,1.27,6.88,6.88,0,0,1,1.27,1.77,5.93,5.93,0,0,1,.37,1.1l.07.5,0,.12v.45a3.92,3.92,0,0,1-.57,2.1,3.42,3.42,0,0,1-1.52,1.36,3.86,3.86,0,0,1-1.74.36,4.26,4.26,0,0,1-1.43-.29,5,5,0,0,1-1-.51,3.23,3.23,0,0,1-.54-.43Z" transform="translate(-180.36 -231.36)"/><path class="cls-3" d="M269.81,360.31l-.14-.57a3.59,3.59,0,0,1-.11-.67,4,4,0,0,1,0-.91,4.2,4.2,0,0,1,.18-1.06,6.12,6.12,0,0,1,.44-1.13,7.94,7.94,0,0,1,.7-1.08,11.62,11.62,0,0,1,.88-1c.33-.29.65-.58,1-.83s.69-.49,1-.72c.68-.44,1.32-.8,1.89-1.1,1.12-.59,1.9-.93,1.9-.93a18.34,18.34,0,0,1-1.59,1.41c-.49.4-1.07.86-1.68,1.33s-1.25,1-1.83,1.56a11.24,11.24,0,0,0-1.51,1.78,7.71,7.71,0,0,0-.49.94,5.3,5.3,0,0,0-.33.91,8,8,0,0,0-.18.8c-.05.25-.06.48-.08.66C269.83,360.09,269.81,360.31,269.81,360.31Z" transform="translate(-180.36 -231.36)"/><path class="cls-9" d="M276.8,385c.75,10.23,0,30.33,1.05,46.31a19.46,19.46,0,0,0,1.74,7.17c.8,1.68,2.75,4.4,4.85,4.49s2.72-2.81,2.93-4.42c.53-4.13-.07-8.3.15-12.45a1.09,1.09,0,0,1,0-.18,125.65,125.65,0,0,0,.25-13.72c-.25-5,0-9.74.13-15.34.08-4,.37-7.87.37-12.11a19.9,19.9,0,0,1-11.48.25" transform="translate(-180.36 -231.36)"/><path class="cls-7" d="M277.55,395.24l.42.08.47.12c.18,0,.38,0,.6.06l.68.08c.25,0,.52,0,.79,0s.56,0,.84,0l.88,0c.58,0,1.17,0,1.72,0h.8l.72,0c.22,0,.43,0,.61,0l.47,0H287l-.37.2a4.88,4.88,0,0,1-1.05.41,7.84,7.84,0,0,1-1.54.33,13.31,13.31,0,0,1-1.81.12,13.05,13.05,0,0,1-1.8-.19c-.29-.05-.56-.12-.82-.18a6.38,6.38,0,0,1-.74-.26,5.37,5.37,0,0,1-.58-.27l-.39-.28Z" transform="translate(-180.36 -231.36)"/><path class="cls-7" d="M280.06,386.58l.18.3a3.27,3.27,0,0,1,.38.83,5.82,5.82,0,0,1,.3,1.29,13.79,13.79,0,0,1,.09,1.46c0,.49,0,1-.05,1.43s0,.87-.08,1.23,0,.66-.06.89,0,.35,0,.35a2.69,2.69,0,0,1-.16-.31,4.38,4.38,0,0,1-.32-.87,7.39,7.39,0,0,1-.23-1.27c-.06-.47-.05-1-.07-1.45,0-1,0-1.91.06-2.62,0-.36,0-.69,0-.9S280.06,386.58,280.06,386.58Z" transform="translate(-180.36 -231.36)"/><path class="cls-7" d="M284.07,386.83s.07.1.17.28a4.19,4.19,0,0,1,.38.79,7.35,7.35,0,0,1,.31,1.21,12.14,12.14,0,0,1,.15,1.38,23,23,0,0,1-.05,2.56c0,.35,0,.64-.07.85s0,.34,0,.34a5.08,5.08,0,0,1-.46-1.13,11.63,11.63,0,0,1-.38-2.57c0-.46,0-.92,0-1.35s0-.82,0-1.17,0-.65,0-.86S284.07,386.83,284.07,386.83Z" transform="translate(-180.36 -231.36)"/><path class="cls-7" d="M287.1,387.68a6.5,6.5,0,0,1,.36,1.08,9.34,9.34,0,0,1,.26,2.45,11,11,0,0,1-.36,2.44,6,6,0,0,1-.38,1.07,6.81,6.81,0,0,1-.19-1.12,20.17,20.17,0,0,1-.07-2.41c0-.43,0-.86.06-1.26s.07-.8.11-1.13A7.77,7.77,0,0,1,287.1,387.68Z" transform="translate(-180.36 -231.36)"/></svg>