<svg width="338" height="843" viewBox="0 0 338 843" fill="none" xmlns="http://www.w3.org/2000/svg">
<path d="M99.155 52.3858C101.061 45.8359 108.821 43.0746 114.436 46.9484L164.294 81.3468C164.758 81.667 165.249 81.9473 165.76 82.1849L242.901 118.021C251.391 121.965 250.292 134.369 241.241 136.759L138.865 163.791L33.0798 202.058C23.5945 205.489 15.5715 194.312 21.8569 186.423L80.9595 112.24C81.7712 111.221 82.3761 110.053 82.7401 108.802L99.155 52.3858Z" fill="url(#paint0_linear)" fill-opacity="0.1"/>
<path d="M220.144 582.431C234.019 592.775 229.099 614.663 212.132 618.074L66.6855 647.313C64.9191 647.668 63.2088 648.26 61.6009 649.073L-71.3775 716.327C-87.872 724.669 -105.886 708.089 -98.9365 690.961L-30.556 522.421L24.8192 337.944C30.5511 318.848 57.6361 318.978 63.1847 338.128L108.362 494.045C109.576 498.232 112.124 501.908 115.619 504.514L220.144 582.431Z" fill="url(#paint1_linear)" fill-opacity="0.1"/>
<defs>
<linearGradient id="paint0_linear" x1="79.345" y1="13.6305" x2="129.578" y2="173.255" gradientUnits="userSpaceOnUse">
<stop stop-color="#3420AD"/>
<stop offset="1" stop-color="#21B7B7"/>
</linearGradient>
<linearGradient id="paint1_linear" x1="258.741" y1="601.678" x2="-34.7027" y2="499.148" gradientUnits="userSpaceOnUse">
<stop stop-color="#3420AD"/>
<stop offset="1" stop-color="#21B7B7"/>
</linearGradient>
</defs>
</svg>
