<svg xmlns="http://www.w3.org/2000/svg" viewBox="0 0 572.28 588.43"><defs><style>.cls-1{isolation:isolate;}.cls-2{fill:#4f0808;}.cls-3,.cls-4{fill:#2e2e42;}.cls-4{opacity:0.3;}.cls-12,.cls-4,.cls-6{mix-blend-mode:multiply;}.cls-5,.cls-6{fill:#3a3a52;}.cls-6{opacity:0.4;}.cls-7{fill:#4a4a64;}.cls-8{fill:#f9ba85;}.cls-9{fill:#e7985d;}.cls-10{fill:#c7dadd;}.cls-11,.cls-12{fill:#dfe9eb;}.cls-13{fill:#8c0000;}.cls-14,.cls-15{fill:#763c26;}.cls-15{opacity:0.15;mix-blend-mode:screen;}.cls-16{fill:#682917;}.cls-17{fill:#f9ddc5;}.cls-18{fill:#1c2235;}.cls-19{fill:#fff;}</style></defs><title>confidence</title><g class="cls-1"><g id="Layer_1" data-name="Layer 1"><path class="cls-2" d="M452.37,417c-25.13,13.79-96.55,57.71-122.48,79.54-37.63,33.17-125.6,124.21-125.6,124.21s19.86-18.93,53.1-10.15S293,649,334.51,619.87c0,0,56.33,6,103.43-31.4L543.22,414.85S498.66,393.38,452.37,417Z" transform="translate(-175.67 -246.62)"/><path class="cls-3" d="M265.36,751.24a64.67,64.67,0,0,1-14.55,7.27s-9,31.52-1.38,76.54l5.19-1.38s5.54-50.22,24.59-60.26Z" transform="translate(-175.67 -246.62)"/><path class="cls-4" d="M279.21,773.41l-13.85-22.17a55.1,55.1,0,0,1-8.55,4.77c-1.1,8.29-2.73,28.8,4.9,44.82C265.53,789.06,271.16,777.65,279.21,773.41Z" transform="translate(-175.67 -246.62)"/><path class="cls-5" d="M540,553.49l-87.62-24.24S442,540,428.82,563.19,342.59,684.06,274.71,739.12l-8,1-4.15,7.27c-1.73,15.59,2.77,29.44,17.31,29.44,0,0,53.13-46,93.86-84.16,34.7-32.55,56-57.21,72.65-73.68,22.58,30.05,77.3,77.15,109.86,63.64C583.91,671.2,570.46,596.78,540,553.49ZM466.81,601.8c6.72-4.27,13.25-6.65,20.54-7.09,22.86-1.39,40.86,16.62,45,49.17C504.36,636.14,474.59,609.19,466.81,601.8Z" transform="translate(-175.67 -246.62)"/><path class="cls-6" d="M556.27,682.67a18.77,18.77,0,0,0,7.67-6c-9.41,5.35-22.42,10.35-50.27-5.73-26.73-15.44-30.54-39.36-25.93-51.36a256.8,256.8,0,0,1-20.93-17.74c6.72-4.27,13.25-6.65,20.54-7.09,22.86-1.39,40.86,16.62,45,49.17,0,0,0,12.47,5.19,19,0,0-2.77-11.43-3.11-19.74s-5.89-44.67-31.17-52.29c-21.82-6.58-37.21,6.05-56.87,28.13C469,649.08,523.71,696.18,556.27,682.67Z" transform="translate(-175.67 -246.62)"/><path class="cls-6" d="M266.74,740.16s-2.42,13.85,5.2,22.51c0,0-2.77-10.74,2.77-23.55Z" transform="translate(-175.67 -246.62)"/><path class="cls-3" d="M452.37,529.25c.69,19,22,37.46,54.37,38.1,35,.69,41.56-14.89,41.56-14.89Z" transform="translate(-175.67 -246.62)"/><path class="cls-7" d="M501.89,559s-4.15,6.58-5.88,9c0,0,12.12,1.73,20.78.35a48.71,48.71,0,0,0,6.58-9Z" transform="translate(-175.67 -246.62)"/><path class="cls-8" d="M718.16,299s-3.24-.27-6-4.38-8.1-10.38-7.3-14.47,7.39-6.85,7.39-6.85,1.08-19,11.26-15c0,0,3-3,6.35-2.15,3.11.78,4.66,4.55,4.66,4.55s7.62-.93,8.25,6.56c0,0,6.13-.31,5,7.17s-3.23,9.61-4.93,10.33c0,0-.9,8.63-3.59,11.76a29,29,0,0,1-5.14,4.77l-9.4,3.56Z" transform="translate(-175.67 -246.62)"/><path class="cls-9" d="M712.29,273.27s12-3.53,14,1.16-10.39,9.85-10.39,9.85A18.29,18.29,0,0,1,729.8,296s.56-8.24-4.86-12.23l2.25-1.19s3.95,5.85,8.24.56c0,0,2.11,5.62,7.45,1.64,0,0-6.36-.85-6.41-6.33,0,0-3.93,6.15-8.13.9a5,5,0,0,0,.45-6.7C726.16,268.73,718.36,269.23,712.29,273.27Z" transform="translate(-175.67 -246.62)"/><path class="cls-10" d="M592.53,444.61s-7.46-18.91,3-47.24c0,0,77.43-6.33,119.57-87.19l14.38,2.94S697.09,416.78,592.53,444.61Z" transform="translate(-175.67 -246.62)"/><path class="cls-10" d="M731.18,317.78,709.91,313,716,298.53s12.29.43,18.24,3.11Z" transform="translate(-175.67 -246.62)"/><path class="cls-11" d="M518.17,398.69s4.85,19.74-9.35,46.41c0,0-77.58-4.16-130.22,70.3l-13.85-4.85S410.81,412.2,518.17,398.69Z" transform="translate(-175.67 -246.62)"/><path class="cls-8" d="M373.58,524.58s6.67,6.4,7.71,10.56.08,8.66.6,14.89c.37,4.37-.46,9.64-6.52,6.7,0,0-5.68,5.6-10.39,8.31-4.94,2.85-8.54-1.33-7.16-5.66,0,0-4.5-1.12-4.84-7.62a11.44,11.44,0,0,1-4.33-8.4s-4.42-1.36-3.06-7.18c1.15-4.94,7.91-11.08,10.33-13.16,1.87-1.6,7.45-2.95,7.45-2.95Z" transform="translate(-175.67 -246.62)"/><path class="cls-11" d="M363.71,505.7l20.44,7.62-8,13.51s-12.12-2.08-17.66-5.54Z" transform="translate(-175.67 -246.62)"/><path class="cls-11" d="M504,435.17c-3.69,15.93-16.85,40.63-42,72-5.62,7-12.88,15.6-12.24,20.32.7,5.08,15,33.71,60,34.63s53.8-21.52,59.57-36.94c9.93-26.55,23.32-60.49,28.4-113.59l-83.35-6Z" transform="translate(-175.67 -246.62)"/><path class="cls-12" d="M577,454.79s9.7-13.5,10.39-30.13l-19.74,7.28-39.48-17.32s4.85,24.24,19,41.9l14-9.36c-3,16.59-15.2,70.15-53.06,114.93.5,0,1,0,1.49.06,1.95,0,3.8,0,5.61,0,16.87-21.14,39.16-57.57,51.37-115.89Z" transform="translate(-175.67 -246.62)"/><path class="cls-13" d="M452.37,417s21.47-10,50.22-6.23,39.82,23.9,64.76,23.9,46.06-31.17,49.87-42.95a161.71,161.71,0,0,1-32.9,0C538.26,387.26,499.82,390,452.37,417Z" transform="translate(-175.67 -246.62)"/><path class="cls-13" d="M560.08,428.47s-15.94-2.77-25.63,4.85-6.58,24.59-16.28,32.9c0,0,16.62-1.73,24.59-12.81s12.81-13.86,17.66-14.89h13.85s4.51,0,8,8.31-3.46,19.39-6.58,21.82c0,0,20.67-3.58,21.82-21.48,1-16.27-11.43-26-25.63-18.35Z" transform="translate(-175.67 -246.62)"/><path class="cls-13" d="M329.89,496.58c-31.4,24-70.19,36-102.51,57.26s-68.8,70.19-42.95,115.9c0,0,12.68-34.86,51.72-71.11C262,574.62,296.64,534.45,329.89,496.58Z" transform="translate(-175.67 -246.62)"/><path class="cls-9" d="M541.6,402.38c7.39,7.39,15,13.62,24.71,22.63a50,50,0,0,0,17.78-15.47,91.71,91.71,0,0,1,8.08-27.24l-42.25-8.55A288.65,288.65,0,0,1,541.6,402.38Z" transform="translate(-175.67 -246.62)"/><path class="cls-13" d="M567.57,421.59c-7.91-1.16-12.14,15.63-11,18.17s17.33,4.64,18.69.93S573.4,422.45,567.57,421.59Z" transform="translate(-175.67 -246.62)"/><path class="cls-8" d="M521.38,354.75s12.47,36,59.36,35.6,58-26.31,54.34-50-13.41-34.05-10.16-63.72L518.24,283,513,312.57Z" transform="translate(-175.67 -246.62)"/><path class="cls-14" d="M528.74,335.87s23-4.88-3.14-36.57c0,0,47.73,22.68,84.78-16.78,0,0,19.49,10.23,25.09-.7s-5.39-21.38-19.73-24.38c0,0,11.45-2,8.6-7.49s-17.18-2.8-22.8,2.47c0,0-27.88-11.62-58-2s-35.64,30.67-35.39,38.77c0,0-19.17,14.43,4.78,48Z" transform="translate(-175.67 -246.62)"/><path class="cls-15" d="M608.57,265.83S623.24,282,636.92,275c-.65-8.21-9.87-15.21-21.18-17.58,0,0,11.45-2,8.6-7.49s-17.18-2.8-22.8,2.47c0,0-27.88-11.62-58-2s-35.64,30.67-35.39,38.77c0,0-13.37,10.09-3.79,33,6.48-4.85,15-14.64,12-31.48C516.37,290.72,569.57,315.93,608.57,265.83Z" transform="translate(-175.67 -246.62)"/><path class="cls-8" d="M528.74,335.87s-14.29-9.47-21.35,5,12.3,38.42,28.67,17.73Z" transform="translate(-175.67 -246.62)"/><path class="cls-9" d="M526.57,342.05s-11.45-5.9-14.47,2.77c-3.35,9.63,4.9,14.88,12,13.49C524.1,358.31,511.65,347.49,526.57,342.05Z" transform="translate(-175.67 -246.62)"/><path class="cls-9" d="M607.09,330.29c-3.69,1.54-2.48,20.3,6,21.69s12-5.38,7-12.17C616.23,334.42,611.52,328.44,607.09,330.29Z" transform="translate(-175.67 -246.62)"/><path class="cls-16" d="M602.17,361.6c-8.56-.86-18.22-13.11-23.67-4.33s3.67,21,18.49,20.94,22.57-10.13,19.1-15.39C612.92,358,608.33,362.21,602.17,361.6Z" transform="translate(-175.67 -246.62)"/><path class="cls-17" d="M611.55,360.51c-2.59.12-5.7,1.46-9.38,1.09-7.21-.73-15.21-9.54-20.8-7-.16,4,1.53,10.71,14.27,12S611.1,363.29,611.55,360.51Z" transform="translate(-175.67 -246.62)"/><path class="cls-14" d="M568.12,317.44c2.4,3,17.86-5.23,15.94-8.59S565.64,314.31,568.12,317.44Z" transform="translate(-175.67 -246.62)"/><path class="cls-14" d="M611.3,304.26c-.48,3.2,11.22,5.35,11.71,2.15S611.79,301.06,611.3,304.26Z" transform="translate(-175.67 -246.62)"/><path class="cls-18" d="M581.55,321.87c-4.43,1.55-4.49,18.27,3.41,16.93S585.41,320.52,581.55,321.87Z" transform="translate(-175.67 -246.62)"/><path class="cls-18" d="M617.42,317.07c-4.94.88-2.16,15.74,3.07,14.21S621.79,316.29,617.42,317.07Z" transform="translate(-175.67 -246.62)"/><path class="cls-19" d="M583.22,325c-3.45,1-1.16,9.07,1.63,7.65S585.42,324.29,583.22,325Z" transform="translate(-175.67 -246.62)"/><path class="cls-19" d="M618.33,319.55c-2.49.45-.48,7,1.72,6.32S620.51,319.17,618.33,319.55Z" transform="translate(-175.67 -246.62)"/></g></g></svg>