<svg xmlns="http://www.w3.org/2000/svg" viewBox="0 0 670.76 640.09"><defs><style>.cls-1{isolation:isolate;}.cls-12,.cls-13,.cls-2{fill:none;stroke-linecap:round;stroke-miterlimit:10;}.cls-2{stroke:#f2f2f2;stroke-width:25.68px;}.cls-10,.cls-2,.cls-4{mix-blend-mode:multiply;}.cls-3{fill:#8d6234;}.cls-4{fill:#ccc;}.cls-5{fill:#ffd1ba;}.cls-6{fill:#424242;}.cls-7{fill:#f2f2f2;}.cls-8{fill:#b35730;}.cls-9{fill:gray;}.cls-10{fill:#e6e6e6;}.cls-11{fill:#bfd6cb;}.cls-12,.cls-13{stroke:#bfd6cb;stroke-width:2px;}.cls-13{stroke-dasharray:9.18 10.2;}</style></defs><title>ON40S31</title><g class="cls-1"><g id="Layer_1" data-name="Layer 1"><line class="cls-2" x1="12.84" y1="627.25" x2="657.92" y2="627.25"/><path class="cls-3" d="M417.14,239l-16.53-3.32.37-1.86a3.09,3.09,0,0,0-2.43-3.64l-7.92-1.59a3.09,3.09,0,0,0-3.64,2.43l-.38,1.86-16.53-3.31a1.39,1.39,0,0,0-1.65,1.1l-5.89,29.4a1.39,1.39,0,0,0,1.1,1.65l47.05,9.43a1.41,1.41,0,0,0,1.66-1.1l5.89-29.4A1.4,1.4,0,0,0,417.14,239Zm-28.52-7.66a1.43,1.43,0,0,1,1.68-1.12l7.93,1.59a1.44,1.44,0,0,1,1.12,1.69l-.37,1.86-10.74-2.15Z" transform="translate(-62.7 -97.62)"/><path class="cls-4" d="M415.42,249.16,391,248.69a1.27,1.27,0,0,1-.47-.09l-22.73-9a1.33,1.33,0,0,1-.82-1.51l-.21,1a1.34,1.34,0,0,0,.82,1.51l22.74,9a1.19,1.19,0,0,0,.46.1l24.45.46a1.33,1.33,0,0,0,1.34-1.07l.21-1A1.35,1.35,0,0,1,415.42,249.16Z" transform="translate(-62.7 -97.62)"/><path class="cls-5" d="M392.68,225.73c-.85,3-.2,5.83,1.45,6.3s3.69-1.59,4.54-4.6.2-5.82-1.45-6.29S393.53,222.73,392.68,225.73Z" transform="translate(-62.7 -97.62)"/><polygon class="cls-6" points="411.02 23.83 344.98 54.06 329.03 128.71 336.36 130.4 356.17 67.32 401.89 63.38 411.02 23.83"/><polygon class="cls-6" points="401.38 246.37 340.84 303.93 343.65 312.86 335.76 303.1 386.99 238.5 408.16 165.94 462.8 157.09 401.38 246.37"/><path class="cls-5" d="M501.86,291.72" transform="translate(-62.7 -97.62)"/><polygon class="cls-5" points="464.01 4.76 451.87 32.44 480.9 42.07 487.53 12.21 464.01 4.76"/><path class="cls-6" d="M529.17,107.31l-3.67,8.4s-1.88-2.47-3.13-.64c-1.75,2.56,2,3,2,3a42.78,42.78,0,0,1-9.78,12s2.83-31.88,12.14-28c8.32-14.69,25.11,12.84,34,2.56C558.9,115.71,550.77,118.06,529.17,107.31Z" transform="translate(-62.7 -97.62)"/><path class="cls-6" d="M525.5,254.71l50.93-96.57L543.6,139.69l-29-9.62-40.85-8.62L444.89,246.33a23.84,23.84,0,0,0,15.59,27.94L544,302.48l-52.9,67.83,7.74,9.94-3-10.2,76-70.64Z" transform="translate(-62.7 -97.62)"/><polygon class="cls-7" points="451.87 32.44 456.75 65.65 480.9 42.07 451.87 32.44"/><polygon class="cls-8" points="467.24 40 463.43 38.74 461.11 40.76 462.07 44.77 455.1 54.4 456.75 65.65 464.73 57.85 464.86 45.58 468.2 42.88 467.24 40"/><polygon class="cls-9" points="456.75 65.65 476 56.83 475.32 51.29 481.38 49.23 480.9 42.07 456.75 65.65"/><polygon class="cls-9" points="456.75 65.65 446.58 47.08 450.44 43.04 446.81 37.77 451.87 32.44 456.75 65.65"/><path class="cls-5" d="M622,163.53c1.41-2.79,1.3-5.68-.24-6.46s-3.92.87-5.32,3.66-1.29,5.68.24,6.46S620.64,166.32,622,163.53Z" transform="translate(-62.7 -97.62)"/><polygon class="cls-6" points="494.71 96.56 530.67 135.8 560.38 65.49 553.5 62.45 528.24 109.39 513.43 60.55 494.71 96.56"/><polygon class="cls-10" points="404.39 178.88 403.37 182.37 435.22 197.17 439.62 190.78 404.39 178.88"/><rect class="cls-11" x="29.67" y="529.99" width="111.17" height="97.26" rx="4.88"/><rect class="cls-11" x="196.42" y="432.73" width="111.17" height="194.52" rx="4.88"/><rect class="cls-11" x="529.92" y="335.47" width="111.17" height="291.78" rx="4.88"/><path class="cls-11" d="M443.5,509.8a2,2,0,0,1-1.32-.51L431,499.06a2,2,0,0,1,2.64-2.9l11.2,10.23a2,2,0,0,1-1.33,3.41Z" transform="translate(-62.7 -97.62)"/><path class="cls-11" d="M465.3,498.61a2,2,0,0,1-1.86-1.36l-5.31-16.46a2,2,0,0,1,1.26-2.47,2.1,2.1,0,0,1,.61-.09,2,2,0,0,1,1.87,1.36l5.3,16.45a2,2,0,0,1-1.26,2.47A1.81,1.81,0,0,1,465.3,498.61Z" transform="translate(-62.7 -97.62)"/><path class="cls-11" d="M499,498.61a2,2,0,0,1-1.66-.91,2,2,0,0,1-.26-1.48l3.85-17.42a2,2,0,0,1,1.92-1.54,1.84,1.84,0,0,1,.41.05,2,2,0,0,1,1.5,2.34l-3.85,17.42A2,2,0,0,1,499,498.61Z" transform="translate(-62.7 -97.62)"/><path class="cls-11" d="M524.56,509.8a2,2,0,0,1-1.34-.53,2,2,0,0,1-.1-2.77l9.53-10.23a2,2,0,0,1,3.4,1.27,2,2,0,0,1-.52,1.41L526,509.17A2,2,0,0,1,524.56,509.8Z" transform="translate(-62.7 -97.62)"/><path class="cls-12" d="M314.71,511s.27-1.58,1-4.38" transform="translate(-62.7 -97.62)"/><path class="cls-13" d="M318.77,496.9c6.27-17.34,21.35-47.44,55.29-71.58" transform="translate(-62.7 -97.62)"/><path class="cls-12" d="M378.27,422.42c1.24-.82,2.5-1.64,3.78-2.44" transform="translate(-62.7 -97.62)"/></g></g></svg>