<svg width="8" height="13" viewBox="0 0 8 13" fill="none" xmlns="http://www.w3.org/2000/svg">
<path d="M7.17808 5.95997L6.73905 5.73684C6.93064 5.25972 7.02788 4.75119 7.02788 4.2237C7.02788 2.19335 5.55915 0.541569 3.7544 0.541569C1.94965 0.541569 0.481395 2.19335 0.481395 4.2237C0.481395 4.72844 0.570934 5.21748 0.746162 5.67781L0.304242 5.89173C0.102537 5.36316 0 4.80209 0 4.2237C0 1.89495 1.6844 0 3.7544 0C5.82488 0 7.50928 1.89495 7.50928 4.2237C7.5088 4.82809 7.39759 5.4119 7.17808 5.95997Z" fill="#FF9B00"/>
<path d="M5.36568 10.0175H2.14274C2.04887 10.0175 1.96318 9.95573 1.92419 9.85988L0.306704 5.89776C0.251344 5.76182 0.303816 5.60098 0.424646 5.5387C0.545957 5.47587 0.68845 5.53545 0.74381 5.67138L2.29727 9.4759H5.21212L6.74055 5.73529C6.79591 5.59935 6.94032 5.54086 7.05971 5.6026C7.18054 5.66488 7.23301 5.82573 7.17765 5.96166L5.58472 9.85988C5.54524 9.95628 5.45955 10.0175 5.36568 10.0175Z" fill="#FF9B00"/>
<path fill-rule="evenodd" clip-rule="evenodd" d="M2.2215 10.7325H5.28654C5.59464 10.7325 5.84496 10.4503 5.84496 10.1042C5.84496 9.75818 5.59464 9.47656 5.28654 9.47656H2.2215C1.91389 9.47656 1.66309 9.75818 1.66309 10.1042C1.66309 10.4503 1.91341 10.7325 2.2215 10.7325ZM2.14423 10.1042C2.14423 10.0566 2.17889 10.0181 2.22126 10.0181H5.2863C5.32866 10.0181 5.36332 10.0566 5.36332 10.1042C5.36332 10.153 5.32962 10.1909 5.2863 10.1909H2.22126C2.17889 10.1909 2.14423 10.1519 2.14423 10.1042Z" fill="#FF9B00"/>
<path fill-rule="evenodd" clip-rule="evenodd" d="M2.2215 11.4478H5.28654C5.59464 11.4478 5.84496 11.1657 5.84496 10.8196C5.84496 10.4736 5.59464 10.1914 5.28654 10.1914H2.2215C1.91389 10.1914 1.66309 10.4736 1.66309 10.8196C1.66309 11.1657 1.91341 11.4478 2.2215 11.4478ZM2.14423 10.818C2.14423 10.7704 2.17889 10.7314 2.22126 10.7314H5.2863C5.32866 10.7314 5.36332 10.7704 5.36332 10.818C5.36332 10.8657 5.32866 10.9047 5.2863 10.9047H2.22126C2.17889 10.9047 2.14423 10.8657 2.14423 10.818Z" fill="#FF9B00"/>
<path fill-rule="evenodd" clip-rule="evenodd" d="M2.2215 12.1617H5.28654C5.59464 12.1617 5.84496 11.8796 5.84496 11.5335C5.84496 11.1874 5.59464 10.9053 5.28654 10.9053H2.2215C1.91389 10.9053 1.66309 11.1874 1.66309 11.5335C1.66309 11.8796 1.91341 12.1617 2.2215 12.1617ZM2.14423 11.5336C2.14423 11.486 2.17889 11.447 2.22126 11.447H5.2863C5.32866 11.447 5.36332 11.486 5.36332 11.5336C5.36332 11.5813 5.32866 11.6203 5.2863 11.6203H2.22126C2.17889 11.6203 2.14423 11.5813 2.14423 11.5336Z" fill="#FF9B00"/>
<path d="M3.75439 12.9042C2.89847 12.9042 2.25244 12.4899 2.25244 11.9407C2.25244 11.7912 2.36027 11.6699 2.49314 11.6699C2.626 11.6699 2.73384 11.7912 2.73384 11.9407C2.73384 12.0891 3.12136 12.3626 3.75439 12.3626C4.38743 12.3626 4.77543 12.0891 4.77543 11.9407C4.77543 11.7912 4.88326 11.6699 5.01613 11.6699C5.14899 11.6699 5.25683 11.7912 5.25683 11.9407C5.25683 12.4899 4.61079 12.9042 3.75439 12.9042Z" fill="#FF9B00"/>
<path fill-rule="evenodd" clip-rule="evenodd" d="M2.986 7.32174C3.05614 7.59416 3.37206 8.21341 3.63082 8.21341C3.70564 8.21341 3.77579 8.18004 3.82567 8.12042C4.25642 7.60839 4.3115 7.16583 4.28136 6.88411C4.24655 6.55534 4.07248 6.24243 3.8158 6.04823C3.73214 5.98423 3.62147 5.97876 3.53314 6.03401C3.04367 6.33488 2.84934 6.7922 2.986 7.32174ZM3.46605 6.94989C3.47852 6.82845 3.53568 6.72123 3.63908 6.6244C3.6952 6.70044 3.74975 6.80821 3.76482 6.94716C3.78301 7.11674 3.73417 7.30273 3.62349 7.49584C3.53308 7.34376 3.44631 7.14081 3.46605 6.94989Z" fill="#FF9B00"/>
<path d="M2.53597 10.4258C2.40555 10.4258 2.2928 10.3229 2.27825 10.1829C2.26734 10.0801 2.01222 7.66323 2.08184 6.78086C2.10523 6.48108 2.27306 6.09268 2.59521 5.90177C2.80617 5.77704 3.16573 5.68514 3.68533 5.95647C3.72846 5.97999 3.7721 6.00734 3.81627 6.04071C3.93214 6.12988 3.95708 6.30165 3.87291 6.42309C3.78769 6.54563 3.62506 6.57134 3.50971 6.48272C3.48996 6.4674 3.47074 6.45482 3.45203 6.44498C3.20106 6.31478 2.99842 6.29071 2.85085 6.37824C2.6851 6.47725 2.60976 6.6999 2.59989 6.82572C2.53494 7.65557 2.79266 10.097 2.79526 10.1216C2.81084 10.2715 2.70848 10.4066 2.56611 10.4241C2.55572 10.4252 2.54533 10.4258 2.53597 10.4258Z" fill="#FF9B00"/>
<path d="M4.76964 10.4251C4.75873 10.4251 4.74885 10.4245 4.73794 10.4229C4.59609 10.4054 4.49373 10.2692 4.51088 10.1187C4.51348 10.0941 4.7899 7.63846 4.72651 6.82939C4.71612 6.70357 4.6413 6.48038 4.47554 6.38191C4.3285 6.29493 4.12585 6.31736 3.87229 6.45029C3.85566 6.45904 3.83592 6.47108 3.81617 6.48639C3.7003 6.57447 3.53818 6.54821 3.45297 6.42677C3.36879 6.30478 3.39426 6.13355 3.50961 6.04439C3.55377 6.01047 3.59794 5.98366 3.63899 5.96178C4.16067 5.68881 4.52127 5.78071 4.73119 5.90544C5.05334 6.0969 5.22117 6.4853 5.24455 6.78453C5.31262 7.64776 5.03879 10.0804 5.02684 10.1838C5.01125 10.3228 4.89902 10.4251 4.76964 10.4251Z" fill="#FF9B00"/>
<path d="M4.76924 10.4253C4.76092 10.4253 4.75261 10.4247 4.74429 10.4242C4.60192 10.41 4.49645 10.2765 4.50995 10.126C4.51203 10.102 4.72559 7.69937 4.72559 6.8077C4.72559 6.65672 4.84198 6.53418 4.98539 6.53418C5.1288 6.53418 5.24519 6.65672 5.24519 6.8077C5.24519 7.72563 5.03631 10.0779 5.02748 10.1775C5.01501 10.3191 4.90173 10.4253 4.76924 10.4253Z" fill="#FF9B00"/>
</svg>
