<svg id="Слой_1" data-name="Слой 1" xmlns="http://www.w3.org/2000/svg" xmlns:xlink="http://www.w3.org/1999/xlink" viewBox="0 0 282.86 162.31"><defs><style>.cls-1{fill:url(#linear-gradient);}.cls-2{fill:#508ef9;}.cls-3{fill:url(#linear-gradient-2);}.cls-4{fill:#fff;}.cls-5{fill:url(#linear-gradient-3);}.cls-6{fill:url(#linear-gradient-4);}.cls-7{fill:#e2d2ca;}.cls-8{fill:#f2e2d9;}.cls-9{fill:#ccbdb7;}.cls-10{fill:#948a84;}.cls-11{fill:#323657;}.cls-12{fill:#ead8cf;}.cls-13{fill:#da9b5b;}.cls-14{fill:#424773;}.cls-15{fill:#292c47;}.cls-16{fill:#eea886;}.cls-17{fill:#3a3f47;}.cls-18{fill:#918783;}.cls-19{fill:#5e5854;}.cls-20{fill:#bfb2ac;}.cls-21{fill:#f5f7ff;}.cls-22{fill:#918681;}.cls-23{fill:#555c94;}.cls-24{fill:#dfe1e8;}.cls-25{fill:url(#linear-gradient-5);}.cls-26{fill:url(#linear-gradient-6);}.cls-27{fill:url(#linear-gradient-7);}.cls-28{fill:url(#linear-gradient-8);}.cls-29{fill:url(#linear-gradient-9);}.cls-30{fill:url(#linear-gradient-10);}.cls-31{fill:url(#linear-gradient-11);}.cls-32{fill:#754836;}.cls-33{fill:#efaa88;}.cls-34{fill:#202338;}.cls-35{fill:#81807e;}.cls-36{fill:#dbd8e3;}.cls-37{fill:#1d2033;}.cls-38{fill:#eea987;}.cls-39{fill:#d44040;}.cls-40{fill:#c4c1cc;}.cls-41{fill:#3a4066;}.cls-42{fill:#d88a51;}.cls-43{fill:#a77860;}</style><linearGradient id="linear-gradient" x1="197.9" y1="257.54" x2="285.42" y2="257.54" gradientUnits="userSpaceOnUse"><stop offset="0" stop-color="#40d5e6"/><stop offset="1" stop-color="#57f"/></linearGradient><linearGradient id="linear-gradient-2" x1="80.28" y1="261.05" x2="224.27" y2="261.05" xlink:href="#linear-gradient"/><linearGradient id="linear-gradient-3" x1="337.4" y1="113.16" x2="-6.33" y2="113.16" gradientUnits="userSpaceOnUse"><stop offset="0" stop-color="#ff9f55"/><stop offset="1" stop-color="#ffd255"/></linearGradient><linearGradient id="linear-gradient-4" x1="74.17" y1="78.24" x2="144.73" y2="148.8" gradientUnits="userSpaceOnUse"><stop offset="0" stop-color="#e67d2c"/><stop offset="1" stop-color="#ffb355"/></linearGradient><linearGradient id="linear-gradient-5" x1="213.44" y1="248.87" x2="218.28" y2="248.87" gradientTransform="translate(30.83 -23.7) rotate(6.77)" xlink:href="#linear-gradient"/><linearGradient id="linear-gradient-6" x1="213.17" y1="239.08" x2="275.77" y2="239.08" xlink:href="#linear-gradient"/><linearGradient id="linear-gradient-7" x1="243.19" y1="242.66" x2="248.14" y2="242.66" xlink:href="#linear-gradient"/><linearGradient id="linear-gradient-8" x1="193.54" y1="72.6" x2="198.48" y2="72.6" xlink:href="#linear-gradient"/><linearGradient id="linear-gradient-9" x1="211.34" y1="231.6" x2="216.28" y2="231.6" xlink:href="#linear-gradient"/><linearGradient id="linear-gradient-10" x1="254.15" y1="272.82" x2="259.1" y2="272.82" xlink:href="#linear-gradient"/><linearGradient id="linear-gradient-11" x1="269.7" y1="251.78" x2="274.65" y2="251.78" xlink:href="#linear-gradient"/></defs><title>18914</title><path class="cls-1" d="M283.83,267.62,259,272l-1.48.26-1.45.26.34.62,1.12,2,5.92,10.55,8.11,14.43-2.16,0-60.77-.93-1.28,0L199.4,299h-.2l.2-.33,5.81-10,1.75-3,.12-.2,4.55-7.81h0l3.84-6.58s0,0,0,0l1.54-2.63,1.1-1.89.46-.78H198.93V216.12l.47.51,12.47,13.44,1.44,1.55.14.14.08.1.28-.26.28-.26-.3-.31-1.36-1.48-13-14-.86-.93-.36-.39v52.32h19.07l-.89,1.54L215,270.35l-3.9,6.71-4.19,7.17h0l-.84,1.44-1.62,2.78-5.07,8.71-.85,1.46-.65,1.11h.65l.85,0,8,.12,1.27,0,61.39.94,2.77,0-.24-.42,5.72-14.78,6.54-16.88.57-1.46Zm-6.32,18.06-5.39,13.93-7.83-13.93-6.14-10.91-.93-1.67,1.88-.33,24.9-4.41.23,0-.05.13Z" transform="translate(-21.9 -193.54)"/><path class="cls-2" d="M199.37,250.83a1.7,1.7,0,0,1-.14.1l-.13.1-.09.08-.08.09V256l.47.26V250.8Zm0,0a1.7,1.7,0,0,1-.14.1l-.13.1-.09.08-.08.09V256l.47.26V250.8Zm0,0a1.7,1.7,0,0,1-.14.1l-.13.1-.09.08-.08.09V256l.47.26V250.8Zm99.27,42-1.23-7.15-2.32-13.42-8.86-4.65,7.26-7.26-9.92-19.15-.45-.88-7.21-13.93H264.4l2.34-9.83-12-11.95H235.83l-4.62-11.07H207.56l-.64,1.39-8.44,18.37L197.7,215V325.72h99v-16.4L289.44,302ZM295,310v14H199.4V215.35L208,196.67l.66-1.43h21.43l4.41,10.57.21.5h19.37l10.8,10.79-2.19,9.17-.19.8-.11.5-.13.52h12.63l0,0,.6,1.18,6.36,12.28.45.87,9.1,17.59-7.58,7.58-.42.42.59.32.18.09.67.35,8.71,4.58,2.13,12.3,1.13,6.57L287,302Zm-95.67-59.19a1.7,1.7,0,0,1-.14.1l-.13.1-.09.08-.08.09V256l.47.26V250.8Zm0,0a1.7,1.7,0,0,1-.14.1l-.13.1-.09.08-.08.09V256l.47.26V250.8Zm0,0a1.7,1.7,0,0,1-.14.1l-.13.1-.09.08-.08.09V256l.47.26V250.8Z" transform="translate(-21.9 -193.54)"/><path class="cls-3" d="M198.55,215.16V327.71H103c-.1-10.08,2.49-19.07,6.85-25.1a22.4,22.4,0,0,1-6.65-16c0-.32,0-.64,0-.95a22.49,22.49,0,0,1,11.31-18.58A27.4,27.4,0,0,1,111,253.42c0-13.85,10.07-25.2,22.82-26.12v-.06a22.49,22.49,0,0,1,28.06-21.78c3.11-7.56,9.79-11.08,17.46-11.08C190,194.38,198.55,202.74,198.55,215.16Z" transform="translate(-21.9 -193.54)"/><path class="cls-4" d="M137.78,325.43c-.43,0-.85,0-1.26,0a40.21,40.21,0,0,1-8.79-1.23l.31-1.09c.15,0,14.83,4,23.8-2.78,4.64-3.52,7-9.35,7-17.31,0-9.14,2.64-16.26,7.85-21.16,8.3-7.8,20-7.18,20.5-7.15l-.07,1.12c-.12,0-11.73-.61-19.66,6.86-5,4.68-7.49,11.52-7.49,20.33,0,8.34-2.5,14.46-7.44,18.21C148,324.63,142.23,325.43,137.78,325.43Z" transform="translate(-21.9 -193.54)"/><path class="cls-4" d="M172.31,272.88a27.93,27.93,0,0,0-3.06-9.21c-3.35-6-8.45-9.06-15.16-9.06-7.94,0-13.41-2-16.71-6.21-2.61-3.29-3.82-7.84-3.82-14.32h1.13c0,6.21,1.14,10.54,3.58,13.62,3.07,3.89,8.25,5.78,15.82,5.78,8.93,0,13.72,5.26,16.16,9.68a28,28,0,0,1,3.18,9.6Z" transform="translate(-21.9 -193.54)"/><path class="cls-4" d="M163.64,252.34h-.17l0-1.13c.1,0,9.77.11,15.22-5.25a12.8,12.8,0,0,0,3.72-9.52c0-7.48-4.57-10.21-9.41-13.11s-10.1-6.05-10.1-14.42h1.13c0,7.73,4.64,10.51,9.55,13.45s10,6,10,14.08a13.92,13.92,0,0,1-4.06,10.33C174,252.13,165,252.34,163.64,252.34Z" transform="translate(-21.9 -193.54)"/><rect class="cls-5" x="70.44" y="92.15" width="212.42" height="42.03"/><polygon class="cls-6" points="70.44 134.18 70.44 92.15 147.75 92.15 189.3 133.7 70.44 134.18"/><rect class="cls-7" x="78.53" y="105.28" width="18.45" height="1.1"/><rect class="cls-8" x="102.9" y="302.77" width="1.62" height="49.82" transform="translate(185.52 461.82) rotate(180)"/><rect class="cls-9" x="94.1" y="104.97" width="12.83" height="1.56"/><rect class="cls-9" x="98.08" y="91.63" width="4.86" height="14.75"/><rect class="cls-10" x="71.91" y="106.4" width="71.07" height="2.83"/><path class="cls-11" d="M80.17,282.79s-.78,10.9,1.35,12.21c1.34.81,6.66,3.57,6.5,4.09s-3,4.6-3,4.6S74.8,297,74.47,294.84s.5-16,1.9-16.6c1.06-.48,1.61-.09,2.94.9A3.1,3.1,0,0,1,80.17,282.79Z" transform="translate(-21.9 -193.54)"/><path class="cls-12" d="M98.79,285.9l.9-.33s-1.12-2.64-1.61-2.57a11.46,11.46,0,0,0-1.27.26Z" transform="translate(-21.9 -193.54)"/><path class="cls-13" d="M99,286.36c-.12-.09-1.92-3.54-1.92-3.54l-3.84.52,2.08,4.09Z" transform="translate(-21.9 -193.54)"/><path class="cls-14" d="M92.74,345.78s-.32,2.21-.36,2.54-3.53-.19-3.53-.19l-.28-2.63S92.3,345.47,92.74,345.78Z" transform="translate(-21.9 -193.54)"/><path class="cls-15" d="M92.42,348A9.49,9.49,0,0,0,94.6,350c1.07.58,2.75.81,3.39,1.41.45.43,1.66,2.29-2.79,2.26s-6.59.26-7.07-.46.69-5.27.69-5.27A9.44,9.44,0,0,0,92.42,348Z" transform="translate(-21.9 -193.54)"/><path class="cls-14" d="M115.13,345.8s-.31,2.21-.35,2.54-3.54-.19-3.54-.19l-.28-2.63S114.7,345.49,115.13,345.8Z" transform="translate(-21.9 -193.54)"/><path class="cls-15" d="M114.81,348.06A9.49,9.49,0,0,0,117,350c1.07.58,5,1,5.65,1.65.46.44,1.22,2.18-5,2-4.45-.12-6.6.26-7.07-.45s.69-5.28.69-5.28A8.4,8.4,0,0,0,114.81,348.06Z" transform="translate(-21.9 -193.54)"/><path class="cls-15" d="M81.47,307.68s12.71,2.15,15.58,2.61,18.43,4.32,20.37,5.5c1.55.94-.81,23.5-1.36,32.1h-6.13l-.45-25.81c-7.35.18-12.6-1.73-18-.91s-9.83,2-13.23-2.6C78.3,318.57,78.17,308.68,81.47,307.68Z" transform="translate(-21.9 -193.54)"/><path class="cls-15" d="M94,347.91l-6-.37-.58-25.46a37.19,37.19,0,0,1-6.82-.44L75.8,310.43c4.23.85,17.77,4.26,19.58,5.36C96.92,316.73,94.54,339.31,94,347.91Z" transform="translate(-21.9 -193.54)"/><path class="cls-16" d="M87.32,260.05s4.66-1.28,6.43,2.33,1,10.47-1.37,11.12-5.73-.1-6.7-2.35a17.24,17.24,0,0,1-1.52-7.52A4.55,4.55,0,0,1,87.32,260.05Z" transform="translate(-21.9 -193.54)"/><path class="cls-16" d="M91.16,272.78a14.32,14.32,0,0,0,.25,3.33c.3.59-6.48.44-6.48.44a13.73,13.73,0,0,0,.46-6.11C84.79,267.65,91.16,272.78,91.16,272.78Z" transform="translate(-21.9 -193.54)"/><path class="cls-17" d="M85,269.4s.37.73,2.12.62,4.08-2.24,4.82-2.43.79-.62.79-.62l.4.7.76.12s-.52-2.12.62-2.87-.51-6.78-6.24-5.32c0,0-4.38.8-4.44,3.24S84.17,268.1,85,269.4Z" transform="translate(-21.9 -193.54)"/><path class="cls-7" d="M91.77,276s0-1.12-.53-1.22-5.34-.78-6-.53L85,275.77S86.22,276.51,91.77,276Z" transform="translate(-21.9 -193.54)"/><path class="cls-16" d="M93.17,266.47c-.13-.92-1.18-2-1.78-.54s.41,3.51,1.08,3.4S93.34,267.72,93.17,266.47Z" transform="translate(-21.9 -193.54)"/><path class="cls-11" d="M112,289.28h0S112,289.29,112,289.28Z" transform="translate(-21.9 -193.54)"/><path class="cls-17" d="M86,260.71s-5.68-.27-1,8.6Z" transform="translate(-21.9 -193.54)"/><polygon class="cls-18" points="51.41 157.4 51.83 158.58 69.68 153.05 68.83 150.65 51.41 157.4"/><rect class="cls-18" x="68.26" y="132.8" width="2.03" height="19.41"/><rect class="cls-19" x="63.29" y="131.77" width="11.97" height="1.14"/><polygon class="cls-18" points="87.31 157.4 86.89 158.58 69.03 153.05 69.82 150.49 87.31 157.4"/><polygon class="cls-18" points="74.73 158.46 74.73 159.84 69.03 153.05 69.82 150.49 74.73 158.46"/><path class="cls-20" d="M110.87,352.59a1.67,1.67,0,1,1-1.66-1.67A1.66,1.66,0,0,1,110.87,352.59Z" transform="translate(-21.9 -193.54)"/><path class="cls-20" d="M96.77,352.59a1.67,1.67,0,1,1-1.67-1.67A1.66,1.66,0,0,1,96.77,352.59Z" transform="translate(-21.9 -193.54)"/><path class="cls-20" d="M75,352.59a1.67,1.67,0,1,1-1.67-1.67A1.66,1.66,0,0,1,75,352.59Z" transform="translate(-21.9 -193.54)"/><rect class="cls-7" x="55.18" y="127.43" width="28.35" height="4.33" rx="2.14"/><rect class="cls-8" x="132.27" y="109.23" width="1.62" height="49.82"/><rect class="cls-8" x="79.54" y="69.14" width="41.94" height="29.59" rx="2.13"/><rect class="cls-21" x="81.18" y="70.74" width="38.66" height="23.35"/><path class="cls-22" d="M123.76,289.5a1.35,1.35,0,1,1-1.35-1.35A1.34,1.34,0,0,1,123.76,289.5Z" transform="translate(-21.9 -193.54)"/><path class="cls-23" d="M131.09,300v-.52s-.74-3.28-6-3.28S120,300,120,300Z" transform="translate(-21.9 -193.54)"/><path class="cls-16" d="M119.92,296.66a5.26,5.26,0,0,0,1.56-.34c.41-.25,2.91-1.93,3.49-1.66s4.48,1.46,4.35,2-.5.52-.77.41a20.26,20.26,0,0,0-3.36-.59s2.78,1,2.79,1.75-.58.92-.84,1.2-.58,1-1.3,1-4.21-1.16-4.93-1.22a16.08,16.08,0,0,1-2.14-.07A19.73,19.73,0,0,1,119.92,296.66Z" transform="translate(-21.9 -193.54)"/><path class="cls-11" d="M99.21,277.6C95.59,277,91.77,276,91.77,276L85,275.77a65.06,65.06,0,0,0-8.64,2.47c-.23.1-.23,5.53-.86,6.95l2,4.27s1.17,8.46,1.41,12.22c.11,1.73-.31,16.69-.31,16.69s.6.3,5.21.81S100,319,100,318.45s-2.23-20.27-2.33-21.3c-.16-1.56.45-8.81.45-8.81.87,1.17,3.09,6.44,5.39,8.94,1.36,1.48,8.08,2.38,9.35,2.42,2.76.09,7.79.64,7.94.38s.44-4.47.12-4.58-9.62-.62-12-1.9c-.88-.46-3.49-6.17-3.49-6.17S101.21,278.5,99.21,277.6Z" transform="translate(-21.9 -193.54)"/><rect class="cls-7" x="48.56" y="97.32" width="19.55" height="27.08" rx="4.11"/><path class="cls-7" d="M86.54,324.23a9,9,0,0,1-7-2.88c-3.9-4.32-3.2-11.9-3.17-12.22a1.09,1.09,0,0,1,2.17.21c0,.09-.64,7,2.62,10.55a6.79,6.79,0,0,0,5.33,2.16,1.09,1.09,0,1,1,0,2.18Z" transform="translate(-21.9 -193.54)"/><rect class="cls-24" x="83.92" y="72.6" width="11.32" height="1.23" rx="0.31"/><rect class="cls-24" x="83.92" y="75.25" width="11.32" height="1.23" rx="0.31"/><rect class="cls-24" x="83.92" y="78.29" width="11.32" height="13.95" rx="1.03"/><rect class="cls-24" x="97.53" y="72.6" width="20.17" height="19.63" rx="1.63"/><rect class="cls-25" x="215.48" y="231.48" width="0.75" height="34.78" transform="translate(-49.72 -166.37) rotate(-6.77)"/><path class="cls-26" d="M243.56,244l-7,5.9-17.06,14.43a2.19,2.19,0,0,1,.34.34l.09.13a.21.21,0,0,1,.06.1L237,250.53l7.09-6A2.22,2.22,0,0,1,243.56,244Zm0,0-7,5.9-17.06,14.43a2.19,2.19,0,0,1,.34.34l.09.13a.21.21,0,0,1,.06.1L237,250.53l7.09-6A2.22,2.22,0,0,1,243.56,244Zm0,0-7,5.9-17.06,14.43a2.19,2.19,0,0,1,.34.34l.09.13a.21.21,0,0,1,.06.1L237,250.53l7.09-6A2.22,2.22,0,0,1,243.56,244ZM275,227.19l-.12.93-2.78,21.18-.26,2-1.88-.65-21.88-7.53-1.69-.58,1.34-1.17,15.17-13.25,1-.87-1.23-.95-25.71-20-1.77-1.38-.71.88-12.74,15.51-6.69,8.15L213.79,231l-.48.59-.14.16.29.1.8.28,1.74.6,14.26,5,13,4.5,1.67.59L243.56,244l-7,5.9-17.06,14.43-1.32,1.12-.43.37-.26.21-.46.39,1.06.18,2.15.37,28.65,4.95,5.24.91,2.23.38.41.07.7-1,.89-1.2L271,254l1-1.31.48-.65,0-.08.16-1.17.18-1.35,2.63-20.1.27-2ZM243.48,241.5l-13.72-4.76-13.52-4.69-1.79-.63,1.2-1.47,6.48-7.9,12.93-15.74.26-.33.42.33,26.75,20.76.24.19-.35.31-15.12,13.2-1.68,1.46ZM271.57,252l-.11.14-1,1.41h0l-12.64,17.11-1.32,1.78-2.17-.37-5.89-1-28-4.83-1.61-.28,1.24-1.06L237,250.53l7.09-6,1.71-1.44,2.1.72,21.89,7.53,1.76.6Zm-28-8-7,5.9-17.06,14.43a2.19,2.19,0,0,1,.34.34l.09.13a.21.21,0,0,1,.06.1L237,250.53l7.09-6A2.22,2.22,0,0,1,243.56,244Zm0,0-7,5.9-17.06,14.43a2.19,2.19,0,0,1,.34.34l.09.13a.21.21,0,0,1,.06.1L237,250.53l7.09-6A2.22,2.22,0,0,1,243.56,244Zm0,0-7,5.9-17.06,14.43a2.19,2.19,0,0,1,.34.34l.09.13a.21.21,0,0,1,.06.1L237,250.53l7.09-6A2.22,2.22,0,0,1,243.56,244Z" transform="translate(-21.9 -193.54)"/><path class="cls-27" d="M248.14,242.66a2.48,2.48,0,1,1-2.48-2.47A2.47,2.47,0,0,1,248.14,242.66Z" transform="translate(-21.9 -193.54)"/><circle class="cls-28" cx="196.01" cy="72.6" r="2.47"/><path class="cls-29" d="M216.28,231.6a2.47,2.47,0,1,1-2.47-2.47A2.47,2.47,0,0,1,216.28,231.6Z" transform="translate(-21.9 -193.54)"/><path class="cls-30" d="M259.1,272.82a2.48,2.48,0,1,1-2.47-2.47A2.48,2.48,0,0,1,259.1,272.82Z" transform="translate(-21.9 -193.54)"/><path class="cls-31" d="M274.65,251.78a2.48,2.48,0,1,1-2.47-2.48A2.48,2.48,0,0,1,274.65,251.78Z" transform="translate(-21.9 -193.54)"/><path class="cls-11" d="M189.25,266.49s-.77,10.73,1.33,12c1.31.8,6.55,3.52,6.4,4s-3,4.53-3,4.53-10.06-6.63-10.39-8.72.5-15.72,1.88-16.35c1-.47,1.58-.08,2.89.89A3.06,3.06,0,0,1,189.25,266.49Z" transform="translate(-21.9 -193.54)"/><path class="cls-12" d="M207.59,269.55l.89-.33s-1.11-2.59-1.59-2.53a10.65,10.65,0,0,0-1.25.26Z" transform="translate(-21.9 -193.54)"/><path class="cls-13" d="M207.79,270c-.11-.08-1.88-3.48-1.88-3.48l-3.79.51,2,4Z" transform="translate(-21.9 -193.54)"/><path class="cls-14" d="M188.08,344.61s-.32,2.17-.35,2.5-3.49-.19-3.49-.19l-.27-2.59S187.65,344.31,188.08,344.61Z" transform="translate(-21.9 -193.54)"/><path class="cls-15" d="M187.76,346.83a9.22,9.22,0,0,0,2.15,1.88c1.05.57,2.71.8,3.33,1.39.45.43,1.64,2.26-2.74,2.23s-6.49.25-7-.45.68-5.19.68-5.19A9.31,9.31,0,0,0,187.76,346.83Z" transform="translate(-21.9 -193.54)"/><path class="cls-14" d="M205.3,344.61s-.31,2.17-.35,2.5-3.48-.19-3.48-.19l-.28-2.59S204.87,344.31,205.3,344.61Z" transform="translate(-21.9 -193.54)"/><path class="cls-15" d="M205,346.83a9.31,9.31,0,0,0,2.14,1.88c1.06.57,4.94,1,5.56,1.63.46.43,1.2,2.15-5,2-4.38-.12-6.49.25-7-.45s.68-5.19.68-5.19A8.31,8.31,0,0,0,205,346.83Z" transform="translate(-21.9 -193.54)"/><path class="cls-15" d="M189.31,288.8s-3.23,5.14-3,9.78a98.79,98.79,0,0,1-.77,14.46c-.55,5.41-2,16.67-2.1,19.56s.1,13.78.1,13.78l5.61,0s2-22,3-24.28,4.93-18.81,5.09-20.64S189.31,288.8,189.31,288.8Z" transform="translate(-21.9 -193.54)"/><path class="cls-15" d="M206.34,289.49s1.28,12.63,1.6,15.47.1,15.17.26,16.94-1.08,20.57-1.38,24.15l-6.17,0s-.42-15.2-.42-22.59a57.92,57.92,0,0,0-4.07-20.86c-2.17-4.87-7.14-5-8.48-14C187.68,288.53,204.53,286.62,206.34,289.49Z" transform="translate(-21.9 -193.54)"/><path class="cls-16" d="M192.73,245.47s3.85-2.57,6.56.18,4,9.25,2.09,10.54-5.24,1.63-6.8-.12a16.57,16.57,0,0,1-3.65-6.39A4.35,4.35,0,0,1,192.73,245.47Z" transform="translate(-21.9 -193.54)"/><path class="cls-16" d="M200.07,256.63a13.93,13.93,0,0,0,.25,3.28c.3.58-5.62.59-5.62.59a39.68,39.68,0,0,0-1.4-5.79C192.39,252.06,200.07,256.63,200.07,256.63Z" transform="translate(-21.9 -193.54)"/><path class="cls-32" d="M193.45,254.67s.55.56,2.12-.08,3-3.26,3.66-3.66.53-.8.53-.8l.57.52.73-.12s-1.11-1.78-.3-2.8-2.51-6-7.29-3c0,0-3.74,2.05-3.06,4.29S192.29,253.74,193.45,254.67Z" transform="translate(-21.9 -193.54)"/><path class="cls-7" d="M200.67,259.84s0-1.1-.52-1.21-5.52-.59-6.13-.34v1.28S195.2,260.3,200.67,259.84Z" transform="translate(-21.9 -193.54)"/><path class="cls-16" d="M199.46,249.33c-.18-.36-1.41-1.22-1.51,0s1.21,2.61,1.7,2.35S199.92,250.24,199.46,249.33Z" transform="translate(-21.9 -193.54)"/><path class="cls-11" d="M220.59,272.88h0Z" transform="translate(-21.9 -193.54)"/><path class="cls-11" d="M208,261.37c-3.57-.63-7.33-1.53-7.33-1.53l-6.65-.27a65.52,65.52,0,0,0-8.51,2.43c-.23.1-.23,5.45-.86,6.85l2,4.2s1.15,8.33,1.39,12c.11,1.7-2.38,16-2.38,16a46.49,46.49,0,0,0,7.21,1.28c4.54.5,15.88-.18,15.95-.71s-2.2-20-2.3-21c-.15-1.54.45-8.68.45-8.68.86,1.15,4.92,6.15,7.2,8.62,1.33,1.45,6.25,4,7.39,4.48,2.46,1.1,6.41,3.63,6.56,3.36s2.76-4.64,2.45-4.74-8.53-5.14-10.89-6.4c-.86-.45-4.22-6.21-4.22-6.21S210,262.26,208,261.37Z" transform="translate(-21.9 -193.54)"/><path class="cls-32" d="M191.62,246.13s-5.52,1.48,1.61,8.32Z" transform="translate(-21.9 -193.54)"/><path class="cls-33" d="M233.71,289.41a2.43,2.43,0,0,1-.7-.08l-.65-.35-.22-.09a4,4,0,0,1-1.2-.48c-.48-.32-2.05-1.61-2.05-1.61l.86-1.54.35-1.49a25.62,25.62,0,0,1,4,.37.57.57,0,0,1,.13.08,4.91,4.91,0,0,1,.76.74c.07.06.72.66.7.93a.85.85,0,0,1-.41.73,2,2,0,0,1-.42,1.06,1.28,1.28,0,0,1-.6,1S234.1,289.31,233.71,289.41Z" transform="translate(-21.9 -193.54)"/><path class="cls-16" d="M71.89,269.81a27.13,27.13,0,0,1,4-1.07c.3.13.34.34,0,.47l-3.56,1.28s4.59-.67,4.86-.61.26.43.08.52-4.7,1-4.7,1,4.28-.61,4.5-.49a.32.32,0,0,1-.13.57l-4.27.87a16.71,16.71,0,0,1,3.25,0c.08.13.18.48-.63.51s-2.72.33-2.72.33Z" transform="translate(-21.9 -193.54)"/><path class="cls-16" d="M67.8,271.89s1.2-.48,1.29-1.24a4.69,4.69,0,0,1,.77-1.69c.22-.33.55-1.59.94-1.32s-.45,2.1-.55,2.52,1.53-.47,1.94-.39,1.53,3,.34,3.43a11.25,11.25,0,0,1-2.91.3,8.75,8.75,0,0,1-.85.38Z" transform="translate(-21.9 -193.54)"/><path class="cls-34" d="M36.6,348.68a15.33,15.33,0,0,1-1.38,2.16c-.54.61-2.63,1.71-2.65,3.53s3.53,1.43,4.91,1.35,1.49-1.12,2.07-2.24,1.17-.93,1.27-1.83a10.63,10.63,0,0,0-.56-3Z" transform="translate(-21.9 -193.54)"/><path class="cls-34" d="M57.64,348.5a8.26,8.26,0,0,0,3.43,2.28c1.73.4,2.94.9,2.95,2s-5,1.8-6.95.71c-3-1.63-3.25-1.14-3.58-2s.39-3,.37-3.25S57.64,348.5,57.64,348.5Z" transform="translate(-21.9 -193.54)"/><path class="cls-35" d="M57.45,347.6a9,9,0,0,1,.19.9s-3.9.48-3.78-.23.23-1.2.23-1.2Z" transform="translate(-21.9 -193.54)"/><path class="cls-35" d="M40.21,348.09a5.93,5.93,0,0,1,.13.86s-3.91.71-3.89,0a3.33,3.33,0,0,1,.36-1.2Z" transform="translate(-21.9 -193.54)"/><path class="cls-15" d="M53.94,294.75s1.4,13.52,2.13,18.15c.86,5.41,1.15,9.89,1.38,12.69.3,3.52.36,20.85.57,21.88s-4.65.29-4.65.29-2.39-22.65-3.29-26.4c-.83-3.49-3.91-18.54-4.67-17.58s-1.7,17.55-2.26,20.31-2.27,24.33-2.27,24.33-3.87.76-4.9-.1c0,0-.47-18.6-.11-23.76.14-2-2.33-23.61.83-32.32C38.37,287.64,53.94,294.75,53.94,294.75Z" transform="translate(-21.9 -193.54)"/><path class="cls-36" d="M27.92,279.94c-.81,2.23,6.67,7.82,5.74,8s-.89,1.94-.89,1.94-7.05-6.14-6.91-7.95c.08-1,5.61-15.61,6.45-16.22a61.07,61.07,0,0,1,6.06-2.57,13.26,13.26,0,0,1,1.66-.57c.43,0,5.71.48,5.71.48s.76.26,1.53.62c1.32.6,3.38,1.55,4.86,2.26.48.22,1.08.53,1.57.79-.06,1.8-.16,3.72-.32,5.78,0,0-.27,4.49-.3,9a21.53,21.53,0,0,0-.19,3.42c-.07,2.26.18,4.59.25,5.89.1,2,.38,4.95.38,4.95L51,296.83l-11.26-.1-3.52-1s.21-9,.16-11.68-.59-9.11-.69-9.49C35.65,274.61,31.88,269.13,27.92,279.94Z" transform="translate(-21.9 -193.54)"/><path class="cls-37" d="M53.19,294.82a93.32,93.32,0,0,1-14.5,0V297s10.08,1,14.83-.42Z" transform="translate(-21.9 -193.54)"/><path class="cls-11" d="M55.74,302.05a111.9,111.9,0,0,1-2.35-13.49h0c0-.26-.07-.52-.1-.78v0c-.12-1.08-.23-2.11-.3-3.06a9.52,9.52,0,0,1,.09-2.14c.15-2.5.27-5.07.34-7s.11-3,.11-3c.15-2.07.24-4,.29-5.81v-.07s-4.7-2.22-6.54-3c-.07,0-.6-.27-.68-.29a43.55,43.55,0,0,1,2.19,9.55c.37,2.54,1,6.81,1.53,11.16h0c.38,3.43,1.26,7,1.54,9.58,0,.07,0,.14,0,.2,0,.3.07.65.11,1s.1.92.15,1.43h0c0,.19,0,.38.07.58.36,3.34.81,7.49.81,7.49l1.84-1.16.28-.17C55.44,302.81,55.86,302.45,55.74,302.05Z" transform="translate(-21.9 -193.54)"/><path class="cls-11" d="M28.66,279.36c-.92,2,5.81,8.15,5.73,8.36a19.39,19.39,0,0,1-2.21,3.42S21.76,280,21.9,278.58c.1-1,8.83-12.16,9.68-12.76.48-.35,4.09-1.63,5.86-2.33l1.67-.63c.37.41,3,3.25,3.93,14a67.76,67.76,0,0,1-.66,8.82c-.35,3.35-.73,6-1,8.78-.56,5.52-.94,9.92-.94,9.92L34.93,302c-.89-.44-2.43-1.61-2.1-2.54C34.1,295.87,36,289.12,36,286c0,0-1.45-10.44-1.94-12.12C34.07,273.87,29.68,277.12,28.66,279.36Z" transform="translate(-21.9 -193.54)"/><path class="cls-38" d="M40.52,263.12a37.5,37.5,0,0,0-.74-5.48c-.18-1,5.7,2.59,5.7,2.59s0,.34,0,.81c0,.24,0,.52,0,.8a2.81,2.81,0,0,1,0,.29c0,.26,0,.51,0,.72a3.74,3.74,0,0,0,.19.71C45.93,264.12,42.5,264.54,40.52,263.12Z" transform="translate(-21.9 -193.54)"/><path class="cls-39" d="M44.19,265l1,1.32a1.19,1.19,0,0,1-1.59.2Z" transform="translate(-21.9 -193.54)"/><path class="cls-39" d="M44.91,266.39s3.7,14.25,2.94,25.35l-1.25,2.19-1.16-2.3s-.32-19.84-1.34-25.28Z" transform="translate(-21.9 -193.54)"/><path class="cls-38" d="M45.24,263.8,44.19,265s-1.67-.32-2.17-1.2S45.24,263.8,45.24,263.8Z" transform="translate(-21.9 -193.54)"/><path class="cls-40" d="M45.48,262.73A5,5,0,0,1,44.19,265l1.27,1.71.69-3.54Z" transform="translate(-21.9 -193.54)"/><path class="cls-40" d="M40.42,261.84s2.08,2.51,3.77,3.18l-.79,2-3.94-4.25Z" transform="translate(-21.9 -193.54)"/><path class="cls-11" d="M70.92,273.92s-8.94,9.72-11.05,9.2c-1-.24-2.46-1.92-3.68-3.5-.4-.53-.8-1.07-1.17-1.62h0c-1.49-2.16-2.67-4.24-2.67-4.24s-4.43-5.19-.87-7.5l2.35.42c.79.58,2.7,4.29,3,5s2.73,5.45,3,5.59,2.6-1.28,3.87-2.14a47.41,47.41,0,0,0,4.63-3.78Z" transform="translate(-21.9 -193.54)"/><rect class="cls-41" x="21.97" y="101.4" width="3.62" height="2.74"/><path class="cls-16" d="M48.58,251.2s1.3,2.4.66,2.77.62,2.66.77,3-1,.66-1.2.91-.93,3.29-1.85,3.38-5-1.34-6.15-2.5-2-6.44-1.3-8.66S46.3,247,48.58,251.2Z" transform="translate(-21.9 -193.54)"/><path class="cls-42" d="M48.84,251.72a3.68,3.68,0,0,0-1.08-4.51c-2.39-1.92-6.82,1.45-7.32,1.58s-3.32.32-1.89,5.29a32.66,32.66,0,0,0,1.39,4.44,11.46,11.46,0,0,1,1.44-2.85,4.88,4.88,0,0,1,2.58-.44s-.84-2.25.48-2.57S47.5,251.22,48.84,251.72Z" transform="translate(-21.9 -193.54)"/><path class="cls-16" d="M42.55,253.94c-.11-.31-.49-1.63-1.63-.86s.71,3.28.91,3.31S43.54,256.53,42.55,253.94Z" transform="translate(-21.9 -193.54)"/><path class="cls-43" d="M45.44,261.84a2.81,2.81,0,0,1,0,.29c-3.37-1.13-4-2.83-4-2.83a23.33,23.33,0,0,0,4,1.74C45.45,261.28,45.44,261.56,45.44,261.84Z" transform="translate(-21.9 -193.54)"/><path class="cls-16" d="M33.17,287.69a1.22,1.22,0,0,0,.66.26c.58,0,1.25-.64,1.86-.06s-.68,3-1.14,3.31S33,291,31.91,289.61,33.17,287.69,33.17,287.69Z" transform="translate(-21.9 -193.54)"/><path class="cls-16" d="M35.45,287.72a25.59,25.59,0,0,1,2.44,1c1.1.54,2.4,1.36,2.26,1.64s-1.18-.37-2.31-.83-.91-.16-.91-.16,0-.08,1,.6,2.3,1.58,2.19,1.81-.16.31-.62.11c.24.17.22.26.16.36-.32.55-2.14-.27-2.86-.6.56.26.93.5.52.71s-3-1-3.93-1.41S35.45,287.72,35.45,287.72Z" transform="translate(-21.9 -193.54)"/><path class="cls-11" d="M34.39,287.72a7.21,7.21,0,0,1-2.21,3.42s-4.47-4.93-5.27-5.86l3.5-2Z" transform="translate(-21.9 -193.54)"/></svg>