<svg width="239" height="70" viewBox="0 0 239 70" fill="none" xmlns="http://www.w3.org/2000/svg">
<g filter="url(#filter0_d)">
<path fill-rule="evenodd" clip-rule="evenodd" d="M35 0C21.1929 0 10 11.1929 10 25C10 38.8071 21.1929 50 35 50H204C217.807 50 229 38.8071 229 25C229 11.1929 217.807 0 204 0H35Z" fill="white"/>
<path d="M11.5 25C11.5 12.0213 22.0213 1.5 35 1.5H204C216.979 1.5 227.5 12.0213 227.5 25C227.5 37.9787 216.979 48.5 204 48.5H35C22.0213 48.5 11.5 37.9787 11.5 25Z" stroke="url(#paint0_linear)" stroke-width="3"/>
</g>
<path d="M84.3232 24.8169H85.1044C85.87 24.8169 86.4351 24.6893 86.7997 24.4341C87.1643 24.1789 87.3466 23.7778 87.3466 23.231C87.3466 22.6893 87.1591 22.3039 86.7841 22.0747C86.4143 21.8455 85.8388 21.731 85.0575 21.731H84.3232V24.8169ZM84.3232 26.7856V31.1685H81.9013V19.7466H85.2294C86.7815 19.7466 87.9299 20.0304 88.6747 20.5981C89.4195 21.1606 89.7919 22.0174 89.7919 23.1685C89.7919 23.8403 89.607 24.4393 89.2372 24.9653C88.8674 25.4862 88.344 25.895 87.6669 26.1919C89.3857 28.7596 90.5055 30.4185 91.0263 31.1685H88.3388L85.6122 26.7856H84.3232ZM99.0419 31.1685H92.4638V19.7466H99.0419V21.731H94.8857V24.2388H98.7529V26.2231H94.8857V29.1685H99.0419V31.1685ZM108.175 27.9966C108.175 29.0278 107.802 29.8403 107.058 30.4341C106.318 31.0278 105.287 31.3247 103.964 31.3247C102.745 31.3247 101.667 31.0955 100.729 30.6372V28.3872C101.5 28.731 102.151 28.9731 102.683 29.1138C103.219 29.2544 103.709 29.3247 104.151 29.3247C104.683 29.3247 105.089 29.2231 105.37 29.02C105.656 28.8169 105.8 28.5148 105.8 28.1138C105.8 27.8898 105.737 27.6919 105.612 27.52C105.487 27.3429 105.302 27.1737 105.058 27.0122C104.818 26.8507 104.326 26.5929 103.581 26.2388C102.883 25.9106 102.36 25.5955 102.011 25.2935C101.662 24.9914 101.383 24.6398 101.175 24.2388C100.966 23.8377 100.862 23.369 100.862 22.8325C100.862 21.8221 101.203 21.0278 101.886 20.4497C102.573 19.8716 103.521 19.5825 104.729 19.5825C105.323 19.5825 105.888 19.6528 106.425 19.7935C106.966 19.9341 107.531 20.132 108.12 20.3872L107.339 22.27C106.729 22.02 106.224 21.8455 105.823 21.7466C105.427 21.6476 105.037 21.5981 104.651 21.5981C104.193 21.5981 103.841 21.7049 103.597 21.9185C103.352 22.132 103.229 22.4106 103.229 22.7544C103.229 22.9679 103.279 23.1554 103.378 23.3169C103.477 23.4731 103.633 23.6268 103.847 23.7778C104.065 23.9237 104.578 24.1893 105.386 24.5747C106.453 25.0851 107.185 25.5981 107.581 26.1138C107.977 26.6242 108.175 27.2518 108.175 27.9966ZM116.823 31.1685H110.245V19.7466H116.823V21.731H112.667V24.2388H116.534V26.2231H112.667V29.1685H116.823V31.1685ZM126.206 31.1685L125.378 28.4497H121.214L120.386 31.1685H117.776L121.808 19.6997H124.768L128.815 31.1685H126.206ZM124.8 26.4185C124.034 23.9549 123.602 22.5617 123.503 22.2388C123.409 21.9159 123.341 21.6606 123.3 21.4731C123.128 22.1398 122.636 23.7882 121.823 26.4185H124.8ZM132.683 24.8169H133.464C134.229 24.8169 134.795 24.6893 135.159 24.4341C135.524 24.1789 135.706 23.7778 135.706 23.231C135.706 22.6893 135.518 22.3039 135.143 22.0747C134.774 21.8455 134.198 21.731 133.417 21.731H132.683V24.8169ZM132.683 26.7856V31.1685H130.261V19.7466H133.589C135.141 19.7466 136.289 20.0304 137.034 20.5981C137.779 21.1606 138.151 22.0174 138.151 23.1685C138.151 23.8403 137.966 24.4393 137.597 24.9653C137.227 25.4862 136.703 25.895 136.026 26.1919C137.745 28.7596 138.865 30.4185 139.386 31.1685H136.698L133.972 26.7856H132.683ZM145.675 21.5981C144.763 21.5981 144.058 21.9419 143.558 22.6294C143.058 23.3117 142.808 24.2648 142.808 25.4888C142.808 28.0356 143.763 29.3091 145.675 29.3091C146.477 29.3091 147.448 29.1086 148.589 28.7075V30.7388C147.651 31.1294 146.604 31.3247 145.448 31.3247C143.787 31.3247 142.516 30.8221 141.636 29.8169C140.755 28.8065 140.315 27.3586 140.315 25.4731C140.315 24.2856 140.531 23.2466 140.964 22.356C141.396 21.4601 142.016 20.7752 142.823 20.3013C143.636 19.8221 144.586 19.5825 145.675 19.5825C146.784 19.5825 147.899 19.8507 149.018 20.3872L148.237 22.356C147.81 22.1528 147.38 21.9757 146.948 21.8247C146.516 21.6737 146.091 21.5981 145.675 21.5981ZM160.386 31.1685H157.972V26.2388H153.448V31.1685H151.026V19.7466H153.448V24.2231H157.972V19.7466H160.386V31.1685Z" fill="url(#paint1_linear)"/>
<path d="M84.3232 24.8169H85.1044C85.87 24.8169 86.4351 24.6893 86.7997 24.4341C87.1643 24.1789 87.3466 23.7778 87.3466 23.231C87.3466 22.6893 87.1591 22.3039 86.7841 22.0747C86.4143 21.8455 85.8388 21.731 85.0575 21.731H84.3232V24.8169ZM84.3232 26.7856V31.1685H81.9013V19.7466H85.2294C86.7815 19.7466 87.9299 20.0304 88.6747 20.5981C89.4195 21.1606 89.7919 22.0174 89.7919 23.1685C89.7919 23.8403 89.607 24.4393 89.2372 24.9653C88.8674 25.4862 88.344 25.895 87.6669 26.1919C89.3857 28.7596 90.5055 30.4185 91.0263 31.1685H88.3388L85.6122 26.7856H84.3232ZM99.0419 31.1685H92.4638V19.7466H99.0419V21.731H94.8857V24.2388H98.7529V26.2231H94.8857V29.1685H99.0419V31.1685ZM108.175 27.9966C108.175 29.0278 107.802 29.8403 107.058 30.4341C106.318 31.0278 105.287 31.3247 103.964 31.3247C102.745 31.3247 101.667 31.0955 100.729 30.6372V28.3872C101.5 28.731 102.151 28.9731 102.683 29.1138C103.219 29.2544 103.709 29.3247 104.151 29.3247C104.683 29.3247 105.089 29.2231 105.37 29.02C105.656 28.8169 105.8 28.5148 105.8 28.1138C105.8 27.8898 105.737 27.6919 105.612 27.52C105.487 27.3429 105.302 27.1737 105.058 27.0122C104.818 26.8507 104.326 26.5929 103.581 26.2388C102.883 25.9106 102.36 25.5955 102.011 25.2935C101.662 24.9914 101.383 24.6398 101.175 24.2388C100.966 23.8377 100.862 23.369 100.862 22.8325C100.862 21.8221 101.203 21.0278 101.886 20.4497C102.573 19.8716 103.521 19.5825 104.729 19.5825C105.323 19.5825 105.888 19.6528 106.425 19.7935C106.966 19.9341 107.531 20.132 108.12 20.3872L107.339 22.27C106.729 22.02 106.224 21.8455 105.823 21.7466C105.427 21.6476 105.037 21.5981 104.651 21.5981C104.193 21.5981 103.841 21.7049 103.597 21.9185C103.352 22.132 103.229 22.4106 103.229 22.7544C103.229 22.9679 103.279 23.1554 103.378 23.3169C103.477 23.4731 103.633 23.6268 103.847 23.7778C104.065 23.9237 104.578 24.1893 105.386 24.5747C106.453 25.0851 107.185 25.5981 107.581 26.1138C107.977 26.6242 108.175 27.2518 108.175 27.9966ZM116.823 31.1685H110.245V19.7466H116.823V21.731H112.667V24.2388H116.534V26.2231H112.667V29.1685H116.823V31.1685ZM126.206 31.1685L125.378 28.4497H121.214L120.386 31.1685H117.776L121.808 19.6997H124.768L128.815 31.1685H126.206ZM124.8 26.4185C124.034 23.9549 123.602 22.5617 123.503 22.2388C123.409 21.9159 123.341 21.6606 123.3 21.4731C123.128 22.1398 122.636 23.7882 121.823 26.4185H124.8ZM132.683 24.8169H133.464C134.229 24.8169 134.795 24.6893 135.159 24.4341C135.524 24.1789 135.706 23.7778 135.706 23.231C135.706 22.6893 135.518 22.3039 135.143 22.0747C134.774 21.8455 134.198 21.731 133.417 21.731H132.683V24.8169ZM132.683 26.7856V31.1685H130.261V19.7466H133.589C135.141 19.7466 136.289 20.0304 137.034 20.5981C137.779 21.1606 138.151 22.0174 138.151 23.1685C138.151 23.8403 137.966 24.4393 137.597 24.9653C137.227 25.4862 136.703 25.895 136.026 26.1919C137.745 28.7596 138.865 30.4185 139.386 31.1685H136.698L133.972 26.7856H132.683ZM145.675 21.5981C144.763 21.5981 144.058 21.9419 143.558 22.6294C143.058 23.3117 142.808 24.2648 142.808 25.4888C142.808 28.0356 143.763 29.3091 145.675 29.3091C146.477 29.3091 147.448 29.1086 148.589 28.7075V30.7388C147.651 31.1294 146.604 31.3247 145.448 31.3247C143.787 31.3247 142.516 30.8221 141.636 29.8169C140.755 28.8065 140.315 27.3586 140.315 25.4731C140.315 24.2856 140.531 23.2466 140.964 22.356C141.396 21.4601 142.016 20.7752 142.823 20.3013C143.636 19.8221 144.586 19.5825 145.675 19.5825C146.784 19.5825 147.899 19.8507 149.018 20.3872L148.237 22.356C147.81 22.1528 147.38 21.9757 146.948 21.8247C146.516 21.6737 146.091 21.5981 145.675 21.5981ZM160.386 31.1685H157.972V26.2388H153.448V31.1685H151.026V19.7466H153.448V24.2231H157.972V19.7466H160.386V31.1685Z" fill="#EE4266"/>
<defs>
<filter id="filter0_d" x="0" y="0" width="239" height="70" filterUnits="userSpaceOnUse" color-interpolation-filters="sRGB">
<feFlood flood-opacity="0" result="BackgroundImageFix"/>
<feColorMatrix in="SourceAlpha" type="matrix" values="0 0 0 0 0 0 0 0 0 0 0 0 0 0 0 0 0 0 127 0"/>
<feOffset dy="10"/>
<feGaussianBlur stdDeviation="5"/>
<feColorMatrix type="matrix" values="0 0 0 0 1 0 0 0 0 1 0 0 0 0 1 0 0 0 0.1 0"/>
<feBlend mode="normal" in2="BackgroundImageFix" result="effect1_dropShadow"/>
<feBlend mode="normal" in="SourceGraphic" in2="effect1_dropShadow" result="shape"/>
</filter>
<linearGradient id="paint0_linear" x1="-13.1696" y1="-29.1284" x2="172.522" y2="110.44" gradientUnits="userSpaceOnUse">
<stop stop-color="#9477D1"/>
<stop offset="1" stop-color="#EE4266"/>
</linearGradient>
<linearGradient id="paint1_linear" x1="62.2161" y1="3.83085" x2="151.915" y2="55.061" gradientUnits="userSpaceOnUse">
<stop stop-color="#CACAEA"/>
<stop offset="1" stop-color="#EE4266"/>
</linearGradient>
</defs>
</svg>
