<svg width="330" height="228" viewBox="0 0 330 228" fill="none" xmlns="http://www.w3.org/2000/svg">
<g filter="url(#filter0_d)">
<mask id="path-1-inside-1" fill="white">
<path fill-rule="evenodd" clip-rule="evenodd" d="M167.856 4.61462C166.279 2.18315 162.721 2.18315 161.144 4.61462L143.138 32.3803H14C10.6863 32.3803 8 35.0666 8 38.3803V208.001C8 211.314 10.6863 214.001 14 214.001H316C319.314 214.001 322 211.314 322 208.001V38.3803C322 35.0666 319.314 32.3803 316 32.3803H185.862L167.856 4.61462Z"/>
</mask>
<path fill-rule="evenodd" clip-rule="evenodd" d="M167.856 4.61462C166.279 2.18315 162.721 2.18315 161.144 4.61462L143.138 32.3803H14C10.6863 32.3803 8 35.0666 8 38.3803V208.001C8 211.314 10.6863 214.001 14 214.001H316C319.314 214.001 322 211.314 322 208.001V38.3803C322 35.0666 319.314 32.3803 316 32.3803H185.862L167.856 4.61462Z" fill="white"/>
<path d="M161.144 4.61462L162.822 5.70282L162.822 5.70281L161.144 4.61462ZM167.856 4.61462L166.178 5.70281L166.178 5.70282L167.856 4.61462ZM143.138 32.3803V34.3803H144.225L144.816 33.4685L143.138 32.3803ZM185.862 32.3803L184.184 33.4685L184.775 34.3803H185.862V32.3803ZM162.822 5.70281C163.61 4.48708 165.39 4.48708 166.178 5.70281L169.534 3.52643C167.169 -0.120787 161.831 -0.120788 159.466 3.52643L162.822 5.70281ZM144.816 33.4685L162.822 5.70282L159.466 3.52642L141.46 31.2921L144.816 33.4685ZM14 34.3803H143.138V30.3803H14V34.3803ZM10 38.3803C10 36.1712 11.7909 34.3803 14 34.3803V30.3803C9.58172 30.3803 6 33.9621 6 38.3803H10ZM10 208.001V38.3803H6V208.001H10ZM14 212.001C11.7909 212.001 10 210.21 10 208.001H6C6 212.419 9.58173 216.001 14 216.001V212.001ZM316 212.001H14V216.001H316V212.001ZM320 208.001C320 210.21 318.209 212.001 316 212.001V216.001C320.418 216.001 324 212.419 324 208.001H320ZM320 38.3803V208.001H324V38.3803H320ZM316 34.3803C318.209 34.3803 320 36.1712 320 38.3803H324C324 33.9621 320.418 30.3803 316 30.3803V34.3803ZM185.862 34.3803H316V30.3803H185.862V34.3803ZM166.178 5.70282L184.184 33.4685L187.54 31.2921L169.534 3.52642L166.178 5.70282Z" fill="#E7E7E7" mask="url(#path-1-inside-1)"/>
</g>
<defs>
<filter id="filter0_d" x="0" y="0.791016" width="330" height="227.21" filterUnits="userSpaceOnUse" color-interpolation-filters="sRGB">
<feFlood flood-opacity="0" result="BackgroundImageFix"/>
<feColorMatrix in="SourceAlpha" type="matrix" values="0 0 0 0 0 0 0 0 0 0 0 0 0 0 0 0 0 0 127 0"/>
<feOffset dy="6"/>
<feGaussianBlur stdDeviation="4"/>
<feColorMatrix type="matrix" values="0 0 0 0 0 0 0 0 0 0 0 0 0 0 0 0 0 0 0.05 0"/>
<feBlend mode="normal" in2="BackgroundImageFix" result="effect1_dropShadow"/>
<feBlend mode="normal" in="SourceGraphic" in2="effect1_dropShadow" result="shape"/>
</filter>
</defs>
</svg>
