<svg width="49" height="32" viewBox="0 0 49 32" fill="none" xmlns="http://www.w3.org/2000/svg">
<path d="M42.3742 4.50203H40.512C40.2541 4.5137 39.9963 4.47537 39.7528 4.38911C39.505 4.30129 39.2769 4.16551 39.0815 3.98952C38.8862 3.81354 38.7274 3.60079 38.6142 3.36343C38.5011 3.12607 38.4358 2.86875 38.4222 2.60618C38.4085 2.3436 38.4467 2.08089 38.5345 1.83306C38.6224 1.58524 38.7582 1.35715 38.9342 1.16181C39.1103 0.966483 39.323 0.807742 39.5604 0.694652C39.7977 0.581582 40.055 0.51636 40.3176 0.502714L42.3742 4.50203ZM42.3742 4.50203L35.3969 13.7955L35.3961 13.7966C35.2389 14.0072 35.1246 14.2467 35.0599 14.5015L35.5445 14.6245L35.0599 14.5015C34.9952 14.7562 34.9813 15.0212 35.019 15.2814C35.0952 15.8067 35.3769 16.2803 35.8023 16.5979C36.2276 16.9155 36.7617 17.0512 37.2871 16.975C37.8121 16.8989 38.2854 16.6175 38.603 16.1926L42.3742 4.50203ZM38.6036 16.1918L44.4999 8.33014V8.49869C44.4966 8.76244 44.5456 9.02424 44.6439 9.269L45.0961 9.0873L44.644 9.26901C44.7428 9.51494 44.8895 9.73877 45.0756 9.9275L45.4316 9.57646L45.0756 9.92751C45.2617 10.1162 45.4834 10.2661 45.7279 10.3684C45.9724 10.4707 46.2348 10.5234 46.4999 10.5234C46.7649 10.5234 47.0273 10.4707 47.2718 10.3684C47.5163 10.2661 47.7381 10.1162 47.9241 9.92751C48.1102 9.73877 48.2569 9.51493 48.3558 9.269C48.4541 9.02424 48.5031 8.76245 48.4999 8.49869V2.50203C48.4998 1.97158 48.2891 1.46291 47.914 1.08786C47.539 0.712813 47.0303 0.502089 46.4999 0.502036H40.512C40.4472 0.499113 40.3824 0.499337 40.3177 0.502708L38.6036 16.1918ZM20.3342 13.0837L20.2656 13.1863C20.0934 13.378 19.8268 13.502 19.4999 13.502C18.9299 13.502 18.4999 13.072 18.4999 12.502C18.4999 11.932 18.9299 11.502 19.4999 11.502C20.07 11.502 20.4999 11.932 20.4999 12.502C20.4999 12.7272 20.4352 12.9324 20.3342 13.0837ZM19.4999 7.50201C16.7563 7.50201 14.5 9.75836 14.5 12.502C14.5 13.0773 14.6026 13.6335 14.7849 14.1487L7.48763 20.9195C6.8778 20.6523 6.20389 20.502 5.49999 20.502C2.75633 20.502 0.5 22.7583 0.5 25.502C0.5 28.2456 2.75633 30.5019 5.49999 30.5019C8.24364 30.5019 10.5 28.2456 10.5 25.502C10.5 24.923 10.3998 24.3712 10.2158 23.8546L17.5122 17.0846C18.1222 17.3519 18.7957 17.502 19.4999 17.502C20.4738 17.502 21.396 17.2236 22.1724 16.7323L27.0917 20.0819C27.0333 20.3775 26.9999 20.6831 26.9999 21.002C26.9999 23.7456 29.2562 26.002 31.9999 26.002C34.7436 26.002 36.9999 23.7456 36.9999 21.002C36.9999 18.2583 34.7436 16.002 31.9999 16.002C31.0325 16.002 30.1248 16.2922 29.36 16.7728L24.4072 13.4055C24.4641 13.117 24.4999 12.8135 24.4999 12.502C24.4999 9.75836 22.2436 7.50201 19.4999 7.50201ZM31.9999 20.002C32.57 20.002 32.9999 20.4319 32.9999 21.002C32.9999 21.572 32.57 22.002 31.9999 22.002C31.4299 22.002 30.9999 21.572 30.9999 21.002C30.9999 20.4319 31.4299 20.002 31.9999 20.002ZM5.49999 24.502C6.07003 24.502 6.49998 24.9319 6.49998 25.502C6.49998 26.072 6.07003 26.502 5.49999 26.502C4.92994 26.502 4.49999 26.072 4.49999 25.502C4.49999 24.9319 4.92994 24.502 5.49999 24.502Z" fill="#21B7B7" stroke="#21B7B7"/>
<path d="M39.3436 0.00203568C39.1466 0.0122621 38.9536 0.0611963 38.7755 0.146043C38.5974 0.230889 38.4377 0.349986 38.3057 0.496533C38.1736 0.64308 38.0717 0.814206 38.0058 1.00014C37.9399 1.18607 37.9112 1.38317 37.9215 1.58017C37.9318 1.77717 37.9807 1.97023 38.0656 2.1483C38.1505 2.32638 38.2696 2.486 38.4162 2.61803C38.5627 2.75007 38.7339 2.85194 38.9198 2.91782C39.1058 2.98371 39.3029 3.01232 39.4999 3.00203H42.3749L34.7968 13.0957C34.6788 13.2537 34.5931 13.4334 34.5445 13.6245C34.496 13.8157 34.4856 14.0145 34.5139 14.2096C34.571 14.6037 34.7824 14.959 35.1015 15.1973C35.4205 15.4356 35.8212 15.5373 36.2153 15.4802C36.6095 15.4231 36.9647 15.2117 37.203 14.8926L43.9999 5.83014V7.50201C43.9971 7.70078 44.0338 7.89812 44.1079 8.08257C44.182 8.26703 44.2921 8.43491 44.4316 8.57646C44.5712 8.71802 44.7375 8.83042 44.9209 8.90714C45.1043 8.98386 45.3011 9.02337 45.4999 9.02337C45.6986 9.02337 45.8955 8.98386 46.0788 8.90714C46.2622 8.83042 46.4285 8.71802 46.5681 8.57646C46.7077 8.43491 46.8177 8.26703 46.8918 8.08257C46.9659 7.89812 47.0027 7.70078 46.9999 7.50201V1.50203C46.9998 1.10422 46.8418 0.722713 46.5605 0.441418C46.2792 0.160123 45.8977 0.00207545 45.4999 0.00203568H39.4999C39.4478 -0.000678559 39.3957 -0.000678559 39.3436 0.00203568ZM18.4999 7.00201C16.0324 7.00201 14 9.0345 14 11.502C14 12.1313 14.1371 12.737 14.375 13.2832L6.5781 20.5176C5.95563 20.19 5.24621 20.002 4.49999 20.002C2.03248 20.002 0 22.0345 0 24.502C0 26.9694 2.03248 29.0019 4.49999 29.0019C6.96749 29.0019 8.99997 26.9694 8.99997 24.502C8.99997 23.8676 8.86647 23.2704 8.62497 22.7207L16.4218 15.4864C17.0445 15.8143 17.7533 16.002 18.4999 16.002C19.4929 16.002 20.4238 15.6811 21.1718 15.127L26.6562 18.8614C26.5578 19.2288 26.4999 19.6054 26.4999 20.002C26.4999 22.4695 28.5324 24.502 30.9999 24.502C33.4674 24.502 35.4999 22.4695 35.4999 20.002C35.4999 17.5345 33.4674 15.502 30.9999 15.502C30.0191 15.502 29.1023 15.8351 28.3593 16.377L22.8437 12.627C22.9371 12.2682 22.9999 11.8882 22.9999 11.502C22.9999 9.0345 20.9675 7.00201 18.4999 7.00201ZM18.4999 10.002C19.3461 10.002 19.9999 10.6558 19.9999 11.502C19.9999 11.8193 19.9095 12.1225 19.7499 12.3614C19.7499 12.3666 19.7499 12.3718 19.7499 12.377C19.4831 12.7695 19.0245 13.002 18.4999 13.002C17.6538 13.002 16.9999 12.3482 16.9999 11.502C16.9999 10.6558 17.6538 10.002 18.4999 10.002ZM30.9999 18.502C31.8461 18.502 32.4999 19.1558 32.4999 20.002C32.4999 20.8482 31.8461 21.502 30.9999 21.502C30.1537 21.502 29.4999 20.8482 29.4999 20.002C29.4999 19.1558 30.1537 18.502 30.9999 18.502ZM4.49999 23.002C5.34617 23.002 5.99998 23.6558 5.99998 24.502C5.99998 25.3482 5.34617 26.002 4.49999 26.002C3.6538 26.002 2.99999 25.3482 2.99999 24.502C2.99999 23.6558 3.6538 23.002 4.49999 23.002Z" fill="#3420AD"/>
</svg>
