<svg width="239" height="70" viewBox="0 0 239 70" fill="none" xmlns="http://www.w3.org/2000/svg">
<g filter="url(#filter0_d)">
<path fill-rule="evenodd" clip-rule="evenodd" d="M35 0C21.1929 0 10 11.1929 10 25C10 38.8071 21.1929 50 35 50H204C217.807 50 229 38.8071 229 25C229 11.1929 217.807 0 204 0H35Z" fill="white"/>
<path d="M11.5 25C11.5 12.0213 22.0213 1.5 35 1.5H204C216.979 1.5 227.5 12.0213 227.5 25C227.5 37.9787 216.979 48.5 204 48.5H35C22.0213 48.5 11.5 37.9787 11.5 25Z" stroke="url(#paint0_linear)" stroke-width="3"/>
</g>
<path d="M102.3 25.3481C102.3 27.2284 101.763 28.6685 100.69 29.6685C99.6226 30.6685 98.0784 31.1685 96.0575 31.1685H92.8232V19.7466H96.4091C98.2737 19.7466 99.7216 20.2388 100.753 21.2231C101.784 22.2075 102.3 23.5825 102.3 25.3481ZM99.7841 25.4106C99.7841 22.9575 98.7008 21.731 96.5341 21.731H95.245V29.1685H96.2841C98.6174 29.1685 99.7841 27.9159 99.7841 25.4106ZM111.245 31.1685H104.667V19.7466H111.245V21.731H107.089V24.2388H110.956V26.2231H107.089V29.1685H111.245V31.1685ZM120.378 27.9966C120.378 29.0278 120.005 29.8403 119.261 30.4341C118.521 31.0278 117.49 31.3247 116.167 31.3247C114.948 31.3247 113.87 31.0955 112.933 30.6372V28.3872C113.703 28.731 114.354 28.9731 114.886 29.1138C115.422 29.2544 115.912 29.3247 116.354 29.3247C116.886 29.3247 117.292 29.2231 117.573 29.02C117.86 28.8169 118.003 28.5148 118.003 28.1138C118.003 27.8898 117.94 27.6919 117.815 27.52C117.69 27.3429 117.505 27.1737 117.261 27.0122C117.021 26.8507 116.529 26.5929 115.784 26.2388C115.086 25.9106 114.563 25.5955 114.214 25.2935C113.865 24.9914 113.586 24.6398 113.378 24.2388C113.17 23.8377 113.065 23.369 113.065 22.8325C113.065 21.8221 113.406 21.0278 114.089 20.4497C114.776 19.8716 115.724 19.5825 116.933 19.5825C117.526 19.5825 118.091 19.6528 118.628 19.7935C119.17 19.9341 119.735 20.132 120.323 20.3872L119.542 22.27C118.933 22.02 118.427 21.8455 118.026 21.7466C117.63 21.6476 117.24 21.5981 116.854 21.5981C116.396 21.5981 116.045 21.7049 115.8 21.9185C115.555 22.132 115.433 22.4106 115.433 22.7544C115.433 22.9679 115.482 23.1554 115.581 23.3169C115.68 23.4731 115.836 23.6268 116.05 23.7778C116.268 23.9237 116.781 24.1893 117.589 24.5747C118.656 25.0851 119.388 25.5981 119.784 26.1138C120.18 26.6242 120.378 27.2518 120.378 27.9966ZM122.448 31.1685V19.7466H124.87V31.1685H122.448ZM132.081 24.7544H136.612V30.6763C135.878 30.9159 135.185 31.0825 134.534 31.1763C133.888 31.2752 133.227 31.3247 132.55 31.3247C130.826 31.3247 129.508 30.8195 128.597 29.8091C127.69 28.7935 127.237 27.3377 127.237 25.4419C127.237 23.5981 127.763 22.1606 128.815 21.1294C129.873 20.0981 131.336 19.5825 133.206 19.5825C134.378 19.5825 135.508 19.8169 136.597 20.2856L135.792 22.2231C134.959 21.8065 134.091 21.5981 133.19 21.5981C132.143 21.5981 131.305 21.9497 130.675 22.6528C130.045 23.356 129.729 24.3013 129.729 25.4888C129.729 26.7284 129.982 27.6763 130.487 28.3325C130.998 28.9836 131.737 29.3091 132.706 29.3091C133.211 29.3091 133.724 29.257 134.245 29.1528V26.77H132.081V24.7544ZM149.472 31.1685H146.393L141.425 22.5278H141.354C141.453 24.0539 141.503 25.1424 141.503 25.7935V31.1685H139.339V19.7466H142.393L147.354 28.3013H147.409C147.331 26.8169 147.292 25.7674 147.292 25.1528V19.7466H149.472V31.1685Z" fill="url(#paint1_linear)"/>
<path d="M102.3 25.3481C102.3 27.2284 101.763 28.6685 100.69 29.6685C99.6226 30.6685 98.0784 31.1685 96.0575 31.1685H92.8232V19.7466H96.4091C98.2737 19.7466 99.7216 20.2388 100.753 21.2231C101.784 22.2075 102.3 23.5825 102.3 25.3481ZM99.7841 25.4106C99.7841 22.9575 98.7008 21.731 96.5341 21.731H95.245V29.1685H96.2841C98.6174 29.1685 99.7841 27.9159 99.7841 25.4106ZM111.245 31.1685H104.667V19.7466H111.245V21.731H107.089V24.2388H110.956V26.2231H107.089V29.1685H111.245V31.1685ZM120.378 27.9966C120.378 29.0278 120.005 29.8403 119.261 30.4341C118.521 31.0278 117.49 31.3247 116.167 31.3247C114.948 31.3247 113.87 31.0955 112.933 30.6372V28.3872C113.703 28.731 114.354 28.9731 114.886 29.1138C115.422 29.2544 115.912 29.3247 116.354 29.3247C116.886 29.3247 117.292 29.2231 117.573 29.02C117.86 28.8169 118.003 28.5148 118.003 28.1138C118.003 27.8898 117.94 27.6919 117.815 27.52C117.69 27.3429 117.505 27.1737 117.261 27.0122C117.021 26.8507 116.529 26.5929 115.784 26.2388C115.086 25.9106 114.563 25.5955 114.214 25.2935C113.865 24.9914 113.586 24.6398 113.378 24.2388C113.17 23.8377 113.065 23.369 113.065 22.8325C113.065 21.8221 113.406 21.0278 114.089 20.4497C114.776 19.8716 115.724 19.5825 116.933 19.5825C117.526 19.5825 118.091 19.6528 118.628 19.7935C119.17 19.9341 119.735 20.132 120.323 20.3872L119.542 22.27C118.933 22.02 118.427 21.8455 118.026 21.7466C117.63 21.6476 117.24 21.5981 116.854 21.5981C116.396 21.5981 116.045 21.7049 115.8 21.9185C115.555 22.132 115.433 22.4106 115.433 22.7544C115.433 22.9679 115.482 23.1554 115.581 23.3169C115.68 23.4731 115.836 23.6268 116.05 23.7778C116.268 23.9237 116.781 24.1893 117.589 24.5747C118.656 25.0851 119.388 25.5981 119.784 26.1138C120.18 26.6242 120.378 27.2518 120.378 27.9966ZM122.448 31.1685V19.7466H124.87V31.1685H122.448ZM132.081 24.7544H136.612V30.6763C135.878 30.9159 135.185 31.0825 134.534 31.1763C133.888 31.2752 133.227 31.3247 132.55 31.3247C130.826 31.3247 129.508 30.8195 128.597 29.8091C127.69 28.7935 127.237 27.3377 127.237 25.4419C127.237 23.5981 127.763 22.1606 128.815 21.1294C129.873 20.0981 131.336 19.5825 133.206 19.5825C134.378 19.5825 135.508 19.8169 136.597 20.2856L135.792 22.2231C134.959 21.8065 134.091 21.5981 133.19 21.5981C132.143 21.5981 131.305 21.9497 130.675 22.6528C130.045 23.356 129.729 24.3013 129.729 25.4888C129.729 26.7284 129.982 27.6763 130.487 28.3325C130.998 28.9836 131.737 29.3091 132.706 29.3091C133.211 29.3091 133.724 29.257 134.245 29.1528V26.77H132.081V24.7544ZM149.472 31.1685H146.393L141.425 22.5278H141.354C141.453 24.0539 141.503 25.1424 141.503 25.7935V31.1685H139.339V19.7466H142.393L147.354 28.3013H147.409C147.331 26.8169 147.292 25.7674 147.292 25.1528V19.7466H149.472V31.1685Z" fill="#9477D1"/>
<defs>
<filter id="filter0_d" x="0" y="0" width="239" height="70" filterUnits="userSpaceOnUse" color-interpolation-filters="sRGB">
<feFlood flood-opacity="0" result="BackgroundImageFix"/>
<feColorMatrix in="SourceAlpha" type="matrix" values="0 0 0 0 0 0 0 0 0 0 0 0 0 0 0 0 0 0 127 0"/>
<feOffset dy="10"/>
<feGaussianBlur stdDeviation="5"/>
<feColorMatrix type="matrix" values="0 0 0 0 1 0 0 0 0 1 0 0 0 0 1 0 0 0 0.1 0"/>
<feBlend mode="normal" in2="BackgroundImageFix" result="effect1_dropShadow"/>
<feBlend mode="normal" in="SourceGraphic" in2="effect1_dropShadow" result="shape"/>
</filter>
<linearGradient id="paint0_linear" x1="10" y1="7.99998" x2="253.493" y2="42.5686" gradientUnits="userSpaceOnUse">
<stop offset="0.317708" stop-color="#9477D1"/>
<stop offset="1" stop-color="#FFD28C"/>
</linearGradient>
<linearGradient id="paint1_linear" x1="62.2161" y1="3.83085" x2="151.915" y2="55.061" gradientUnits="userSpaceOnUse">
<stop stop-color="#CACAEA"/>
<stop offset="1" stop-color="#EE4266"/>
</linearGradient>
</defs>
</svg>
