<svg width="49" height="51" viewBox="0 0 49 51" fill="none" xmlns="http://www.w3.org/2000/svg">
<path d="M1.87037 20.6481H7.96296C8.72075 20.6481 9.33333 20.034 9.33333 19.2778V17.537C9.33333 16.8532 9.8902 16.2963 10.5741 16.2963C11.258 16.2963 11.8148 16.8532 11.8148 17.537V19.2778C11.8148 20.034 12.4274 20.6481 13.1852 20.6481H19.2778C20.0356 20.6481 20.6481 20.034 20.6481 19.2778V14.5556H21.0185C23.2147 14.5556 25 12.7703 25 10.5741C25 8.37789 23.2147 6.59259 21.0185 6.59259H20.6481V1.87037C20.6481 1.11411 20.0356 0.5 19.2778 0.5H1.87037C1.11259 0.5 0.5 1.11411 0.5 1.87037V19.2778C0.5 20.034 1.11259 20.6481 1.87037 20.6481ZM3.24074 3.24074H17.9074V7.96296C17.9074 8.71922 18.52 9.33333 19.2778 9.33333H21.0185C21.7024 9.33333 22.2593 9.8902 22.2593 10.5741C22.2593 11.2579 21.7024 11.8148 21.0185 11.8148H19.2778C18.52 11.8148 17.9074 12.4289 17.9074 13.1852V17.9074H14.5556V17.537C14.5556 15.3409 12.7703 13.5556 10.5741 13.5556C8.37789 13.5556 6.59259 15.3409 6.59259 17.537V17.9074H3.24074V3.24074Z" fill="#9477D1" stroke="#9477D1"/>
<path d="M47.1296 0.5H29.7222C28.9644 0.5 28.3519 1.11411 28.3519 1.87037V7.96296C28.3519 8.71922 28.9644 9.33333 29.7222 9.33333H31.463C32.1468 9.33333 32.7037 9.8902 32.7037 10.5741C32.7037 11.258 32.1468 11.8148 31.463 11.8148H29.7222C28.9644 11.8148 28.3519 12.4289 28.3519 13.1852V19.2778C28.3519 20.034 28.9644 20.6481 29.7222 20.6481H34.4444V21.0185C34.4444 23.2147 36.2297 25 38.4259 25C40.6221 25 42.4074 23.2147 42.4074 21.0185V20.6481H47.1296C47.8874 20.6481 48.5 20.034 48.5 19.2778V1.87037C48.5 1.11411 47.8874 0.5 47.1296 0.5ZM45.7593 17.9074H41.037C40.2793 17.9074 39.6667 18.5215 39.6667 19.2778V21.0185C39.6667 21.7024 39.1098 22.2593 38.4259 22.2593C37.7421 22.2593 37.1852 21.7024 37.1852 21.0185V19.2778C37.1852 18.5215 36.5726 17.9074 35.8148 17.9074H31.0926V14.5556H31.463C33.6591 14.5556 35.4444 12.7703 35.4444 10.5741C35.4444 8.37789 33.6591 6.59259 31.463 6.59259H31.0926V3.24074H45.7593V17.9074Z" fill="#9477D1" stroke="#9477D1"/>
<path d="M19.2778 37.6784H17.537C16.8532 37.6784 16.2963 37.1215 16.2963 36.4376C16.2963 35.7538 16.8532 35.1969 17.537 35.1969H19.2778C20.0356 35.1969 20.6481 34.5828 20.6481 33.8265V27.7339C20.6481 26.9777 20.0356 26.3636 19.2778 26.3636H14.5556V25.9932C14.5556 23.797 12.7703 22.0117 10.5741 22.0117C8.37789 22.0117 6.59259 23.797 6.59259 25.9932V26.3636H1.87037C1.11259 26.3636 0.5 26.9777 0.5 27.7339V45.1413C0.5 45.8976 1.11259 46.5117 1.87037 46.5117H19.2778C20.0356 46.5117 20.6481 45.8976 20.6481 45.1413V39.0488C20.6481 38.2925 20.0356 37.6784 19.2778 37.6784ZM3.24074 43.771V29.1043H7.96296C8.72075 29.1043 9.33333 28.4902 9.33333 27.7339V25.9932C9.33333 25.3093 9.8902 24.7525 10.5741 24.7525C11.2579 24.7525 11.8148 25.3093 11.8148 25.9932V27.7339C11.8148 28.4902 12.4274 29.1043 13.1852 29.1043H17.9074V32.4562H17.537C15.3409 32.4562 13.5556 34.2415 13.5556 36.4376C13.5556 38.6338 15.3409 40.4191 17.537 40.4191H17.9074V43.771H3.24074Z" fill="#9477D1" stroke="#9477D1"/>
<path d="M33.0801 46.9326L43.4511 36.5591L33.0801 26.1881L30.7096 28.5586L30.9714 28.8204C31.7237 29.5727 32.1397 30.5736 32.1397 31.6363C32.1397 32.699 31.7237 33.6998 30.9714 34.4521C29.4593 35.9641 26.8546 35.9652 25.3415 34.4521L25.0797 34.1903L22.7091 36.5608L26.0476 39.8993C26.0479 39.8995 26.0481 39.8998 26.0484 39.9C26.3068 40.1575 26.45 40.507 26.45 40.8692C26.45 41.2324 26.306 41.5806 26.0486 41.8381L24.8181 43.0685C24.3351 43.5521 24.335 44.3402 24.8179 44.8239L33.0801 46.9326ZM33.0801 46.9326L29.7407 43.5932C29.4736 43.3262 29.1221 43.1918 28.7718 43.1918C28.4215 43.1918 28.0699 43.3262 27.8029 43.5932L26.5722 44.8239C26.1078 45.2883 25.2826 45.2884 24.8181 44.8242L33.0801 46.9326ZM19.8034 37.5324L23.1419 40.8709L22.8801 41.1327C21.327 42.6857 21.327 45.2104 22.8801 46.7635C24.393 48.2764 26.9977 48.2766 28.51 46.7635C28.51 46.7634 28.5101 46.7634 28.5101 46.7634L28.7718 46.5017L32.1112 49.8411L32.1139 49.8438C32.3806 50.1064 32.7305 50.2408 33.0801 50.2408C33.4293 50.2408 33.7818 50.1066 34.049 49.8394L46.3578 37.5306C46.8934 36.995 46.8934 36.1284 46.3578 35.5928L34.049 23.284C33.5134 22.7484 32.6468 22.7484 32.1112 23.284L27.8029 27.5923C27.5455 27.8498 27.4014 28.198 27.4014 28.5612C27.4014 28.9234 27.5447 29.2731 27.8032 29.5305C27.8034 29.5307 27.8036 29.5309 27.8038 29.5311L29.0335 30.7616L29.0336 30.7617C29.2704 30.9986 29.3989 31.3087 29.3989 31.6389C29.3989 31.9691 29.2704 32.2792 29.0336 32.516C28.5691 32.9805 27.7438 32.9805 27.2793 32.516L26.0486 31.2853C25.513 30.7497 24.6463 30.7497 24.1108 31.2853L19.8024 35.5937C19.545 35.8511 19.401 36.1993 19.401 36.5626C19.401 36.9247 19.5443 37.2743 19.8027 37.5318C19.8029 37.532 19.8032 37.5322 19.8034 37.5324Z" fill="#9477D1" stroke="#9477D1"/>
<path d="M0.87037 19.1481H6.96296C7.44428 19.1481 7.83333 18.7582 7.83333 18.2778V16.537C7.83333 15.577 8.61406 14.7963 9.57407 14.7963C10.5341 14.7963 11.3148 15.577 11.3148 16.537V18.2778C11.3148 18.7582 11.7039 19.1481 12.1852 19.1481H18.2778C18.7591 19.1481 19.1481 18.7582 19.1481 18.2778V13.0556H20.0185C21.9386 13.0556 23.5 11.4941 23.5 9.57407C23.5 7.65404 21.9386 6.09259 20.0185 6.09259H19.1481V0.87037C19.1481 0.389926 18.7591 0 18.2778 0H0.87037C0.389056 0 0 0.389926 0 0.87037V18.2778C0 18.7582 0.389056 19.1481 0.87037 19.1481ZM1.74074 1.74074H17.4074V6.96296C17.4074 7.44341 17.7965 7.83333 18.2778 7.83333H20.0185C20.9785 7.83333 21.7593 8.61405 21.7593 9.57407C21.7593 10.5341 20.9785 11.3148 20.0185 11.3148H18.2778C17.7965 11.3148 17.4074 11.7047 17.4074 12.1852V17.4074H13.0556V16.537C13.0556 14.617 11.4941 13.0556 9.57407 13.0556C7.65404 13.0556 6.09259 14.617 6.09259 16.537V17.4074H1.74074V1.74074Z" fill="#EE4266"/>
<path d="M46.1296 0H28.7222C28.2409 0 27.8519 0.389926 27.8519 0.87037V6.96296C27.8519 7.44341 28.2409 7.83333 28.7222 7.83333H30.463C31.423 7.83333 32.2037 8.61406 32.2037 9.57407C32.2037 10.5341 31.423 11.3148 30.463 11.3148H28.7222C28.2409 11.3148 27.8519 11.7047 27.8519 12.1852V18.2778C27.8519 18.7582 28.2409 19.1481 28.7222 19.1481H33.9444V20.0185C33.9444 21.9386 35.5059 23.5 37.4259 23.5C39.346 23.5 40.9074 21.9386 40.9074 20.0185V19.1481H46.1296C46.6109 19.1481 47 18.7582 47 18.2778V0.87037C47 0.389926 46.6109 0 46.1296 0ZM45.2593 17.4074H40.037C39.5557 17.4074 39.1667 17.7973 39.1667 18.2778V20.0185C39.1667 20.9785 38.3859 21.7593 37.4259 21.7593C36.4659 21.7593 35.6852 20.9785 35.6852 20.0185V18.2778C35.6852 17.7973 35.2961 17.4074 34.8148 17.4074H29.5926V13.0556H30.463C32.383 13.0556 33.9444 11.4941 33.9444 9.57407C33.9444 7.65404 32.383 6.09259 30.463 6.09259H29.5926V1.74074H45.2593V17.4074Z" fill="#EE4266"/>
<path d="M18.2778 37.1784H16.537C15.577 37.1784 14.7963 36.3977 14.7963 35.4376C14.7963 34.4776 15.577 33.6969 16.537 33.6969H18.2778C18.7591 33.6969 19.1481 33.307 19.1481 32.8265V26.7339C19.1481 26.2535 18.7591 25.8636 18.2778 25.8636H13.0556V24.9932C13.0556 23.0732 11.4941 21.5117 9.57407 21.5117C7.65404 21.5117 6.09259 23.0732 6.09259 24.9932V25.8636H0.87037C0.389056 25.8636 0 26.2535 0 26.7339V44.1413C0 44.6218 0.389056 45.0117 0.87037 45.0117H18.2778C18.7591 45.0117 19.1481 44.6218 19.1481 44.1413V38.0488C19.1481 37.5683 18.7591 37.1784 18.2778 37.1784ZM17.4074 43.271H1.74074V27.6043H6.96296C7.44428 27.6043 7.83333 27.2144 7.83333 26.7339V24.9932C7.83333 24.0332 8.61405 23.2525 9.57407 23.2525C10.5341 23.2525 11.3148 24.0332 11.3148 24.9932V26.7339C11.3148 27.2144 11.7039 27.6043 12.1852 27.6043H17.4074V31.9562H16.537C14.617 31.9562 13.0556 33.5176 13.0556 35.4376C13.0556 37.3577 14.617 38.9191 16.537 38.9191H17.4074V43.271Z" fill="#EE4266"/>
<path d="M32.6955 22.6376C32.3552 22.2972 31.8051 22.2972 31.4648 22.6376L27.1564 26.9459C26.9928 27.1095 26.9014 27.3306 26.9014 27.5612C26.9014 27.7919 26.9928 28.0138 27.1564 28.1766L28.3871 29.4082C28.717 29.738 28.8989 30.175 28.8989 30.6389C28.8989 31.1028 28.717 31.5397 28.3871 31.8696C27.7274 32.5293 26.5855 32.5293 25.9257 31.8696L24.695 30.6389C24.3547 30.2986 23.8046 30.2986 23.4643 30.6389L19.156 34.9472C18.9924 35.1108 18.901 35.3319 18.901 35.5626C18.901 35.7932 18.9924 36.0152 19.156 36.1779L22.849 39.8709L22.2336 40.4862C20.8758 41.844 20.8758 44.0522 22.2336 45.4099C23.5514 46.7277 25.8396 46.7277 27.1564 45.4099L27.7718 44.7946L31.4648 48.4876C31.6354 48.6555 31.8582 48.7408 32.0801 48.7408C32.3021 48.7408 32.5257 48.6555 32.6955 48.4858L45.0042 36.177C45.3446 35.8367 45.3446 35.2867 45.0042 34.9463L32.6955 22.6376ZM32.0801 46.6398L28.3871 42.9468C28.2174 42.7771 27.9946 42.6918 27.7718 42.6918C27.549 42.6918 27.3262 42.7771 27.1564 42.9468L25.9257 44.1775C25.266 44.8372 24.1241 44.8372 23.4643 44.1775C22.7863 43.4986 22.7863 42.3941 23.4643 41.7152L24.695 40.4845C24.8587 40.3209 24.95 40.0998 24.95 39.8692C24.95 39.6385 24.8587 39.4166 24.695 39.2538L21.002 35.5608L24.0797 32.4832L24.695 33.0985C26.0128 34.4163 28.301 34.4154 29.6178 33.0985C30.2767 32.4397 30.6397 31.5658 30.6397 30.6363C30.6397 29.7067 30.2767 28.8329 29.6178 28.174L29.0025 27.5586L32.0801 24.481L43.1582 35.5591L32.0801 46.6398Z" fill="#EE4266"/>
</svg>
