<svg width="57" height="56" viewBox="0 0 57 56" fill="none" xmlns="http://www.w3.org/2000/svg">
<path d="M38.4278 23.2746L38.4289 23.2709C38.6732 22.4333 38.7878 21.5547 38.7878 20.6381C38.7878 19.27 38.5118 17.9839 37.9543 16.8089C37.4206 15.6273 36.6549 14.6191 35.6735 13.7761C34.7036 12.9334 33.5538 12.2798 32.2088 11.8234C30.859 11.3435 29.3812 11.1069 27.7697 11.1069C26.2491 11.1069 24.8312 11.3568 23.5104 11.8734C22.2002 12.3793 21.0507 13.1268 20.0642 14.079C19.0839 15.0246 18.2953 16.1827 17.6826 17.5326C17.6125 17.6846 17.554 17.8249 17.4965 17.9745C16.6257 20.1814 18.243 22.5703 20.6192 22.5703H20.6192H20.6193H20.6194H20.6194H20.6195H20.6196H20.6196H20.6197H20.6198H20.6198H20.6199H20.62H20.62H20.6201H20.6202H20.6202H20.6203H20.6204H20.6204H20.6205H20.6206H20.6206H20.6207H20.6208H20.6208H20.6209H20.621H20.6211H20.6211H20.6212H20.6213H20.6213H20.6214H20.6215H20.6216H20.6216H20.6217H20.6218H20.6219H20.6219H20.622H20.6221H20.6221H20.6222H20.6223H20.6224H20.6224H20.6225H20.6226H20.6227H20.6227H20.6228H20.6229H20.623H20.6231H20.6231H20.6232H20.6233H20.6234H20.6234H20.6235H20.6236H20.6237H20.6238H20.6238H20.6239H20.624H20.6241H20.6242H20.6242H20.6243H20.6244H20.6245H20.6246H20.6246H20.6247H20.6248H20.6249H20.625H20.6251H20.6251H20.6252H20.6253H20.6254H20.6255H20.6256H20.6256H20.6257H20.6258H20.6259H20.626H20.6261H20.6261H20.6262H20.6263H20.6264H20.6265H20.6266H20.6267H20.6267H20.6268H20.6269H20.627H20.6271H20.6272H20.6273H20.6274H20.6274H20.6275H20.6276H20.6277H20.6278H20.6279H20.628H20.6281H20.6282H20.6282H20.6283H20.6284H20.6285H20.6286H20.6287H20.6288H20.6289H20.629H20.6291H20.6292H20.6292H20.6293H20.6294H20.6295H20.6296H20.6297H20.6298H20.6299H20.63H20.6301H20.6302H20.6303H20.6304H20.6305H20.6306H20.6306H20.6307H20.6308H20.6309H20.631H20.6311H20.6312H20.6313H20.6314H20.6315H20.6316H20.6317H20.6318H20.6319H20.632H20.6321H20.6322H20.6323H20.6324H20.6325H20.6326H20.6327H20.6328H20.6329H20.633H20.6331H20.6332H20.6333H20.6334H20.6335H20.6336H20.6337H20.6338H20.6339H20.634H20.6341H20.6342H20.6343H20.6344H20.6345H20.6346H20.6347H20.6348H20.6349H20.635H20.6351H20.6352H20.6353H20.6354H20.6355H20.6356H20.6357H20.6358H20.6359H20.636H20.6361H20.6362H20.6363H20.6364H20.6365H20.6366H20.6368H20.6369H20.637H20.6371H20.6372H20.6373H20.6374H20.6375H20.6376H20.6377H20.6378H20.6379H20.638H20.6381H20.6382H20.6383H20.6384H20.6386H20.6387H20.6388H20.6389H20.639H20.6391H20.6392H20.6393H20.6394H20.6395H20.6396H20.6397H20.6399H20.64H20.6401H20.6402H20.6403H20.6404H20.6405H20.6406H20.6407H20.6408H20.641H20.6411H20.6412H20.6413H20.6414H20.6415H20.6416H20.6417H20.6418H20.642H20.6421H20.6422H20.6423H20.6424H20.6425H20.6426H20.6427H20.6429H20.643H20.6431H20.6432H20.6433H20.6434H20.6435H20.6436H20.6438H20.6439H20.644H20.6441H20.6442H20.6443H20.6444H20.6446H20.6447H20.6448H20.6449H20.645H20.6451H20.6452H20.6454H20.6455H20.6456H20.6457H20.6458H20.6459H20.646H20.6462H20.6463H20.6464H20.6465H20.6466H20.6467H20.6469H20.647H20.6471H20.6472H20.6473H20.6474H20.6476H20.6477H20.6478H20.6479H20.648H20.6482H20.6483H20.6484H20.6485H20.6486H20.6487H20.6489H20.649H20.6491H20.6492H20.6493H20.6495H20.6496H20.6497H20.6498H20.6499H20.65H20.6502H20.6503H20.6504H20.6505H20.6506H20.6508H20.6509H20.651H20.6511H20.6512H20.6514H20.6515H20.6516H20.6517H20.6518H20.652H20.6521H20.6522H20.6523H20.6525H20.6526H20.6527H20.6528H20.6529H20.6531H20.6532H20.6533H20.6534H20.6535H20.6537H20.6538H20.6539H20.654H20.6542H20.6543H20.6544H20.6545H20.6546H20.6548H20.6549H20.655H20.6551H20.6553H20.6554H20.6555H20.6556H20.6558H20.6559H20.656H20.6561H20.6562H20.6564H20.6565H20.6566H20.6567H20.6569H20.657H20.6571H20.6572H20.6574H20.6575H20.6576H20.6577H20.6579H20.658H20.6581H20.6582H20.6584H20.6585H20.6586H20.6587H20.6588H20.659H20.6591H20.6592H20.6593H20.6595H20.6596H20.6597H20.6598H20.66H20.6601H20.6602H20.6604H20.6605H20.6606H20.6607H20.6609H20.661H20.6611H20.6612H20.6614H20.6615H20.6616H20.6617H20.6619H20.662H20.6621H20.6622H20.6624H20.6625H20.6626H20.6627H20.6629H20.663H20.6631H20.6632H20.6634H20.6635H20.6636H20.6638H20.6639H20.664H20.6641H20.6643H20.6644H20.6645H20.6646H20.6648H20.6649H20.665H20.6651H20.6653H20.6654H20.6655H20.6657H20.6658H20.6659H20.666H20.6662H20.6663H20.6664H20.6665H20.6667H20.6668H20.6669H20.6671H20.6672H20.6673H20.6674H20.6676H20.6677H20.6678H20.6679H20.6681H20.6682H20.6683H20.6685H20.6686H20.6687H20.6688H20.669H20.6691H20.6692H20.6694H20.6695H20.6696H20.6697H20.6699H20.67H20.6701H20.6702H20.6704H20.6705H20.6706H20.6708H20.6709H20.671H20.6711H20.6713H20.6714H20.6715H20.6717H20.6718H20.6719H20.672H20.6722H20.6723H20.6724H20.6726H20.6727H20.6728H20.6729H20.6731H20.6732H20.6733H20.6735H20.6736H20.6737H20.6738C22.1334 22.5703 23.3983 21.6156 23.8688 20.2548L23.8689 20.2548L23.8704 20.2501C24.2548 19.1023 24.7822 18.2891 25.4264 17.763C26.0638 17.2424 26.8527 16.9724 27.8244 16.9724C28.4591 16.9724 29.005 17.0728 29.4927 17.2736L29.4927 17.2737L29.5005 17.2768C30.0054 17.4748 30.4274 17.7364 30.7776 18.0772L30.7776 18.0772L30.7827 18.082C31.133 18.4133 31.4084 18.821 31.5895 19.2881L31.5926 19.2963L31.5961 19.3043C31.7954 19.7694 31.8946 20.2914 31.8946 20.8677C31.8946 21.1824 31.8655 21.4825 31.824 21.7959C31.7803 22.0319 31.6738 22.3243 31.4896 22.6546C31.3057 22.9732 31.0144 23.3584 30.62 23.8171C30.237 24.2409 29.6894 24.7579 28.9722 25.3466L28.9722 25.3466L28.9682 25.35C27.2456 26.7947 26.0406 28.1921 25.3748 29.5471L25.3748 29.547L25.3719 29.553C24.9178 30.5091 24.6272 31.8922 24.4833 33.652C24.3282 35.5301 25.8172 37.1338 27.6932 37.1338H27.6933H27.6934H27.6936H27.6937H27.6938H27.6939H27.6941H27.6942H27.6943H27.6944H27.6946H27.6947H27.6948H27.6949H27.6951H27.6952H27.6953H27.6954H27.6956H27.6957H27.6958H27.6959H27.6961H27.6962H27.6963H27.6964H27.6965H27.6967H27.6968H27.6969H27.697H27.6972H27.6973H27.6974H27.6975H27.6976H27.6978H27.6979H27.698H27.6981H27.6982H27.6984H27.6985H27.6986H27.6987H27.6988H27.6989H27.6991H27.6992H27.6993H27.6994H27.6995H27.6996H27.6998H27.6999H27.7H27.7001H27.7002H27.7003H27.7005H27.7006H27.7007H27.7008H27.7009H27.701H27.7011H27.7013H27.7014H27.7015H27.7016H27.7017H27.7018H27.7019H27.702H27.7022H27.7023H27.7024H27.7025H27.7026H27.7027H27.7028H27.7029H27.703H27.7032H27.7033H27.7034H27.7035H27.7036H27.7037H27.7038H27.7039H27.704H27.7041H27.7043H27.7044H27.7045H27.7046H27.7047H27.7048H27.7049H27.705H27.7051H27.7052H27.7053H27.7054H27.7055H27.7057H27.7058H27.7059H27.706H27.7061H27.7062H27.7063H27.7064H27.7065H27.7066H27.7067H27.7068H27.7069H27.707H27.7071H27.7072H27.7073H27.7075H27.7076H27.7077H27.7078H27.7079H27.708H27.7081H27.7082H27.7083H27.7084H27.7085H27.7086H27.7087H27.7088H27.7089H27.709H27.7091H27.7092H27.7093H27.7094H27.7095H27.7096H27.7097H27.7098H27.7099H27.71H27.7101H27.7102H27.7103H27.7104H27.7105H27.7106H27.7107H27.7108H27.7109H27.711H27.7111H27.7112H27.7113H27.7114H27.7115H27.7116H27.7117H27.7118H27.7119H27.712H27.7121H27.7122H27.7123H27.7124H27.7125H27.7126H27.7127H27.7128H27.7129H27.713H27.7131H27.7132H27.7133H27.7134H27.7135H27.7136H27.7137H27.7138H27.7139H27.714H27.7141H27.7142H27.7143H27.7144H27.7145H27.7146H27.7147H27.7148H27.7149H27.715H27.7151H27.7152H27.7153H27.7154H27.7155H27.7156H27.7157H27.7158H27.7159H27.716H27.7161H27.7162H27.7163H27.7164H27.7165H27.7166H27.7167H27.7168H27.7169H27.7169H27.717H27.7171H27.7172H27.7173H27.7174H27.7175H27.7176H27.7177H27.7178H27.7179H27.718H27.7181H27.7182H27.7183H27.7184H27.7185H27.7186H27.7187H27.7188H27.7189H27.719H27.7191H27.7192H27.7193H27.7194H27.7195H27.7196H27.7196H27.7197H27.7198H27.7199H27.72H27.7201H27.7202H27.7203H27.7204H27.7205H27.7206H27.7207H27.7208H27.7209H27.721H27.7211H27.7212H27.7213H27.7214H27.7215H27.7216H27.7217H27.7218H27.7219H27.722H27.7221H27.7221H27.7222H27.7223H27.7224H27.7225H27.7226H27.7227H27.7228H27.7229H27.723H27.7231H27.7232H27.7233H27.7234H27.7235H27.7236H27.7237H27.7238H27.7239H27.724H27.7241H27.7242H27.7243H27.7244H27.7245H27.7246H27.7247H27.7248H27.7249H27.7249H27.725H27.7251H27.7252H27.7253H27.7254H27.7255H27.7256H27.7257H27.7258H27.7259H27.726H27.7261H27.7262H27.7263H27.7264H27.7265H27.7266H27.7267H27.7268H27.7269H27.727H27.7271H27.7272H27.7273H27.7274H27.7275H27.7276H27.7277H27.7278H27.7279H27.728H27.7281H27.7282H27.7283H27.7284H27.7285H27.7286H27.7287H27.7288H27.7289H27.729H27.7291H27.7292H27.7293H27.7294H27.7295H27.7296H27.7297H27.7298H27.7299H27.73H27.7301H27.7302H27.7303H27.7304H27.7305H27.7306H27.7307H27.7308H27.7309H27.731H27.7311H27.7312H27.7313H27.7314H27.7315H27.7316H27.7317H27.7318H27.7319H27.732H27.7321H27.7322H27.7323H27.7324H27.7325H27.7326H27.7327H27.7328H27.7329H27.7331H27.7332H27.7333H27.7334H27.7335H27.7336H27.7337H27.7338H27.7339H27.734H27.7341H27.7342H27.7343H27.7344H27.7345H27.7346H27.7347H27.7348H27.7349H27.735H27.7352H27.7353H27.7354H27.7355H27.7356H27.7357H27.7358H27.7359H27.736H27.7361H27.7362H27.7363H27.7364H27.7366H27.7367H27.7368H27.7369H27.737H27.7371H27.7372H27.7373H27.7374H27.7375H27.7376H27.7378H27.7379H27.738H27.7381H27.7382H27.7383H27.7384H27.7385H27.7386H27.7388H27.7389H27.739H27.7391H27.7392H27.7393H27.7394H27.7395H27.7397H27.7398H27.7399H27.74H27.7401H27.7402H27.7403H27.7405H27.7406H27.7407H27.7408H27.7409H27.741H27.7412H27.7413H27.7414H27.7415H27.7416H27.7417H27.7418H27.742H27.7421H27.7422H27.7423H27.7424H27.7426H27.7427H27.7428H27.7429H27.743H27.7431H27.7433H27.7434H27.7435H27.7436H27.7437H27.7439H27.744H27.7441H27.7442H27.7444H27.7445H27.7446H27.7447H27.7448H27.745H27.7451H27.7452H27.7453H27.7455H27.7456H27.7457H27.7458H27.746H27.7461H27.7462H27.7463H27.7465H27.7466H27.7467H27.7468H27.747H27.7471H27.7472H27.7473H27.7475H27.7476H27.7477H27.7478C29.4297 37.1338 30.8283 35.8401 30.9579 34.1687L30.9579 34.1684C31.0342 33.177 31.1618 32.559 31.3158 32.2339L31.3158 32.234L31.3191 32.2268C31.4496 31.9397 31.7119 31.5721 32.1549 31.0969C32.6091 30.6325 33.2172 30.0774 33.971 29.4528L33.9733 29.4509C34.6637 28.8718 35.3149 28.2661 35.9019 27.6226C36.4894 26.9787 37.0035 26.3058 37.4288 25.5818L37.4305 25.5788C37.8543 24.8458 38.1869 24.0775 38.4278 23.2746ZM31.2655 41.4227V41.4227V41.4226V41.4225V41.4225V41.4224V41.4223V41.4223V41.4222V41.4222V41.4221V41.422V41.422V41.4219V41.4218V41.4218V41.4217V41.4216V41.4215V41.4215V41.4214V41.4213V41.4213V41.4212V41.4211V41.4211V41.421V41.4209V41.4208V41.4208V41.4207V41.4206V41.4206V41.4205V41.4204V41.4203V41.4203V41.4202V41.4201V41.4201V41.42V41.4199V41.4198V41.4198V41.4197V41.4196V41.4195V41.4195V41.4194V41.4193V41.4192V41.4192V41.4191V41.419V41.4189V41.4188V41.4188V41.4187V41.4186V41.4185V41.4185V41.4184V41.4183V41.4182V41.4181V41.4181V41.418V41.4179V41.4178V41.4177V41.4177V41.4176V41.4175V41.4174V41.4173V41.4173V41.4172V41.4171V41.417V41.4169V41.4169V41.4168V41.4167V41.4166V41.4165V41.4164V41.4164V41.4163V41.4162V41.4161V41.416V41.4159V41.4158V41.4158V41.4157V41.4156V41.4155V41.4154V41.4153V41.4152V41.4152V41.4151V41.415V41.4149V41.4148V41.4147V41.4146V41.4146V41.4145V41.4144V41.4143V41.4142V41.4141V41.414V41.4139V41.4138V41.4138V41.4137V41.4136V41.4135V41.4134V41.4133V41.4132V41.4131V41.413V41.4129V41.4128V41.4128V41.4127V41.4126V41.4125V41.4124V41.4123V41.4122V41.4121V41.412V41.4119V41.4118V41.4117V41.4116V41.4115V41.4114V41.4114V41.4113V41.4112V41.4111V41.411V41.4109V41.4108V41.4107V41.4106V41.4105V41.4104V41.4103V41.4102V41.4101V41.41V41.4099V41.4098V41.4097V41.4096V41.4095V41.4094V41.4093V41.4092V41.4091V41.409V41.4089V41.4088V41.4087V41.4086V41.4085V41.4084V41.4083V41.4082V41.4081V41.408V41.4079V41.4078V41.4077V41.4076V41.4075V41.4074V41.4073V41.4072V41.4071V41.407V41.4069V41.4068V41.4067V41.4066V41.4065V41.4064V41.4063V41.4062V41.4061V41.406V41.4059V41.4058V41.4057V41.4056V41.4055V41.4054V41.4053V41.4052V41.4051V41.4049V41.4048V41.4047V41.4046V41.4045V41.4044V41.4043V41.4042V41.4041V41.404V41.4039V41.4038V41.4037V41.4036V41.4035V41.4033V41.4032V41.4031V41.403V41.4029V41.4028V41.4027V41.4026V41.4025V41.4024V41.4023V41.4022V41.4021V41.4019V41.4018V41.4017V41.4016V41.4015V41.4014V41.4013V41.4012V41.4011V41.401V41.4008V41.4007V41.4006V41.4005V41.4004V41.4003V41.4002V41.4001V41.4V41.3998V41.3997V41.3996V41.3995V41.3994V41.3993V41.3992V41.3991V41.3989V41.3988V41.3987V41.3986V41.3985V41.3984V41.3983V41.3982V41.398V41.3979V41.3978V41.3977V41.3976V41.3975V41.3974V41.3972V41.3971V41.397V41.3969V41.3968V41.3967V41.3965V41.3964V41.3963V41.3962V41.3961V41.396V41.3959V41.3957V41.3956V41.3955V41.3954V41.3953V41.3952V41.395V41.3949V41.3948V41.3947V41.3946V41.3945V41.3943V41.3942V41.3941V41.394V41.3939V41.3938V41.3936V41.3935V41.3934V41.3933V41.3932V41.393V41.3929V41.3928V41.3927V41.3926V41.3925V41.3923V41.3922V41.3921V41.392V41.3919V41.3917V41.3916V41.3915V41.3914V41.3913V41.3911V41.391V41.3909V41.3908V41.3907V41.3905V41.3904V41.3903V41.3902V41.3901V41.3899V41.3898V41.3897V41.3896V41.3895V41.3893V41.3892V41.3891V41.389V41.3888V41.3887V41.3886V41.3885V41.3884V41.3882V41.3881V41.388V41.3879V41.3878V41.3876V41.3875V41.3874V41.3873V41.3871V41.387V41.3869V41.3868V41.3866V41.3865V41.3864V41.3863V41.3862V41.386V41.3859V41.3858V41.3857V41.3855V41.3854V41.3853V41.3852V41.385V41.3849V41.3848V41.3847V41.3845V41.3844V41.3843V41.3842V41.3841V41.3839V41.3838V41.3837V41.3836V41.3834V41.3833V41.3832V41.3831V41.3829V41.3828V41.3827V41.3826V41.3824V41.3823V41.3822V41.3821V41.3819V41.3818V41.3817V41.3816V41.3814V41.3813V41.3812V41.3811V41.3809V41.3808V41.3807V41.3806V41.3804V41.3803V41.3802V41.38V41.3799V41.3798V41.3797V41.3795V41.3794V41.3793V41.3792V41.379V41.3789V41.3788V41.3787V41.3785V41.3784V41.3783V41.3782V41.378V41.3779V41.3778V41.3776V41.3775V41.3774V41.3773V41.3771V41.377V41.3769V41.3768V41.3766V41.3765V41.3764V41.3762V41.3761V41.376V41.3759V41.3757V41.3756V41.3755V41.3754V41.3752V41.3751V41.375V41.3748V41.3747V41.3746V41.3745V41.3743V41.3742V41.3741V41.374V41.3738V41.3737V41.3736V41.3734V41.3733V41.3732V41.3731V41.3729V41.3728V41.3727V41.3726V41.3724V41.3723V41.3722V41.372V41.3719V41.3718V41.3717V41.3715V41.3714V41.3713V41.3711V41.371V41.3709V41.3708V41.3706V41.3705V41.3704V41.3702V41.3701V41.37V41.3699V41.3697V41.3696V41.3695V41.3694V41.3692V41.3691V41.369V41.3688V41.3687V41.3686V41.3685V41.3683V41.3682V41.3681C31.2655 39.4519 29.7078 37.8941 27.7916 37.8941H27.6604C25.7442 37.8941 24.1865 39.4519 24.1865 41.3681V41.4227C24.1865 43.3389 25.7442 44.8967 27.6604 44.8967H27.7916C29.7078 44.8967 31.2655 43.3389 31.2655 41.4227Z" fill="#9477D1" stroke="#9477D1"/>
<path d="M55.5161 28.0072C55.5161 28.0069 55.5161 28.0066 55.5161 28.0063V28.0072ZM55.5161 28.0072C55.5161 29.4566 55.3935 30.8927 55.1713 32.315M55.5161 28.0072L55.1713 32.315M55.1713 32.315C54.3352 37.8205 51.7177 43.0195 47.8662 47.0382C44.0351 51.0475 38.9579 53.8648 33.5097 54.9567C27.798 56.1035 21.8638 55.4243 16.5639 53.0193C11.572 50.7573 7.30841 46.9269 4.46935 42.2508C1.50636 37.3719 0.136926 31.5819 0.582432 25.9017C1.02787 20.2224 3.22162 14.8333 6.83985 10.4469L6.83988 10.4468C10.3601 6.1802 15.2145 3.02962 20.5267 1.52615L20.5275 1.52594C26.0279 -0.0217521 32.0397 0.177973 37.4102 2.15007C42.6664 4.07659 47.2087 7.56161 50.459 12.1143C53.7578 16.7281 55.505 22.3515 55.5161 28.0061L55.1713 32.315ZM55.1713 32.315C55.1713 32.3152 55.1712 32.3155 55.1712 32.3157L54.6772 32.2385L55.1715 32.3136C55.1715 32.314 55.1714 32.3145 55.1713 32.315ZM36.4115 50.8367C40.973 49.1769 45.0448 46.0588 47.8397 42.0967L47.8399 42.0964C50.7543 37.9712 52.3187 33.0531 52.3294 28.0062C52.3295 27.9454 52.3325 27.8861 52.3383 27.8281C52.3219 26.6388 52.2447 25.4579 52.0622 24.2915C51.2798 19.3829 49.029 14.7969 45.6016 11.2088C42.1621 7.61957 37.6833 5.14474 32.8094 4.15924L32.8084 4.15903C27.881 3.15213 22.5877 3.73131 18.0169 5.81867C13.5365 7.86598 9.72199 11.2314 7.18387 15.4508L7.18351 15.4515C4.55966 19.7996 3.38031 24.889 3.76616 29.9591L36.4115 50.8367ZM36.4115 50.8367C31.5998 52.5835 26.3058 52.7975 21.3782 51.4159C16.6129 50.0665 12.3584 47.2489 9.20695 43.4436L9.20659 43.4432C6.06987 39.6641 4.14106 34.8644 3.76617 29.9592L36.4115 50.8367Z" fill="#9477D1" stroke="#9477D1"/>
<path d="M29.7655 40.3681C29.7655 40.3899 29.7655 40.4118 29.7655 40.4227C29.7655 42.0628 28.4316 43.3967 26.7916 43.3967H26.6604C25.0203 43.3967 23.6865 42.0628 23.6865 40.4227V40.3681C23.6865 38.728 25.0203 37.3941 26.6604 37.3941H26.7916C28.4316 37.3941 29.7655 38.728 29.7655 40.3681ZM19.6738 21.0703C19.652 21.0703 19.6301 21.0703 19.6192 21.0703C17.5965 21.0703 16.2188 19.0367 16.9623 17.1561C17.017 17.014 17.0716 16.8828 17.1373 16.7407C17.7277 15.4396 18.4821 14.3353 19.4114 13.4387C20.3517 12.5312 21.4451 11.8206 22.6915 11.3395C23.9489 10.8475 25.3046 10.6069 26.7697 10.6069C28.3332 10.6069 29.7546 10.8365 31.0447 11.2957C32.3349 11.7331 33.4282 12.3563 34.3467 13.1545C35.276 13.9526 35.9976 14.9038 36.5006 16.019C37.0254 17.1233 37.2878 18.337 37.2878 19.6381C37.2878 20.5127 37.1785 21.3437 36.9489 22.1309C36.7192 22.8962 36.4022 23.6288 35.9976 24.3285C35.5931 25.0174 35.1011 25.6624 34.5325 26.2857C33.964 26.9089 33.3298 27.4993 32.652 28.0678C31.8866 28.702 31.2634 29.2705 30.7933 29.7516C30.3341 30.2436 30.0279 30.6591 29.8639 31.0199C29.6671 31.4354 29.5359 32.1351 29.4594 33.1301C29.35 34.5405 28.1692 35.6338 26.7478 35.6338C26.726 35.6338 26.715 35.6338 26.6932 35.6338C25.1078 35.6338 23.8505 34.2781 23.9817 32.6927C24.1238 30.9543 24.4081 29.6423 24.8235 28.7676C25.4468 27.4993 26.5948 26.1544 28.2895 24.7331C29.022 24.1317 29.5906 23.596 29.9951 23.1477C30.3997 22.6776 30.7167 22.2621 30.9245 21.9013C31.1322 21.5296 31.2634 21.1797 31.3181 20.8735C31.3618 20.5455 31.3946 20.2175 31.3946 19.8677C31.3946 19.2335 31.2853 18.6431 31.0557 18.1074C30.8479 17.5716 30.5309 17.1015 30.1263 16.7188C29.7218 16.3252 29.2407 16.03 28.6831 15.8113C28.1255 15.5817 27.5132 15.4724 26.8244 15.4724C24.6814 15.4724 23.2054 16.6751 22.3963 19.0914C21.9917 20.2613 20.9093 21.0703 19.6738 21.0703Z" fill="#EE4266"/>
<path d="M54.0161 27.0072C54.0052 21.453 52.2886 15.9316 49.0523 11.4051C45.8597 6.93324 41.3988 3.51104 36.2382 1.61953C30.9682 -0.315706 25.0641 -0.51251 19.6629 1.00725C14.4476 2.48328 9.68056 5.57748 6.22556 9.76503C2.67215 14.0729 0.518243 19.3647 0.080901 24.9408C-0.356441 30.5169 0.988386 36.2024 3.89671 40.9913C6.68477 45.5834 10.8723 49.3445 15.7706 51.564C20.9749 53.9257 26.8025 54.5926 32.4114 53.4664C37.7579 52.395 42.7436 49.6288 46.5048 45.6927C50.2878 41.7457 52.8572 36.6397 53.6772 31.2385C53.8959 29.839 54.0161 28.4286 54.0161 27.0072C54.0161 25.5968 51.8294 25.5968 51.8294 27.0072C51.8185 32.157 50.2222 37.1755 47.2483 41.3849C44.3946 45.4303 40.2398 48.612 35.5822 50.3067C30.673 52.0888 25.2718 52.3075 20.2424 50.8971C15.3769 49.5194 11.0363 46.6439 7.82186 42.7625C4.61833 38.903 2.65029 34.0047 2.26761 28.9972C1.874 23.8256 3.07669 18.6321 5.75542 14.1931C8.34667 9.8853 12.239 6.45216 16.8092 4.36386C21.4779 2.23181 26.879 1.6414 31.9085 2.66915C36.8832 3.67504 41.4535 6.20069 44.9631 9.86343C48.4619 13.5262 50.7579 18.2057 51.5561 23.2133C51.7529 24.4707 51.8294 25.739 51.8404 27.0072C51.8294 28.4177 54.0161 28.4177 54.0161 27.0072Z" fill="#EE4266"/>
</svg>
