<svg width="771" height="800" viewBox="0 0 771 800" fill="none" xmlns="http://www.w3.org/2000/svg">
<path d="M130.692 397.592C126.725 265.475 292.184 99.6618 422.135 72.1221C512.7 55.243 593 81.7659 629.121 95.523C683.784 116.342 771.263 163.105 818.147 153.26C865.03 143.416 891.509 142.907 969.707 57.5017C1047.9 -27.9041 1157.27 -64.8885 1227.2 -58.0007C1297.14 -51.1129 1355.7 72.9957 1371.45 157.494C1387.2 241.992 1326.37 337.44 1250.38 369.312C1174.38 401.184 1098.12 372.233 1016.05 395.276C933.981 418.319 820.888 608.695 747.866 673.249C674.844 737.802 489.792 734.886 426.606 723.877C291.567 700.348 135.584 560.479 130.692 397.592Z" fill="url(#paint0_linear)" fill-opacity="0.3"/>
<path d="M576.823 491.661L579.679 511.353L573.943 622.414L564.314 620.39L548.338 494.135L576.823 491.661Z" fill="#292949"/>
<path d="M529.52 487.964L527.663 561.591L546.352 625.148L557.246 621.093L548.074 564.412L556.493 487.334L529.52 487.964Z" fill="#292949"/>
<path d="M557.283 615.138L544.242 621.118L548.622 630.245L541.781 634.565C541.781 634.565 541.134 638.36 543.435 639.965C545.736 641.569 560.613 629.066 560.613 629.066L557.283 615.138Z" fill="#1C1C35"/>
<path d="M576.823 617.298L562.674 619.686L564.523 629.634L556.802 632.022C556.802 632.022 555.192 635.527 556.993 637.668C558.794 639.809 576.41 631.602 576.41 631.602L576.823 617.298Z" fill="#1C1C35"/>
<path d="M549.319 367.892C550.338 371.174 551.79 374.306 553.636 377.204C553.68 371.179 554.549 365.189 556.221 359.4C556.309 359.188 556.355 358.961 556.355 358.732C556.355 358.501 556.309 358.274 556.221 358.062C556.091 357.891 555.927 357.749 555.741 357.643C555.554 357.537 555.349 357.469 555.136 357.444C547.697 355.649 547.56 362.19 549.319 367.892Z" fill="#292949"/>
<path d="M553.402 377.322C554.179 379.791 555.462 382.591 558.028 384.11C561.05 385.887 564.283 384.981 566.534 383.616C573.985 379.105 586.889 354.242 567.478 348.139C549.849 342.59 550.182 367.046 553.402 377.322Z" fill="#EAC1A4"/>
<path d="M568.743 377.427C569.903 379.142 572.543 378.754 574.412 377.866C582.104 374.23 586.804 365.14 585.318 356.754C584.084 349.743 575.406 344.301 573.418 352.903C572.715 355.951 574.48 360.247 573.974 363.634C573.24 368.479 570.866 373.076 568.743 377.427Z" fill="#292949"/>
<path d="M549.757 339.177C540.918 344.071 536.965 354.845 528.877 360.906C532.529 362.557 536.475 363.459 540.48 363.559C544.485 363.658 548.471 362.954 552.2 361.486C559.478 358.573 576.738 356.808 574.48 346.718C572.21 336.45 557.53 334.894 549.757 339.177Z" fill="#292949"/>
<path d="M584.084 402.734C589.142 411.528 589.123 421.482 588.402 431.01C586.822 452.572 588.87 477.572 581.444 498.183C567.417 498.183 540.53 491.734 526.545 490.296C523.825 471.548 525.41 460.595 526.947 439.367C527.705 428.875 529.328 414.861 533.029 404.888C536.063 396.73 544.132 386.19 556.339 386.523C567.805 386.837 579.475 394.742 584.084 402.734Z" fill="#8CABEF"/>
<path d="M561.236 390.873C559.96 391.417 558.393 391.189 556.875 389.72C555.574 388.455 555.974 388.048 556.258 386.183C556.665 383.443 557.393 380.709 557.961 377.994L565.511 379.568C565.511 379.568 563.994 386.924 563.876 387.424C563.736 388.164 563.423 388.863 562.964 389.462C562.506 390.06 561.915 390.544 561.236 390.873Z" fill="#EAC1A4"/>
<path d="M485.737 410.387L479.833 404.579L470.538 404.801L469.477 409.516L483.529 415.589L485.737 410.387Z" fill="#EAC1A4"/>
<path d="M555.007 392.835L548.295 386.769L512.13 415.589L486.131 406.462L477.773 417.124L512.568 437.533L549.344 413.959L555.007 392.835Z" fill="#8CABEF"/>
<path d="M99.0762 621.908L108.699 627.202L107.867 631.726L90.7618 629.376L91.6809 622.865L99.0762 621.908Z" fill="#292949"/>
<path d="M55.5471 626.87L48.8545 626.789L47.2137 632.46L47.3864 632.51H47.3432L58.4955 638.928L63.7632 639.44L64.3554 633.417L62.9182 632.392L55.5471 626.87Z" fill="#292949"/>
<path d="M76.1925 520.022C77.2721 519.911 80.2019 558.456 80.2019 558.456L59.3778 628.504L47.3619 626.135L54.6776 556.197C54.6776 556.197 29.2272 526.847 36.5551 504.928C47.6211 510.296 76.1925 520.022 76.1925 520.022Z" fill="#8CABEF"/>
<path d="M106.219 520.35L108.65 554.729L101.938 623.118L89.6019 622.501C89.6019 622.501 86.6164 557.704 85.3951 556.389C84.1738 555.075 73.6321 521.072 73.6321 521.072L106.219 520.35Z" fill="#8CABEF"/>
<path d="M89.9602 536.031C50.6743 535.314 47.7938 515.481 39.1396 513.321C30.4856 511.16 35.0007 500.849 35.0007 500.849C35.0007 500.849 36.6415 496.252 37.3385 493.844C42.3842 476.565 57.5335 454.349 57.5397 454.349C65.0096 444.149 72.504 435.138 78.9807 429.702C98.2377 413.528 118.865 412.769 118.865 412.769C148.572 422.062 138.085 436.04 138.431 439.712C128.654 448.671 121.579 462.1 116.354 476.516C112.599 488.4 111.469 500.957 113.042 513.321C113.69 518.455 114.443 522.905 115.188 526.78C115.318 531.841 110.451 536.357 89.9602 536.031Z" fill="#5D66D3"/>
<path d="M118.975 415.879C118.975 415.879 125.588 412.249 129.684 418.557C134.655 426.209 106.552 460.718 107.218 534.518C99.8602 536.012 80.8799 539.573 61.3017 530.328C65.7491 508.402 84.9448 442.273 118.975 415.879Z" fill="white"/>
<path d="M133.514 392.57C136.839 395.174 139.732 400.697 138.585 405.041C138.029 407.134 136.518 408.541 136.019 410.806C135.013 415.267 127.26 418.551 130.522 423.728C132.194 426.388 135.457 427.51 138.442 428.454C138.798 428.597 139.184 428.65 139.565 428.609C139.866 428.518 140.134 428.34 140.337 428.1C140.539 427.859 140.668 427.564 140.706 427.251C140.773 426.635 140.751 426.011 140.639 425.4C139.954 418.871 144.377 412.33 146.011 406.159C147.646 399.988 147.584 392.94 143.266 387.824C139.627 388.158 138.153 387.461 135.815 390.293L133.514 392.57Z" fill="#292949"/>
<path d="M125.718 418.699C130.036 419.039 134.286 416.663 137.031 413.294C139.776 409.923 141.225 405.672 142.125 401.42C145.117 387.263 127.791 382.685 118.686 391.343C110.692 398.89 113.117 417.731 125.718 418.699Z" fill="#EACDB0"/>
<path d="M104.142 416.04C106.442 415.866 108.743 415.632 110.803 414.138C114.14 411.732 116.108 406.301 118.156 402.864C120.315 399.242 122.782 395.354 126.791 393.971C129.388 393.064 131.727 393.656 134.144 394.631C135.815 395.305 135.618 395.958 137.394 395.656C138.757 395.427 140.535 393.768 141.287 392.681C142.552 390.83 142.631 388.362 141.959 386.251C141.538 384.73 140.779 383.323 139.739 382.136C138.699 380.949 137.404 380.013 135.952 379.395C125.218 374.607 114.399 377.617 106.905 386.918C103.302 391.392 102.014 397.508 98.3927 401.729C96.1538 404.345 93.3778 405.548 91.2375 408.437C85.686 415.934 76.6063 424.679 73.3493 433.46C73.2686 433.615 73.2199 433.784 73.206 433.959C73.1923 434.132 73.2137 434.307 73.2692 434.472C73.5715 435.09 74.5029 434.885 75.1567 434.572L86.2226 429.048C87.7055 428.391 89.0902 427.531 90.3368 426.493C93.3038 423.765 94.3339 419.087 97.9425 417.237C99.8664 416.299 102.007 416.193 104.142 416.04Z" fill="#292949"/>
<path d="M89.0718 434.633L59.4269 427.678L51.5007 388.257L61.3452 389.115L68.9385 414.86L107.373 415.959L109.569 418.89L89.0718 434.633Z" fill="#5D66D3"/>
<path d="M64.1085 385.215L63.1401 374.885L55.8246 369.28L55.3928 372.298L57.9711 374.885C57.9711 374.885 58.6188 377.895 60.4385 379.401C60.2225 381.123 58.8223 384.788 58.8223 384.788L64.1085 385.215Z" fill="#EBCEB1"/>
<path d="M238.166 618.624L246.66 624.073L249.608 628.392C248.088 629.161 246.511 629.808 244.889 630.325C243.193 630.75 229.728 629.313 229.728 629.313L229.363 621.426L238.166 618.624Z" fill="#273140"/>
<path d="M195.698 624.573L199.892 629.282C199.892 629.282 203.309 635.669 201.594 635.57C199.879 635.472 190.577 635.971 189.949 634.903C189.32 633.835 184.396 630.115 183.736 629.392C183.077 628.67 183.736 622.673 183.736 622.673L195.698 624.573Z" fill="#273140"/>
<path d="M219.753 499.293L209.199 563.473L195.746 624.566L183.755 623.882L186.068 559.375C186.068 559.375 177.433 500.09 177.395 482.558L219.753 499.293Z" fill="#BDBFC1"/>
<path d="M246.184 502.453L241.36 620.883L229.018 621.451L222.461 561.282L212.906 508.179L238.406 475.325L246.184 502.453Z" fill="#BDBFC1"/>
<path d="M239.721 440.1C233.249 408.628 241.46 393.422 227.303 384.672C227.303 384.672 204.233 378.328 189.54 388.881L188.924 389.325L183.583 400.433L179.53 450.252C179.53 450.252 168.199 515.666 174.212 516.184C181.029 516.802 212.327 502.188 218.266 502.533C224.207 502.879 242.391 506.138 259.545 500.294C274.269 495.283 246.184 471.598 239.721 440.1Z" fill="#8CABEF"/>
<path d="M211.032 383.697L206.548 383.87L206.091 388.387L222.573 434.504L226.267 414.522L222.233 385.493L211.032 383.697Z" fill="white"/>
<path d="M224.584 452.227L218.23 502.441L231.622 504.336L240.887 503.614L229.172 460.052L224.584 452.227Z" fill="white"/>
<path d="M217.114 385.696L207.861 386.078C207.491 383.648 207.313 381.193 207.331 378.735C204.679 378.204 201.569 377.285 200.755 374.699C200.548 373.871 200.48 373.014 200.552 372.163C200.662 368.639 199.676 365.073 200.878 361.592C201.28 360.443 200.965 359.123 201.496 358.012C202.378 356.062 204.469 354.969 206.504 354.309C211.698 352.637 217.662 352.971 222.283 355.877C223.545 356.608 224.599 357.654 225.335 358.913C226.379 360.9 226.144 363.283 225.879 365.51L225.157 371.682C224.879 374.045 224.38 376.754 222.307 377.913C221.21 378.531 219.84 378.599 218.853 379.413C217.162 380.852 217.799 383.58 217.114 385.696Z" fill="#E7CAAD"/>
<path d="M230.332 339.918C229.61 339.873 228.895 339.74 228.204 339.523C225.903 338.745 224.188 336.937 221.752 336.234C216.817 334.802 210.871 335.574 206.331 337.943C202.013 340.208 195.956 341.448 192.144 344.324C190.584 345.573 189.353 347.185 188.56 349.02C187.154 352.178 186.659 355.667 187.132 359.092C187.605 362.516 189.027 365.74 191.237 368.398C192.261 369.555 193.381 370.623 194.586 371.588C197.054 373.613 200.039 376.131 203.112 376.575C202.809 373.92 199.232 365.929 200.952 363.473C203.241 360.227 208.237 359.881 211.846 359.912C216.164 359.949 219.531 358.283 223.8 358.134C225.972 358.061 228.457 358.29 229.999 356.753C231.782 354.975 235.409 349.514 236.167 347.182C236.477 346.153 236.489 345.059 236.205 344.025C235.92 342.989 235.349 342.056 234.558 341.332C233.157 340.091 231.776 340.054 230.332 339.918Z" fill="#292949"/>
<path d="M259.23 409.288L231.288 383.956L224.564 389.627L247.695 428.27L258.132 429.276C258.132 429.276 261.143 418.514 261.765 417.373L259.23 409.288Z" fill="#8CABEF"/>
<path d="M192.816 501.287C187.696 496.669 180.952 494.275 174.067 494.633C167.182 494.99 160.722 498.067 156.106 503.19C151.49 508.313 149.098 515.061 149.454 521.949C149.811 528.836 152.888 535.3 158.009 539.918C160.047 541.763 162.357 543.283 164.855 544.429C170.519 546.964 176.9 547.39 182.85 545.633C188.8 543.874 193.925 540.047 197.303 534.841C200.681 529.635 202.089 523.393 201.271 517.241C200.454 511.088 197.467 505.431 192.847 501.287H192.816Z" fill="#F27188"/>
<path d="M201.44 519.245C201.296 515.821 200.456 512.463 198.971 509.375C197.487 506.287 195.388 503.535 192.804 501.286C191.144 499.776 189.305 498.476 187.326 497.417C190.633 502.074 192.32 507.688 192.128 513.396C191.936 519.105 189.877 524.592 186.264 529.016C182.654 533.44 177.691 536.555 172.137 537.883C166.585 539.212 160.75 538.68 155.529 536.369C155.079 536.165 154.635 535.937 154.197 535.703C155.317 537.227 156.59 538.634 157.996 539.899C160.038 541.751 162.352 543.279 164.856 544.429C168.931 546.212 173.393 546.926 177.82 546.504C182.247 546.083 186.494 544.538 190.159 542.016C193.824 539.496 196.786 536.082 198.765 532.098C200.744 528.113 201.676 523.689 201.471 519.245H201.44Z" fill="#E75979"/>
<path d="M394.797 407.24C392.835 385.721 382.028 365.955 362.685 348.504C343.341 331.051 322.498 322.245 300.718 322.326C281.787 322.399 264.733 329.41 250.027 343.171C248.8 344.321 247.826 345.713 247.163 347.26C246.501 348.805 246.167 350.472 246.181 352.153C246.196 353.835 246.559 355.496 247.247 357.03C247.936 358.565 248.934 359.939 250.181 361.068L261.697 371.504C263.92 373.506 266.802 374.618 269.792 374.628C272.783 374.638 275.672 373.545 277.908 371.558C286.142 364.252 294.722 360.672 304.136 360.599C315.54 360.518 326.958 365.536 338.061 375.564C349.165 385.591 355.122 396.441 355.888 407.956C356.652 419.471 352.063 430.753 342.317 441.601C328.833 456.553 315.467 462.768 302.593 460.059C289.022 457.213 272.775 447.099 254.234 430.054L249.25 425.556C246.855 423.399 243.704 422.28 240.486 422.448C237.268 422.614 234.249 424.052 232.089 426.445L192.885 469.877C190.726 472.272 189.609 475.425 189.775 478.645C189.941 481.864 191.379 484.886 193.773 487.045L205.455 497.592C207.847 499.752 210.997 500.874 214.215 500.711C217.433 500.547 220.454 499.112 222.615 496.721L247.973 468.593C248.126 468.419 248.342 468.314 248.573 468.298C248.804 468.283 249.032 468.361 249.207 468.514C271.505 487.575 292.595 497.832 311.882 498.992C332.399 500.226 352.07 490.581 370.346 470.302C388.622 450.024 396.783 428.888 394.797 407.24Z" fill="#F27188"/>
<path d="M394.797 407.238C392.836 385.72 382.03 365.954 362.685 348.501C350.706 337.714 338.185 330.222 325.164 326.106C331.565 330.011 337.578 334.52 343.12 339.573C362.463 357.03 373.27 376.79 375.232 398.315C377.193 419.914 368.959 441.148 350.756 461.34C332.554 481.533 312.809 491.264 292.292 490.03C286.073 489.611 279.934 488.386 274.028 486.389C287.229 494.029 299.88 498.25 311.84 498.972C332.355 500.206 352.026 490.561 370.304 470.282C388.58 450.004 396.784 428.887 394.797 407.238Z" fill="#E75979"/>
<path d="M194.439 386.078L181.201 390.158L149.521 444.186L151.68 454.634L192.717 475.158L198.479 463.995L172.559 444.186L188.399 422.574L194.518 387.998L194.439 386.078Z" fill="#8CABEF"/>
<path d="M230.763 384.419L224.04 377.192L217.558 378.995L215.763 385.481L221.517 386.56L226.927 387.653L230.763 384.419Z" fill="#EAC1A4"/>
<path d="M197.911 465.1L204.376 466.433L203.339 470.241L208.939 476.794L201.26 479.59L193.742 473.178L197.911 465.1Z" fill="#E7CAAD"/>
<path d="M62.295 421.686C60.408 422.26 58.6527 423.201 57.1291 424.455C55.6056 425.708 54.3437 427.249 53.4155 428.99C52.4873 430.731 51.9109 432.638 51.7194 434.603C51.5279 436.566 51.725 438.548 52.2993 440.436C52.8735 442.324 53.8139 444.081 55.0666 445.605C56.3193 447.13 57.8599 448.391 59.6002 449.32C61.3407 450.249 63.2468 450.826 65.2099 451.017C67.173 451.208 69.1547 451.012 71.0417 450.437C72.5599 449.985 73.9996 449.303 75.3101 448.414C78.2521 446.364 80.3652 443.33 81.2676 439.86C82.17 436.389 81.8025 432.71 80.2313 429.486C78.6602 426.262 75.989 423.707 72.6997 422.282C69.4106 420.855 65.7202 420.653 62.295 421.711V421.686Z" fill="#D67086"/>
<path d="M73.7494 422.765C72.0131 421.818 70.1023 421.233 68.1331 421.047C66.1639 420.862 64.1775 421.08 62.2949 421.686C61.0563 422.062 59.8675 422.587 58.7542 423.247C62.0412 422.997 65.3194 423.833 68.0854 425.628C70.8515 427.422 72.9525 430.075 74.0662 433.179C75.1797 436.283 75.2443 439.667 74.25 442.812C73.2557 445.955 71.2573 448.686 68.5618 450.586C68.3275 450.746 68.0807 450.899 67.834 451.048C68.9216 450.954 69.9966 450.747 71.0415 450.431C72.5598 449.979 73.9994 449.297 75.3099 448.406C77.406 446.921 79.0885 444.924 80.1984 442.607C81.3083 440.289 81.8088 437.726 81.6526 435.161C81.4963 432.596 80.6885 430.114 79.3056 427.948C77.9226 425.782 76.0103 424.004 73.7494 422.784V422.765Z" fill="#C95976"/>
<path d="M75.8774 293.69C64.6449 288.259 51.6545 287.728 37.2577 292.117C22.8609 296.504 12.3131 304.181 5.87342 315.011C0.27253 324.404 -1.33122 334.937 1.09915 346.317C1.30258 347.271 1.702 348.17 2.2721 348.962C2.84207 349.752 3.57007 350.415 4.41009 350.909C5.24998 351.403 6.18353 351.717 7.15106 351.83C8.11871 351.944 9.09939 351.854 10.0308 351.569L18.5986 348.958C20.2537 348.454 21.6645 347.358 22.5604 345.877C23.4563 344.396 23.7742 342.637 23.4531 340.936C22.2872 334.684 23.0705 329.372 25.834 324.688C29.1896 319.017 35.0864 314.862 43.3273 312.346C51.5681 309.828 58.748 310.112 64.6573 313.153C70.5664 316.196 74.7979 321.848 77.2652 329.92C80.6517 341.028 79.7325 349.514 74.582 355.087C69.1355 360.949 59.3093 366.003 45.3444 370.101L41.6433 371.23C39.8637 371.774 38.3726 373.002 37.4972 374.646C36.6217 376.288 36.4335 378.211 36.974 379.993L46.8124 412.311C47.081 413.193 47.5206 414.013 48.1062 414.725C48.6919 415.437 49.412 416.026 50.2254 416.459C51.0389 416.894 51.9298 417.161 52.8469 417.251C53.7642 417.339 54.6901 417.246 55.5713 416.977L64.2624 414.33C64.9398 414.124 65.5809 413.814 66.1623 413.409C67.3942 412.564 68.3248 411.348 68.8195 409.937C69.3142 408.527 69.3471 406.996 68.9134 405.566L62.523 384.64C62.4875 384.516 62.5009 384.382 62.5606 384.268C62.6203 384.153 62.7216 384.064 62.8438 384.022C78.8814 378.654 90.2557 371.261 96.5718 362.059C103.289 352.266 104.369 339.652 99.7733 324.57C95.1779 309.488 87.1345 299.151 75.8774 293.69Z" fill="#F27188"/>
<path d="M75.8774 293.69C64.645 288.259 51.6545 287.728 37.2577 292.117C28.3507 294.832 20.9117 298.818 15.0087 304.026C18.846 302.014 22.8677 300.375 27.0183 299.133C41.409 294.745 54.4055 295.276 65.6381 300.707C76.8705 306.137 84.9571 316.561 89.534 331.562C94.1109 346.564 93.05 359.258 86.3327 369.052C84.2789 372.01 81.8534 374.692 79.1158 377.031C86.8261 372.767 92.686 367.774 96.5904 362.053C103.307 352.26 104.388 339.646 99.7919 324.564C95.1965 309.481 87.1345 299.151 75.8774 293.69Z" fill="#E75979"/>
<path d="M457.509 437.102C455.098 436.712 452.632 436.809 450.258 437.385C447.884 437.96 445.647 439.004 443.681 440.455C441.714 441.905 440.057 443.732 438.804 445.831C437.552 447.929 436.73 450.258 436.387 452.678C436.045 455.098 436.188 457.561 436.808 459.925C437.428 462.29 438.514 464.506 440 466.446C441.486 468.386 443.344 470.01 445.465 471.223C447.586 472.436 449.928 473.214 452.353 473.511C454.272 473.796 456.223 473.784 458.138 473.473C462.461 472.72 466.371 470.447 469.166 467.063C471.96 463.68 473.455 459.409 473.381 455.021C473.306 450.632 471.668 446.415 468.76 443.128C465.853 439.842 461.867 437.702 457.522 437.095L457.509 437.102Z" fill="#F27188"/>
<path d="M469.661 444.23C468.225 442.277 466.408 440.639 464.319 439.414C462.229 438.189 459.913 437.401 457.509 437.102C455.94 436.875 454.35 436.843 452.772 437.003C456.08 438.19 458.958 440.34 461.038 443.174C462.929 445.696 464.143 448.662 464.564 451.786C464.985 454.911 464.6 458.091 463.444 461.025C462.288 463.959 460.401 466.546 457.961 468.543C455.522 470.54 452.612 471.879 449.51 472.431C449.164 472.487 448.819 472.53 448.467 472.567C449.727 473.016 451.028 473.336 452.353 473.524C454.272 473.808 456.223 473.795 458.138 473.486C461.233 472.92 464.131 471.574 466.561 469.575C468.99 467.577 470.87 464.991 472.022 462.063C473.176 459.136 473.564 455.963 473.151 452.843C472.738 449.724 471.537 446.761 469.661 444.236V444.23Z" fill="#E75979"/>
<path d="M538.814 302.071C529.161 290.223 515.011 282.904 496.771 280.319C478.532 277.733 462.846 280.813 450.083 289.476C439.011 297.005 431.776 307.866 428.588 321.758C428.322 322.919 428.3 324.122 428.523 325.292C428.746 326.462 429.21 327.572 429.884 328.553C430.559 329.534 431.428 330.365 432.44 330.993C433.451 331.62 434.583 332.031 435.761 332.198L446.623 333.735C448.717 334.033 450.848 333.547 452.606 332.371C454.365 331.195 455.628 329.411 456.154 327.361C458.096 319.82 461.705 314.328 467.207 310.557C473.887 306.033 482.523 304.442 493.009 305.923C503.494 307.404 511.267 311.428 516.263 317.875C521.26 324.324 523.049 332.754 521.58 342.986C519.582 357.094 514.178 366.016 505.58 369.522C496.5 373.224 482.979 373.724 465.363 371.046L460.663 370.38C458.408 370.071 456.121 370.665 454.303 372.033C452.483 373.402 451.278 375.433 450.948 377.686L445.142 418.65C444.826 420.907 445.417 423.199 446.786 425.021C448.155 426.843 450.191 428.047 452.446 428.37L463.468 429.93C465.726 430.249 468.016 429.659 469.838 428.289C471.659 426.919 472.863 424.882 473.183 422.624L476.941 396.089C476.963 395.93 477.047 395.786 477.174 395.69C477.3 395.592 477.46 395.546 477.619 395.564C498.228 397.921 514.629 395.602 526.423 388.653C538.945 381.247 546.666 367.819 549.374 348.701C552.083 329.582 548.523 313.975 538.814 302.071Z" fill="#F27188"/>
<path d="M538.814 302.071C529.161 290.223 515.011 282.903 496.771 280.318C485.477 278.719 475.152 279.294 465.929 282.015C471.231 281.772 476.544 282.036 481.794 282.805C500.04 285.39 514.184 292.679 523.837 304.552C533.492 316.424 537.088 332.156 534.392 351.2C531.697 370.243 523.937 383.789 511.415 391.151C507.6 393.363 503.516 395.072 499.263 396.236C510.027 395.502 519.113 392.971 526.404 388.664C538.926 381.259 546.648 367.83 549.355 348.713C552.063 329.594 548.523 313.975 538.814 302.071Z" fill="#E75979"/>
<path d="M473.751 623.29L479.821 621.574L489.579 636.361H479.821L473.942 633.362L473.751 623.29Z" fill="#292949"/>
<path d="M365.522 593.391C365.522 593.391 357.047 599.605 357.158 605.116C357.158 605.116 356.257 616.675 358.546 621.228L371.296 632.842L394.846 631.338L402.446 597.927L365.522 593.391Z" fill="#3B3387"/>
<path d="M391.367 600.814C391.367 600.814 381.196 598.426 377.717 605.363L370.79 618.162L382.997 634.429L475.478 634.132L475.293 623.086L445.371 614.638C448.045 612.757 450.173 610.202 451.539 607.232C453.908 602.129 452.058 598.352 450.151 593.557C449.535 592.088 446.777 583.942 444.384 584.578L391.367 600.814Z" fill="#474EBB"/>
<path d="M336.871 474.355L332.602 466.74L335.773 464.777L339.85 469.338L340.917 467.715L343.78 474.676L340.757 477.163L336.871 474.355Z" fill="#A0734B"/>
<path d="M398.876 491.974L369.545 499.855L343.601 471.992L337.858 477.244L361.749 523.317L397.573 516.048L398.876 491.974Z" fill="#EED5D5"/>
<path d="M369.97 574.779C376.353 557.006 377.588 538.159 379.882 519.498C380.561 513.993 381.277 508.39 383.738 503.397C386.562 497.689 391.029 494.758 396.16 493.27C402.699 491.351 410.347 491.727 417.064 491.536C423.449 491.536 428.31 515.721 434.441 527.563C438.197 534.821 442.102 541.262 444.538 549.125C446.876 556.672 449.109 564.349 450.361 572.161C452.212 583.954 457.764 592.329 452.107 596.136C451.595 596.291 451.101 596.439 450.632 596.593C441.441 599.598 431.957 601.615 422.338 602.61C413.799 603.475 405.191 603.357 396.679 602.258C385.039 600.728 373.782 598.71 363.69 592.28C365.78 586.446 367.873 580.612 369.97 574.779Z" fill="#EED5D5"/>
<path d="M420.766 473.776C417.49 462.668 401.601 458.348 397.462 470.974C396.227 474.77 395.414 478.817 396.043 482.76C396.672 486.704 398.948 490.549 402.55 492.271H402.612C402.439 493.283 402.261 494.295 402.088 495.307C402.039 495.418 402.019 495.539 402.031 495.661C402.044 495.781 402.088 495.897 402.16 495.995C402.231 496.093 402.327 496.171 402.438 496.22C402.549 496.269 402.67 496.289 402.791 496.276L406.411 496.942C407.005 497.094 407.624 497.111 408.225 496.992C409.502 496.627 410.076 495.14 410.181 493.795C410.181 493.474 410.181 493.178 410.218 492.833C417.483 490.636 422.905 481.033 420.766 473.776Z" fill="#A0734B"/>
<path d="M401.866 454.398C398.949 453.861 396.358 456.626 393.606 458.034C391.313 459.2 388.753 459.447 386.383 460.403C384.015 461.36 381.659 463.434 381.517 466.118C379.198 464.809 376.675 463.465 374.01 463.89C371.346 464.316 368.785 467.402 369.754 470.061C370.624 472.424 373.653 473.073 374.589 475.405C376.071 479.108 371.555 484.6 374.436 487.131C375.127 487.747 376.089 487.902 376.768 488.525C377.612 489.29 377.847 490.574 378.199 491.722C379.784 496.905 384.842 500.429 389.973 499.911C391.624 499.144 393.104 498.053 394.326 496.702C395.546 495.351 396.483 493.769 397.08 492.049C398.584 487.853 396.364 486.297 396.111 482.298C395.86 477.85 397.329 473.475 400.213 470.08C402.064 467.938 404.678 466.124 407.386 465.95C408.485 465.883 408.108 466.79 409.373 465.981C410.058 465.335 410.567 464.524 410.847 463.625C407.979 461.119 405.709 455.095 401.866 454.398Z" fill="#292949"/>
<path d="M433.392 461.077C434.897 461.546 436.538 461.54 437.957 462.218C440.09 463.237 439.887 465.477 440.424 467.451C441.04 469.636 441.922 472.567 443.292 474.295C444.279 475.529 445.698 476.282 446.919 477.257C448.141 478.232 449.244 479.645 449.164 481.331C449.084 483.015 447.968 484.329 447.758 485.915C447.487 488.284 447.856 489.519 447.049 491.926C446.63 493.161 446.161 494.48 445.198 495.302C443.921 496.388 442.157 496.308 440.615 495.999C439.073 495.69 437.488 495.208 435.94 495.672C432.591 496.677 433.095 500.054 432.122 502.837C430.641 507.076 425.601 509.409 421.857 507.774C418.68 506.372 416.923 502.578 417.207 498.893C417.342 497.042 418.132 495.351 418.243 493.505C418.354 491.661 417.429 489.223 419.087 487.859C419.531 487.592 419.961 487.3 420.371 486.983C420.658 486.653 420.857 486.256 420.95 485.828C421.146 485.114 421.185 484.365 421.062 483.634C420.939 482.903 420.66 482.208 420.241 481.596C419.624 480.763 418.767 480.139 418.421 479.128C418.014 477.991 418.421 476.689 418.52 475.455C418.798 472.469 417.286 469.476 414.819 468.242C413.203 467.427 411.735 466.927 410.335 465.717C410.125 465.539 406.955 462.539 406.849 463.162C407.107 462.095 407.629 461.112 408.368 460.299C409.391 458.864 410.693 457.651 412.198 456.732C417.101 454.116 417.132 460.577 421.012 459.818C421.95 459.646 422.677 458.812 423.529 458.331C425.144 457.423 427.082 457.831 428.673 458.602C430.265 459.374 431.707 460.546 433.392 461.077Z" fill="#292949"/>
<path d="M345.587 592.804C344.03 592.43 342.417 592.365 340.836 592.615C339.256 592.865 337.74 593.423 336.376 594.259C335.011 595.095 333.824 596.192 332.883 597.486C331.942 598.781 331.265 600.248 330.891 601.805C330.516 603.36 330.453 604.975 330.702 606.557C330.951 608.139 331.51 609.654 332.346 611.02C333.18 612.386 334.277 613.573 335.571 614.514C336.864 615.456 338.332 616.133 339.887 616.508C341.135 616.813 342.423 616.927 343.705 616.846C346.617 616.633 349.356 615.381 351.423 613.319C353.492 611.257 354.753 608.522 354.976 605.609C355.2 602.697 354.373 599.8 352.644 597.446C350.916 595.092 348.4 593.436 345.556 592.78L345.587 592.804Z" fill="#F27188"/>
<path d="M353.174 598.272C352.347 596.892 351.248 595.695 349.943 594.756C348.639 593.815 347.156 593.151 345.586 592.804C344.565 592.555 343.517 592.432 342.465 592.44C344.87 593.617 346.821 595.552 348.021 597.947C349.219 600.343 349.599 603.064 349.101 605.696C348.603 608.328 347.254 610.724 345.263 612.514C343.272 614.305 340.748 615.391 338.079 615.607H337.377C338.182 615.982 339.023 616.275 339.886 616.483C341.135 616.788 342.423 616.903 343.705 616.823C345.782 616.643 347.779 615.938 349.508 614.772C351.237 613.606 352.641 612.02 353.587 610.16C354.533 608.302 354.99 606.232 354.914 604.148C354.838 602.063 354.233 600.032 353.155 598.247L353.174 598.272Z" fill="#E65979"/>
<path d="M407.77 508.841C402.144 500.417 393.274 494.69 381.401 491.833C369.526 488.975 358.966 490.018 350.015 494.918C342.232 499.189 336.779 505.897 333.799 514.864C333.549 515.612 333.457 516.406 333.53 517.191C333.602 517.978 333.838 518.741 334.22 519.431C334.603 520.122 335.125 520.725 335.754 521.203C336.382 521.682 337.103 522.023 337.87 522.208L344.971 523.917C346.334 524.243 347.77 524.056 349.005 523.39C350.24 522.724 351.185 521.626 351.663 520.307C353.42 515.456 356.153 512.056 360.015 509.921C364.69 507.335 370.501 506.835 377.33 508.488C384.157 510.143 389.049 513.271 391.917 517.845C394.785 522.417 395.445 528.088 393.841 534.747C391.633 543.93 387.518 549.483 381.61 551.248C375.386 553.1 366.436 552.6 354.975 549.718L351.891 548.983C350.422 548.632 348.874 548.878 347.585 549.667C346.298 550.456 345.375 551.723 345.019 553.192L338.611 579.851C338.435 580.579 338.405 581.335 338.522 582.074C338.638 582.813 338.899 583.523 339.29 584.162C339.68 584.801 340.193 585.355 340.798 585.795C341.403 586.236 342.09 586.552 342.817 586.726L349.984 588.455C350.549 588.586 351.128 588.635 351.706 588.596C352.912 588.516 354.059 588.053 354.986 587.276C355.911 586.5 356.566 585.449 356.856 584.276L361.014 566.997C361.038 566.894 361.1 566.804 361.189 566.747C361.277 566.689 361.385 566.668 361.489 566.689C374.942 569.552 385.922 569.052 394.131 565.214C402.86 561.128 408.799 552.748 411.791 540.302C414.783 527.854 413.438 517.308 407.77 508.841Z" fill="#F27188"/>
<path d="M407.77 508.84C402.144 500.416 393.274 494.689 381.399 491.832C374.047 490.061 367.213 489.789 360.927 491.005C364.44 491.178 367.93 491.686 371.346 492.523C383.219 495.388 392.089 501.107 397.715 509.531C403.34 517.955 404.716 528.581 401.731 541.004C398.746 553.426 392.799 561.831 384.071 565.917C381.414 567.136 378.611 568.008 375.731 568.508C382.881 568.699 389.037 567.608 394.125 565.226C402.854 561.14 408.793 552.76 411.785 540.312C414.777 527.866 413.438 517.307 407.77 508.84Z" fill="#E75979"/>
<path d="M137.715 343.158C136.283 343.119 134.856 343.361 133.518 343.872C132.178 344.383 130.954 345.153 129.912 346.137C127.808 348.126 126.58 350.869 126.498 353.764C126.416 356.658 127.488 359.466 129.475 361.571C131.464 363.676 134.206 364.904 137.099 364.986C138.25 365.028 139.4 364.892 140.51 364.586C143.01 363.853 145.167 362.252 146.591 360.07C148.015 357.889 148.614 355.269 148.279 352.685C147.944 350.1 146.697 347.721 144.765 345.974C142.831 344.228 140.338 343.229 137.734 343.158H137.715Z" fill="#F27188"/>
<path d="M145.327 346.557C144.354 345.504 143.178 344.66 141.87 344.075C140.561 343.49 139.148 343.179 137.715 343.157C136.773 343.124 135.83 343.21 134.908 343.411C136.94 343.889 138.782 344.964 140.201 346.495C142.176 348.618 143.235 351.434 143.15 354.331C143.064 357.23 141.841 359.978 139.745 361.98C138.503 363.177 136.986 364.05 135.328 364.521C135.13 364.583 134.927 364.627 134.711 364.676C136.614 365.117 138.597 365.082 140.484 364.577C142.274 364.039 143.896 363.054 145.198 361.713C146.5 360.373 147.439 358.722 147.927 356.918C148.414 355.114 148.433 353.215 147.982 351.4C147.532 349.587 146.627 347.918 145.351 346.551L145.327 346.557Z" fill="#E75979"/>
<path d="M176.748 258.077C170.264 251.726 161.432 248.338 150.489 248.023C139.546 247.71 130.485 250.56 123.527 256.515C117.489 261.693 113.943 268.58 112.974 276.985C112.893 277.688 112.959 278.401 113.169 279.079C113.378 279.755 113.726 280.38 114.191 280.916C114.655 281.45 115.224 281.883 115.864 282.186C116.504 282.489 117.2 282.655 117.908 282.675L124.422 282.866C125.677 282.903 126.903 282.474 127.862 281.664C128.822 280.852 129.448 279.716 129.622 278.472C130.269 273.894 132.041 270.413 135.037 267.821C138.664 264.692 143.673 263.199 149.958 263.384C156.244 263.568 161.093 265.42 164.473 268.895C167.853 272.369 169.45 277.232 169.272 283.366C169.025 291.82 166.434 297.448 161.58 300.089C156.467 302.866 148.516 304.063 137.942 303.65L135.124 303.57C133.773 303.531 132.463 304.03 131.479 304.954C130.494 305.879 129.916 307.157 129.869 308.506L129.153 333.068C129.113 334.419 129.611 335.73 130.536 336.714C131.46 337.699 132.738 338.275 134.087 338.32L140.694 338.511C141.212 338.528 141.731 338.466 142.229 338.325C143.273 338.025 144.193 337.401 144.858 336.544C145.523 335.687 145.899 334.64 145.931 333.556L146.393 317.652C146.397 317.558 146.436 317.467 146.504 317.4C146.572 317.335 146.663 317.296 146.757 317.295C159.094 317.326 168.618 314.87 175.132 309.988C182.033 304.798 185.704 296.357 186.037 284.89C186.37 273.424 183.255 264.464 176.748 258.077Z" fill="#F27188"/>
<path d="M176.748 258.076C170.264 251.727 161.431 248.339 150.489 248.024C143.704 247.827 137.665 248.851 132.385 251.067C135.499 250.575 138.653 250.383 141.804 250.492C152.741 250.814 161.574 254.195 168.056 260.545C174.539 266.896 177.703 275.973 177.364 287.384C177.024 298.794 173.362 307.267 166.459 312.463C164.356 314.024 162.059 315.305 159.624 316.271C165.929 315.122 171.129 313.031 175.15 310.007C182.052 304.817 185.722 296.374 186.056 284.909C186.388 273.443 183.255 264.464 176.748 258.076Z" fill="#E75979"/>
<path d="M369.458 562.868L361.932 561.084L362.556 557.838L367.978 557.912L367.559 556.24L373.813 558.549L373.622 562.017L369.458 562.868Z" fill="#A0734B"/>
<path d="M419.279 531.822L406.664 556.297L371.956 557.056L371.931 563.955L413.111 572.145L427.631 549.033L419.279 531.822Z" fill="#EED5D5"/>
<path d="M142.353 467.771L138.948 430.207L130.171 429.825L124.144 458.78L116.842 470.968L128.012 481.743C128.012 481.743 137.505 475.861 138.733 475.442L142.353 467.771Z" fill="#5D66D3"/>
<path d="M138.22 430.179L138.166 420.305L132.182 417.237L126.464 420.792L129.974 425.489L133.213 429.955L138.22 430.179Z" fill="#EAC1A4"/>
<path d="M600.953 411.422L590.566 375.148L581.869 376.42L581.148 421.47L589.487 427.832C589.487 427.832 597.716 420.278 598.845 419.636L600.953 411.422Z" fill="#8CABEF"/>
<path d="M589.856 375.26L587.951 365.577L581.498 363.683L576.552 368.244L580.876 372.199L584.897 375.981L589.856 375.26Z" fill="#EAC1A4"/>
<defs>
<linearGradient id="paint0_linear" x1="1149.28" y1="5.81697" x2="139.335" y2="545.282" gradientUnits="userSpaceOnUse">
<stop stop-color="#EE4266"/>
<stop offset="0.998026" stop-color="#9477D1"/>
</linearGradient>
</defs>
</svg>
