<svg width="32" height="50" viewBox="0 0 32 50" fill="none" xmlns="http://www.w3.org/2000/svg">
<path fill-rule="evenodd" clip-rule="evenodd" d="M4.68886 5.33775C7.6854 2.34264 11.7476 0.658339 15.9843 0.654297C20.221 0.658339 24.2832 2.34264 27.2797 5.33775C30.2763 8.33286 31.9625 12.3942 31.9686 16.6309C31.9686 21.0625 29.6153 25.3031 27.728 28.7032C26.6583 30.6287 25.6497 32.4471 25.5351 33.5245V40.1566C25.5351 42.6896 24.5289 45.1189 22.7378 46.91C20.9466 48.7012 18.5173 49.7074 15.9843 49.7074C13.4513 49.7074 11.022 48.7012 9.23083 46.91C7.4397 45.1189 6.43345 42.6896 6.43345 40.1566V33.5245C6.31884 32.4471 5.31027 30.6287 4.24058 28.7032L4.23184 28.6875C2.34607 25.2901 0 21.0633 0 16.6309C0.0060679 12.3942 1.69231 8.33286 4.68886 5.33775ZM22.4789 36.3974C20.4473 37.3509 18.2285 37.839 15.9843 37.8262C13.7402 37.8383 11.5216 37.3502 9.48972 36.3974V38.4833C11.4082 39.7678 13.6761 40.4295 15.9843 40.3782C18.2925 40.4295 20.5604 39.7678 22.4789 38.4833V36.3974ZM12.1693 45.4109C13.2782 46.2166 14.6136 46.6507 15.9843 46.6512C17.355 46.6507 18.6904 46.2166 19.7993 45.4109C20.9082 44.6053 21.7339 43.4695 22.158 42.1661C20.2074 43.0031 18.1069 43.4347 15.9843 43.4347C13.8617 43.4347 11.7612 43.0031 9.81063 42.1661C10.2347 43.4695 11.0603 44.6053 12.1693 45.4109ZM22.5553 32.8215C22.8609 31.2017 23.8771 29.3374 25.0538 27.2209C26.8646 23.966 28.9123 20.2832 28.9123 16.6386C28.9123 13.2099 27.5503 9.92157 25.1258 7.4971C22.7013 5.07262 19.413 3.71057 15.9843 3.71057C12.5556 3.71057 9.26728 5.07262 6.8428 7.4971C4.41833 9.92157 3.05627 13.2099 3.05627 16.6386C3.05627 20.2908 5.10397 23.9736 6.91481 27.2286C8.09148 29.345 9.11533 31.2094 9.41331 32.8215C11.346 34.1421 13.6441 34.8235 15.9843 34.7699C18.3245 34.8235 20.6225 34.1421 22.5553 32.8215ZM20.2371 11.4334C19.423 10.5282 18.8192 9.85696 19.6745 9.48537C21.1114 8.86104 23.4659 10.7149 24.3392 12.725C25.2126 14.7352 25.1691 17.3559 23.7295 17.9814C22.8205 18.3763 22.6393 17.325 22.4092 15.9903C22.275 15.2115 22.1241 14.3362 21.8022 13.5954C21.4477 12.7795 20.7933 12.0519 20.2371 11.4334Z" fill="url(#paint0_linear)"/>
<defs>
<linearGradient id="paint0_linear" x1="-15.9091" y1="33.7983" x2="37.7842" y2="12.9176" gradientUnits="userSpaceOnUse">
<stop stop-color="#3420AD"/>
<stop offset="1" stop-color="#21B7B7"/>
</linearGradient>
</defs>
</svg>
