<svg width="49" height="49" viewBox="0 0 49 49" fill="none" xmlns="http://www.w3.org/2000/svg">
<path d="M48.0716 7.89989L41.1084 0.929399C39.8705 -0.3098 37.7558 -0.3098 36.5695 0.929399L23.5716 13.8894L14.4421 4.69863C11.76 2.0137 7.42737 2.0137 4.74526 4.69863C3.45579 5.98946 2.73368 7.69336 2.73368 9.55216C2.73368 11.411 3.45579 13.1149 4.74526 14.4057L13.8747 23.5448L0.928421 36.5564C-0.309474 37.7956 -0.309474 39.8609 0.928421 41.1001L7.89158 48.0706C8.51053 48.6902 9.28421 49 10.1611 49C11.0379 49 11.8116 48.6902 12.4305 48.0706L25.3768 35.1106L35.8474 45.5922C36.3632 46.1085 36.9821 46.47 37.7042 46.5216L43.5842 47.5543C43.7389 47.6059 43.9453 47.6059 44.1 47.6059C45.0284 47.6059 45.9053 47.2445 46.5242 46.5732C47.2463 45.7987 47.6074 44.7144 47.4526 43.6301L46.4726 37.7956C46.3695 37.0727 46.0084 36.4531 45.5442 35.9368L35.1253 25.4036L48.0716 12.4436C49.3095 11.2044 49.3095 9.13909 48.0716 7.89989ZM15.9895 21.5311L10.1611 15.6449L15.68 10.1201L21.5084 15.9547L15.9895 21.5311ZM5.67368 9.55216C5.67368 8.51949 6.03474 7.53846 6.80842 6.76396C7.5821 6.0411 8.61368 5.62803 9.59368 5.62803C10.6253 5.62803 11.6053 5.98946 12.3789 6.76396L13.6168 8.00316L8.04632 13.5796L6.80842 12.3404C6.08632 11.5659 5.67368 10.5848 5.67368 9.55216ZM44.461 44.4563C44.4095 44.5079 44.3063 44.6112 44.1 44.5595L38.0137 43.4752L37.0853 42.5975L42.6042 37.0727L43.5326 38.0021C43.5842 38.0537 43.6358 38.157 43.6358 38.2603L44.5642 44.0948C44.6158 44.3014 44.5126 44.4046 44.461 44.4563ZM40.4895 35.0074L34.9705 40.5321L27.4916 33.0453L33.0105 27.5205L40.4895 35.0074ZM45.9568 10.3783L10.3674 46.0053C10.2642 46.1085 10.1095 46.1085 10.0063 46.0053L3.04316 39.0348C2.94 38.9315 2.94 38.7766 3.04316 38.6733L5.57053 36.1433L8.09789 38.6733C8.40737 38.9831 8.76842 39.0864 9.12947 39.0864C9.49053 39.0864 9.90316 38.9315 10.1611 38.6733C10.7284 38.1054 10.7284 37.176 10.1611 36.5564L7.63368 34.0263L11.1926 30.4636L13.72 32.9937C14.0295 33.3035 14.3905 33.4067 14.7516 33.4067C15.1126 33.4067 15.5253 33.2518 15.7832 32.9937C16.3505 32.4257 16.3505 31.4963 15.7832 30.8767L13.2558 28.3467L16.8147 24.784L20.8895 28.6565C21.1989 28.9663 21.56 29.0695 21.9211 29.0695C22.2821 29.0695 22.6947 28.9146 22.9526 28.6565C23.52 28.0885 23.52 27.1591 22.9526 26.5395L19.0326 22.6154L22.5916 19.0527L25.1189 21.5827C25.4284 21.8925 25.7895 21.9958 26.1505 21.9958C26.5116 21.9958 26.9242 21.8409 27.1821 21.5827C27.7495 21.0148 27.7495 20.0854 27.1821 19.4658L24.6547 16.9357L28.2137 13.373L30.7411 15.9031C31.0505 16.2129 31.4116 16.3161 31.7726 16.3161C32.1337 16.3161 32.5463 16.1612 32.8042 15.9031C33.3716 15.3351 33.3716 14.4057 32.8042 13.7861L30.2768 11.2561L33.8358 7.69336L37.9105 11.6175C38.22 11.9273 38.5811 12.0306 38.9421 12.0306C39.3032 12.0306 39.7158 11.8757 39.9737 11.6175C40.541 11.0495 40.541 10.1201 39.9737 9.50053L36.0537 5.5764L38.5811 3.04636H38.9421L45.9053 10.0169C46.06 10.1201 46.06 10.275 45.9568 10.3783Z" fill="url(#paint0_linear)"/>
<defs>
<linearGradient id="paint0_linear" x1="-17.2162" y1="49.0516" x2="57.6401" y2="11.332" gradientUnits="userSpaceOnUse">
<stop stop-color="#CACAEA"/>
<stop offset="1" stop-color="#9477D1"/>
</linearGradient>
</defs>
</svg>
