<svg width="300" height="70" viewBox="0 0 300 70" fill="none" xmlns="http://www.w3.org/2000/svg">
<g filter="url(#filter0_d)">
<path fill-rule="evenodd" clip-rule="evenodd" d="M35 0C21.1929 0 10 11.1929 10 25C10 38.8071 21.1929 50 35 50H265C278.807 50 290 38.8071 290 25C290 11.1929 278.807 0 265 0H35Z" fill="white"/>
<path d="M11.5 25C11.5 12.0213 22.0213 1.5 35 1.5H265C277.979 1.5 288.5 12.0213 288.5 25C288.5 37.9787 277.979 48.5 265 48.5H35C22.0213 48.5 11.5 37.9787 11.5 25Z" stroke="url(#paint0_linear)" stroke-width="3"/>
</g>
<path d="M58.9631 31.5439L56.2131 22.583H56.1428C56.2418 24.4059 56.2912 25.6221 56.2912 26.2314V31.5439H54.1272V20.1221H57.424L60.1272 28.8564H60.174L63.0412 20.1221H66.3381V31.5439H64.0803V26.1377C64.0803 25.8825 64.0829 25.5882 64.0881 25.2549C64.0985 24.9215 64.135 24.0361 64.1975 22.5986H64.1272L61.1819 31.5439H58.9631ZM79.5881 25.8174C79.5881 27.708 79.1194 29.1611 78.1819 30.1768C77.2444 31.1924 75.9006 31.7002 74.1506 31.7002C72.4006 31.7002 71.0569 31.1924 70.1194 30.1768C69.1819 29.1611 68.7131 27.7028 68.7131 25.8018C68.7131 23.9007 69.1819 22.4502 70.1194 21.4502C71.0621 20.445 72.411 19.9424 74.1662 19.9424C75.9214 19.9424 77.2626 20.4476 78.1897 21.458C79.122 22.4684 79.5881 23.9215 79.5881 25.8174ZM71.2522 25.8174C71.2522 27.0934 71.4944 28.0544 71.9787 28.7002C72.4631 29.346 73.1871 29.6689 74.1506 29.6689C76.0829 29.6689 77.049 28.3851 77.049 25.8174C77.049 23.2445 76.0881 21.958 74.1662 21.958C73.2027 21.958 72.4761 22.2835 71.9865 22.9346C71.497 23.5804 71.2522 24.5413 71.2522 25.8174ZM84.3772 25.1924H85.1584C85.924 25.1924 86.4891 25.0648 86.8537 24.8096C87.2183 24.5544 87.4006 24.1533 87.4006 23.6064C87.4006 23.0648 87.2131 22.6794 86.8381 22.4502C86.4683 22.221 85.8928 22.1064 85.1115 22.1064H84.3772V25.1924ZM84.3772 27.1611V31.5439H81.9553V20.1221H85.2834C86.8355 20.1221 87.9839 20.4059 88.7287 20.9736C89.4735 21.5361 89.8459 22.3929 89.8459 23.5439C89.8459 24.2158 89.661 24.8148 89.2912 25.3408C88.9214 25.8617 88.398 26.2705 87.7209 26.5674C89.4397 29.1351 90.5595 30.7939 91.0803 31.5439H88.3928L85.6662 27.1611H84.3772ZM99.0959 31.5439H92.5178V20.1221H99.0959V22.1064H94.9397V24.6143H98.8069V26.5986H94.9397V29.5439H99.0959V31.5439ZM112.635 31.5439L111.807 28.8252H107.643L106.815 31.5439H104.205L108.237 20.0752H111.197L115.244 31.5439H112.635ZM111.229 26.7939C110.463 24.3304 110.031 22.9372 109.932 22.6143C109.838 22.2913 109.77 22.0361 109.729 21.8486C109.557 22.5153 109.065 24.1637 108.252 26.7939H111.229ZM116.69 20.1221H120.244C121.864 20.1221 123.039 20.3538 123.768 20.8174C124.502 21.2757 124.869 22.0075 124.869 23.0127C124.869 23.695 124.708 24.2549 124.385 24.6924C124.067 25.1299 123.643 25.3929 123.112 25.4814V25.5596C123.836 25.721 124.356 26.0231 124.674 26.4658C124.997 26.9085 125.158 27.4971 125.158 28.2314C125.158 29.2731 124.781 30.0856 124.026 30.6689C123.276 31.2523 122.255 31.5439 120.963 31.5439H116.69V20.1221ZM119.112 24.6455H120.518C121.174 24.6455 121.648 24.5439 121.94 24.3408C122.237 24.1377 122.385 23.8018 122.385 23.333C122.385 22.8955 122.224 22.583 121.901 22.3955C121.583 22.2028 121.078 22.1064 120.385 22.1064H119.112V24.6455ZM119.112 26.5674V29.5439H120.69C121.356 29.5439 121.849 29.4163 122.166 29.1611C122.484 28.9059 122.643 28.5153 122.643 27.9893C122.643 27.0413 121.966 26.5674 120.612 26.5674H119.112ZM137.807 25.8174C137.807 27.708 137.338 29.1611 136.401 30.1768C135.463 31.1924 134.119 31.7002 132.369 31.7002C130.619 31.7002 129.276 31.1924 128.338 30.1768C127.401 29.1611 126.932 27.7028 126.932 25.8018C126.932 23.9007 127.401 22.4502 128.338 21.4502C129.281 20.445 130.63 19.9424 132.385 19.9424C134.14 19.9424 135.481 20.4476 136.408 21.458C137.341 22.4684 137.807 23.9215 137.807 25.8174ZM129.471 25.8174C129.471 27.0934 129.713 28.0544 130.197 28.7002C130.682 29.346 131.406 29.6689 132.369 29.6689C134.302 29.6689 135.268 28.3851 135.268 25.8174C135.268 23.2445 134.307 21.958 132.385 21.958C131.421 21.958 130.695 22.2835 130.205 22.9346C129.716 23.5804 129.471 24.5413 129.471 25.8174ZM149.471 20.1221V27.5127C149.471 28.3564 149.281 29.096 148.901 29.7314C148.526 30.3669 147.981 30.8538 147.268 31.1924C146.554 31.5309 145.711 31.7002 144.737 31.7002C143.268 31.7002 142.127 31.3252 141.315 30.5752C140.502 29.82 140.096 28.7887 140.096 27.4814V20.1221H142.51V27.1143C142.51 27.9945 142.687 28.6403 143.041 29.0518C143.395 29.4632 143.981 29.6689 144.799 29.6689C145.591 29.6689 146.164 29.4632 146.518 29.0518C146.877 28.6351 147.057 27.984 147.057 27.0986V20.1221H149.471ZM156.674 31.5439H154.252V22.1377H151.151V20.1221H159.776V22.1377H156.674V31.5439ZM165.69 31.5439V20.1221H168.112V29.5439H172.744V31.5439H165.69ZM174.737 31.5439V20.1221H177.158V31.5439H174.737ZM190.401 25.8174C190.401 27.1611 190.161 28.2887 189.682 29.2002C189.208 30.1064 188.51 30.7705 187.588 31.1924L190.338 34.2627H187.237L185.143 31.7002H184.963C183.213 31.7002 181.869 31.1924 180.932 30.1768C179.994 29.1611 179.526 27.7028 179.526 25.8018C179.526 23.9007 179.994 22.4502 180.932 21.4502C181.875 20.445 183.224 19.9424 184.979 19.9424C186.734 19.9424 188.075 20.4476 189.002 21.458C189.934 22.4684 190.401 23.9215 190.401 25.8174ZM182.065 25.8174C182.065 27.0934 182.307 28.0544 182.791 28.7002C183.276 29.346 184 29.6689 184.963 29.6689C186.895 29.6689 187.862 28.3851 187.862 25.8174C187.862 23.2445 186.901 21.958 184.979 21.958C184.015 21.958 183.289 22.2835 182.799 22.9346C182.309 23.5804 182.065 24.5413 182.065 25.8174ZM202.065 20.1221V27.5127C202.065 28.3564 201.875 29.096 201.494 29.7314C201.119 30.3669 200.575 30.8538 199.862 31.1924C199.148 31.5309 198.304 31.7002 197.33 31.7002C195.862 31.7002 194.721 31.3252 193.908 30.5752C193.096 29.82 192.69 28.7887 192.69 27.4814V20.1221H195.104V27.1143C195.104 27.9945 195.281 28.6403 195.635 29.0518C195.989 29.4632 196.575 29.6689 197.393 29.6689C198.184 29.6689 198.757 29.4632 199.112 29.0518C199.471 28.6351 199.651 27.984 199.651 27.0986V20.1221H202.065ZM204.862 31.5439V20.1221H207.283V31.5439H204.862ZM219.635 25.7236C219.635 27.6038 219.099 29.0439 218.026 30.0439C216.958 31.0439 215.414 31.5439 213.393 31.5439H210.158V20.1221H213.744C215.609 20.1221 217.057 20.6143 218.088 21.5986C219.119 22.583 219.635 23.958 219.635 25.7236ZM217.119 25.7861C217.119 23.333 216.036 22.1064 213.869 22.1064H212.58V29.5439H213.619C215.953 29.5439 217.119 28.2913 217.119 25.7861ZM232.135 31.5439H229.057L224.088 22.9033H224.018C224.117 24.4294 224.166 25.5179 224.166 26.1689V31.5439H222.002V20.1221H225.057L230.018 28.6768H230.072C229.994 27.1924 229.955 26.1429 229.955 25.5283V20.1221H232.135V31.5439ZM241.596 31.5439H235.018V20.1221H241.596V22.1064H237.44V24.6143H241.307V26.5986H237.44V29.5439H241.596V31.5439ZM248.393 31.5439H245.971V22.1377H242.869V20.1221H251.494V22.1377H248.393V31.5439Z" fill="url(#paint1_linear)"/>
<defs>
<filter id="filter0_d" x="0" y="0" width="300" height="70" filterUnits="userSpaceOnUse" color-interpolation-filters="sRGB">
<feFlood flood-opacity="0" result="BackgroundImageFix"/>
<feColorMatrix in="SourceAlpha" type="matrix" values="0 0 0 0 0 0 0 0 0 0 0 0 0 0 0 0 0 0 127 0"/>
<feOffset dy="10"/>
<feGaussianBlur stdDeviation="5"/>
<feColorMatrix type="matrix" values="0 0 0 0 1 0 0 0 0 1 0 0 0 0 1 0 0 0 0.1 0"/>
<feBlend mode="normal" in2="BackgroundImageFix" result="effect1_dropShadow"/>
<feBlend mode="normal" in="SourceGraphic" in2="effect1_dropShadow" result="shape"/>
</filter>
<linearGradient id="paint0_linear" x1="-19.6232" y1="-29.1284" x2="173.537" y2="156.491" gradientUnits="userSpaceOnUse">
<stop stop-color="#CACAEA"/>
<stop offset="1" stop-color="#EE4266"/>
</linearGradient>
<linearGradient id="paint1_linear" x1="14.9394" y1="1.98668" x2="125.629" y2="137.731" gradientUnits="userSpaceOnUse">
<stop stop-color="#CACAEA"/>
<stop offset="1" stop-color="#EE4266"/>
</linearGradient>
</defs>
</svg>
