<svg width="47" height="49" viewBox="0 0 47 49" fill="none" xmlns="http://www.w3.org/2000/svg">
<path d="M0.87037 19.1481H6.96296C7.44428 19.1481 7.83333 18.7582 7.83333 18.2778V16.537C7.83333 15.577 8.61406 14.7963 9.57407 14.7963C10.5341 14.7963 11.3148 15.577 11.3148 16.537V18.2778C11.3148 18.7582 11.7039 19.1481 12.1852 19.1481H18.2778C18.7591 19.1481 19.1481 18.7582 19.1481 18.2778V13.0556H20.0185C21.9386 13.0556 23.5 11.4941 23.5 9.57407C23.5 7.65404 21.9386 6.09259 20.0185 6.09259H19.1481V0.87037C19.1481 0.389926 18.7591 0 18.2778 0H0.87037C0.389056 0 0 0.389926 0 0.87037V18.2778C0 18.7582 0.389056 19.1481 0.87037 19.1481ZM1.74074 1.74074H17.4074V6.96296C17.4074 7.44341 17.7965 7.83333 18.2778 7.83333H20.0185C20.9785 7.83333 21.7593 8.61405 21.7593 9.57407C21.7593 10.5341 20.9785 11.3148 20.0185 11.3148H18.2778C17.7965 11.3148 17.4074 11.7047 17.4074 12.1852V17.4074H13.0556V16.537C13.0556 14.617 11.4941 13.0556 9.57407 13.0556C7.65404 13.0556 6.09259 14.617 6.09259 16.537V17.4074H1.74074V1.74074Z" fill="#3420AD"/>
<path d="M46.1296 0H28.7222C28.2409 0 27.8518 0.389926 27.8518 0.87037V6.96296C27.8518 7.44341 28.2409 7.83333 28.7222 7.83333H30.4629C31.4229 7.83333 32.2037 8.61406 32.2037 9.57407C32.2037 10.5341 31.4229 11.3148 30.4629 11.3148H28.7222C28.2409 11.3148 27.8518 11.7047 27.8518 12.1852V18.2778C27.8518 18.7582 28.2409 19.1481 28.7222 19.1481H33.9444V20.0185C33.9444 21.9386 35.5058 23.5 37.4259 23.5C39.3459 23.5 40.9074 21.9386 40.9074 20.0185V19.1481H46.1296C46.6109 19.1481 47 18.7582 47 18.2778V0.87037C47 0.389926 46.6109 0 46.1296 0ZM45.2592 17.4074H40.037C39.5557 17.4074 39.1666 17.7973 39.1666 18.2778V20.0185C39.1666 20.9785 38.3859 21.7593 37.4259 21.7593C36.4659 21.7593 35.6851 20.9785 35.6851 20.0185V18.2778C35.6851 17.7973 35.2961 17.4074 34.8148 17.4074H29.5925V13.0556H30.4629C32.383 13.0556 33.9444 11.4941 33.9444 9.57407C33.9444 7.65404 32.383 6.09259 30.4629 6.09259H29.5925V1.74074H45.2592V17.4074Z" fill="#3420AD"/>
<path d="M18.2778 37.1784H16.537C15.577 37.1784 14.7963 36.3977 14.7963 35.4376C14.7963 34.4776 15.577 33.6969 16.537 33.6969H18.2778C18.7591 33.6969 19.1481 33.307 19.1481 32.8265V26.7339C19.1481 26.2535 18.7591 25.8636 18.2778 25.8636H13.0556V24.9932C13.0556 23.0732 11.4941 21.5117 9.57407 21.5117C7.65404 21.5117 6.09259 23.0732 6.09259 24.9932V25.8636H0.87037C0.389056 25.8636 0 26.2535 0 26.7339V44.1413C0 44.6218 0.389056 45.0117 0.87037 45.0117H18.2778C18.7591 45.0117 19.1481 44.6218 19.1481 44.1413V38.0488C19.1481 37.5683 18.7591 37.1784 18.2778 37.1784ZM17.4074 43.271H1.74074V27.6043H6.96296C7.44428 27.6043 7.83333 27.2144 7.83333 26.7339V24.9932C7.83333 24.0332 8.61405 23.2525 9.57407 23.2525C10.5341 23.2525 11.3148 24.0332 11.3148 24.9932V26.7339C11.3148 27.2144 11.7039 27.6043 12.1852 27.6043H17.4074V31.9562H16.537C14.617 31.9562 13.0556 33.5176 13.0556 35.4376C13.0556 37.3577 14.617 38.9191 16.537 38.9191H17.4074V43.271Z" fill="#3420AD"/>
<path d="M32.6955 22.6376C32.3552 22.2972 31.8051 22.2972 31.4648 22.6376L27.1565 26.9459C26.9928 27.1095 26.9014 27.3306 26.9014 27.5612C26.9014 27.7919 26.9928 28.0138 27.1565 28.1766L28.3872 29.4082C28.717 29.738 28.8989 30.175 28.8989 30.6389C28.8989 31.1028 28.717 31.5397 28.3872 31.8696C27.7274 32.5293 26.5855 32.5293 25.9258 31.8696L24.6951 30.6389C24.3547 30.2986 23.8047 30.2986 23.4644 30.6389L19.156 34.9472C18.9924 35.1108 18.901 35.3319 18.901 35.5626C18.901 35.7932 18.9924 36.0152 19.156 36.1779L22.849 39.8709L22.2336 40.4862C20.8759 41.844 20.8759 44.0522 22.2336 45.4099C23.5514 46.7277 25.8396 46.7277 27.1565 45.4099L27.7718 44.7946L31.4648 48.4876C31.6354 48.6555 31.8582 48.7408 32.0802 48.7408C32.3021 48.7408 32.5258 48.6555 32.6955 48.4858L45.0043 36.177C45.3446 35.8367 45.3446 35.2867 45.0043 34.9463L32.6955 22.6376ZM32.0802 46.6398L28.3872 42.9468C28.2174 42.7771 27.9946 42.6918 27.7718 42.6918C27.549 42.6918 27.3262 42.7771 27.1565 42.9468L25.9258 44.1775C25.266 44.8372 24.1241 44.8372 23.4644 44.1775C22.7863 43.4986 22.7863 42.3941 23.4644 41.7152L24.6951 40.4845C24.8587 40.3209 24.9501 40.0998 24.9501 39.8692C24.9501 39.6385 24.8587 39.4166 24.6951 39.2538L21.0021 35.5608L24.0797 32.4832L24.6951 33.0985C26.0128 34.4163 28.301 34.4154 29.6179 33.0985C30.2767 32.4397 30.6397 31.5658 30.6397 30.6363C30.6397 29.7067 30.2767 28.8329 29.6179 28.174L29.0025 27.5586L32.0802 24.481L43.1582 35.5591L32.0802 46.6398Z" fill="#3420AD"/>
</svg>
