<svg width="55" height="54" viewBox="0 0 55 54" fill="none" xmlns="http://www.w3.org/2000/svg">
<path d="M29.7655 40.3681C29.7655 40.3899 29.7655 40.4118 29.7655 40.4227C29.7655 42.0628 28.4316 43.3967 26.7915 43.3967H26.6603C25.0203 43.3967 23.6864 42.0628 23.6864 40.4227V40.3681C23.6864 38.728 25.0203 37.3941 26.6603 37.3941H26.7915C28.4316 37.3941 29.7655 38.728 29.7655 40.3681ZM19.6738 21.0703C19.6519 21.0703 19.6301 21.0703 19.6191 21.0703C17.5964 21.0703 16.2188 19.0367 16.9623 17.1561C17.017 17.014 17.0716 16.8828 17.1372 16.7407C17.7276 15.4396 18.482 14.3353 19.4114 13.4387C20.3517 12.5312 21.445 11.8206 22.6915 11.3395C23.9488 10.8475 25.3046 10.6069 26.7697 10.6069C28.3332 10.6069 29.7545 10.8365 31.0447 11.2957C32.3349 11.7331 33.4282 12.3563 34.3466 13.1545C35.276 13.9526 35.9976 14.9038 36.5005 16.019C37.0254 17.1233 37.2878 18.337 37.2878 19.6381C37.2878 20.5127 37.1784 21.3437 36.9488 22.1309C36.7192 22.8962 36.4021 23.6288 35.9976 24.3285C35.5931 25.0174 35.101 25.6624 34.5325 26.2857C33.964 26.9089 33.3298 27.4993 32.6519 28.0678C31.8866 28.702 31.2634 29.2705 30.7932 29.7516C30.334 30.2436 30.0279 30.6591 29.8639 31.0199C29.6671 31.4354 29.5359 32.1351 29.4593 33.1301C29.35 34.5405 28.1692 35.6338 26.7478 35.6338C26.7259 35.6338 26.715 35.6338 26.6931 35.6338C25.1078 35.6338 23.8504 34.2781 23.9816 32.6927C24.1238 30.9543 24.408 29.6423 24.8235 28.7676C25.4467 27.4993 26.5947 26.1544 28.2894 24.7331C29.022 24.1317 29.5905 23.596 29.9951 23.1477C30.3996 22.6776 30.7167 22.2621 30.9244 21.9013C31.1322 21.5296 31.2634 21.1797 31.318 20.8735C31.3618 20.5455 31.3946 20.2175 31.3946 19.8677C31.3946 19.2335 31.2852 18.6431 31.0556 18.1074C30.8479 17.5716 30.5308 17.1015 30.1263 16.7188C29.7217 16.3252 29.2407 16.03 28.6831 15.8113C28.1254 15.5817 27.5132 15.4724 26.8244 15.4724C24.6814 15.4724 23.2053 16.6751 22.3963 19.0914C21.9917 20.2613 20.9093 21.0703 19.6738 21.0703Z" fill="#3420AD"/>
<path d="M54.0161 27.0072C54.0052 21.453 52.2886 15.9316 49.0523 11.4051C45.8597 6.93324 41.3988 3.51104 36.2382 1.61953C30.9682 -0.315706 25.0641 -0.51251 19.6629 1.00725C14.4476 2.48328 9.68056 5.57748 6.22556 9.76503C2.67215 14.0729 0.518243 19.3647 0.080901 24.9408C-0.356441 30.5169 0.988386 36.2024 3.89671 40.9913C6.68477 45.5834 10.8723 49.3445 15.7706 51.564C20.9749 53.9257 26.8025 54.5926 32.4114 53.4664C37.7579 52.395 42.7436 49.6288 46.5048 45.6927C50.2878 41.7457 52.8572 36.6397 53.6772 31.2385C53.8959 29.839 54.0161 28.4286 54.0161 27.0072C54.0161 25.5968 51.8294 25.5968 51.8294 27.0072C51.8185 32.157 50.2222 37.1755 47.2483 41.3849C44.3946 45.4303 40.2398 48.612 35.5822 50.3067C30.673 52.0888 25.2718 52.3075 20.2424 50.8971C15.3769 49.5194 11.0363 46.6439 7.82186 42.7625C4.61833 38.903 2.65029 34.0047 2.26761 28.9972C1.874 23.8256 3.07669 18.6321 5.75542 14.1931C8.34667 9.8853 12.239 6.45216 16.8092 4.36386C21.4779 2.23181 26.879 1.6414 31.9085 2.66915C36.8832 3.67504 41.4535 6.20069 44.9631 9.86343C48.4619 13.5262 50.7579 18.2057 51.5561 23.2133C51.7529 24.4707 51.8294 25.739 51.8404 27.0072C51.8294 28.4177 54.0161 28.4177 54.0161 27.0072Z" fill="#3420AD"/>
</svg>
